<svg xmlns="http://www.w3.org/2000/svg" xmlns:xlink="http://www.w3.org/1999/xlink" width="295" height="285" viewBox="0 0 295 285">
  <defs>
    <clipPath id="clip-path">
      <rect id="three-people-are-smiling-one-is-looking-tablet" width="295" height="285" transform="translate(495 386)" fill="#fed6a8"/>
    </clipPath>
    <clipPath id="clip-path-2">
      <rect id="Rectangle_406371" data-name="Rectangle 406371" width="212.174" height="241.5" fill="#fd9826"/>
    </clipPath>
    <clipPath id="clip-path-3">
      <rect id="Rectangle_406370" data-name="Rectangle 406370" width="212.174" height="241.5" fill="none"/>
    </clipPath>
    <clipPath id="clip-path-4">
      <rect id="Rectangle_406368" data-name="Rectangle 406368" width="149.645" height="219.706" fill="none"/>
    </clipPath>
    <clipPath id="clip-path-5">
      <rect id="Rectangle_406369" data-name="Rectangle 406369" width="23.4" height="15.216" fill="none"/>
    </clipPath>
    <clipPath id="clip-path-6">
      <rect id="Rectangle_406367" data-name="Rectangle 406367" width="155.372" height="375.017" fill="none"/>
    </clipPath>
    <clipPath id="clip-path-8">
      <rect id="Rectangle_406365" data-name="Rectangle 406365" width="6.84" height="3.725" transform="translate(83.753 29.471)" fill="none"/>
    </clipPath>
  </defs>
  <g id="Group_1113452" data-name="Group 1113452" transform="translate(-495 -386)">
    <g id="Mask_Group_1098756" data-name="Mask Group 1098756" clip-path="url(#clip-path)">
      <rect id="three-people-are-smiling-one-is-looking-tablet-2" data-name="three-people-are-smiling-one-is-looking-tablet" width="295" height="285" transform="translate(495 386)" fill="#feead2"/>
      <g id="Group_1113451" data-name="Group 1113451" transform="translate(567.65 393.25)">
        <g id="Group_1113450" data-name="Group 1113450" clip-path="url(#clip-path-2)">
          <g id="Group_1113449" data-name="Group 1113449">
            <g id="Group_1113448" data-name="Group 1113448" clip-path="url(#clip-path-3)">
              <path id="Path_907108" data-name="Path 907108" d="M175,24.989l36.36-1.536a11.791,11.791,0,0,1,12.285,11.511l1.285,56.162a11.791,11.791,0,0,1-10.563,12,3.917,3.917,0,0,0-3.507,4.047l4.568,118.62a14.715,14.715,0,0,1-14.052,15.267l-138.9,6.167a3.917,3.917,0,0,1-4.089-3.8L52.24,37.517a3.918,3.918,0,0,1,3.636-4.025Z" transform="translate(-12.761 -5.727)" fill="#fd9826"/>
              <g id="Group_1113444" data-name="Group 1113444" transform="translate(45.508 17.993)" opacity="0.3">
                <g id="Group_1113443" data-name="Group 1113443">
                  <g id="Group_1113442" data-name="Group 1113442" clip-path="url(#clip-path-4)">
                    <path id="Path_907109" data-name="Path 907109" d="M60.219,239.623l.116,3.893,149.529-13.749L207.006,23.81s-36.3,5.5-36.957,5.5S60.219,239.623,60.219,239.623" transform="translate(-60.219 -23.809)"/>
                  </g>
                </g>
              </g>
              <path id="Path_907110" data-name="Path 907110" d="M148.471,10.006l43.394-2.647,4.48,213.471L43.614,236.32,21.121,23.97Z" transform="translate(-5.159 -1.798)" fill="#ebebeb"/>
              <path id="Path_907111" data-name="Path 907111" d="M148.419,9.974s-.762.1-2.249.268l-6.6.745L114.2,13.809,21.085,24.085l.131-.162c6.04,56.895,13.886,130.8,22.541,212.345l-.215-.175,34.234-3.473,118.5-12.008-.168.19c-1.916-93.335-3.488-169.888-4.383-213.472l.1.088L159.525,9.345l-8.3.482c-1.862.106-2.81.147-2.81.147s.945-.074,2.805-.195l8.294-.529,32.289-2.012.094-.006,0,.094c.934,43.584,2.575,120.134,4.576,213.468l0,.172-.172.018-118.5,12.028-34.234,3.471-.194.02-.02-.194C34.748,154.763,26.936,80.852,20.922,23.954l-.015-.147.146-.016,93.133-10.146L139.56,10.9l6.606-.7c1.489-.156,2.253-.225,2.253-.225" transform="translate(-5.107 -1.767)" fill="#263238"/>
              <path id="Path_907112" data-name="Path 907112" d="M11.078,15.138,31.754,229.977,191.712,214.91,168.644.231Z" transform="translate(-2.706 -0.056)" fill="#fff"/>
              <path id="Path_907113" data-name="Path 907113" d="M11.078,15.082,168.629.015,168.787,0l.017.158c6.486,60.266,14.475,134.5,23.1,214.674l.021.2-.2.018-1.134.107L31.77,230.1l-.177.017-.017-.177C19.44,102.73,11.228,16.648,11.078,15.082c.152,1.564,8.506,87.634,20.852,214.823l-.193-.16,158.823-14.98,1.134-.107-.178.217C182.914,134.693,174.95,60.46,168.484.192l.175.143L11.078,15.082" transform="translate(-2.706)" fill="#263238"/>
              <path id="Path_907114" data-name="Path 907114" d="M173.406,227.963a23.577,23.577,0,1,1,23.522,23.632,23.6,23.6,0,0,1-23.522-23.632m46.721.11a23.144,23.144,0,1,0-23.2,23.089,23.17,23.17,0,0,0,23.2-23.089" transform="translate(-42.361 -49.942)" fill="#e0e0e0"/>
              <path id="Path_907115" data-name="Path 907115" d="M176.964,228.944a20.563,20.563,0,1,1,20.515,20.611,20.586,20.586,0,0,1-20.515-20.611m38.093.089a17.53,17.53,0,1,0-17.571,17.488,17.55,17.55,0,0,0,17.571-17.488" transform="translate(-43.23 -50.916)" fill="#e0e0e0"/>
              <path id="Path_907116" data-name="Path 907116" d="M183.66,233.769a15.059,15.059,0,0,1,1.629-6.821L188,228.317a12.05,12.05,0,0,0-1.3,5.459A12.181,12.181,0,0,0,205.217,244.2l1.583,2.588a15.214,15.214,0,0,1-23.141-13.02" transform="translate(-44.865 -55.44)" fill="#e0e0e0"/>
              <path id="Path_907117" data-name="Path 907117" d="M194.5,217.605a15.216,15.216,0,0,1,19.9,21.6l-2.566-1.618a12.183,12.183,0,0,0-15.928-17.3Z" transform="translate(-47.513 -52.739)" fill="#e0e0e0"/>
              <path id="Path_907118" data-name="Path 907118" d="M72.859,45.565A4.226,4.226,0,0,1,76.9,40.882a4.32,4.32,0,0,1,3.651,1.175L79.22,43.531a2.413,2.413,0,0,0-2.012-.756,2.335,2.335,0,0,0,.475,4.644A2.418,2.418,0,0,0,79.5,46.271l1.6,1.173a4.324,4.324,0,0,1-3.338,1.889,4.225,4.225,0,0,1-4.9-3.768" transform="translate(-17.792 -9.979)" fill="#263238"/>
              <path id="Path_907119" data-name="Path 907119" d="M83.967,44.428a4.55,4.55,0,1,1,4.948,3.763,4.273,4.273,0,0,1-4.948-3.763m6.71-.686a2.209,2.209,0,1,0-1.957,2.546,2.186,2.186,0,0,0,1.957-2.546" transform="translate(-20.506 -9.701)" fill="#263238"/>
              <path id="Path_907120" data-name="Path 907120" d="M104.707,38.144l.831,8.127-1.892.193L99.616,42.5l.443,4.331-2.252.23-.831-8.127,1.892-.193L102.9,42.7l-.443-4.329Z" transform="translate(-23.69 -9.318)" fill="#263238"/>
              <path id="Path_907121" data-name="Path 907121" d="M111.027,39.355l-2.5.255-.186-1.823,7.278-.744.187,1.823-2.484.254.645,6.3-2.3.235Z" transform="translate(-26.467 -9.049)" fill="#263238"/>
              <path id="Path_907122" data-name="Path 907122" d="M123.276,42.4l-1.254.128.221,2.159-2.3.235-.831-8.127,3.715-.379c2.217-.227,3.729.781,3.918,2.638a2.71,2.71,0,0,1-1.328,2.728l2.014,2.374-2.461.252Zm-.4-4.159-1.276.131.243,2.38,1.276-.13c.952-.1,1.382-.588,1.307-1.33s-.6-1.148-1.55-1.05" transform="translate(-29.098 -8.888)" fill="#263238"/>
              <path id="Path_907123" data-name="Path 907123" d="M136.551,41.6l-3.437.351-.478,1.644-2.345.24,2.757-8.493,2.263-.231,4.43,7.759-2.391.244Zm-.847-1.627-1.311-2.493-.778,2.708Z" transform="translate(-31.828 -8.576)" fill="#263238"/>
              <path id="Path_907124" data-name="Path 907124" d="M142.392,38.455a4.226,4.226,0,0,1,4.038-4.683,4.322,4.322,0,0,1,3.651,1.175l-1.328,1.474a2.412,2.412,0,0,0-2.012-.756,2.335,2.335,0,0,0,.475,4.644,2.417,2.417,0,0,0,1.818-1.147l1.6,1.173a4.322,4.322,0,0,1-3.338,1.889,4.225,4.225,0,0,1-4.9-3.768" transform="translate(-34.778 -8.243)" fill="#263238"/>
              <path id="Path_907125" data-name="Path 907125" d="M155.318,34.825l-2.5.255-.187-1.823,7.279-.744.187,1.823-2.484.255.645,6.3-2.3.235Z" transform="translate(-37.287 -7.943)" fill="#263238"/>
              <path id="Path_907126" data-name="Path 907126" d="M170.969,73.366c.011.108-30.175,3.047-67.412,6.563S36.112,86.208,36.1,86.1s30.169-3.046,67.419-6.563,67.438-6.278,67.449-6.17" transform="translate(-8.819 -17.921)" fill="#263238"/>
              <path id="Path_907127" data-name="Path 907127" d="M97.6,71.13c.011.108-13.92,1.512-31.109,3.135s-31.14,2.852-31.151,2.743S49.259,75.5,66.454,73.873,97.589,71.022,97.6,71.13" transform="translate(-8.633 -17.374)" fill="#263238"/>
              <path id="Path_907128" data-name="Path 907128" d="M171.747,84.949c.011.108-30.175,3.047-67.412,6.563S36.89,97.791,36.879,97.683s30.169-3.046,67.419-6.563,67.438-6.278,67.449-6.17" transform="translate(-9.009 -20.751)" fill="#263238"/>
              <path id="Path_907129" data-name="Path 907129" d="M172.525,96.532c.011.108-30.175,3.047-67.412,6.563s-67.445,6.279-67.456,6.171,30.169-3.046,67.419-6.563,67.439-6.278,67.449-6.17" transform="translate(-9.199 -23.581)" fill="#263238"/>
              <path id="Path_907130" data-name="Path 907130" d="M173.3,108.115c.011.108-30.175,3.047-67.412,6.563s-67.445,6.279-67.456,6.171,30.169-3.046,67.419-6.563,67.439-6.278,67.449-6.17" transform="translate(-9.389 -26.41)" fill="#263238"/>
              <path id="Path_907131" data-name="Path 907131" d="M174.081,119.7c.011.108-30.175,3.047-67.412,6.563s-67.445,6.279-67.456,6.171,30.169-3.046,67.419-6.563,67.438-6.278,67.449-6.17" transform="translate(-9.579 -29.24)" fill="#263238"/>
              <path id="Path_907132" data-name="Path 907132" d="M174.859,131.282c.01.108-30.175,3.047-67.412,6.563S40,144.124,39.991,144.016s30.169-3.046,67.419-6.563,67.438-6.278,67.449-6.17" transform="translate(-9.769 -32.07)" fill="#263238"/>
              <path id="Path_907133" data-name="Path 907133" d="M176.206,142.865c.01.108-29.781,3.009-66.532,6.48s-66.565,6.2-66.575,6.088,29.774-3.009,66.538-6.48,66.558-6.2,66.569-6.087" transform="translate(-10.529 -34.899)" fill="#263238"/>
              <path id="Path_907134" data-name="Path 907134" d="M124.487,165.144c.01.108-17.974,1.816-40.163,3.813s-40.192,3.531-40.2,3.422,17.97-1.815,40.167-3.813,40.188-3.53,40.2-3.422" transform="translate(-10.778 -40.341)" fill="#263238"/>
              <path id="Path_907135" data-name="Path 907135" d="M105.755,260.882c.009.108-10.936,1.126-24.443,2.273s-24.47,1.989-24.479,1.881,10.934-1.126,24.445-2.273,24.468-1.989,24.477-1.881" transform="translate(-13.883 -63.727)"/>
              <path id="Path_907136" data-name="Path 907136" d="M84.875,271.94c.009.108-6.131.718-13.713,1.362s-13.738,1.078-13.747.97,6.13-.718,13.714-1.362,13.737-1.078,13.746-.97" transform="translate(-14.026 -66.427)"/>
              <path id="Path_907137" data-name="Path 907137" d="M81.078,190.418c.011.108-7.214.908-16.135,1.788s-16.164,1.5-16.175,1.4,7.213-.908,16.136-1.788,16.162-1.5,16.173-1.4" transform="translate(-11.914 -46.513)" fill="#ff725e"/>
              <g id="Group_1113447" data-name="Group 1113447" transform="translate(25.246 178.354)" opacity="0.3">
                <g id="Group_1113446" data-name="Group 1113446">
                  <g id="Group_1113445" data-name="Group 1113445" clip-path="url(#clip-path-5)">
                    <path id="Path_907138" data-name="Path 907138" d="M33.913,251.224,48.6,248.385l8.211-12.378-23.4,7.685Z" transform="translate(-33.407 -236.007)"/>
                  </g>
                </g>
              </g>
              <path id="Path_907139" data-name="Path 907139" d="M0,234.008,39.206,230.3l9.44,4.316-7.534,8.475L1.285,247.382Z" transform="translate(0 -56.258)" fill="#ff725e"/>
              <path id="Path_907140" data-name="Path 907140" d="M21.8,238.47l.5,5.028-1.164.117-.206-2.062-2.284.23.206,2.061-1.164.117-.5-5.029,1.164-.116.2,1.983,2.284-.23-.2-1.983Z" transform="translate(-4.199 -58.255)" fill="#fff"/>
              <path id="Path_907141" data-name="Path 907141" d="M28.875,241.653l-2.923.293a1.036,1.036,0,0,0,1.184.665,1.319,1.319,0,0,0,.932-.472l.661.586a2.035,2.035,0,0,1-1.532.786,2.017,2.017,0,0,1-2.4-1.768,1.978,1.978,0,0,1,1.861-2.2,1.923,1.923,0,0,1,2.213,1.8c.009.086.007.211.008.3m-3-.36,1.9-.19a.97.97,0,0,0-1.9.19" transform="translate(-6.054 -58.515)" fill="#fff"/>
              <path id="Path_907142" data-name="Path 907142" d="M33.311,238.866l.1,1.035c-.094,0-.167,0-.252.011a.953.953,0,0,0-.92,1.18l.183,1.824-1.12.113-.388-3.864,1.069-.107.051.51a1.567,1.567,0,0,1,1.272-.7" transform="translate(-7.553 -58.351)" fill="#fff"/>
              <path id="Path_907143" data-name="Path 907143" d="M38.885,240.649l-2.923.292a1.035,1.035,0,0,0,1.183.666,1.317,1.317,0,0,0,.932-.472l.661.586a2.266,2.266,0,0,1-3.936-.983,1.976,1.976,0,0,1,1.861-2.2,1.922,1.922,0,0,1,2.212,1.8c.009.086.007.211.009.3m-3-.36,1.9-.191a.97.97,0,0,0-1.9.191" transform="translate(-8.499 -58.269)" fill="#fff"/>
              <path id="Path_907144" data-name="Path 907144" d="M136.964,189.141s.046.012.135.045a1.858,1.858,0,0,1,.382.18,5.43,5.43,0,0,1,1.261,1.067,18.038,18.038,0,0,1,3.177,5.478,22.929,22.929,0,0,1,1.647,9.864,14.865,14.865,0,0,1-.535,3.005,20.046,20.046,0,0,1-5.392,8.674,20.929,20.929,0,0,1-6.477,4.237,17.735,17.735,0,0,1-8.272,1.3,18.149,18.149,0,0,1-14.526-10.374,14.822,14.822,0,0,1-1.315-4.8,11.287,11.287,0,0,1,.529-5.067,8.147,8.147,0,0,1,3.018-4.229,5.844,5.844,0,0,1,2.515-.94,6.021,6.021,0,0,1,2.69.315,7.942,7.942,0,0,1,4.145,3.439,12.738,12.738,0,0,1,1.644,5.238,22.874,22.874,0,0,1-1.613,11,21.638,21.638,0,0,1-6.646,8.9,19.951,19.951,0,0,1-10,4.024,18.753,18.753,0,0,1-10.267-1.672,17.538,17.538,0,0,1-7.3-6.785,17.009,17.009,0,0,1-2.471-9.162,12.417,12.417,0,0,1,.881-4.509,8.94,8.94,0,0,1,2.583-3.627,5.344,5.344,0,0,1,4.1-1.212,6.137,6.137,0,0,1,3.614,2.012,7.7,7.7,0,0,1,1.813,3.547,9.983,9.983,0,0,1-.005,3.813,19.8,19.8,0,0,1-2.69,6.5,31.257,31.257,0,0,1-3.775,5.019,34.124,34.124,0,0,1-4.019,3.7,34.658,34.658,0,0,1-3.825,2.543,29.448,29.448,0,0,1-5.8,2.561c-1.384.441-2.133.593-2.133.593s.18-.065.536-.172.893-.241,1.572-.5a30.526,30.526,0,0,0,5.753-2.619,35.008,35.008,0,0,0,3.786-2.558,34.3,34.3,0,0,0,3.971-3.7,31.179,31.179,0,0,0,3.723-5A19.578,19.578,0,0,0,96,212.85a9.705,9.705,0,0,0-.005-3.7,7.416,7.416,0,0,0-1.753-3.4,5.834,5.834,0,0,0-3.432-1.9A5.025,5.025,0,0,0,86.956,205a8.622,8.622,0,0,0-2.476,3.5,12.079,12.079,0,0,0-.846,4.391,16.677,16.677,0,0,0,2.436,8.967,17.179,17.179,0,0,0,7.156,6.632,18.376,18.376,0,0,0,10.06,1.627,19.58,19.58,0,0,0,9.8-3.95,21.263,21.263,0,0,0,6.522-8.741,22.5,22.5,0,0,0,1.589-10.807,12.361,12.361,0,0,0-1.588-5.079,7.552,7.552,0,0,0-3.938-3.276,5.639,5.639,0,0,0-2.52-.3,5.474,5.474,0,0,0-2.346.876,7.776,7.776,0,0,0-2.875,4.034,10.9,10.9,0,0,0-.517,4.908,14.479,14.479,0,0,0,1.276,4.689,17.823,17.823,0,0,0,14.226,10.2,17.451,17.451,0,0,0,8.129-1.258,20.685,20.685,0,0,0,6.4-4.157,19.845,19.845,0,0,0,5.358-8.54,14.668,14.668,0,0,0,.542-2.957,22.915,22.915,0,0,0-1.571-9.791,18.368,18.368,0,0,0-3.093-5.48,5.669,5.669,0,0,0-1.223-1.085c-.311-.2-.5-.24-.5-.259" transform="translate(-18.084 -46.204)"/>
              <path id="Path_907145" data-name="Path 907145" d="M146.115,42.358s-.021-.128-.051-.371-.071-.61-.125-1.075c-.107-.954-.261-2.346-.463-4.153-.394-3.626-.968-8.908-1.694-15.588l.131.106-81.608,8.6h0l.175-.215c.758,7.274,1.5,14.371,2.21,21.2l-.211-.172,58.238-6,17.156-1.737,4.625-.458,1.2-.113c.272-.024.418-.031.418-.031s-.128.022-.391.054l-1.177.135-4.578.5-17.1,1.842L64.514,51.075l-.191.02L64.3,50.9c-.714-6.828-1.457-13.925-2.218-21.2l-.02-.2.2-.02h0l81.624-8.448.119-.012.011.119c.673,6.716,1.205,12.026,1.571,15.671.175,1.8.31,3.183.4,4.134.042.456.075.807.1,1.056s.025.351.025.351" transform="translate(-15.161 -5.137)" fill="#455a64"/>
            </g>
          </g>
        </g>
      </g>
      <g id="Group_1113441" data-name="Group 1113441" transform="translate(509.365 483.492)">
        <g id="Group_1113440" data-name="Group 1113440" clip-path="url(#clip-path-6)">
          <g id="Group_1113439" data-name="Group 1113439">
            <g id="Group_1113438" data-name="Group 1113438" clip-path="url(#clip-path-6)">
              <path id="Path_907034" data-name="Path 907034" d="M110.68,81.791l-3.829,5.468s8.232,8.785,3.884,18.255-7.755,11.412-7.755,11.412,11.093,12.027.384,14.374c-8.623,1.89-44.726.175-49.409.422-5.8.306-6.856-3.926-4.388-7.651a26.978,26.978,0,0,1,4.068-5.208c-.673-15.5-.795-42.084-.472-42.683.435-.807,3.7-8.528,8.666-12.8s39.526-.568,39.526-.568Z" fill="#f6cbc2"/>
              <path id="Path_907035" data-name="Path 907035" d="M78.81,91.214s-2.508,16.511-.031,18.928,15.431.5,15.431.5l1.11-18.651s-16.036-2.441-16.51-.777" fill="#fff"/>
              <path id="Path_907036" data-name="Path 907036" d="M113.244,352.678a24.42,24.42,0,0,1-2.3-1.451,28.909,28.909,0,0,1-7.563-11.093c-1.712-4.813,4.036-23.208,4.491-23.661l-20.388,4.213s1.387,16.691.648,22.043-5.306,18.5-3.681,21.766,25.222,7.637,34.1,8.428c13.784,1.229,18.707-4.627,18.8-6.4.061-1.214-20.206-11.026-24.1-13.848" fill="#cc8770"/>
              <path id="Path_907037" data-name="Path 907037" d="M137.086,366.109A13.934,13.934,0,0,0,135.473,365h0c-.3.18-9.242,5.359-24.564,4.516-15.582-.859-27.292-9.713-27.292-9.713-.29,2.064-.346,3.836.11,4.749a1.476,1.476,0,0,0,.217.311,3.633,3.633,0,0,0,.8.649c4.982,3.149,25.38,6.856,33.526,7.583,10.737.959,16.05-2.3,18.095-4.676,1.026-1.255,1.155-1.945.718-2.31" fill="#a0d2f4"/>
              <path id="Path_907038" data-name="Path 907038" d="M132.2,363.078l-18.751-10.4a23,23,0,0,1-5.771-5.555h0c-2.058-5.239-6.62-5.811-9.02-2.839-1.595,1.975-1.828,5.119-1.777,7.208-.225.01-.45.025-.676.022a14.492,14.492,0,0,1-9.614-4.307c-1.177,4.516-2.332,9.217-2.786,12.337,0,0,12.23,9.258,27.61,10.108s24.287-4.631,24.287-4.631Z" fill="#8380ff"/>
              <path id="Path_907039" data-name="Path 907039" d="M102.065,355.812c1.2-.847,2.1-2.038,3.309-2.9A16.37,16.37,0,0,1,109.7,350.8a.654.654,0,0,0-.347-1.26c-2.895.52-6.966,2.94-7.495,6.113-.018.109.1.24.21.161" fill="#421b36"/>
              <path id="Path_907040" data-name="Path 907040" d="M108.666,358.678c1.985-1.494,3.5-3.5,6.081-4.006.844-.164.634-1.484-.2-1.479a6.308,6.308,0,0,0-4.01,1.859c-.967.88-2.061,2.131-2.105,3.492a.156.156,0,0,0,.234.134" fill="#421b36"/>
              <path id="Path_907041" data-name="Path 907041" d="M114.751,361.674a20.911,20.911,0,0,0,2.32-2.5,13.5,13.5,0,0,1,3.175-1.875c.871-.473.221-1.6-.623-1.479-2.242.327-5.547,3.065-5.484,5.505a.41.41,0,0,0,.612.351" fill="#421b36"/>
              <path id="Path_907042" data-name="Path 907042" d="M94.726,359.278a21.613,21.613,0,0,0,7.69,2.4c.646.087.806-1.049.155-1.147a65.7,65.7,0,0,1-7.635-1.747.274.274,0,0,0-.21.5" fill="#fff"/>
              <path id="Path_907043" data-name="Path 907043" d="M84.1,360.3a52.386,52.386,0,0,0,41.05,9.222c3.757-.723,7.69-1.691,10.761-4.085.591-.462-.24-1.282-.825-.825-2.738,2.135-6.322,2.989-9.661,3.668a52.746,52.746,0,0,1-10.387,1.062,50.343,50.343,0,0,1-20.17-4.134,52.14,52.14,0,0,1-10.179-5.916c-.6-.447-1.187.566-.589,1.008" fill="#421b36"/>
              <path id="Path_907044" data-name="Path 907044" d="M20.14,329.876c.228.684.7,9.71-1.985,16.483s14.183,8.825,14.183,8.825,3.057-18.456,4.539-24.042-16.737-1.266-16.737-1.266" fill="#cc8770"/>
              <path id="Path_907045" data-name="Path 907045" d="M.613,368.521a22.247,22.247,0,0,0,.489,4.1c.456,1.938,7.182,2.85,15.96,2.166s13.68-4.9,14.022-5.358.989-7.157.989-7.157Z" fill="#a0d2f4"/>
              <path id="Path_907046" data-name="Path 907046" d="M18.544,345.836c-.314.265-8.55,12.768-11.286,14.706S.19,365.33.646,369.206s16.986,2.736,23.37.912,6.27-1.026,7.3-3.306,1.026-11.514,1.026-12.768-4.446-16.074-13.794-8.208" fill="#8380ff"/>
              <path id="Path_907047" data-name="Path 907047" d="M10.207,357.395c3.072-.873,6.749-.812,9.5.986.454.3.177,1.133-.39.926-2.991-1.1-5.667-1.754-8.86-1.017a.465.465,0,0,1-.247-.9" fill="#421b36"/>
              <path id="Path_907048" data-name="Path 907048" d="M13.448,354.249c2.786-.961,6.023-.291,8.643.868.62.274.172,1.36-.466,1.106a25.429,25.429,0,0,0-8.106-1.449.269.269,0,0,1-.071-.525" fill="#421b36"/>
              <path id="Path_907049" data-name="Path 907049" d="M16.174,350.833a13.172,13.172,0,0,1,8.626.194c.78.282.433,1.543-.345,1.248a14.494,14.494,0,0,0-8.069-.673.4.4,0,0,1-.212-.769" fill="#421b36"/>
              <path id="Path_907050" data-name="Path 907050" d="M.084,369.715c1.123,1.925,3.4,2.254,5.431,2.464a59.662,59.662,0,0,0,9.775.291,31.7,31.7,0,0,0,16.568-5.38c.608-.431.025-1.444-.589-1.007a30.092,30.092,0,0,1-15.092,5.156,53.608,53.608,0,0,1-8.222-.013c-2.109-.151-5.628.018-6.863-2.1a.584.584,0,0,0-1.008.589" fill="#421b36"/>
              <path id="Path_907051" data-name="Path 907051" d="M116.427,195.291A194.519,194.519,0,0,0,109,151.537c-2.347-7.984-9.53-24.288-9.53-24.288a146.313,146.313,0,0,0-42.485-1.5s-16.2,24.024-19.445,33.819c-4.735,14.3-6.869,31.836-11.192,56.731-4.657,26.82-8.781,51.747-9.976,60.271-1.623,11.573-6.973,49.544-6.823,56.1.144,6.313,36.72,7.845,40.5,2.092,3.416-5.194,22.555-118.311,24.687-141.2l2.969.279C77.235,193.557,76,278.864,76,278.864l-1.682,53.557c2.208,4.454,41.646,3.831,42.75-.252s-.016-121.846-.646-136.878" fill="#ab8d86"/>
              <path id="Path_907052" data-name="Path 907052" d="M55.139,132.2s1.194-4.162,3.178-4.819,13.389-.831,14.546,0-.016,4.573-.827,4.819c-2.882.876-16.9,0-16.9,0" fill="#421b36"/>
              <path id="Path_907053" data-name="Path 907053" d="M75.936,127.76c-.052.217-1.46,4.608-.845,4.83s12.6,1.758,12.987.835.538-4.61,0-5-11.9-1.7-12.142-.67" fill="#421b36"/>
              <path id="Path_907054" data-name="Path 907054" d="M90.69,129.122s-.384,4.2.538,4.6,7.992.754,8.146,0-.154-3.582-1-4.012-7.634-1.364-7.685-.583" fill="#421b36"/>
              <path id="Path_907055" data-name="Path 907055" d="M148.13,98.8l-5.067,10.25s-7.623,2.838-10.358-3c-1.445-3.085.657-4.746,2.077-6S148.13,98.8,148.13,98.8" fill="#cc8770"/>
              <path id="Path_907056" data-name="Path 907056" d="M101.323,65.277s-1.578,2.536-.814,9.5c.593,5.386,1.317,11.86,2.029,17.866.192,1.572.374,3.106.557,4.587.786,6.371,1.512,11.64,1.959,13.591.169.734.381,1.646.622,2.685.025.089.044.172.063.262.079.318.155.65.236.987,2,8.3,5.955,22.86,11.056,27.862,6.071,5.946,13.268,3.391,16.655-6.876.008-.027-1.209,1.028-1.2,1a14.184,14.184,0,0,0,.418-4.477c-.18-5.561-2.068-13.985-4.552-22.718v-.006c-.05-.185-.106-.362-.155-.54-.084-.3-.171-.59-.254-.882-.693-2.385-1.425-4.779-2.175-7.133-2.4-7.561-4.978-14.741-6.994-19.836-.6-1.521-1.151-2.857-1.634-3.959-.508-1.177-.941-2.094-1.274-2.7-4.7-8.558-9.714-9.306-13.255-9.736-.559-.078-.925.5-1.286.535" fill="#cc8770"/>
              <path id="Path_907057" data-name="Path 907057" d="M110.792,81.425a28.906,28.906,0,0,1-2.437,2.293c-.579.523-1.876,1.214-1.774,2.1a.433.433,0,0,0,.3.4c.963.259,1.763-1.022,2.295-1.67a23.343,23.343,0,0,0,1.884-2.909c.1-.165-.14-.361-.272-.21" fill="#421b36"/>
              <path id="Path_907058" data-name="Path 907058" d="M96.5,62.427s-4.234,20.667-6.459,21.865c-.792.426-19.118-22.856-19.118-22.856.179-.506,16.857-1.588,25.577.991" fill="#cc8770"/>
              <path id="Path_907059" data-name="Path 907059" d="M105.739,113.762s-.194,7.4,2.315,7.246,21.136-8.086,20.979-11.869-9.391-38.375-14.4-42.131-14.949-4.357-14.949-4.357l-.637,41.409Z" fill="#f6cbc2"/>
              <path id="Path_907060" data-name="Path 907060" d="M103.87,117.2c4.086-4.224,8.544-9.01,9.378-15.048.921-6.664-1.23-12.116-5.237-17.294-.563-.728-1.57.291-1.013,1.013,4.011,5.182,6.4,11.607,4.435,18.215-1.395,4.7-5.243,8.656-8.576,12.1-.641.663.371,1.676,1.013,1.012" fill="#421b36"/>
              <path id="Path_907061" data-name="Path 907061" d="M95.376,104.314c-.159,4.038,3.054,7.32,6.732,6.869,13.006-1.593,39.466-5.55,41.682-7.241,2.87-2.189,5.075-33.464,5.566-37.59.028-.229.125-3.489-3.95-3.469-9.269.044-32.8,3.918-44.177,5.585-3.271.48-3.727,3.858-3.784,4.143-.485,2.433-1.942,28.472-1.942,28.472Z" fill="#d2e1f1"/>
              <path id="Path_907062" data-name="Path 907062" d="M120.322,82.455A3.708,3.708,0,1,0,125.59,80.7a3.94,3.94,0,0,0-5.268,1.757" fill="#fff"/>
              <path id="Path_907063" data-name="Path 907063" d="M16.441,101.028S51.2,61.478,62.757,65.539c3.2,1.123,1.719,6.916-.626,12.876-2.167,5.5,1.627,8.8-2.63,13.812C50.634,102.66,28.692,128.834,21.44,130c-10.171,1.641-21.078-10.345-5-28.976" fill="#cc8770"/>
              <path id="Path_907064" data-name="Path 907064" d="M26.025,87.324c.574,3.371,20.184,21.815,20.184,21.815s11.3-12.851,18.02-19.747,3.147-27.577,1.617-27.356c-3.084.444-10.806-.264-24.9,12.384" fill="#f6cbc2"/>
              <path id="Path_907065" data-name="Path 907065" d="M22.172,109.391c.695-.422,18.533-11.261,22.988-10.549s8.592,5.516,6.477,9.184S27.148,131.385,20.7,129.935s-10.965-12.992,1.47-20.544" fill="#cc8770"/>
              <path id="Path_907066" data-name="Path 907066" d="M43.548,72.931A99.725,99.725,0,0,1,55.589,90.78c.436.784,1.606.09,1.2-.7A85.1,85.1,0,0,0,44.078,72.4c-.323-.361-.848.17-.53.53" fill="#421b36"/>
              <path id="Path_907067" data-name="Path 907067" d="M143.712,77.47s1.032-2.53,4.928-.461,6.43,4.262,6.712,6.139-2.507,3.727-2.507,3.727,3.287,2.336-.32,4.473c0,0,1.917,3.522-2.487,3.935,0,0,.834,3.039-3.206,3.946a17.969,17.969,0,0,1-6.67.155c-2.815-.689-3.546-2.841-2.891-3.75a6.8,6.8,0,0,1,2.494-1.608s-2.825-.793-2.488-2.835a2.417,2.417,0,0,1,1.834-2.242s-3.266-1.748-1.365-4.043,9.981-.724,9.981-.724-5.941-3.569-4.015-6.712" fill="#cc8770"/>
              <path id="Path_907068" data-name="Path 907068" d="M144.987,105.159s-8.084,30.522-13.554,35.5-12.147-7.9-11.711-13.879,14.445-19.984,14.445-19.984l9.449-2.432" fill="#cc8770"/>
              <path id="Path_907069" data-name="Path 907069" d="M65.951,77.466c.239.19,20.552,14.229,20.78,14.6.3.487,2.4,2.793,1.486,3.329-.647.379-2.429.116-3.421-.071a2.892,2.892,0,0,1-1.164-.5C80.586,92.617,64.46,81.622,63.3,80.669c-1.26-1.035-1.506-1.889-.754-3s2.107-1.237,3.407-.207" fill="#421b36"/>
              <path id="Path_907070" data-name="Path 907070" d="M89.147,95.352a3.105,3.105,0,0,1-.341-.227c-.2-.139-.391-.281-.584-.424q-.6-.444-1.2-.9l-.269-.2a.5.5,0,0,0-.68.178.513.513,0,0,0,.178.681c.655.5,1.312,1,1.982,1.475a3.56,3.56,0,0,0,.411.277.5.5,0,0,0,.5-.859" fill="#421b36"/>
              <path id="Path_907071" data-name="Path 907071" d="M51.9,93.5s9.243-12.283,15.863-12.969,19.514,4.036,20.514,6.816.035,4.166-2.559,4.033-4.085-4.022-9.721-4.159c0,0,3.346,5.4-.972,7.467a3.939,3.939,0,0,1-4.372,3.759s-2.252,3.671-5.008,3.06a2.414,2.414,0,0,1-1.974-3.037s-2.38,6.208-5.882,5.882-2.657-1.4-2.657-1.4-4.652,8.59-8.545,6.814-8.4-8.863-5.108-11.233S51.9,93.5,51.9,93.5" fill="#cc8770"/>
              <path id="Path_907072" data-name="Path 907072" d="M71.078,98.665c.416-2.724.769-5.876-1.341-8.034-.449-.458-1.152.246-.7.7,1.829,1.869,1.444,4.72,1.086,7.066a.514.514,0,0,0,.347.612.5.5,0,0,0,.612-.348" fill="#421b36"/>
              <path id="Path_907073" data-name="Path 907073" d="M75.359,95.046c-.114-2.662-.4-5.734-2.871-7.312-.541-.346-1.041.515-.5.859,2.131,1.361,2.281,4.187,2.378,6.453.028.638,1.022.641,1,0" fill="#421b36"/>
              <path id="Path_907074" data-name="Path 907074" d="M87.727,88.418c-.05.023-.043.02.02-.008l-.067.024c-.045.014-.091.027-.137.037a.388.388,0,0,1-.1.019c.074-.009.082-.011.026-.006-.023,0-.047,0-.071,0a.691.691,0,0,1-.249-.011c.073.011.082.011.026,0l-.07-.014c-.035-.008-.069-.017-.1-.027a.433.433,0,0,1-.135-.047l.02.009-.032-.016c-.065-.031-.205-.084-.244-.147l.044.035-.055-.046a1.352,1.352,0,0,1-.1-.1.32.32,0,0,1-.07-.081c.04.055.045.06.013.016q-.021-.03-.039-.06a1.2,1.2,0,0,1-.062-.111c-.058-.115.015.064-.015-.031s-.048-.16-.066-.243c-.01-.056-.009-.048,0,.025,0-.024,0-.048-.007-.072,0-.042,0-.085,0-.127s0-.085.005-.127c0-.024,0-.048.007-.072-.01.072-.01.08,0,.024a2.055,2.055,0,0,1,.065-.245c.008-.023.016-.046.025-.068-.025.057-.03.069-.015.035s.037-.076.058-.113.05-.082.076-.123c.063-.1-.069.075.01-.014a1.718,1.718,0,0,1,.207-.2.5.5,0,0,0,0-.7.512.512,0,0,0-.7,0,2.14,2.14,0,0,0-.668,2.117,2.038,2.038,0,0,0,1.58,1.482,2.149,2.149,0,0,0,1.341-.158.5.5,0,0,0,.179-.681.513.513,0,0,0-.681-.178" fill="#421b36"/>
              <path id="Path_907075" data-name="Path 907075" d="M67.351,98.389a2.14,2.14,0,0,0-2.128-1.912,2.665,2.665,0,0,0-2.42,1.852,3.553,3.553,0,0,0-.081,1.886.5.5,0,1,0,.959-.265,2.064,2.064,0,0,1,.976-2.348,1.486,1.486,0,0,1,.566-.13,1.3,1.3,0,0,1,.165.007c-.088-.009.052.01.07.014a1.714,1.714,0,0,1,.2.059c.088.03-.018-.019.071.032a1.224,1.224,0,0,1,.452.371c-.043-.056.044.072.052.087s.083.157.052.085a1.423,1.423,0,0,1,.047.144c0,.02.034.2.026.118a.512.512,0,0,0,.5.5.5.5,0,0,0,.5-.5" fill="#421b36"/>
              <path id="Path_907076" data-name="Path 907076" d="M70.662,44.33,64.5,29.157c-1.38-2.954-2.864-5.956-5.251-8.178s-5.894-3.528-8.976-2.463-5.082,5.039-3.4,7.832c-4.417-1.6-9.639-2.121-13.587.426-2.132,1.376-3.777,3.923-3.171,6.386a5.994,5.994,0,0,0,3.574,3.818,17.74,17.74,0,0,0,5.283,1.1A18.949,18.949,0,0,0,26.137,49.6a9.409,9.409,0,0,0-.26,6.985,8.78,8.78,0,0,0,4.236,4.068A15.074,15.074,0,0,0,48.133,56.7a10.172,10.172,0,0,0,3.11,7.989A7.438,7.438,0,0,0,59.471,65.9a5.9,5.9,0,0,0,2.556-7.566A19.374,19.374,0,0,0,68.713,56.9a8.322,8.322,0,0,0,4.61-4.827c.684-2.188-.712-6.537-2.661-7.743" fill="#421b36"/>
              <path id="Path_907077" data-name="Path 907077" d="M84.8,10.535a25.024,25.024,0,0,1,7.463-7.342c3.044-1.76,6.878-2.433,10.122-1.076s5.564,5.046,4.719,8.46a8.129,8.129,0,0,1,9.07,5.851,8.129,8.129,0,0,1-5.373,9.361,6.1,6.1,0,0,1-6.1,8.968" fill="#421b36"/>
              <path id="Path_907078" data-name="Path 907078" d="M95.1,8.787a13.88,13.88,0,0,0-8.474,1.651l20.92,13.577c0-8.983-7.292-14.7-12.446-15.228" fill="#421b36"/>
              <path id="Path_907079" data-name="Path 907079" d="M74.927,20.121C80.752,8.543,97.21,7.377,104.64,18c2.35,3.359,3.88,8.062,4.747,14.526C111.806,50.557,94.4,53.476,94.4,53.476l-1.08,16.561L76.376,66.573,77.984,47.28s-4.176-13.053-4.371-21.7a11.516,11.516,0,0,1,1.314-5.454" fill="#cc8770"/>
              <path id="Path_907080" data-name="Path 907080" d="M102.014,23.436a1.094,1.094,0,1,1-1.281-1,1.153,1.153,0,0,1,1.281,1" fill="#421b36"/>
              <path id="Path_907081" data-name="Path 907081" d="M90.478,25.608a1.094,1.094,0,1,1-1.281-1,1.152,1.152,0,0,1,1.281,1" fill="#421b36"/>
              <path id="Path_907082" data-name="Path 907082" d="M81.47,20.856c2.111-1.81,4.58-1.957,7.19-2a.529.529,0,0,0,.118-1.037c-2.858-.908-5.8.644-7.724,2.644-.261.27.142.627.416.392" fill="#421b36"/>
              <path id="Path_907083" data-name="Path 907083" d="M87.958,51.768A14.959,14.959,0,0,0,98.738,53c.589-.146.312-.989-.26-.887a25.117,25.117,0,0,1-10.489-.426.042.042,0,0,0-.031.078" fill="#421b36"/>
              <path id="Path_907084" data-name="Path 907084" d="M75.759,49.9c-7.375-9.124-12.631-6.9-11.513-18.575a28.889,28.889,0,0,1,.762-4.863,31.407,31.407,0,0,1,2.68-6.964,22.341,22.341,0,0,1,6.055-6.444c4.205-3.164,9.719-3.612,14.911-2.756l.134.469C85.281,13.938,76.7,22.223,76.7,27.465s-.035,5.9,1.44,11.18c3.03,10.852-.967,14.415-.967,14.415Z" fill="#421b36"/>
              <g id="Group_1113437" data-name="Group 1113437" opacity="0.3">
                <g id="Group_1113436" data-name="Group 1113436">
                  <g id="Group_1113435" data-name="Group 1113435" clip-path="url(#clip-path-8)">
                    <path id="Path_907085" data-name="Path 907085" d="M90.579,30.737c.171.974-1.216,2.031-3.1,2.361s-3.544-.193-3.715-1.167,1.216-2.031,3.1-2.361,3.544.193,3.715,1.167" fill="#421b36"/>
                  </g>
                </g>
              </g>
              <path id="Path_907086" data-name="Path 907086" d="M70.508,34.311a3.179,3.179,0,0,0-3.111.952,5.013,5.013,0,0,0-1.241,3.119,5.893,5.893,0,0,0,2.091,5.049,4.358,4.358,0,0,0,5.271.07Z" fill="#cc8770"/>
              <path id="Path_907087" data-name="Path 907087" d="M69.179,39.828a2.9,2.9,0,0,1,1.51-.664,2.084,2.084,0,0,1,1.459.511c.471.331.9-.394.559-.771a2.388,2.388,0,0,0-2.221-.657,2.141,2.141,0,0,0-1.031.539,2.077,2.077,0,0,0-.426.96c-.028.087.092.143.15.082" fill="#421b36"/>
              <path id="Path_907088" data-name="Path 907088" d="M100.379,16.714a4.318,4.318,0,0,0-6.586,1.557C92,22.306,95.024,27.927,97.7,30.837c.419.455,1.215-.184.846-.691-1.731-2.379-3.384-4.856-3.963-7.806-.746-3.81,1.784-6.6,5.591-5.254.2.071.378-.243.2-.372" fill="#421b36"/>
              <path id="Path_907089" data-name="Path 907089" d="M97.628,35.062c-.415-.373-.9-.257-1.418-.271a5.333,5.333,0,0,1-2.161-.482c-.777-.365-2.175-1.78-2.654-.264a.944.944,0,0,0,.248.936,5.656,5.656,0,0,0,3.966,1.479c.329-.013,2.928-.583,2.019-1.4" fill="#421b36"/>
              <path id="Path_907090" data-name="Path 907090" d="M64.427,28.484c-.278-4.218-.934-9.4-5.419-11.217-2.442-.988-6.985.155-5.334,3.556.35.718,1.421.089,1.073-.628L55.893,18.1l1.027-.151a4.818,4.818,0,0,1,2.112.507,6.926,6.926,0,0,1,2.8,2.634c1.319,2.224,1.622,4.874,1.905,7.393.049.434.724.453.694,0" fill="#421b36"/>
              <path id="Path_907091" data-name="Path 907091" d="M40.445,37.242c-4.337,1.129-9.63,1.389-12.675,5.168-2.167,2.689-2.091,6.645.752,8.778.554.416,1.3-.536.746-.967-3.564-2.786-1.317-7.264,1.848-9.2,2.846-1.745,6.334-2.239,9.463-3.289a.252.252,0,0,0-.134-.486" fill="#421b36"/>
              <path id="Path_907092" data-name="Path 907092" d="M86.047,10.364c1.73-6.953,8.4-11.356,15.057-7.12.946.6,1.809-.893.876-1.5-6.68-4.331-17.195-.278-16.241,8.576.018.165.262.227.308.042" fill="#421b36"/>
              <path id="Path_907093" data-name="Path 907093" d="M85.808,9.78a7.741,7.741,0,0,1-1.319-7.718c.351-.955-1.209-1.4-1.532-.423a7.73,7.73,0,0,0,2.455,8.537.28.28,0,0,0,.4-.4" fill="#421b36"/>
              <path id="Path_907094" data-name="Path 907094" d="M116.529,127.808a71.2,71.2,0,0,1,9.088-11.434c2.822-2.942,6.328-5.968,8.048-9.727.168-.368-.269-.773-.589-.454-3.469,3.458-6.637,7.445-9.934,11.092-2.828,3.127-5.465,6.394-6.788,10.45-.033.1.118.162.175.073" fill="#421b36"/>
              <path id="Path_907095" data-name="Path 907095" d="M55.139,126.309c12.345-1.118,24.773-1.205,37.028.873,1.345.228,5.553.446,6.41,1.259.652.618,1.008,2.187,1.387,3.008.922,2,1.77,4.052,2.81,5.994.357.666,1.531.205,1.248-.526-.9-2.336-2.042-4.59-3.081-6.866a10.875,10.875,0,0,0-1.2-2.621c-1.116-1.146-4.137-1.155-5.672-1.438a100.639,100.639,0,0,0-38.966.076c-.134.028-.106.254.033.241" fill="#421b36"/>
              <path id="Path_907096" data-name="Path 907096" d="M61.028,117.141c5.258.089,10.657-1.16,15.9-1.64,5.333-.49,10.708-.449,16.031-.948a.633.633,0,0,0,0-1.265,101.72,101.72,0,0,0-16.792.942c-5,.549-10.457.945-15.153,2.79a.062.062,0,0,0,.016.121" fill="#421b36"/>
              <path id="Path_907097" data-name="Path 907097" d="M79.473,174.16a94.484,94.484,0,0,0,3.314-42.335c-.087-.533-.981-.412-.945.128a141.682,141.682,0,0,1-2.919,42.055.285.285,0,0,0,.55.152" fill="#421b36"/>
              <path id="Path_907098" data-name="Path 907098" d="M139.3,94.674a21.962,21.962,0,0,1,11.014,1.044c.6.216.864-.745.265-.959a22.977,22.977,0,0,0-11.543-1.044c-.631.1-.363,1.063.264.959" fill="#421b36"/>
              <path id="Path_907099" data-name="Path 907099" d="M138.323,89.225a27.681,27.681,0,0,1,13.882,2.323c.572.283,1.077-.575.5-.859a28.661,28.661,0,0,0-14.384-2.459c-.636.038-.641,1.034,0,.995" fill="#421b36"/>
              <path id="Path_907100" data-name="Path 907100" d="M146.029,84.178a13.661,13.661,0,0,1,7.009,2.986c.492.4,1.2-.3.7-.7a14.882,14.882,0,0,0-7.713-3.277.5.5,0,0,0-.5.5.507.507,0,0,0,.5.5" fill="#421b36"/>
              <path id="Path_907101" data-name="Path 907101" d="M137.322,85.993a3,3,0,0,0,4.964-2.139.5.5,0,1,0-.995,0,2.08,2.08,0,0,1-1.2,1.716,2.058,2.058,0,0,1-2.065-.28.511.511,0,0,0-.7,0,.5.5,0,0,0,0,.7" fill="#421b36"/>
              <path id="Path_907102" data-name="Path 907102" d="M144.324,76.728a3.121,3.121,0,0,0,5.179,1.027c.444-.461-.259-1.166-.7-.7a2.132,2.132,0,0,1-3.516-.588.514.514,0,0,0-.612-.348.5.5,0,0,0-.347.612" fill="#421b36"/>
              <path id="Path_907103" data-name="Path 907103" d="M137.327,92.059a3.95,3.95,0,0,0,4.976-3.071.511.511,0,0,0-.347-.612.5.5,0,0,0-.612.348,2.958,2.958,0,0,1-3.752,2.376.5.5,0,0,0-.265.959" fill="#421b36"/>
              <path id="Path_907104" data-name="Path 907104" d="M137.615,97.1a3.045,3.045,0,0,0,2.643-.569,3.014,3.014,0,0,0,1.1-2.34.5.5,0,1,0-.994,0c0,.09-.005.178-.011.267-.006.055.011-.055-.006.036-.009.048-.018.1-.029.143a2.3,2.3,0,0,1-.066.233c-.015.046-.032.092-.05.137.026-.064-.006.011-.018.037a2.443,2.443,0,0,1-.265.435c.054-.069-.044.048-.046.049-.026.031-.054.06-.082.089a2.385,2.385,0,0,1-.2.18c.052-.043-.017.012-.038.026s-.068.047-.1.069a2.383,2.383,0,0,1-.238.13c-.025.012-.105.045-.041.02-.047.018-.093.035-.14.05-.079.026-.159.048-.239.067l-.147.028c-.089.016.014,0-.04,0-.091.007-.181.013-.272.012a2.279,2.279,0,0,1-.248-.016c.1.012-.059-.012-.063-.013-.049-.009-.1-.021-.146-.033a.5.5,0,0,0-.263.959" fill="#421b36"/>
              <path id="Path_907105" data-name="Path 907105" d="M19.815,111.654c5.254-3.182,10.551-6.295,15.985-9.16s10.986-5.5,16.535-8.14c.578-.274.073-1.132-.5-.859-5.549,2.636-11.1,5.274-16.535,8.14s-10.731,5.978-15.985,9.16a.5.5,0,0,0,.5.859" fill="#421b36"/>
              <path id="Path_907106" data-name="Path 907106" d="M26.5,333.758c10.769-50.814,16.851-102.652,29.143-153.134,2.005-8.234,4.489-16.548,5.542-24.976.1-.781-1.263-.973-1.385-.188-2.612,16.733-8.132,33.016-11.157,49.7-4.965,27.382-9.737,54.8-14.817,82.158q-4.29,23.106-7.779,46.316c-.043.291.389.427.453.125" fill="#421b36"/>
              <path id="Path_907107" data-name="Path 907107" d="M97.7,335.521c1.415-5.688,1.387-11.806,1.606-17.633.259-6.916.313-13.841.39-20.762q.2-17.843.732-35.669c.664-23.141.961-46.272-.365-69.4-.658-11.482-1.635-23.066-4.356-34.267-.221-.907-1.584-.521-1.392.384,4.563,21.519,4.769,43.907,4.726,65.811-.044,22.512-.967,45-1.108,67.511-.047,7.445-.073,14.891-.213,22.334-.135,7.155-.885,14.5-.372,21.639.014.193.3.254.352.048" fill="#421b36"/>
            </g>
          </g>
        </g>
      </g>
    </g>
  </g>
</svg>
