<svg xmlns="http://www.w3.org/2000/svg" xmlns:xlink="http://www.w3.org/1999/xlink" width="113.15" height="113.15" viewBox="0 0 113.15 113.15">
  <defs>
    <filter id="Path_873828" x="0" y="0" width="113.15" height="113.15" filterUnits="userSpaceOnUse">
      <feOffset dy="3" input="SourceAlpha"/>
      <feGaussianBlur stdDeviation="3" result="blur"/>
      <feFlood flood-opacity="0.161"/>
      <feComposite operator="in" in2="blur"/>
    </filter>
    <filter id="Path_873828-2" x="0" y="0" width="113.15" height="113.15" filterUnits="userSpaceOnUse">
      <feOffset dy="3" input="SourceAlpha"/>
      <feGaussianBlur stdDeviation="3" result="blur-2"/>
      <feFlood flood-opacity="0.161" result="color"/>
      <feComposite operator="out" in="SourceGraphic" in2="blur-2"/>
      <feComposite operator="in" in="color"/>
      <feComposite operator="in" in2="SourceGraphic"/>
    </filter>
  </defs>
  <g id="Group_1113339" data-name="Group 1113339" transform="translate(-196.051 -388)">
    <g data-type="innerShadowGroup">
      <g transform="matrix(1, 0, 0, 1, 196.05, 388)" filter="url(#Path_873828)">
        <g id="Path_873828-3" data-name="Path 873828" transform="translate(9 6)" fill="#fd9826">
          <path d="M 47.57511901855469 93.15023040771484 C 41.42163467407227 93.15023040771484 35.45327758789062 91.94551849365234 29.8358325958252 89.56953430175781 C 24.40901947021484 87.27419281005859 19.53483390808105 83.98777770996094 15.34864711761475 79.80158996582031 C 11.16246223449707 75.61540222167969 7.876047611236572 70.74121856689453 5.580704689025879 65.31440734863281 C 3.204719066619873 59.69696044921875 2.000004768371582 53.72860336303711 2.000004768371582 47.57511901855469 C 2.000004768371582 41.42163467407227 3.204719066619873 35.45327758789062 5.580704689025879 29.8358325958252 C 7.876047611236572 24.40901947021484 11.16246223449707 19.53483390808105 15.34864711761475 15.34864711761475 C 19.53483390808105 11.16246223449707 24.40901947021484 7.876047611236572 29.8358325958252 5.580704689025879 C 35.45327758789062 3.204719066619873 41.42163467407227 2.000004768371582 47.57511901855469 2.000004768371582 C 53.72860336303711 2.000004768371582 59.69696044921875 3.204719066619873 65.31440734863281 5.580704689025879 C 70.74121856689453 7.876047611236572 75.61540222167969 11.16246223449707 79.80158996582031 15.34864711761475 C 83.98777770996094 19.53483390808105 87.27419281005859 24.40901947021484 89.56953430175781 29.8358325958252 C 91.94551849365234 35.45327758789062 93.15023040771484 41.42163467407227 93.15023040771484 47.57511901855469 C 93.15023040771484 53.72860336303711 91.94551849365234 59.69696044921875 89.56953430175781 65.31440734863281 C 87.27419281005859 70.74121856689453 83.98777770996094 75.61540222167969 79.80158996582031 79.80158996582031 C 75.61540222167969 83.98777770996094 70.74121856689453 87.27419281005859 65.31440734863281 89.56953430175781 C 59.69696044921875 91.94551849365234 53.72860336303711 93.15023040771484 47.57511901855469 93.15023040771484 Z" stroke="none"/>
          <path d="M 47.57511901855469 3.999992370605469 C 41.69075012207031 3.999992370605469 35.98451995849609 5.151565551757812 30.61493682861328 7.422706604003906 C 25.42652130126953 9.617210388183594 20.76601409912109 12.75970458984375 16.76285552978516 16.76285552978516 C 12.75970458984375 20.76601409912109 9.617210388183594 25.42652130126953 7.422706604003906 30.61493682861328 C 5.151565551757812 35.98451995849609 3.999992370605469 41.69075012207031 3.999992370605469 47.57511901855469 C 3.999992370605469 53.45948791503906 5.151565551757812 59.16571807861328 7.422706604003906 64.53530120849609 C 9.617210388183594 69.72371673583984 12.75970458984375 74.38422393798828 16.76285552978516 78.38738250732422 C 20.76601409912109 82.39053344726562 25.42652130126953 85.53302764892578 30.61493682861328 87.72753143310547 C 35.98451995849609 89.99867248535156 41.69075012207031 91.15024566650391 47.57511901855469 91.15024566650391 C 53.45948791503906 91.15024566650391 59.16571807861328 89.99867248535156 64.53530120849609 87.72753143310547 C 69.72371673583984 85.53302764892578 74.38422393798828 82.39053344726562 78.38738250732422 78.38738250732422 C 82.39053344726562 74.38422393798828 85.53302764892578 69.72371673583984 87.72753143310547 64.53530120849609 C 89.99867248535156 59.16571807861328 91.15024566650391 53.45948791503906 91.15024566650391 47.57511901855469 C 91.15024566650391 41.69075012207031 89.99867248535156 35.98451995849609 87.72753143310547 30.61493682861328 C 85.53302764892578 25.42652130126953 82.39053344726562 20.76601409912109 78.38738250732422 16.76285552978516 C 74.38422393798828 12.75970458984375 69.72371673583984 9.617210388183594 64.53530120849609 7.422706604003906 C 59.16571807861328 5.151565551757812 53.45948791503906 3.999992370605469 47.57511901855469 3.999992370605469 M 47.57511901855469 -7.62939453125e-06 C 73.85013580322266 -7.62939453125e-06 95.15024566650391 21.30010223388672 95.15024566650391 47.57511901855469 C 95.15024566650391 73.85013580322266 73.85013580322266 95.15024566650391 47.57511901855469 95.15024566650391 C 21.30010223388672 95.15024566650391 -7.62939453125e-06 73.85013580322266 -7.62939453125e-06 47.57511901855469 C -7.62939453125e-06 21.30010223388672 21.30010223388672 -7.62939453125e-06 47.57511901855469 -7.62939453125e-06 Z" stroke="none" fill="#fff"/>
        </g>
      </g>
      <g id="Path_873828-4" data-name="Path 873828" transform="translate(205.051 394)" fill="#fd9826">
        <path d="M 47.57511901855469 93.15023040771484 C 41.42163467407227 93.15023040771484 35.45327758789062 91.94551849365234 29.8358325958252 89.56953430175781 C 24.40901947021484 87.27419281005859 19.53483390808105 83.98777770996094 15.34864711761475 79.80158996582031 C 11.16246223449707 75.61540222167969 7.876047611236572 70.74121856689453 5.580704689025879 65.31440734863281 C 3.204719066619873 59.69696044921875 2.000004768371582 53.72860336303711 2.000004768371582 47.57511901855469 C 2.000004768371582 41.42163467407227 3.204719066619873 35.45327758789062 5.580704689025879 29.8358325958252 C 7.876047611236572 24.40901947021484 11.16246223449707 19.53483390808105 15.34864711761475 15.34864711761475 C 19.53483390808105 11.16246223449707 24.40901947021484 7.876047611236572 29.8358325958252 5.580704689025879 C 35.45327758789062 3.204719066619873 41.42163467407227 2.000004768371582 47.57511901855469 2.000004768371582 C 53.72860336303711 2.000004768371582 59.69696044921875 3.204719066619873 65.31440734863281 5.580704689025879 C 70.74121856689453 7.876047611236572 75.61540222167969 11.16246223449707 79.80158996582031 15.34864711761475 C 83.98777770996094 19.53483390808105 87.27419281005859 24.40901947021484 89.56953430175781 29.8358325958252 C 91.94551849365234 35.45327758789062 93.15023040771484 41.42163467407227 93.15023040771484 47.57511901855469 C 93.15023040771484 53.72860336303711 91.94551849365234 59.69696044921875 89.56953430175781 65.31440734863281 C 87.27419281005859 70.74121856689453 83.98777770996094 75.61540222167969 79.80158996582031 79.80158996582031 C 75.61540222167969 83.98777770996094 70.74121856689453 87.27419281005859 65.31440734863281 89.56953430175781 C 59.69696044921875 91.94551849365234 53.72860336303711 93.15023040771484 47.57511901855469 93.15023040771484 Z" stroke="none"/>
        <path d="M 47.57511901855469 3.999992370605469 C 41.69075012207031 3.999992370605469 35.98451995849609 5.151565551757812 30.61493682861328 7.422706604003906 C 25.42652130126953 9.617210388183594 20.76601409912109 12.75970458984375 16.76285552978516 16.76285552978516 C 12.75970458984375 20.76601409912109 9.617210388183594 25.42652130126953 7.422706604003906 30.61493682861328 C 5.151565551757812 35.98451995849609 3.999992370605469 41.69075012207031 3.999992370605469 47.57511901855469 C 3.999992370605469 53.45948791503906 5.151565551757812 59.16571807861328 7.422706604003906 64.53530120849609 C 9.617210388183594 69.72371673583984 12.75970458984375 74.38422393798828 16.76285552978516 78.38738250732422 C 20.76601409912109 82.39053344726562 25.42652130126953 85.53302764892578 30.61493682861328 87.72753143310547 C 35.98451995849609 89.99867248535156 41.69075012207031 91.15024566650391 47.57511901855469 91.15024566650391 C 53.45948791503906 91.15024566650391 59.16571807861328 89.99867248535156 64.53530120849609 87.72753143310547 C 69.72371673583984 85.53302764892578 74.38422393798828 82.39053344726562 78.38738250732422 78.38738250732422 C 82.39053344726562 74.38422393798828 85.53302764892578 69.72371673583984 87.72753143310547 64.53530120849609 C 89.99867248535156 59.16571807861328 91.15024566650391 53.45948791503906 91.15024566650391 47.57511901855469 C 91.15024566650391 41.69075012207031 89.99867248535156 35.98451995849609 87.72753143310547 30.61493682861328 C 85.53302764892578 25.42652130126953 82.39053344726562 20.76601409912109 78.38738250732422 16.76285552978516 C 74.38422393798828 12.75970458984375 69.72371673583984 9.617210388183594 64.53530120849609 7.422706604003906 C 59.16571807861328 5.151565551757812 53.45948791503906 3.999992370605469 47.57511901855469 3.999992370605469 M 47.57511901855469 -7.62939453125e-06 C 73.85013580322266 -7.62939453125e-06 95.15024566650391 21.30010223388672 95.15024566650391 47.57511901855469 C 95.15024566650391 73.85013580322266 73.85013580322266 95.15024566650391 47.57511901855469 95.15024566650391 C 21.30010223388672 95.15024566650391 -7.62939453125e-06 73.85013580322266 -7.62939453125e-06 47.57511901855469 C -7.62939453125e-06 21.30010223388672 21.30010223388672 -7.62939453125e-06 47.57511901855469 -7.62939453125e-06 Z" stroke="none"/>
      </g>
      <g transform="matrix(1, 0, 0, 1, 196.05, 388)" filter="url(#Path_873828-2)">
        <g id="Path_873828-5" data-name="Path 873828" transform="translate(9 6)" fill="#fff">
          <path d="M 47.57511901855469 93.15023040771484 C 41.42163467407227 93.15023040771484 35.45327758789062 91.94551849365234 29.8358325958252 89.56953430175781 C 24.40901947021484 87.27419281005859 19.53483390808105 83.98777770996094 15.34864711761475 79.80158996582031 C 11.16246223449707 75.61540222167969 7.876047611236572 70.74121856689453 5.580704689025879 65.31440734863281 C 3.204719066619873 59.69696044921875 2.000004768371582 53.72860336303711 2.000004768371582 47.57511901855469 C 2.000004768371582 41.42163467407227 3.204719066619873 35.45327758789062 5.580704689025879 29.8358325958252 C 7.876047611236572 24.40901947021484 11.16246223449707 19.53483390808105 15.34864711761475 15.34864711761475 C 19.53483390808105 11.16246223449707 24.40901947021484 7.876047611236572 29.8358325958252 5.580704689025879 C 35.45327758789062 3.204719066619873 41.42163467407227 2.000004768371582 47.57511901855469 2.000004768371582 C 53.72860336303711 2.000004768371582 59.69696044921875 3.204719066619873 65.31440734863281 5.580704689025879 C 70.74121856689453 7.876047611236572 75.61540222167969 11.16246223449707 79.80158996582031 15.34864711761475 C 83.98777770996094 19.53483390808105 87.27419281005859 24.40901947021484 89.56953430175781 29.8358325958252 C 91.94551849365234 35.45327758789062 93.15023040771484 41.42163467407227 93.15023040771484 47.57511901855469 C 93.15023040771484 53.72860336303711 91.94551849365234 59.69696044921875 89.56953430175781 65.31440734863281 C 87.27419281005859 70.74121856689453 83.98777770996094 75.61540222167969 79.80158996582031 79.80158996582031 C 75.61540222167969 83.98777770996094 70.74121856689453 87.27419281005859 65.31440734863281 89.56953430175781 C 59.69696044921875 91.94551849365234 53.72860336303711 93.15023040771484 47.57511901855469 93.15023040771484 Z" stroke="none"/>
          <path d="M 47.57511901855469 3.999992370605469 C 41.69075012207031 3.999992370605469 35.98451995849609 5.151565551757812 30.61493682861328 7.422706604003906 C 25.42652130126953 9.617210388183594 20.76601409912109 12.75970458984375 16.76285552978516 16.76285552978516 C 12.75970458984375 20.76601409912109 9.617210388183594 25.42652130126953 7.422706604003906 30.61493682861328 C 5.151565551757812 35.98451995849609 3.999992370605469 41.69075012207031 3.999992370605469 47.57511901855469 C 3.999992370605469 53.45948791503906 5.151565551757812 59.16571807861328 7.422706604003906 64.53530120849609 C 9.617210388183594 69.72371673583984 12.75970458984375 74.38422393798828 16.76285552978516 78.38738250732422 C 20.76601409912109 82.39053344726562 25.42652130126953 85.53302764892578 30.61493682861328 87.72753143310547 C 35.98451995849609 89.99867248535156 41.69075012207031 91.15024566650391 47.57511901855469 91.15024566650391 C 53.45948791503906 91.15024566650391 59.16571807861328 89.99867248535156 64.53530120849609 87.72753143310547 C 69.72371673583984 85.53302764892578 74.38422393798828 82.39053344726562 78.38738250732422 78.38738250732422 C 82.39053344726562 74.38422393798828 85.53302764892578 69.72371673583984 87.72753143310547 64.53530120849609 C 89.99867248535156 59.16571807861328 91.15024566650391 53.45948791503906 91.15024566650391 47.57511901855469 C 91.15024566650391 41.69075012207031 89.99867248535156 35.98451995849609 87.72753143310547 30.61493682861328 C 85.53302764892578 25.42652130126953 82.39053344726562 20.76601409912109 78.38738250732422 16.76285552978516 C 74.38422393798828 12.75970458984375 69.72371673583984 9.617210388183594 64.53530120849609 7.422706604003906 C 59.16571807861328 5.151565551757812 53.45948791503906 3.999992370605469 47.57511901855469 3.999992370605469 M 47.57511901855469 -7.62939453125e-06 C 73.85013580322266 -7.62939453125e-06 95.15024566650391 21.30010223388672 95.15024566650391 47.57511901855469 C 95.15024566650391 73.85013580322266 73.85013580322266 95.15024566650391 47.57511901855469 95.15024566650391 C 21.30010223388672 95.15024566650391 -7.62939453125e-06 73.85013580322266 -7.62939453125e-06 47.57511901855469 C -7.62939453125e-06 21.30010223388672 21.30010223388672 -7.62939453125e-06 47.57511901855469 -7.62939453125e-06 Z" stroke="none"/>
        </g>
      </g>
      <g id="Path_873828-6" data-name="Path 873828" transform="translate(205.051 394)" fill="none">
        <path d="M 47.57511901855469 93.15023040771484 C 41.42163467407227 93.15023040771484 35.45327758789062 91.94551849365234 29.8358325958252 89.56953430175781 C 24.40901947021484 87.27419281005859 19.53483390808105 83.98777770996094 15.34864711761475 79.80158996582031 C 11.16246223449707 75.61540222167969 7.876047611236572 70.74121856689453 5.580704689025879 65.31440734863281 C 3.204719066619873 59.69696044921875 2.000004768371582 53.72860336303711 2.000004768371582 47.57511901855469 C 2.000004768371582 41.42163467407227 3.204719066619873 35.45327758789062 5.580704689025879 29.8358325958252 C 7.876047611236572 24.40901947021484 11.16246223449707 19.53483390808105 15.34864711761475 15.34864711761475 C 19.53483390808105 11.16246223449707 24.40901947021484 7.876047611236572 29.8358325958252 5.580704689025879 C 35.45327758789062 3.204719066619873 41.42163467407227 2.000004768371582 47.57511901855469 2.000004768371582 C 53.72860336303711 2.000004768371582 59.69696044921875 3.204719066619873 65.31440734863281 5.580704689025879 C 70.74121856689453 7.876047611236572 75.61540222167969 11.16246223449707 79.80158996582031 15.34864711761475 C 83.98777770996094 19.53483390808105 87.27419281005859 24.40901947021484 89.56953430175781 29.8358325958252 C 91.94551849365234 35.45327758789062 93.15023040771484 41.42163467407227 93.15023040771484 47.57511901855469 C 93.15023040771484 53.72860336303711 91.94551849365234 59.69696044921875 89.56953430175781 65.31440734863281 C 87.27419281005859 70.74121856689453 83.98777770996094 75.61540222167969 79.80158996582031 79.80158996582031 C 75.61540222167969 83.98777770996094 70.74121856689453 87.27419281005859 65.31440734863281 89.56953430175781 C 59.69696044921875 91.94551849365234 53.72860336303711 93.15023040771484 47.57511901855469 93.15023040771484 Z" stroke="none"/>
        <path d="M 47.57511901855469 3.999992370605469 C 41.69075012207031 3.999992370605469 35.98451995849609 5.151565551757812 30.61493682861328 7.422706604003906 C 25.42652130126953 9.617210388183594 20.76601409912109 12.75970458984375 16.76285552978516 16.76285552978516 C 12.75970458984375 20.76601409912109 9.617210388183594 25.42652130126953 7.422706604003906 30.61493682861328 C 5.151565551757812 35.98451995849609 3.999992370605469 41.69075012207031 3.999992370605469 47.57511901855469 C 3.999992370605469 53.45948791503906 5.151565551757812 59.16571807861328 7.422706604003906 64.53530120849609 C 9.617210388183594 69.72371673583984 12.75970458984375 74.38422393798828 16.76285552978516 78.38738250732422 C 20.76601409912109 82.39053344726562 25.42652130126953 85.53302764892578 30.61493682861328 87.72753143310547 C 35.98451995849609 89.99867248535156 41.69075012207031 91.15024566650391 47.57511901855469 91.15024566650391 C 53.45948791503906 91.15024566650391 59.16571807861328 89.99867248535156 64.53530120849609 87.72753143310547 C 69.72371673583984 85.53302764892578 74.38422393798828 82.39053344726562 78.38738250732422 78.38738250732422 C 82.39053344726562 74.38422393798828 85.53302764892578 69.72371673583984 87.72753143310547 64.53530120849609 C 89.99867248535156 59.16571807861328 91.15024566650391 53.45948791503906 91.15024566650391 47.57511901855469 C 91.15024566650391 41.69075012207031 89.99867248535156 35.98451995849609 87.72753143310547 30.61493682861328 C 85.53302764892578 25.42652130126953 82.39053344726562 20.76601409912109 78.38738250732422 16.76285552978516 C 74.38422393798828 12.75970458984375 69.72371673583984 9.617210388183594 64.53530120849609 7.422706604003906 C 59.16571807861328 5.151565551757812 53.45948791503906 3.999992370605469 47.57511901855469 3.999992370605469 M 47.57511901855469 -7.62939453125e-06 C 73.85013580322266 -7.62939453125e-06 95.15024566650391 21.30010223388672 95.15024566650391 47.57511901855469 C 95.15024566650391 73.85013580322266 73.85013580322266 95.15024566650391 47.57511901855469 95.15024566650391 C 21.30010223388672 95.15024566650391 -7.62939453125e-06 73.85013580322266 -7.62939453125e-06 47.57511901855469 C -7.62939453125e-06 21.30010223388672 21.30010223388672 -7.62939453125e-06 47.57511901855469 -7.62939453125e-06 Z" stroke="none" fill="#fff"/>
      </g>
    </g>
    <g id="Group_1113338" data-name="Group 1113338" transform="translate(226.983 415.939)">
      <path id="Path_906484" data-name="Path 906484" d="M41.35,1.562h21.5v40.5H41.35Z" transform="translate(-33.008 -1.199)" fill="#98d1d1"/>
      <path id="Path_906485" data-name="Path 906485" d="M41.351,1.562h3.006v40.5H41.351Z" transform="translate(-33.009 -1.199)" fill="#008d8e"/>
      <circle id="Ellipse_12920" data-name="Ellipse 12920" cx="7.022" cy="7.022" r="7.022" transform="translate(12.067 13.591)" fill="#f8af23"/>
      <path id="Path_906486" data-name="Path 906486" d="M124.635,68.352V78.376l-1.973-2.315a2.293,2.293,0,0,0-3.49,2.975l4.488,5.266s-1.34,5.653,2.192,8.883h9.983l-.885-12.144a5.19,5.19,0,0,0-1.5-2.855Z" transform="translate(-94.798 -54.604)" fill="#f8af23"/>
      <g id="Group_1113335" data-name="Group 1113335" transform="translate(29.837 13.748)">
        <path id="Path_906487" data-name="Path 906487" d="M158.92,81.04a5.189,5.189,0,0,0-1.5-2.855l-8.813-9.833v3.354l5.807,6.479a5.189,5.189,0,0,1,1.5,2.855l.885,12.144h3.006Z" transform="translate(-148.606 -68.352)" fill="#f8d323"/>
      </g>
      <path id="Path_906488" data-name="Path 906488" d="M137.219,192.257h15.518v7.205H137.219Z" transform="translate(-109.664 -153.676)" fill="#cecece"/>
      <g id="Group_1113336" data-name="Group 1113336" transform="translate(40.067 38.581)">
        <path id="Path_906489" data-name="Path 906489" d="M199.649,192.257h3.006v7.205h-3.006Z" transform="translate(-199.649 -192.257)" fill="#e2e2e2"/>
      </g>
      <path id="Path_906490" data-name="Path 906490" d="M137.219,228.209h15.518v2.914H137.219Z" transform="translate(-109.664 -182.423)" fill="#63bce7"/>
      <path id="Path_906491" data-name="Path 906491" d="M199.649,228.209h3.006v2.914h-3.006Z" transform="translate(-159.582 -182.423)" fill="#63e2e7"/>
      <circle id="Ellipse_12921" data-name="Ellipse 12921" cx="1.32" cy="1.32" r="1.32" transform="translate(29.913 40.864)" fill="#63bce7"/>
      <g id="Group_1113337" data-name="Group 1113337" transform="translate(0.068 0.062)">
        <path id="Path_906492" data-name="Path 906492" d="M4.212,252.938H.369a.3.3,0,1,0,0,.6H4.212a.3.3,0,1,0,0-.6Z" transform="translate(-0.068 -202.257)" fill="#3f3679"/>
        <path id="Path_906493" data-name="Path 906493" d="M237.9,252.938h-3.844a.3.3,0,1,0,0,.6H237.9a.3.3,0,0,0,0-.6Z" transform="translate(-186.919 -202.257)" fill="#3f3679"/>
        <path id="Path_906494" data-name="Path 906494" d="M69.047,252.938H30.411a.3.3,0,1,0,0,.6H69.047a.3.3,0,1,0,0-.6Z" transform="translate(-24.089 -202.257)" fill="#3f3679"/>
        <path id="Path_906495" data-name="Path 906495" d="M.369,49H51.047a.3.3,0,0,0,0-.6H43.374V38.581a.3.3,0,0,0-.3-.3H41.316l-.865-11.872a5.487,5.487,0,0,0-1.576-3.027l-8.737-9.748V.363a.3.3,0,0,0-.3-.3H8.342a.3.3,0,0,0-.3.3v40.5a.3.3,0,0,0,.3.3H27.255V48.4H.369a.3.3,0,0,0,0,.6Zm42.4-3.515H27.856v-6.6H42.773ZM30.339,38.28h-.2v-.239C30.2,38.122,30.27,38.2,30.339,38.28Zm8.088-14.5a4.944,4.944,0,0,1,1.425,2.676l.861,11.822H31.172a7.725,7.725,0,0,1-2.237-5.353,12.2,12.2,0,0,1,.22-3.16.3.3,0,0,0-.064-.264L24.6,24.237a1.992,1.992,0,0,1,3.032-2.585l1.973,2.315,3.746,4.4a.3.3,0,0,0,.458-.39l-3.674-4.311V14.534Zm-14.281.845.174.2a6.721,6.721,0,1,1-5.23-10.94A6.748,6.748,0,0,1,25.8,20.372a2.595,2.595,0,0,0-1.659,4.255ZM8.642,40.563V.663H29.537V22.956l-1.444-1.694a2.582,2.582,0,0,0-1.687-.891,7.322,7.322,0,1,0-7.317,7.565,7.271,7.271,0,0,0,5.626-2.64l3.822,4.484a12.945,12.945,0,0,0-.2,3.166,9.325,9.325,0,0,0,1.2,4.225V38.28H27.555a.3.3,0,0,0-.3.3v1.982Zm19.214,5.524H42.773V48.4H27.856Z" transform="translate(-0.068 -0.062)" fill="#3f3679"/>
        <path id="Path_906496" data-name="Path 906496" d="M85.941,83.245a1.212,1.212,0,0,1,1.211,1.211.3.3,0,0,0,.6,0,1.814,1.814,0,0,0-1.812-1.812h-.3v-.3a.3.3,0,1,0-.6,0v.3h-.3a1.812,1.812,0,0,0,0,3.624h.3v3.026h-.3a1.212,1.212,0,0,1-1.211-1.211.3.3,0,0,0-.6,0,1.814,1.814,0,0,0,1.812,1.812h.3v.3a.3.3,0,0,0,.6,0v-.3h.3a1.814,1.814,0,0,0,1.812-1.812v-.6a1.814,1.814,0,0,0-1.812-1.812h-.3V83.245Zm0,3.023a1.212,1.212,0,0,1,1.211,1.211v.6a1.212,1.212,0,0,1-1.211,1.211h-.3V86.268h.3Zm-.9-.6h-.3a1.211,1.211,0,0,1,0-2.421h.3Z" transform="translate(-66.315 -65.609)" fill="#3f3679"/>
        <path id="Path_906497" data-name="Path 906497" d="M149.1,202.146a1.621,1.621,0,1,0,1.621,1.621A1.622,1.622,0,0,0,149.1,202.146Zm0,2.64a1.019,1.019,0,1,1,1.019-1.02A1.021,1.021,0,0,1,149.1,204.786Z" transform="translate(-117.938 -161.645)" fill="#3f3679"/>
      </g>
    </g>
  </g>
</svg>
