<svg xmlns="http://www.w3.org/2000/svg" xmlns:xlink="http://www.w3.org/1999/xlink" width="113.15" height="113.15" viewBox="0 0 113.15 113.15">
  <defs>
    <filter id="Path_873828" x="0" y="0" width="113.15" height="113.15" filterUnits="userSpaceOnUse">
      <feOffset dy="3" input="SourceAlpha"/>
      <feGaussianBlur stdDeviation="3" result="blur"/>
      <feFlood flood-opacity="0.161"/>
      <feComposite operator="in" in2="blur"/>
    </filter>
    <filter id="Path_873828-2" x="0" y="0" width="113.15" height="113.15" filterUnits="userSpaceOnUse">
      <feOffset dy="3" input="SourceAlpha"/>
      <feGaussianBlur stdDeviation="3" result="blur-2"/>
      <feFlood flood-opacity="0.161" result="color"/>
      <feComposite operator="out" in="SourceGraphic" in2="blur-2"/>
      <feComposite operator="in" in="color"/>
      <feComposite operator="in" in2="SourceGraphic"/>
    </filter>
  </defs>
  <g id="Group_1113531" data-name="Group 1113531" transform="translate(-196.051 -399)">
    <g data-type="innerShadowGroup">
      <g transform="matrix(1, 0, 0, 1, 196.05, 399)" filter="url(#Path_873828)">
        <g id="Path_873828-3" data-name="Path 873828" transform="translate(9 6)" fill="#fd9826">
          <path d="M 47.57511901855469 93.15023040771484 C 41.42163467407227 93.15023040771484 35.45327758789062 91.94551849365234 29.8358325958252 89.56953430175781 C 24.40901947021484 87.27419281005859 19.53483390808105 83.98777770996094 15.34864711761475 79.80158996582031 C 11.16246223449707 75.61540222167969 7.876047611236572 70.74121856689453 5.580704689025879 65.31440734863281 C 3.204719066619873 59.69696044921875 2.000004768371582 53.72860336303711 2.000004768371582 47.57511901855469 C 2.000004768371582 41.42163467407227 3.204719066619873 35.45327758789062 5.580704689025879 29.8358325958252 C 7.876047611236572 24.40901947021484 11.16246223449707 19.53483390808105 15.34864711761475 15.34864711761475 C 19.53483390808105 11.16246223449707 24.40901947021484 7.876047611236572 29.8358325958252 5.580704689025879 C 35.45327758789062 3.204719066619873 41.42163467407227 2.000004768371582 47.57511901855469 2.000004768371582 C 53.72860336303711 2.000004768371582 59.69696044921875 3.204719066619873 65.31440734863281 5.580704689025879 C 70.74121856689453 7.876047611236572 75.61540222167969 11.16246223449707 79.80158996582031 15.34864711761475 C 83.98777770996094 19.53483390808105 87.27419281005859 24.40901947021484 89.56953430175781 29.8358325958252 C 91.94551849365234 35.45327758789062 93.15023040771484 41.42163467407227 93.15023040771484 47.57511901855469 C 93.15023040771484 53.72860336303711 91.94551849365234 59.69696044921875 89.56953430175781 65.31440734863281 C 87.27419281005859 70.74121856689453 83.98777770996094 75.61540222167969 79.80158996582031 79.80158996582031 C 75.61540222167969 83.98777770996094 70.74121856689453 87.27419281005859 65.31440734863281 89.56953430175781 C 59.69696044921875 91.94551849365234 53.72860336303711 93.15023040771484 47.57511901855469 93.15023040771484 Z" stroke="none"/>
          <path d="M 47.57511901855469 3.999992370605469 C 41.69075012207031 3.999992370605469 35.98451995849609 5.151565551757812 30.61493682861328 7.422706604003906 C 25.42652130126953 9.617210388183594 20.76601409912109 12.75970458984375 16.76285552978516 16.76285552978516 C 12.75970458984375 20.76601409912109 9.617210388183594 25.42652130126953 7.422706604003906 30.61493682861328 C 5.151565551757812 35.98451995849609 3.999992370605469 41.69075012207031 3.999992370605469 47.57511901855469 C 3.999992370605469 53.45948791503906 5.151565551757812 59.16571807861328 7.422706604003906 64.53530120849609 C 9.617210388183594 69.72371673583984 12.75970458984375 74.38422393798828 16.76285552978516 78.38738250732422 C 20.76601409912109 82.39053344726562 25.42652130126953 85.53302764892578 30.61493682861328 87.72753143310547 C 35.98451995849609 89.99867248535156 41.69075012207031 91.15024566650391 47.57511901855469 91.15024566650391 C 53.45948791503906 91.15024566650391 59.16571807861328 89.99867248535156 64.53530120849609 87.72753143310547 C 69.72371673583984 85.53302764892578 74.38422393798828 82.39053344726562 78.38738250732422 78.38738250732422 C 82.39053344726562 74.38422393798828 85.53302764892578 69.72371673583984 87.72753143310547 64.53530120849609 C 89.99867248535156 59.16571807861328 91.15024566650391 53.45948791503906 91.15024566650391 47.57511901855469 C 91.15024566650391 41.69075012207031 89.99867248535156 35.98451995849609 87.72753143310547 30.61493682861328 C 85.53302764892578 25.42652130126953 82.39053344726562 20.76601409912109 78.38738250732422 16.76285552978516 C 74.38422393798828 12.75970458984375 69.72371673583984 9.617210388183594 64.53530120849609 7.422706604003906 C 59.16571807861328 5.151565551757812 53.45948791503906 3.999992370605469 47.57511901855469 3.999992370605469 M 47.57511901855469 -7.62939453125e-06 C 73.85013580322266 -7.62939453125e-06 95.15024566650391 21.30010223388672 95.15024566650391 47.57511901855469 C 95.15024566650391 73.85013580322266 73.85013580322266 95.15024566650391 47.57511901855469 95.15024566650391 C 21.30010223388672 95.15024566650391 -7.62939453125e-06 73.85013580322266 -7.62939453125e-06 47.57511901855469 C -7.62939453125e-06 21.30010223388672 21.30010223388672 -7.62939453125e-06 47.57511901855469 -7.62939453125e-06 Z" stroke="none" fill="#fff"/>
        </g>
      </g>
      <g id="Path_873828-4" data-name="Path 873828" transform="translate(205.051 405)" fill="#fd9826">
        <path d="M 47.57511901855469 93.15023040771484 C 41.42163467407227 93.15023040771484 35.45327758789062 91.94551849365234 29.8358325958252 89.56953430175781 C 24.40901947021484 87.27419281005859 19.53483390808105 83.98777770996094 15.34864711761475 79.80158996582031 C 11.16246223449707 75.61540222167969 7.876047611236572 70.74121856689453 5.580704689025879 65.31440734863281 C 3.204719066619873 59.69696044921875 2.000004768371582 53.72860336303711 2.000004768371582 47.57511901855469 C 2.000004768371582 41.42163467407227 3.204719066619873 35.45327758789062 5.580704689025879 29.8358325958252 C 7.876047611236572 24.40901947021484 11.16246223449707 19.53483390808105 15.34864711761475 15.34864711761475 C 19.53483390808105 11.16246223449707 24.40901947021484 7.876047611236572 29.8358325958252 5.580704689025879 C 35.45327758789062 3.204719066619873 41.42163467407227 2.000004768371582 47.57511901855469 2.000004768371582 C 53.72860336303711 2.000004768371582 59.69696044921875 3.204719066619873 65.31440734863281 5.580704689025879 C 70.74121856689453 7.876047611236572 75.61540222167969 11.16246223449707 79.80158996582031 15.34864711761475 C 83.98777770996094 19.53483390808105 87.27419281005859 24.40901947021484 89.56953430175781 29.8358325958252 C 91.94551849365234 35.45327758789062 93.15023040771484 41.42163467407227 93.15023040771484 47.57511901855469 C 93.15023040771484 53.72860336303711 91.94551849365234 59.69696044921875 89.56953430175781 65.31440734863281 C 87.27419281005859 70.74121856689453 83.98777770996094 75.61540222167969 79.80158996582031 79.80158996582031 C 75.61540222167969 83.98777770996094 70.74121856689453 87.27419281005859 65.31440734863281 89.56953430175781 C 59.69696044921875 91.94551849365234 53.72860336303711 93.15023040771484 47.57511901855469 93.15023040771484 Z" stroke="none"/>
        <path d="M 47.57511901855469 3.999992370605469 C 41.69075012207031 3.999992370605469 35.98451995849609 5.151565551757812 30.61493682861328 7.422706604003906 C 25.42652130126953 9.617210388183594 20.76601409912109 12.75970458984375 16.76285552978516 16.76285552978516 C 12.75970458984375 20.76601409912109 9.617210388183594 25.42652130126953 7.422706604003906 30.61493682861328 C 5.151565551757812 35.98451995849609 3.999992370605469 41.69075012207031 3.999992370605469 47.57511901855469 C 3.999992370605469 53.45948791503906 5.151565551757812 59.16571807861328 7.422706604003906 64.53530120849609 C 9.617210388183594 69.72371673583984 12.75970458984375 74.38422393798828 16.76285552978516 78.38738250732422 C 20.76601409912109 82.39053344726562 25.42652130126953 85.53302764892578 30.61493682861328 87.72753143310547 C 35.98451995849609 89.99867248535156 41.69075012207031 91.15024566650391 47.57511901855469 91.15024566650391 C 53.45948791503906 91.15024566650391 59.16571807861328 89.99867248535156 64.53530120849609 87.72753143310547 C 69.72371673583984 85.53302764892578 74.38422393798828 82.39053344726562 78.38738250732422 78.38738250732422 C 82.39053344726562 74.38422393798828 85.53302764892578 69.72371673583984 87.72753143310547 64.53530120849609 C 89.99867248535156 59.16571807861328 91.15024566650391 53.45948791503906 91.15024566650391 47.57511901855469 C 91.15024566650391 41.69075012207031 89.99867248535156 35.98451995849609 87.72753143310547 30.61493682861328 C 85.53302764892578 25.42652130126953 82.39053344726562 20.76601409912109 78.38738250732422 16.76285552978516 C 74.38422393798828 12.75970458984375 69.72371673583984 9.617210388183594 64.53530120849609 7.422706604003906 C 59.16571807861328 5.151565551757812 53.45948791503906 3.999992370605469 47.57511901855469 3.999992370605469 M 47.57511901855469 -7.62939453125e-06 C 73.85013580322266 -7.62939453125e-06 95.15024566650391 21.30010223388672 95.15024566650391 47.57511901855469 C 95.15024566650391 73.85013580322266 73.85013580322266 95.15024566650391 47.57511901855469 95.15024566650391 C 21.30010223388672 95.15024566650391 -7.62939453125e-06 73.85013580322266 -7.62939453125e-06 47.57511901855469 C -7.62939453125e-06 21.30010223388672 21.30010223388672 -7.62939453125e-06 47.57511901855469 -7.62939453125e-06 Z" stroke="none"/>
      </g>
      <g transform="matrix(1, 0, 0, 1, 196.05, 399)" filter="url(#Path_873828-2)">
        <g id="Path_873828-5" data-name="Path 873828" transform="translate(9 6)" fill="#fff">
          <path d="M 47.57511901855469 93.15023040771484 C 41.42163467407227 93.15023040771484 35.45327758789062 91.94551849365234 29.8358325958252 89.56953430175781 C 24.40901947021484 87.27419281005859 19.53483390808105 83.98777770996094 15.34864711761475 79.80158996582031 C 11.16246223449707 75.61540222167969 7.876047611236572 70.74121856689453 5.580704689025879 65.31440734863281 C 3.204719066619873 59.69696044921875 2.000004768371582 53.72860336303711 2.000004768371582 47.57511901855469 C 2.000004768371582 41.42163467407227 3.204719066619873 35.45327758789062 5.580704689025879 29.8358325958252 C 7.876047611236572 24.40901947021484 11.16246223449707 19.53483390808105 15.34864711761475 15.34864711761475 C 19.53483390808105 11.16246223449707 24.40901947021484 7.876047611236572 29.8358325958252 5.580704689025879 C 35.45327758789062 3.204719066619873 41.42163467407227 2.000004768371582 47.57511901855469 2.000004768371582 C 53.72860336303711 2.000004768371582 59.69696044921875 3.204719066619873 65.31440734863281 5.580704689025879 C 70.74121856689453 7.876047611236572 75.61540222167969 11.16246223449707 79.80158996582031 15.34864711761475 C 83.98777770996094 19.53483390808105 87.27419281005859 24.40901947021484 89.56953430175781 29.8358325958252 C 91.94551849365234 35.45327758789062 93.15023040771484 41.42163467407227 93.15023040771484 47.57511901855469 C 93.15023040771484 53.72860336303711 91.94551849365234 59.69696044921875 89.56953430175781 65.31440734863281 C 87.27419281005859 70.74121856689453 83.98777770996094 75.61540222167969 79.80158996582031 79.80158996582031 C 75.61540222167969 83.98777770996094 70.74121856689453 87.27419281005859 65.31440734863281 89.56953430175781 C 59.69696044921875 91.94551849365234 53.72860336303711 93.15023040771484 47.57511901855469 93.15023040771484 Z" stroke="none"/>
          <path d="M 47.57511901855469 3.999992370605469 C 41.69075012207031 3.999992370605469 35.98451995849609 5.151565551757812 30.61493682861328 7.422706604003906 C 25.42652130126953 9.617210388183594 20.76601409912109 12.75970458984375 16.76285552978516 16.76285552978516 C 12.75970458984375 20.76601409912109 9.617210388183594 25.42652130126953 7.422706604003906 30.61493682861328 C 5.151565551757812 35.98451995849609 3.999992370605469 41.69075012207031 3.999992370605469 47.57511901855469 C 3.999992370605469 53.45948791503906 5.151565551757812 59.16571807861328 7.422706604003906 64.53530120849609 C 9.617210388183594 69.72371673583984 12.75970458984375 74.38422393798828 16.76285552978516 78.38738250732422 C 20.76601409912109 82.39053344726562 25.42652130126953 85.53302764892578 30.61493682861328 87.72753143310547 C 35.98451995849609 89.99867248535156 41.69075012207031 91.15024566650391 47.57511901855469 91.15024566650391 C 53.45948791503906 91.15024566650391 59.16571807861328 89.99867248535156 64.53530120849609 87.72753143310547 C 69.72371673583984 85.53302764892578 74.38422393798828 82.39053344726562 78.38738250732422 78.38738250732422 C 82.39053344726562 74.38422393798828 85.53302764892578 69.72371673583984 87.72753143310547 64.53530120849609 C 89.99867248535156 59.16571807861328 91.15024566650391 53.45948791503906 91.15024566650391 47.57511901855469 C 91.15024566650391 41.69075012207031 89.99867248535156 35.98451995849609 87.72753143310547 30.61493682861328 C 85.53302764892578 25.42652130126953 82.39053344726562 20.76601409912109 78.38738250732422 16.76285552978516 C 74.38422393798828 12.75970458984375 69.72371673583984 9.617210388183594 64.53530120849609 7.422706604003906 C 59.16571807861328 5.151565551757812 53.45948791503906 3.999992370605469 47.57511901855469 3.999992370605469 M 47.57511901855469 -7.62939453125e-06 C 73.85013580322266 -7.62939453125e-06 95.15024566650391 21.30010223388672 95.15024566650391 47.57511901855469 C 95.15024566650391 73.85013580322266 73.85013580322266 95.15024566650391 47.57511901855469 95.15024566650391 C 21.30010223388672 95.15024566650391 -7.62939453125e-06 73.85013580322266 -7.62939453125e-06 47.57511901855469 C -7.62939453125e-06 21.30010223388672 21.30010223388672 -7.62939453125e-06 47.57511901855469 -7.62939453125e-06 Z" stroke="none"/>
        </g>
      </g>
      <g id="Path_873828-6" data-name="Path 873828" transform="translate(205.051 405)" fill="none">
        <path d="M 47.57511901855469 93.15023040771484 C 41.42163467407227 93.15023040771484 35.45327758789062 91.94551849365234 29.8358325958252 89.56953430175781 C 24.40901947021484 87.27419281005859 19.53483390808105 83.98777770996094 15.34864711761475 79.80158996582031 C 11.16246223449707 75.61540222167969 7.876047611236572 70.74121856689453 5.580704689025879 65.31440734863281 C 3.204719066619873 59.69696044921875 2.000004768371582 53.72860336303711 2.000004768371582 47.57511901855469 C 2.000004768371582 41.42163467407227 3.204719066619873 35.45327758789062 5.580704689025879 29.8358325958252 C 7.876047611236572 24.40901947021484 11.16246223449707 19.53483390808105 15.34864711761475 15.34864711761475 C 19.53483390808105 11.16246223449707 24.40901947021484 7.876047611236572 29.8358325958252 5.580704689025879 C 35.45327758789062 3.204719066619873 41.42163467407227 2.000004768371582 47.57511901855469 2.000004768371582 C 53.72860336303711 2.000004768371582 59.69696044921875 3.204719066619873 65.31440734863281 5.580704689025879 C 70.74121856689453 7.876047611236572 75.61540222167969 11.16246223449707 79.80158996582031 15.34864711761475 C 83.98777770996094 19.53483390808105 87.27419281005859 24.40901947021484 89.56953430175781 29.8358325958252 C 91.94551849365234 35.45327758789062 93.15023040771484 41.42163467407227 93.15023040771484 47.57511901855469 C 93.15023040771484 53.72860336303711 91.94551849365234 59.69696044921875 89.56953430175781 65.31440734863281 C 87.27419281005859 70.74121856689453 83.98777770996094 75.61540222167969 79.80158996582031 79.80158996582031 C 75.61540222167969 83.98777770996094 70.74121856689453 87.27419281005859 65.31440734863281 89.56953430175781 C 59.69696044921875 91.94551849365234 53.72860336303711 93.15023040771484 47.57511901855469 93.15023040771484 Z" stroke="none"/>
        <path d="M 47.57511901855469 3.999992370605469 C 41.69075012207031 3.999992370605469 35.98451995849609 5.151565551757812 30.61493682861328 7.422706604003906 C 25.42652130126953 9.617210388183594 20.76601409912109 12.75970458984375 16.76285552978516 16.76285552978516 C 12.75970458984375 20.76601409912109 9.617210388183594 25.42652130126953 7.422706604003906 30.61493682861328 C 5.151565551757812 35.98451995849609 3.999992370605469 41.69075012207031 3.999992370605469 47.57511901855469 C 3.999992370605469 53.45948791503906 5.151565551757812 59.16571807861328 7.422706604003906 64.53530120849609 C 9.617210388183594 69.72371673583984 12.75970458984375 74.38422393798828 16.76285552978516 78.38738250732422 C 20.76601409912109 82.39053344726562 25.42652130126953 85.53302764892578 30.61493682861328 87.72753143310547 C 35.98451995849609 89.99867248535156 41.69075012207031 91.15024566650391 47.57511901855469 91.15024566650391 C 53.45948791503906 91.15024566650391 59.16571807861328 89.99867248535156 64.53530120849609 87.72753143310547 C 69.72371673583984 85.53302764892578 74.38422393798828 82.39053344726562 78.38738250732422 78.38738250732422 C 82.39053344726562 74.38422393798828 85.53302764892578 69.72371673583984 87.72753143310547 64.53530120849609 C 89.99867248535156 59.16571807861328 91.15024566650391 53.45948791503906 91.15024566650391 47.57511901855469 C 91.15024566650391 41.69075012207031 89.99867248535156 35.98451995849609 87.72753143310547 30.61493682861328 C 85.53302764892578 25.42652130126953 82.39053344726562 20.76601409912109 78.38738250732422 16.76285552978516 C 74.38422393798828 12.75970458984375 69.72371673583984 9.617210388183594 64.53530120849609 7.422706604003906 C 59.16571807861328 5.151565551757812 53.45948791503906 3.999992370605469 47.57511901855469 3.999992370605469 M 47.57511901855469 -7.62939453125e-06 C 73.85013580322266 -7.62939453125e-06 95.15024566650391 21.30010223388672 95.15024566650391 47.57511901855469 C 95.15024566650391 73.85013580322266 73.85013580322266 95.15024566650391 47.57511901855469 95.15024566650391 C 21.30010223388672 95.15024566650391 -7.62939453125e-06 73.85013580322266 -7.62939453125e-06 47.57511901855469 C -7.62939453125e-06 21.30010223388672 21.30010223388672 -7.62939453125e-06 47.57511901855469 -7.62939453125e-06 Z" stroke="none" fill="#fff"/>
      </g>
    </g>
    <g id="Group_1113530" data-name="Group 1113530" transform="translate(213.378 421)">
      <g id="Group_1113528" data-name="Group 1113528" transform="translate(9.588 0.915)">
        <path id="Path_907545" data-name="Path 907545" d="M70.592,68.567a27.21,27.21,0,1,1-27.21-27.21v27.21Z" transform="translate(-16.172 -37.224)" fill="#8ac9fe"/>
        <g id="Group_1113525" data-name="Group 1113525" transform="translate(23.083 4.133)">
          <path id="Path_907546" data-name="Path 907546" d="M207.072,68.568h2.321V41.358a27.425,27.425,0,0,0-4.127.311V66.762A1.806,1.806,0,0,0,207.072,68.568Z" transform="translate(-205.266 -41.358)" fill="#60b7ff"/>
          <path id="Path_907547" data-name="Path 907547" d="M237.569,264.255a27.215,27.215,0,0,1-24.082,27.031,27.5,27.5,0,0,0,3.123.179,27.213,27.213,0,0,0,27.21-27.21Z" transform="translate(-212.483 -237.045)" fill="#60b7ff"/>
        </g>
        <path id="Path_907548" data-name="Path 907548" d="M300.142,34.71h-27.21V7.5A27.209,27.209,0,0,1,300.142,34.71Z" transform="translate(-241.588 -7.5)" fill="#fe76a8"/>
        <path id="Path_907549" data-name="Path 907549" d="M300.139,34.709h-6.251A27.218,27.218,0,0,0,272.929,8.221V7.5A27.209,27.209,0,0,1,300.139,34.709Z" transform="translate(-241.586 -7.499)" fill="#fe5694"/>
        <g id="Group_1113526" data-name="Group 1113526" transform="translate(38.501 9.211)">
          <path id="Path_907550" data-name="Path 907550" d="M333.219,97.455a1.663,1.663,0,0,1-1.521-2.3l4.58-11.195a1.654,1.654,0,0,1,3.044,1.3l-4.58,11.195A1.655,1.655,0,0,1,333.219,97.455Z" transform="translate(-331.56 -82.951)" fill="#f2fbff"/>
        </g>
        <g id="Group_1113527" data-name="Group 1113527" transform="translate(38.501 9.211)">
          <path id="Path_907551" data-name="Path 907551" d="M333.219,97.455a1.663,1.663,0,0,1-1.521-2.3l4.58-11.195a1.654,1.654,0,0,1,3.044,1.3l-4.58,11.195A1.655,1.655,0,0,1,333.219,97.455Z" transform="translate(-331.56 -82.951)" fill="#f2fbff"/>
        </g>
        <circle id="Ellipse_12938" data-name="Ellipse 12938" cx="1.849" cy="1.849" r="1.849" transform="translate(46.053 20.017)" fill="#f2fbff"/>
        <circle id="Ellipse_12939" data-name="Ellipse 12939" cx="1.849" cy="1.849" r="1.849" transform="translate(35.03 9.635)" fill="#f2fbff"/>
        <circle id="Ellipse_12940" data-name="Ellipse 12940" cx="7.948" cy="7.948" r="7.948" transform="translate(0.566 36.303)" fill="#ffd15b"/>
        <path id="Path_907552" data-name="Path 907552" d="M34.589,439.336H22.93a2.118,2.118,0,0,1,0-4.236h11.66a2.118,2.118,0,0,1,0,4.236Z" transform="translate(-20.246 -382.901)" fill="#ffe177"/>
        <path id="Path_907553" data-name="Path 907553" d="M34.589,474.037H22.93a2.118,2.118,0,0,1,0-4.236h11.66a2.118,2.118,0,0,1,0,4.236Z" transform="translate(-20.246 -413.366)" fill="#ffd15b"/>
        <path id="Path_907554" data-name="Path 907554" d="M77.562,312.839a7.953,7.953,0,0,1-10.215,7.618,7.95,7.95,0,0,0,0-15.238,7.953,7.953,0,0,1,10.215,7.619Z" transform="translate(-61.1 -268.587)" fill="#ffc344"/>
        <path id="Path_907555" data-name="Path 907555" d="M109.341,437.214a2.117,2.117,0,0,1-2.119,2.117h-3.677a2.118,2.118,0,1,0,0-4.236h3.677a2.119,2.119,0,0,1,2.119,2.119Z" transform="translate(-92.879 -382.897)" fill="#ffd15b"/>
        <path id="Path_907556" data-name="Path 907556" d="M109.341,471.916a2.117,2.117,0,0,1-2.119,2.117h-3.677a2.118,2.118,0,1,0,0-4.236h3.677a2.119,2.119,0,0,1,2.119,2.119Z" transform="translate(-92.879 -413.363)" fill="#ffc344"/>
        <path id="Path_907557" data-name="Path 907557" d="M266.28,264.255a27.128,27.128,0,0,1-8.66,19.905l-18.55-19.905Z" transform="translate(-211.86 -232.912)" fill="#978ecb"/>
        <path id="Path_907558" data-name="Path 907558" d="M266.28,264.255a27.128,27.128,0,0,1-8.66,19.905l-18.55-19.905Z" transform="translate(-211.86 -232.912)" fill="#978ecb"/>
        <path id="Path_907559" data-name="Path 907559" d="M376.907,264.255a27.128,27.128,0,0,1-8.66,19.905l-3.168-3.4a27.085,27.085,0,0,0,5.577-16.506h6.251Z" transform="translate(-322.487 -232.912)" fill="#8379c1"/>
      </g>
      <g id="Group_1113529" data-name="Group 1113529" transform="translate(8.673)">
        <path id="Path_907560" data-name="Path 907560" d="M286.235,8.237A27.941,27.941,0,0,0,266.348,0a.915.915,0,0,0-.916.916V18.624a.916.916,0,1,0,1.831,0V1.847A26.295,26.295,0,0,1,292.626,27.21H267.263V22.933a.916.916,0,1,0-1.831,0v5.193a.915.915,0,0,0,.916.916h27.21a.915.915,0,0,0,.916-.916,27.942,27.942,0,0,0-8.238-19.888Z" transform="translate(-234.088)"/>
        <path id="Path_907561" data-name="Path 907561" d="M332.221,75.652a2.57,2.57,0,0,0-3.372,1.356l-.005.012L324.269,88.2a2.58,2.58,0,0,0,2.333,3.58h.039A2.567,2.567,0,0,0,329,90.218l.005-.012,4.578-11.189a2.57,2.57,0,0,0-1.359-3.365Zm-.329,2.654-.005.012L327.31,89.5a.738.738,0,0,1-.678.445h-.018a.75.75,0,0,1-.67-1.01l.013-.031,4.577-11.187a.739.739,0,0,1,1.357.584Z" transform="translate(-285.558 -66.234)"/>
        <path id="Path_907562" data-name="Path 907562" d="M385.925,166.736a2.765,2.765,0,1,0,2.765-2.765A2.768,2.768,0,0,0,385.925,166.736Zm2.765-.934a.934.934,0,1,1-.934.934A.935.935,0,0,1,388.69,165.8Z" transform="translate(-339.872 -143.954)"/>
        <path id="Path_907563" data-name="Path 907563" d="M298.4,78.929a2.765,2.765,0,1,0,2.765,2.765A2.768,2.768,0,0,0,298.4,78.929Zm0,3.7a.934.934,0,1,1,.934-.934A.935.935,0,0,1,298.4,82.628Z" transform="translate(-260.601 -69.294)"/>
        <path id="Path_907564" data-name="Path 907564" d="M64.2,336.38a3.332,3.332,0,0,0,1.3.541v.071a.941.941,0,0,0,.887.953.916.916,0,0,0,.944-.915v-.211a2.8,2.8,0,0,0,1.8-2.146,2.477,2.477,0,0,0-1.681-2.8,6.471,6.471,0,0,1-1.618-.746.379.379,0,0,1-.045-.312.543.543,0,0,1,.348-.43,1.123,1.123,0,0,1,1.038.154l.171.149a.91.91,0,1,0,1.168-1.395,3.131,3.131,0,0,0-1.179-.683v-.058a.941.941,0,0,0-.887-.954.916.916,0,0,0-.944.915v.153a2.361,2.361,0,0,0-1.514,1.808,2.126,2.126,0,0,0,.714,2.092,7.75,7.75,0,0,0,2.138,1.032.648.648,0,0,1,.485.775.921.921,0,0,1-.914.777,1.68,1.68,0,0,1-1.244-.322.916.916,0,0,0-1.322.359.939.939,0,0,0,.354,1.2Z" transform="translate(-57.027 -287.605)"/>
        <path id="Path_907565" data-name="Path 907565" d="M64.008,61.067H37.714V34.773a.915.915,0,0,0-.916-.916,28.141,28.141,0,0,0-26.651,37.13,8.847,8.847,0,0,0,2.569,10.935h-.444A3.031,3.031,0,0,0,10.1,87.074a3.031,3.031,0,0,0,2.169,5.152h11.66A3.031,3.031,0,0,0,26.1,87.074a3.031,3.031,0,0,0-2.169-5.152h-.444A8.858,8.858,0,1,0,11.46,69.031,26.3,26.3,0,0,1,35.883,35.7V61.982a.929.929,0,0,0,.246.624L54.043,81.83A26.335,26.335,0,0,1,29.672,87.3a.916.916,0,0,0-.5,1.763,28.135,28.135,0,0,0,35.748-27.08.916.916,0,0,0-.916-.915ZM23.932,90.395H12.273a1.2,1.2,0,1,1,0-2.4h11.66a1.2,1.2,0,1,1,0,2.4Zm1.2-5.439a1.2,1.2,0,0,1-1.2,1.2H12.273a1.2,1.2,0,1,1,0-2.4h11.66A1.2,1.2,0,0,1,25.135,84.956ZM18.1,67.858A7.032,7.032,0,1,1,11.07,74.89,7.04,7.04,0,0,1,18.1,67.858ZM60.84,72.649a26.21,26.21,0,0,1-5.458,7.932L38.9,62.9H63.078a26.058,26.058,0,0,1-2.238,9.751Z" transform="translate(-8.673 -29.724)"/>
      </g>
    </g>
  </g>
</svg>
