<svg xmlns="http://www.w3.org/2000/svg" xmlns:xlink="http://www.w3.org/1999/xlink" width="295.256" height="290" viewBox="0 0 295.256 290">
  <defs>
    <clipPath id="clip-path">
      <rect id="Rectangle_406282" data-name="Rectangle 406282" width="270.018" height="277.173" fill="#f6cbc2"/>
    </clipPath>
  </defs>
  <g id="Group_1113217" data-name="Group 1113217" transform="translate(-1125 -3213)">
    <rect id="three-people-are-smiling-one-is-looking-tablet" width="228.171" height="284" rx="8" transform="translate(1125 3213)" fill="#98b1bf"/>
    <path id="three-people-are-smiling-one-is-looking-tablet-2" data-name="three-people-are-smiling-one-is-looking-tablet" d="M8,0H36.171a8,8,0,0,1,8,8V83a8,8,0,0,1-8,8H8a8,8,0,0,1-8-8V8A8,8,0,0,1,8,0Z" transform="translate(1376.085 3406)" fill="#cbe7e8"/>
    <g id="Group_1113216" data-name="Group 1113216" transform="translate(1150.238 3225.827)">
      <rect id="Rectangle_406271" data-name="Rectangle 406271" width="20.226" height="40.779" transform="translate(153.164 215.983)" fill="#1f444d"/>
      <g id="Group_1113215" data-name="Group 1113215">
        <g id="Group_1113214" data-name="Group 1113214" clip-path="url(#clip-path)">
          <path id="Path_906112" data-name="Path 906112" d="M304.608,252.662a5.26,5.26,0,0,1-5.2,5.315H104.733a5.26,5.26,0,0,1-5.2-5.315V118.01a5.261,5.261,0,0,1,5.2-5.316H299.4a5.261,5.261,0,0,1,5.2,5.316Z" transform="translate(-34.59 -39.165)" fill="#1f444d"/>
          <path id="Path_906113" data-name="Path 906113" d="M291.064,252.662a5.272,5.272,0,0,1-5.228,5.315H90.235a5.272,5.272,0,0,1-5.227-5.315V118.01a5.272,5.272,0,0,1,5.227-5.316h195.6a5.272,5.272,0,0,1,5.228,5.316Z" transform="translate(-29.543 -39.165)" fill="#2e5b66"/>
          <rect id="Rectangle_406272" data-name="Rectangle 406272" width="194.294" height="133.323" transform="translate(61.345 79.509)" fill="#fff"/>
          <path id="Path_906114" data-name="Path 906114" d="M130.352,236.3,150.1,225.208l19.753-21.548,19.749,8.553,19.751-31.4,19.751,16.094,19.751,16.8,19.751-53.556" transform="translate(-45.302 -55.658)" fill="none" stroke="#1f444d" stroke-miterlimit="10" stroke-width="1"/>
          <path id="Path_906115" data-name="Path 906115" d="M277.855,399.219a15.011,15.011,0,0,0-14.6-11.527H174.306a15.011,15.011,0,0,0-14.6,11.527Z" transform="translate(-55.504 -134.736)" fill="#2e5b66"/>
          <path id="Path_906116" data-name="Path 906116" d="M109.176,148.858v107a.329.329,0,0,0,.326.326H275.664a.326.326,0,0,0,0-.652H109.5l.326.326v-107a.326.326,0,0,0-.652,0" transform="translate(-37.942 -51.624)"/>
          <rect id="Rectangle_406273" data-name="Rectangle 406273" width="4.845" height="85.255" transform="translate(220.886 113.764)" fill="#fd9826"/>
          <rect id="Rectangle_406274" data-name="Rectangle 406274" width="4.845" height="31.754" transform="translate(201.134 167.265)" fill="#fd9826"/>
          <rect id="Rectangle_406275" data-name="Rectangle 406275" width="4.845" height="48.569" transform="translate(181.383 150.45)" fill="#fd9826"/>
          <rect id="Rectangle_406276" data-name="Rectangle 406276" width="4.845" height="64.484" transform="translate(161.632 134.535)" fill="#fd9826"/>
          <rect id="Rectangle_406277" data-name="Rectangle 406277" width="4.845" height="33.509" transform="translate(141.881 165.51)" fill="#fd9826"/>
          <rect id="Rectangle_406278" data-name="Rectangle 406278" width="4.845" height="41.758" transform="translate(122.13 157.261)" fill="#fd9826"/>
          <rect id="Rectangle_406279" data-name="Rectangle 406279" width="4.845" height="20.065" transform="translate(102.379 178.954)" fill="#fd9826"/>
          <rect id="Rectangle_406280" data-name="Rectangle 406280" width="4.845" height="9.135" transform="translate(82.628 189.884)" fill="#fd9826"/>
          <path id="Path_906117" data-name="Path 906117" d="M131.419,275.644a2.284,2.284,0,1,1-2.284-2.284,2.284,2.284,0,0,1,2.284,2.284" transform="translate(-44.085 -95.002)" fill="#008d8e"/>
          <path id="Path_906118" data-name="Path 906118" d="M161.691,258.643a2.284,2.284,0,1,1-2.284-2.284,2.284,2.284,0,0,1,2.284,2.284" transform="translate(-54.606 -89.094)" fill="#008d8e"/>
          <path id="Path_906119" data-name="Path 906119" d="M191.965,225.618a2.284,2.284,0,1,1-2.284-2.284,2.284,2.284,0,0,1,2.284,2.284" transform="translate(-65.127 -77.616)" fill="#008d8e"/>
          <path id="Path_906120" data-name="Path 906120" d="M222.234,238.727a2.284,2.284,0,1,1-2.284-2.284,2.284,2.284,0,0,1,2.284,2.284" transform="translate(-75.647 -82.172)" fill="#008d8e"/>
          <path id="Path_906121" data-name="Path 906121" d="M252.505,190.6a2.284,2.284,0,1,1-2.284-2.284,2.284,2.284,0,0,1,2.284,2.284" transform="translate(-86.167 -65.447)" fill="#008d8e"/>
          <path id="Path_906122" data-name="Path 906122" d="M282.777,215.268a2.284,2.284,0,1,1-2.284-2.284,2.284,2.284,0,0,1,2.284,2.284" transform="translate(-96.688 -74.019)" fill="#008d8e"/>
          <path id="Path_906123" data-name="Path 906123" d="M313.048,241.018a2.284,2.284,0,1,1-2.284-2.284,2.284,2.284,0,0,1,2.284,2.284" transform="translate(-107.208 -82.968)" fill="#008d8e"/>
          <path id="Path_906124" data-name="Path 906124" d="M343.32,158.936a2.284,2.284,0,1,1-2.284-2.284,2.284,2.284,0,0,1,2.284,2.284" transform="translate(-117.728 -54.442)" fill="#008d8e"/>
          <rect id="Rectangle_406281" data-name="Rectangle 406281" width="194.294" height="7.102" transform="translate(61.345 79.509)" fill="#b1e0dc"/>
          <path id="Path_906125" data-name="Path 906125" d="M102.268,126.642a1.238,1.238,0,1,1-1.238-1.238,1.238,1.238,0,0,1,1.238,1.238" transform="translate(-34.681 -43.582)" fill="#fff"/>
          <path id="Path_906126" data-name="Path 906126" d="M111.212,126.642a1.238,1.238,0,1,1-1.238-1.238,1.238,1.238,0,0,1,1.238,1.238" transform="translate(-37.789 -43.582)" fill="#20bfad"/>
          <path id="Path_906127" data-name="Path 906127" d="M120.156,126.642a1.238,1.238,0,1,1-1.238-1.238,1.238,1.238,0,0,1,1.238,1.238" transform="translate(-40.898 -43.582)" fill="#2e5b66"/>
          <path id="Path_906128" data-name="Path 906128" d="M36.147,376.035c-2.11,5.1-5.88,14.592-5.6,16.653s1.547,9.409,2.261,9.78-6.863-.592-7.049-10.782a38.154,38.154,0,0,1,4.53-18.788Z" transform="translate(-8.951 -129.595)" fill="#ffcba3"/>
          <path id="Path_906129" data-name="Path 906129" d="M24.794,397.026c.705,2.131,1.462,8.874,3.05,11.239.933,1.389,3.424,2.539,3.262,1.079,2.591,3.617,2.308,3.315-.174,2.822s-5.7-1.662-6.165-9.39c-.8,3.08-.514,6.162-1.05,5.952a8.556,8.556,0,0,0-1.015-.32c1.61-6.91-1.2-9.468,2.092-11.381" transform="translate(-7.89 -137.98)" fill="#98d1d1"/>
          <path id="Path_906130" data-name="Path 906130" d="M16.563,379.7c1.142,3.752,1.835,13.783.285,15.9s-.2,1.957,2.569,5.709.79,6.2,5.954,6.443c2.284.109,2.433.84.652-2.773C20.369,393.514,23.74,387.941,24.8,380.6c.709-4.91-8.237-.9-8.237-.9" transform="translate(-5.628 -131.423)" fill="#ffcba3"/>
          <path id="Path_906131" data-name="Path 906131" d="M27.991,381.31c-.634,2.87-.836,5.8-1.353,8.686-.43,2.4-1.052,5.151-.36,7.554a.326.326,0,0,0,.629-.174c-.709-2.461.025-5.339.463-7.786.482-2.7.658-5.428,1.249-8.108.09-.41-.538-.585-.629-.174" transform="translate(-9.025 -132.437)"/>
          <path id="Path_906132" data-name="Path 906132" d="M40.858,286.694c-1.631-7.83-5.545-23.272-5.763-30.122-.544-2.393-.979-1.848-.979-1.848a21.126,21.126,0,0,1-23.082-2.447c-3.371,3.915-5.192,6.144-5.192,6.144-1.087,5.872-3.153,13.376.544,31.754S7.8,305.617,8.67,318.557s2.5,18.486,2.5,18.486a21.009,21.009,0,0,0,11.853.761,16.068,16.068,0,0,0,.544-4.35c3.045,1.631,5.547,1.632,6.743,1.2,4.458-11.2,8.156-24.9,10.439-30.884s1.739-9.243.108-17.072M22.7,321.682a160.064,160.064,0,0,1-.326-16.067c.326-7.34-.489-21.368,0-27,1.468,6.525,6.362,13.946,6.28,17.209s-4.486,19.656-5.954,25.854" transform="translate(-1.487 -87.675)" fill="#727997"/>
          <path id="Path_906133" data-name="Path 906133" d="M13.6,175.276c-3.425,2.447-6.2,5.546-4.893,14.844,7.422,1.142,9.135-.163,9.135-.163l-1.794-14.6Z" transform="translate(-2.912 -60.914)" fill="#001f30"/>
          <path id="Path_906134" data-name="Path 906134" d="M18.172,143.717c4.024-4.023,19.139-2.5,19.683,5.546,0,7.4-.979,6.743-1.414,11.31s-4.35,8.917-9.9,8.156a23.7,23.7,0,0,0,1.849,7.938l4.132.326s4.458,14.789-4.567,15.333-10.494-4.893-11.581-14.9c.272-3.861.652-13.1.652-13.1C9.363,163.21,9.717,153.2,16,158.289c1.087-11.2,2.175-14.572,2.175-14.572" transform="translate(-3.92 -49.201)" fill="#ffcba3"/>
          <path id="Path_906135" data-name="Path 906135" d="M23.624,213.223c2.447,2.773,11.065,3.1,12.642-2.446.571,13.539,2.12,29.442,2.854,30.257-5.872,2.039-14.028,2.691-17.861-.326.326-7.911,2.528-23.57,2.365-27.485" transform="translate(-7.388 -73.252)" fill="#fff"/>
          <path id="Path_906136" data-name="Path 906136" d="M38.592,195.034c1.142,2.447,3.29,16.691,3.29,23.787s.9,17.78,4.73,24.3c3.752-.734,7.911-1.468,7.911-1.794.082-2.2-3.752-13.62-3.752-13.62,2.855-.163,4.567-4.241,4.159-11.092s-3.507-18.922-3.67-19.411-.734-2.447-6.2-1.957c-.163-1.3-6.525-1.249-6.471-.217" transform="translate(-13.412 -67.514)" fill="#feead2"/>
          <path id="Path_906137" data-name="Path 906137" d="M25.017,222.359c1.9.055,6.525.816,6.525.816l.53,5.9-7.979-1.767Z" transform="translate(-8.373 -77.277)" fill="#ffcba3"/>
          <path id="Path_906138" data-name="Path 906138" d="M35.537,164.053a.476.476,0,0,1,.035-.656c-.025.014-.083-.07-.031.027a.65.65,0,0,1,.028.3,3.582,3.582,0,0,1-.1.349c-.1-.048-.024-.453,0-.557.018-.068.131-.339.17-.3.153.139-.019.528-.1.66-.059.1-.1.053-.051.08a.371.371,0,0,1-.063-.065c.03.054.033.052.01-.01a.7.7,0,0,1-.017-.209.575.575,0,0,1,.027-.156c.017-.063-.116.073-.131-.073a.327.327,0,0,1-.176.288l.479.2a.137.137,0,0,1,.022-.184c.25-.34-.317-.665-.563-.329a.767.767,0,0,0-.087.686.33.33,0,0,0,.479.2.822.822,0,0,0,.223-1.343.57.57,0,0,0-.72.1,1.056,1.056,0,0,0-.2.8c.05.509.54.952,1.043.647a1.362,1.362,0,0,0,.483-1.386.68.68,0,0,0-1.131-.364,1.56,1.56,0,0,0-.367,1.367.656.656,0,0,0,1.007.485,1.259,1.259,0,0,0,.381-1.265.654.654,0,0,0-1.042-.452,1.145,1.145,0,0,0-.074,1.625c.305.289.768-.172.461-.461" transform="translate(-12.083 -56.5)"/>
          <path id="Path_906139" data-name="Path 906139" d="M46.12,164.386a.476.476,0,0,1,.035-.656c-.025.014-.083-.07-.031.027a.65.65,0,0,1,.028.3,3.577,3.577,0,0,1-.1.349c-.1-.048-.024-.453,0-.557.018-.068.131-.339.17-.3.153.139-.019.528-.1.66-.059.1-.1.054-.051.08a.371.371,0,0,1-.063-.065c.03.054.033.052.01-.01A.7.7,0,0,1,46,164a.575.575,0,0,1,.027-.156c.017-.063-.116.073-.131-.073a.327.327,0,0,1-.176.288l.479.2a.137.137,0,0,1,.022-.184c.25-.34-.317-.665-.563-.329a.767.767,0,0,0-.087.686.33.33,0,0,0,.479.2.822.822,0,0,0,.223-1.343.57.57,0,0,0-.72.1,1.056,1.056,0,0,0-.2.8c.05.509.54.952,1.043.647a1.362,1.362,0,0,0,.483-1.386.68.68,0,0,0-1.131-.364,1.559,1.559,0,0,0-.367,1.367.656.656,0,0,0,1.007.485,1.259,1.259,0,0,0,.381-1.265.654.654,0,0,0-1.042-.452,1.145,1.145,0,0,0-.074,1.625c.305.288.768-.172.461-.461" transform="translate(-15.761 -56.616)"/>
          <path id="Path_906140" data-name="Path 906140" d="M32.9,158.008a4.079,4.079,0,0,1,2.543-.937.324.324,0,0,0,.314-.24c0-.016.005-.032.007-.048l-.228.228.047-.007c.416-.059.238-.688-.173-.629l-.048.007a.312.312,0,0,0-.228.228c0,.016,0,.032-.007.048l.314-.239a4.732,4.732,0,0,0-3,1.128.326.326,0,0,0,.461.461" transform="translate(-11.24 -54.344)"/>
          <path id="Path_906141" data-name="Path 906141" d="M39.771,165.332c.434.44,1.072.523,1.523.925l-.051-.4a4.267,4.267,0,0,1-1.254,1.4c-.332.257.133.716.461.461a4.653,4.653,0,0,0,1.356-1.534.33.33,0,0,0-.051-.4c-.452-.4-1.1-.5-1.523-.925-.3-.3-.757.161-.461.461" transform="translate(-13.789 -57.264)"/>
          <path id="Path_906142" data-name="Path 906142" d="M36.417,173.824c1.542.262,3.148.506,4.547-.359.357-.221.03-.786-.329-.564-1.241.768-2.68.525-4.044.294-.412-.07-.588.559-.174.629" transform="translate(-12.574 -60.071)"/>
          <path id="Path_906143" data-name="Path 906143" d="M46.426,156.844a2.7,2.7,0,0,1,1.781.72c.273.321.733-.143.461-.461a3.367,3.367,0,0,0-2.242-.911c-.419-.04-.415.612,0,.652" transform="translate(-16.026 -54.281)"/>
          <path id="Path_906144" data-name="Path 906144" d="M25.929,179.175a13.378,13.378,0,0,0,5.582,2.748c.41.092.584-.536.173-.629a12.681,12.681,0,0,1-5.293-2.58c-.321-.267-.786.192-.461.461" transform="translate(-8.973 -62.081)"/>
          <path id="Path_906145" data-name="Path 906145" d="M12.347,155.081c-4.649-5.057-1.4-13.629,3.9-16.728s14.273-1.876,17.535,2.365c4.486,3.344,5.5,5.057,5.5,10.439,0,4.784-1.905,11.5-1.669,15.445.029.5,0,1.156-.555.594-2.764-2.8-.63-10.939-.63-10.939.734-3.181,1.02-7.521.694-8.554s-5.22-6.579-9.543-5.355c-1.55,6.28-7.259,15.129-12.642,17.453-.816.082-.041-2.039.693-3.1a5.4,5.4,0,0,0-3.285-1.623" transform="translate(-3.515 -47.481)" fill="#001f30"/>
          <path id="Path_906146" data-name="Path 906146" d="M34.915,223.109a34.63,34.63,0,0,1,8.149,2.229c1.794,6.525.551,9.461.551,9.461s-5.709-2.338-9.189-3.643a21.33,21.33,0,0,0,.489-8.048" transform="translate(-11.964 -77.538)" fill="#fef4e8"/>
          <path id="Path_906147" data-name="Path 906147" d="M12.321,195.968c.9,3.018,10.195,28.545,0,46.57C10.69,243.6.74,238.786.74,238.786c1.223-6.2,6.2-11.744,6.2-11.744S.169,212.035.006,204.858s3.262-7.993,8.564-7.993c-.354-.951,3.153-1.169,3.752-.9" transform="translate(0 -68.068)" fill="#fef4e8"/>
          <path id="Path_906148" data-name="Path 906148" d="M14.123,181.542c1.631-4,5.057-5.682,6.035-5.6s-2.691,5.029-2.691,5.029c5.057.489,5.709,1.957,5.872,2.691a18.042,18.042,0,0,1-.082,3.181c1.468,2.039,1.142,3.507.408,4.649s-1.509,9.677-1.359,14.245a30.482,30.482,0,0,1-1.006,8.1,9.025,9.025,0,0,1-7.666-2.121s3.833-12.478,5.628-17.78c1.223-3.915-1.468-7.34-2.528-8.808s-3.181-2.855-2.61-3.589" transform="translate(-4.738 -61.145)" fill="#ffcba3"/>
          <path id="Path_906149" data-name="Path 906149" d="M12.379,222.4s-4.649.734-5.791,2.61-.925,5.247-.109,7.041c1.631,1.794,2.556,1.142,3.425-1.686.343-1.116,1.414-3.4,1.414-3.4Z" transform="translate(-2.016 -77.292)" fill="#ffcba3"/>
          <path id="Path_906150" data-name="Path 906150" d="M19.864,176.928c.239-.181,2.152-1,2.039-.775a6.917,6.917,0,0,1-1.3,1.474,5.231,5.231,0,0,0-1.639,2.932.33.33,0,0,0,.228.4,17.61,17.61,0,0,1,4.2,1.622c1.332.649,1.069,2.025,1.4,3.23a.326.326,0,0,0,.628-.173c-.3-1.1-.14-2.186-.912-3.093a7.477,7.477,0,0,0-2.37-1.317,10.926,10.926,0,0,0-2.772-.9l.228.4a6.3,6.3,0,0,1,2.11-3.3c.354-.374.958-.955.958-1.524,0-1.483-2.819.223-3.131.46-.33.251-.006.818.329.563" transform="translate(-6.589 -60.925)"/>
          <path id="Path_906151" data-name="Path 906151" d="M23.8,189.021a43.662,43.662,0,0,0,2.773,3.67c1.3,1.708.829,2.93.252,4.806a35.974,35.974,0,0,0-1.293,8.783c-.209,4.182-.566,8.358-.851,12.536-.029.42.624.417.652,0,.294-4.3.676-8.605.87-12.914a41.785,41.785,0,0,1,.681-5.894c.309-1.636,1.034-3.186,1.286-4.819.369-2.394-2.718-4.708-3.806-6.5a.326.326,0,0,0-.563.33" transform="translate(-8.254 -65.523)"/>
          <path id="Path_906152" data-name="Path 906152" d="M12.633,197.11c.258,2.233-.06,7.328,2.931,7.9-.048-.181-.1-.363-.144-.545-1.037.931-.769,1.941-.41,3.172a.326.326,0,0,0,.629-.174c-.241-.827-.638-1.747.242-2.537a.328.328,0,0,0-.144-.545c-2.524-.483-2.229-5.347-2.452-7.27-.048-.413-.7-.418-.652,0" transform="translate(-4.389 -68.394)"/>
          <path id="Path_906153" data-name="Path 906153" d="M47.56,196.316a45.25,45.25,0,0,1,.761,5.439c.042.8.164,2.149-.418,2.78-.4.437-.535.427-.73,1a.974.974,0,0,0,.135.66,18.258,18.258,0,0,1,1.159,2.666c.579,1.709.483,3.5.887,5.239a.329.329,0,0,0,.6.078.457.457,0,0,0,.033-.415.326.326,0,0,0-.629.174l.033-.088.6.078c-.365-1.57-.318-3.176-.737-4.743-.363-1.358-1.788-3.2-.7-4.382.7-.758.444-2.7.4-3.6a42.4,42.4,0,0,0-.755-5.053c-.073-.414-.7-.238-.629.174" transform="translate(-16.387 -68.084)"/>
          <path id="Path_906154" data-name="Path 906154" d="M41.128,224.416c1.948.522,3.8,1.3,5.709,1.957.833.286,1.688.5,2.522.787.933.317,1.709.953,2.616,1.334.388.162.555-.468.174-.629-.744-.313-1.371-.852-2.121-1.142-.828-.32-1.673-.568-2.522-.821-2.1-.626-4.087-1.548-6.2-2.115a.326.326,0,0,0-.174.629" transform="translate(-14.213 -77.769)"/>
          <path id="Path_906155" data-name="Path 906155" d="M51.554,227a8.976,8.976,0,0,1,3.17-.218c.326.009,1.2.142,1.3-.337.082-.41-.547-.586-.629-.173.051-.256-.455-.138-.67-.143-.273-.006-.544-.015-.816-.017a7.454,7.454,0,0,0-2.527.258c-.4.136-.226.766.174.63" transform="translate(-17.778 -78.554)"/>
          <path id="Path_906156" data-name="Path 906156" d="M9.794,240.2c.733,1.01,1.429,2.534,2.725,2.949a5.111,5.111,0,0,0,3.9-.254c2.872-1.492,3.94-4.822,3.975-7.916a.326.326,0,0,0-.652,0,9.848,9.848,0,0,1-2.106,6.292,5.118,5.118,0,0,1-3.754,1.5c-1.835,0-2.588-1.611-3.523-2.9-.245-.337-.811-.012-.563.329" transform="translate(-3.382 -81.555)"/>
          <path id="Path_906157" data-name="Path 906157" d="M4.717,249.64c2.137.981,3.977,2.212,6.277,2.806q-.1-.24-.2-.48c-.373.558-.748,1.114-1.134,1.662a1.754,1.754,0,0,1-.939.825c-.467-.242-.914-.521-1.363-.794-1.086-.66-2.233-1.733-3.476-2.028l.228.4c.007-.02.014-.04.021-.061.14-.4-.491-.568-.629-.173l-.021.06a.328.328,0,0,0,.228.4,9.317,9.317,0,0,1,2.432,1.409c.9.557,1.792,1.109,2.731,1.6a.325.325,0,0,0,.4-.051c.747-.939,1.424-1.923,2.09-2.921a.328.328,0,0,0-.2-.479c-2.243-.579-4.041-1.785-6.12-2.74-.38-.174-.711.388-.329.563" transform="translate(-1.207 -86.551)"/>
          <path id="Path_906158" data-name="Path 906158" d="M55.206,250.453a9.725,9.725,0,0,1-4,1.1.33.33,0,0,0-.314.412,16.4,16.4,0,0,0,1.017,2.336c.11.272.261.788.614.849a4.024,4.024,0,0,0,1.9-.485c1.176-.418,2.354-.823,3.554-1.167a.327.327,0,0,0-.173-.63c-1.49.427-2.945.951-4.4,1.468-.737.262-.742.046-1.019-.583a11.667,11.667,0,0,1-.865-1.961l-.314.413a10.435,10.435,0,0,0,4.325-1.187c.383-.172.051-.735-.329-.563" transform="translate(-17.685 -87.03)"/>
          <path id="Path_906159" data-name="Path 906159" d="M10.556,227.243c-1.9,2.083-1.584,4.873-1.563,7.49a.326.326,0,0,0,.652,0c-.019-2.407-.384-5.1,1.372-7.028.283-.31-.177-.773-.461-.461" transform="translate(-3.114 -78.939)"/>
          <path id="Path_906160" data-name="Path 906160" d="M8.81,226.254c-2.159,1.82-2.064,4.4-2.053,7a.326.326,0,0,0,.652,0c-.01-2.421-.162-4.831,1.861-6.539.322-.271-.142-.731-.461-.461" transform="translate(-2.347 -78.603)"/>
          <path id="Path_906161" data-name="Path 906161" d="M20.667,186.834c-.168-.185.65-.6.776-.669a2.968,2.968,0,0,1,1.843-.2c.41.089.584-.54.173-.629a3.763,3.763,0,0,0-2.626.421c-.555.322-1.187.921-.627,1.538.284.313.744-.151.461-.461" transform="translate(-6.946 -64.384)"/>
          <path id="Path_906162" data-name="Path 906162" d="M18.147,185.483a2.94,2.94,0,0,1,2.271-.72.326.326,0,0,0,0-.652,3.585,3.585,0,0,0-2.732.912c-.3.292.158.753.461.461" transform="translate(-6.112 -63.985)"/>
          <path id="Path_906163" data-name="Path 906163" d="M27.093,192.2a1.154,1.154,0,0,0,1.25-1.087c.026-.421-.626-.418-.652,0a.506.506,0,0,1-.6.435c-.42-.03-.417.622,0,.652" transform="translate(-9.307 -66.308)"/>
          <path id="Path_906164" data-name="Path 906164" d="M16.7,190.916a8.358,8.358,0,0,1,2.363,7.24c-.393,2.333-1.433,4.633-2.04,6.927-.508,1.92-1.434,3.69-2.048,5.577-.537,1.652-.989,3.331-1.458,5a.326.326,0,0,0,.628.173c1.211-4.319,2.907-8.446,4.058-12.769.656-2.464,1.822-4.6,1.587-7.225a9.082,9.082,0,0,0-2.629-5.389c-.293-.3-.754.159-.461.461" transform="translate(-4.694 -66.155)"/>
          <path id="Path_906165" data-name="Path 906165" d="M42.47,238.843c3.011,2.406,6.808,4.725,10.752,4.826a.326.326,0,0,0,0-.652c-3.722-.095-7.437-2.353-10.291-4.634-.325-.26-.79.2-.461.461" transform="translate(-14.721 -82.819)"/>
          <path id="Path_906166" data-name="Path 906166" d="M27.841,250.073c3.766-.057,6.848-2.667,9.009-5.545.253-.337-.314-.662-.564-.329-2.017,2.687-4.925,5.168-8.445,5.221a.326.326,0,0,0,0,.652" transform="translate(-9.566 -84.819)"/>
          <path id="Path_906167" data-name="Path 906167" d="M16.779,403.9c1.171,1.916,3.762,8.523,5.845,10.467,1.223,1.142,3.861,1.2,3.371-.191,3.344,2.936,3.425,3.262.9,3.344s-6.4.285-8.6-7.136c-.245,2.447.53,5.586-.04,5.5a8.4,8.4,0,0,0-1.06-.082c0-7.1-3.181-9.3-.408-11.908" transform="translate(-5.437 -140.369)" fill="#98d1d1"/>
          <path id="Path_906168" data-name="Path 906168" d="M32.507,280.773a23.227,23.227,0,0,1,3.7-1.631c.384-.169.052-.731-.329-.563a23.216,23.216,0,0,0-3.7,1.631c-.348.232-.022.8.329.563" transform="translate(-11.131 -96.805)"/>
          <path id="Path_906169" data-name="Path 906169" d="M24.17,286.025c-.095,2.468.333,4.953.41,7.422.082,2.591.264,5.175.4,7.762.288,5.409.412,10.779.286,16.194a112.312,112.312,0,0,0,.589,15.789c.3,2.5.387,4.939.459,7.451.033,1.156.025,2.3-.042,3.457a28.9,28.9,0,0,0,.288,3.692c.027.418.68.421.652,0-.069-1.057-.338-2.078-.314-3.143.028-1.34.1-2.663.069-4.005a69.135,69.135,0,0,0-.459-7.451c-.335-2.548-.236-5.135-.491-7.693a67.172,67.172,0,0,1-.1-8.1c.118-5.415,0-10.785-.286-16.194-.138-2.587-.321-5.171-.4-7.762-.077-2.47-.505-4.954-.41-7.422.016-.422-.637-.42-.652,0" transform="translate(-8.395 -99.294)"/>
          <path id="Path_906170" data-name="Path 906170" d="M32.668,360.691a44.888,44.888,0,0,0,.243,4.727,19.575,19.575,0,0,0,.313,4.168.326.326,0,0,0,.629-.174,21.289,21.289,0,0,1-.314-4.48,40.05,40.05,0,0,1-.217-4.241c.022-.421-.63-.419-.652,0" transform="translate(-11.347 -125.243)"/>
          <path id="Path_906171" data-name="Path 906171" d="M50.183,296.274c.652,3.855,1.948,7.572,2.45,11.454.53,4.1-.327,8.378-1.3,12.349-.947,3.884-2.068,7.789-3.206,11.622-.568,1.907-1.211,3.765-1.681,5.7a35.456,35.456,0,0,1-1.89,6.145c-.169.38.393.713.564.329,1.616-3.633,2.225-7.659,3.457-11.431,1.362-4.167,2.492-8.534,3.531-12.792a35.229,35.229,0,0,0,1.172-11.923c-.421-3.945-1.813-7.723-2.473-11.628-.07-.414-.7-.238-.629.174" transform="translate(-15.475 -102.823)"/>
          <path id="Path_906172" data-name="Path 906172" d="M32.681,281.935a16.17,16.17,0,0,0-.127,3.058c-.02,1.549-.191,3.091-.211,4.64a.326.326,0,0,0,.652,0c.015-1.162.093-2.32.161-3.48a29.3,29.3,0,0,1,.153-4.045c.083-.411-.546-.586-.629-.174" transform="translate(-11.24 -97.9)"/>
          <path id="Path_906173" data-name="Path 906173" d="M25.251,262.872a39.322,39.322,0,0,0,5.941.812,15.664,15.664,0,0,0,5.65-1.355c.387-.151.219-.782-.174-.63a17.259,17.259,0,0,1-5.477,1.332,28.454,28.454,0,0,1-5.768-.789c-.412-.064-.589.564-.174.63" transform="translate(-8.693 -90.941)"/>
          <path id="Path_906174" data-name="Path 906174" d="M25.265,152.7c-2.139,2.692-3.68,5.791-5.818,8.482-.258.326.2.791.461.461,2.139-2.692,3.68-5.791,5.818-8.482.259-.326-.2-.791-.461-.461" transform="translate(-6.732 -53.028)"/>
          <path id="Path_906175" data-name="Path 906175" d="M36.015,143.024a8.862,8.862,0,0,1,6.188,0c.4.132.572-.5.174-.629a9.319,9.319,0,0,0-6.535,0c-.386.153-.219.784.174.629" transform="translate(-12.38 -49.281)"/>
          <path id="Path_906176" data-name="Path 906176" d="M26.326,139.777c-4.1.162-8.55,1.694-10.775,5.382a.327.327,0,0,0,.564.329c2.1-3.486,6.352-4.906,10.212-5.059.42-.016.421-.669,0-.652" transform="translate(-5.387 -48.577)"/>
          <path id="Path_906177" data-name="Path 906177" d="M27.529,141.291c-2.608.555-4.5,2.22-6.343,4.052a.326.326,0,0,0,.461.461c1.76-1.753,3.556-3.354,6.055-3.885.411-.087.237-.716-.174-.629" transform="translate(-7.33 -49.1)"/>
          <path id="Path_906178" data-name="Path 906178" d="M13.132,230.773a6.144,6.144,0,0,0,5.5,2.445.326.326,0,0,0,0-.652,5.517,5.517,0,0,1-4.939-2.122c-.23-.35-.8-.023-.563.329" transform="translate(-4.545 -80.035)"/>
          <path id="Path_906179" data-name="Path 906179" d="M34.548,222.775a28.034,28.034,0,0,1-.695,8.232.326.326,0,0,0,.629.174,28.647,28.647,0,0,0,.718-8.406.326.326,0,0,0-.652,0" transform="translate(-11.76 -77.312)"/>
          <path id="Path_906180" data-name="Path 906180" d="M18.259,401.733a10.373,10.373,0,0,0,.5,2.941c.122.4.752.23.629-.174a9.767,9.767,0,0,1-.478-2.768.326.326,0,0,0-.652,0" transform="translate(-6.346 -139.506)"/>
          <path id="Path_906181" data-name="Path 906181" d="M17.614,411.576a7,7,0,0,1,1.6,2.846c.089.411.718.238.628-.173a7.714,7.714,0,0,0-1.769-3.134c-.265-.327-.724.138-.461.461" transform="translate(-6.094 -142.838)"/>
          <path id="Path_906182" data-name="Path 906182" d="M219.3,161.836c.816,2.121,1.794,5.791,1.794,5.791l6.28-1.223-.979-5.628Z" transform="translate(-76.215 -55.875)" fill="#20bfad"/>
          <path id="Path_906183" data-name="Path 906183" d="M246.29,163.151c-.082.245-.489,9.461-.489,9.461l5.954-2.365,2.365-7.1Z" transform="translate(-85.424 -56.701)" fill="#20bfad"/>
          <path id="Path_906184" data-name="Path 906184" d="M204.74,137.11C208,137,216.7,134.718,216.7,134.718c-1.2-5-9.135-30.775-9.461-31.862,4.676-1.087,14.789-.435,14.789-.435-1.414,5.111-.436,31.644-1.2,34.689,4.676.109,13.811-.326,13.811-.326,1.957-5.98,4.458-27.947,7.5-31.536s11.309-3.045,11.309-3.045a132.125,132.125,0,0,0,.979-18.16s-22.727-1.3-29.578-1.522-26.316,2.609-32.623,7.285-2.609,14.137,2.393,24.25S204.74,137.11,204.74,137.11" transform="translate(-65.649 -28.675)" fill="#12263f"/>
          <path id="Path_906185" data-name="Path 906185" d="M213.926,98.474a39.4,39.4,0,0,1,5.3,9.216c.816,2.447,2.936,9.379,3.833,8.808.408,3.752,1.223,3.1,1.468,2.936.979.734,1.877.435,1.795-1.985.244-1.522,1.088-3.262.87-5.981s-4.948-14.953-8.211-19.194c-1.957.979-5.057,6.2-5.057,6.2" transform="translate(-74.347 -32.069)" fill="#f7cfb2"/>
          <path id="Path_906186" data-name="Path 906186" d="M288,100.912c0,3.1-.326,7.122-.326,7.721s6.632,1.306,9.351,1.849,4.351-.653.11-1.686c6.741-.38,8.156-.326,8.156-.652s-2.393-1.359-6.308-1.359-3.262-1.251-3.262-6.035-7.72.163-7.72.163" transform="translate(-99.978 -34.289)" fill="#f7cfb2"/>
          <path id="Path_906187" data-name="Path 906187" d="M206.732,71.15s6.851-4.676,7.612-4.785c-1.522-4.024-5-8.374-4.893-9.57s7.939-12.723,9.461-14.028c3.045,8.265,5.981,15.333,9.787,16.312,6.634.217,22.836,3.806,26.968,1.414,0,6.525.109,12.614.109,12.614l9.243-1.088s.761-22.727.217-32.079-2.936-28.6-27.947-24.25C223.7,18.626,210.756,22.324,203.8,37s-9.244,20.226-6.416,23.054,9.352,11.092,9.352,11.092" transform="translate(-68.185 -5.234)" fill="#f6cbc2"/>
          <path id="Path_906188" data-name="Path 906188" d="M245.774,44.217c-.013.882-.318,2.48.72,2.907.49.2,1.022-.408,1.317-.7a20.158,20.158,0,0,0,1.7-1.976c.256-.328-.2-.793-.461-.462a11.7,11.7,0,0,1-2.244,2.456c-.47.329-.383-1.947-.379-2.225a.326.326,0,0,0-.652,0" transform="translate(-85.397 -15.247)"/>
          <path id="Path_906189" data-name="Path 906189" d="M255.968,35c.91.58,1.6,1.407,2.528,1.957a.329.329,0,0,0,.395-.051,17.2,17.2,0,0,0,3.048-4.223,23.484,23.484,0,0,0,2.421-5.368c.512-1.961,1.266-6.3-1.616-6.777-.412-.069-.588.56-.174.629,2.143.356,1.576,3.441,1.367,4.933a14.321,14.321,0,0,1-1.825,4.884,31.3,31.3,0,0,1-2.615,4.321c-.648.835-.844,1.088-1.729.318a12.509,12.509,0,0,0-1.471-1.187c-.356-.227-.682.337-.329.563" transform="translate(-88.905 -7.137)"/>
          <path id="Path_906190" data-name="Path 906190" d="M223.321,13.128c0,4.785,2.067,9.135,5.438,11.418s4.785,4.785,9.461,4.785,10.657-5,10.657-11.309c3.262-.652,4.35-7.069.979-6.634-2.719-7.394-8.917-14.137-19.791-9.9-6.525,3.915-6.961,7.613-6.743,11.636" transform="translate(-77.598 -0.061)" fill="#f7c9a8"/>
          <path id="Path_906191" data-name="Path 906191" d="M223.05,15.676c2.447,3.262,10.847,3.262,13.865-.082s4.975-3.752,5.791-2.365,1.685,3.834,3.48,4.568c.326.163,1.3-1.3,1.3-1.3-1.06-2.2.789-5.112,2.121-5.166C247.518,4.584,243.684-1.533,232.593.343c-11.01,1.957-10.521,11.826-9.542,15.333" transform="translate(-77.354 0)"/>
          <path id="Path_906192" data-name="Path 906192" d="M232,35.563a9.355,9.355,0,0,1,1.88-.566c.4-.134.226-.764-.174-.629a9.986,9.986,0,0,0-2.035.632.326.326,0,0,0,.329.563" transform="translate(-80.46 -11.937)"/>
          <path id="Path_906193" data-name="Path 906193" d="M244.5,32.454a6.735,6.735,0,0,1,2.663-.608.326.326,0,0,0,0-.652,7.539,7.539,0,0,0-2.992.7c-.384.172-.051.735.329.563" transform="translate(-84.797 -10.841)"/>
          <path id="Path_906194" data-name="Path 906194" d="M240.68,35.784c.48,1.224.718,2.529,1.284,3.721a.329.329,0,0,0,.512.066,7.035,7.035,0,0,0,1.247-2.023c.185-.376-.378-.707-.563-.329a6.58,6.58,0,0,1-1.145,1.891l.512.066c-.541-1.138-.759-2.4-1.217-3.565-.153-.387-.783-.219-.63.174" transform="translate(-83.636 -12.3)"/>
          <path id="Path_906195" data-name="Path 906195" d="M237.29,38.111a2.529,2.529,0,0,1-.275-.314q-.058.223-.117.446c.074-.033.376.179.38.208l.326-.326a.707.707,0,0,1-.589-.383l-.051.4c-.033.033-.068,0,.038.025a.316.316,0,0,1,.14.089c.2-.1.251-.187.146-.259a.624.624,0,0,1-.084-.1.477.477,0,0,1-.089-.153l-.326.326a.241.241,0,0,1,.164.05.386.386,0,0,1,.082.068c.115.108-.16-.078.121-.173-.077.026-.236-.132-.279-.188-.093-.123-.2.162-.082.192a.6.6,0,0,1,.241.177.321.321,0,0,1,.066.09c.023.085.062.038.117-.143a.306.306,0,0,1-.2-.184c-.176-.382-.739-.05-.563.329a.886.886,0,0,0,.814.5.526.526,0,0,0,.457-.7,1.2,1.2,0,0,0-.7-.675c-.255-.1-.746-.048-.8.3a.933.933,0,0,0,1.161.916c.813-.275-.031-1.246-.6-1.208a.328.328,0,0,0-.326.326c.052.5.88,1.424,1.279.673.339-.638-.793-1.178-1.238-.741a.326.326,0,0,0-.051.4,1.357,1.357,0,0,0,1.152.706c.16-.012.349-.141.326-.326a1.025,1.025,0,0,0-1.361-.771.324.324,0,0,0-.117.446,3.564,3.564,0,0,0,.377.446.326.326,0,0,0,.461-.461" transform="translate(-82.093 -12.987)"/>
          <path id="Path_906196" data-name="Path 906196" d="M248.123,35.194a2.527,2.527,0,0,1-.275-.314q-.058.223-.117.446c.074-.033.376.179.38.208l.326-.326a.707.707,0,0,1-.589-.383l-.051.4c-.033.033-.068,0,.038.025a.318.318,0,0,1,.139.089c.2-.1.251-.187.146-.259a.626.626,0,0,1-.084-.1.477.477,0,0,1-.089-.153l-.326.326a.242.242,0,0,1,.164.05.37.37,0,0,1,.082.068c.115.108-.16-.078.121-.173-.077.026-.236-.132-.279-.188-.093-.123-.2.162-.082.192a.6.6,0,0,1,.241.177.321.321,0,0,1,.066.09c.023.085.062.038.117-.143a.306.306,0,0,1-.2-.184c-.176-.382-.739-.05-.563.329a.886.886,0,0,0,.814.5.526.526,0,0,0,.457-.7,1.2,1.2,0,0,0-.7-.675c-.255-.1-.746-.048-.8.3a.933.933,0,0,0,1.162.916c.812-.275-.031-1.246-.6-1.208a.328.328,0,0,0-.326.326c.052.5.88,1.424,1.279.673.339-.638-.793-1.178-1.238-.741a.326.326,0,0,0-.051.4,1.357,1.357,0,0,0,1.152.706c.16-.012.349-.141.326-.326a1.025,1.025,0,0,0-1.361-.771.324.324,0,0,0-.117.446,3.562,3.562,0,0,0,.377.446.326.326,0,0,0,.461-.461" transform="translate(-85.858 -11.973)"/>
          <path id="Path_906197" data-name="Path 906197" d="M251.175,48.985a15.55,15.55,0,0,0,1.711,4.936c1.053,2.258,2.057,4.538,3.134,6.785,1.677,3.5,3.2,7.846,6.409,10.255.337.253.661-.314.329-.564-3.066-2.306-4.555-6.672-6.174-10.021q-1.233-2.55-2.395-5.134c-.915-2.022-2.114-4.02-2.362-6.258-.046-.414-.7-.418-.652,0" transform="translate(-87.291 -16.915)"/>
          <path id="Path_906198" data-name="Path 906198" d="M229.34,53.648a10.482,10.482,0,0,1,.887,2.435c.264.821.509,1.647.792,2.462.138.395.768.225.63-.173-.324-.931-.6-1.876-.906-2.813a9.287,9.287,0,0,0-.84-2.24c-.226-.352-.792-.025-.563.33" transform="translate(-79.685 -18.477)"/>
          <path id="Path_906199" data-name="Path 906199" d="M283.051,46.483A72.912,72.912,0,0,0,285,61.836c1.227,5.307.151,10.719,1.165,16.052.079.413.707.238.629-.174-.975-5.127.075-10.344-1.029-15.452a80.111,80.111,0,0,1-2.059-15.78.326.326,0,0,0-.652,0" transform="translate(-98.37 -16.045)"/>
          <path id="Path_906200" data-name="Path 906200" d="M239.32,108.226c.588-3.65,1.385-6.793,4.73-8.86,3.179-1.964,7.088-2.187,10.7-2.564.414-.043.418-.7,0-.652-3.976.415-7.956.757-11.439,2.908-3.259,2.013-4.046,5.454-4.617,8.994-.066.412.562.588.63.174" transform="translate(-82.951 -33.415)"/>
          <path id="Path_906201" data-name="Path 906201" d="M223.876,118.281a14.249,14.249,0,0,1,2.4,7.013c.042.414.695.418.652,0a14.93,14.93,0,0,0-2.492-7.342c-.253-.328-.82,0-.563.329" transform="translate(-77.782 -40.945)"/>
          <path id="Path_906202" data-name="Path 906202" d="M227.689,119.692a46.993,46.993,0,0,1,1.457,9.1.328.328,0,0,0,.641.087c.018-.054.036-.108.054-.163.132-.4-.5-.571-.63-.174-.018.054-.036.109-.054.163l.641.087a47.922,47.922,0,0,0-1.48-9.275c-.089-.411-.718-.236-.63.174" transform="translate(-79.127 -41.455)"/>
          <path id="Path_906203" data-name="Path 906203" d="M230.272,119.025a45.111,45.111,0,0,1,1.13,4.97c.14,1.281.608,3,.284,4.263a.327.327,0,0,0,.63.174c.356-1.385-.156-3.029-.261-4.437a35.39,35.39,0,0,0-1.153-5.143c-.091-.411-.72-.236-.63.174" transform="translate(-80.024 -41.223)"/>
          <path id="Path_906204" data-name="Path 906204" d="M232.271,115.859c.269,1.11.694,2.129.9,3.262a21.771,21.771,0,0,1,.234,3.828.326.326,0,0,0,.652,0,21.343,21.343,0,0,0-.174-3.512c-.221-1.306-.67-2.478-.979-3.752-.1-.408-.728-.235-.63.174" transform="translate(-80.719 -40.124)"/>
          <path id="Path_906205" data-name="Path 906205" d="M210.843,97.145c.761-2.012,5.056-5.057,9.406-6.035,1.2,1.794,2.067,2.827,2.5,2.936-4.948,2.338-8.918,4.621-10.168,5.709a15.586,15.586,0,0,1-1.739-2.61" transform="translate(-73.275 -31.664)" fill="#0fa896"/>
          <path id="Path_906206" data-name="Path 906206" d="M286.589,100.793c2.2,0,9.053-.326,11.5-1.142a7.763,7.763,0,0,1-.082,3.425c-.163.326-7.5,1.794-11.581,1.223,0-.816.163-3.507.163-3.507" transform="translate(-99.543 -34.632)" fill="#0fa896"/>
          <path id="Path_906207" data-name="Path 906207" d="M241.176,169.856c-1.794.163-1.849.652-1.9,3.262s-2.175,5.547-5.328,8.755-.326,3.48,2.99,1.087a90.058,90.058,0,0,0,7.884-6.852s-.054,1.3.272,1.251a13.953,13.953,0,0,0,3.425-2.773,13.392,13.392,0,0,0,.272-4.73c-.218-.979-2.827.435-5.546,2.284-.925-1.848-1.251-2.284-2.066-2.284" transform="translate(-80.827 -58.92)" fill="#1f444d"/>
          <path id="Path_906208" data-name="Path 906208" d="M216.321,166.112c-1.783-.253-1.949.21-2.6,2.737s-3.391,4.9-7.2,7.3-1.116,3.312,2.661,1.745a90.122,90.122,0,0,0,9.247-4.856s-.353,1.257-.022,1.28a13.955,13.955,0,0,0,3.971-1.912c.467-.56.392-3.788.4-4.79s-1.9.023-4.976,1.2c-.474-2.011-.692-2.51-1.486-2.7" transform="translate(-71.133 -57.709)" fill="#1f444d"/>
          <path id="Path_906209" data-name="Path 906209" d="M263.633,53.77a18.5,18.5,0,0,0,4.377-.374c1.375-.282,2.556-1.124,3.947-1.351.414-.067.238-.7-.174-.629a21.054,21.054,0,0,0-3.425,1.223,13.36,13.36,0,0,1-4.725.478c-.422-.014-.42.638,0,.652" transform="translate(-91.512 -17.867)"/>
          <path id="Path_906210" data-name="Path 906210" d="M263.316,54.566a14.254,14.254,0,0,0,1.118,3.355,13.161,13.161,0,0,0,1.443,2.84c.246.335.812.01.563-.329a13.972,13.972,0,0,1-1.516-3.022,12.752,12.752,0,0,1-.979-3.018c-.059-.415-.687-.237-.63.174" transform="translate(-91.51 -18.821)"/>
          <path id="Path_906211" data-name="Path 906211" d="M267.094,64.129a9.294,9.294,0,0,0,3.189,1.33,3.584,3.584,0,0,0,2.441.056.326.326,0,0,0-.329-.563c-.62.361-1.721-.075-2.368-.217a7.812,7.812,0,0,1-2.6-1.169c-.354-.23-.68.334-.329.563" transform="translate(-92.772 -22.073)"/>
          <path id="Path_906212" data-name="Path 906212" d="M276.063,51.942a14.569,14.569,0,0,0,1.151,3.226,12.5,12.5,0,0,1,1.218,2.95l.48-.369-.086-.059c-.346-.24-.672.326-.329.564l.085.059c.261.181.521-.116.48-.369a11.332,11.332,0,0,0-.91-2.314,21.39,21.39,0,0,1-1.458-3.861c-.091-.41-.72-.236-.63.174" transform="translate(-95.938 -17.91)"/>
          <path id="Path_906213" data-name="Path 906213" d="M278.277,60.7a15.922,15.922,0,0,1-1.877,2.269c-.185.182-.38.356-.576.529-.124.11-.527.56-.691.547-.42-.032-.417.62,0,.652.51.038,1.152-.733,1.482-1.037a15.652,15.652,0,0,0,2.224-2.632c.242-.346-.324-.671-.563-.329" transform="translate(-95.509 -21.044)"/>
          <path id="Path_906214" data-name="Path 906214" d="M265.475,56.226a7.731,7.731,0,0,0,3.362,1.788,2.267,2.267,0,0,0,1.918-.836c.457-.418,2.383-2.361,1.329-2.983a.326.326,0,0,0-.329.563c.193.114-1.465,1.961-1.642,2.124-1.347,1.233-3.148-.352-4.309-1.219-.337-.253-.662.314-.329.563" transform="translate(-92.213 -18.818)"/>
          <path id="Path_906215" data-name="Path 906215" d="M247.883,82.8a34.925,34.925,0,0,1,5.569.805c1.9.354,3.843.5,5.753.815a40.194,40.194,0,0,1,5.46,1.219,8.15,8.15,0,0,0,3.775.574c.414-.067.238-.695-.174-.629-1.621.26-3.258-.572-4.8-.959-1.732-.434-3.494-.748-5.258-1.022-1.71-.267-3.436-.414-5.139-.731a32.434,32.434,0,0,0-5.184-.724.326.326,0,0,0,0,.652" transform="translate(-86.038 -28.55)"/>
          <path id="Path_906216" data-name="Path 906216" d="M264.508,85.053c.958.033,1.828.444,2.774.559,1.154.14,2.339.152,3.5.2,1.088.042,2.188-.157,3.274-.209a18.939,18.939,0,0,0,2.609-.151c.414-.076.237-.705-.174-.629a36.373,36.373,0,0,1-5.71.337c-.969.017-1.961-.09-2.927-.149-1.157-.07-2.2-.568-3.347-.607-.421-.014-.42.638,0,.652" transform="translate(-91.816 -29.332)"/>
          <path id="Path_906217" data-name="Path 906217" d="M247.246,113.434c-.683,5.086-.964,10.229-1.321,15.347-.347,4.968-.976,9.994-1.083,14.971a.326.326,0,0,0,.652,0c.1-4.765.706-9.577,1.038-14.335.368-5.27.639-10.572,1.343-15.809.055-.412-.574-.59-.63-.174" transform="translate(-85.091 -39.34)"/>
          <path id="Path_906218" data-name="Path 906218" d="M215.356,107.275c.344,1.645.853,3.249,1.2,4.893.086.412.715.237.63-.174-.344-1.645-.853-3.249-1.2-4.893-.086-.412-.715-.237-.63.174" transform="translate(-74.841 -37.14)"/>
          <path id="Path_906219" data-name="Path 906219" d="M197.226,120.348c2.122,4.561,4.455,9.02,6.555,13.592,1.076,2.344,2.058,4.729,2.922,7.16.334.939.634,1.878,1.031,2.792a11.438,11.438,0,0,1,1.046,2.6l.4-.4-.059-.01c-.412-.07-.587.559-.173.628l.059.01a.332.332,0,0,0,.4-.4,7.419,7.419,0,0,0-.611-1.634c-.523-1.247-1.024-2.476-1.466-3.755-.793-2.3-1.745-4.546-2.739-6.766-2.136-4.775-4.6-9.4-6.8-14.141-.177-.381-.74-.05-.563.329" transform="translate(-68.531 -41.652)"/>
          <path id="Path_906220" data-name="Path 906220" d="M211.192,96.869c.313-1.3,2.348-2.186,3.4-2.871a43.039,43.039,0,0,1,4.852-2.235c.378-.185.047-.748-.329-.564-.944.463-2.01.661-2.936,1.142a31.191,31.191,0,0,0-2.845,1.717c-1,.666-2.462,1.36-2.77,2.638-.1.409.531.583.63.174" transform="translate(-73.174 -31.682)"/>
          <path id="Path_906221" data-name="Path 906221" d="M212.827,78.278a14.189,14.189,0,0,0-6.444-2c-.42-.024-.418.629,0,.652a13.456,13.456,0,0,1,6.116,1.912.326.326,0,0,0,.329-.563" transform="translate(-71.616 -26.509)"/>
        </g>
      </g>
    </g>
  </g>
</svg>
