<svg xmlns="http://www.w3.org/2000/svg" xmlns:xlink="http://www.w3.org/1999/xlink" width="103" height="103" viewBox="0 0 103 103">
  <defs>
    <filter id="Path_873828" x="0" y="0" width="103" height="103" filterUnits="userSpaceOnUse">
      <feOffset dy="3" input="SourceAlpha"/>
      <feGaussianBlur stdDeviation="3" result="blur"/>
      <feFlood flood-opacity="0.161"/>
      <feComposite operator="in" in2="blur"/>
    </filter>
    <filter id="Path_873828-2" x="0" y="0" width="103" height="103" filterUnits="userSpaceOnUse">
      <feOffset dy="3" input="SourceAlpha"/>
      <feGaussianBlur stdDeviation="3" result="blur-2"/>
      <feFlood flood-opacity="0.161" result="color"/>
      <feComposite operator="out" in="SourceGraphic" in2="blur-2"/>
      <feComposite operator="in" in="color"/>
      <feComposite operator="in" in2="SourceGraphic"/>
    </filter>
  </defs>
  <g id="Group_1113468" data-name="Group 1113468" transform="translate(-194.051 -3268)">
    <g data-type="innerShadowGroup">
      <g transform="matrix(1, 0, 0, 1, 194.05, 3268)" filter="url(#Path_873828)">
        <g id="Path_873828-3" data-name="Path 873828" transform="translate(9 6)" fill="#fd9826">
          <path d="M 42.5 83 C 37.03165054321289 83 31.72793769836426 81.92946624755859 26.73618698120117 79.81812286376953 C 21.91371154785156 77.77839660644531 17.582275390625 74.85792541503906 13.86217498779297 71.13782501220703 C 10.14207458496094 67.417724609375 7.22160005569458 63.08628845214844 5.181875228881836 58.26381301879883 C 3.070537567138672 53.27206420898438 2 47.96834945678711 2 42.5 C 2 37.03165054321289 3.070537567138672 31.72793769836426 5.181875228881836 26.73618698120117 C 7.22160005569458 21.91371154785156 10.14207458496094 17.582275390625 13.86217498779297 13.86217498779297 C 17.582275390625 10.14207458496094 21.91371154785156 7.22160005569458 26.73618698120117 5.181875228881836 C 31.72793769836426 3.070537567138672 37.03165054321289 2 42.5 2 C 47.96834945678711 2 53.27206420898438 3.070537567138672 58.26381301879883 5.181875228881836 C 63.08628845214844 7.22160005569458 67.417724609375 10.14207458496094 71.13782501220703 13.86217498779297 C 74.85792541503906 17.582275390625 77.77839660644531 21.91371154785156 79.81812286376953 26.73618698120117 C 81.92946624755859 31.72793769836426 83 37.03165054321289 83 42.5 C 83 47.96834945678711 81.92946624755859 53.27206420898438 79.81812286376953 58.26381301879883 C 77.77839660644531 63.08628845214844 74.85792541503906 67.417724609375 71.13782501220703 71.13782501220703 C 67.417724609375 74.85792541503906 63.08628845214844 77.77839660644531 58.26381301879883 79.81812286376953 C 53.27206420898438 81.92946624755859 47.96834945678711 83 42.5 83 Z" stroke="none"/>
          <path d="M 42.5 4 C 37.3007698059082 4 32.25918579101562 5.017387390136719 27.51528549194336 7.023887634277344 C 22.93121337890625 8.962783813476562 18.81345367431641 11.73932647705078 15.27638244628906 15.27638244628906 C 11.73932647705078 18.81345367431641 8.962783813476562 22.93121337890625 7.023887634277344 27.51528549194336 C 5.017387390136719 32.25918579101562 4 37.3007698059082 4 42.5 C 4 47.6992301940918 5.017387390136719 52.74081420898438 7.023887634277344 57.48471450805664 C 8.962783813476562 62.06878662109375 11.73932647705078 66.18653869628906 15.27638244628906 69.72361755371094 C 18.81345367431641 73.26067352294922 22.93121337890625 76.03721618652344 27.51528549194336 77.97611236572266 C 32.25918579101562 79.98261260986328 37.3007698059082 81 42.5 81 C 47.6992301940918 81 52.74081420898438 79.98261260986328 57.48471450805664 77.97611236572266 C 62.06878662109375 76.03721618652344 66.18653869628906 73.26067352294922 69.72361755371094 69.72361755371094 C 73.26067352294922 66.18653869628906 76.03721618652344 62.06878662109375 77.97611236572266 57.48471450805664 C 79.98261260986328 52.74081420898438 81 47.6992301940918 81 42.5 C 81 37.3007698059082 79.98261260986328 32.25918579101562 77.97611236572266 27.51528549194336 C 76.03721618652344 22.93121337890625 73.26067352294922 18.81345367431641 69.72361755371094 15.27638244628906 C 66.18653869628906 11.73932647705078 62.06878662109375 8.962783813476562 57.48471450805664 7.023887634277344 C 52.74081420898438 5.017387390136719 47.6992301940918 4 42.5 4 M 42.5 0 C 65.97209930419922 0 85 19.02790069580078 85 42.5 C 85 65.97209930419922 65.97209930419922 85 42.5 85 C 19.02790069580078 85 0 65.97209930419922 0 42.5 C 0 19.02790069580078 19.02790069580078 0 42.5 0 Z" stroke="none" fill="#fff"/>
        </g>
      </g>
      <g id="Path_873828-4" data-name="Path 873828" transform="translate(203.051 3274)" fill="#fd9826">
        <path d="M 42.5 83 C 37.03165054321289 83 31.72793769836426 81.92946624755859 26.73618698120117 79.81812286376953 C 21.91371154785156 77.77839660644531 17.582275390625 74.85792541503906 13.86217498779297 71.13782501220703 C 10.14207458496094 67.417724609375 7.22160005569458 63.08628845214844 5.181875228881836 58.26381301879883 C 3.070537567138672 53.27206420898438 2 47.96834945678711 2 42.5 C 2 37.03165054321289 3.070537567138672 31.72793769836426 5.181875228881836 26.73618698120117 C 7.22160005569458 21.91371154785156 10.14207458496094 17.582275390625 13.86217498779297 13.86217498779297 C 17.582275390625 10.14207458496094 21.91371154785156 7.22160005569458 26.73618698120117 5.181875228881836 C 31.72793769836426 3.070537567138672 37.03165054321289 2 42.5 2 C 47.96834945678711 2 53.27206420898438 3.070537567138672 58.26381301879883 5.181875228881836 C 63.08628845214844 7.22160005569458 67.417724609375 10.14207458496094 71.13782501220703 13.86217498779297 C 74.85792541503906 17.582275390625 77.77839660644531 21.91371154785156 79.81812286376953 26.73618698120117 C 81.92946624755859 31.72793769836426 83 37.03165054321289 83 42.5 C 83 47.96834945678711 81.92946624755859 53.27206420898438 79.81812286376953 58.26381301879883 C 77.77839660644531 63.08628845214844 74.85792541503906 67.417724609375 71.13782501220703 71.13782501220703 C 67.417724609375 74.85792541503906 63.08628845214844 77.77839660644531 58.26381301879883 79.81812286376953 C 53.27206420898438 81.92946624755859 47.96834945678711 83 42.5 83 Z" stroke="none"/>
        <path d="M 42.5 4 C 37.3007698059082 4 32.25918579101562 5.017387390136719 27.51528549194336 7.023887634277344 C 22.93121337890625 8.962783813476562 18.81345367431641 11.73932647705078 15.27638244628906 15.27638244628906 C 11.73932647705078 18.81345367431641 8.962783813476562 22.93121337890625 7.023887634277344 27.51528549194336 C 5.017387390136719 32.25918579101562 4 37.3007698059082 4 42.5 C 4 47.6992301940918 5.017387390136719 52.74081420898438 7.023887634277344 57.48471450805664 C 8.962783813476562 62.06878662109375 11.73932647705078 66.18653869628906 15.27638244628906 69.72361755371094 C 18.81345367431641 73.26067352294922 22.93121337890625 76.03721618652344 27.51528549194336 77.97611236572266 C 32.25918579101562 79.98261260986328 37.3007698059082 81 42.5 81 C 47.6992301940918 81 52.74081420898438 79.98261260986328 57.48471450805664 77.97611236572266 C 62.06878662109375 76.03721618652344 66.18653869628906 73.26067352294922 69.72361755371094 69.72361755371094 C 73.26067352294922 66.18653869628906 76.03721618652344 62.06878662109375 77.97611236572266 57.48471450805664 C 79.98261260986328 52.74081420898438 81 47.6992301940918 81 42.5 C 81 37.3007698059082 79.98261260986328 32.25918579101562 77.97611236572266 27.51528549194336 C 76.03721618652344 22.93121337890625 73.26067352294922 18.81345367431641 69.72361755371094 15.27638244628906 C 66.18653869628906 11.73932647705078 62.06878662109375 8.962783813476562 57.48471450805664 7.023887634277344 C 52.74081420898438 5.017387390136719 47.6992301940918 4 42.5 4 M 42.5 0 C 65.97209930419922 0 85 19.02790069580078 85 42.5 C 85 65.97209930419922 65.97209930419922 85 42.5 85 C 19.02790069580078 85 0 65.97209930419922 0 42.5 C 0 19.02790069580078 19.02790069580078 0 42.5 0 Z" stroke="none"/>
      </g>
      <g transform="matrix(1, 0, 0, 1, 194.05, 3268)" filter="url(#Path_873828-2)">
        <g id="Path_873828-5" data-name="Path 873828" transform="translate(9 6)" fill="#fff">
          <path d="M 42.5 83 C 37.03165054321289 83 31.72793769836426 81.92946624755859 26.73618698120117 79.81812286376953 C 21.91371154785156 77.77839660644531 17.582275390625 74.85792541503906 13.86217498779297 71.13782501220703 C 10.14207458496094 67.417724609375 7.22160005569458 63.08628845214844 5.181875228881836 58.26381301879883 C 3.070537567138672 53.27206420898438 2 47.96834945678711 2 42.5 C 2 37.03165054321289 3.070537567138672 31.72793769836426 5.181875228881836 26.73618698120117 C 7.22160005569458 21.91371154785156 10.14207458496094 17.582275390625 13.86217498779297 13.86217498779297 C 17.582275390625 10.14207458496094 21.91371154785156 7.22160005569458 26.73618698120117 5.181875228881836 C 31.72793769836426 3.070537567138672 37.03165054321289 2 42.5 2 C 47.96834945678711 2 53.27206420898438 3.070537567138672 58.26381301879883 5.181875228881836 C 63.08628845214844 7.22160005569458 67.417724609375 10.14207458496094 71.13782501220703 13.86217498779297 C 74.85792541503906 17.582275390625 77.77839660644531 21.91371154785156 79.81812286376953 26.73618698120117 C 81.92946624755859 31.72793769836426 83 37.03165054321289 83 42.5 C 83 47.96834945678711 81.92946624755859 53.27206420898438 79.81812286376953 58.26381301879883 C 77.77839660644531 63.08628845214844 74.85792541503906 67.417724609375 71.13782501220703 71.13782501220703 C 67.417724609375 74.85792541503906 63.08628845214844 77.77839660644531 58.26381301879883 79.81812286376953 C 53.27206420898438 81.92946624755859 47.96834945678711 83 42.5 83 Z" stroke="none"/>
          <path d="M 42.5 4 C 37.3007698059082 4 32.25918579101562 5.017387390136719 27.51528549194336 7.023887634277344 C 22.93121337890625 8.962783813476562 18.81345367431641 11.73932647705078 15.27638244628906 15.27638244628906 C 11.73932647705078 18.81345367431641 8.962783813476562 22.93121337890625 7.023887634277344 27.51528549194336 C 5.017387390136719 32.25918579101562 4 37.3007698059082 4 42.5 C 4 47.6992301940918 5.017387390136719 52.74081420898438 7.023887634277344 57.48471450805664 C 8.962783813476562 62.06878662109375 11.73932647705078 66.18653869628906 15.27638244628906 69.72361755371094 C 18.81345367431641 73.26067352294922 22.93121337890625 76.03721618652344 27.51528549194336 77.97611236572266 C 32.25918579101562 79.98261260986328 37.3007698059082 81 42.5 81 C 47.6992301940918 81 52.74081420898438 79.98261260986328 57.48471450805664 77.97611236572266 C 62.06878662109375 76.03721618652344 66.18653869628906 73.26067352294922 69.72361755371094 69.72361755371094 C 73.26067352294922 66.18653869628906 76.03721618652344 62.06878662109375 77.97611236572266 57.48471450805664 C 79.98261260986328 52.74081420898438 81 47.6992301940918 81 42.5 C 81 37.3007698059082 79.98261260986328 32.25918579101562 77.97611236572266 27.51528549194336 C 76.03721618652344 22.93121337890625 73.26067352294922 18.81345367431641 69.72361755371094 15.27638244628906 C 66.18653869628906 11.73932647705078 62.06878662109375 8.962783813476562 57.48471450805664 7.023887634277344 C 52.74081420898438 5.017387390136719 47.6992301940918 4 42.5 4 M 42.5 0 C 65.97209930419922 0 85 19.02790069580078 85 42.5 C 85 65.97209930419922 65.97209930419922 85 42.5 85 C 19.02790069580078 85 0 65.97209930419922 0 42.5 C 0 19.02790069580078 19.02790069580078 0 42.5 0 Z" stroke="none"/>
        </g>
      </g>
      <g id="Path_873828-6" data-name="Path 873828" transform="translate(203.051 3274)" fill="none">
        <path d="M 42.5 83 C 37.03165054321289 83 31.72793769836426 81.92946624755859 26.73618698120117 79.81812286376953 C 21.91371154785156 77.77839660644531 17.582275390625 74.85792541503906 13.86217498779297 71.13782501220703 C 10.14207458496094 67.417724609375 7.22160005569458 63.08628845214844 5.181875228881836 58.26381301879883 C 3.070537567138672 53.27206420898438 2 47.96834945678711 2 42.5 C 2 37.03165054321289 3.070537567138672 31.72793769836426 5.181875228881836 26.73618698120117 C 7.22160005569458 21.91371154785156 10.14207458496094 17.582275390625 13.86217498779297 13.86217498779297 C 17.582275390625 10.14207458496094 21.91371154785156 7.22160005569458 26.73618698120117 5.181875228881836 C 31.72793769836426 3.070537567138672 37.03165054321289 2 42.5 2 C 47.96834945678711 2 53.27206420898438 3.070537567138672 58.26381301879883 5.181875228881836 C 63.08628845214844 7.22160005569458 67.417724609375 10.14207458496094 71.13782501220703 13.86217498779297 C 74.85792541503906 17.582275390625 77.77839660644531 21.91371154785156 79.81812286376953 26.73618698120117 C 81.92946624755859 31.72793769836426 83 37.03165054321289 83 42.5 C 83 47.96834945678711 81.92946624755859 53.27206420898438 79.81812286376953 58.26381301879883 C 77.77839660644531 63.08628845214844 74.85792541503906 67.417724609375 71.13782501220703 71.13782501220703 C 67.417724609375 74.85792541503906 63.08628845214844 77.77839660644531 58.26381301879883 79.81812286376953 C 53.27206420898438 81.92946624755859 47.96834945678711 83 42.5 83 Z" stroke="none"/>
        <path d="M 42.5 4 C 37.3007698059082 4 32.25918579101562 5.017387390136719 27.51528549194336 7.023887634277344 C 22.93121337890625 8.962783813476562 18.81345367431641 11.73932647705078 15.27638244628906 15.27638244628906 C 11.73932647705078 18.81345367431641 8.962783813476562 22.93121337890625 7.023887634277344 27.51528549194336 C 5.017387390136719 32.25918579101562 4 37.3007698059082 4 42.5 C 4 47.6992301940918 5.017387390136719 52.74081420898438 7.023887634277344 57.48471450805664 C 8.962783813476562 62.06878662109375 11.73932647705078 66.18653869628906 15.27638244628906 69.72361755371094 C 18.81345367431641 73.26067352294922 22.93121337890625 76.03721618652344 27.51528549194336 77.97611236572266 C 32.25918579101562 79.98261260986328 37.3007698059082 81 42.5 81 C 47.6992301940918 81 52.74081420898438 79.98261260986328 57.48471450805664 77.97611236572266 C 62.06878662109375 76.03721618652344 66.18653869628906 73.26067352294922 69.72361755371094 69.72361755371094 C 73.26067352294922 66.18653869628906 76.03721618652344 62.06878662109375 77.97611236572266 57.48471450805664 C 79.98261260986328 52.74081420898438 81 47.6992301940918 81 42.5 C 81 37.3007698059082 79.98261260986328 32.25918579101562 77.97611236572266 27.51528549194336 C 76.03721618652344 22.93121337890625 73.26067352294922 18.81345367431641 69.72361755371094 15.27638244628906 C 66.18653869628906 11.73932647705078 62.06878662109375 8.962783813476562 57.48471450805664 7.023887634277344 C 52.74081420898438 5.017387390136719 47.6992301940918 4 42.5 4 M 42.5 0 C 65.97209930419922 0 85 19.02790069580078 85 42.5 C 85 65.97209930419922 65.97209930419922 85 42.5 85 C 19.02790069580078 85 0 65.97209930419922 0 42.5 C 0 19.02790069580078 19.02790069580078 0 42.5 0 Z" stroke="none" fill="#fff"/>
      </g>
    </g>
    <g id="Group_1113467" data-name="Group 1113467" transform="translate(189.121 3289)">
      <g id="Group_1113465" data-name="Group 1113465" transform="translate(33.724 0.794)">
        <g id="Group_1113464" data-name="Group 1113464">
          <g id="Group_1113460" data-name="Group 1113460" transform="translate(11.986 19.531)">
            <path id="Path_907179" data-name="Path 907179" d="M296.274,433.89a4.171,4.171,0,0,1-6.763,3.268c-.963-.764-1.123-2.4-1.123-3.719,0-2.3,1.157-3.246,3.461-3.246,1.177,0,2.5.014,3.253.8A4.148,4.148,0,0,1,296.274,433.89Z" transform="translate(-274.119 -404.966)" fill="#ffe177"/>
            <path id="Path_907180" data-name="Path 907180" d="M291.25,426.994a12.042,12.042,0,0,1-5.591,6.165,4.17,4.17,0,1,1,5.591-6.165Z" transform="translate(-270.267 -400.967)" fill="#ffd15b"/>
            <path id="Path_907181" data-name="Path 907181" d="M167.107,276.5c0,2.3-1.159,3.847-3.462,3.847a4.364,4.364,0,0,1-4.349-2.882,4.067,4.067,0,1,1,7.811-.965Z" transform="translate(-158.574 -263.738)" fill="#ffd15b"/>
            <path id="Path_907182" data-name="Path 907182" d="M167.423,283.77a4.171,4.171,0,1,1-6.983,4.008A11.991,11.991,0,0,1,167.423,283.77Z" transform="translate(-159.719 -274.047)" fill="#ffc344"/>
            <path id="Path_907183" data-name="Path 907183" d="M232.659,201.833c0,1.209.238,2.3-.584,3.06a4.171,4.171,0,0,1-6.471-5.1c.715-1.27,2.075-1.451,3.636-1.451C231.545,198.339,232.659,199.53,232.659,201.833Z" transform="translate(-217.505 -197.662)" fill="#ffd15b"/>
            <path id="Path_907184" data-name="Path 907184" d="M237.925,195.97a4.161,4.161,0,0,1-1.334,3.211l-.859-1.913a.6.6,0,0,0-.551-.356h-1.907a2.647,2.647,0,0,1-2.3-1.335l-.856-1.5a4.171,4.171,0,0,1,7.8,1.893Z" transform="translate(-222.021 -191.95)" fill="#ffc344"/>
            <g id="Group_1113459" data-name="Group 1113459" transform="translate(0 11.493)">
              <path id="Path_907185" data-name="Path 907185" d="M172.982,310.541c0,5.564-3.79,8.914-9.336,8.914-2.511,0-4.806.236-6.567-1.291,0-.578-.4-.814-1.033-1.036a10.047,10.047,0,0,1-2.417-5.854c-.017-.242.366-.486.366-.732s-.384-.49-.366-.732a10.046,10.046,0,0,1,2.4-5.833c.647-.148.948-.377,1.031-1.04a9.986,9.986,0,0,1,5.854-2.442c.242-.017.486.44.732.44s.49-.458.732-.44a9.986,9.986,0,0,1,5.854,2.442c.081.8.509,1.04,1.031,1.04C172.775,305.739,172.982,308.033,172.982,310.541Z" transform="translate(-153.628 -300.493)" fill="#ffd15b"/>
              <path id="Path_907186" data-name="Path 907186" d="M200.4,333.379a13.9,13.9,0,0,1,.534,3.4,11.1,11.1,0,0,1-2.865,7.439,10.175,10.175,0,0,1-1.034,1.036,11.371,11.371,0,0,1-10.819,2.316,10.031,10.031,0,0,0,5.836,2.424c.242.018.486-.456.732-.456s.491.474.733.457a9.985,9.985,0,0,0,5.834-2.425c.161-.14.068-.665.22-.815.2-.193.634-.014.813-.222a10.048,10.048,0,0,0,2.417-5.854c.017-.242-.391-.486-.391-.732s.408-.487.391-.732a9.645,9.645,0,0,0-2.4-5.833Z" transform="translate(-182.764 -329.897)" fill="#ffc344"/>
              <ellipse id="Ellipse_12927" data-name="Ellipse 12927" cx="6.787" cy="6.808" rx="6.787" ry="6.808" transform="translate(3.231 3.24)" fill="#ffe177"/>
            </g>
          </g>
          <g id="Group_1113463" data-name="Group 1113463">
            <path id="Path_907187" data-name="Path 907187" d="M83.542,10.671v27.9a2.747,2.747,0,0,1-2.747,2.748l-3.111.424H76.189a.53.53,0,0,1-.505-.371l-.918-2.916.073-.778-.573-.81L73.7,35.077a.527.527,0,0,0-.505-.371h-3.35a.53.53,0,0,1-.483-.313l-1.887-4.206A.53.53,0,0,0,67,29.875H63.67a.528.528,0,0,1-.46-.267l-2.948-5.169a.529.529,0,0,0-.945.049l-2.8,6.358a.529.529,0,0,1-.485.317H53.068a.529.529,0,0,0-.5.362l-1.78,5.34-.739.84.209.749-.974,2.925a.529.529,0,0,1-.5.362h-5.6a2.748,2.748,0,0,1-2.748-2.748v-.539l.318-.794-.318-.794V12.375l.318-.794-.318-.794v-.539A2.748,2.748,0,0,1,43.178,7.5H77.683l3.111.424a2.747,2.747,0,0,1,2.747,2.748Z" transform="translate(-40.43 -7.5)" fill="#c38f86"/>
            <g id="Group_1113461" data-name="Group 1113461" transform="translate(36.83)">
              <path id="Path_907188" data-name="Path 907188" d="M392.213,7.5h-3.959a2.756,2.756,0,0,1,2.765,2.748V38.992a2.756,2.756,0,0,1-2.765,2.748h3.959a2.747,2.747,0,0,0,2.747-2.748V10.248A2.747,2.747,0,0,0,392.213,7.5Z" transform="translate(-388.254 -7.5)" fill="#b87d72"/>
            </g>
            <g id="Group_1113462" data-name="Group 1113462" transform="translate(30.819 12.171)">
              <path id="Path_907189" data-name="Path 907189" d="M336.439,122.444a4.949,4.949,0,0,0,0,9.9h4.145l1.367-.661.653-4.288L342,123.221l-1.415-.776h-4.145Z" transform="translate(-331.49 -122.444)" fill="#b87d72"/>
              <path id="Path_907190" data-name="Path 907190" d="M419.723,122.444H414.37a.847.847,0,0,1,.847.847v8.2a.847.847,0,0,1-.847.847h5.353a.7.7,0,0,0,.7-.7v-8.491A.7.7,0,0,0,419.723,122.444Z" transform="translate(-405.594 -122.444)" fill="#ab695d"/>
              <circle id="Ellipse_12928" data-name="Ellipse 12928" cx="2.181" cy="2.181" r="2.181" transform="translate(2.745 2.767)" fill="#f5f8f9"/>
            </g>
          </g>
        </g>
      </g>
      <g id="Group_1113466" data-name="Group 1113466" transform="translate(32.93 0)">
        <path id="Path_907191" data-name="Path 907191" d="M167.86,281.561A10.77,10.77,0,0,0,157.576,267.7c-.237,0-.472.009-.7.024a4.965,4.965,0,1,0-8.426,5.085,10.722,10.722,0,0,0-1.605,5.657,10.861,10.861,0,0,0,.216,2.158.794.794,0,0,0,1.556-.316,9.162,9.162,0,0,1-.148-1.048h1.641a7.508,7.508,0,0,0,1.631,3.938l-1.166,1.17a9.306,9.306,0,0,1-.661-.895.794.794,0,0,0-1.332.866,10.717,10.717,0,0,0,12.738,4.219,4.965,4.965,0,0,0,9.191-2.607,5,5,0,0,0-2.647-4.391Zm-9.49,6.049v-1.652a7.466,7.466,0,0,0,3.923-1.634l1.163,1.167A9.093,9.093,0,0,1,158.37,287.61Zm-1.588-1.652v1.652a9.092,9.092,0,0,1-5.091-2.115l1.167-1.171A7.467,7.467,0,0,0,156.782,285.958Zm7.8-1.592-1.163-1.167a7.508,7.508,0,0,0,1.631-3.938h1.643A9.154,9.154,0,0,1,164.578,284.366Zm-14.473-6.693h-1.643a9.152,9.152,0,0,1,2.111-5.1l1.163,1.167A7.507,7.507,0,0,0,150.106,277.673Zm2.753-5.063-1.163-1.167a9.092,9.092,0,0,1,5.087-2.119v1.652A7.467,7.467,0,0,0,152.859,272.61Zm5.512-3.285a9.093,9.093,0,0,1,5.086,2.118l-1.163,1.167a7.466,7.466,0,0,0-3.924-1.634v-1.652Zm6.208,3.243a9.151,9.151,0,0,1,2.112,5.1h-1.643a7.508,7.508,0,0,0-1.631-3.938Zm-15.64-2.868a3.376,3.376,0,0,1,6.272-1.735,10.743,10.743,0,0,0-5.778,3.495A3.354,3.354,0,0,1,148.938,269.7Zm8.638,2.822a5.945,5.945,0,1,1-5.924,5.945A5.941,5.941,0,0,1,157.576,272.522Zm7.966,16.807a3.351,3.351,0,0,1-2.769-1.444,10.827,10.827,0,0,0,4.511-4.823,3.375,3.375,0,0,1-1.742,6.267Z" transform="translate(-134.778 -236.703)"/>
        <path id="Path_907192" data-name="Path 907192" d="M226.825,358.063a2.84,2.84,0,0,0,1.152.483v.276a.794.794,0,1,0,1.588,0v-.385a2.35,2.35,0,0,0,1.479-1.808,2.113,2.113,0,0,0-1.43-2.394c-.135-.048-.264-.091-.388-.133a2.37,2.37,0,0,1-.859-.39.537.537,0,0,1-.129-.5.421.421,0,0,1,.3-.294.74.74,0,0,1,.717.131.794.794,0,1,0,1-1.234,2.353,2.353,0,0,0-.69-.388v-.366a.794.794,0,0,0-1.588,0v.371a2.017,2.017,0,0,0-1.264,1.338,2.125,2.125,0,0,0,.454,1.984,3.269,3.269,0,0,0,1.555.857c.115.039.236.079.362.124a.529.529,0,0,1,.395.633.749.749,0,0,1-.747.638,1.4,1.4,0,0,1-1.034-.268.794.794,0,0,0-.871,1.328Z" transform="translate(-205.974 -313.177)"/>
        <path id="Path_907193" data-name="Path 907193" d="M33.724,9.587a.794.794,0,0,0,.794-.794V5.67H36.87a.794.794,0,0,0,0-1.588H34.518V3.542a1.956,1.956,0,0,1,1.954-1.954H62.651a.794.794,0,0,0,0-1.588H36.472A3.546,3.546,0,0,0,32.93,3.542V8.793A.794.794,0,0,0,33.724,9.587Z" transform="translate(-32.93 0)"/>
        <path id="Path_907194" data-name="Path 907194" d="M79.376,17.748a.794.794,0,0,0,.794-.794V13.668a1.5,1.5,0,0,0-1.5-1.5h-.619V3.542A3.545,3.545,0,0,0,74.513,0H66.357a.794.794,0,1,0,0,1.588h8.155a1.955,1.955,0,0,1,1.953,1.954v.539H74.114a.794.794,0,0,0,0,1.588h2.352v6.5H69.493a5.743,5.743,0,1,0,0,11.487h6.973v6.5H74.114a.794.794,0,0,0,0,1.588h2.352v.539a1.955,1.955,0,0,1-1.953,1.954H69.677l-.785-2.493h1.439a.794.794,0,0,0,0-1.588H68.393l-.754-2.4a.794.794,0,0,0-.758-.556H63.315l-1.957-4.363a.794.794,0,0,0-.725-.469H57.117l-3.392-5.949a.794.794,0,0,0-1.417.074l-3.15,7.163H45.981a.794.794,0,0,0-.753.543l-1.984,5.953H40.653a.794.794,0,0,0,0,1.588h2.061l-.831,2.493H36.472a1.956,1.956,0,0,1-1.954-1.954v-.539H36.87a.794.794,0,0,0,0-1.588H34.518V12.5a.794.794,0,1,0-1.588,0V32.286a3.546,3.546,0,0,0,3.542,3.542h5.984a.794.794,0,0,0,.753-.543l3.344-10.034h3.124a.794.794,0,0,0,.727-.474l2.724-6.193,1.179,2.068a4.966,4.966,0,1,0,7.282,6.588l.487,1.087a.794.794,0,0,0,.725.469h3.5l2.038,6.477a.794.794,0,0,0,.758.556h5.418a3.545,3.545,0,0,0,3.541-3.542V23.657h.619a1.5,1.5,0,0,0,1.5-1.5v-1.5a.794.794,0,1,0-1.588,0v1.409H69.493a4.155,4.155,0,1,1,0-8.31h9.089v3.195a.794.794,0,0,0,.794.794ZM57.446,27.873a3.377,3.377,0,0,1-2.337-5.814l.857,1.5a.794.794,0,0,0,.69.4h3.463l.6,1.348a3.367,3.367,0,0,1-3.278,2.562Z" transform="translate(-32.93 0)"/>
        <path id="Path_907195" data-name="Path 907195" d="M349.913,144.055a2.976,2.976,0,1,0,2.975-2.976A2.979,2.979,0,0,0,349.913,144.055Zm4.363,0a1.387,1.387,0,1,1-1.387-1.387A1.389,1.389,0,0,1,354.276,144.055Z" transform="translate(-316.349 -126.141)"/>
        <path id="Path_907196" data-name="Path 907196" d="M354.874,40.133a.794.794,0,1,0,0-1.588h-2.91a.794.794,0,1,0,0,1.588Z" transform="translate(-317.473 -34.464)"/>
        <path id="Path_907197" data-name="Path 907197" d="M287.968,39.339a.794.794,0,0,0,.794.794h2.91a.794.794,0,1,0,0-1.588h-2.91A.794.794,0,0,0,287.968,39.339Z" transform="translate(-260.963 -34.464)"/>
        <path id="Path_907198" data-name="Path 907198" d="M225.561,38.545a.794.794,0,0,0,0,1.588h2.91a.794.794,0,0,0,0-1.588Z" transform="translate(-204.454 -34.464)"/>
        <path id="Path_907199" data-name="Path 907199" d="M99.156,38.545a.794.794,0,0,0,0,1.588h2.91a.794.794,0,1,0,0-1.588Z" transform="translate(-91.434 -34.464)"/>
        <path id="Path_907200" data-name="Path 907200" d="M162.358,38.545a.794.794,0,0,0,0,1.588h2.91a.794.794,0,0,0,0-1.588Z" transform="translate(-147.943 -34.464)"/>
      </g>
    </g>
  </g>
</svg>
