<svg xmlns="http://www.w3.org/2000/svg" xmlns:xlink="http://www.w3.org/1999/xlink" width="400" height="497" viewBox="0 0 400 497">
  <defs>
    <clipPath id="clip-path">
      <rect id="Rectángulo_406292" data-name="Rectángulo 406292" width="400" height="497" rx="8" transform="translate(180 3574)" fill="#3e7dad"/>
    </clipPath>
    <clipPath id="clip-path-2">
      <rect id="Rectángulo_406284" data-name="Rectángulo 406284" width="714.172" height="414.869" fill="none"/>
    </clipPath>
    <clipPath id="clip-path-3">
      <rect id="Rectángulo_406285" data-name="Rectángulo 406285" width="132.603" height="286.792" fill="none"/>
    </clipPath>
    <clipPath id="clip-path-4">
      <rect id="Rectángulo_406283" data-name="Rectángulo 406283" width="380.949" height="430.058" fill="none"/>
    </clipPath>
    <clipPath id="clip-path-5">
      <rect id="Rectángulo_406290" data-name="Rectángulo 406290" width="70.551" height="136.169" fill="none"/>
    </clipPath>
    <clipPath id="clip-path-6">
      <rect id="Rectángulo_406291" data-name="Rectángulo 406291" width="120.766" height="96.186" fill="none"/>
    </clipPath>
  </defs>
  <g id="Enmascarar_grupo_1098752" data-name="Enmascarar grupo 1098752" transform="translate(-180 -3574)" clip-path="url(#clip-path)">
    <g id="Grupo_1113228" data-name="Grupo 1113228">
      <rect id="Rectángulo_405481" data-name="Rectángulo 405481" width="400" height="497" rx="8" transform="translate(180 3574)" fill="#fed6a8"/>
      <g id="Grupo_1113221" data-name="Grupo 1113221" transform="translate(-254.223 3598.789)">
        <g id="Grupo_1113220" data-name="Grupo 1113220" clip-path="url(#clip-path-2)">
          <path id="Trazado_906315" data-name="Trazado 906315" d="M714.172,326.339c0,13.252-159.873,23.995-357.085,23.995S0,339.591,0,326.339s159.873-23.995,357.087-23.995,357.085,10.743,357.085,23.995" transform="translate(0 64.535)" fill="#e9cec2"/>
          <path id="Trazado_906316" data-name="Trazado 906316" d="M632.8,21.762V334.469a21.762,21.762,0,0,1-21.762,21.762H80.052A21.761,21.761,0,0,1,58.29,334.469V21.762A21.762,21.762,0,0,1,80.052,0H611.039A21.761,21.761,0,0,1,632.8,21.762" transform="translate(12.442)" fill="#1b3431"/>
          <path id="Trazado_906317" data-name="Trazado 906317" d="M602.791,33.723V294.544c0,7.675-6.639,13.9-14.832,13.9H94.16a15.25,15.25,0,0,1-11.035-4.612,13.345,13.345,0,0,1-3.8-9.287V33.723c0-7.674,6.645-13.9,14.838-13.9h493.8a15.47,15.47,0,0,1,7.505,1.911,13.748,13.748,0,0,1,7.327,11.986" transform="translate(16.931 4.232)" fill="#efe3df"/>
          <path id="Trazado_906318" data-name="Trazado 906318" d="M695.907,283.36v1.982a45.082,45.082,0,0,1-45.087,45.087H59.151a45.085,45.085,0,0,1-45.087-45.087V283.36Z" transform="translate(3.002 60.483)" fill="#414f50"/>
          <path id="Trazado_906319" data-name="Trazado 906319" d="M301.458,303.9a6.517,6.517,0,1,1-6.517-6.517,6.518,6.518,0,0,1,6.517,6.517" transform="translate(61.564 63.476)" fill="#1b3431"/>
          <path id="Trazado_906320" data-name="Trazado 906320" d="M282.486,303.9a6.517,6.517,0,1,1-6.517-6.517,6.518,6.518,0,0,1,6.517,6.517" transform="translate(57.514 63.476)" fill="#1b3431"/>
          <path id="Trazado_906321" data-name="Trazado 906321" d="M320.43,303.9a6.517,6.517,0,1,1-6.517-6.517,6.518,6.518,0,0,1,6.517,6.517" transform="translate(65.613 63.476)" fill="#1b3431"/>
          <path id="Trazado_906322" data-name="Trazado 906322" d="M508.795,303.9a6.517,6.517,0,1,1-6.517-6.517,6.518,6.518,0,0,1,6.517,6.517" transform="translate(105.82 63.476)" fill="#d76751"/>
          <path id="Trazado_906323" data-name="Trazado 906323" d="M527.767,303.9a6.517,6.517,0,1,1-6.517-6.517,6.517,6.517,0,0,1,6.517,6.517" transform="translate(109.869 63.476)" fill="#f5bf69"/>
          <path id="Trazado_906324" data-name="Trazado 906324" d="M232.039,283.36v.453c0,3.571,2.391,6.464,5.339,6.464h139.2c2.949,0,5.339-2.893,5.339-6.464v-.453Z" transform="translate(49.529 60.483)" fill="#647a7a"/>
          <path id="Trazado_906325" data-name="Trazado 906325" d="M602.791,34.662V51.09H79.322V34.662A14.851,14.851,0,0,1,94.16,19.825h493.8a14.851,14.851,0,0,1,14.832,14.837" transform="translate(16.931 4.232)" fill="#fff"/>
          <path id="Trazado_906326" data-name="Trazado 906326" d="M477.368,34.058a3.926,3.926,0,1,1-3.925-3.926,3.925,3.925,0,0,1,3.925,3.926" transform="translate(100.218 6.432)" fill="#468280"/>
          <path id="Trazado_906327" data-name="Trazado 906327" d="M487.852,34.058a3.926,3.926,0,1,1-3.926-3.926,3.926,3.926,0,0,1,3.926,3.926" transform="translate(102.456 6.432)" fill="#78b1de"/>
          <path id="Trazado_906328" data-name="Trazado 906328" d="M497.829,34.058a3.925,3.925,0,1,1-3.925-3.926,3.925,3.925,0,0,1,3.925,3.926" transform="translate(104.586 6.432)" fill="#e2534d"/>
          <path id="Trazado_906329" data-name="Trazado 906329" d="M524.037,38.251H125.314a3.984,3.984,0,0,1-3.972-3.973v-.36a3.984,3.984,0,0,1,3.972-3.973H524.037a3.984,3.984,0,0,1,3.973,3.973v.362a3.984,3.984,0,0,1-3.973,3.972" transform="translate(25.9 6.392)" fill="#e9cec2"/>
          <path id="Trazado_906330" data-name="Trazado 906330" d="M101.186,34.167v3.844a.705.705,0,0,1-1.058.61L96.8,36.7l-3.328-1.922a.7.7,0,0,1,0-1.221L96.8,31.635l3.328-1.922a.705.705,0,0,1,1.058.61Z" transform="translate(19.876 6.322)" fill="#1b3431"/>
          <path id="Trazado_906331" data-name="Trazado 906331" d="M104.587,34.167v3.844a.7.7,0,0,0,1.057.61l3.33-1.922,3.328-1.922a.7.7,0,0,0,0-1.221l-3.328-1.922-3.33-1.922a.7.7,0,0,0-1.057.61Z" transform="translate(22.324 6.322)" fill="#1b3431"/>
        </g>
      </g>
      <g id="Grupo_1113223" data-name="Grupo 1113223" transform="translate(421.953 3670.505)">
        <g id="Grupo_1113222" data-name="Grupo 1113222" clip-path="url(#clip-path-3)">
          <path id="Trazado_906332" data-name="Trazado 906332" d="M132.6,233.5c0,4.557-29.686,8.251-66.3,8.251S0,238.056,0,233.5s29.685-8.251,66.3-8.251,66.3,3.694,66.3,8.251" transform="translate(0 45.042)" fill="#e9cec2"/>
          <path id="Trazado_906333" data-name="Trazado 906333" d="M52.937,131.546S39.148,134.6,41.2,124.981s1.9-13.167-3.707-17.539-11.243-6.533-6.95-13.456-3.852-12.306-8.059-16.032.541-6.537,1.656-13.581-6.464-5.987-7.058-14.86,8.418-19.243.668-31.456c0,0,10.41,5.4,13.828,14.881s.659,16.808,6.807,20.411,10,9.839,7.911,16.237.877,9.791,5.918,14.457,3.7,6.521,3.072,12.226.632,4.356,6.4,12.151,5.918,20.569-8.753,23.126" transform="translate(3.41 3.611)" fill="#285b5c"/>
          <path id="Trazado_906334" data-name="Trazado 906334" d="M53.208,126.409a.605.605,0,0,1-.07-.149L25.549,42.521a.687.687,0,0,1,.436-.866l.013,0a.688.688,0,0,1,.856.442l27.588,83.736a.641.641,0,0,1,.035.205Z" transform="translate(5.102 8.323)" fill="#18363e"/>
          <path id="Trazado_906335" data-name="Trazado 906335" d="M69.744,131.3s13.714,3.038,11.677-6.53-1.889-13.1,3.686-17.446,11.184-6.5,6.914-13.384,3.831-12.24,8.017-15.946-.54-6.5-1.648-13.509,6.429-5.955,7.021-14.781-8.375-19.142-.665-31.289c0,0-10.355,5.369-13.756,14.8s-.655,16.718-6.771,20.3-9.947,9.786-7.868,16.15-.875,9.739-5.889,14.38-3.679,6.486-3.055,12.162-.629,4.333-6.369,12.086-5.887,20.461,8.707,23" transform="translate(11.481 3.682)" fill="#285b5c"/>
          <path id="Trazado_906336" data-name="Trazado 906336" d="M65.01,125.819a.706.706,0,0,1,.035-.2L92.487,42.321a.685.685,0,0,1,.851-.439l.013,0a.682.682,0,0,1,.433.862L66.342,126.043a.617.617,0,0,1-.07.148Z" transform="translate(13 8.369)" fill="#18363e"/>
          <path id="Trazado_906337" data-name="Trazado 906337" d="M57.626,133.241s-15.782-1.307-10.393-10.931,6.405-13.472,1.855-20.017-9.872-10.73-2.977-16.72S46.073,71.115,42.8,65.726s2.752-6.822,6.284-14-4.934-8.558-2.626-18.26S61.871,15.655,57.626,0c0,0,9.356,9.239,9.87,20.53s-4.875,18.222.514,24.124,7.442,13.858,3.079,20.017S68.78,75.45,72.629,82.122s1.8,8.213-.77,14.115-.77,4.875,2.822,15.141-.492,24-17.055,21.862" transform="translate(8.371)" fill="#5a918e"/>
          <path id="Trazado_906338" data-name="Trazado 906338" d="M57.164,127.834a.7.7,0,0,1-.025-.182L55.4,28.8a.77.77,0,0,1,.754-.784h.016a.772.772,0,0,1,.77.757l1.74,98.851a.78.78,0,0,1-.031.23Z" transform="translate(11.078 5.602)" fill="#285b5c"/>
          <path id="Trazado_906339" data-name="Trazado 906339" d="M107.176,108.969,106.034,112l-.721,1.921-2.072,5.5-.724,1.92-2.129,5.648-.721,1.918L90.54,153.14H40.68L31.553,128.9l-.721-1.918L28.7,121.339l-.725-1.92-2.071-5.5L25.187,112l-1.144-3.03a3.174,3.174,0,0,1,2.971-4.295h77.19a3.176,3.176,0,0,1,2.971,4.295" transform="translate(4.766 20.931)" fill="#f5bf69"/>
          <path id="Trazado_906340" data-name="Trazado 906340" d="M105.807,110.779l-.721,1.92h-79.4l-.721-1.92Z" transform="translate(4.991 22.152)" fill="#ed9033"/>
          <path id="Trazado_906341" data-name="Trazado 906341" d="M102.549,116.962l-.725,1.92H28.012l-.724-1.92Z" transform="translate(5.457 23.389)" fill="#ed9033"/>
          <path id="Trazado_906342" data-name="Trazado 906342" d="M99.221,123.27l-.721,1.918H30.386l-.721-1.918Z" transform="translate(5.932 24.65)" fill="#ed9033"/>
          <path id="Trazado_906343" data-name="Trazado 906343" d="M96.965,134.037h-66.1l-.719-5.384H97.685Z" transform="translate(6.027 25.727)" fill="#1b3431"/>
          <path id="Trazado_906344" data-name="Trazado 906344" d="M106,210.4H24.816l-.883-5.384h82.954Z" transform="translate(4.786 40.996)" fill="#1b3431"/>
          <path id="Trazado_906345" data-name="Trazado 906345" d="M102.311,252.24,83.043,133.14H78.008l19.8,119.1Z" transform="translate(15.599 26.624)" fill="#1b3431"/>
          <path id="Trazado_906346" data-name="Trazado 906346" d="M22.967,252.24l19.8-119.1H37.734L18.467,252.24Z" transform="translate(3.693 26.624)" fill="#1b3431"/>
        </g>
      </g>
      <g id="Grupo_1113219" data-name="Grupo 1113219" transform="translate(199.051 3641)">
        <g id="Grupo_1113218" data-name="Grupo 1113218" clip-path="url(#clip-path-4)">
          <path id="Trazado_906222" data-name="Trazado 906222" d="M141.643,180.263c36.1-1.743,68.424-13.235,89.333-9.267s20.564-50.051-.406-66.135c-15.6-11.966,7.408-35.824,7.222-55.094,1.393-2.769,4.969-22.143-9.684-36.5C212.17-2.338,195.82-2.967,179.37,5.122c-10.805,3.87-21.3,14.36-24.518,40.87-5.55,45.658-23.969,38.682-51.846,76.382-16.294,22.033,2.541,59.635,38.637,57.889" transform="translate(-42.505 0)" fill="#1b3431"/>
          <path id="Trazado_906223" data-name="Trazado 906223" d="M97.618,68.036l5.151,7.218,5.073,7.2q5.05,7.218,10.025,14.5c6.631,9.721,13.168,19.523,19.529,29.621,3.177,5.06,6.31,10.18,9.367,15.546,1.527,2.694,3.035,5.43,4.519,8.368.744,1.462,1.48,3,2.213,4.628a58.822,58.822,0,0,1,2.191,5.565l.067.2.069.224.139.452.268.9.27,1.064c.086.352.18.744.226.979.113.54.222,1.121.328,1.759s.2,1.334.283,2.176a24.473,24.473,0,0,1,.1,3.19l-.029.56-.02.284-.029.324c-.02.222-.04.421-.071.662s-.071.51-.113.764a18.072,18.072,0,0,1-1.289,4.329,17.015,17.015,0,0,1-.771,1.535q-.241.421-.5.829c-.08.128-.188.29-.3.445l-.33.463c-.23.31-.452.594-.713.9-.281.328-.574.649-.879.957-.151.153-.306.3-.463.452s-.348.315-.525.468c-.361.308-.735.6-1.117.882A16.921,16.921,0,0,1,147.751,187c-.443.211-.895.406-1.352.58s-.88.308-1.332.437c-.222.064-.445.122-.669.177s-.448.1-.645.142q-.612.12-1.232.2c-.2.024-.432.051-.6.064l-.543.036q-.544.03-1.088.027c-.328,0-.623-.016-.937-.036l-.463-.035-.436-.046c-.259-.031-.518-.066-.775-.108s-.536-.093-.731-.135c-.213-.044-.428-.093-.642-.144s-.439-.111-.6-.159c-.346-.1-.727-.217-1.035-.324a19.131,19.131,0,0,1-2.8-1.234c-.37-.2-.654-.365-.959-.547l-.4-.25-.374-.241-.348-.235-.312-.219c-.215-.151-.386-.281-.576-.421-.72-.543-1.276-1.015-1.784-1.462-1-.886-1.775-1.657-2.49-2.4-1.411-1.469-2.561-2.8-3.66-4.116-2.175-2.616-4.085-5.126-5.942-7.648-.926-1.258-1.83-2.515-2.723-3.779l-1.332-1.9-1.362-1.992a15.868,15.868,0,0,1,26.111-18.038l.177.255,1.112,1.6,1.181,1.661c.793,1.1,1.593,2.2,2.4,3.279,1.6,2.149,3.239,4.251,4.8,6.092.771.911,1.535,1.768,2.145,2.39.3.3.563.55.653.623.038.033.04.027-.1-.078l-.137-.1-.21-.144-.144-.095-.17-.1c-.146-.089-.275-.162-.483-.277a12.482,12.482,0,0,0-1.812-.789c-.222-.077-.516-.171-.775-.242l-.468-.124q-.254-.063-.509-.115c-.151-.029-.392-.077-.6-.109s-.427-.064-.642-.087l-.368-.04-.394-.031c-.268-.016-.518-.026-.8-.027-.315,0-.634,0-.951.02l-.474.035-.534.057c-.366.044-.735.1-1.1.177l-.578.126c-.2.049-.4.1-.6.159-.41.117-.778.241-1.2.4s-.828.332-1.229.525a15.117,15.117,0,0,0-2.3,1.371c-.348.248-.685.514-1.012.795-.159.139-.326.29-.472.425s-.281.266-.417.4c-.272.273-.534.561-.784.857-.231.273-.428.52-.631.793-.1.135-.2.27-.29.408l-.259.388q-.224.35-.43.711c-.292.527-.461.869-.649,1.294a13.594,13.594,0,0,0-.993,3.281c-.029.164-.053.328-.073.494l-.044.392-.027.337-.015.286a8.279,8.279,0,0,0,.015,1.013c.011.118.011.1-.005.016s-.038-.211-.077-.383c-.024-.122-.026-.082-.026-.082l.005.007c-.016-.047-.033-.093-.046-.14l-.02-.071-.009-.036-.022-.058c-.191-.572-.567-1.524-1.028-2.535s-.981-2.105-1.558-3.235c-1.141-2.247-2.442-4.6-3.788-6.963-2.707-4.732-5.651-9.528-8.669-14.307-6.053-9.564-12.438-19.1-18.931-28.572Q86.471,108,81.5,100.938l-4.983-7.045-4.994-6.967-.108-.149A16.108,16.108,0,0,1,97.6,68.007Z" transform="translate(98.828 50.421)" fill="#f49d8b"/>
          <path id="Trazado_906224" data-name="Trazado 906224" d="M219.925,223.375c.643,4,.614,7.069-.58,8.86-1.719,2.577-15.6,5.268-33.128,6.967-1.094.106-2.206.211-3.323.31-3.7.321-7.521.6-11.4.824-.9.055-1.812.1-2.72.148-29.591,1.5-61.489-.23-63.383-9.358-3.655-17.6,6.812-44.205,4.4-71.638-.972-11.071-10.222-32.875-11.07-46.589C97.425,92.018,97.06,72.453,100,67.506c2.065-3.463,10.989-6.507,20.613-8.864,2.975-.731,6.021-1.4,8.948-1.99,9.987-2.027,18.623-3.192,18.623-3.192s25.683,1.338,43.146,5.791a61.144,61.144,0,0,1,8.536,2.761c.366.155.716.314,1.059.472,1.2.561,2.317,1.088,3.361,1.593,16.627,8.033,14.35,9.551,13.076,19.418-1.876,14.516-3.4,13.64.434,26.264.31,1.023.656,2.133,1.041,3.347.948,2.995,2.127,6.626,3.578,11.117a40.98,40.98,0,0,1,2.054,9.661q.055.779.06,1.5c.093,15.06-15.2,13.827-15.2,32.822,0,11.616,2.652,23.488,5.35,33.894.131.5.259.99.388,1.48,1.562,5.939,3.1,11.356,4.107,15.922.3,1.369.558,2.665.749,3.87" transform="translate(-21.763 43.984)" fill="#5a918e"/>
          <path id="Trazado_906225" data-name="Trazado 906225" d="M156.711,79.25c-.248,5.632-6.044,8.026-10.545,9.035q.383-.861.722-1.753c3.841-1.024,8.128-3.119,8.315-7.349.193-4.329-2.836-6.741-5.6-8.029,0-.54-.02-1.081-.046-1.624,3.3,1.405,7.391,4.258,7.151,9.721" transform="translate(-42.197 57.205)" fill="#285b5c"/>
          <path id="Trazado_906226" data-name="Trazado 906226" d="M149.971,74.789a14.7,14.7,0,0,1-8.88-2.975,6.787,6.787,0,0,1-2.878-4.916c-.58-5.645,5.151-12.121,5.4-12.393a.753.753,0,1,1,1.123,1c-.055.062-5.532,6.256-5.018,11.237a5.265,5.265,0,0,0,2.273,3.853,13.677,13.677,0,0,0,13.789,1.442.754.754,0,0,1,.68,1.345,15.462,15.462,0,0,1-6.483,1.4" transform="translate(-27.768 44.637)" fill="#285b5c"/>
          <path id="Trazado_906227" data-name="Trazado 906227" d="M117.514,78.011a42.2,42.2,0,0,1-5.215-.319.753.753,0,0,1,.206-1.493c.106.015,10.652,1.4,14.753-1.928a3.87,3.87,0,0,0,1.518-2.856c.514-7.18-9.01-12.6-9.1-12.65a.753.753,0,1,1,.735-1.314c.428.239,10.452,5.948,9.874,14.07a5.387,5.387,0,0,1-2.072,3.921c-2.583,2.1-7.121,2.57-10.7,2.57" transform="translate(47.131 47.188)" fill="#285b5c"/>
          <path id="Trazado_906228" data-name="Trazado 906228" d="M160.824,189.2a.65.65,0,0,1-.084-.005.752.752,0,0,1-.665-.831c.036-.328,3.635-32.957,3.957-51.458.321-18.435-8.171-51.7-8.257-52.034a.754.754,0,1,1,1.46-.375c.086.335,8.629,33.8,8.3,52.435-.323,18.57-3.93,51.27-3.966,51.6a.753.753,0,0,1-.747.671" transform="translate(-68.493 69.056)" fill="#285b5c"/>
          <path id="Trazado_906229" data-name="Trazado 906229" d="M169.363,149.713c-14.9,0-28.194-5.727-37.689-11.389a109.39,109.39,0,0,1-22.941-18.3.754.754,0,1,1,1.121-1.008,107.723,107.723,0,0,0,22.628,18.032c12.575,7.49,31.927,15.1,52.719,8.828a.754.754,0,0,1,.436,1.444,56.119,56.119,0,0,1-16.273,2.39" transform="translate(-3.065 97.718)" fill="#285b5c"/>
          <path id="Trazado_906230" data-name="Trazado 906230" d="M146.205,148.182a56.382,56.382,0,0,1-17.168-2.916,73.6,73.6,0,0,1-15.623-7.18.754.754,0,1,1,.822-1.263c.252.162,25.387,16.239,46.431,6.974a.754.754,0,0,1,.607,1.38,37.182,37.182,0,0,1-15.069,3.006" transform="translate(13.125 112.471)" fill="#285b5c"/>
          <path id="Trazado_906231" data-name="Trazado 906231" d="M149.825,90.352a44.148,44.148,0,0,1-21.341-5.917A63.182,63.182,0,0,1,111.9,70.989a.754.754,0,0,1,1.165-.959,62.784,62.784,0,0,0,16.2,13.111c13.131,7.3,26.043,7.672,38.38,1.088a.753.753,0,0,1,.709,1.329,38.887,38.887,0,0,1-18.523,4.794" transform="translate(8.557 57.392)" fill="#285b5c"/>
          <path id="Trazado_906232" data-name="Trazado 906232" d="M151.032,110.56c-1.292-20.88-1.657-40.445,1.285-45.392,2.063-3.463,10.989-6.507,20.612-8.866,21,28.918-.642,68.6-21.9,54.258" transform="translate(-74.075 46.322)" fill="#f49d8b"/>
          <path id="Trazado_906233" data-name="Trazado 906233" d="M114.712,104.967C103.387,92.282,101.406,70.63,101.2,59.285c16.625,8.033,14.351,9.551,13.076,19.418-1.876,14.516-3.4,13.64.434,26.264" transform="translate(81.325 48.777)" fill="#f49d8b"/>
          <path id="Trazado_906234" data-name="Trazado 906234" d="M177.737,60.412c-1.925,10.311-3.607,29.674-19.841,29.674-15.8,0-36.559-25.655-41.929-32.274a133.776,133.776,0,0,0,19.5-5.764s24.8,3.91,42.266,8.363" transform="translate(-8.169 42.823)" fill="#f49d8b"/>
          <path id="Trazado_906235" data-name="Trazado 906235" d="M104,76.406c-2.027,1.586-4.125,3.8-4.626,6.423-.448,2.329.452,4.7,2.67,7.058s4.209,4.212,5.811,5.714c5.315,4.985,7.741,7.26,4.129,13.816a3.72,3.72,0,0,0-.131,3.948c1.134,1.846,4.023,3.006,7.194,2.909.118,0,.25-.011.385-.02.038.521.057,1.023.06,1.5-.131.007-.262.016-.4.018-.153.009-.308.009-.459.009-3.563,0-6.7-1.4-8.069-3.633a5.155,5.155,0,0,1,.093-5.466c3.049-5.527,1.455-7.023-3.835-11.985-1.62-1.515-3.631-3.407-5.873-5.784-2.574-2.729-3.605-5.545-3.06-8.379.631-3.27,3.244-5.893,5.6-7.656Z" transform="translate(83.276 61.611)" fill="#285b5c"/>
          <path id="Trazado_906236" data-name="Trazado 906236" d="M140.061,109.249a20.106,20.106,0,0,0,10.763-3.2c2.988-1.7,5.567-3.164,11.451-2.093.226.042.45.078.673.111,7.306,1.1,12.127-3.924,13.113-9.453.92-5.166-1.425-11.414-8.749-12.929-3.8-.786-7.444.308-10.825,3.254-8.257,7.2-11.644,6.677-15.931,6.017a26.113,26.113,0,0,0-5.14-.421c-3.374.111-5.651,3.367-5.536,7.913.135,5.394,3.607,10.8,9.989,10.8h.193m.264-16.8c4.489.691,8.365,1.287,17.152-6.371,3-2.619,6.21-3.6,9.527-2.913,6.372,1.318,8.394,6.567,7.57,11.186-.831,4.664-4.754,9.229-11.4,8.23-.208-.031-.416-.066-.625-.1-6.423-1.17-9.358.5-12.468,2.264a18.574,18.574,0,0,1-10.045,3c-.053,0-.106,0-.16,0-5.419,0-8.372-4.67-8.489-9.329-.078-3.1,1.154-6.27,4.081-6.369.2-.007.4-.009.589-.009a26.936,26.936,0,0,1,4.271.414" transform="translate(-32.03 67.009)" fill="#285b5c"/>
          <path id="Trazado_906237" data-name="Trazado 906237" d="M165.292,126.029c3.994-3.919,5.747-8.3,5.069-12.675a.756.756,0,0,0-.5-.6c-.071-.024-7.134-2.6-8.383-12.942-.8-6.638-6.3-10.825-11.387-12.032-5.308-1.258-10.1.443-12.821,4.548-5.811,8.771-7.86,10.029-24.377,14.952-7.255,2.164-11.518,7.67-11.122,14.371.4,6.848,6.1,14.68,17.927,16.738a46.89,46.89,0,0,0,8,.651c13.842,0,29.658-5.228,37.589-13.013M149.749,89.25c4.581,1.085,9.522,4.827,10.237,10.745,1.19,9.857,7.233,13.239,8.942,14.006.439,3.782-1.139,7.466-4.692,10.953-9.063,8.9-29.753,14.48-44.278,11.952-11.011-1.916-16.312-9.086-16.68-15.342-.35-5.964,3.5-10.884,10.049-12.836,16.226-4.838,18.969-6.154,25.2-15.564a9.561,9.561,0,0,1,8.224-4.276,13.033,13.033,0,0,1,2.995.363" transform="translate(24.983 71.889)" fill="#285b5c"/>
          <path id="Trazado_906238" data-name="Trazado 906238" d="M143.348,124.96a.757.757,0,0,0-.474-.735c-.953-.379-23.422-9.272-30.657-6.744a.757.757,0,0,0-.5.656c-.04.532-.9,13.107,5.228,19.921a12.615,12.615,0,0,0,9.336,4.2c.235.007.465.011.693.011,15.422,0,16.37-17.134,16.377-17.309m-1.549.465a22.765,22.765,0,0,1-2.2,7.637c-2.685,5.3-7.149,7.889-13.273,7.688a11.159,11.159,0,0,1-8.263-3.7c-5.029-5.594-4.963-15.88-4.872-18.291,6.611-1.646,25.254,5.366,28.606,6.662" transform="translate(34.088 96.286)" fill="#285b5c"/>
          <path id="Trazado_906239" data-name="Trazado 906239" d="M163.051,163.759c4.621-.324,7.564-2.339,8.075-5.527.623-3.884-2.6-8.095-7.843-10.24-4.954-2.025-4.978-5.782-5-9.759-.018-2.865-.038-5.829-2.116-7.909a9.527,9.527,0,0,0-11.019-1.311c-2.84,1.684-3.859,4.723-2.8,8.335,2.293,7.8-2.911,10.556-3.133,10.669a.754.754,0,0,0-.235,1.161c.52.611,12.555,14.609,23.242,14.609.277,0,.554-.009.829-.029m-19.257-26.835c-.866-2.942-.113-5.291,2.12-6.617a7.941,7.941,0,0,1,9.183,1.083c1.642,1.642,1.659,4.172,1.675,6.854.026,4.1.057,8.736,5.94,11.144,5.118,2.093,7.358,5.913,6.926,8.605-.392,2.437-2.831,3.992-6.693,4.262-8.906.627-19.684-10.59-22.25-13.415,1.666-1.252,5.175-4.854,3.1-11.915" transform="translate(-43.253 105.173)" fill="#285b5c"/>
          <path id="Trazado_906240" data-name="Trazado 906240" d="M117.17,156.28a15.467,15.467,0,0,1-2.238,4.743,6.765,6.765,0,0,1-5.29,3.173,4.942,4.942,0,0,1-.766-.06c-2.949-.472-5.5-3.6-7.187-8.809-2.114-6.54-1.846-11.687.795-15.289,2.656-3.627,6.992-4.7,9.442-5.029.131.5.259.99.388,1.48-2.156.264-6.245,1.2-8.622,4.446-2.335,3.192-2.524,7.878-.569,13.926,1.5,4.644,3.633,7.409,5.991,7.787,1.6.257,3.232-.636,4.6-2.512a16.358,16.358,0,0,0,2.707-7.725c.3,1.369.558,2.665.749,3.87" transform="translate(80.992 111.079)" fill="#285b5c"/>
          <path id="Trazado_906241" data-name="Trazado 906241" d="M143.9,159.631a.283.283,0,0,1-.038.046,24.525,24.525,0,0,1-3.782,3.387c-1.092.106-2.2.211-3.323.308a24.352,24.352,0,0,0,5.949-4.659c.206-.293,2.328-3.425,1.156-6.21-1-2.388-4.114-3.97-9.249-4.7-13.64-1.945-16.879,6.392-17.373,8,2.426,4.17,5.142,6.978,8.111,8.394q-1.356.079-2.72.148a24.386,24.386,0,0,1-6.854-8.064.749.749,0,0,1-.082-.534c.026-.117,2.754-11.766,19.132-9.438,5.7.811,9.207,2.7,10.428,5.618,1.553,3.707-1.236,7.543-1.356,7.7" transform="translate(24.377 120.122)" fill="#285b5c"/>
          <path id="Trazado_906242" data-name="Trazado 906242" d="M242.783,184.75c.627-17.023,3.5-33.81,5.878-50.652-11.345,4.927-22.52,9.405-32.387,15.368h-.009c-6.1,3.686-11.584,6.934-15.6,9.19-6.132,3.441-13.959,3.78-21.631,2.723-14.95-2.067-29.29-9.433-29.29-9.433s-48.141-21.82-57.167-21.091c-7.019.561,30.746,39.995,61.984,56.139,3.124,2.242,8.066,4.575,15.461,6.928,30.568,9.726,59.283.95,72.655-4.551q.025-2.31.108-4.621" transform="translate(-34.902 107.646)" fill="#d76751"/>
          <path id="Trazado_906243" data-name="Trazado 906243" d="M31.385,202.936l4.081,25.816,24.162,1.682-2.519-31.725Z" transform="translate(264.115 163.487)" fill="#f49d8b"/>
          <path id="Trazado_906244" data-name="Trazado 906244" d="M87.627,255.118l-86.417-.077a12.112,12.112,0,0,1-1.134-4.8c-.532-7.309,1.808-18.973,2.956-26.328.139-.858.259-1.662.352-2.388a25.123,25.123,0,0,0,.259-3c.005-6,5.319-4.971,5.319-4.971,8.736,8.583,18.65-4.269,24.428-.046,0,0,2.488,1.788,9.343,7.967S61.254,231.736,71.184,235.9c12.819,5.372,16.45,10.731,17.158,14.418a6.75,6.75,0,0,1-.715,4.8" transform="translate(292.467 174.94)" fill="#f5bf69"/>
          <path id="Trazado_906245" data-name="Trazado 906245" d="M87.55,238.141l-86.417-.077A12.112,12.112,0,0,1,0,233.263l88.265.078a6.75,6.75,0,0,1-.715,4.8" transform="translate(292.545 191.917)" fill="#ed9033"/>
          <path id="Trazado_906246" data-name="Trazado 906246" d="M25.094,216.39s1.546-3.771,4.974-2.568,3.08,6.863,3.08,6.863-2.062,5.142-8.055-4.294" transform="translate(302.052 175.727)" fill="#fff"/>
          <path id="Trazado_906247" data-name="Trazado 906247" d="M27.949,231.3a1.424,1.424,0,0,1-1.424-1.425,18.179,18.179,0,0,1,5.609-13.417,1.424,1.424,0,0,1,1.843,2.171,15.309,15.309,0,0,0-4.6,11.248,1.425,1.425,0,0,1-1.425,1.424" transform="translate(298.123 177.81)" fill="#fff"/>
          <path id="Trazado_906248" data-name="Trazado 906248" d="M31.963,220.561a1.42,1.42,0,0,1-.944-.359c-1.808-1.606-7.118-1.912-10.038-1.724a1.425,1.425,0,0,1-.18-2.844c.895-.056,8.835-.47,12.11,2.439a1.424,1.424,0,0,1-.948,2.488" transform="translate(312.077 177.37)" fill="#fff"/>
          <path id="Trazado_906249" data-name="Trazado 906249" d="M45.849,219.548l-.729.731.08-.011.02.088.589,2.936a3.306,3.306,0,0,1-.326.056,20.72,20.72,0,0,1-2.74.146c-.18,0-.374,0-.571,0a54.087,54.087,0,0,1-6.316-.532,13.918,13.918,0,0,1-6.8-2.645,6.361,6.361,0,0,1-2.085-2.8c-.033-.087-.06-.18-.084-.27A4.4,4.4,0,0,1,28.01,212.9a6.051,6.051,0,0,1,4.468-1.9.783.783,0,0,1,.113-.005,12.385,12.385,0,0,1,5.155,1.365,31.114,31.114,0,0,1,5.809,3.762c.153.12.3.237.443.357.727.6,1.338,1.141,1.788,1.555.4.37.68.64.8.766Zm-3.1.862c.394,0,.736-.007,1.03-.02-.6-.56-1.391-1.239-2.282-1.939v-.005a33.953,33.953,0,0,0-3.615-2.5,15.915,15.915,0,0,0-3.285-1.511,6.8,6.8,0,0,0-2.012-.348H32.52a3,3,0,0,0-2.275.944,1.356,1.356,0,0,0-.434,1.194,1.8,1.8,0,0,0,.071.27c.461,1.323,2.621,2.889,6.392,3.409.632.084,1.227.159,1.783.219a44.6,44.6,0,0,0,4.7.29" transform="translate(285.676 173.597)" fill="#fff"/>
          <path id="Trazado_906250" data-name="Trazado 906250" d="M26.124,223.57l-1.318-2.791c2.843-1.342,5.563-4.883,5.39-7.018-.042-.518-.262-1.161-1.6-1.546a1.71,1.71,0,0,0-1.688.19c-1.489,1.15-1.959,5.047-1.907,7.233l-3.086.078c-.02-.736-.1-7.276,3.1-9.752a4.767,4.767,0,0,1,4.429-.716,4.736,4.736,0,0,1,3.826,4.265c.306,3.793-3.522,8.345-7.149,10.056" transform="translate(307.722 171.963)" fill="#fff"/>
          <path id="Trazado_906251" data-name="Trazado 906251" d="M47.745,251.033l-2.566,0A18.966,18.966,0,0,0,49.836,237.2c-.41-8.54-5.528-14.3-9.085-17.3.14-.858.259-1.661.352-2.386,3.835,2.936,10.295,9.362,10.791,19.587a20.967,20.967,0,0,1-4.149,13.937" transform="translate(254.747 178.955)" fill="#ed9033"/>
          <path id="Trazado_906252" data-name="Trazado 906252" d="M23.581,222.166a1.424,1.424,0,0,1-.339-2.807l5.4-1.334a1.423,1.423,0,1,1,.684,2.763l-5.4,1.336a1.5,1.5,0,0,1-.344.042" transform="translate(310.152 179.344)" fill="#fff"/>
          <path id="Trazado_906253" data-name="Trazado 906253" d="M20.621,223.89a1.424,1.424,0,0,1-.339-2.807l5.4-1.336a1.424,1.424,0,1,1,.684,2.765l-5.4,1.336a1.5,1.5,0,0,1-.345.042" transform="translate(318.507 180.762)" fill="#fff"/>
          <path id="Trazado_906254" data-name="Trazado 906254" d="M17.661,225.548a1.424,1.424,0,0,1-.339-2.807l5.4-1.336a1.424,1.424,0,1,1,.684,2.765l-5.4,1.336a1.4,1.4,0,0,1-.345.042" transform="translate(326.863 182.126)" fill="#fff"/>
          <path id="Trazado_906255" data-name="Trazado 906255" d="M14.433,227.08a1.424,1.424,0,0,1-.339-2.807l5.4-1.334a1.423,1.423,0,1,1,.684,2.763l-5.4,1.336a1.4,1.4,0,0,1-.345.042" transform="translate(335.974 183.388)" fill="#fff"/>
          <path id="Trazado_906256" data-name="Trazado 906256" d="M10.932,228.389a1.424,1.424,0,0,1-.339-2.807l5.4-1.334a1.423,1.423,0,1,1,.684,2.763l-5.4,1.336a1.51,1.51,0,0,1-.345.042" transform="translate(345.857 184.464)" fill="#fff"/>
          <path id="Trazado_906257" data-name="Trazado 906257" d="M58.622,166.921c29.2-15.451,80.511-46.283,102.123-50.662C198.432,108.623,210.7,276.84,210.7,276.84L180.46,279.8s-28.287-72.507-30.535-100.463c0,0-39.346,37.813-119.038,39.4Z" transform="translate(113.952 95.445)" fill="#d76751"/>
          <path id="Trazado_906258" data-name="Trazado 906258" d="M29.89,203.464s.516,5.669,4.373,9.187l31.357-3.11s.7-7.14-.886-10.032Z" transform="translate(260.695 164.146)" fill="#ba4131"/>
          <path id="Trazado_906259" data-name="Trazado 906259" d="M180.74,253.6a.88.88,0,0,1-.842-.625c-.077-.248-7.632-25.057-14.739-46.9-6.274-19.283-12.889-54.936-14.438-63.512-7.481,8.926-17.358,17.015-29.388,24.062a187.3,187.3,0,0,1-34.709,15.5,233.957,233.957,0,0,1-40.268,9.794.881.881,0,0,1-.222-1.748,232.427,232.427,0,0,0,39.96-9.726c20.056-6.771,47.521-19.288,64.471-40.476a.882.882,0,0,1,1.557.4c.075.43,7.623,43.363,14.713,65.158,7.112,21.862,14.673,46.688,14.75,46.936a.881.881,0,0,1-.587,1.1.9.9,0,0,1-.257.038" transform="translate(116.638 114.889)" fill="#ba4131"/>
          <path id="Trazado_906260" data-name="Trazado 906260" d="M156.175,77.519c-16.664,22.434-36.721-4.386-36.446-10.37,6.914-13.348,8.849-31.076,8.849-31.076l32.049,17.914c-.248.982-.5,1.967-.753,2.956a135.494,135.494,0,0,0-3.062,14.263,51.262,51.262,0,0,0-.638,6.312" transform="translate(2.091 29.679)" fill="#f49d8b"/>
          <path id="Trazado_906261" data-name="Trazado 906261" d="M145.911,67.707c-17.23-6.981-25.772-27.38-25.772-27.38l28.834,13.118a135.36,135.36,0,0,0-3.062,14.261" transform="translate(12.993 33.179)" fill="#1b3431"/>
          <path id="Trazado_906262" data-name="Trazado 906262" d="M105.755,35.245s4.014-7.96,10.534-4.943,3.1,25.781-9.777,22.968Z" transform="translate(68.669 24.369)" fill="#d37363"/>
          <path id="Trazado_906263" data-name="Trazado 906263" d="M117.437,62.084a11.5,11.5,0,1,0-11.115-11.87,11.513,11.513,0,0,0,11.115,11.87m.7-21.271a9.783,9.783,0,1,1-10.1,9.456,9.793,9.793,0,0,1,10.1-9.456" transform="translate(57.85 32.163)" fill="#fff"/>
          <path id="Trazado_906264" data-name="Trazado 906264" d="M107.77,61.51c2.16,9.631,24.184,23.805,34.574,20.763,6.3-1.846,12.342-6.553,17.059-18.251.027-.062.049-.126.075-.188.277-.691.54-1.373.789-2.051.456-1.221.866-2.421,1.227-3.573.084-.273.17-.541.246-.807.213-.716.4-1.414.571-2.089q.314-1.247.518-2.37C165,40.828,167.7,27.252,157.711,18s-26.993-13.875-38.564-4.444c0,0-8.791,8.414-11.073,26.053s-1.868,14.943-.3,21.9" transform="translate(21.992 6.892)" fill="#f49d8b"/>
          <path id="Trazado_906265" data-name="Trazado 906265" d="M150.208,12.411s-8.417,18.213-14.484,21.242-9.455-6.91-9.455-6.91S141.556-.819,150.208,12.411" transform="translate(0.582 7.255)" fill="#1b3431"/>
          <path id="Trazado_906266" data-name="Trazado 906266" d="M145.968,16.879s-12.923,14.2-26.094,8.66-2.426-15.665-2.426-15.665,26.845-6.943,28.521,7" transform="translate(28.435 6.702)" fill="#1b3431"/>
          <path id="Trazado_906267" data-name="Trazado 906267" d="M102.772,14.271s4.017,21.262,17.867,19.595-2.255-24.308-11.3-24.715-6.562,5.12-6.562,5.12" transform="translate(68.153 7.511)" fill="#1b3431"/>
          <path id="Trazado_906268" data-name="Trazado 906268" d="M125.822,43.778a4.987,4.987,0,0,0,.527.055.692.692,0,0,0,.038-1.383,4.431,4.431,0,0,1-3.687-2.4.691.691,0,0,0-1.249.594,5.714,5.714,0,0,0,4.371,3.135" transform="translate(32.639 32.625)" fill="#d37363"/>
          <path id="Trazado_906269" data-name="Trazado 906269" d="M126.464,44.694a10.191,10.191,0,0,0,1.518.133.691.691,0,0,0-.026-1.382c-.35.005-8.357.026-8.919-8.352a.691.691,0,0,0-1.38.091c.49,7.322,6.055,9.086,8.806,9.509" transform="translate(37.829 28.342)" fill="#232323"/>
          <path id="Trazado_906270" data-name="Trazado 906270" d="M117.53,43.261a6.537,6.537,0,0,1-1.312-.23.827.827,0,0,1,.448-1.591,4.935,4.935,0,0,0,3.9-.567c-1.949-3.91-1.837-12.807-1.832-13.208a.827.827,0,1,1,1.653.026c-.042,2.765.228,10.483,1.949,12.943a.824.824,0,0,1-.126,1.088,6.773,6.773,0,0,1-4.677,1.538" transform="translate(47.728 22.092)" fill="#1b3431"/>
          <path id="Trazado_906271" data-name="Trazado 906271" d="M115.427,41.914c.277-.691.54-1.373.789-2.052.456-1.219.866-2.417,1.227-3.573.084-.27.168-.538.246-.806-.2-.042-.4-.086-.607-.12-4.548-.853-8.52-.062-8.86,1.768-.337,1.775,2.86,3.881,7.205,4.783" transform="translate(66.044 28.812)" fill="#d37363"/>
          <path id="Trazado_906272" data-name="Trazado 906272" d="M123.747,33.083c-.345,1.832,3.062,4.012,7.612,4.867s8.514.066,8.86-1.766-3.064-4.012-7.612-4.869-8.516-.064-8.86,1.768" transform="translate(15.19 25.481)" fill="#d37363"/>
          <path id="Trazado_906273" data-name="Trazado 906273" d="M140.187,34.937a11.205,11.205,0,1,0-11.948,10.412,11.216,11.216,0,0,0,11.948-10.412m-1.65-.113a9.552,9.552,0,1,1-8.873-10.184,9.561,9.561,0,0,1,8.873,10.184" transform="translate(26.011 18.894)" fill="#fff"/>
          <path id="Trazado_906274" data-name="Trazado 906274" d="M126.28,37.708A11.206,11.206,0,1,0,114.331,48.12,11.216,11.216,0,0,0,126.28,37.708m-1.65-.113a9.552,9.552,0,1,1-8.873-10.184A9.561,9.561,0,0,1,124.63,37.6" transform="translate(65.271 21.174)" fill="#fff"/>
          <path id="Trazado_906275" data-name="Trazado 906275" d="M119.832,32.65a2.768,2.768,0,0,0-3.751-.893l-.787-1.455a4.369,4.369,0,0,1,5.937,1.464Z" transform="translate(49.569 24.446)" fill="#fff"/>
          <path id="Trazado_906276" data-name="Trazado 906276" d="M139.907,29.7a1.1,1.1,0,0,1-.837-.478c-.1-.117-1.733-1.856-9.495-3.667a1.107,1.107,0,1,1,.5-2.156c8.93,2.083,10.607,4.216,10.851,4.622a1.108,1.108,0,0,1-1.024,1.679" transform="translate(5.233 19.223)" fill="#fff"/>
          <path id="Trazado_906277" data-name="Trazado 906277" d="M109.384,34.248a.8.8,0,0,1-.47-.19,10.289,10.289,0,0,0-4.289-1.535.827.827,0,0,1,.219-1.64c.139.02,3.4.468,5.126,1.9a.827.827,0,0,1-.585,1.46" transform="translate(81.287 25.402)" fill="#fff"/>
          <path id="Trazado_906278" data-name="Trazado 906278" d="M129.128,22.871a9.466,9.466,0,0,0-8-3.777c-2.849.219-2.933,3.013.268,3.536a10.327,10.327,0,0,1,5.357,2.134,1.528,1.528,0,0,0,2.375-1.894" transform="translate(34.675 15.689)" fill="#1b3431"/>
          <path id="Trazado_906279" data-name="Trazado 906279" d="M107.259,23.333a9.463,9.463,0,0,1,8.839-.379c2.541,1.307,1.535,3.915-1.619,3.157A10.311,10.311,0,0,0,108.713,26a1.529,1.529,0,0,1-1.455-2.669" transform="translate(69.085 18.104)" fill="#1b3431"/>
          <path id="Trazado_906280" data-name="Trazado 906280" d="M151.077,27.452s-2.876-7.73-10.559-5.8-8.645,27.288,5.886,26.884Z" transform="translate(-16.248 17.561)" fill="#f49d8b"/>
          <path id="Trazado_906281" data-name="Trazado 906281" d="M145.153,32.867c.332.532.492,1.055.828,1.584a9.788,9.788,0,1,0,6.1,1.354c-1.994-.944-2.175-1.852-2.1-2.741A11.5,11.5,0,1,1,135.535,43.8a11.671,11.671,0,0,1,9.619-10.931" transform="translate(-24.611 27.041)" fill="#fff"/>
          <path id="Trazado_906282" data-name="Trazado 906282" d="M145.641,35.4a.681.681,0,0,1-.622.736.8.8,0,0,1-.148,0,.686.686,0,0,1-.589-.62,13.955,13.955,0,0,0-1.564-4.912c-1.588,1-2.878,1.958-2.9,1.969a.665.665,0,0,1-.5.129.7.7,0,0,1-.459-.268.685.685,0,0,1,.144-.953c.058-.044,1.349-1,2.978-2.031a8.31,8.31,0,0,0-3.828-2.967.682.682,0,0,1,.481-1.276c6.265,2.35,6.97,9.876,7,10.193" transform="translate(-15.732 20.706)" fill="#1b3431"/>
          <path id="Trazado_906283" data-name="Trazado 906283" d="M121.278,30.027c-.324,1.635.17,3.113,1.1,3.3s1.958-.99,2.282-2.627-.168-3.111-1.1-3.3-1.958.99-2.282,2.625" transform="translate(35.307 22.53)" fill="#1b3431"/>
          <path id="Trazado_906284" data-name="Trazado 906284" d="M111.274,32.246c-.324,1.637.17,3.115,1.1,3.3s1.958-.99,2.282-2.627-.168-3.113-1.1-3.3-1.958.99-2.282,2.623" transform="translate(63.545 24.356)" fill="#1b3431"/>
          <path id="Trazado_906285" data-name="Trazado 906285" d="M220.759,149.268l-133.726,14.4a.543.543,0,0,1-.6-.481,7.562,7.562,0,0,1,6.71-8.325l126.749-13.647a.544.544,0,0,1,.6.481l.751,6.977a.544.544,0,0,1-.483.6" transform="translate(2.238 116.179)" fill="#414f50"/>
          <path id="Trazado_906286" data-name="Trazado 906286" d="M186.775,104.584l-9.09,72.392a4.2,4.2,0,0,1-3.713,3.645L71.149,191.691a4.192,4.192,0,0,1-4.61-4.69l9.09-72.392a4.2,4.2,0,0,1,3.713-3.647l102.823-11.07a4.2,4.2,0,0,1,4.61,4.692" transform="translate(72.918 82.166)" fill="#1b3431"/>
          <path id="Trazado_906287" data-name="Trazado 906287" d="M89.573,129.786c.815,6.321,12.406,13.1,12.406,13.1s11.613-9.276,12.446-15.776c.9-7.045-7.167-8.308-12.42-2.5-5.237-4.674-13.315-1.673-12.431,5.18" transform="translate(103.309 99.501)" fill="#414f50"/>
          <path id="Trazado_906288" data-name="Trazado 906288" d="M140.139,105.714l-9.274,80.846-2.993.321a4.193,4.193,0,0,1-4.61-4.69l9.09-72.392a4.193,4.193,0,0,1,3.713-3.645Z" transform="translate(16.194 86.976)" fill="#414f50"/>
          <path id="Trazado_906289" data-name="Trazado 906289" d="M118.7,180.627s-10.986-1.755-14.394-5.361l-7.151,22.85,26.266,5.4s-.319-19.277-4.721-22.886" transform="translate(80.445 144.2)" fill="#f49d8b"/>
          <path id="Trazado_906290" data-name="Trazado 906290" d="M132.684,242.854,98.73,167.489a11.545,11.545,0,0,0-4.632.895c-6.587,2.4-15.847,9.017-21.813,12.9-.694.458-1.347.877-1.943,1.241a24.122,24.122,0,0,1-2.519,1.405c-5.235,2.359-2.535,4.059-2.535,4.059,10.913,4.256,3.875,20.475,9.825,23.86,0,0,2.535,1.469,10.614,5.029s16.217,12.132,23.743,19.161c9.713,9.079,15.812,10.145,19.308,9.316a6.448,6.448,0,0,0,3.906-2.5" transform="translate(130.53 137.787)" fill="#f5bf69"/>
          <path id="Trazado_906291" data-name="Trazado 906291" d="M95.639,189.49s-3.013,2.065-1.314,4.841,6.591,1.407,6.591,1.407,4.118-2.774-5.277-6.248" transform="translate(108.152 155.903)" fill="#fff"/>
          <path id="Trazado_906292" data-name="Trazado 906292" d="M101.49,187.675a1.277,1.277,0,0,0-1.517-.979,16.287,16.287,0,0,0-10.7,7.439,1.276,1.276,0,0,0,2.249,1.2,13.717,13.717,0,0,1,8.988-6.148,1.277,1.277,0,0,0,.979-1.517" transform="translate(116.983 153.58)" fill="#fff"/>
          <path id="Trazado_906293" data-name="Trazado 906293" d="M99.07,201.667a1.285,1.285,0,0,0-.492-.76c-1.748-1.281-3.015-5.875-3.4-8.47a1.277,1.277,0,0,0-2.526.377c.118.795,1.25,7.831,4.417,10.151a1.276,1.276,0,0,0,2-1.3" transform="translate(112.994 157.432)" fill="#fff"/>
          <path id="Trazado_906294" data-name="Trazado 906294" d="M104.065,199.587c-.131-.086-.421-.279-.82-.561-.448-.315-1.039-.749-1.7-1.274-.131-.1-.262-.21-.4-.321a27.956,27.956,0,0,1-4.389-4.38,11.106,11.106,0,0,1-2.165-4.262.852.852,0,0,1-.016-.1,5.418,5.418,0,0,1,.822-4.271,3.943,3.943,0,0,1,3.6-1.8,2.44,2.44,0,0,1,.253.024,5.693,5.693,0,0,1,2.842,1.3,12.478,12.478,0,0,1,3.6,5.463,48.623,48.623,0,0,1,1.655,5.432c.04.173.077.341.111.5a18.165,18.165,0,0,1,.386,2.426c.015.182.013.279.013.3l-2.683.036-.082,0,0-.071-.5.775Zm-.448-7.725c-.159-.474-.334-.982-.527-1.52-1.165-3.208-2.944-4.8-4.189-4.96a1.678,1.678,0,0,0-.25-.011,1.216,1.216,0,0,0-.964.605,2.673,2.673,0,0,0-.4,2.169l.013.064a6.124,6.124,0,0,0,.684,1.7,14.169,14.169,0,0,0,1.943,2.594,29.871,29.871,0,0,0,2.871,2.694h0c.782.651,1.526,1.212,2.129,1.635-.044-.259-.1-.56-.177-.906a39.565,39.565,0,0,0-1.137-4.061" transform="translate(100.934 150.239)" fill="#fff"/>
          <path id="Trazado_906295" data-name="Trazado 906295" d="M107.39,193.695l-2.694-.629c-.64,2.743-3.23,5.791-5.133,6.042-.461.06-1.066-.011-1.657-1.112a1.535,1.535,0,0,1-.149-1.515c.727-1.52,4.052-2.667,5.979-3.031l-.512-2.718c-.651.122-6.394,1.285-7.96,4.553a4.783,4.783,0,0,0,4.661,6.564c3.381-.445,6.649-4.655,7.466-8.155" transform="translate(100.653 156.925)" fill="#fff"/>
          <path id="Trazado_906296" data-name="Trazado 906296" d="M103.178,242.854,69.224,167.489a11.545,11.545,0,0,0-4.632.895l34.68,76.975a6.448,6.448,0,0,0,3.906-2.5" transform="translate(160.036 137.787)" fill="#ed9033"/>
          <path id="Trazado_906297" data-name="Trazado 906297" d="M113.172,172.71l-1.008-2.238a18.149,18.149,0,0,1-10.244,9.487c-7.61,2.991-14.642.786-18.658-1.141-.694.459-1.347.877-1.943,1.243,4.065,2.195,12.2,5.311,21.321,1.732a20.047,20.047,0,0,0,10.532-9.083" transform="translate(119.553 140.256)" fill="#ed9033"/>
          <path id="Trazado_906298" data-name="Trazado 906298" d="M90.247,193.14a1.363,1.363,0,0,0-2.583.806l.953,5.233a1.362,1.362,0,0,0,2.679-.487l-.951-5.235a1.286,1.286,0,0,0-.1-.317" transform="translate(129.881 158.247)" fill="#fff"/>
          <path id="Trazado_906299" data-name="Trazado 906299" d="M93.553,191.543a1.362,1.362,0,0,0-2.581.8l.951,5.235a1.362,1.362,0,1,0,2.679-.488l-.951-5.233a1.4,1.4,0,0,0-.1-.317" transform="translate(120.548 156.932)" fill="#fff"/>
          <path id="Trazado_906300" data-name="Trazado 906300" d="M87.58,195.048a1.362,1.362,0,0,0-2.581.8l.951,5.235a1.362,1.362,0,1,0,2.679-.487l-.951-5.235a1.31,1.31,0,0,0-.1-.317" transform="translate(137.406 159.816)" fill="#fff"/>
          <path id="Trazado_906301" data-name="Trazado 906301" d="M84.975,196.979a1.363,1.363,0,0,0-2.583.8l.953,5.235a1.362,1.362,0,1,0,2.679-.487l-.951-5.235a1.337,1.337,0,0,0-.1-.317" transform="translate(144.763 161.406)" fill="#fff"/>
          <path id="Trazado_906302" data-name="Trazado 906302" d="M82.37,199.195a1.362,1.362,0,0,0-2.581.8l.951,5.235a1.362,1.362,0,1,0,2.679-.488l-.951-5.233a1.31,1.31,0,0,0-.1-.317" transform="translate(152.112 163.228)" fill="#fff"/>
          <path id="Trazado_906303" data-name="Trazado 906303" d="M79.855,201.736a1.362,1.362,0,0,0-2.581.8l.951,5.235a1.362,1.362,0,0,0,2.679-.487l-.951-5.235a1.311,1.311,0,0,0-.1-.317" transform="translate(159.211 165.318)" fill="#fff"/>
          <path id="Trazado_906304" data-name="Trazado 906304" d="M163.812,134.708s-30.467-16.443-48.115-3.733c-32.272,23.24,22.487,67.952,85.128,89.785S283.8,239.616,283.8,239.616s13.61-3.746,8.782-25.8c0,0-36.109-13.727-54.9-28.109s-31.6-32-73.878-51" transform="translate(-106.14 103.793)" fill="#d76751"/>
          <path id="Trazado_906305" data-name="Trazado 906305" d="M193.383,195.8a.873.873,0,0,1-.43-.113c-.314-.175-31.415-17.677-44.242-28.2-10.322-8.472-32.948-24.361-33.174-24.52a.881.881,0,1,1,1.012-1.444c.228.16,22.908,16.088,33.282,24.6,12.708,10.43,43.673,27.855,43.985,28.03a.881.881,0,0,1-.432,1.65" transform="translate(-23.226 116.302)" fill="#ba4131"/>
          <path id="Trazado_906306" data-name="Trazado 906306" d="M236.658,213.423c-13.138-3.157-39.909-15.435-71.614-32.848-23.712-13.022-51.061-29.663-55.073-35.436-2.169-3.117-2.714-5.667-1.624-7.577,1.631-2.862,6.329-3.159,8.47-3.137a.952.952,0,0,1-.007,1.9c-2.105-.015-5.769.346-6.81,2.175-.864,1.518.357,3.855,1.535,5.548,3.235,4.654,26.125,19.312,54.425,34.853,24.368,13.384,55.856,28.991,71.142,32.665Z" transform="translate(-52.65 110.598)" fill="#ba4131"/>
          <path id="Trazado_906307" data-name="Trazado 906307" d="M115.545,172.868c-1.48,11.594-4.484,22.132-11.033,30.214,0,0,5.607,4.039,10.729,1.141,3.912-2.213,11.456-20.32,8.582-29.988-3.274-1.788-6.1-2.412-8.277-1.367" transform="translate(65.99 141.81)" fill="#ba4131"/>
          <line id="Línea_2193" data-name="Línea 2193" y1="12.181" transform="translate(165.84 238.848)" fill="#f49d8b"/>
          <path id="Trazado_906308" data-name="Trazado 906308" d="M129.8,166.835c.186-2.712.5-5.25.859-7.71.718-4.916,1.657-9.506,2.71-14s2.209-8.851,3.45-13.147c1.223-4.3,2.566-8.52,3.926-12.71,2.765-8.363,5.743-16.558,8.937-24.644,1.617-4.034,3.224-8.064,4.945-12.054.859-1.994,1.715-3.99,2.6-5.98l1.353-2.986.687-1.5L160,70.544a18.978,18.978,0,0,1,34.971,14.662l-.087.237-4.242,11.465c-1.409,3.873-2.865,7.73-4.242,11.611-2.794,7.741-5.536,15.475-8.091,23.18-2.57,7.687-4.958,15.377-6.95,22.835-.5,1.865-.942,3.707-1.374,5.521s-.813,3.6-1.132,5.313c-.16.855-.3,1.7-.432,2.51,1.238.355,2.523.7,3.835,1.034,3.7.95,7.59,1.817,11.534,2.645s7.96,1.608,12,2.379c8.086,1.524,16.283,2.949,24.509,4.376l12.364,2.136.9.157c-1.146,9.608-2.765,19.17-3.554,28.812-4.258-.024-8.514-.113-12.777-.215-8.612-.252-17.236-.7-25.927-1.4-4.349-.341-8.711-.767-13.12-1.27s-8.855-1.121-13.437-1.907c-2.293-.4-4.621-.853-7.041-1.4s-4.923-1.174-7.73-2.1a49.534,49.534,0,0,1-4.655-1.792c-.864-.385-1.815-.848-2.887-1.449a28.1,28.1,0,0,1-3.76-2.517c-.383-.31-.736-.6-1.176-1l-.618-.576c-.221-.215-.459-.459-.682-.693l-.335-.359-.168-.182-.188-.217c-.25-.29-.494-.587-.731-.888-.222-.275-.51-.671-.76-1.032l-.376-.558c-.122-.188-.239-.368-.379-.605q-.4-.67-.76-1.367l-.177-.354-.19-.4q-.186-.407-.355-.822c-.113-.275-.222-.554-.324-.833s-.213-.62-.31-.931-.19-.638-.273-.961l-.12-.483-.067-.293-.315-1.558c-.047-.255-.1-.534-.139-.769l-.106-.713c-.067-.472-.137-.962-.191-1.422l-.128-1.321-.058-.662-.036-.62a68.69,68.69,0,0,1,.091-8.917" transform="translate(-88.857 49.077)" fill="#f49d8b"/>
          <path id="Trazado_906309" data-name="Trazado 906309" d="M166.389,127.209a.909.909,0,0,0,.623-.246c7.043-6.6,18.689-6.693,18.805-6.693a.911.911,0,0,0,0-1.823c-.507,0-12.475.082-20.052,7.185a.911.911,0,0,0,.623,1.577" transform="translate(-107.405 97.452)" fill="#d37363"/>
          <path id="Trazado_906310" data-name="Trazado 906310" d="M181.469,121.113a.911.911,0,0,0,.452-1.7c-4.63-2.634-13.384-1.36-13.754-1.305a.911.911,0,1,0,.27,1.8c.084-.011,8.5-1.234,12.582,1.086a.914.914,0,0,0,.45.118" transform="translate(-106.541 96.879)" fill="#d37363"/>
          <path id="Trazado_906311" data-name="Trazado 906311" d="M102.261,76.463v32.47a7.778,7.778,0,0,1-7.774,7.774H35.53l-17.8,6.385a2.263,2.263,0,0,1-2.876-2.947l6.733-17.387V76.463a7.776,7.776,0,0,1,7.778-7.774H94.487a7.776,7.776,0,0,1,7.774,7.774" transform="translate(251.901 56.514)" fill="#78b1de"/>
          <path id="Trazado_906312" data-name="Trazado 906312" d="M54.044,84.906a5.624,5.624,0,1,1-5.623-5.623,5.624,5.624,0,0,1,5.623,5.623" transform="translate(248.899 65.23)" fill="#4e88af"/>
          <path id="Trazado_906313" data-name="Trazado 906313" d="M44.277,84.906a5.624,5.624,0,1,1-5.623-5.623,5.624,5.624,0,0,1,5.623,5.623" transform="translate(276.468 65.23)" fill="#4e88af"/>
          <path id="Trazado_906314" data-name="Trazado 906314" d="M34.51,84.906a5.624,5.624,0,1,1-5.625-5.623,5.626,5.626,0,0,1,5.625,5.623" transform="translate(304.038 65.23)" fill="#4e88af"/>
        </g>
      </g>
      <g id="Grupo_1113225" data-name="Grupo 1113225" transform="translate(437.051 3595.048)">
        <g id="Grupo_1113224" data-name="Grupo 1113224" clip-path="url(#clip-path-5)">
          <path id="Trazado_906347" data-name="Trazado 906347" d="M70.551,129.13V3.48A3.48,3.48,0,0,0,67.071,0H3.48A3.48,3.48,0,0,0,0,3.48V129.13a7.039,7.039,0,0,0,7.038,7.039H63.512a7.039,7.039,0,0,0,7.039-7.039" fill="#fff"/>
          <path id="Trazado_906348" data-name="Trazado 906348" d="M59.987,95.428h-47a1.55,1.55,0,1,1,0-3.1h47a1.55,1.55,0,1,1,0,3.1" fill="#ffdecb"/>
          <path id="Trazado_906349" data-name="Trazado 906349" d="M59.987,105.258h-47a1.55,1.55,0,0,1,0-3.1h47a1.55,1.55,0,0,1,0,3.1" fill="#ffdecb"/>
          <path id="Trazado_906350" data-name="Trazado 906350" d="M59.987,115.088h-47a1.55,1.55,0,1,1,0-3.1h47a1.55,1.55,0,1,1,0,3.1" fill="#ffdecb"/>
          <path id="Trazado_906351" data-name="Trazado 906351" d="M59.987,124.919h-47a1.55,1.55,0,1,1,0-3.1h47a1.55,1.55,0,1,1,0,3.1" fill="#ffdecb"/>
          <path id="Trazado_906352" data-name="Trazado 906352" d="M70.551,3.48v9.649H0V3.48A3.48,3.48,0,0,1,3.48,0H67.071a3.48,3.48,0,0,1,3.48,3.48" fill="#3b0e09"/>
          <path id="Trazado_906353" data-name="Trazado 906353" d="M53.467,5.932a2.293,2.293,0,1,1-2.294-2.294,2.294,2.294,0,0,1,2.294,2.294" fill="#ff4231"/>
          <path id="Trazado_906354" data-name="Trazado 906354" d="M60.9,5.932a2.294,2.294,0,1,1-2.294-2.294A2.294,2.294,0,0,1,60.9,5.932" fill="#eaab2c"/>
          <path id="Trazado_906355" data-name="Trazado 906355" d="M68.02,5.932a2.293,2.293,0,1,1-2.294-2.294A2.294,2.294,0,0,1,68.02,5.932" fill="#1b6bfe"/>
          <rect id="Rectángulo_406286" data-name="Rectángulo 406286" width="7.935" height="19.174" transform="translate(13.969 66.905)" fill="#1b6bfe"/>
          <rect id="Rectángulo_406287" data-name="Rectángulo 406287" width="7.935" height="32.791" transform="translate(25.673 53.288)" fill="#ff4231"/>
          <rect id="Rectángulo_406288" data-name="Rectángulo 406288" width="7.935" height="42.839" transform="translate(38.633 43.24)" fill="#4f9d5c"/>
          <rect id="Rectángulo_406289" data-name="Rectángulo 406289" width="7.935" height="54.631" transform="translate(51.329 31.448)" fill="#eaab2c"/>
          <path id="Trazado_906356" data-name="Trazado 906356" d="M44.637,23.048l5.5,2.019L49.5,18.628Z" fill="#ffdecb"/>
          <path id="Trazado_906357" data-name="Trazado 906357" d="M11.787,57.6a.6.6,0,0,1-.208-1.153c.24-.089,24.118-9.24,35.766-33.832a.6.6,0,1,1,1.076.51C36.56,48.162,12.239,57.467,11.995,57.558a.587.587,0,0,1-.208.038" fill="#ffdecb"/>
        </g>
      </g>
      <g id="Grupo_1113227" data-name="Grupo 1113227" transform="translate(207.051 3947.958)">
        <g id="Grupo_1113226" data-name="Grupo 1113226" transform="translate(0 0)" clip-path="url(#clip-path-6)">
          <path id="Trazado_906358" data-name="Trazado 906358" d="M36.121,0,6.159.1A6.18,6.18,0,0,0,0,6.3l.28,80.3a9.6,9.6,0,0,0,9.632,9.566l105.067-.362a5.807,5.807,0,0,0,5.788-5.828l-.26-74.79a5.029,5.029,0,0,0-5.046-5.011l-61.286.211Z" transform="translate(0 0.001)" fill="#f68407"/>
          <path id="Trazado_906359" data-name="Trazado 906359" d="M120.693,65.27l-.18-51.94L.039,13.747l.18,51.94a5.807,5.807,0,0,0,5.828,5.788L114.906,71.1a5.807,5.807,0,0,0,5.788-5.828" transform="translate(0.072 24.712)" fill="#eaab2c"/>
          <path id="Trazado_906360" data-name="Trazado 906360" d="M2.379,17.681l.02,5.788L109.1,23.1l-.02-5.788a9.272,9.272,0,0,0-9.306-9.241L11.62,8.377a9.272,9.272,0,0,0-9.241,9.3" transform="translate(4.41 14.965)" fill="#fff"/>
          <path id="Trazado_906361" data-name="Trazado 906361" d="M39.639,12.326l.026,7.246-4.68.014-.026-7.243a2.34,2.34,0,1,1,4.68-.017" transform="translate(64.808 18.528)" fill="#ffdecb"/>
          <path id="Trazado_906362" data-name="Trazado 906362" d="M35.938,12.338l.026,7.246-4.68.014-.026-7.243a2.34,2.34,0,1,1,4.68-.017" transform="translate(57.947 18.55)" fill="#ffdecb"/>
          <path id="Trazado_906363" data-name="Trazado 906363" d="M32.24,12.351l.023,7.246-4.68.014-.026-7.243a2.342,2.342,0,0,1,4.683-.017" transform="translate(51.086 18.574)" fill="#ffdecb"/>
          <path id="Trazado_906364" data-name="Trazado 906364" d="M28.537,12.364l.026,7.246-4.68.014-.026-7.243a2.34,2.34,0,1,1,4.68-.017" transform="translate(44.227 18.598)" fill="#ffdecb"/>
          <path id="Trazado_906365" data-name="Trazado 906365" d="M24.836,12.377l.026,7.246-4.683.014-.023-7.243a2.34,2.34,0,0,1,4.68-.017" transform="translate(37.366 18.622)" fill="#ffdecb"/>
          <path id="Trazado_906366" data-name="Trazado 906366" d="M21.135,12.39l.026,7.246-4.68.014-.026-7.243a2.34,2.34,0,0,1,4.68-.017" transform="translate(30.505 18.646)" fill="#ffdecb"/>
          <path id="Trazado_906367" data-name="Trazado 906367" d="M17.435,12.4l.026,7.246-4.68.014-.026-7.243a2.34,2.34,0,1,1,4.68-.017" transform="translate(23.646 18.669)" fill="#ffdecb"/>
          <path id="Trazado_906368" data-name="Trazado 906368" d="M13.734,12.415l.026,7.246-4.68.014-.026-7.243a2.34,2.34,0,0,1,4.68-.017" transform="translate(16.785 18.693)" fill="#ffdecb"/>
          <path id="Trazado_906369" data-name="Trazado 906369" d="M10.033,12.428l.026,7.246-4.68.014-.026-7.243a2.34,2.34,0,0,1,4.68-.017" transform="translate(9.924 18.717)" fill="#ffdecb"/>
        </g>
      </g>
    </g>
  </g>
</svg>
