<svg xmlns="http://www.w3.org/2000/svg" xmlns:xlink="http://www.w3.org/1999/xlink" width="372.109" height="567" viewBox="0 0 372.109 567">
  <defs>
    <clipPath id="clip-path">
      <rect id="Rectangle_406373" data-name="Rectangle 406373" width="127.674" height="142.671" fill="none"/>
    </clipPath>
    <clipPath id="clip-path-2">
      <rect id="Rectangle_406363" data-name="Rectangle 406363" width="235.109" height="556.68" fill="none"/>
    </clipPath>
    <clipPath id="clip-path-3">
      <rect id="Rectangle_406374" data-name="Rectangle 406374" width="126.42" height="104.849" fill="none"/>
    </clipPath>
    <clipPath id="clip-path-4">
      <rect id="Rectangle_406375" data-name="Rectangle 406375" width="95.357" height="82.656" fill="#fd9826"/>
    </clipPath>
    <clipPath id="clip-path-5">
      <rect id="Rectangle_406403" data-name="Rectangle 406403" width="161.656" height="202.245" fill="none"/>
    </clipPath>
  </defs>
  <g id="Group_1113478" data-name="Group 1113478" transform="translate(-921.051 -3822)">
    <rect id="Rectangle_405540" data-name="Rectangle 405540" width="372" height="567" transform="translate(921.051 3822)" fill="#008d8e"/>
    <g id="Group_1113470" data-name="Group 1113470" transform="translate(934.876 3861.918)">
      <g id="Group_1113469" data-name="Group 1113469" transform="translate(0 0)" clip-path="url(#clip-path)">
        <path id="Path_907201" data-name="Path 907201" d="M.006,30.094s27.989,114.554,35.3,112.552S124.713,123.169,127.5,117.4,98.981.5,93.17.006-.857,26.6.006,30.094" transform="translate(0 0)" fill="#fd9826"/>
        <path id="Path_907202" data-name="Path 907202" d="M3.537,29.26S29.356,134.373,35.766,132.617s78.452-16.888,80.844-22.136S90.3,3.216,85.183,2.7,2.741,26.053,3.537,29.26" transform="translate(3.46 2.641)" fill="#fff"/>
        <path id="Path_907203" data-name="Path 907203" d="M3.061,30.03Q6.494,44,10.175,57.908c4.464,17.018,9.048,34.029,14.334,50.814a196.306,196.306,0,0,0,6.613,18.666c.857,2,2.5,7.082,5.4,6.7,1.707-.224,3.455-.835,5.132-1.22q4.891-1.12,9.784-2.221c8.947-2.033,17.89-4.094,26.8-6.266,8.757-2.132,17.517-4.32,26.145-6.931,3.017-.913,6.04-1.861,8.957-3.061,1.441-.592,3.558-1.285,4.472-2.663a5.055,5.055,0,0,0,.344-3.237c-.2-2.174-.61-4.336-1.028-6.476-1.356-6.965-3.073-13.863-4.831-20.737-4.5-17.593-9.479-35.088-15.045-52.374-2.081-6.462-4.2-12.94-6.775-19.224C89.674,7.69,88.235,2.384,85.5,2.194a17.382,17.382,0,0,0-4.724.818c-2.893.665-5.763,1.435-8.624,2.219C63.82,7.514,55.542,10,47.293,12.574,38.738,15.239,30.209,18,21.751,20.959c-5.518,1.932-11.334,3.74-16.5,6.522-.974.525-2.4,1.231-2.186,2.55C3.271,31.3,5.206,30.763,5,29.5c.125.764-.273.636.542.127a19.66,19.66,0,0,1,2.087-1.085c2.384-1.119,4.855-2.059,7.319-2.988,7.543-2.841,15.2-5.383,22.869-7.864,14.567-4.71,29.3-9.612,44.267-12.912.818-.18,1.639-.362,2.469-.483.238-.036.348-.022.657-.077s.408.016.321-.01c-.325-.1.145.222.343.5a14.348,14.348,0,0,1,1.083,1.924A122.061,122.061,0,0,1,92.838,21.9c5.538,16.282,10.309,32.843,14.781,49.446,2.063,7.656,4.053,15.336,5.833,23.063,1.095,4.754,2.4,9.652,2.746,14.534.028.388.03,1.445.034,1.406-.048.4,0,.273-.382.542a23.023,23.023,0,0,1-5.547,2.522c-7.28,2.615-14.825,4.544-22.309,6.464-15.839,4.067-31.8,7.587-47.735,11.251-.954.22-1.911.44-2.863.669-.311.075-.634.137-.94.232-.192.061-.677.15-.392.107.261-.04.131.158-.03-.077.117.172-.273-.271-.366-.382a11.332,11.332,0,0,1-1.037-1.6c-2.548-4.542-4.158-9.689-5.813-14.6-5.346-15.844-9.745-32.02-14.071-48.163Q9.938,49.382,5.459,31.361,5.227,30.428,5,29.5c-.309-1.253-2.245-.723-1.936.535" transform="translate(2.967 2.138)" fill="#421b36"/>
        <path id="Path_907204" data-name="Path 907204" d="M17.449,24.888a4.436,4.436,0,0,1-4.589-1.455c-1.744-2.154-3.558-5.407-.542-7.175C17.089,13.461,58.59-.671,59.746,1.994S62.512,12.1,61.037,12.93c-1.263.709-34.045,9.428-43.588,11.958" transform="translate(10.486 1.628)" fill="#421b36"/>
        <path id="Path_907205" data-name="Path 907205" d="M16.4,30.438,65.74,16.929c2.489-.683,1.433-4.558-1.067-3.874Q40,19.814,15.334,26.567c-2.489.683-1.433,4.556,1.067,3.871" transform="translate(13.633 12.713)" fill="#008d8e"/>
        <path id="Path_907206" data-name="Path 907206" d="M13.061,39.292,79.442,21.115a1,1,0,0,0-.535-1.936q-33.19,9.09-66.379,18.177a1,1,0,0,0,.533,1.936" transform="translate(11.58 18.753)" fill="#421b36"/>
        <path id="Path_907207" data-name="Path 907207" d="M14.537,38.076l19.616-5.371a1,1,0,0,0-.533-1.936L14,36.14a1,1,0,0,0,.535,1.936" transform="translate(13.026 30.109)" fill="#421b36"/>
        <path id="Path_907208" data-name="Path 907208" d="M28.17,37.216q20.212-5.536,40.422-11.069a1,1,0,0,0-.533-1.936Q47.848,29.747,27.636,35.28a1,1,0,0,0,.535,1.936" transform="translate(26.383 23.683)" fill="#421b36"/>
        <path id="Path_907209" data-name="Path 907209" d="M19.071,53.645l19.616-5.371a1,1,0,0,0-.533-1.936L18.537,51.709a1,1,0,0,0,.535,1.936" transform="translate(17.468 45.364)" fill="#421b36"/>
        <path id="Path_907210" data-name="Path 907210" d="M32.7,52.785Q52.916,47.25,73.126,41.716a1,1,0,0,0-.533-1.936Q52.382,45.315,32.17,50.849a1,1,0,0,0,.535,1.936" transform="translate(30.826 38.938)" fill="#421b36"/>
        <path id="Path_907211" data-name="Path 907211" d="M16.062,49.426Q49.338,40.315,82.614,31.2a1,1,0,0,0-.533-1.934L15.528,47.49a1,1,0,0,0,.535,1.936" transform="translate(14.52 28.638)" fill="#421b36"/>
        <path id="Path_907212" data-name="Path 907212" d="M17.679,55.118c22.029-6.038,43.9-12.639,65.93-18.678a1,1,0,0,0-.535-1.936c-22.029,6.04-43.9,12.639-65.93,18.678a1,1,0,0,0,.535,1.936" transform="translate(16.104 33.769)" fill="#421b36"/>
        <path id="Path_907213" data-name="Path 907213" d="M20.908,65.536C42.938,59.5,64.809,52.9,86.838,46.858a1,1,0,0,0-.533-1.934C64.276,50.963,42.4,57.561,20.374,63.6a1,1,0,0,0,.535,1.936" transform="translate(19.268 43.978)" fill="#421b36"/>
        <path id="Path_907214" data-name="Path 907214" d="M47.107,60.584l6.607,3a2.09,2.09,0,0,0,2.746-.721l7.816-10.5a2.021,2.021,0,0,0-.721-2.746,2.053,2.053,0,0,0-2.746.721q-3.908,5.247-7.816,10.5,1.375-.359,2.748-.721-3.305-1.5-6.607-3a2.07,2.07,0,0,0-2.748.721,2.024,2.024,0,0,0,.721,2.746" transform="translate(45.198 48.344)" fill="#008d8e"/>
        <path id="Path_907215" data-name="Path 907215" d="M25.842,66.112c2.661.889,5.767,1.043,8.032-.881,1.847-1.572,2.514-4.538.895-6.52a3.788,3.788,0,0,0-5.73-.21c-1.649,1.97-.772,4.783.958,6.363,3.815,3.486,10.778,3.3,12.978-1.907.958-2.265.552-5.439-1.881-6.6a3.463,3.463,0,0,0-4.938,3.227c-.04,2.944,2.693,5.347,5.326,6.1a7.969,7.969,0,0,0,8.044-2.392c.865-.956-.55-2.38-1.42-1.42a5.945,5.945,0,0,1-8.67.356c-.911-.919-2.124-3.209-.471-4.106.895-.485,1.855.3,2.215,1.083a3.546,3.546,0,0,1,.18,2.3c-.818,3.411-4.692,4.373-7.646,3.3-1.457-.531-3.249-1.685-3.514-3.344-.249-1.564,1.18-2.813,2.613-1.839,1.681,1.142.687,3.544-.7,4.423-1.746,1.1-3.886.75-5.736.133-1.229-.41-1.756,1.528-.535,1.936" transform="translate(24.641 54.873)" fill="#a0d2f4"/>
      </g>
    </g>
    <g id="Group_1113417" data-name="Group 1113417" transform="translate(1058.051 3832)">
      <g id="Group_1113416" data-name="Group 1113416" clip-path="url(#clip-path-2)">
        <path id="Path_906953" data-name="Path 906953" d="M161.546,394.629s1.426,17.744,6.652,33.9,7.241,19.193,7.241,19.193,25.2-62.724-13.894-53.1" transform="translate(-152.981 105.043)" fill="#ff9f87"/>
        <path id="Path_906954" data-name="Path 906954" d="M109.525,450.308l-9.736-51.7,90.956,3.085,4.274,48.618Z" transform="translate(-86.328 106.372)" fill="#21191b"/>
        <path id="Path_906955" data-name="Path 906955" d="M50.3,454.09c-7.287-25.549-12.433-43.539-12.433-43.539l97.707-26.115,10.387,69.655Z" transform="translate(41.185 102.591)" fill="#21191b"/>
        <path id="Path_906956" data-name="Path 906956" d="M56.465,451.971l-8.549-57.484a1.844,1.844,0,0,1,3.647-.542l8.63,58.026Z" transform="translate(114.238 104.709)" fill="#3f3538"/>
        <path id="Path_906957" data-name="Path 906957" d="M163.55,468.985A11.09,11.09,0,0,1,154.9,459.8c-4.782-31.221-1.141-91.32,4.6-131.888C170.341,251.209,184.749,140,184.749,140c9.556,51.689,15.41,263.75.716,326.256-7.67,2.987-15.024,4.174-21.915,2.726" transform="translate(-152.688 37.361)" fill="#dee4f0"/>
        <path id="Path_906958" data-name="Path 906958" d="M40.6,409.789q.424-4.422.845-8.911c.109-1.055.2-2.111.3-3.165.275-2.819.551-5.654.817-8.478q.209-2.181.412-4.352c.139-1.524.291-3.042.422-4.552.079-.84.151-1.691.231-2.531.072-.773.143-1.546.2-2.327.171-1.833.332-3.665.475-5.486.051-.475.089-.959.129-1.432s.073-.969.118-1.444q.314-3.772.587-7.463c.091-1.225.18-2.446.26-3.652.072-.983.136-1.957.2-2.928.019-.3.034-.608.057-.911.034-.6.072-1.207.106-1.805.063-.983.124-1.974.175-2.951.041-.839.085-1.677.12-2.5.051-1,.1-1.981.146-2.957q.133-3.079.209-6.033c.08-3.138.118-6.166.1-9.063q-.023-2.375-.1-4.628c-.013-.475-.029-.967-.041-1.461-.023-1.034-.044-2.094-.052-3.186-.038-3.953.008-8.261.109-12.865.022-1.1.049-2.227.085-3.361a1.224,1.224,0,0,1,.009-.18c.019-1.026.051-2.068.086-3.122q.053-1.7.108-3.464a.831.831,0,0,0,.006-.129c.015-.435.032-.868.044-1.307.023-.508.038-1.012.057-1.518.015-.484.044-.963.061-1.438.049-1.41.106-2.835.158-4.272.057-1.409.123-2.831.18-4.264.035-.94.072-1.893.114-2.84.1-2.5.2-5.046.313-7.611.019-.519.035-1.032.057-1.556.013-.422.035-.858.052-1.285q.194-4.684.374-9.466c.03-1,.066-2,.1-3.016.03-.925.072-1.843.1-2.774.029-1,.067-2.009.1-3.009,0-.086.005-.165.005-.245.038-1.229.073-2.463.1-3.692.029-.76.044-1.527.067-2.284.152-5.834.253-11.68.283-17.47q.017-3.046-.01-6.062c0-.378-.006-.754-.006-1.121-.08-11.716.414-25.582.428-35.913.041-32.367,12.848-54.508,41.053-63.653l21.48-6.968a30.951,30.951,0,0,1,22.844,1.521c12.377,5.891,32.273,16.289,47.051,28.511,1.843,1.525,3.607,3.08,5.268,4.658,7.224,6.857,12.475,14.155,13.733,21.461.309,1.794.664,4.431,1.054,7.836.209,1.845.44,3.926.671,6.2,1.548,15.024,3.478,39,5.226,67.018.044.758.1,1.524.139,2.308q.213,3.422.424,6.935c.051.918.1,1.851.158,2.79q.076,1.488.174,2.994.11,1.917.219,3.85c.051,1,.108,2,.165,3.006.044.93.1,1.845.146,2.768.044.811.08,1.628.123,2.439.07,1.337.143,2.679.21,4.032.044.766.079,1.532.113,2.3q.253,4.914.485,9.9.346,7.544.665,15.2c.028.8.067,1.6.1,2.406.063,1.794.13,3.585.193,5.384q.167,4.26.314,8.537c.194,6.048.374,12.1.526,18.124.057,2.6.124,5.185.174,7.763.016.652.023,1.3.035,1.946.038,1.886.066,3.758.111,5.63.005.361.005.716.011,1.07.023,1.248.044,2.492.057,3.744.016,1.378.038,2.745.052,4.11.015,1.454.022,2.9.038,4.336q.032,3.772.034,7.5c.006.9.006,1.784.006,2.673v2.312c0,1.33-.006,2.639-.013,3.954q-.025,5.967-.108,11.724-.044,3.208-.124,6.353c-.015.874-.038,1.742-.057,2.607-.022.9-.044,1.8-.072,2.682-1.092,38.58-4.69,67.382-12.5,71.847-25.3,14.449-138.377,16.161-155.475,7.192-9.618-5.045-7.12-40.76-3.389-80.528m158.636-36.133,8.763-34.461q-6.881-22.534-15.658-43.676Z" transform="translate(-24.454 29.673)" fill="#dee4f0"/>
        <path id="Path_906959" data-name="Path 906959" d="M169.014,355.123a1.742,1.742,0,0,0,.184-3.474,120.009,120.009,0,0,1-40.3-13.834c-19.425-10.721-44.719-31.939-54.912-72.13a1.742,1.742,0,0,0-3.376.856c4.641,18.3,12.691,34.346,23.93,47.7a115.205,115.205,0,0,0,32.8,26.7c21.729,11.962,40.7,14.094,41.492,14.179a1.523,1.523,0,0,0,.186.01" transform="translate(-25.025 70.551)" fill="#98b1bf"/>
        <path id="Path_906960" data-name="Path 906960" d="M129.3,141.921a3.635,3.635,0,1,0,3.934-3.309,3.636,3.636,0,0,0-3.934,3.309" transform="translate(-65.241 36.986)" fill="#98b1bf"/>
        <path id="Path_906961" data-name="Path 906961" d="M130.426,154.925a3.635,3.635,0,1,0,3.935-3.308,3.637,3.637,0,0,0-3.935,3.308" transform="translate(-67.788 40.457)" fill="#98b1bf"/>
        <path id="Path_906962" data-name="Path 906962" d="M131.859,171.5a3.635,3.635,0,1,0,3.934-3.309,3.636,3.636,0,0,0-3.934,3.309" transform="translate(-71.035 44.881)" fill="#98b1bf"/>
        <path id="Path_906963" data-name="Path 906963" d="M97.366,138.366l.066,0c26.111,1.008,46.349-13.825,47.2-14.456a1.445,1.445,0,0,0-1.725-2.32c-.2.148-20.3,14.855-45.36,13.887a1.445,1.445,0,0,0-.177,2.885" transform="translate(-31.776 32.373)" fill="#98b1bf"/>
        <path id="Path_906964" data-name="Path 906964" d="M59.92,435.19a1.445,1.445,0,0,1-1.367-1.916c13.547-39.4,27.362-80.648,34.466-113.935-10.054-34.585-32.647-83.949-54.5-131.689a1.445,1.445,0,0,1,2.627-1.2c21.97,48,44.686,97.629,54.747,132.436a1.431,1.431,0,0,1,.025.7c-7.115,33.508-21.011,75-34.635,114.629a1.447,1.447,0,0,1-1.367.975" transform="translate(90.521 49.53)" fill="#98b1bf"/>
        <path id="Path_906965" data-name="Path 906965" d="M91.512,207.349a1.442,1.442,0,0,1-.813-.251L74.8,196.256a1.445,1.445,0,1,1,1.629-2.388l15.9,10.841a1.446,1.446,0,0,1-.816,2.64" transform="translate(48.191 51.669)" fill="#98b1bf"/>
        <path id="Path_906966" data-name="Path 906966" d="M152.233,382.9a163.243,163.243,0,0,1-42.5-6.135,200.533,200.533,0,0,1-36.823-14.019,1.847,1.847,0,1,1,1.733-3.262c.594.315,60.11,31.411,109.478,14.887a1.847,1.847,0,1,1,1.173,3.5,104.165,104.165,0,0,1-33.06,5.027" transform="translate(-42.567 95.873)" fill="#98b1bf"/>
        <path id="Path_906967" data-name="Path 906967" d="M108.481,393.088c-8.582,0-17.365-.888-24.377-3.565a1.848,1.848,0,0,1,1.318-3.452c19.443,7.424,55.1,0,55.458-.08a1.846,1.846,0,1,1,.768,3.612,179.2,179.2,0,0,1-33.166,3.485" transform="translate(-13.043 102.995)" fill="#98b1bf"/>
        <path id="Path_906968" data-name="Path 906968" d="M2.688,179.508l.019.033c2.961,6.285,5.966,12.761,8.919,19.164l8.812,19.308q8.741,19.328,17.155,38.723c5.579,12.917,11.027,25.868,16.074,38.728,2.508,6.417,4.931,12.826,7.065,19.033,1.06,3.09,2.042,6.135,2.848,8.924.386,1.368.76,2.724.994,3.765.073.3.119.511.165.727l.072.327a.09.09,0,0,1,.006.033v-.02a.1.1,0,0,1,.013-.039c.006-.006.013-.019.02-.019v.065a1.868,1.868,0,0,0,.058.27c0,.366.06.635.046,1.158-.006.243.014.452,0,.727l-.025.831c-.014.544-.086,1.219-.111,1.827l-.2,2.01c-.314,2.769-.806,5.807-1.388,8.911-1.172,6.233-2.736,12.761-4.439,19.315-3.451,13.135-7.537,26.465-11.858,39.757s-8.944,26.609-13.716,39.868q-3.574,9.948-7.288,19.864L22.2,472.69l-3.765,9.783-.132.327a19.939,19.939,0,0,0,36.849,15.21l4.433-9.984,4.329-9.933q4.291-9.938,8.465-19.937C77.938,444.818,83.352,431.4,88.552,417.8s10.174-27.349,14.692-41.616c1.755-5.584,3.445-11.228,4.989-17.1.44-1.657.859-3.327,1.271-5.022.93-3.87,1.794-7.844,2.508-12.126l.5-3.3c.137-1.165.3-2.259.405-3.5l.17-1.834c.053-.614.086-1.3.119-1.951.091-1.257.091-2.769.1-4.19l-.091-2.4-.033-.6-.06-.688-.137-1.368-.079-.688-.085-.622-.152-1c-.1-.668-.2-1.329-.314-1.9-.432-2.469-.91-4.571-1.4-6.666-.983-4.119-2.037-7.909-3.124-11.621a1.645,1.645,0,0,0-.052-.165c-2.155-7.339-4.459-14.338-6.816-21.272C96.2,264.232,91.183,250.633,86.057,237.1s-10.392-26.936-15.734-40.313L62.25,176.758c-2.724-6.685-5.435-13.284-8.256-20.042-.151-.353-.347-.806-.511-1.153a28.078,28.078,0,1,0-50.8,23.945" transform="translate(121.802 37.214)" fill="#dee4f0"/>
        <path id="Path_906969" data-name="Path 906969" d="M58.427,164.262a1.883,1.883,0,0,0,.276.079,1.744,1.744,0,0,0,1.964-1.1c4.386-11.824,10.977-19.355,19.588-22.385,6.917-2.432,14.056-1.577,19.579-.042-1.66-1.58-3.423-3.132-5.266-4.658A33.423,33.423,0,0,0,79.1,137.566c-9.638,3.389-16.938,11.621-21.7,24.457a1.74,1.74,0,0,0,1.026,2.24" transform="translate(62.695 36.246)" fill="#e13139"/>
        <path id="Path_906970" data-name="Path 906970" d="M10.788,325.382c.438-1.657.858-3.326,1.271-5.022.93-3.87,1.794-7.844,2.507-12.126l.5-3.3c.138-1.164.3-2.259.407-3.5l.17-1.833c.052-.616.085-1.3.118-1.951.091-1.258.091-2.771.1-4.191l-.091-2.4-.033-.6-.058-.688-.138-1.368-.079-.688-.085-.622-.151-.994c-.1-.669-.2-1.33-.314-1.905-.432-2.469-.91-4.571-1.4-6.666-.982-4.117-2.036-7.909-3.123-11.621a1.657,1.657,0,0,0-.053-.165c-6.115,12.984-20.067,47.922.452,59.635" transform="translate(219.247 70.917)" fill="#727997"/>
        <path id="Path_906971" data-name="Path 906971" d="M65.839,446.377l-12.278-6.632-.179-.1a7.135,7.135,0,0,1-2.1-10.635c4.473-5.712,12.144-15.378,12.144-15.378,12.9-1.625,22.382,3.581,30.189,12.134,0,0-.024,11.422-3.375,20.609Z" transform="translate(78.47 110.304)" fill="#ff9f87"/>
        <path id="Path_906972" data-name="Path 906972" d="M87.67,443.785c-11.591-8.052-16.394-17.19-16.711-17.811a2.013,2.013,0,0,1,3.584-1.834c.084.162,6.082,11.471,20.94,19.645Z" transform="translate(50.011 112.895)" fill="#3f3538"/>
        <path id="Path_906973" data-name="Path 906973" d="M20.4,297.407a1.847,1.847,0,0,1-.413-3.647l23.393-5.384a1.847,1.847,0,1,1,.827,3.6L20.812,297.36a1.876,1.876,0,0,1-.416.047" transform="translate(165.971 76.944)" fill="#98b1bf"/>
        <path id="Path_906974" data-name="Path 906974" d="M35.617,300.6a1.827,1.827,0,0,1-.692-.136L20.677,294.7a1.846,1.846,0,1,1,1.385-3.423l14.248,5.767a1.847,1.847,0,0,1-.693,3.559" transform="translate(172.912 77.694)" fill="#98b1bf"/>
        <path id="Path_906975" data-name="Path 906975" d="M184.465,61.468s8.919-11.426,5.407-21.984-16.918-11.4-16.918-11.4,2.427-11.612-5.807-15.413-38.88,2.843-55.689-.9C95.565,8.236,91.768,0,91.768,0S79.541,37.794,104.658,41.913s70.309,1.843,79.807,19.555" transform="translate(-68.069 0)" fill="#21191b"/>
        <path id="Path_906976" data-name="Path 906976" d="M97.824,57.592c.526-.38,12.837-9.446,10.077-20.812-2.488-10.248-11.512-12.311-18.762-13.97-.9-.208-1.761-.4-2.592-.611l-.307,1.23c.842.21,1.7.407,2.616.616,7.271,1.662,15.51,3.547,17.813,13.032,2.559,10.538-9.466,19.4-9.588,19.488Z" transform="translate(17.551 5.924)" fill="#21191b"/>
        <path id="Path_906977" data-name="Path 906977" d="M171.495,40.263a18.022,18.022,0,0,0,2.849-.2l-.213-1.249c-.089.015-8.822,1.424-13.79-4.215-4.347-4.934-4.66-13.668-.929-25.957L158.2,8.272c-3.869,12.742-3.466,21.884,1.2,27.169,3.623,4.106,8.877,4.822,12.1,4.822" transform="translate(-136.321 2.207)" fill="#21191b"/>
        <path id="Path_906978" data-name="Path 906978" d="M99.576,136.581s.042.016.133.042a77.162,77.162,0,0,0,11.494,1.662h.067a58.484,58.484,0,0,0,32.6-9.163l-.467-23.774-.5-25.518-5.855,1.788L100.6,92.743,99.91,122.43Z" transform="translate(-34.913 21.303)" fill="#ff9f87"/>
        <path id="Path_906979" data-name="Path 906979" d="M140.739,85.357s-2.483,33.758-30.452,38.073l.755-32.163Z" transform="translate(-45.348 22.778)" fill="#21191b"/>
        <path id="Path_906980" data-name="Path 906980" d="M165.525,51.155s-10.9-6.722-16.118,6.569,6.841,30.24,19.24,27.479c0,0,1.79-27.215-3.122-34.048" transform="translate(-121.551 13.198)" fill="#ff7e6a"/>
        <path id="Path_906981" data-name="Path 906981" d="M163.277,112.833s-12.423-17.969-9.484-48.139c0,0,3.123,23.532,6.731,27.428Z" transform="translate(-122.432 17.264)" fill="#21191b"/>
        <path id="Path_906982" data-name="Path 906982" d="M93.662,79.611c.237,4.391.652,8.836,1.3,13.216.421,2.859.946,5.687,1.59,8.452,2.287,9.85,6.058,18.894,12.038,25.58,11.659,13.03,28.217,7.352,42.355-5.377a98.6,98.6,0,0,0,22.48-30.541v-.01c.744-1.605,1.434-3.2,2.046-4.785a48.071,48.071,0,0,0,3.581-16.359q.025-2.638-.006-5.066c-.022-1.836-.076-3.58-.155-5.249-.054-1.087-.124-2.147-.2-3.165a74.2,74.2,0,0,0-1.425-10.331c-2.677-12.1-8.6-17.894-19.292-22.735-7.787-3.538-20.925-4.723-33.15-3.35A34.494,34.494,0,0,0,98.039,38.285c-.466.868-.878,1.75-1.258,2.66-.006.005-.006.022-.015.032a34.681,34.681,0,0,0-2.553,10.436,209.506,209.506,0,0,0-.551,28.2" transform="translate(-62.3 5.16)" fill="#ff9f87"/>
        <path id="Path_906983" data-name="Path 906983" d="M154.456,66.945c.237,4.391.652,8.836,1.3,13.216a.478.478,0,0,0,.085.005,6.683,6.683,0,0,0,0-13.367,6.806,6.806,0,0,0-1.39.146" transform="translate(-123.094 17.826)" fill="#ff7e6a"/>
        <path id="Path_906984" data-name="Path 906984" d="M120,72.658a6.683,6.683,0,1,0,6.683-6.683A6.683,6.683,0,0,0,120,72.658" transform="translate(-50.285 17.606)" fill="#ff7e6a"/>
        <path id="Path_906985" data-name="Path 906985" d="M143.575,58.288s-11.43-3.217-20.586-1.372c0,0-1.24-8.208,9.157-7.462,7.544.541,12.591,1.655,11.43,8.834" transform="translate(-64.384 13.185)" fill="#21191b"/>
        <path id="Path_906986" data-name="Path 906986" d="M147.7,59.013s10.583-3.432,19.226-2.042c0,0,.859-7.732-8.849-6.65-7.044.784-11.729,2.013-10.377,8.692" transform="translate(-118.651 13.401)" fill="#21191b"/>
        <path id="Path_906987" data-name="Path 906987" d="M112.834,72.074q-.922,2.377-2.043,4.78v.009A24.979,24.979,0,0,1,98.06,80.639c-.329,0-.537-.009-.6-.018a1.3,1.3,0,0,1,.165-2.589c.044,0,.208.009.46.009a22.576,22.576,0,0,0,14.748-5.967" transform="translate(0.344 19.234)" fill="#ff7e6a"/>
        <path id="Path_906988" data-name="Path 906988" d="M100.961,125.733c4.615,8.508,9.921,10.92,26.092,9.672,8.376-.645,17.27-6.39,22.513-13.395a32.311,32.311,0,0,0,5.8-15.661c1-9.176,5.39-37.866,5.537-38.874,4.715-.265,10.3-1.738,15.536-2.754-.008-.9-.03-1.776-.054-2.636-.03-.892-.062-1.761-.1-2.614-.054-1.087-.124-2.15-.2-3.166a73.674,73.674,0,0,0-1.426-10.331c-2.676-12.1-8.594-17.893-19.289-22.733-7.789-3.537-20.927-4.724-33.151-3.351A34.469,34.469,0,0,0,95.795,37.607c-.123.226-.247.45-.364.675a6.649,6.649,0,0,1,.512-.551c6.608-6.407,29.21-3.94,37.075-2.7A6.259,6.259,0,0,1,138.3,41.2a6.172,6.172,0,0,1-.147,1.342,9.562,9.562,0,0,0,.4,5.515c.706,1.823,1.908,3.778,3.84,4.064a11.576,11.576,0,0,1,6.515,2.894c3.979,3.785,2.683,9.71,2.683,9.71s-8.059,30.25-13.108,32.15-9.671-.869-29.124.86c0,0-10.711,1.42-14.606,2.877a1.648,1.648,0,0,0-.807.668c-2.156,3.343,2.785,16.676,7.012,24.455" transform="translate(-59.693 5.16)" fill="#21191b"/>
        <path id="Path_906989" data-name="Path 906989" d="M146.448,99.728a13.588,13.588,0,0,0,4.158-1.463,1.239,1.239,0,0,0-1.263-2.132,11.067,11.067,0,0,1-10.27.127,1.24,1.24,0,0,0-1.164,2.189,12.9,12.9,0,0,0,8.54,1.28" transform="translate(-89.982 25.608)" fill="#3f3538"/>
        <path id="Path_906990" data-name="Path 906990" d="M159.951,85.918s-14.371,3.1-26.091.9c0,0,5.226,10.244,16.085,8.575,8.473-1.3,10.006-9.48,10.006-9.48" transform="translate(-94.424 22.928)" fill="#fff"/>
        <path id="Path_906991" data-name="Path 906991" d="M93.468,37.607a1.859,1.859,0,0,0,.148.125c6.608-6.408,29.209-3.941,37.073-2.7a6.262,6.262,0,0,1,5.283,6.168,6.16,6.16,0,0,1-.147,1.34,9.552,9.552,0,0,0,.4,5.515c.706,1.823,1.908,3.778,3.839,4.065a11.563,11.563,0,0,1,6.515,2.892c12.868,1.566,26.348,6.638,27.481,7.074-.032-.893-.062-1.762-.1-2.615-.054-1.086-.124-2.147-.2-3.163a73.611,73.611,0,0,0-1.428-10.331c-2.676-12.1-8.593-17.893-19.289-22.735-7.787-3.535-20.926-4.723-33.15-3.35A34.468,34.468,0,0,0,93.468,37.607" transform="translate(-57.365 5.16)" fill="#21191b"/>
        <path id="Path_906992" data-name="Path 906992" d="M162.521,32.247s-9.344-1.856-15.1,2.79S140.3,40.65,136.9,40.5c-3.585-.158-2.228-6.832-6.893-6.822s23.289-10.554,32.51-1.43" transform="translate(-91.458 7.615)" fill="#21191b"/>
        <path id="Path_906993" data-name="Path 906993" d="M98.3,50.649s11.974-5.829,14.917,8.146-10.662,26.251-22.836,25.4c0,0,1.941-27.619,7.919-33.541" transform="translate(6.98 13.194)" fill="#ff9f87"/>
        <path id="Path_906994" data-name="Path 906994" d="M97.139,72.356a1.288,1.288,0,0,0,1.238-1.064,21.522,21.522,0,0,1,8.129-13.125,1.29,1.29,0,0,0-1.435-2.144A23.745,23.745,0,0,0,95.836,70.84a1.291,1.291,0,0,0,1.045,1.5,1.186,1.186,0,0,0,.257.02" transform="translate(6.648 14.893)" fill="#ff7e6a"/>
        <path id="Path_906995" data-name="Path 906995" d="M103.068,64.794a1.29,1.29,0,0,0,.57-2.432c-.176-.092-4.354-2.252-7.749-1.627a1.29,1.29,0,0,0,.47,2.538c2.087-.385,5.1.861,6.082,1.376a1.294,1.294,0,0,0,.627.146" transform="translate(10.639 16.177)" fill="#ff7e6a"/>
        <path id="Path_906996" data-name="Path 906996" d="M146.46,85.4a19.892,19.892,0,0,0,4.388-.609,1.4,1.4,0,1,0-.663-2.711,14.421,14.421,0,0,1-4.637.478c.1-2.294,1.648-12.771,3.157-22.085a1.4,1.4,0,0,0-2.755-.447c-.806,4.964-3.412,21.306-3.173,23.218a2.187,2.187,0,0,0,.955,1.542,4.95,4.95,0,0,0,2.728.616" transform="translate(-97.663 15.706)" fill="#ff7e6a"/>
        <path id="Path_906997" data-name="Path 906997" d="M129.238,62.947c-.043,2.424,1.007,4.409,2.346,4.433s2.459-1.922,2.5-4.347-1.007-4.409-2.346-4.433-2.459,1.923-2.5,4.347" transform="translate(-62.704 15.638)" fill="#21191b"/>
        <path id="Path_906998" data-name="Path 906998" d="M152.542,62.947c-.043,2.424,1.008,4.409,2.346,4.433s2.459-1.922,2.5-4.347-1.007-4.409-2.347-4.433-2.458,1.923-2.5,4.347" transform="translate(-115.531 15.638)" fill="#21191b"/>
        <path id="Path_906999" data-name="Path 906999" d="M173.3,66.671c0-7.825-5.776-14.191-12.875-14.191s-12.874,6.366-12.874,14.191,5.774,14.191,12.874,14.191S173.3,74.5,173.3,66.671m-1.653,0c0,6.913-5.035,12.538-11.222,12.538s-11.222-5.625-11.222-12.538,5.035-12.538,11.222-12.538,11.222,5.625,11.222,12.538" transform="translate(-125.129 14.005)" fill="#fff"/>
        <path id="Path_907000" data-name="Path 907000" d="M148.141,66.671c0-7.825-5.776-14.191-12.875-14.191s-12.874,6.366-12.874,14.191,5.774,14.191,12.874,14.191,12.875-6.366,12.875-14.191m-1.653,0c0,6.913-5.035,12.538-11.222,12.538s-11.222-5.625-11.222-12.538,5.035-12.538,11.222-12.538,11.222,5.625,11.222,12.538" transform="translate(-68.085 14.005)" fill="#fff"/>
        <path id="Path_907001" data-name="Path 907001" d="M127.771,52.947a33.232,33.232,0,0,0-13.726,6.585c-.688.56-1.083.94-1.157,1.012l1.157,1.182c.015-.015.256-.247.7-.621a32.359,32.359,0,0,1,12.983-6.429Z" transform="translate(-35.675 14.129)" fill="#fff"/>
        <path id="Path_907002" data-name="Path 907002" d="M151.521,59.573c-4.58-3.95-10.041-.408-10.272-.256l-.917-1.376c.066-.043,6.73-4.4,12.268.381Z" transform="translate(-95.272 14.967)" fill="#fff"/>
        <path id="Path_907003" data-name="Path 907003" d="M95.191,281a.948.948,0,0,0,.912-.687c.092-.322,9.406-32.529,23.13-68.483,18.127-47.49,35.675-79.912,50.747-93.765a.95.95,0,1,0-1.286-1.4c-8.551,7.86-17.787,21.344-27.45,40.08a543.906,543.906,0,0,0-23.79,54.419c-11.063,28.983-19.265,55.537-22.1,64.98-8.784-44.2-4.965-84.32-.113-110.48,5.407-29.154,13.226-47.743,13.3-47.927a.951.951,0,0,0-1.75-.744c-.079.185-7.966,18.923-13.414,48.266a309.979,309.979,0,0,0-5.2,51.924,282.653,282.653,0,0,0,6.072,63.064.952.952,0,0,0,.9.751h.033" transform="translate(-46.863 31.067)" fill="#fff"/>
        <path id="Path_907004" data-name="Path 907004" d="M170.941,303.819H130.135a1.949,1.949,0,0,1-1.948-1.948V243.359a1.949,1.949,0,0,1,1.948-1.948h40.806a1.949,1.949,0,0,1,1.948,1.948v58.511a1.949,1.949,0,0,1-1.948,1.948" transform="translate(-100.175 64.423)" fill="#f5f2ee"/>
        <path id="Path_907005" data-name="Path 907005" d="M160.692,250.464H135.843a.545.545,0,1,1,0-1.091h24.849a.545.545,0,1,1,0,1.091" transform="translate(-97.532 66.548)" fill="#e6d7d4"/>
        <path id="Path_907006" data-name="Path 907006" d="M160.692,257.353H135.843a.545.545,0,1,1,0-1.091h24.849a.545.545,0,1,1,0,1.091" transform="translate(-97.532 68.386)" fill="#e6d7d4"/>
        <path id="Path_907007" data-name="Path 907007" d="M160.692,264.146H135.843a.545.545,0,1,1,0-1.091h24.849a.545.545,0,1,1,0,1.091" transform="translate(-97.532 70.199)" fill="#e6d7d4"/>
        <path id="Path_907008" data-name="Path 907008" d="M131.157,299.991h37.431a.475.475,0,0,0,.475-.475V244.382a.475.475,0,0,0-.475-.475H131.157a.475.475,0,0,0-.475.475v55.134a.475.475,0,0,0,.475.475m36.956-.95H131.633V244.856h36.479Z" transform="translate(-99.51 65.089)" fill="#e6d7d4"/>
      </g>
    </g>
    <g id="Group_1113472" data-name="Group 1113472" transform="translate(1145.63 3938.918)">
      <g id="Group_1113471" data-name="Group 1113471" transform="translate(0 0)" clip-path="url(#clip-path-3)">
        <path id="Path_907216" data-name="Path 907216" d="M113.785,103.432C107.459,107.623,13.436,87.978,3.159,83.11.7,81.942.092,76.723.6,69.446l0-.007C1.751,53.048,8.527,26.254,12.422,11.866l0-.013c1.6-5.889,2.708-9.694,2.757-9.862C17.49-6.3,118.1,20.756,123.792,25.114c1.159.878,1.691,4.5,1.751,9.72a216.958,216.958,0,0,1-1.893,26.639c-2.375,19.42-6.542,39.754-9.865,41.959" transform="translate(0.217 0.21)" fill="#fff"/>
        <path id="Path_907217" data-name="Path 907217" d="M121.561,34.834C73.709,20.487,9.382,13.152,8.44,11.866l0-.012c1.6-5.89,2.706-9.7,2.757-9.864C13.507-6.3,114.119,20.758,119.809,25.114c1.161.879,1.692,4.5,1.752,9.72" transform="translate(4.199 0.21)" fill="#fd9826"/>
        <path id="Path_907218" data-name="Path 907218" d="M20.206,8.136A3.513,3.513,0,1,1,19.048,3.3a3.516,3.516,0,0,1,1.158,4.833" transform="translate(6.817 1.385)" fill="#fff"/>
        <path id="Path_907219" data-name="Path 907219" d="M109.876,104.85c-10.936,0-37.4-4.9-49.831-7.331C33.12,92.261,8.1,86.284,3.1,83.911.535,82.7-.422,78.02.169,69.612l.016-.18C1.36,53.067,8.047,26.546,11.968,12.057l.039-.165c1.514-5.571,2.642-9.48,2.76-9.877A2.443,2.443,0,0,1,16.549.483C28.9-3.661,118.277,20.115,124.4,24.806c.816.619,1.917,2.354,2.008,10.231a216.112,216.112,0,0,1-1.9,26.728c-2.287,18.706-6.442,39.961-10.151,42.423-.7.461-2.276.663-4.487.663M1.459,69.875c-.645,9.453.834,12.212,2.2,12.855,11.4,5.4,104.535,23.979,109.986,20.368,2.748-1.824,6.955-20.049,9.578-41.493a215.422,215.422,0,0,0,1.89-26.552c-.087-7.355-1.074-8.89-1.495-9.209C117.837,21.421,28.514-2.135,16.961,1.72c-.539.18-.873.413-.941.656-.01.039-1.105,3.8-2.714,9.711l-.039.159C9.353,26.706,2.612,53.4,1.477,69.7Z" transform="translate(0 0)" fill="#421b36"/>
        <path id="Path_907220" data-name="Path 907220" d="M9.647,31.765C5.79,41.947,3.785,52.073,4.2,62.12c-.851,4,102.958,23.214,106.121,18.447,2.02-3.046,7.551-47.719,6.686-46.657L83.449,55.6s-5.3-7.718-6.018-7.789-12.245,5.971-12.245,5.971L53.571,31.624l-31.137,17.9Z" transform="translate(2.062 15.738)" fill="#a0d2f4"/>
        <path id="Path_907221" data-name="Path 907221" d="M11.5,64.622c1.556-8.817,2.275-17.828,3.157-26.734.1-1.044-1.529-1.036-1.631,0-.867,8.76-1.57,17.628-3.1,26.3-.181,1.027,1.391,1.468,1.574.434" transform="translate(4.931 18.468)" fill="#fff"/>
        <path id="Path_907222" data-name="Path 907222" d="M20.322,64.921c.828-7.8,2.053-15.571,3.205-23.329.153-1.027-1.42-1.471-1.574-.434-1.173,7.9-2.42,15.818-3.262,23.764-.111,1.044,1.522,1.035,1.631,0" transform="translate(9.299 20.189)" fill="#fff"/>
        <path id="Path_907223" data-name="Path 907223" d="M32.133,33.742c-2.32,12.031-3.788,24.228-5.724,36.323-.165,1.027,1.408,1.469,1.574.434,1.936-12.1,3.4-24.292,5.724-36.323.2-1.026-1.375-1.466-1.574-.434" transform="translate(13.137 16.499)" fill="#fff"/>
        <path id="Path_907224" data-name="Path 907224" d="M45.525,44.388c-1.287,8.221-1.817,16.545-3.121,24.761-.163,1.027,1.409,1.471,1.574.434,1.3-8.218,1.835-16.542,3.121-24.761.16-1.027-1.412-1.471-1.574-.434" transform="translate(21.098 21.797)" fill="#fff"/>
        <path id="Path_907225" data-name="Path 907225" d="M39.349,37.748C38.174,48.64,36.391,59.527,34.66,70.342c-.165,1.027,1.408,1.469,1.574.434,1.754-10.96,3.557-21.99,4.748-33.028.112-1.042-1.52-1.035-1.632,0" transform="translate(17.243 18.398)" fill="#fff"/>
        <path id="Path_907226" data-name="Path 907226" d="M54.672,42.377c-1.558,10.442-2.762,20.957-3.728,31.469-.1,1.045,1.537,1.039,1.632,0,.953-10.367,2.133-20.738,3.669-31.035.153-1.027-1.42-1.471-1.574-.434" transform="translate(25.352 20.796)" fill="#fff"/>
        <path id="Path_907227" data-name="Path 907227" d="M61.554,74.062C63.08,64.261,64.22,54.4,65.8,44.61c.166-1.027-1.4-1.469-1.573-.433-1.586,9.792-2.724,19.65-4.252,29.45-.16,1.027,1.412,1.471,1.574.434" transform="translate(29.845 21.692)" fill="#fff"/>
        <path id="Path_907228" data-name="Path 907228" d="M69.718,79.058c1.925-13.771,4.544-27.437,6.467-41.21.144-1.027-1.427-1.471-1.573-.433-1.925,13.771-4.544,27.437-6.468,41.209-.142,1.027,1.429,1.472,1.574.434" transform="translate(33.909 18.326)" fill="#fff"/>
        <path id="Path_907229" data-name="Path 907229" d="M4.2,49.5c27.783,4.891,55.6,9.627,83.391,14.45Q99.3,65.976,111,68.034c1.024.181,1.466-1.391.431-1.574-27.785-4.891-55.6-9.626-83.392-14.448q-11.709-2.033-23.41-4.09C3.6,47.742,3.161,49.315,4.2,49.5" transform="translate(1.794 23.842)" fill="#fff"/>
        <path id="Path_907230" data-name="Path 907230" d="M5.289,41.183c28.176,4.959,56.419,9.524,84.625,14.309q11.686,1.981,23.361,4.03c1.026.181,1.468-1.391.433-1.574C85.531,52.99,57.288,48.426,29.082,43.64Q17.4,41.657,5.723,39.609C4.7,39.429,4.255,41,5.289,41.183" transform="translate(2.339 19.705)" fill="#fff"/>
        <path id="Path_907231" data-name="Path 907231" d="M66.653,42.811c5.908,1.084,11.748,2.5,17.665,3.545,1.027.181,1.468-1.391.434-1.574C78.835,43.737,73,42.323,67.087,41.237c-1.027-.187-1.468,1.384-.434,1.574" transform="translate(32.878 20.515)" fill="#fff"/>
        <path id="Path_907232" data-name="Path 907232" d="M30.6,36.471q8.164,1.438,16.32,2.911c1.027.186,1.468-1.387.434-1.574Q39.2,36.332,31.033,34.9c-1.027-.18-1.468,1.391-.434,1.574" transform="translate(14.935 17.36)" fill="#fff"/>
        <path id="Path_907233" data-name="Path 907233" d="M98.935,32.2,65.457,48.625S51.777,25.32,51.476,24.7c-.987-2.046-34.535,17.518-34.535,17.518s-3.618-3.672-3.13-4.888,34-18.113,37.861-18.084S67.943,43.112,67.943,43.112,93.9,28.378,96.1,29.544A6.232,6.232,0,0,1,98.935,32.2" transform="translate(6.851 9.575)" fill="#ffc94a"/>
        <path id="Path_907234" data-name="Path 907234" d="M66.864,25.735,72.346,32.7a1.224,1.224,0,0,0,1.995-.1c1.617-2.519,4.649-7.592,3.627-8.722-.991-1.1-7.032-.512-10.307-.1a1.212,1.212,0,0,0-.8,1.956" transform="translate(33.146 11.571)" fill="#8380ff"/>
        <path id="Path_907235" data-name="Path 907235" d="M82.762,56.856,76.32,47.212l-12.368,9-12.3-23.38L20.6,50.684,7.465,32.445l1.057-.762L20.966,48.965,52.181,31.021,64.406,54.265l12.245-8.91,6.458,9.671L115.14,32.754l.744,1.071Z" transform="translate(3.715 15.438)" fill="#421b36"/>
        <path id="Path_907236" data-name="Path 907236" d="M41.829,33.024a3.683,3.683,0,1,1-2.989-4.267,3.685,3.685,0,0,1,2.989,4.267" transform="translate(17.178 14.283)" fill="#fd9826"/>
        <path id="Path_907237" data-name="Path 907237" d="M57.129,43.3A2.629,2.629,0,1,1,55,40.255,2.628,2.628,0,0,1,57.129,43.3" transform="translate(25.835 20.014)" fill="#fd9826"/>
        <path id="Path_907238" data-name="Path 907238" d="M61.319,48.989a2.629,2.629,0,1,1-2.133-3.045,2.628,2.628,0,0,1,2.133,3.045" transform="translate(27.92 22.845)" fill="#fd9826"/>
        <path id="Path_907239" data-name="Path 907239" d="M82.962,34.48a2.629,2.629,0,1,1-2.133-3.045,2.628,2.628,0,0,1,2.133,3.045" transform="translate(38.691 15.624)" fill="#fd9826"/>
        <path id="Path_907240" data-name="Path 907240" d="M48.365,47.748A2.629,2.629,0,1,1,46.232,44.7a2.628,2.628,0,0,1,2.133,3.045" transform="translate(21.473 22.228)" fill="#fd9826"/>
        <path id="Path_907241" data-name="Path 907241" d="M20.924,43.719a3.021,3.021,0,1,1-2.452-3.5,3.021,3.021,0,0,1,2.452,3.5" transform="translate(7.429 19.993)" fill="#fd9826"/>
        <path id="Path_907242" data-name="Path 907242" d="M12.5,32.938a3.021,3.021,0,1,1-2.452-3.5,3.021,3.021,0,0,1,2.452,3.5" transform="translate(3.234 14.628)" fill="#fd9826"/>
      </g>
    </g>
    <g id="Group_1113474" data-name="Group 1113474" transform="translate(962.372 4038.344)">
      <g id="Group_1113473" data-name="Group 1113473" transform="translate(0 0)" clip-path="url(#clip-path-4)">
        <path id="Path_907243" data-name="Path 907243" d="M76.764,81.725C72.571,81.576,6.885,63.653.958,58.062c-2.759-2.6,9.2-34.813,14.757-49.643.106-.3.209-.586.32-.872C17.59,3.4,18.632.775,18.632.775c1.131-2.9,70.239,20.89,75.034,23.878,1.065.668.939,3.681.055,8.012q-.1.493-.215,1.012c-3.428,15.549-15.429,48.1-16.743,48.048" transform="translate(0.207 0.2)" fill="#fff"/>
        <path id="Path_907244" data-name="Path 907244" d="M89.367,33.676,67.419,26.549,11.575,8.418c.106-.3.209-.586.322-.872C13.45,3.4,14.494.775,14.494.775c1.129-2.9,70.238,20.89,75.034,23.878,1.063.667.938,3.681.054,8.012q-.1.493-.215,1.011" transform="translate(4.345 0.2)" fill="#fd9826"/>
        <path id="Path_907245" data-name="Path 907245" d="M16.2,11.288s-3.8,9.434-3.406,10.206,9.767,3.908,10.534,2.96,3.327-8.943,3-9.51c-1.048-1.8-8.356-3.72-10.124-3.656" transform="translate(4.792 4.237)" fill="#a0d2f4"/>
        <path id="Path_907246" data-name="Path 907246" d="M26.07,14.493s-3.8,9.434-3.406,10.206S32.432,28.606,33.2,27.66s3.327-8.944,3-9.511c-1.048-1.8-8.356-3.72-10.124-3.656" transform="translate(8.498 5.441)" fill="#a0d2f4"/>
        <path id="Path_907247" data-name="Path 907247" d="M35.94,17.7s-3.8,9.434-3.406,10.206,9.767,3.906,10.534,2.96,3.327-8.943,3-9.511c-1.048-1.795-8.356-3.719-10.124-3.654" transform="translate(12.203 6.643)" fill="#a0d2f4"/>
        <path id="Path_907248" data-name="Path 907248" d="M45.81,20.9s-3.8,9.434-3.406,10.206,9.767,3.906,10.534,2.96,3.327-8.943,3-9.511c-1.048-1.795-8.356-3.719-10.124-3.654" transform="translate(15.908 7.847)" fill="#fd9826"/>
        <path id="Path_907249" data-name="Path 907249" d="M55.68,24.107s-3.8,9.434-3.406,10.206,9.767,3.908,10.534,2.96,3.327-8.943,3-9.511c-1.048-1.795-8.356-3.719-10.124-3.654" transform="translate(19.614 9.05)" fill="#a0d2f4"/>
        <path id="Path_907250" data-name="Path 907250" d="M12.8,21.75S9,31.184,9.4,31.956s9.767,3.908,10.534,2.96,3.327-8.943,3-9.51c-1.048-1.8-8.356-3.72-10.124-3.656" transform="translate(3.517 8.165)" fill="#fd9826"/>
        <path id="Path_907251" data-name="Path 907251" d="M22.673,24.955s-3.8,9.434-3.406,10.206,9.767,3.908,10.534,2.961,3.327-8.944,3-9.511c-1.048-1.8-8.356-3.72-10.124-3.656" transform="translate(7.223 9.368)" fill="#a0d2f4"/>
        <path id="Path_907252" data-name="Path 907252" d="M32.543,28.16s-3.8,9.434-3.406,10.206,9.767,3.908,10.534,2.961,3.327-8.944,3-9.511c-1.048-1.8-8.356-3.72-10.124-3.656" transform="translate(10.928 10.571)" fill="#a0d2f4"/>
        <path id="Path_907253" data-name="Path 907253" d="M42.413,31.365s-3.8,9.434-3.406,10.206,9.767,3.906,10.534,2.96,3.327-8.943,3-9.511c-1.048-1.795-8.356-3.719-10.124-3.654" transform="translate(14.633 11.774)" fill="#a0d2f4"/>
        <path id="Path_907254" data-name="Path 907254" d="M52.285,34.569S48.484,44,48.878,44.775s9.768,3.908,10.534,2.96,3.327-8.943,3-9.511c-1.049-1.795-8.357-3.719-10.124-3.654" transform="translate(18.338 12.977)" fill="#fd9826"/>
        <path id="Path_907255" data-name="Path 907255" d="M9.405,32.213S5.606,41.647,6,42.419s9.767,3.908,10.534,2.96,3.327-8.943,3-9.51c-1.048-1.8-8.356-3.72-10.124-3.656" transform="translate(2.242 12.093)" fill="#a0d2f4"/>
        <path id="Path_907256" data-name="Path 907256" d="M19.276,35.417s-3.8,9.434-3.406,10.206,9.767,3.908,10.534,2.96,3.327-8.943,3-9.51c-1.048-1.8-8.356-3.72-10.124-3.656" transform="translate(5.947 13.296)" fill="#a0d2f4"/>
        <path id="Path_907257" data-name="Path 907257" d="M29.146,38.622s-3.8,9.434-3.406,10.206,9.767,3.908,10.534,2.961,3.327-8.944,3-9.511c-1.048-1.8-8.356-3.72-10.124-3.656" transform="translate(9.653 14.499)" fill="#fd9826"/>
        <path id="Path_907258" data-name="Path 907258" d="M39.016,41.827s-3.8,9.434-3.406,10.206,9.767,3.908,10.534,2.961,3.327-8.944,3-9.511c-1.048-1.8-8.356-3.72-10.124-3.656" transform="translate(13.358 15.702)" fill="#a0d2f4"/>
        <path id="Path_907259" data-name="Path 907259" d="M48.888,45.032s-3.8,9.434-3.407,10.206,9.768,3.906,10.534,2.96,3.327-8.943,3-9.511c-1.048-1.795-8.356-3.719-10.124-3.654" transform="translate(17.063 16.905)" fill="#a0d2f4"/>
        <path id="Path_907260" data-name="Path 907260" d="M20.949,6.474a2.8,2.8,0,1,1-1.8-3.531,2.8,2.8,0,0,1,1.8,3.531" transform="translate(5.811 1.054)" fill="#a0d2f4"/>
        <path id="Path_907261" data-name="Path 907261" d="M26.643,8.322a2.8,2.8,0,1,1-1.8-3.531,2.8,2.8,0,0,1,1.8,3.531" transform="translate(7.949 1.747)" fill="#a0d2f4"/>
        <path id="Path_907262" data-name="Path 907262" d="M76.97,81.2a36.686,36.686,0,0,1-5.84-1.238c-4.07-.989-8.12-2.059-12.163-3.151-10.632-2.872-21.221-5.92-31.728-9.219-4.753-1.492-9.493-3.034-14.18-4.723a72.562,72.562,0,0,1-9.569-3.953c-.605-.323-1.7-.867-1.888-1.3-.454-1.026.01-2.809.2-3.88A119.991,119.991,0,0,1,6.24,37.872C10.255,25.615,15.061,13.666,19.4,1.529c.194-.545.087-.109.014-.124-.131-.029-.157.007-.026.065a4.062,4.062,0,0,1,.734.006,20.618,20.618,0,0,1,3.022.5c3.522.756,7,1.754,10.45,2.762,9.954,2.9,19.81,6.155,29.625,9.494,8.508,2.9,17.022,5.828,25.391,9.111,1.132.446,2.265.893,3.379,1.386,1.041.461,1.748.638,1.886,1.919.363,3.4-.827,7.094-1.663,10.371-.747,2.931-1.584,5.837-2.462,8.73-1.935,6.381-4.064,12.7-6.323,18.975C81.7,69.52,79.97,74.351,77.849,78.987c-.261.572-.525,1.147-.834,1.7a2.5,2.5,0,0,0-.315.525c-.037.175-.245.04.27-.011-.924.091-.933,1.547,0,1.455s1.37-1.333,1.719-2.047c.855-1.745,1.587-3.557,2.312-5.36C83.35,69.4,85.469,63.462,87.491,57.5c2.181-6.434,4.264-12.918,5.972-19.495a45.07,45.07,0,0,0,1.893-10.338c.03-1.678-.252-3.047-1.8-3.807-2.441-1.2-5.045-2.118-7.585-3.078-4.29-1.62-8.607-3.166-12.933-4.687C62.591,12.422,52.085,8.9,41.508,5.611c-4.4-1.364-8.807-2.7-13.256-3.879A42.9,42.9,0,0,0,20.121.02a2.19,2.19,0,0,0-1.772.395A5.661,5.661,0,0,0,17.59,2.18c-.75,1.93-1.5,3.862-2.212,5.8-2.231,6.039-4.492,12.066-6.646,18.135-2.275,6.411-4.5,12.852-6.387,19.389C1.638,47.952.963,50.418.483,52.919a12.588,12.588,0,0,0-.367,4.725C.54,59.7,3.7,60.681,5.364,61.409c3.884,1.7,7.9,3.1,11.908,4.466,10.833,3.676,21.821,6.907,32.832,10,8.18,2.3,16.4,4.7,24.723,6.426a13.811,13.811,0,0,0,2.143.351c.937.043.934-1.413,0-1.455" transform="translate(0 0)" fill="#421b36"/>
      </g>
    </g>
    <g id="Group_1113477" data-name="Group 1113477" transform="translate(934.876 4156)">
      <path id="Path_907263" data-name="Path 907263" d="M.281,16.166.4,202.064H146.368l.062-185.9Z" fill="#fff"/>
      <rect id="Rectangle_406376" data-name="Rectangle 406376" width="146.149" height="35.777" transform="translate(0.219 15.502)" fill="#f5f5f5"/>
      <rect id="Rectangle_406377" data-name="Rectangle 406377" width="55.695" height="9.012" transform="translate(7.521 45.87)" fill="#e8505b"/>
      <rect id="Rectangle_406378" data-name="Rectangle 406378" width="130.571" height="12.943" transform="translate(7.521 90.755)" fill="#fafafa"/>
      <rect id="Rectangle_406379" data-name="Rectangle 406379" width="130.571" height="12.944" transform="translate(7.521 103.681)" fill="#e0e0e0"/>
      <rect id="Rectangle_406380" data-name="Rectangle 406380" width="0.25" height="2.368" transform="translate(13.479 48.909)" fill="#fff"/>
      <g id="Group_1113476" data-name="Group 1113476">
        <g id="Group_1113475" data-name="Group 1113475" clip-path="url(#clip-path-5)">
          <path id="Path_907264" data-name="Path 907264" d="M16.088,50.246v1.032h-.24V50.27a.5.5,0,0,0-.535-.568.583.583,0,0,0-.622.642v.934h-.24V49.5h.23v.329a.745.745,0,0,1,.676-.342.681.681,0,0,1,.731.761" fill="#fff"/>
          <path id="Path_907265" data-name="Path 907265" d="M18.2,49.5l-.791,1.779h-.247L16.376,49.5h.251l.666,1.515.673-1.515Z" fill="#fff"/>
          <path id="Path_907266" data-name="Path 907266" d="M18.313,50.388a.9.9,0,1,1,.907.907.875.875,0,0,1-.907-.907m1.566,0a.662.662,0,1,0-.659.694.649.649,0,0,0,.659-.694" fill="#fff"/>
          <path id="Path_907267" data-name="Path 907267" d="M20.56,48.937a.174.174,0,0,1,.176-.17.171.171,0,0,1,.176.166.176.176,0,0,1-.352,0m.054.561h.24v1.779h-.24Z" fill="#fff"/>
          <path id="Path_907268" data-name="Path 907268" d="M21.345,50.388a.876.876,0,0,1,.917-.9.776.776,0,0,1,.7.352l-.18.121a.6.6,0,0,0-.517-.263.694.694,0,0,0,0,1.387.6.6,0,0,0,.517-.261l.18.122a.785.785,0,0,1-.7.352.879.879,0,0,1-.917-.907" fill="#fff"/>
          <path id="Path_907269" data-name="Path 907269" d="M24.948,50.463H23.46a.659.659,0,0,0,.7.619.7.7,0,0,0,.545-.234L24.84,51a.94.94,0,0,1-1.62-.616.857.857,0,0,1,.869-.9.848.848,0,0,1,.863.9c0,.021,0,.048,0,.075m-1.488-.18h1.262a.632.632,0,0,0-1.262,0" fill="#fff"/>
          <path id="Path_907270" data-name="Path 907270" d="M28.634,49.738l-.088.711h.48v.185h-.5l-.078.643h-.182l.078-.643h-.694l-.081.643h-.183l.078-.643h-.48v-.185h.5l.089-.711h-.484v-.186h.507l.078-.643h.186l-.081.643h.7l.078-.643h.182l-.078.643h.477v.186Zm-.183,0h-.693l-.092.711h.7Z" fill="#fff"/>
          <path id="Path_907271" data-name="Path 907271" d="M30.98,50.6c0,.4-.288.7-.859.7a1.233,1.233,0,0,1-.853-.3l.119-.193a1.037,1.037,0,0,0,.734.274c.392,0,.609-.183.609-.477s-.2-.47-.64-.47h-.169v-.18l.656-.822H29.366V48.91h1.523v.172l-.67.843c.507.027.761.294.761.673" fill="#fff"/>
          <path id="Path_907272" data-name="Path 907272" d="M33.335,50.655h-.474v.622h-.243v-.622H31.281v-.176l1.256-1.569h.27L31.6,50.439h1.028v-.548h.237v.548h.474Z" fill="#fff"/>
          <path id="Path_907273" data-name="Path 907273" d="M35.153,50.58c0,.4-.281.718-.859.718a1.221,1.221,0,0,1-.849-.305l.118-.193a1.026,1.026,0,0,0,.727.274c.4,0,.616-.2.616-.484,0-.3-.189-.493-.792-.493h-.5l.121-1.188h1.3v.217H33.945l-.081.754h.305c.713,0,.984.281.984.7" fill="#fff"/>
          <path id="Path_907274" data-name="Path 907274" d="M37.241,50.57a.738.738,0,0,1-.808.728c-.63,0-.971-.437-.971-1.184,0-.806.44-1.225,1.082-1.225a1.082,1.082,0,0,1,.562.129l-.1.2a.834.834,0,0,0-.46-.112c-.511,0-.839.329-.839.971,0,.054,0,.122.01.193a.756.756,0,0,1,.724-.406.716.716,0,0,1,.8.71m-.24.007c0-.311-.23-.511-.6-.511a.548.548,0,0,0-.609.518c0,.26.216.507.625.507A.518.518,0,0,0,37,50.577" fill="#fff"/>
          <path id="Path_907275" data-name="Path 907275" d="M39.14,51.061v.217H37.479V51.1l.984-.964c.267-.264.318-.423.318-.585,0-.274-.193-.443-.555-.443a.8.8,0,0,0-.646.264l-.172-.15a1.064,1.064,0,0,1,.839-.337c.48,0,.785.243.785.639a.978.978,0,0,1-.389.741l-.806.791Z" fill="#fff"/>
          <rect id="Rectangle_406381" data-name="Rectangle 406381" width="1.413" height="7.606" transform="translate(89.114 30.013)" fill="#263238"/>
          <path id="Path_907276" data-name="Path 907276" d="M99.341,30.013v7.606H98.178l-4.194-5.15v5.15h-1.4V30.013h1.162l4.195,5.15v-5.15Z" fill="#263238"/>
          <path id="Path_907277" data-name="Path 907277" d="M108.288,30.013l-3.315,7.606h-1.391l-3.324-7.606h1.532l2.531,5.867,2.554-5.867Z" fill="#263238"/>
          <path id="Path_907278" data-name="Path 907278" d="M108.476,33.816a4.1,4.1,0,1,1,4.1,3.912,3.9,3.9,0,0,1-4.1-3.912m6.77,0a2.673,2.673,0,1,0-2.673,2.673,2.593,2.593,0,0,0,2.673-2.673" fill="#263238"/>
          <rect id="Rectangle_406382" data-name="Rectangle 406382" width="1.413" height="7.606" transform="translate(118.173 30.013)" fill="#263238"/>
          <path id="Path_907279" data-name="Path 907279" d="M121.1,33.816a4.113,4.113,0,0,1,7.083-2.64l-.911.858a2.677,2.677,0,0,0-2.032-.891,2.673,2.673,0,1,0,0,5.346,2.649,2.649,0,0,0,2.032-.9l.911.869a4.113,4.113,0,0,1-7.083-2.64" fill="#263238"/>
          <path id="Path_907280" data-name="Path 907280" d="M135.249,36.435v1.184h-5.705V30.013H135.1V31.2h-4.14v1.978h3.673v1.163h-3.673v2.1Z" fill="#263238"/>
          <path id="Path_907281" data-name="Path 907281" d="M116.354,61.931a12.046,12.046,0,0,1-4.573,0,12.046,12.046,0,0,1,4.573,0" fill="#263238"/>
          <path id="Path_907282" data-name="Path 907282" d="M117.156,63.839a5.392,5.392,0,0,1,.56-2.071,5.388,5.388,0,0,1,.968-1.914,5.4,5.4,0,0,1-.56,2.071,5.4,5.4,0,0,1-.968,1.914" fill="#263238"/>
          <path id="Path_907283" data-name="Path 907283" d="M123.037,61.931c0,.121-.761.219-1.7.219s-1.7-.1-1.7-.219.761-.219,1.7-.219,1.7.1,1.7.219" fill="#263238"/>
          <path id="Path_907284" data-name="Path 907284" d="M124.435,63.373a3.979,3.979,0,0,1,.422-1.782c.346-.943.719-1.673.832-1.631a3.968,3.968,0,0,1-.422,1.782c-.346.942-.719,1.673-.832,1.631" fill="#263238"/>
          <path id="Path_907285" data-name="Path 907285" d="M133,61.931a13.39,13.39,0,0,1-3.4.219,13.388,13.388,0,0,1-3.4-.219,13.388,13.388,0,0,1,3.4-.219,13.39,13.39,0,0,1,3.4.219" fill="#263238"/>
          <rect id="Rectangle_406383" data-name="Rectangle 406383" width="130.571" height="9.013" transform="translate(7.521 81.742)" fill="#e8505b"/>
          <path id="Path_907286" data-name="Path 907286" d="M46.816,97.908c0,.121-6.276.219-14.015.219s-14.017-.1-14.017-.219,6.274-.219,14.017-.219,14.015.1,14.015.219"/>
          <path id="Path_907287" data-name="Path 907287" d="M92.667,98.206a42.842,42.842,0,0,1-6.113.219,42.851,42.851,0,0,1-6.114-.219,42.851,42.851,0,0,1,6.114-.219,42.842,42.842,0,0,1,6.113.219"/>
          <path id="Path_907288" data-name="Path 907288" d="M109.868,97.46c0,.121-.6.219-1.342.219s-1.342-.1-1.342-.219.6-.219,1.342-.219,1.342.1,1.342.219"/>
          <path id="Path_907289" data-name="Path 907289" d="M133.277,97.759a34,34,0,0,1-5.442.219,34.007,34.007,0,0,1-5.443-.219,34,34,0,0,1,5.443-.219,34,34,0,0,1,5.442.219"/>
          <path id="Path_907290" data-name="Path 907290" d="M61.279,110.432c0,.121-9.514.219-21.247.219s-21.248-.1-21.248-.219,9.511-.219,21.248-.219,21.247.1,21.247.219"/>
          <path id="Path_907291" data-name="Path 907291" d="M90.43,110.582a28.673,28.673,0,0,1-5,.219,28.664,28.664,0,0,1-4.995-.219,28.664,28.664,0,0,1,4.995-.219,28.673,28.673,0,0,1,5,.219"/>
          <path id="Path_907292" data-name="Path 907292" d="M110.464,110.432a8.689,8.689,0,0,1-3.877,0,8.689,8.689,0,0,1,3.877,0"/>
          <path id="Path_907293" data-name="Path 907293" d="M131.786,110.134a31.276,31.276,0,0,1-5.218.219,31.274,31.274,0,0,1-5.219-.219,31.272,31.272,0,0,1,5.219-.219,31.274,31.274,0,0,1,5.218.219"/>
          <rect id="Rectangle_406384" data-name="Rectangle 406384" width="61.521" height="8.02" transform="translate(76.204 135.86)" fill="#e8505b"/>
          <path id="Path_907294" data-name="Path 907294" d="M124.232,124.536a61.219,61.219,0,0,1-7.312.219,61.215,61.215,0,0,1-7.313-.219,61.212,61.212,0,0,1,7.313-.219,61.216,61.216,0,0,1,7.312.219" fill="#263238"/>
          <path id="Path_907295" data-name="Path 907295" d="M124.232,129.915a61.215,61.215,0,0,1-7.312.219,61.211,61.211,0,0,1-7.313-.219,61.217,61.217,0,0,1,7.313-.219,61.221,61.221,0,0,1,7.312.219" fill="#263238"/>
          <path id="Path_907296" data-name="Path 907296" d="M97.063,129.915a61.215,61.215,0,0,1-7.312.219,61.211,61.211,0,0,1-7.313-.219,61.217,61.217,0,0,1,7.313-.219,61.221,61.221,0,0,1,7.312.219" fill="#263238"/>
          <path id="Path_907297" data-name="Path 907297" d="M97.063,124.266c0,.121-4.884.219-10.907.219s-10.908-.1-10.908-.219,4.883-.219,10.908-.219,10.907.1,10.907.219" fill="#263238"/>
          <path id="Path_907298" data-name="Path 907298" d="M124.232,140.275a61.215,61.215,0,0,1-7.312.219,61.211,61.211,0,0,1-7.313-.219,61.217,61.217,0,0,1,7.313-.219,61.221,61.221,0,0,1,7.312.219" fill="#fff"/>
          <path id="Path_907299" data-name="Path 907299" d="M97.87,140.275a61.215,61.215,0,0,1-7.312.219,61.211,61.211,0,0,1-7.313-.219,61.217,61.217,0,0,1,7.313-.219,61.221,61.221,0,0,1,7.312.219" fill="#fff"/>
          <path id="Path_907300" data-name="Path 907300" d="M14.416,32.828H13.4a1.6,1.6,0,0,1-1.6-1.6V30.21a1.6,1.6,0,0,1,1.6-1.6h1.02a1.6,1.6,0,0,1,1.6,1.6v1.02a1.6,1.6,0,0,1-1.6,1.6" fill="#e8505b"/>
          <path id="Path_907301" data-name="Path 907301" d="M12.745,33.711v.053a.245.245,0,0,0,.245.245h4.047V29.815a.245.245,0,1,0-.49,0v3.621l-3.559.03a.245.245,0,0,0-.243.245" fill="#e8505b"/>
          <path id="Path_907302" data-name="Path 907302" d="M43.208,30.07c0,.121-5.416.219-12.095.219s-12.1-.1-12.1-.219,5.415-.219,12.1-.219,12.095.1,12.095.219" fill="#e8505b"/>
          <path id="Path_907303" data-name="Path 907303" d="M31.991,32.393a45.9,45.9,0,0,1-6.328.219,45.9,45.9,0,0,1-6.329-.219,45.9,45.9,0,0,1,6.329-.219,45.9,45.9,0,0,1,6.328.219" fill="#e8505b"/>
          <path id="Path_907304" data-name="Path 907304" d="M146.368,202.064c0-1.722-.08-75.832-.2-186.562l.2.2L.235,15.721H.219L.438,15.5C.424,84.665.411,148.892.4,202.064l-.181-.181,146.149.181L.219,202.245H.038v-.181C.027,148.892.014,84.665,0,15.5v-.219H.235l146.133.023h.2v.2c-.116,110.73-.194,184.841-.2,186.562" fill="#263238"/>
          <path id="Path_907305" data-name="Path 907305" d="M72.814,66.741c0,.121-7.819.219-17.462.219s-17.464-.1-17.464-.219,7.817-.219,17.464-.219,17.462.1,17.462.219" fill="#263238"/>
          <path id="Path_907306" data-name="Path 907306" d="M72.814,70.085c0,.121-7.819.219-17.462.219s-17.464-.1-17.464-.219,7.817-.219,17.464-.219,17.462.1,17.462.219" fill="#263238"/>
          <path id="Path_907307" data-name="Path 907307" d="M50.945,73.429a48.832,48.832,0,0,1-6.528.219,48.829,48.829,0,0,1-6.529-.219,48.829,48.829,0,0,1,6.529-.219,48.832,48.832,0,0,1,6.528.219" fill="#263238"/>
          <path id="Path_907308" data-name="Path 907308" d="M73.355,63.15c0,.121-14.7.219-32.83.219s-32.833-.1-32.833-.219,14.7-.219,32.833-.219,32.83.1,32.83.219" fill="#263238"/>
          <path id="Path_907309" data-name="Path 907309" d="M47.625,86.249c0,.121-6.558.219-14.644.219s-14.644-.1-14.644-.219,6.555-.219,14.644-.219,14.644.1,14.644.219" fill="#fff"/>
          <path id="Path_907310" data-name="Path 907310" d="M93.183,86.249a68.707,68.707,0,0,1-7.748.219,68.693,68.693,0,0,1-7.748-.219,68.693,68.693,0,0,1,7.748-.219,68.707,68.707,0,0,1,7.748.219" fill="#fff"/>
          <path id="Path_907311" data-name="Path 907311" d="M115.354,86.249a37.878,37.878,0,0,1-5.746.219,37.875,37.875,0,0,1-5.747-.219,37.875,37.875,0,0,1,5.747-.219,37.878,37.878,0,0,1,5.746.219" fill="#fff"/>
          <path id="Path_907312" data-name="Path 907312" d="M134.522,86.249a37.878,37.878,0,0,1-5.746.219,37.875,37.875,0,0,1-5.747-.219,37.875,37.875,0,0,1,5.747-.219,37.878,37.878,0,0,1,5.746.219" fill="#fff"/>
          <path id="Path_907313" data-name="Path 907313" d="M136.221,150.6c0,.144-28.394.26-63.411.26s-63.417-.116-63.417-.26,28.387-.26,63.417-.26,63.411.116,63.411.26" fill="#263238"/>
          <path id="Path_907314" data-name="Path 907314" d="M67.346,162.939c0,.144-12.614.26-28.17.26S11,163.083,11,162.939s12.611-.26,28.173-.26,28.17.116,28.17.26" fill="#263238"/>
          <path id="Path_907315" data-name="Path 907315" d="M54.681,167.591c0,.144-9.779.26-21.838.26S11,167.735,11,167.591s9.777-.26,21.841-.26,21.838.116,21.838.26" fill="#263238"/>
          <path id="Path_907316" data-name="Path 907316" d="M47.625,172.243c0,.144-8.2.26-18.31.26S11,172.387,11,172.243s8.2-.26,18.313-.26,18.31.116,18.31.26" fill="#263238"/>
          <path id="Path_907317" data-name="Path 907317" d="M132.555,165.84a1.864,1.864,0,0,1-.348.1l-1.032.25c-.907.216-2.251.514-3.984.886-3.467.736-8.5,1.74-14.754,2.771-3.128.515-6.561,1.034-10.256,1.528-1.848.246-3.76.491-5.732.719l-3,.338c-.509.052-1.012.124-1.552.146a3.07,3.07,0,0,1-1.64-.329,1.593,1.593,0,0,1,.062-2.932,26.426,26.426,0,0,1,2.968-1.424,31.02,31.02,0,0,1,13.466-2.305,14.173,14.173,0,0,1,3.567.558,5.911,5.911,0,0,1,3.1,2.021,4.458,4.458,0,0,1,.7,3.639,6.762,6.762,0,0,1-1.742,3.209,14.431,14.431,0,0,1-2.789,2.212,27.7,27.7,0,0,1-3.018,1.736,6.805,6.805,0,0,1-3.4.76,3.871,3.871,0,0,1-2.922-1.78,7.806,7.806,0,0,1-1.095-3.151,21.527,21.527,0,0,1-.2-3.209,22.875,22.875,0,0,1,3.2-11.439,7.973,7.973,0,0,1,1.732-2.206,2.519,2.519,0,0,1,2.675-.478,3.144,3.144,0,0,1,1.622,2.07,4.828,4.828,0,0,1-.135,2.5,14.959,14.959,0,0,1-.879,2.173c-.318.686-.648,1.345-.98,1.979-.663,1.269-1.342,2.437-2.021,3.5a48.253,48.253,0,0,1-3.816,5.222c-1.144,1.358-2.1,2.355-2.762,3.01-.328.332-.593.57-.767.735a1.83,1.83,0,0,1-.275.235,1.79,1.79,0,0,1,.238-.273l.729-.77c.639-.678,1.566-1.694,2.681-3.066a50.358,50.358,0,0,0,3.725-5.247c.663-1.065,1.327-2.233,1.974-3.5a28.681,28.681,0,0,0,1.8-4.1,4.462,4.462,0,0,0,.116-2.3,2.759,2.759,0,0,0-1.416-1.8,2.107,2.107,0,0,0-2.245.437,7.582,7.582,0,0,0-1.623,2.1,22.5,22.5,0,0,0-3.091,11.223,20.924,20.924,0,0,0,.206,3.131,7.324,7.324,0,0,0,1.024,2.948,3.36,3.36,0,0,0,2.555,1.554,6.32,6.32,0,0,0,3.135-.72,27.481,27.481,0,0,0,2.955-1.706A13.925,13.925,0,0,0,112,174.663a6.249,6.249,0,0,0,1.613-2.962,3.941,3.941,0,0,0-.614-3.224,5.409,5.409,0,0,0-2.838-1.833,13.714,13.714,0,0,0-3.44-.537,30.6,30.6,0,0,0-13.249,2.248,26.328,26.328,0,0,0-2.9,1.379,1.121,1.121,0,0,0-.078,2.1,5.2,5.2,0,0,0,2.9.131l3-.327,5.729-.692c3.692-.475,7.125-.972,10.253-1.464,6.256-.983,11.295-1.931,14.773-2.606l4-.79,1.043-.2a1.822,1.822,0,0,1,.359-.05" fill="#263238"/>
          <path id="Path_907318" data-name="Path 907318" d="M94.836,183.571a17.809,17.809,0,0,1-4.279.26,17.809,17.809,0,0,1-4.279-.26,17.809,17.809,0,0,1,4.279-.26,17.809,17.809,0,0,1,4.279.26" fill="#263238"/>
          <path id="Path_907319" data-name="Path 907319" d="M154.27,194.612H8.3L8.183,8.715H154.332Z" fill="#fff"/>
          <rect id="Rectangle_406385" data-name="Rectangle 406385" width="146.149" height="35.777" transform="translate(8.121 8.05)" fill="#f5f5f5"/>
          <rect id="Rectangle_406386" data-name="Rectangle 406386" width="55.695" height="9.012" transform="translate(15.423 38.418)" fill="#e8505b"/>
          <rect id="Rectangle_406387" data-name="Rectangle 406387" width="130.571" height="12.943" transform="translate(15.423 83.304)" fill="#fafafa"/>
          <rect id="Rectangle_406388" data-name="Rectangle 406388" width="130.571" height="12.944" transform="translate(15.423 96.23)" fill="#e0e0e0"/>
          <rect id="Rectangle_406389" data-name="Rectangle 406389" width="0.25" height="2.368" transform="translate(21.382 41.458)" fill="#fff"/>
          <path id="Path_907320" data-name="Path 907320" d="M23.99,42.794v1.033h-.24V42.818a.5.5,0,0,0-.535-.567.582.582,0,0,0-.622.642v.934h-.24v-1.78h.23v.329a.745.745,0,0,1,.676-.342.681.681,0,0,1,.731.76" fill="#fff"/>
          <path id="Path_907321" data-name="Path 907321" d="M26.105,42.047l-.791,1.779h-.247l-.789-1.779h.251l.666,1.515.673-1.515Z" fill="#fff"/>
          <path id="Path_907322" data-name="Path 907322" d="M26.215,42.936a.9.9,0,1,1,.907.907.875.875,0,0,1-.907-.907m1.566,0a.662.662,0,1,0-.659.694.649.649,0,0,0,.659-.694" fill="#fff"/>
          <path id="Path_907323" data-name="Path 907323" d="M28.462,41.485a.174.174,0,0,1,.176-.169.171.171,0,0,1,.176.166.176.176,0,0,1-.352,0m.054.562h.24v1.779h-.24Z" fill="#fff"/>
          <path id="Path_907324" data-name="Path 907324" d="M29.247,42.936a.876.876,0,0,1,.917-.9.776.776,0,0,1,.7.352l-.18.121a.6.6,0,0,0-.517-.263.694.694,0,0,0,0,1.387.6.6,0,0,0,.517-.261l.18.122a.785.785,0,0,1-.7.352.879.879,0,0,1-.917-.907" fill="#fff"/>
          <path id="Path_907325" data-name="Path 907325" d="M32.85,43.011H31.362a.659.659,0,0,0,.7.619.7.7,0,0,0,.545-.234l.135.156a.94.94,0,0,1-1.62-.616.857.857,0,0,1,.869-.9.848.848,0,0,1,.863.9c0,.021,0,.048,0,.075m-1.488-.18h1.262a.632.632,0,0,0-1.262,0" fill="#fff"/>
          <path id="Path_907326" data-name="Path 907326" d="M36.536,42.287,36.448,43h.48v.185h-.5l-.078.643h-.182l.079-.643h-.694l-.082.643h-.182l.077-.643h-.48V43h.5l.089-.711H34.99V42.1H35.5l.078-.643h.186l-.08.643h.7l.078-.643h.182l-.078.643h.477v.186Zm-.182,0H35.66L35.568,43h.7Z" fill="#fff"/>
          <path id="Path_907327" data-name="Path 907327" d="M38.882,43.146c0,.4-.288.7-.859.7a1.233,1.233,0,0,1-.853-.3l.119-.193a1.037,1.037,0,0,0,.734.274c.392,0,.608-.183.608-.477s-.2-.47-.639-.47h-.169V42.5l.656-.822H37.268v-.216h1.523v.172l-.67.843c.507.027.761.294.761.673" fill="#fff"/>
          <path id="Path_907328" data-name="Path 907328" d="M41.237,43.2h-.474v.622H40.52V43.2H39.184v-.176l1.255-1.569h.27L39.5,42.988h1.028V42.44h.237v.548h.474Z" fill="#fff"/>
          <path id="Path_907329" data-name="Path 907329" d="M43.055,43.129c0,.4-.281.718-.859.718a1.221,1.221,0,0,1-.849-.305l.118-.193a1.026,1.026,0,0,0,.727.274c.4,0,.616-.2.616-.484,0-.3-.189-.493-.792-.493h-.5l.121-1.188h1.3v.217H41.847l-.081.754h.305c.713,0,.984.281.984.7" fill="#fff"/>
          <path id="Path_907330" data-name="Path 907330" d="M45.143,43.119a.738.738,0,0,1-.808.728c-.63,0-.971-.437-.971-1.184,0-.806.44-1.225,1.082-1.225a1.082,1.082,0,0,1,.562.129l-.1.2a.834.834,0,0,0-.46-.112c-.511,0-.839.329-.839.971,0,.054,0,.122.01.193a.756.756,0,0,1,.724-.406.716.716,0,0,1,.8.71m-.24.007c0-.311-.23-.511-.6-.511a.549.549,0,0,0-.609.518c0,.26.216.507.625.507a.518.518,0,0,0,.579-.514" fill="#fff"/>
          <path id="Path_907331" data-name="Path 907331" d="M47.042,43.61v.217H45.381v-.173l.984-.964c.267-.264.318-.423.318-.585,0-.274-.193-.443-.555-.443a.8.8,0,0,0-.646.264l-.172-.15a1.064,1.064,0,0,1,.839-.337c.48,0,.785.243.785.639a.978.978,0,0,1-.389.741l-.806.791Z" fill="#fff"/>
          <rect id="Rectangle_406390" data-name="Rectangle 406390" width="1.413" height="7.606" transform="translate(97.016 22.562)" fill="#263238"/>
          <path id="Path_907332" data-name="Path 907332" d="M107.243,22.562v7.606H106.08l-4.194-5.15v5.15h-1.4V22.562h1.162l4.195,5.15v-5.15Z" fill="#263238"/>
          <path id="Path_907333" data-name="Path 907333" d="M116.19,22.562l-3.315,7.606h-1.391l-3.324-7.606h1.532l2.531,5.867,2.554-5.867Z" fill="#263238"/>
          <path id="Path_907334" data-name="Path 907334" d="M116.379,26.365a4.1,4.1,0,1,1,4.1,3.912,3.9,3.9,0,0,1-4.1-3.912m6.77,0a2.673,2.673,0,1,0-2.673,2.673,2.593,2.593,0,0,0,2.673-2.673" fill="#263238"/>
          <rect id="Rectangle_406391" data-name="Rectangle 406391" width="1.413" height="7.606" transform="translate(126.075 22.562)" fill="#263238"/>
          <path id="Path_907335" data-name="Path 907335" d="M129,26.365a4.114,4.114,0,0,1,7.084-2.64l-.912.858a2.675,2.675,0,0,0-2.032-.891,2.673,2.673,0,1,0,0,5.346,2.648,2.648,0,0,0,2.032-.9l.912.869A4.114,4.114,0,0,1,129,26.365" fill="#263238"/>
          <path id="Path_907336" data-name="Path 907336" d="M143.152,28.984v1.184h-5.705V22.562H143v1.184h-4.139v1.978h3.673v1.163h-3.673v2.1Z" fill="#263238"/>
          <path id="Path_907337" data-name="Path 907337" d="M124.256,54.479a12.046,12.046,0,0,1-4.573,0,12.046,12.046,0,0,1,4.573,0" fill="#263238"/>
          <path id="Path_907338" data-name="Path 907338" d="M125.059,56.387a5.358,5.358,0,0,1,.559-2.071,5.362,5.362,0,0,1,.969-1.914,5.387,5.387,0,0,1-.561,2.071,5.407,5.407,0,0,1-.967,1.914" fill="#263238"/>
          <path id="Path_907339" data-name="Path 907339" d="M130.94,54.479c0,.121-.761.219-1.7.219s-1.7-.1-1.7-.219.761-.219,1.7-.219,1.7.1,1.7.219" fill="#263238"/>
          <path id="Path_907340" data-name="Path 907340" d="M132.337,55.922a3.979,3.979,0,0,1,.422-1.782c.346-.943.719-1.673.832-1.631a3.968,3.968,0,0,1-.422,1.782c-.346.942-.719,1.673-.832,1.631" fill="#263238"/>
          <path id="Path_907341" data-name="Path 907341" d="M140.906,54.479a13.39,13.39,0,0,1-3.4.219,13.388,13.388,0,0,1-3.4-.219,13.388,13.388,0,0,1,3.4-.219,13.39,13.39,0,0,1,3.4.219" fill="#263238"/>
          <rect id="Rectangle_406392" data-name="Rectangle 406392" width="130.571" height="9.013" transform="translate(15.423 74.291)" fill="#e8505b"/>
          <path id="Path_907342" data-name="Path 907342" d="M54.718,90.456c0,.121-6.276.219-14.015.219s-14.017-.1-14.017-.219,6.274-.219,14.017-.219,14.015.1,14.015.219"/>
          <path id="Path_907343" data-name="Path 907343" d="M100.569,90.754a42.842,42.842,0,0,1-6.113.219,42.851,42.851,0,0,1-6.114-.219,42.853,42.853,0,0,1,6.114-.219,42.844,42.844,0,0,1,6.113.219"/>
          <path id="Path_907344" data-name="Path 907344" d="M117.77,90.009c0,.121-.6.219-1.342.219s-1.342-.1-1.342-.219.6-.219,1.342-.219,1.342.1,1.342.219"/>
          <path id="Path_907345" data-name="Path 907345" d="M141.179,90.307a34,34,0,0,1-5.442.219,34,34,0,0,1-5.443-.219,34,34,0,0,1,5.443-.219,34,34,0,0,1,5.442.219"/>
          <path id="Path_907346" data-name="Path 907346" d="M69.181,102.981c0,.121-9.514.219-21.247.219s-21.248-.1-21.248-.219,9.511-.219,21.248-.219,21.247.1,21.247.219"/>
          <path id="Path_907347" data-name="Path 907347" d="M98.332,103.13a28.673,28.673,0,0,1-5,.219,28.664,28.664,0,0,1-4.995-.219,28.665,28.665,0,0,1,4.995-.219,28.675,28.675,0,0,1,5,.219"/>
          <path id="Path_907348" data-name="Path 907348" d="M118.366,102.981a8.689,8.689,0,0,1-3.877,0,8.689,8.689,0,0,1,3.877,0"/>
          <path id="Path_907349" data-name="Path 907349" d="M139.688,102.683a31.274,31.274,0,0,1-5.218.219,31.272,31.272,0,0,1-5.219-.219,31.272,31.272,0,0,1,5.219-.219,31.274,31.274,0,0,1,5.218.219"/>
          <rect id="Rectangle_406393" data-name="Rectangle 406393" width="61.521" height="8.02" transform="translate(84.107 128.408)" fill="#e8505b"/>
          <path id="Path_907350" data-name="Path 907350" d="M132.134,117.085a61.216,61.216,0,0,1-7.312.219,61.212,61.212,0,0,1-7.313-.219,61.212,61.212,0,0,1,7.313-.219,61.216,61.216,0,0,1,7.312.219" fill="#263238"/>
          <path id="Path_907351" data-name="Path 907351" d="M132.134,122.463a61.216,61.216,0,0,1-7.312.219,61.212,61.212,0,0,1-7.313-.219,61.215,61.215,0,0,1,7.313-.219,61.219,61.219,0,0,1,7.312.219" fill="#263238"/>
          <path id="Path_907352" data-name="Path 907352" d="M104.965,122.463a61.216,61.216,0,0,1-7.312.219,61.213,61.213,0,0,1-7.313-.219,61.216,61.216,0,0,1,7.313-.219,61.219,61.219,0,0,1,7.312.219" fill="#263238"/>
          <path id="Path_907353" data-name="Path 907353" d="M104.965,116.814c0,.121-4.884.219-10.907.219s-10.908-.1-10.908-.219,4.883-.219,10.908-.219,10.907.1,10.907.219" fill="#263238"/>
          <path id="Path_907354" data-name="Path 907354" d="M132.134,132.824a61.217,61.217,0,0,1-7.312.219,61.214,61.214,0,0,1-7.313-.219,61.211,61.211,0,0,1,7.313-.219,61.215,61.215,0,0,1,7.312.219" fill="#fff"/>
          <path id="Path_907355" data-name="Path 907355" d="M105.772,132.824a61.217,61.217,0,0,1-7.312.219,61.214,61.214,0,0,1-7.313-.219,61.211,61.211,0,0,1,7.313-.219,61.215,61.215,0,0,1,7.312.219" fill="#fff"/>
          <path id="Path_907356" data-name="Path 907356" d="M22.318,25.377H21.3a1.6,1.6,0,0,1-1.6-1.6v-1.02a1.6,1.6,0,0,1,1.6-1.6h1.02a1.6,1.6,0,0,1,1.6,1.6v1.02a1.6,1.6,0,0,1-1.6,1.6" fill="#e8505b"/>
          <path id="Path_907357" data-name="Path 907357" d="M20.647,26.26v.053a.245.245,0,0,0,.245.245h4.047V22.364a.245.245,0,1,0-.49,0v3.621l-3.559.03a.245.245,0,0,0-.243.245" fill="#e8505b"/>
          <path id="Path_907358" data-name="Path 907358" d="M51.11,22.619c0,.121-5.416.219-12.1.219s-12.1-.1-12.1-.219,5.415-.219,12.1-.219,12.1.1,12.1.219" fill="#e8505b"/>
          <path id="Path_907359" data-name="Path 907359" d="M39.893,24.941a45.9,45.9,0,0,1-6.328.219,45.9,45.9,0,0,1-6.329-.219,45.9,45.9,0,0,1,6.329-.219,45.9,45.9,0,0,1,6.328.219" fill="#e8505b"/>
          <path id="Path_907360" data-name="Path 907360" d="M154.27,194.612c0-1.722-.08-75.832-.2-186.562l.2.2L8.137,8.269H8.121L8.34,8.05C8.325,77.213,8.313,141.44,8.3,194.612l-.181-.181,146.149.181-146.149.181H7.94v-.181C7.929,141.44,7.916,77.213,7.9,8.05V7.831h.235l146.133.023h.2v.2c-.116,110.73-.194,184.841-.2,186.562" fill="#263238"/>
          <path id="Path_907361" data-name="Path 907361" d="M80.716,59.29c0,.121-7.819.219-17.462.219s-17.464-.1-17.464-.219,7.817-.219,17.464-.219,17.462.1,17.462.219" fill="#263238"/>
          <path id="Path_907362" data-name="Path 907362" d="M80.716,62.634c0,.121-7.819.219-17.462.219s-17.464-.1-17.464-.219,7.817-.219,17.464-.219,17.462.1,17.462.219" fill="#263238"/>
          <path id="Path_907363" data-name="Path 907363" d="M58.847,65.978a48.832,48.832,0,0,1-6.528.219,48.829,48.829,0,0,1-6.529-.219,48.831,48.831,0,0,1,6.529-.219,48.834,48.834,0,0,1,6.528.219" fill="#263238"/>
          <path id="Path_907364" data-name="Path 907364" d="M81.257,55.7c0,.121-14.7.219-32.83.219s-32.833-.1-32.833-.219,14.7-.219,32.833-.219,32.83.1,32.83.219" fill="#263238"/>
          <path id="Path_907365" data-name="Path 907365" d="M55.527,78.8c0,.121-6.557.219-14.643.219s-14.645-.1-14.645-.219,6.556-.219,14.645-.219,14.643.1,14.643.219" fill="#fff"/>
          <path id="Path_907366" data-name="Path 907366" d="M101.085,78.8a68.707,68.707,0,0,1-7.748.219,68.693,68.693,0,0,1-7.748-.219,68.7,68.7,0,0,1,7.748-.219,68.711,68.711,0,0,1,7.748.219" fill="#fff"/>
          <path id="Path_907367" data-name="Path 907367" d="M123.256,78.8a37.878,37.878,0,0,1-5.746.219,37.875,37.875,0,0,1-5.747-.219,37.877,37.877,0,0,1,5.747-.219,37.88,37.88,0,0,1,5.746.219" fill="#fff"/>
          <path id="Path_907368" data-name="Path 907368" d="M142.424,78.8a37.878,37.878,0,0,1-5.746.219,37.875,37.875,0,0,1-5.747-.219,37.877,37.877,0,0,1,5.747-.219,37.88,37.88,0,0,1,5.746.219" fill="#fff"/>
          <path id="Path_907369" data-name="Path 907369" d="M144.123,143.151c0,.144-28.394.26-63.411.26s-63.417-.116-63.417-.26,28.387-.26,63.417-.26,63.411.116,63.411.26" fill="#263238"/>
          <path id="Path_907370" data-name="Path 907370" d="M75.248,155.488c0,.144-12.614.26-28.17.26s-28.173-.116-28.173-.26,12.611-.26,28.173-.26,28.17.116,28.17.26" fill="#263238"/>
          <path id="Path_907371" data-name="Path 907371" d="M62.583,160.14c0,.144-9.779.26-21.838.26s-21.841-.116-21.841-.26,9.777-.26,21.841-.26,21.838.116,21.838.26" fill="#263238"/>
          <path id="Path_907372" data-name="Path 907372" d="M55.527,164.792c0,.144-8.2.26-18.31.26s-18.312-.116-18.312-.26,8.2-.26,18.312-.26,18.31.116,18.31.26" fill="#263238"/>
          <path id="Path_907373" data-name="Path 907373" d="M140.457,158.389a1.866,1.866,0,0,1-.348.1l-1.032.25c-.907.216-2.251.514-3.984.886-3.467.736-8.5,1.74-14.755,2.771-3.127.515-6.56,1.034-10.255,1.528-1.848.246-3.76.491-5.732.718l-3,.339c-.509.052-1.012.124-1.552.146a3.07,3.07,0,0,1-1.64-.329,1.593,1.593,0,0,1,.062-2.932,26.612,26.612,0,0,1,2.968-1.425,31,31,0,0,1,13.466-2.3,14.172,14.172,0,0,1,3.567.558,5.911,5.911,0,0,1,3.1,2.021,4.458,4.458,0,0,1,.7,3.639,6.762,6.762,0,0,1-1.742,3.209,14.431,14.431,0,0,1-2.789,2.212,27.706,27.706,0,0,1-3.018,1.736,6.794,6.794,0,0,1-3.4.759,3.867,3.867,0,0,1-2.922-1.779,7.806,7.806,0,0,1-1.095-3.151,21.532,21.532,0,0,1-.2-3.21,22.874,22.874,0,0,1,3.2-11.438,7.973,7.973,0,0,1,1.732-2.206,2.519,2.519,0,0,1,2.675-.478,3.144,3.144,0,0,1,1.622,2.07,4.828,4.828,0,0,1-.135,2.5,14.958,14.958,0,0,1-.879,2.173c-.318.686-.648,1.345-.98,1.979-.663,1.269-1.342,2.437-2.021,3.5a48.252,48.252,0,0,1-3.816,5.222c-1.144,1.358-2.1,2.354-2.762,3.01-.328.332-.593.57-.767.734a1.81,1.81,0,0,1-.275.236,1.818,1.818,0,0,1,.238-.274l.729-.769c.639-.678,1.566-1.694,2.681-3.066a50.573,50.573,0,0,0,3.725-5.247c.663-1.065,1.327-2.233,1.974-3.5a28.68,28.68,0,0,0,1.8-4.1,4.462,4.462,0,0,0,.116-2.3,2.759,2.759,0,0,0-1.416-1.8,2.109,2.109,0,0,0-2.245.436,7.6,7.6,0,0,0-1.623,2.1,22.5,22.5,0,0,0-3.091,11.222,20.927,20.927,0,0,0,.206,3.132,7.324,7.324,0,0,0,1.024,2.948,3.36,3.36,0,0,0,2.555,1.554,6.32,6.32,0,0,0,3.135-.72,27.481,27.481,0,0,0,2.955-1.706,13.925,13.925,0,0,0,2.688-2.133,6.237,6.237,0,0,0,1.612-2.963,3.935,3.935,0,0,0-.613-3.223,5.409,5.409,0,0,0-2.838-1.833,13.713,13.713,0,0,0-3.44-.537,30.623,30.623,0,0,0-13.249,2.247,26.514,26.514,0,0,0-2.9,1.38,1.121,1.121,0,0,0-.078,2.1,5.2,5.2,0,0,0,2.9.13l3-.326,5.729-.692c3.692-.475,7.125-.973,10.253-1.464,6.256-.983,11.295-1.931,14.773-2.606l4-.79,1.043-.2a1.821,1.821,0,0,1,.359-.05" fill="#263238"/>
          <path id="Path_907374" data-name="Path 907374" d="M102.738,176.12a17.808,17.808,0,0,1-4.279.26,17.808,17.808,0,0,1-4.279-.26,17.809,17.809,0,0,1,4.279-.26,17.809,17.809,0,0,1,4.279.26" fill="#263238"/>
          <path id="Path_907375" data-name="Path 907375" d="M161.46,186.781H15.492L15.373.884H161.522Z" fill="#fff"/>
          <rect id="Rectangle_406394" data-name="Rectangle 406394" width="146.149" height="35.777" transform="translate(15.311 0.219)" fill="#f5f5f5"/>
          <rect id="Rectangle_406395" data-name="Rectangle 406395" width="55.695" height="9.012" transform="translate(22.613 30.587)" fill="#fd9826"/>
          <rect id="Rectangle_406396" data-name="Rectangle 406396" width="130.571" height="12.944" transform="translate(22.613 75.472)" fill="#fafafa"/>
          <rect id="Rectangle_406397" data-name="Rectangle 406397" width="130.571" height="12.943" transform="translate(22.613 88.399)" fill="#e0e0e0"/>
          <rect id="Rectangle_406398" data-name="Rectangle 406398" width="0.25" height="2.368" transform="translate(28.571 33.627)" fill="#fff"/>
          <path id="Path_907376" data-name="Path 907376" d="M31.18,34.963v1.032h-.24V34.987a.5.5,0,0,0-.535-.569.583.583,0,0,0-.622.643v.934h-.24v-1.78h.23v.328a.747.747,0,0,1,.676-.341.681.681,0,0,1,.731.761" fill="#fff"/>
          <path id="Path_907377" data-name="Path 907377" d="M33.295,34.215,32.5,36h-.247l-.789-1.78h.251l.666,1.516.673-1.516Z" fill="#fff"/>
          <path id="Path_907378" data-name="Path 907378" d="M33.4,35.1a.9.9,0,1,1,.907.907A.875.875,0,0,1,33.4,35.1m1.566,0a.662.662,0,1,0-.659.694.649.649,0,0,0,.659-.694" fill="#fff"/>
          <path id="Path_907379" data-name="Path 907379" d="M35.652,33.654a.174.174,0,0,1,.176-.17.171.171,0,1,1,0,.342.174.174,0,0,1-.176-.172m.054.561h.24v1.78h-.24Z" fill="#fff"/>
          <path id="Path_907380" data-name="Path 907380" d="M36.437,35.1a.876.876,0,0,1,.917-.9.776.776,0,0,1,.7.352l-.18.121a.6.6,0,0,0-.517-.263.694.694,0,0,0,0,1.387.6.6,0,0,0,.517-.261l.18.122a.785.785,0,0,1-.7.352.879.879,0,0,1-.917-.907" fill="#fff"/>
          <path id="Path_907381" data-name="Path 907381" d="M40.04,35.18H38.552a.659.659,0,0,0,.7.619.7.7,0,0,0,.545-.234l.135.156a.94.94,0,0,1-1.62-.616.857.857,0,0,1,.869-.9.848.848,0,0,1,.863.9c0,.021,0,.047,0,.075M38.552,35h1.262a.632.632,0,0,0-1.262,0" fill="#fff"/>
          <path id="Path_907382" data-name="Path 907382" d="M43.726,34.455l-.088.711h.48v.185h-.5l-.078.643h-.182l.078-.643h-.694l-.081.643h-.183l.078-.643h-.48v-.185h.5l.089-.711H42.18v-.186h.507l.078-.643h.186l-.081.643h.7l.078-.643h.182l-.078.643h.477v.186Zm-.183,0H42.85l-.092.711h.7Z" fill="#fff"/>
          <path id="Path_907383" data-name="Path 907383" d="M46.071,35.315c0,.4-.288.7-.859.7a1.233,1.233,0,0,1-.853-.3l.119-.193a1.037,1.037,0,0,0,.734.274c.392,0,.608-.183.608-.477s-.2-.47-.639-.47h-.169v-.179l.656-.823H44.457v-.216H45.98V33.8l-.67.842c.507.027.761.294.761.673" fill="#fff"/>
          <path id="Path_907384" data-name="Path 907384" d="M48.427,35.372h-.474v.622H47.71v-.622H46.374V35.2l1.255-1.569h.27l-1.211,1.529h1.028v-.548h.237v.548h.474Z" fill="#fff"/>
          <path id="Path_907385" data-name="Path 907385" d="M50.245,35.3c0,.4-.281.718-.859.718a1.221,1.221,0,0,1-.849-.305l.118-.193a1.026,1.026,0,0,0,.727.274c.4,0,.616-.2.616-.484,0-.3-.189-.493-.792-.493h-.5l.121-1.188h1.295v.217H49.037l-.081.754h.305c.713,0,.984.281.984.7" fill="#fff"/>
          <path id="Path_907386" data-name="Path 907386" d="M52.333,35.287a.738.738,0,0,1-.808.728c-.63,0-.971-.437-.971-1.184,0-.806.44-1.225,1.082-1.225a1.076,1.076,0,0,1,.561.129l-.1.2a.835.835,0,0,0-.461-.112c-.51,0-.839.329-.839.971,0,.054,0,.122.011.193a.755.755,0,0,1,.724-.406.717.717,0,0,1,.8.71m-.24.007c0-.311-.23-.511-.595-.511a.548.548,0,0,0-.609.518c0,.26.216.507.625.507a.518.518,0,0,0,.579-.514" fill="#fff"/>
          <path id="Path_907387" data-name="Path 907387" d="M54.232,35.778v.217H52.571v-.173l.985-.964c.266-.264.317-.423.317-.585,0-.274-.192-.443-.554-.443a.8.8,0,0,0-.647.264l-.172-.15a1.065,1.065,0,0,1,.839-.337c.48,0,.785.243.785.639a.978.978,0,0,1-.389.741l-.806.791Z" fill="#fff"/>
          <rect id="Rectangle_406399" data-name="Rectangle 406399" width="1.413" height="7.606" transform="translate(104.206 14.731)" fill="#263238"/>
          <path id="Path_907388" data-name="Path 907388" d="M114.432,14.73v7.606h-1.163l-4.194-5.15v5.15h-1.4V14.73h1.162l4.195,5.15V14.73Z" fill="#263238"/>
          <path id="Path_907389" data-name="Path 907389" d="M123.38,14.73l-3.315,7.606h-1.391L115.35,14.73h1.532l2.531,5.867,2.554-5.867Z" fill="#263238"/>
          <path id="Path_907390" data-name="Path 907390" d="M123.568,18.533a4.1,4.1,0,1,1,4.1,3.912,3.9,3.9,0,0,1-4.1-3.912m6.77,0a2.673,2.673,0,1,0-2.673,2.673,2.592,2.592,0,0,0,2.673-2.673" fill="#263238"/>
          <rect id="Rectangle_406400" data-name="Rectangle 406400" width="1.413" height="7.606" transform="translate(133.265 14.731)" fill="#263238"/>
          <path id="Path_907391" data-name="Path 907391" d="M136.19,18.533a4.115,4.115,0,0,1,7.084-2.64l-.912.858a2.675,2.675,0,0,0-2.033-.89,2.673,2.673,0,1,0,0,5.345,2.648,2.648,0,0,0,2.033-.9l.912.869a4.115,4.115,0,0,1-7.084-2.641" fill="#263238"/>
          <path id="Path_907392" data-name="Path 907392" d="M150.341,21.152v1.184h-5.705V14.73h5.553v1.184h-4.14v1.978h3.673v1.163h-3.673v2.1Z" fill="#263238"/>
          <path id="Path_907393" data-name="Path 907393" d="M131.446,46.648a12.046,12.046,0,0,1-4.573,0,12.046,12.046,0,0,1,4.573,0" fill="#263238"/>
          <path id="Path_907394" data-name="Path 907394" d="M132.248,48.556a5.392,5.392,0,0,1,.56-2.071,5.388,5.388,0,0,1,.968-1.914,5.4,5.4,0,0,1-.56,2.071,5.4,5.4,0,0,1-.968,1.914" fill="#263238"/>
          <path id="Path_907395" data-name="Path 907395" d="M138.129,46.648c0,.121-.761.219-1.7.219s-1.7-.1-1.7-.219.761-.219,1.7-.219,1.7.1,1.7.219" fill="#263238"/>
          <path id="Path_907396" data-name="Path 907396" d="M139.527,48.09a3.979,3.979,0,0,1,.422-1.781c.346-.943.719-1.673.832-1.631a3.968,3.968,0,0,1-.422,1.782c-.346.942-.719,1.673-.832,1.63" fill="#263238"/>
          <path id="Path_907397" data-name="Path 907397" d="M148.1,46.648a13.389,13.389,0,0,1-3.4.219,13.388,13.388,0,0,1-3.4-.219,13.388,13.388,0,0,1,3.4-.219,13.39,13.39,0,0,1,3.4.219" fill="#263238"/>
          <rect id="Rectangle_406401" data-name="Rectangle 406401" width="130.571" height="9.012" transform="translate(22.613 66.46)" fill="#fd9826"/>
          <path id="Path_907398" data-name="Path 907398" d="M61.908,82.625c0,.121-6.276.219-14.015.219s-14.017-.1-14.017-.219,6.274-.219,14.017-.219,14.015.1,14.015.219"/>
          <path id="Path_907399" data-name="Path 907399" d="M107.758,82.923a42.842,42.842,0,0,1-6.113.219,42.851,42.851,0,0,1-6.114-.219,42.853,42.853,0,0,1,6.114-.219,42.844,42.844,0,0,1,6.113.219"/>
          <path id="Path_907400" data-name="Path 907400" d="M124.96,82.177c0,.121-.6.219-1.342.219s-1.342-.1-1.342-.219.6-.219,1.342-.219,1.342.1,1.342.219"/>
          <path id="Path_907401" data-name="Path 907401" d="M148.369,82.476a34,34,0,0,1-5.442.219,34,34,0,0,1-5.443-.219,34.007,34.007,0,0,1,5.443-.219,34,34,0,0,1,5.442.219"/>
          <path id="Path_907402" data-name="Path 907402" d="M76.371,95.149c0,.122-9.514.219-21.246.219s-21.249-.1-21.249-.219,9.512-.218,21.249-.218,21.246.1,21.246.218"/>
          <path id="Path_907403" data-name="Path 907403" d="M105.522,95.3a28.675,28.675,0,0,1-5,.219,28.665,28.665,0,0,1-5-.219,28.664,28.664,0,0,1,5-.219,28.673,28.673,0,0,1,5,.219"/>
          <path id="Path_907404" data-name="Path 907404" d="M125.556,95.149a8.689,8.689,0,0,1-3.877,0,8.728,8.728,0,0,1,3.877,0"/>
          <path id="Path_907405" data-name="Path 907405" d="M146.878,94.851a31.274,31.274,0,0,1-5.218.219,31.272,31.272,0,0,1-5.219-.219,31.344,31.344,0,0,1,5.219-.218,31.346,31.346,0,0,1,5.218.218"/>
          <rect id="Rectangle_406402" data-name="Rectangle 406402" width="61.521" height="8.02" transform="translate(91.296 120.577)" fill="#fd9826"/>
          <path id="Path_907406" data-name="Path 907406" d="M139.324,109.253a61.216,61.216,0,0,1-7.312.219,61.213,61.213,0,0,1-7.313-.219,61.354,61.354,0,0,1,7.313-.218,61.358,61.358,0,0,1,7.312.218" fill="#263238"/>
          <path id="Path_907407" data-name="Path 907407" d="M139.324,114.632a61.219,61.219,0,0,1-7.312.219,61.216,61.216,0,0,1-7.313-.219,61.213,61.213,0,0,1,7.313-.219,61.216,61.216,0,0,1,7.312.219" fill="#263238"/>
          <path id="Path_907408" data-name="Path 907408" d="M112.155,114.632a61.229,61.229,0,0,1-7.313.219,61.191,61.191,0,0,1-7.312-.219,61.188,61.188,0,0,1,7.312-.219,61.226,61.226,0,0,1,7.313.219" fill="#263238"/>
          <path id="Path_907409" data-name="Path 907409" d="M112.155,108.983c0,.121-4.884.219-10.908.219s-10.907-.1-10.907-.219,4.883-.219,10.907-.219,10.908.1,10.908.219" fill="#263238"/>
          <path id="Path_907410" data-name="Path 907410" d="M139.324,124.993a61.216,61.216,0,0,1-7.312.219,61.213,61.213,0,0,1-7.313-.219,61.216,61.216,0,0,1,7.313-.219,61.219,61.219,0,0,1,7.312.219" fill="#fff"/>
          <path id="Path_907411" data-name="Path 907411" d="M112.962,124.993a61.226,61.226,0,0,1-7.313.219,61.188,61.188,0,0,1-7.312-.219,61.191,61.191,0,0,1,7.312-.219,61.229,61.229,0,0,1,7.313.219" fill="#fff"/>
          <path id="Path_907412" data-name="Path 907412" d="M29.508,17.545h-1.02a1.6,1.6,0,0,1-1.6-1.6v-1.02a1.6,1.6,0,0,1,1.6-1.6h1.02a1.6,1.6,0,0,1,1.6,1.6v1.02a1.6,1.6,0,0,1-1.6,1.6" fill="#e8505b"/>
          <path id="Path_907413" data-name="Path 907413" d="M27.837,18.428v.053a.245.245,0,0,0,.245.245h4.047V14.532a.245.245,0,0,0-.49,0v3.621l-3.559.03a.245.245,0,0,0-.243.245" fill="#e8505b"/>
          <path id="Path_907414" data-name="Path 907414" d="M58.3,14.787c0,.121-5.416.219-12.1.219s-12.1-.1-12.1-.219,5.415-.219,12.1-.219,12.1.1,12.1.219" fill="#e8505b"/>
          <path id="Path_907415" data-name="Path 907415" d="M47.083,17.11a45.9,45.9,0,0,1-6.328.219,45.9,45.9,0,0,1-6.329-.219,45.9,45.9,0,0,1,6.329-.219,45.9,45.9,0,0,1,6.328.219" fill="#e8505b"/>
          <path id="Path_907416" data-name="Path 907416" d="M161.46,186.781c0-1.722-.08-75.832-.2-186.562l.2.2L15.327.438h-.016L15.53.219c-.015,69.163-.027,133.39-.038,186.562l-.181-.181,146.149.181-146.149.181H15.13v-.181c-.011-53.172-.024-117.4-.038-186.562V0h.235L161.46.023h.2v.2c-.116,110.73-.194,184.841-.2,186.562" fill="#263238"/>
          <path id="Path_907417" data-name="Path 907417" d="M87.906,51.458c0,.121-7.819.219-17.462.219s-17.464-.1-17.464-.219,7.817-.219,17.464-.219,17.462.1,17.462.219" fill="#263238"/>
          <path id="Path_907418" data-name="Path 907418" d="M87.906,54.8c0,.121-7.819.219-17.462.219s-17.464-.1-17.464-.219,7.817-.219,17.464-.219,17.462.1,17.462.219" fill="#263238"/>
          <path id="Path_907419" data-name="Path 907419" d="M66.037,58.146a48.833,48.833,0,0,1-6.528.219,48.83,48.83,0,0,1-6.529-.219,48.83,48.83,0,0,1,6.529-.219,48.833,48.833,0,0,1,6.528.219" fill="#263238"/>
          <path id="Path_907420" data-name="Path 907420" d="M88.447,47.867c0,.121-14.7.219-32.83.219s-32.833-.1-32.833-.219,14.7-.219,32.833-.219,32.83.1,32.83.219" fill="#263238"/>
          <path id="Path_907421" data-name="Path 907421" d="M62.716,70.966c0,.121-6.557.219-14.643.219s-14.645-.1-14.645-.219,6.556-.219,14.645-.219,14.643.1,14.643.219" fill="#fff"/>
          <path id="Path_907422" data-name="Path 907422" d="M108.275,70.966a68.711,68.711,0,0,1-7.748.219,68.7,68.7,0,0,1-7.748-.219,68.693,68.693,0,0,1,7.748-.219,68.707,68.707,0,0,1,7.748.219" fill="#fff"/>
          <path id="Path_907423" data-name="Path 907423" d="M130.445,70.966a37.88,37.88,0,0,1-5.746.219,37.877,37.877,0,0,1-5.747-.219,37.875,37.875,0,0,1,5.747-.219,37.878,37.878,0,0,1,5.746.219" fill="#fff"/>
          <path id="Path_907424" data-name="Path 907424" d="M149.613,70.966a37.88,37.88,0,0,1-5.746.219,37.877,37.877,0,0,1-5.747-.219,37.875,37.875,0,0,1,5.747-.219,37.878,37.878,0,0,1,5.746.219" fill="#fff"/>
          <path id="Path_907425" data-name="Path 907425" d="M151.312,135.319c0,.144-28.394.26-63.411.26s-63.417-.116-63.417-.26,28.387-.26,63.417-.26,63.411.116,63.411.26" fill="#263238"/>
          <path id="Path_907426" data-name="Path 907426" d="M82.437,147.656c0,.144-12.614.26-28.17.26s-28.173-.116-28.173-.26,12.611-.26,28.173-.26,28.17.116,28.17.26" fill="#263238"/>
          <path id="Path_907427" data-name="Path 907427" d="M69.773,152.308c0,.144-9.778.26-21.838.26s-21.841-.116-21.841-.26,9.777-.26,21.841-.26,21.838.116,21.838.26" fill="#263238"/>
          <path id="Path_907428" data-name="Path 907428" d="M62.716,156.96c0,.144-8.2.26-18.31.26s-18.312-.116-18.312-.26,8.2-.26,18.312-.26,18.31.116,18.31.26" fill="#263238"/>
          <path id="Path_907429" data-name="Path 907429" d="M147.647,150.557a1.866,1.866,0,0,1-.348.1l-1.032.25c-.907.216-2.251.514-3.984.886-3.467.736-8.5,1.74-14.755,2.771-3.127.515-6.56,1.034-10.255,1.528-1.848.246-3.76.491-5.732.719l-3,.338c-.509.052-1.012.124-1.552.146a3.07,3.07,0,0,1-1.64-.329,1.593,1.593,0,0,1,.062-2.932,26.43,26.43,0,0,1,2.968-1.424,31.02,31.02,0,0,1,13.466-2.3,14.172,14.172,0,0,1,3.567.558,5.911,5.911,0,0,1,3.1,2.021,4.458,4.458,0,0,1,.7,3.639,6.762,6.762,0,0,1-1.742,3.209,14.431,14.431,0,0,1-2.789,2.212,27.706,27.706,0,0,1-3.018,1.736,6.805,6.805,0,0,1-3.4.76,3.868,3.868,0,0,1-2.922-1.78,7.791,7.791,0,0,1-1.1-3.151,21.527,21.527,0,0,1-.2-3.209,22.875,22.875,0,0,1,3.2-11.439,7.973,7.973,0,0,1,1.732-2.206,2.519,2.519,0,0,1,2.675-.478,3.144,3.144,0,0,1,1.622,2.07,4.828,4.828,0,0,1-.135,2.5,14.958,14.958,0,0,1-.879,2.173c-.318.686-.648,1.345-.98,1.979-.663,1.269-1.342,2.437-2.021,3.5a48.251,48.251,0,0,1-3.816,5.222c-1.144,1.358-2.1,2.355-2.762,3.01-.328.332-.593.57-.767.735a1.83,1.83,0,0,1-.275.235,1.792,1.792,0,0,1,.238-.273l.729-.77c.639-.678,1.566-1.694,2.681-3.066a50.465,50.465,0,0,0,3.725-5.247c.663-1.065,1.326-2.233,1.974-3.5a28.679,28.679,0,0,0,1.8-4.1,4.462,4.462,0,0,0,.116-2.3,2.759,2.759,0,0,0-1.416-1.8,2.107,2.107,0,0,0-2.245.437,7.582,7.582,0,0,0-1.623,2.1,22.5,22.5,0,0,0-3.091,11.223,20.924,20.924,0,0,0,.206,3.131,7.324,7.324,0,0,0,1.024,2.948,3.36,3.36,0,0,0,2.555,1.554,6.319,6.319,0,0,0,3.135-.72,27.48,27.48,0,0,0,2.955-1.706,13.925,13.925,0,0,0,2.688-2.133,6.238,6.238,0,0,0,1.612-2.962,3.937,3.937,0,0,0-.613-3.224,5.409,5.409,0,0,0-2.838-1.833,13.713,13.713,0,0,0-3.44-.537,30.6,30.6,0,0,0-13.249,2.248,26.325,26.325,0,0,0-2.9,1.379,1.121,1.121,0,0,0-.078,2.1,5.2,5.2,0,0,0,2.9.131l3-.327,5.729-.692c3.692-.475,7.125-.972,10.253-1.464,6.256-.983,11.295-1.931,14.773-2.606l4-.79,1.043-.2a1.821,1.821,0,0,1,.359-.05" fill="#263238"/>
          <path id="Path_907430" data-name="Path 907430" d="M155.376,180.169c0,.144-28.674.26-64.036.26s-64.042-.116-64.042-.26,28.667-.26,64.042-.26,64.036.116,64.036.26" fill="#263238"/>
          <path id="Path_907431" data-name="Path 907431" d="M109.928,168.289a17.809,17.809,0,0,1-4.279.26,17.809,17.809,0,0,1-4.279-.26,17.809,17.809,0,0,1,4.279-.26,17.809,17.809,0,0,1,4.279.26" fill="#263238"/>
        </g>
      </g>
    </g>
  </g>
</svg>
