<svg xmlns="http://www.w3.org/2000/svg" xmlns:xlink="http://www.w3.org/1999/xlink" width="103" height="103" viewBox="0 0 103 103">
  <defs>
    <filter id="Path_903573" x="0" y="0" width="103" height="103" filterUnits="userSpaceOnUse">
      <feOffset dy="3" input="SourceAlpha"/>
      <feGaussianBlur stdDeviation="3" result="blur"/>
      <feFlood flood-opacity="0.161"/>
      <feComposite operator="in" in2="blur"/>
    </filter>
    <filter id="Path_903573-2" x="0" y="0" width="103" height="103" filterUnits="userSpaceOnUse">
      <feOffset dy="3" input="SourceAlpha"/>
      <feGaussianBlur stdDeviation="3" result="blur-2"/>
      <feFlood flood-opacity="0.161" result="color"/>
      <feComposite operator="out" in="SourceGraphic" in2="blur-2"/>
      <feComposite operator="in" in="color"/>
      <feComposite operator="in" in2="SourceGraphic"/>
    </filter>
  </defs>
  <g id="Group_1113488" data-name="Group 1113488" transform="translate(-611.051 -4527)">
    <g data-type="innerShadowGroup">
      <g transform="matrix(1, 0, 0, 1, 611.05, 4527)" filter="url(#Path_903573)">
        <g id="Path_903573-3" data-name="Path 903573" transform="translate(9 6)" fill="#fd9826">
          <path d="M 42.5 83 C 37.03165054321289 83 31.72793769836426 81.92946624755859 26.73618698120117 79.81812286376953 C 21.91371154785156 77.77839660644531 17.582275390625 74.85792541503906 13.86217498779297 71.13782501220703 C 10.14207458496094 67.417724609375 7.22160005569458 63.08628845214844 5.181875228881836 58.26381301879883 C 3.070537567138672 53.27206420898438 2 47.96834945678711 2 42.5 C 2 37.03165054321289 3.070537567138672 31.72793769836426 5.181875228881836 26.73618698120117 C 7.22160005569458 21.91371154785156 10.14207458496094 17.582275390625 13.86217498779297 13.86217498779297 C 17.582275390625 10.14207458496094 21.91371154785156 7.22160005569458 26.73618698120117 5.181875228881836 C 31.72793769836426 3.070537567138672 37.03165054321289 2 42.5 2 C 47.96834945678711 2 53.27206420898438 3.070537567138672 58.26381301879883 5.181875228881836 C 63.08628845214844 7.22160005569458 67.417724609375 10.14207458496094 71.13782501220703 13.86217498779297 C 74.85792541503906 17.582275390625 77.77839660644531 21.91371154785156 79.81812286376953 26.73618698120117 C 81.92946624755859 31.72793769836426 83 37.03165054321289 83 42.5 C 83 47.96834945678711 81.92946624755859 53.27206420898438 79.81812286376953 58.26381301879883 C 77.77839660644531 63.08628845214844 74.85792541503906 67.417724609375 71.13782501220703 71.13782501220703 C 67.417724609375 74.85792541503906 63.08628845214844 77.77839660644531 58.26381301879883 79.81812286376953 C 53.27206420898438 81.92946624755859 47.96834945678711 83 42.5 83 Z" stroke="none"/>
          <path d="M 42.5 4 C 37.3007698059082 4 32.25918579101562 5.017387390136719 27.51528549194336 7.023887634277344 C 22.93121337890625 8.962783813476562 18.81345367431641 11.73932647705078 15.27638244628906 15.27638244628906 C 11.73932647705078 18.81345367431641 8.962783813476562 22.93121337890625 7.023887634277344 27.51528549194336 C 5.017387390136719 32.25918579101562 4 37.3007698059082 4 42.5 C 4 47.6992301940918 5.017387390136719 52.74081420898438 7.023887634277344 57.48471450805664 C 8.962783813476562 62.06878662109375 11.73932647705078 66.18653869628906 15.27638244628906 69.72361755371094 C 18.81345367431641 73.26067352294922 22.93121337890625 76.03721618652344 27.51528549194336 77.97611236572266 C 32.25918579101562 79.98261260986328 37.3007698059082 81 42.5 81 C 47.6992301940918 81 52.74081420898438 79.98261260986328 57.48471450805664 77.97611236572266 C 62.06878662109375 76.03721618652344 66.18653869628906 73.26067352294922 69.72361755371094 69.72361755371094 C 73.26067352294922 66.18653869628906 76.03721618652344 62.06878662109375 77.97611236572266 57.48471450805664 C 79.98261260986328 52.74081420898438 81 47.6992301940918 81 42.5 C 81 37.3007698059082 79.98261260986328 32.25918579101562 77.97611236572266 27.51528549194336 C 76.03721618652344 22.93121337890625 73.26067352294922 18.81345367431641 69.72361755371094 15.27638244628906 C 66.18653869628906 11.73932647705078 62.06878662109375 8.962783813476562 57.48471450805664 7.023887634277344 C 52.74081420898438 5.017387390136719 47.6992301940918 4 42.5 4 M 42.5 0 C 65.97209930419922 0 85 19.02790069580078 85 42.5 C 85 65.97209930419922 65.97209930419922 85 42.5 85 C 19.02790069580078 85 0 65.97209930419922 0 42.5 C 0 19.02790069580078 19.02790069580078 0 42.5 0 Z" stroke="none" fill="#fff"/>
        </g>
      </g>
      <g id="Path_903573-4" data-name="Path 903573" transform="translate(620.051 4533)" fill="#fd9826">
        <path d="M 42.5 83 C 37.03165054321289 83 31.72793769836426 81.92946624755859 26.73618698120117 79.81812286376953 C 21.91371154785156 77.77839660644531 17.582275390625 74.85792541503906 13.86217498779297 71.13782501220703 C 10.14207458496094 67.417724609375 7.22160005569458 63.08628845214844 5.181875228881836 58.26381301879883 C 3.070537567138672 53.27206420898438 2 47.96834945678711 2 42.5 C 2 37.03165054321289 3.070537567138672 31.72793769836426 5.181875228881836 26.73618698120117 C 7.22160005569458 21.91371154785156 10.14207458496094 17.582275390625 13.86217498779297 13.86217498779297 C 17.582275390625 10.14207458496094 21.91371154785156 7.22160005569458 26.73618698120117 5.181875228881836 C 31.72793769836426 3.070537567138672 37.03165054321289 2 42.5 2 C 47.96834945678711 2 53.27206420898438 3.070537567138672 58.26381301879883 5.181875228881836 C 63.08628845214844 7.22160005569458 67.417724609375 10.14207458496094 71.13782501220703 13.86217498779297 C 74.85792541503906 17.582275390625 77.77839660644531 21.91371154785156 79.81812286376953 26.73618698120117 C 81.92946624755859 31.72793769836426 83 37.03165054321289 83 42.5 C 83 47.96834945678711 81.92946624755859 53.27206420898438 79.81812286376953 58.26381301879883 C 77.77839660644531 63.08628845214844 74.85792541503906 67.417724609375 71.13782501220703 71.13782501220703 C 67.417724609375 74.85792541503906 63.08628845214844 77.77839660644531 58.26381301879883 79.81812286376953 C 53.27206420898438 81.92946624755859 47.96834945678711 83 42.5 83 Z" stroke="none"/>
        <path d="M 42.5 4 C 37.3007698059082 4 32.25918579101562 5.017387390136719 27.51528549194336 7.023887634277344 C 22.93121337890625 8.962783813476562 18.81345367431641 11.73932647705078 15.27638244628906 15.27638244628906 C 11.73932647705078 18.81345367431641 8.962783813476562 22.93121337890625 7.023887634277344 27.51528549194336 C 5.017387390136719 32.25918579101562 4 37.3007698059082 4 42.5 C 4 47.6992301940918 5.017387390136719 52.74081420898438 7.023887634277344 57.48471450805664 C 8.962783813476562 62.06878662109375 11.73932647705078 66.18653869628906 15.27638244628906 69.72361755371094 C 18.81345367431641 73.26067352294922 22.93121337890625 76.03721618652344 27.51528549194336 77.97611236572266 C 32.25918579101562 79.98261260986328 37.3007698059082 81 42.5 81 C 47.6992301940918 81 52.74081420898438 79.98261260986328 57.48471450805664 77.97611236572266 C 62.06878662109375 76.03721618652344 66.18653869628906 73.26067352294922 69.72361755371094 69.72361755371094 C 73.26067352294922 66.18653869628906 76.03721618652344 62.06878662109375 77.97611236572266 57.48471450805664 C 79.98261260986328 52.74081420898438 81 47.6992301940918 81 42.5 C 81 37.3007698059082 79.98261260986328 32.25918579101562 77.97611236572266 27.51528549194336 C 76.03721618652344 22.93121337890625 73.26067352294922 18.81345367431641 69.72361755371094 15.27638244628906 C 66.18653869628906 11.73932647705078 62.06878662109375 8.962783813476562 57.48471450805664 7.023887634277344 C 52.74081420898438 5.017387390136719 47.6992301940918 4 42.5 4 M 42.5 0 C 65.97209930419922 0 85 19.02790069580078 85 42.5 C 85 65.97209930419922 65.97209930419922 85 42.5 85 C 19.02790069580078 85 0 65.97209930419922 0 42.5 C 0 19.02790069580078 19.02790069580078 0 42.5 0 Z" stroke="none"/>
      </g>
      <g transform="matrix(1, 0, 0, 1, 611.05, 4527)" filter="url(#Path_903573-2)">
        <g id="Path_903573-5" data-name="Path 903573" transform="translate(9 6)" fill="#fff">
          <path d="M 42.5 83 C 37.03165054321289 83 31.72793769836426 81.92946624755859 26.73618698120117 79.81812286376953 C 21.91371154785156 77.77839660644531 17.582275390625 74.85792541503906 13.86217498779297 71.13782501220703 C 10.14207458496094 67.417724609375 7.22160005569458 63.08628845214844 5.181875228881836 58.26381301879883 C 3.070537567138672 53.27206420898438 2 47.96834945678711 2 42.5 C 2 37.03165054321289 3.070537567138672 31.72793769836426 5.181875228881836 26.73618698120117 C 7.22160005569458 21.91371154785156 10.14207458496094 17.582275390625 13.86217498779297 13.86217498779297 C 17.582275390625 10.14207458496094 21.91371154785156 7.22160005569458 26.73618698120117 5.181875228881836 C 31.72793769836426 3.070537567138672 37.03165054321289 2 42.5 2 C 47.96834945678711 2 53.27206420898438 3.070537567138672 58.26381301879883 5.181875228881836 C 63.08628845214844 7.22160005569458 67.417724609375 10.14207458496094 71.13782501220703 13.86217498779297 C 74.85792541503906 17.582275390625 77.77839660644531 21.91371154785156 79.81812286376953 26.73618698120117 C 81.92946624755859 31.72793769836426 83 37.03165054321289 83 42.5 C 83 47.96834945678711 81.92946624755859 53.27206420898438 79.81812286376953 58.26381301879883 C 77.77839660644531 63.08628845214844 74.85792541503906 67.417724609375 71.13782501220703 71.13782501220703 C 67.417724609375 74.85792541503906 63.08628845214844 77.77839660644531 58.26381301879883 79.81812286376953 C 53.27206420898438 81.92946624755859 47.96834945678711 83 42.5 83 Z" stroke="none"/>
          <path d="M 42.5 4 C 37.3007698059082 4 32.25918579101562 5.017387390136719 27.51528549194336 7.023887634277344 C 22.93121337890625 8.962783813476562 18.81345367431641 11.73932647705078 15.27638244628906 15.27638244628906 C 11.73932647705078 18.81345367431641 8.962783813476562 22.93121337890625 7.023887634277344 27.51528549194336 C 5.017387390136719 32.25918579101562 4 37.3007698059082 4 42.5 C 4 47.6992301940918 5.017387390136719 52.74081420898438 7.023887634277344 57.48471450805664 C 8.962783813476562 62.06878662109375 11.73932647705078 66.18653869628906 15.27638244628906 69.72361755371094 C 18.81345367431641 73.26067352294922 22.93121337890625 76.03721618652344 27.51528549194336 77.97611236572266 C 32.25918579101562 79.98261260986328 37.3007698059082 81 42.5 81 C 47.6992301940918 81 52.74081420898438 79.98261260986328 57.48471450805664 77.97611236572266 C 62.06878662109375 76.03721618652344 66.18653869628906 73.26067352294922 69.72361755371094 69.72361755371094 C 73.26067352294922 66.18653869628906 76.03721618652344 62.06878662109375 77.97611236572266 57.48471450805664 C 79.98261260986328 52.74081420898438 81 47.6992301940918 81 42.5 C 81 37.3007698059082 79.98261260986328 32.25918579101562 77.97611236572266 27.51528549194336 C 76.03721618652344 22.93121337890625 73.26067352294922 18.81345367431641 69.72361755371094 15.27638244628906 C 66.18653869628906 11.73932647705078 62.06878662109375 8.962783813476562 57.48471450805664 7.023887634277344 C 52.74081420898438 5.017387390136719 47.6992301940918 4 42.5 4 M 42.5 0 C 65.97209930419922 0 85 19.02790069580078 85 42.5 C 85 65.97209930419922 65.97209930419922 85 42.5 85 C 19.02790069580078 85 0 65.97209930419922 0 42.5 C 0 19.02790069580078 19.02790069580078 0 42.5 0 Z" stroke="none"/>
        </g>
      </g>
      <g id="Path_903573-6" data-name="Path 903573" transform="translate(620.051 4533)" fill="none">
        <path d="M 42.5 83 C 37.03165054321289 83 31.72793769836426 81.92946624755859 26.73618698120117 79.81812286376953 C 21.91371154785156 77.77839660644531 17.582275390625 74.85792541503906 13.86217498779297 71.13782501220703 C 10.14207458496094 67.417724609375 7.22160005569458 63.08628845214844 5.181875228881836 58.26381301879883 C 3.070537567138672 53.27206420898438 2 47.96834945678711 2 42.5 C 2 37.03165054321289 3.070537567138672 31.72793769836426 5.181875228881836 26.73618698120117 C 7.22160005569458 21.91371154785156 10.14207458496094 17.582275390625 13.86217498779297 13.86217498779297 C 17.582275390625 10.14207458496094 21.91371154785156 7.22160005569458 26.73618698120117 5.181875228881836 C 31.72793769836426 3.070537567138672 37.03165054321289 2 42.5 2 C 47.96834945678711 2 53.27206420898438 3.070537567138672 58.26381301879883 5.181875228881836 C 63.08628845214844 7.22160005569458 67.417724609375 10.14207458496094 71.13782501220703 13.86217498779297 C 74.85792541503906 17.582275390625 77.77839660644531 21.91371154785156 79.81812286376953 26.73618698120117 C 81.92946624755859 31.72793769836426 83 37.03165054321289 83 42.5 C 83 47.96834945678711 81.92946624755859 53.27206420898438 79.81812286376953 58.26381301879883 C 77.77839660644531 63.08628845214844 74.85792541503906 67.417724609375 71.13782501220703 71.13782501220703 C 67.417724609375 74.85792541503906 63.08628845214844 77.77839660644531 58.26381301879883 79.81812286376953 C 53.27206420898438 81.92946624755859 47.96834945678711 83 42.5 83 Z" stroke="none"/>
        <path d="M 42.5 4 C 37.3007698059082 4 32.25918579101562 5.017387390136719 27.51528549194336 7.023887634277344 C 22.93121337890625 8.962783813476562 18.81345367431641 11.73932647705078 15.27638244628906 15.27638244628906 C 11.73932647705078 18.81345367431641 8.962783813476562 22.93121337890625 7.023887634277344 27.51528549194336 C 5.017387390136719 32.25918579101562 4 37.3007698059082 4 42.5 C 4 47.6992301940918 5.017387390136719 52.74081420898438 7.023887634277344 57.48471450805664 C 8.962783813476562 62.06878662109375 11.73932647705078 66.18653869628906 15.27638244628906 69.72361755371094 C 18.81345367431641 73.26067352294922 22.93121337890625 76.03721618652344 27.51528549194336 77.97611236572266 C 32.25918579101562 79.98261260986328 37.3007698059082 81 42.5 81 C 47.6992301940918 81 52.74081420898438 79.98261260986328 57.48471450805664 77.97611236572266 C 62.06878662109375 76.03721618652344 66.18653869628906 73.26067352294922 69.72361755371094 69.72361755371094 C 73.26067352294922 66.18653869628906 76.03721618652344 62.06878662109375 77.97611236572266 57.48471450805664 C 79.98261260986328 52.74081420898438 81 47.6992301940918 81 42.5 C 81 37.3007698059082 79.98261260986328 32.25918579101562 77.97611236572266 27.51528549194336 C 76.03721618652344 22.93121337890625 73.26067352294922 18.81345367431641 69.72361755371094 15.27638244628906 C 66.18653869628906 11.73932647705078 62.06878662109375 8.962783813476562 57.48471450805664 7.023887634277344 C 52.74081420898438 5.017387390136719 47.6992301940918 4 42.5 4 M 42.5 0 C 65.97209930419922 0 85 19.02790069580078 85 42.5 C 85 65.97209930419922 65.97209930419922 85 42.5 85 C 19.02790069580078 85 0 65.97209930419922 0 42.5 C 0 19.02790069580078 19.02790069580078 0 42.5 0 Z" stroke="none" fill="#fff"/>
      </g>
    </g>
    <g id="Group_1113487" data-name="Group 1113487" transform="translate(636.051 4548.525)">
      <g id="Group_1113484" data-name="Group 1113484" transform="translate(0.787 1.262)">
        <path id="Path_907432" data-name="Path 907432" d="M117.79,53.548H84.544a1.534,1.534,0,0,1-1.534-1.534V9.511a1.534,1.534,0,0,1,1.534-1.534H117.79a1.534,1.534,0,0,1,1.534,1.534v42.5A1.534,1.534,0,0,1,117.79,53.548Z" transform="translate(-75.084 -7.977)" fill="#f2fbff"/>
        <path id="Path_907433" data-name="Path 907433" d="M389.044,9.51v42.5a1.534,1.534,0,0,1-1.535,1.535h-3.15a1.534,1.534,0,0,0,1.535-1.535V9.51a1.535,1.535,0,0,0-1.535-1.535h3.15A1.535,1.535,0,0,1,389.044,9.51Z" transform="translate(-344.804 -7.975)" fill="#dff6fd"/>
        <g id="Group_1113479" data-name="Group 1113479" transform="translate(13.629 7.24)">
          <path id="Path_907434" data-name="Path 907434" d="M206.923,90.886A1.627,1.627,0,0,1,205.3,89.26V78.577a1.627,1.627,0,0,1,3.253,0V89.26A1.627,1.627,0,0,1,206.923,90.886Z" transform="translate(-198.164 -76.95)" fill="#8ac9fe"/>
          <path id="Path_907435" data-name="Path 907435" d="M276.1,148.926a1.627,1.627,0,0,1-1.627-1.627v-3.877a1.627,1.627,0,0,1,3.253,0V147.3A1.627,1.627,0,0,1,276.1,148.926Z" transform="translate(-260.081 -134.99)" fill="#978ecb"/>
          <path id="Path_907436" data-name="Path 907436" d="M138.979,118.222a1.627,1.627,0,0,1-1.627-1.627v-7.477a1.627,1.627,0,0,1,3.253,0V116.6A1.627,1.627,0,0,1,138.979,118.222Z" transform="translate(-137.352 -104.285)" fill="#fe76a8"/>
          <path id="Path_907437" data-name="Path 907437" d="M345.279,118.222a1.627,1.627,0,0,1-1.627-1.627v-7.477a1.627,1.627,0,1,1,3.253,0V116.6A1.627,1.627,0,0,1,345.279,118.222Z" transform="translate(-321.998 -104.285)" fill="#97da7b"/>
        </g>
        <path id="Path_907438" data-name="Path 907438" d="M58.008,365.988H9.158a1.658,1.658,0,0,1,0-3.317H58.007a1.658,1.658,0,0,1,0,3.317Z" transform="translate(-7.5 -325.441)" fill="#e19974"/>
        <path id="Path_907439" data-name="Path 907439" d="M193.842,394h3.645a2.525,2.525,0,0,1,2.387,1.7l2.792,8.082a1.331,1.331,0,0,1-1.258,1.766H189.922a1.331,1.331,0,0,1-1.258-1.766l2.792-8.082A2.525,2.525,0,0,1,193.842,394Z" transform="translate(-169.582 -353.484)" fill="#dc8758"/>
        <g id="Group_1113480" data-name="Group 1113480" transform="translate(1.118 23.65)">
          <circle id="Ellipse_12929" data-name="Ellipse 12929" cx="6.808" cy="6.808" r="6.808" fill="#ffe177"/>
        </g>
        <g id="Group_1113481" data-name="Group 1113481" transform="translate(37.433 23.65)">
          <circle id="Ellipse_12930" data-name="Ellipse 12930" cx="6.808" cy="6.808" r="6.808" fill="#ffe177"/>
        </g>
        <path id="Path_907440" data-name="Path 907440" d="M246.867,394.032h-3.15a2.515,2.515,0,0,0-.367-.027H246.5A2.49,2.49,0,0,1,246.867,394.032Z" transform="translate(-218.595 -353.487)" fill="#dc8758"/>
        <path id="Path_907441" data-name="Path 907441" d="M463.5,364.323a1.659,1.659,0,0,1-1.658,1.658h-3.15a1.658,1.658,0,1,0,0-3.317h3.15A1.659,1.659,0,0,1,463.5,364.323Z" transform="translate(-411.332 -325.436)" fill="#dc8758"/>
        <path id="Path_907442" data-name="Path 907442" d="M250.421,405.553H247.27a1.331,1.331,0,0,0,1.258-1.767l-2.792-8.081a2.53,2.53,0,0,0-2.387-1.7H246.5a2.49,2.49,0,0,1,.366.027,2.522,2.522,0,0,1,2.019,1.673l2.793,8.081A1.332,1.332,0,0,1,250.421,405.553Z" transform="translate(-218.595 -353.487)" fill="#d77f4a"/>
        <g id="Group_1113482" data-name="Group 1113482" transform="translate(5.983 23.65)">
          <path id="Path_907443" data-name="Path 907443" d="M73.251,240.1a6.813,6.813,0,0,1-8.751,6.527,6.81,6.81,0,0,0,0-13.053,6.813,6.813,0,0,1,8.751,6.527Z" transform="translate(-64.5 -233.295)" fill="#ffd15b"/>
        </g>
        <g id="Group_1113483" data-name="Group 1113483" transform="translate(42.297 23.65)">
          <path id="Path_907444" data-name="Path 907444" d="M419.231,240.1a6.813,6.813,0,0,1-8.751,6.527,6.81,6.81,0,0,0,0-13.053,6.813,6.813,0,0,1,8.751,6.527Z" transform="translate(-410.48 -233.295)" fill="#ffd15b"/>
        </g>
        <path id="Path_907445" data-name="Path 907445" d="M246.867,394.032h-3.15a2.515,2.515,0,0,0-.367-.027H246.5A2.49,2.49,0,0,1,246.867,394.032Z" transform="translate(-218.595 -353.487)" fill="#dc8758"/>
      </g>
      <g id="Group_1113486" data-name="Group 1113486" transform="translate(0 0.475)">
        <path id="Path_907446" data-name="Path 907446" d="M204.6,264.856a.787.787,0,0,0-.787-.787H191.733a.787.787,0,1,0,0,1.574h12.082A.787.787,0,0,0,204.6,264.856Z" transform="translate(-170.904 -236.402)"/>
        <path id="Path_907447" data-name="Path 907447" d="M225.463,291.172a.787.787,0,1,0,0,1.574h5a.787.787,0,1,0,0-1.574Z" transform="translate(-201.094 -260.66)"/>
        <path id="Path_907448" data-name="Path 907448" d="M197.795,71.864V82.547a2.414,2.414,0,0,0,4.828,0V71.864a2.414,2.414,0,0,0-4.828,0Zm1.574,0a.84.84,0,0,1,1.679,0V82.547a.84.84,0,0,1-1.679,0Z" transform="translate(-177.034 -62.21)"/>
        <path id="Path_907449" data-name="Path 907449" d="M266.974,136.71v3.877a2.414,2.414,0,1,0,4.828,0V136.71a2.414,2.414,0,1,0-4.828,0Zm3.253,0v3.877a.839.839,0,0,1-1.679,0V136.71a.839.839,0,0,1,1.679,0Z" transform="translate(-238.952 -120.25)"/>
        <path id="Path_907450" data-name="Path 907450" d="M132.266,112.3a2.417,2.417,0,0,0,2.414-2.414v-7.477a2.414,2.414,0,0,0-4.828,0v7.477a2.417,2.417,0,0,0,2.414,2.414Zm-.84-9.891a.84.84,0,0,1,1.679,0v7.477a.84.84,0,0,1-1.679,0Z" transform="translate(-116.223 -89.547)"/>
        <path id="Path_907451" data-name="Path 907451" d="M338.565,112.3a2.417,2.417,0,0,0,2.414-2.414v-7.477a2.414,2.414,0,1,0-4.828,0v7.477A2.417,2.417,0,0,0,338.565,112.3Zm-.839-9.891a.84.84,0,0,1,1.679,0v7.477a.84.84,0,0,1-1.679,0Z" transform="translate(-300.868 -89.547)"/>
        <path id="Path_907452" data-name="Path 907452" d="M51.295,37.7H49.7a7.595,7.595,0,1,0-9.335,0H13.381A7.59,7.59,0,0,0,9.5,24.166V2.8a.748.748,0,0,1,.747-.747H43.493a.748.748,0,0,1,.747.747V21.2a.787.787,0,1,0,1.574,0V2.8A2.324,2.324,0,0,0,43.493.475H10.247A2.324,2.324,0,0,0,7.926,2.8V24.166A7.59,7.59,0,0,0,4.045,37.7h-1.6a2.446,2.446,0,0,0,0,4.891h5.48v2.7a2.324,2.324,0,0,0,2.322,2.322H20.4l-1.273,3.685a2.119,2.119,0,0,0,2,2.81H32.613a2.119,2.119,0,0,0,2-2.81l-1.273-3.685h10.15A2.324,2.324,0,0,0,45.815,45.3V42.6h5.48a2.446,2.446,0,0,0,0-4.891ZM39.007,31.72A6.02,6.02,0,1,1,45.678,37.7h-1.3A6.028,6.028,0,0,1,39.007,31.72Zm-36.315,0A6.02,6.02,0,1,1,9.364,37.7h-1.3A6.029,6.029,0,0,1,2.692,31.72ZM33.056,52.313a.538.538,0,0,1-.443.228H21.127a.544.544,0,0,1-.514-.722L23.4,43.738A1.738,1.738,0,0,1,24.742,42.6H29a1.738,1.738,0,0,1,1.337,1.142l2.792,8.082A.538.538,0,0,1,33.056,52.313ZM44.24,45.3a.748.748,0,0,1-.747.747H32.8l-.975-2.823a3.3,3.3,0,0,0-.3-.628H44.24Zm7.054-4.278H16.536a.787.787,0,0,0,0,1.574h5.677a3.3,3.3,0,0,0-.3.628l-.975,2.823H10.247A.748.748,0,0,1,9.5,45.3V42.6h3.351a.787.787,0,0,0,0-1.574H2.446a.871.871,0,0,1,0-1.742H51.295a.871.871,0,1,1,0,1.742Z" transform="translate(0 -0.475)"/>
        <path id="Path_907453" data-name="Path 907453" d="M63.95,263.942V263.8a2.4,2.4,0,0,0,1.54-1.84,2.125,2.125,0,0,0-1.442-2.406,5.541,5.541,0,0,1-1.385-.639.318.318,0,0,1-.037-.264.463.463,0,0,1,.3-.366.961.961,0,0,1,.886.131l.038.032a.781.781,0,1,0,.978-1.217,2.475,2.475,0,0,0-.874-.471v-.047a.809.809,0,0,0-.763-.82.787.787,0,0,0-.811.787v.129a2.025,2.025,0,0,0-1.3,1.551,1.824,1.824,0,0,0,.613,1.795,6.639,6.639,0,0,0,1.832.885.552.552,0,0,1,.414.66.786.786,0,0,1-.78.663,1.428,1.428,0,0,1-1.037-.258.811.811,0,0,0-1.1.187.787.787,0,0,0,.212,1.113,2.891,2.891,0,0,0,1.144.483v.091a.787.787,0,0,0,.811.787A.809.809,0,0,0,63.95,263.942Z" transform="translate(-54.486 -229.081)"/>
        <path id="Path_907454" data-name="Path 907454" d="M409.927,263.94v-.145a2.4,2.4,0,0,0,1.54-1.84,2.125,2.125,0,0,0-1.442-2.406,5.531,5.531,0,0,1-1.385-.639.318.318,0,0,1-.037-.264.463.463,0,0,1,.3-.366.961.961,0,0,1,.886.131l.045.038a.781.781,0,1,0,.981-1.214,2.482,2.482,0,0,0-.884-.48v-.047a.809.809,0,0,0-.763-.82.787.787,0,0,0-.811.787v.128a2.025,2.025,0,0,0-1.3,1.551,1.824,1.824,0,0,0,.613,1.795,6.643,6.643,0,0,0,1.832.884.552.552,0,0,1,.414.66.786.786,0,0,1-.78.663,1.429,1.429,0,0,1-1.037-.258.811.811,0,0,0-1.1.187.787.787,0,0,0,.212,1.113,2.892,2.892,0,0,0,1.144.483v.091a.787.787,0,0,0,.811.787A.809.809,0,0,0,409.927,263.94Z" transform="translate(-364.148 -229.079)"/>
        <g id="Group_1113485" data-name="Group 1113485" transform="translate(12.941 3.48)">
          <circle id="Ellipse_12931" data-name="Ellipse 12931" cx="0.787" cy="0.787" r="0.787"/>
          <circle id="Ellipse_12932" data-name="Ellipse 12932" cx="0.787" cy="0.787" r="0.787" transform="translate(4.38)"/>
          <circle id="Ellipse_12933" data-name="Ellipse 12933" cx="0.787" cy="0.787" r="0.787" transform="translate(8.76)"/>
          <circle id="Ellipse_12934" data-name="Ellipse 12934" cx="0.787" cy="0.787" r="0.787" transform="translate(13.14)"/>
          <circle id="Ellipse_12935" data-name="Ellipse 12935" cx="0.787" cy="0.787" r="0.787" transform="translate(17.52)"/>
          <circle id="Ellipse_12936" data-name="Ellipse 12936" cx="0.787" cy="0.787" r="0.787" transform="translate(21.9)"/>
          <circle id="Ellipse_12937" data-name="Ellipse 12937" cx="0.787" cy="0.787" r="0.787" transform="translate(26.28)"/>
        </g>
      </g>
    </g>
  </g>
</svg>
