<svg xmlns="http://www.w3.org/2000/svg" xmlns:xlink="http://www.w3.org/1999/xlink" width="400" height="411.008" viewBox="0 0 400 411.008">
  <defs>
    <clipPath id="clip-path">
      <rect id="Rectangle_406413" data-name="Rectangle 406413" width="132.25" height="124.344" fill="none"/>
    </clipPath>
    <clipPath id="clip-path-2">
      <rect id="Rectangle_406412" data-name="Rectangle 406412" width="132.249" height="124.344" fill="none"/>
    </clipPath>
    <clipPath id="clip-path-3">
      <rect id="Rectangle_406417" data-name="Rectangle 406417" width="128.282" height="100.703" fill="none"/>
    </clipPath>
    <clipPath id="clip-path-4">
      <rect id="Rectangle_406416" data-name="Rectangle 406416" width="128.284" height="100.704" fill="none"/>
    </clipPath>
    <clipPath id="clip-path-5">
      <rect id="Rectangle_406410" data-name="Rectangle 406410" width="364.18" height="370.319" fill="none"/>
    </clipPath>
    <clipPath id="clip-path-9">
      <rect id="Rectangle_406406" data-name="Rectangle 406406" width="91.131" height="56.411" fill="none"/>
    </clipPath>
    <clipPath id="clip-path-10">
      <rect id="Rectangle_406407" data-name="Rectangle 406407" width="32.334" height="32.757" fill="none"/>
    </clipPath>
    <clipPath id="clip-path-11">
      <rect id="Rectangle_406408" data-name="Rectangle 406408" width="34.952" height="33.376" fill="none"/>
    </clipPath>
  </defs>
  <g id="Group_1113520" data-name="Group 1113520" transform="translate(-285.051 -4905)">
    <path id="Path_1242380" data-name="Path 1242380" d="M8,0H352.3a8,8,0,0,1,8,8V340.836a8,8,0,0,1-8,8H8a8,8,0,0,1-8-8V8A8,8,0,0,1,8,0Z" transform="translate(324.749 4967.172)" fill="#f6cbc2"/>
    <g id="Group_1113512" data-name="Group 1113512" transform="translate(285.051 4905)">
      <g id="Group_1113511" data-name="Group 1113511" clip-path="url(#clip-path)">
        <path id="Path_907528" data-name="Path 907528" d="M.223.228V123.753h131.44V.228Z" transform="translate(0.151 0.154)" fill="#fafafa"/>
        <g id="Group_1113510" data-name="Group 1113510" transform="translate(0 0)">
          <g id="Group_1113509" data-name="Group 1113509" clip-path="url(#clip-path-2)">
            <path id="Path_907529" data-name="Path 907529" d="M.374.382S.565.367.964.36L2.752.339,9.769.3C15.963.272,25,.236,36.473.194L131.814,0h.381V.382c.017,36.117.035,78.451.055,123.513v.449h-.436L.374,124.28H0v-.374C.079,86.752.146,55.837.191,34.183c.042-10.763.075-19.22.1-25.017C.308,6.31.322,4.115.332,2.6.347,1.125.374.382.374.382s.028.8.042,2.3c.01,1.527.025,3.747.044,6.633.022,5.817.055,14.3.1,25.1C.6,56.017.669,86.85.748,123.907l-.374-.374c38-.017,83.149-.039,131.44-.062l-.438.436v-.012c.02-45.062.04-87.4.055-123.513l.382.381L36.716.57,9.929.469,2.838.426,1.007.4C.6.4.374.382.374.382" transform="translate(0 0)" fill="#263238"/>
            <path id="Path_907530" data-name="Path 907530" d="M55.442,8.579A40.556,40.556,0,1,0,96,49.135,40.556,40.556,0,0,0,55.442,8.579m.612,64.857A24.913,24.913,0,1,1,80.967,48.523,24.913,24.913,0,0,1,56.054,73.436" transform="translate(10.067 5.802)" fill="#cbe7e8"/>
            <path id="Path_907531" data-name="Path 907531" d="M39.452,8.589c0,4.315,0,10.135,0,15.015A24.922,24.922,0,0,1,63.185,56.072l14.7,3.985A40.539,40.539,0,0,0,39.452,8.589" transform="translate(26.679 5.809)" fill="#008d8e"/>
            <path id="Path_907532" data-name="Path 907532" d="M31.141,47.24A24.91,24.91,0,0,1,45.909,24.487l-6.237-14.01A40.568,40.568,0,0,0,14.886,47.852c0,.57.02,1.137.044,1.7H31.252c-.07-.761-.111-1.532-.111-2.313" transform="translate(10.067 7.086)" fill="#98d1d1"/>
            <path id="Path_907533" data-name="Path 907533" d="M42.677,54.273a25.043,25.043,0,0,1-5.27-.563c-.627,3.614-1.81,10.618-2.741,16.133A40.523,40.523,0,0,0,81.119,40.9l-14.7-3.985A24.919,24.919,0,0,1,42.677,54.273" transform="translate(23.444 24.966)" fill="#fd9826"/>
            <path id="Path_907535" data-name="Path 907535" d="M86.178,63.227c0,.213-15.026.384-33.558.384s-33.559-.171-33.559-.384,15.023-.386,33.559-.386,33.558.173,33.558.386" transform="translate(12.891 42.499)" fill="#263238"/>
            <path id="Path_907536" data-name="Path 907536" d="M65.2,66.9c0,.213-8.335.386-18.612.386s-18.614-.173-18.614-.386,8.333-.384,18.614-.384S65.2,66.689,65.2,66.9" transform="translate(18.921 44.986)" fill="#263238"/>
            <path id="Path_907537" data-name="Path 907537" d="M39.406,35.7c0,1.948-1.628,3.19-3.671,3.19-2.618,0-4.327-1.574-4.327-4.6,0-3.259,2.017-5.114,4.967-5.114a5.24,5.24,0,0,1,2.751.681l-.962,1.9a2.887,2.887,0,0,0-1.722-.481,2.193,2.193,0,0,0-2.362,2.178,3.1,3.1,0,0,1,2.107-.694,3,3,0,0,1,3.218,2.95m-2.563.119a1.16,1.16,0,0,0-1.282-1.175,1.187,1.187,0,1,0,.013,2.364,1.158,1.158,0,0,0,1.269-1.188" transform="translate(21.241 19.73)" fill="#263238"/>
            <path id="Path_907538" data-name="Path 907538" d="M36.573,34.033c0-3.084,1.737-4.86,4.127-4.86,2.375,0,4.112,1.775,4.112,4.86s-1.737,4.86-4.112,4.86c-2.39,0-4.127-1.775-4.127-4.86m5.582,0c0-1.963-.615-2.7-1.455-2.7-.855,0-1.47.734-1.47,2.7s.615,2.7,1.47,2.7c.84,0,1.455-.734,1.455-2.7" transform="translate(24.734 19.73)" fill="#263238"/>
            <path id="Path_907539" data-name="Path 907539" d="M41.928,31.8a2.4,2.4,0,1,1,4.794,0,2.4,2.4,0,1,1-4.794,0m7.919-2.471H51.77L45.386,38.68H43.463ZM45.106,31.8c0-.949-.334-1.323-.788-1.323-.427,0-.788.374-.788,1.323s.36,1.321.788,1.321c.454,0,.788-.374.788-1.321m3.418,4.405a2.4,2.4,0,1,1,4.794,0,2.4,2.4,0,1,1-4.794,0m3.178,0c0-.949-.347-1.323-.788-1.323s-.788.374-.788,1.323.347,1.321.788,1.321.788-.374.788-1.321" transform="translate(28.356 19.756)" fill="#263238"/>
          </g>
        </g>
      </g>
    </g>
    <g id="Group_1113519" data-name="Group 1113519" transform="translate(527.769 5129.286)">
      <g id="Group_1113518" data-name="Group 1113518" clip-path="url(#clip-path-3)">
        <g id="Group_1113517" data-name="Group 1113517" transform="translate(0 -0.001)">
          <g id="Group_1113516" data-name="Group 1113516" clip-path="url(#clip-path-4)">
            <path id="Path_907540" data-name="Path 907540" d="M19.439,100.62a8.009,8.009,0,0,1-9.069-6.783L.431,24.949a6.641,6.641,0,0,1,5.862-7.326l6.478-.935a6.887,6.887,0,0,0,5.62-4.576l.986-3.025A6.889,6.889,0,0,1,25,4.514L55.747.076a6.947,6.947,0,0,1,6.286,2.275l1.855,2.178A6.956,6.956,0,0,0,70.175,6.8l39.2-5.656a6.644,6.644,0,0,1,7.7,5.37l10.167,70.461a8.01,8.01,0,0,1-6.783,9.069Z" transform="translate(0.967 0.001)" fill="#2c597c"/>
            <path id="Path_907542" data-name="Path 907542" d="M67.272,6.687,42.326,10.23,39.5,6.386a8.7,8.7,0,0,0-8.261-3.312L6.866,6.592A7.7,7.7,0,0,0,.073,15.082l.409,2.844,10.794,74.8c.667,4.616,5.2,7.779,10.131,7.069l99.012-14.283c4.928-.714,8.384-5.033,7.717-9.649L117.939,5.2A5.769,5.769,0,0,0,111.407.317Z" transform="translate(0 0.677)" fill="#fd9826"/>
            <rect id="Rectangle_406415" data-name="Rectangle 406415" width="59.536" height="25.047" transform="translate(36.2 39.743) rotate(-8.209)" fill="#fff"/>
            <path id="Path_907543" data-name="Path 907543" d="M53.5,12.02c.033.217-9.007,1.707-20.185,3.319s-20.272,2.743-20.3,2.522,9.007-1.7,20.189-3.315S53.467,11.8,53.5,12.02" transform="translate(34.128 31.46)" fill="#263238"/>
            <path id="Path_907544" data-name="Path 907544" d="M53.71,13.477c.033.221-9.007,1.707-20.185,3.319s-20.272,2.743-20.3,2.522,9.007-1.7,20.189-3.315,20.268-2.746,20.3-2.525" transform="translate(34.679 35.282)" fill="#263238"/>
          </g>
        </g>
      </g>
    </g>
    <g id="Group_1113505" data-name="Group 1113505" transform="translate(303.051 4945.689)">
      <g id="Group_1113504" data-name="Group 1113504" clip-path="url(#clip-path-5)">
        <g id="Group_1113490" data-name="Group 1113490">
          <g id="Group_1113489" data-name="Group 1113489" clip-path="url(#clip-path-5)">
            <path id="Path_907455" data-name="Path 907455" d="M232.1,146.762l10.81-19.051a51.042,51.042,0,1,1,12.225,13.6l.018.023Z" transform="translate(14.562 3.141)" fill="#fff"/>
            <path id="Path_907456" data-name="Path 907456" d="M232.1,146.774l23.021-5.562-.078.218-.018-.022-.64-.832.834.639a52.238,52.238,0,0,0,10.448,6.226,50.963,50.963,0,0,0,13.886,3.907,45.579,45.579,0,0,0,8.006.378c1.376-.083,2.777-.12,4.189-.242l4.267-.657a50.995,50.995,0,0,0,31.5-20.308,50.307,50.307,0,0,0,8.5-19.487,51.426,51.426,0,0,0-.61-22.421,49.75,49.75,0,0,0-10.8-20.72l-2.057-2.265c-.677-.762-1.484-1.389-2.217-2.088-.767-.66-1.459-1.409-2.284-1.993l-2.418-1.809a21.308,21.308,0,0,0-2.5-1.657l-2.556-1.553-2.676-1.3a23.168,23.168,0,0,0-2.7-1.2,51.474,51.474,0,0,0-22.59-3.487,49.785,49.785,0,0,0-20.752,6.105,51.29,51.29,0,0,0-24.016,29.435,54.824,54.824,0,0,0-2.248,16.432A50.542,50.542,0,0,0,238,116.725a51.72,51.72,0,0,0,5.022,10.928l.04.068-.038.068L232.1,146.774,242.8,127.657l0,.135a51.642,51.642,0,0,1-5.106-10.966,50.686,50.686,0,0,1-2.492-14.308,55.092,55.092,0,0,1,2.217-16.57A51.7,51.7,0,0,1,261.6,56.2,50.254,50.254,0,0,1,282.559,50a51.982,51.982,0,0,1,22.833,3.509,23.759,23.759,0,0,1,2.731,1.215l2.7,1.314,2.585,1.569a21.682,21.682,0,0,1,2.531,1.675l2.444,1.828c.834.59,1.534,1.346,2.309,2.014.741.707,1.557,1.341,2.24,2.111l2.08,2.289a50.251,50.251,0,0,1,10.919,20.949,51.943,51.943,0,0,1,.6,22.66,50.794,50.794,0,0,1-8.608,19.679,51.389,51.389,0,0,1-31.831,20.44l-4.305.651c-1.424.12-2.836.154-4.224.233a45.906,45.906,0,0,1-8.066-.406,51.14,51.14,0,0,1-13.972-3.986,52.216,52.216,0,0,1-10.48-6.314l.193-.192.018.022.13.17-.208.048L232.1,146.774" transform="translate(14.562 3.129)" fill="#263238"/>
            <path id="Path_907457" data-name="Path 907457" d="M295.924,101.556c-5.152,0-8.741-3.788-8.741-9.882s3.589-9.88,8.741-9.88,8.79,3.84,8.79,9.88-3.637,9.882-8.79,9.882m0-4.2c2.172,0,3.688-1.893,3.688-5.684s-1.515-5.684-3.688-5.684c-2.223,0-3.689,1.845-3.689,5.684s1.466,5.684,3.689,5.684m3.082,20.686h-6.012L268.845,82.2h6.012Zm-27.079.409c-5.152,0-8.791-3.84-8.791-9.881s3.639-9.882,8.791-9.882c5.1,0,8.739,3.841,8.739,9.882s-3.637,9.881-8.739,9.881m0-4.2c2.171,0,3.688-1.843,3.688-5.684s-1.517-5.684-3.688-5.684c-2.222,0-3.688,1.894-3.688,5.684s1.466,5.684,3.688,5.684" transform="translate(16.509 5.132)" fill="#263238"/>
          </g>
        </g>
        <g id="Group_1113492" data-name="Group 1113492">
          <g id="Group_1113491" data-name="Group 1113491" clip-path="url(#clip-path-5)">
            <path id="Path_907458" data-name="Path 907458" d="M230.079,348.676h86.35l33.316-13.6v-3.4l-54.393.337L269.514,344.6l-34.565-.566a4.8,4.8,0,0,0-4.871,4.646" transform="translate(14.435 20.81)" fill="#263238"/>
            <path id="Path_907459" data-name="Path 907459" d="M347.162,334.879a4.418,4.418,0,0,1-.8.073l-2.3.1-8.469.274-27.946.694L294.3,336.3l.117-.031L277.8,345.125l-4.8,2.506-1.29.649a2.194,2.194,0,0,1-.459.2,2.141,2.141,0,0,1,.418-.275l1.25-.723,4.732-2.639,16.529-9.031.054-.03.064,0,13.341-.308,27.949-.532,8.473-.1h2.3a4.358,4.358,0,0,1,.8.038" transform="translate(17.018 21.008)" fill="#455a64"/>
          </g>
        </g>
        <g id="Group_1113503" data-name="Group 1113503">
          <g id="Group_1113502" data-name="Group 1113502" clip-path="url(#clip-path-5)">
            <path id="Path_907460" data-name="Path 907460" d="M167.352,2.365C153.71-.6,139.086,3.983,128.16,12.676s-18.428,21.118-23.193,34.242-6.977,27.02-8.842,40.858q-4.642,34.438-6.633,69.163c-.166,2.9-.3,5.917.837,8.59,1.627,3.829,5.633,6.226,9.717,7.024s8.3.251,12.42-.3" transform="translate(5.608 0.092)" fill="#263238"/>
            <path id="Path_907461" data-name="Path 907461" d="M180.835,7.754c10.611-.845,23.5,3.15,29.551,11.906,4.7,6.8,3.627,18.691,5.261,26.8,2.619,12.992,5.246,26.063,5.613,39.311.4,14.562-1.927,29.045-4.251,43.425q-3.855,23.843-7.707,47.685c-1.144,7.073-2.333,14.286-5.663,20.63s-9.241,11.775-16.356,12.613c-6.512.766-13.055-2.483-17.443-7.355s-6.87-11.184-8.405-17.56" transform="translate(10.129 0.48)" fill="#263238"/>
            <path id="Path_907462" data-name="Path 907462" d="M207.12,157.941c-.349-.17.173-2.033,1.352-5.269s3.034-7.838,5.087-13.561a126.513,126.513,0,0,0,5.7-20.341,67.665,67.665,0,0,0,.016-25.265c-1.675-8.924-4.607-17.3-7-25.1a122.727,122.727,0,0,1-5.024-21.327,51.314,51.314,0,0,1,.092-14.9c.622-3.478,1.437-5.275,1.776-5.2.867.149-.536,7.691,1.993,19.468a160.281,160.281,0,0,0,6.008,20.37c2.628,7.642,5.8,16.142,7.6,25.68.455,2.377.757,4.77.975,7.136.084,1.189.179,2.368.179,3.542s.08,2.337,0,3.486a69.1,69.1,0,0,1-1.612,13.093,103.3,103.3,0,0,1-7.077,20.827,130.445,130.445,0,0,1-6.771,13.019c-1.783,2.966-2.958,4.5-3.3,4.34" transform="translate(12.973 1.693)" fill="#263238"/>
            <path id="Path_907463" data-name="Path 907463" d="M122.593,51.029C124.014,26.088,146.1,7.159,171.73,9.485c24.158,2.19,42.035,23.475,41.289,47.3-.655,20.883-1.782,41.875-3.262,49.3-4.464,22.393-19.461,28.646-25.371,30.262a30.636,30.636,0,0,1-6.288.352.152.152,0,0,0-.159.151l.287,26.711c-.836,17.309-13.232,30.584-30.852,29.849-17.68-.735-28.731-16.2-28.22-33.587Z" transform="translate(7.475 0.583)" fill="#ffbe9d"/>
            <path id="Path_907464" data-name="Path 907464" d="M198.907,66.732a3.637,3.637,0,0,1-3.693,3.513,3.536,3.536,0,0,1-3.686-3.431,3.637,3.637,0,0,1,3.689-3.516,3.538,3.538,0,0,1,3.69,3.433" transform="translate(12.017 3.971)" fill="#263238"/>
            <path id="Path_907465" data-name="Path 907465" d="M202.309,59.029c-.475.454-3.2-1.7-7.171-1.851-3.965-.211-6.954,1.676-7.367,1.18-.205-.22.293-1.054,1.6-1.91a10.213,10.213,0,0,1,5.919-1.53,9.893,9.893,0,0,1,5.687,2.064c1.188.972,1.57,1.846,1.337,2.048" transform="translate(11.778 3.445)" fill="#263238"/>
            <path id="Path_907466" data-name="Path 907466" d="M163.953,65.906a3.637,3.637,0,0,1-3.693,3.512,3.535,3.535,0,0,1-3.686-3.429,3.637,3.637,0,0,1,3.689-3.516,3.538,3.538,0,0,1,3.69,3.433" transform="translate(9.824 3.92)" fill="#263238"/>
            <path id="Path_907467" data-name="Path 907467" d="M165.543,58.186c-.476.454-3.2-1.7-7.172-1.851-3.965-.21-6.954,1.677-7.368,1.18-.2-.22.29-1.054,1.6-1.909a10.213,10.213,0,0,1,5.919-1.531,9.9,9.9,0,0,1,5.687,2.064c1.184.972,1.57,1.845,1.338,2.048" transform="translate(9.471 3.392)" fill="#263238"/>
            <path id="Path_907468" data-name="Path 907468" d="M177.3,87.678c-.011-.223,2.474-.539,6.494-.876,1.017-.061,1.985-.218,2.18-.893.266-.71-.119-1.8-.57-2.982q-1.3-3.679-2.723-7.718c-3.773-10.982-6.464-20-6.014-20.138s3.874,8.643,7.645,19.627q1.358,4.06,2.6,7.756c.343,1.149.956,2.461.384,3.935a2.515,2.515,0,0,1-1.721,1.388,6.981,6.981,0,0,1-1.731.164c-4.034.046-6.533-.041-6.54-.264" transform="translate(11.081 3.455)" fill="#263238"/>
            <path id="Path_907469" data-name="Path 907469" d="M176.482,129.85s-15.382.6-34.153-11.534c0,0,5.326,20.18,34.231,18.731Z" transform="translate(8.93 7.423)" fill="#eb996e"/>
            <path id="Path_907470" data-name="Path 907470" d="M176.057,94.713a7.26,7.26,0,0,0-6.321-2.88,6.533,6.533,0,0,0-4.6,2.19,4.014,4.014,0,0,0-.485,4.642c1.018,1.526,3.246,1.961,5.161,1.511A15,15,0,0,0,175,97.408a4.32,4.32,0,0,0,1.176-1.106,1.288,1.288,0,0,0,.047-1.454" transform="translate(10.297 5.761)" fill="#eb996e"/>
            <path id="Path_907471" data-name="Path 907471" d="M166.206,87.837c.646-.011.5,4.229,4.083,7.39s8.186,2.886,8.2,3.48c.052.268-1.052.78-2.994.751a10.924,10.924,0,0,1-6.855-2.665,9.2,9.2,0,0,1-3.146-6.185c-.1-1.779.418-2.808.713-2.772" transform="translate(10.382 5.511)" fill="#263238"/>
            <path id="Path_907472" data-name="Path 907472" d="M167.672,51.772c-.43,1.045-4.379.377-9.059.735-4.689.266-8.5,1.451-9.079.473-.259-.468.433-1.439,1.989-2.4a15.217,15.217,0,0,1,6.791-2.028,15.387,15.387,0,0,1,7.027,1.107c1.688.748,2.518,1.619,2.331,2.116" transform="translate(9.379 3.044)" fill="#263238"/>
            <path id="Path_907473" data-name="Path 907473" d="M201.144,51.478c-.731.858-3.434-.176-6.723-.356-3.283-.294-6.1.342-6.707-.611-.264-.462.207-1.333,1.455-2.121a9.891,9.891,0,0,1,10.821.78c1.13.96,1.478,1.888,1.154,2.308" transform="translate(11.773 2.957)" fill="#263238"/>
            <path id="Path_907474" data-name="Path 907474" d="M174.806,139.272s51.83,20.034,58.11,23.623,8.322,6.132,8.322,6.132l-36.432,34.538H134.83L81.3,167.081l9.333-23.738,29.838-6.787" transform="translate(5.101 8.568)" fill="#ffbe9d"/>
            <path id="Path_907475" data-name="Path 907475" d="M64.468,328.552a30.63,30.63,0,0,1-1.189-13.567c.165.01.047,3.064.383,6.8.319,3.739.967,6.726.807,6.764" transform="translate(3.951 19.763)" fill="#eb996e"/>
            <path id="Path_907476" data-name="Path 907476" d="M232.5,167.11l-9.532,6.314L220.653,342.3,266.237,316.5S243.584,170.613,232.5,167.11" transform="translate(13.844 10.485)" fill="#fed5a7"/>
            <path id="Path_907477" data-name="Path 907477" d="M95.736,142.941s-35.025,2.335-43.2,14.594S18.1,286.544,18.1,286.544,4.111,307.452,2.969,312.59C1.429,319.517,0,333.343,0,333.343l8.728,12.7,3.5,3.528s-2.3-39.166,38.563-27.747l11.675-1.018,11.725-70.231,5.787,57.173L65.319,360.716l169.137-.092,4.606-187.176s-22.068,11.605-45.256,8.605c-13.628-1.762-78.224-18.68-98.071-39.111" transform="translate(0 8.968)" fill="#fed5a7"/>
            <path id="Path_907478" data-name="Path 907478" d="M60.772,305.822c-.051.019-.37-.822-1.067-2.277a30.217,30.217,0,0,0-3.652-5.752,31.041,31.041,0,0,0-7.474-6.736,29.949,29.949,0,0,0-11.444-4.41,29.941,29.941,0,0,0-12.242.768,31.017,31.017,0,0,0-9.153,4.178,30.287,30.287,0,0,0-5.212,4.389c-1.1,1.18-1.659,1.885-1.7,1.851A2.912,2.912,0,0,1,9.2,297.3a18.462,18.462,0,0,1,1.174-1.458,27.874,27.874,0,0,1,5.149-4.568,30.553,30.553,0,0,1,9.238-4.346A29.927,29.927,0,0,1,37.22,286.1a29.956,29.956,0,0,1,11.636,4.529,30.589,30.589,0,0,1,7.5,6.92,27.927,27.927,0,0,1,3.54,5.9,18.551,18.551,0,0,1,.681,1.743,2.874,2.874,0,0,1,.19.625" transform="translate(0.554 17.931)" fill="#263238"/>
            <path id="Path_907479" data-name="Path 907479" d="M59.965,302.114a13.472,13.472,0,0,1-.382-1.743A38.245,38.245,0,0,0,58.31,295.7a35.24,35.24,0,0,0-21.572-21.977,38.32,38.32,0,0,0-4.643-1.361,13.46,13.46,0,0,1-1.735-.413,1.525,1.525,0,0,1,.463.021c.3.038.748.073,1.314.182a31.075,31.075,0,0,1,4.73,1.2,34.241,34.241,0,0,1,21.814,22.225,30.941,30.941,0,0,1,1.115,4.752c.1.569.124,1.016.157,1.318a1.486,1.486,0,0,1,.012.463" transform="translate(1.905 17.062)" fill="#263238"/>
            <path id="Path_907480" data-name="Path 907480" d="M71.424,247.172a2.251,2.251,0,0,1-.332-.478c-.226-.379-.508-.85-.853-1.425-.733-1.242-1.762-3.059-3.016-5.312-2.509-4.507-5.864-10.792-9.547-17.742s-7.049-13.229-9.563-17.728l-2.993-5.319-.81-1.45a2.28,2.28,0,0,1-.25-.525,2.316,2.316,0,0,1,.345.468l.9,1.4c.768,1.221,1.856,3,3.148,5.236,2.6,4.455,6.026,10.707,9.711,17.662l9.4,17.815,2.861,5.393.764,1.476a2.331,2.331,0,0,1,.233.532" transform="translate(2.764 12.372)" fill="#263238"/>
            <path id="Path_907481" data-name="Path 907481" d="M67.7,185.434a4.734,4.734,0,0,1,.046.833c.006.6.015,1.391.024,2.386.015,2.071.033,5.069.115,8.772.135,7.406.511,17.633,1.132,28.919s1.368,21.5,1.963,28.882c.3,3.649.542,6.622.716,8.744.077.992.138,1.783.185,2.379a4.654,4.654,0,0,1,.027.833,4.677,4.677,0,0,1-.138-.821q-.108-.891-.288-2.37c-.235-2.059-.552-5.042-.892-8.732-.7-7.38-1.5-17.59-2.125-28.886s-.935-21.53-.97-28.944c-.032-3.707.01-6.707.061-8.779.034-.995.061-1.789.08-2.386a4.674,4.674,0,0,1,.066-.831" transform="translate(4.234 11.634)" fill="#263238"/>
            <path id="Path_907482" data-name="Path 907482" d="M179.568,336.935a1.217,1.217,0,0,1-.286-.1l-.818-.333-3.127-1.328c-1.36-.573-3.014-1.3-4.9-2.2s-4.071-1.877-6.408-3.1l-3.691-1.879c-1.282-.658-2.584-1.4-3.948-2.137-2.741-1.456-5.585-3.161-8.6-4.925-5.963-3.622-12.388-7.824-18.894-12.572-6.483-4.783-12.42-9.654-17.665-14.257-2.587-2.342-5.066-4.544-7.277-6.723-1.114-1.081-2.213-2.1-3.224-3.126l-2.9-2.957c-1.869-1.863-3.454-3.648-4.88-5.184s-2.619-2.89-3.573-4.014l-2.205-2.584-.562-.681a1.266,1.266,0,0,1-.177-.244,1.214,1.214,0,0,1,.221.207l.6.645,2.281,2.513c.979,1.1,2.186,2.44,3.64,3.947s3.048,3.279,4.932,5.12l2.92,2.928c1.017,1.015,2.122,2.025,3.24,3.1,2.22,2.161,4.707,4.346,7.3,6.673,5.253,4.573,11.186,9.42,17.655,14.193,6.492,4.738,12.894,8.943,18.832,12.582,3,1.773,5.826,3.49,8.553,4.96,1.357.745,2.652,1.5,3.926,2.162l3.669,1.908c2.322,1.244,4.486,2.245,6.364,3.169s3.512,1.686,4.858,2.288l3.082,1.423.8.383a1.262,1.262,0,0,1,.264.148" transform="translate(5.423 16.852)" fill="#263238"/>
            <path id="Path_907483" data-name="Path 907483" d="M25.488,282.749l56.155,60.866,4.236,9.041-8.971-4.474-57.022-60.2a3.834,3.834,0,1,1,5.6-5.237" transform="translate(1.182 17.663)" fill="#263238"/>
            <path id="Path_907484" data-name="Path 907484" d="M222.835,219.862a1.337,1.337,0,0,1,.018.319c0,.241,0,.548,0,.934-.014.859-.034,2.061-.06,3.589-.075,3.156-.183,7.655-.315,13.2-.268,11.176-.638,26.552-1.046,43.536-.3,16.992-.574,32.371-.773,43.549-.1,5.543-.18,10.042-.236,13.2-.039,1.527-.069,2.728-.091,3.588-.015.385-.028.692-.037.933a1.369,1.369,0,0,1-.032.318,1.427,1.427,0,0,1-.024-.319c0-.241-.011-.548-.017-.933,0-.86-.008-2.061-.014-3.589.015-3.157.035-7.657.061-13.2.086-11.147.257-26.546.611-43.556s.828-32.4,1.207-43.536c.206-5.54.373-10.038.49-13.192.07-1.527.124-2.728.164-3.587.023-.384.041-.691.056-.932a1.379,1.379,0,0,1,.038-.317" transform="translate(13.816 13.794)" fill="#263238"/>
            <g id="Group_1113495" data-name="Group 1113495" transform="translate(97.002 291.311)" opacity="0.3">
              <g id="Group_1113494" data-name="Group 1113494">
                <g id="Group_1113493" data-name="Group 1113493" clip-path="url(#clip-path-9)">
                  <path id="Path_907485" data-name="Path 907485" d="M91.275,274.113s25.536,17.643,39.953,23.411,29.288,10.482,43.209,17.364c4.079,2.016,8.706,5.45,7.871,9.923-.51,2.736-3.087,4.707-5.792,5.364s-5.539.259-8.294-.141l-3.557-.226s-45.244-23.253-73.39-55.694" transform="translate(-91.275 -274.113)"/>
                </g>
              </g>
            </g>
            <path id="Path_907486" data-name="Path 907486" d="M256.289,289.319a15.67,15.67,0,0,1-1.911.272,43.289,43.289,0,0,0-5.145.994,40.154,40.154,0,0,0-26.112,20.929,43.413,43.413,0,0,0-2.09,4.8,15.762,15.762,0,0,1-.681,1.806,1.776,1.776,0,0,1,.092-.493c.085-.317.189-.791.385-1.382a35.385,35.385,0,0,1,1.944-4.909,39,39,0,0,1,26.37-21.136,35.4,35.4,0,0,1,5.214-.828c.62-.063,1.105-.061,1.433-.074a1.712,1.712,0,0,1,.5.017" transform="translate(13.825 18.151)" fill="#263238"/>
            <g id="Group_1113498" data-name="Group 1113498" transform="translate(234.093 302.28)" opacity="0.3">
              <g id="Group_1113497" data-name="Group 1113497">
                <g id="Group_1113496" data-name="Group 1113496" clip-path="url(#clip-path-10)">
                  <path id="Path_907487" data-name="Path 907487" d="M220.273,317.054a40.453,40.453,0,0,1,24.776-31.747,8.587,8.587,0,0,1,4.585-.793,3.432,3.432,0,0,1,2.971,3.145c-.065,2.3-2.836,3.305-5.025,4-6.054,1.922-11.328,5.827-15.722,10.414s-7.989,9.866-11.562,15.119" transform="translate(-220.273 -284.434)"/>
                </g>
              </g>
            </g>
            <g id="Group_1113501" data-name="Group 1113501" transform="translate(27.338 291.205)" opacity="0.3">
              <g id="Group_1113500" data-name="Group 1113500">
                <g id="Group_1113499" data-name="Group 1113499" clip-path="url(#clip-path-11)">
                  <path id="Path_907488" data-name="Path 907488" d="M60.675,307.388a38.3,38.3,0,0,0-25.228-32.507,12.156,12.156,0,0,0-5.084-.83,5.247,5.247,0,0,0-4.223,2.629c-.982,1.984-.118,4.489,1.469,6.035a14.887,14.887,0,0,0,5.838,3.045c5.946,2,12.146,3.7,17.209,7.407s6.568,8.2,10.021,14.221" transform="translate(-25.724 -274.013)"/>
                </g>
              </g>
            </g>
            <path id="Path_907489" data-name="Path 907489" d="M250.471,180.557s-.155.106-.471.289l-1.412.8-2.305,1.286c-.914.5-1.953,1.114-3.182,1.687a144.285,144.285,0,0,1-21.229,8.692l-3.548,1.127-3.757,1.006c-1.283.326-2.577.719-3.923,1.007l-4.109.886-2.108.455-2.163.361-4.43.739c-1.5.214-3.037.371-4.588.563s-3.123.385-4.725.47l-4.858.346-4.98.132-2.531.051-2.556-.06c-1.712-.058-3.444-.038-5.185-.164A150.059,150.059,0,0,1,147,197.483a157.825,157.825,0,0,1-20.8-5.8c-6.594-2.285-12.843-4.791-18.755-7.257-11.81-4.969-22.344-9.667-31.377-13.152S59.6,165.193,54.243,164.4a32.5,32.5,0,0,0-6.2-.416c-.712.021-1.253.06-1.616.1s-.553.029-.553.029a15.453,15.453,0,0,1,2.164-.236,30.782,30.782,0,0,1,6.235.314c5.405.729,12.874,3.281,21.925,6.715s19.621,8.107,31.433,13.046c5.912,2.452,12.155,4.943,18.735,7.216a158.531,158.531,0,0,0,20.738,5.772,150.775,150.775,0,0,0,21.335,2.75c1.734.126,3.46.108,5.165.169l2.547.063,2.522-.047,4.963-.123,4.842-.335c1.6-.082,3.164-.272,4.71-.458s3.076-.34,4.575-.548l4.417-.724,2.157-.353,2.1-.446,4.1-.868c1.343-.282,2.635-.67,3.915-.988l3.75-.987,3.544-1.106A149.925,149.925,0,0,0,243,184.426c1.235-.557,2.28-1.152,3.2-1.639l2.327-1.238,1.438-.751c.325-.167.5-.24.5-.24" transform="translate(2.878 10.279)" fill="#fafafa"/>
            <path id="Path_907490" data-name="Path 907490" d="M68.751,199.581a5.938,5.938,0,0,1-1.161-.627l-3.064-1.861a76.563,76.563,0,0,0-10.421-5.485,34.2,34.2,0,0,0-11.38-2.664c-3.009-.13-4.86.259-4.875.152a5.235,5.235,0,0,1,1.289-.3,20.869,20.869,0,0,1,3.6-.247A31.831,31.831,0,0,1,54.316,191.1a64.1,64.1,0,0,1,10.419,5.664c1.269.83,2.281,1.523,2.972,2.013a6.013,6.013,0,0,1,1.044.807" transform="translate(2.375 11.83)" fill="#fafafa"/>
            <path id="Path_907491" data-name="Path 907491" d="M233.13,225.9a2.663,2.663,0,0,1-.383.221l-1.15.6-1.88.954L227.1,228.86a95.963,95.963,0,0,1-17.418,5.67,121.524,121.524,0,0,1-27,2.924,172.494,172.494,0,0,1-33.089-3.419c-11.608-2.239-22.465-5.259-32.267-8.18s-18.559-5.8-25.875-8.312-13.191-4.679-17.236-6.206l-4.649-1.79-1.2-.485a2.434,2.434,0,0,1-.4-.182,2.714,2.714,0,0,1,.423.129c.3.107.7.25,1.221.433l4.684,1.693c4.068,1.466,9.961,3.569,17.289,6.037s16.091,5.291,25.894,8.194,20.646,5.892,32.227,8.125a174.355,174.355,0,0,0,32.984,3.453,123.093,123.093,0,0,0,26.917-2.8,99.864,99.864,0,0,0,17.419-5.486l2.637-1.137,1.9-.906,1.173-.549a2.608,2.608,0,0,1,.409-.17" transform="translate(4.264 13.105)" fill="#fafafa"/>
            <path id="Path_907492" data-name="Path 907492" d="M246.183,208.775a31.332,31.332,0,0,1-3.621,1.1c-2.241.644-5.324,1.577-8.637,2.859s-6.218,2.676-8.307,3.71a31.343,31.343,0,0,1-3.414,1.631,3.649,3.649,0,0,1,.835-.587c.554-.349,1.373-.825,2.4-1.391a67.5,67.5,0,0,1,17.026-6.6c1.138-.271,2.064-.472,2.709-.588a3.629,3.629,0,0,1,1.012-.13" transform="translate(13.941 13.098)" fill="#fafafa"/>
            <path id="Path_907493" data-name="Path 907493" d="M70.352,243.8a11.24,11.24,0,0,1-1.52-.973c-.474-.333-1.057-.733-1.76-1.162s-1.472-.962-2.378-1.461a65.978,65.978,0,0,0-6.45-3.327,71,71,0,0,0-8.333-3.064,70.975,70.975,0,0,0-8.677-1.894,66.256,66.256,0,0,0-7.228-.658c-1.033-.066-1.968-.036-2.791-.046s-1.53.008-2.108.035a11.186,11.186,0,0,1-1.8,0,11.467,11.467,0,0,1,1.792-.22c.579-.058,1.289-.115,2.115-.129s1.767-.078,2.808-.036a59.107,59.107,0,0,1,7.289.545,66.072,66.072,0,0,1,8.76,1.866,66.221,66.221,0,0,1,8.388,3.131,59.065,59.065,0,0,1,6.441,3.457c.9.524,1.663,1.078,2.349,1.538s1.257.884,1.714,1.246a11.129,11.129,0,0,1,1.393,1.148" transform="translate(1.713 14.484)" fill="#fafafa"/>
            <path id="Path_907494" data-name="Path 907494" d="M230.724,270.948a2.36,2.36,0,0,1-.4.132l-1.193.333c-1.054.268-2.593.746-4.615,1.186a146.016,146.016,0,0,1-17.274,2.972,177.673,177.673,0,0,1-25.976.97A246.186,246.186,0,0,1,149.6,273.3c-22.309-3.725-41.978-9.533-56.125-13.818C86.4,257.316,80.7,255.5,76.762,254.226l-4.528-1.478-1.174-.4a2.482,2.482,0,0,1-.393-.153,2.337,2.337,0,0,1,.411.1l1.189.346,4.559,1.378,16.764,5.086c14.171,4.187,33.837,9.929,56.1,13.646a251.073,251.073,0,0,0,31.591,3.28,181.96,181.96,0,0,0,25.916-.849,156.771,156.771,0,0,0,17.266-2.794c2.028-.406,3.572-.851,4.636-1.083l1.207-.28a2.325,2.325,0,0,1,.418-.078" transform="translate(4.434 15.823)" fill="#fafafa"/>
            <path id="Path_907495" data-name="Path 907495" d="M254.217,243.346a6.145,6.145,0,0,1-1.293.311l-3.541.716c-2.983.627-7.079,1.619-11.509,3.026s-8.345,2.974-11.142,4.187l-3.3,1.462a6.143,6.143,0,0,1-1.236.493,6.162,6.162,0,0,1,1.14-.687c.749-.414,1.854-.972,3.238-1.626a92.37,92.37,0,0,1,22.736-7.239c1.507-.267,2.732-.451,3.583-.545a6.072,6.072,0,0,1,1.327-.1" transform="translate(13.941 15.267)" fill="#fafafa"/>
            <path id="Path_907496" data-name="Path 907496" d="M65.853,284.621a19.373,19.373,0,0,1-1.133-1.758,42.765,42.765,0,0,0-3.355-4.578,40.992,40.992,0,0,0-14.8-11.15,40.983,40.983,0,0,0-18.238-3.317,42.755,42.755,0,0,0-5.64.64,19.043,19.043,0,0,1-2.06.359,2.086,2.086,0,0,1,.513-.179c.342-.091.843-.255,1.5-.392a36.12,36.12,0,0,1,5.66-.819,39.243,39.243,0,0,1,33.365,14.609,36.013,36.013,0,0,1,3.237,4.715c.349.578.568,1.057.733,1.371a2.03,2.03,0,0,1,.216.5" transform="translate(1.294 16.522)" fill="#fafafa"/>
            <path id="Path_907497" data-name="Path 907497" d="M129.835,307.2c-.028.15-12.186-1.972-27.153-4.741S75.6,297.32,75.628,297.17s12.183,1.971,27.155,4.741,27.08,5.135,27.052,5.285" transform="translate(4.745 18.644)" fill="#fafafa"/>
            <path id="Path_907498" data-name="Path 907498" d="M224.415,315.768a5,5,0,0,1-.858.079l-2.463.119c-2.139.094-5.237.19-9.065.273-7.656.17-18.238.234-29.921-.018s-22.257-.783-29.9-1.287c-3.821-.251-6.911-.481-9.044-.669l-2.456-.225a5.166,5.166,0,0,1-.853-.116,5.024,5.024,0,0,1,.862,0l2.462.122,9.051.493c7.644.4,18.209.867,29.889,1.124s22.248.25,29.9.181l9.065-.1,2.466-.015a5.048,5.048,0,0,1,.861.033" transform="translate(8.775 19.695)" fill="#fafafa"/>
            <path id="Path_907499" data-name="Path 907499" d="M261.595,280.651a9.78,9.78,0,0,1-1.681.065c-1.08-.006-2.643.039-4.568.155s-4.21.349-6.728.731a69.951,69.951,0,0,0-15.922,4.469c-2.35.984-4.426,1.966-6.126,2.878s-3.063,1.677-3.981,2.245a9.952,9.952,0,0,1-1.469.819,9.54,9.54,0,0,1,1.353-1c.886-.625,2.22-1.455,3.91-2.407a63.118,63.118,0,0,1,6.116-3,64.8,64.8,0,0,1,16.042-4.5,62.9,62.9,0,0,1,6.786-.617c1.938-.066,3.509-.052,4.591.021a9.792,9.792,0,0,1,1.677.15" transform="translate(13.873 17.595)" fill="#fafafa"/>
            <path id="Path_907500" data-name="Path 907500" d="M61.9,311.943c-.056.029-.471-.875-1.41-2.379a23.814,23.814,0,0,0-4.966-5.592,29.137,29.137,0,0,0-9.726-5.256,33.042,33.042,0,0,0-13.446-1.385,42.346,42.346,0,0,0-13.048,3.778,57.9,57.9,0,0,0-9.586,5.7c-2.575,1.871-4.552,3.533-5.892,4.708-.68.577-1.182,1.054-1.541,1.358a3.557,3.557,0,0,1-.56.451,3.394,3.394,0,0,1,.484-.531c.335-.331.813-.834,1.473-1.437a67.962,67.962,0,0,1,5.8-4.864,55.769,55.769,0,0,1,9.6-5.845,42.058,42.058,0,0,1,13.2-3.867,33.1,33.1,0,0,1,13.665,1.45,28.949,28.949,0,0,1,9.821,5.442,22.7,22.7,0,0,1,4.9,5.778,15.418,15.418,0,0,1,.949,1.831,3.526,3.526,0,0,1,.278.662" transform="translate(0.108 18.609)" fill="#fafafa"/>
            <path id="Path_907501" data-name="Path 907501" d="M179.7,349.129a1.194,1.194,0,0,1-.3,0l-.866-.043-3.329-.216c-2.891-.189-7.067-.546-12.22-1.071s-11.278-1.261-18.058-2.237c-6.775-1-14.2-2.248-21.955-3.8-7.751-1.574-15.082-3.31-21.713-5.034-6.622-1.756-12.546-3.485-17.479-5.066-2.477-.756-4.689-1.534-6.64-2.184s-3.622-1.246-4.98-1.747l-3.13-1.154-.809-.312a1.182,1.182,0,0,1-.269-.125,1.235,1.235,0,0,1,.288.072l.828.261,3.162,1.055c1.369.47,3.046,1.039,5.007,1.656s4.178,1.373,6.66,2.1c4.943,1.533,10.87,3.22,17.491,4.946,6.628,1.7,13.954,3.413,21.693,4.986,7.742,1.548,15.159,2.807,21.922,3.837,6.768,1,12.88,1.784,18.025,2.352s9.312.991,12.195,1.246l3.319.32.863.1a1.214,1.214,0,0,1,.292.052" transform="translate(4.264 20.463)" fill="#fafafa"/>
            <path id="Path_907502" data-name="Path 907502" d="M47.222,306.681,62.241,311.5l5.585-.963,9.464,2.606a7,7,0,0,1,5.115,7.305,41.343,41.343,0,0,1-1.291,7.32c-2.31,8.766-6.163,8.572-10.207,7.417s-5.9-4.451-6.224-9.639l-9.567-5.233Z" transform="translate(2.963 19.242)" fill="#ffbe9d"/>
            <path id="Path_907503" data-name="Path 907503" d="M63.832,325.269a11.772,11.772,0,0,1-4.777-10.2,26.844,26.844,0,0,0,1.591,5.472,26.919,26.919,0,0,0,3.186,4.724" transform="translate(3.699 19.768)" fill="#eb996e"/>
            <path id="Path_907504" data-name="Path 907504" d="M31.625,305.815s-12.358,1.526-15.817,7.436-7.6,22.608-7.6,22.608l11.706,13.7s47.542,1.977,49.025,0-.516-4.151-.516-4.151,5.849,2.623,8.321.893,3.237-6.088,2.429-8.213c-1.519-3.992-4.324-7.971-10.751-11.01s-18.514-11.13-18.514-11.13-8.9-8.9-10.627-10.133-7.661,0-7.661,0" transform="translate(0.515 19.153)" fill="#ffbe9d"/>
            <path id="Path_907505" data-name="Path 907505" d="M67.278,344.636a1.873,1.873,0,0,1-.508-.131l-1.418-.478-5.178-1.852c-4.364-1.587-10.378-3.814-17.009-6.307-3.309-1.227-6.516-2.613-8.823-4.754a23.268,23.268,0,0,1-4.881-6.582,52.617,52.617,0,0,1-2.242-5.035c-.234-.606-.41-1.079-.522-1.4a1.845,1.845,0,0,1-.145-.5,1.921,1.921,0,0,1,.248.461l.617,1.361c.533,1.182,1.289,2.9,2.389,4.934a23.621,23.621,0,0,0,4.875,6.384c2.249,2.05,5.373,3.391,8.678,4.618,6.63,2.493,12.624,4.778,16.953,6.459l5.116,2.017,1.381.574a1.883,1.883,0,0,1,.469.236" transform="translate(1.666 19.926)" fill="#eb996e"/>
            <path id="Path_907506" data-name="Path 907506" d="M42.478,348.4a11.445,11.445,0,0,1-2.437-1.013c-1.468-.7-3.462-1.75-5.6-3.015s-4.015-2.51-5.339-3.458a11.449,11.449,0,0,1-2.061-1.647,13.666,13.666,0,0,1,2.279,1.322c1.375.862,3.275,2.047,5.4,3.307s4.082,2.353,5.5,3.144a13.713,13.713,0,0,1,2.256,1.36" transform="translate(1.696 21.286)" fill="#eb996e"/>
            <path id="Path_907507" data-name="Path 907507" d="M17.188,339.429a1.1,1.1,0,0,1-.048-1.02,11.348,11.348,0,0,1,1.544-2.27,2.32,2.32,0,0,0,.4-1.648,7.537,7.537,0,0,0-.656-1.984A21.043,21.043,0,0,1,16.9,327.73a9.186,9.186,0,0,1,.468-5.025,5.789,5.789,0,0,1,2.779-3.045,4.707,4.707,0,0,1,2.739-.485,1.986,1.986,0,0,1,.966.32c-.015.047-.357-.073-.986-.105a4.851,4.851,0,0,0-2.539.617,5.52,5.52,0,0,0-2.487,2.891,8.947,8.947,0,0,0-.393,4.741,22.272,22.272,0,0,0,1.452,4.67,7.665,7.665,0,0,1,.642,2.132,2.714,2.714,0,0,1-.537,1.915,15.137,15.137,0,0,0-1.667,2.129,2.433,2.433,0,0,0-.153.944" transform="translate(1.051 20.023)" fill="#eb996e"/>
            <path id="Path_907508" data-name="Path 907508" d="M43.623,317.915a16.988,16.988,0,0,0-4.636,3,16.956,16.956,0,0,0-2.995,4.642,3.556,3.556,0,0,1,.37-1.64,10.094,10.094,0,0,1,5.622-5.631,3.587,3.587,0,0,1,1.639-.373" transform="translate(2.257 19.945)" fill="#eb996e"/>
            <path id="Path_907509" data-name="Path 907509" d="M75.483,334.509c.012.032-.225.157-.682.31a7.7,7.7,0,0,1-2.015.351,8.924,8.924,0,0,1-9.374-8.073,7.7,7.7,0,0,1,.049-2.044,1.75,1.75,0,0,1,.205-.721,25.153,25.153,0,0,0,.135,2.714,8.983,8.983,0,0,0,8.978,7.731,25.528,25.528,0,0,0,2.7-.27" transform="translate(3.976 20.349)" fill="#eb996e"/>
            <path id="Path_907510" data-name="Path 907510" d="M225.318,320.271l24.98-15.939a21.669,21.669,0,0,1,5.947,0,6.564,6.564,0,0,1,4.282,3.093l5.71.475,14.988,13.561,7.82,1.189,1.458,2.856-2.855,10.823s-7.137,7.291-12.37,4.42l-6.661.67-5.948-.67s.476,5.692-1.665,5.692-5.709-.714-6.661-2.379a59.372,59.372,0,0,1-2.616-6.66l-5.71,5.947s-5.265,5.745-8.327,3.093c-2.587-2.242-2.855-3.569-2.855-3.569s-4.244.714-6.642-.713-6.2-.716-7.155-5.83-.348-13.1,4.282-16.057" transform="translate(13.844 19.081)" fill="#ffbe9d"/>
            <path id="Path_907511" data-name="Path 907511" d="M251.625,340.58a3.72,3.72,0,0,1-.485-.979,20.088,20.088,0,0,1-.886-2.839,84.939,84.939,0,0,1-1.358-9.675,27.055,27.055,0,0,0-2.554-9.268,31.414,31.414,0,0,0-2.2-3.354,3.614,3.614,0,0,1,.8.743,13.651,13.651,0,0,1,1.738,2.423,24.951,24.951,0,0,1,2.76,9.387c.442,3.8.667,7.23,1.19,9.659.48,2.437,1.079,3.867.989,3.9" transform="translate(15.318 19.73)" fill="#eb996e"/>
            <path id="Path_907512" data-name="Path 907512" d="M262.289,316.649c.085.033-.4,1.342-.987,3.506a46.766,46.766,0,0,0-1.42,17.347c.232,2.231.493,3.6.4,3.62a3.381,3.381,0,0,1-.292-.941c-.158-.612-.334-1.511-.5-2.631a39.547,39.547,0,0,1,1.433-17.505c.346-1.078.665-1.936.921-2.514a3.414,3.414,0,0,1,.441-.881" transform="translate(16.256 19.867)" fill="#eb996e"/>
            <path id="Path_907513" data-name="Path 907513" d="M263.431,328.151a6.422,6.422,0,0,0-3.967,4.052c-.067-.005-.12-.365.012-.929a4.373,4.373,0,0,1,3.028-3.092c.561-.143.921-.1.928-.032" transform="translate(16.275 20.585)" fill="#eb996e"/>
            <path id="Path_907514" data-name="Path 907514" d="M267.5,321.455a34.856,34.856,0,0,1-2.466,3.8,34.907,34.907,0,0,1-2.494,3.776,19.372,19.372,0,0,1,4.96-7.571" transform="translate(16.471 20.168)" fill="#eb996e"/>
            <path id="Path_907515" data-name="Path 907515" d="M265.71,323.17c-.048.137-1.444-.546-2.238-2.189a3.76,3.76,0,0,1-.36-3.111,9.078,9.078,0,0,0,2.6,5.3" transform="translate(16.497 19.944)" fill="#eb996e"/>
            <path id="Path_907516" data-name="Path 907516" d="M271,339.823a24.979,24.979,0,0,1,2.252-2.268,16.137,16.137,0,0,0,4.217-6.226,15.64,15.64,0,0,0,.332-7.5,25.358,25.358,0,0,1-.469-3.162,14.474,14.474,0,0,1,.854,3.093,14.734,14.734,0,0,1-.192,7.75,15.144,15.144,0,0,1-4.472,6.332A14.477,14.477,0,0,1,271,339.823" transform="translate(17.003 20.119)" fill="#eb996e"/>
            <path id="Path_907517" data-name="Path 907517" d="M278.8,337.5c-.047.045-.507-.328-.968-1.151a6.027,6.027,0,0,1,.774-6.9c.631-.7,1.163-.962,1.2-.909.054.069-.377.435-.893,1.153a6.506,6.506,0,0,0-.726,6.482,10.831,10.831,0,0,1,.615,1.322" transform="translate(17.385 20.613)" fill="#eb996e"/>
            <path id="Path_907518" data-name="Path 907518" d="M241.664,329.987a24.539,24.539,0,0,0,3.173-12.885,5.435,5.435,0,0,1,.317,1.978,17.061,17.061,0,0,1-2.291,9.3,5.41,5.41,0,0,1-1.2,1.6" transform="translate(15.162 19.895)" fill="#eb996e"/>
            <path id="Path_907519" data-name="Path 907519" d="M240.261,328.176a28.867,28.867,0,0,1-1.146-7.9,28.867,28.867,0,0,1,1.146,7.9" transform="translate(14.999 20.095)" fill="#eb996e"/>
            <path id="Path_907520" data-name="Path 907520" d="M243.34,342.97a9.378,9.378,0,0,0,1.871-2.883,7.667,7.667,0,0,0,.406-3.647,6.644,6.644,0,0,0-2.018-3.927c-1.157-1.131-2.506-2-3.577-2.991a22.558,22.558,0,0,1-2.638-2.81,18.989,18.989,0,0,1-1.47-2.137,2.851,2.851,0,0,1-.416-.858c.079-.049.778,1.107,2.187,2.745a26,26,0,0,0,2.673,2.677c1.06.946,2.4,1.788,3.629,2.98a7,7,0,0,1,2.135,4.255,7.723,7.723,0,0,1-.548,3.857,6.255,6.255,0,0,1-1.467,2.168,2.34,2.34,0,0,1-.768.571" transform="translate(14.775 20.31)" fill="#eb996e"/>
            <path id="Path_907521" data-name="Path 907521" d="M239.008,334.973c.028.082-.47.279-1.158.753a6.612,6.612,0,0,0-2.944,5.466,8.193,8.193,0,0,1,.007,1.382c-.062.02-.311-.479-.4-1.367a6,6,0,0,1,3.132-5.815c.79-.416,1.344-.481,1.361-.419" transform="translate(14.712 21.015)" fill="#eb996e"/>
            <path id="Path_907522" data-name="Path 907522" d="M152.042,38.5c-9.217,17.753-10.261,38.566-9.535,58.555s3.014,40.152-.254,59.888c-1.286,7.765-3.432,15.614-2.207,23.389.721,4.569,2.58,8.883,3.521,13.411s.823,9.633-2.013,13.286c-2.859,3.685-8.028,5.076-12.612,4.22s-8.611-3.652-11.843-7.014c-7.052-7.339-10.751-17.386-12.144-27.47s-.663-20.326.07-30.478q2.858-39.606,5.718-79.21c.824-11.419,1.711-23.1,6.33-33.575,4.82-10.932,13.544-19.916,23.813-26.023C153.182.165,169.1-3.01,181.772,3.627c4.228,2.214,8.3,6.46,7.3,11.126-.793,3.689-4.391,5.973-7.671,7.839L148.954,41.056" transform="translate(6.536 0)" fill="#263238"/>
            <path id="Path_907523" data-name="Path 907523" d="M133.828,179.035c-.35-.18.325-2.23,1.707-5.821s3.452-8.736,5.584-15.181A101.979,101.979,0,0,0,146.056,135c.807-8.758-.342-18.485-2.183-28.727-1.841-10.258-3.97-20.156-4.591-29.508a72.3,72.3,0,0,1,2.224-24.724,40.545,40.545,0,0,1,7.662-14.94q1.006-1.109,1.8-1.929a17.643,17.643,0,0,1,1.472-1.251c.829-.638,1.321-.9,1.456-.764s-.092.66-.633,1.518l-1.026,1.545c-.374.63-.814,1.343-1.316,2.133A48.308,48.308,0,0,0,145.3,53a77.212,77.212,0,0,0-.936,23.347c.851,8.828,3.081,18.533,4.958,28.957,1.873,10.4,2.966,20.786,1.809,30.192a90.829,90.829,0,0,1-6.339,23.887,115.369,115.369,0,0,1-7.318,14.771c-1.994,3.335-3.316,5.05-3.645,4.88" transform="translate(8.391 2.078)" fill="#263238"/>
            <path id="Path_907524" data-name="Path 907524" d="M103.1,48.558a5.567,5.567,0,0,1,.851-.315l2.472-.8c1.077-.335,2.391-.752,3.9-1.282s3.251-1.077,5.136-1.79c3.8-1.352,8.264-3.111,13.161-5.207,4.881-2.134,10.183-4.626,15.628-7.483,5.433-2.882,10.485-5.851,15-8.676,4.5-2.858,8.47-5.552,11.729-7.923,1.653-1.154,3.092-2.274,4.377-3.229s2.376-1.8,3.26-2.5l2.054-1.589a5.524,5.524,0,0,1,.742-.525,5.507,5.507,0,0,1-.671.611l-1.991,1.671c-.865.727-1.933,1.6-3.207,2.575s-2.694,2.124-4.335,3.3c-3.236,2.416-7.195,5.149-11.687,8.038-4.512,2.856-9.57,5.846-15.017,8.736-5.458,2.863-10.782,5.349-15.685,7.462-4.919,2.076-9.411,3.8-13.231,5.108-1.9.691-3.646,1.22-5.171,1.715s-2.848.89-3.936,1.192l-2.5.7a5.64,5.64,0,0,1-.883.208" transform="translate(6.468 0.454)" fill="#455a64"/>
            <path id="Path_907525" data-name="Path 907525" d="M102.89,52.165a6.03,6.03,0,0,1,.91-.173q.971-.145,2.621-.39l1.895-.27q1.036-.187,2.239-.407c1.6-.307,3.442-.588,5.438-1.082l3.145-.714c1.091-.253,2.209-.591,3.376-.9,2.344-.59,4.792-1.411,7.38-2.233a145.656,145.656,0,0,0,16.326-6.717,145.476,145.476,0,0,0,15.294-8.823c2.232-1.548,4.377-2.982,6.277-4.478.958-.735,1.908-1.413,2.776-2.123s1.693-1.4,2.487-2.054c1.61-1.278,2.955-2.562,4.179-3.644l1.69-1.524q.746-.729,1.37-1.334,1.2-1.156,1.911-1.837a5.659,5.659,0,0,1,.693-.613,5.672,5.672,0,0,1-.613.691q-.681.709-1.839,1.912L179.1,16.825c-.5.49-1.066,1-1.662,1.561-1.207,1.105-2.538,2.412-4.136,3.715l-2.472,2.086c-.864.723-1.811,1.41-2.765,2.156-1.894,1.517-4.038,2.972-6.27,4.537a140.3,140.3,0,0,1-15.335,8.9,140.246,140.246,0,0,1-16.408,6.7c-2.6.811-5.064,1.619-7.421,2.191-1.174.3-2.3.63-3.4.873s-2.154.463-3.163.682c-2.008.47-3.857.725-5.469,1-.808.13-1.557.266-2.251.362-.692.081-1.328.155-1.905.221q-1.659.183-2.637.288a5.748,5.748,0,0,1-.922.063" transform="translate(6.455 0.806)" fill="#455a64"/>
            <path id="Path_907526" data-name="Path 907526" d="M117.693,189.312a1.777,1.777,0,0,1-.078-.361c-.044-.27-.1-.623-.169-1.07-.142-.942-.366-2.328-.545-4.129a136.885,136.885,0,0,1-.81-15.3c-.027-6.471.375-14.175,1.174-22.687s1.926-17.843,3.042-27.642c2.289-19.583,4.361-37.308,5.866-50.176.776-6.391,1.4-11.575,1.843-15.2.224-1.766.4-3.151.528-4.129.063-.447.112-.8.151-1.072a1.785,1.785,0,0,1,.069-.362,1.759,1.759,0,0,1-.014.369c-.024.272-.055.628-.1,1.079-.1.981-.242,2.37-.425,4.14-.4,3.628-.965,8.819-1.665,15.218-1.466,12.874-3.479,30.6-5.707,50.2-1.116,9.8-2.27,19.124-3.083,27.626s-1.268,16.183-1.29,22.641a150.215,150.215,0,0,0,.63,15.274c.148,1.8.336,3.19.442,4.136.049.45.086.806.115,1.077a1.9,1.9,0,0,1,.022.37" transform="translate(7.284 2.961)" fill="#455a64"/>
            <path id="Path_907527" data-name="Path 907527" d="M130.732,130.575a5.4,5.4,0,0,1-.095-.891q-.061-.952-.164-2.561c-.135-2.225-.284-5.445-.428-9.429-.291-7.964-.494-18.974-.329-31.136s.678-23.166,1.19-31.119c.254-3.977.492-7.194.689-9.412.1-1.071.176-1.921.234-2.556a5.488,5.488,0,0,1,.12-.888,5.529,5.529,0,0,1-.008.9q-.048.953-.131,2.561c-.124,2.28-.3,5.483-.512,9.42-.411,7.955-.857,18.951-1.028,31.105s-.024,23.154.167,31.116c.105,3.942.191,7.15.252,9.432q.038,1.612.061,2.565a5.386,5.386,0,0,1-.017.895" transform="translate(8.135 2.672)" fill="#455a64"/>
          </g>
        </g>
      </g>
    </g>
  </g>
</svg>
