<svg xmlns="http://www.w3.org/2000/svg" xmlns:xlink="http://www.w3.org/1999/xlink" width="400" height="325" viewBox="0 0 400 325">
  <defs>
    <clipPath id="clip-path">
      <rect id="Rectangle_404715" data-name="Rectangle 404715" width="343.412" height="316.572" fill="none"/>
    </clipPath>
    <clipPath id="clip-path-4">
      <rect id="Rectangle_404703" data-name="Rectangle 404703" width="343.412" height="316.572" fill="#fed5a7"/>
    </clipPath>
    <clipPath id="clip-path-5">
      <rect id="Rectangle_404702" data-name="Rectangle 404702" width="53.512" height="61.399" fill="#fd9826"/>
    </clipPath>
    <clipPath id="clip-path-10">
      <rect id="Rectangle_404711" data-name="Rectangle 404711" width="8.761" height="4.844" fill="none"/>
    </clipPath>
    <clipPath id="clip-path-12">
      <rect id="Rectangle_404713" data-name="Rectangle 404713" width="35.774" height="55.003" fill="none"/>
    </clipPath>
  </defs>
  <g id="Group_1112028" data-name="Group 1112028" transform="translate(-180.051 -2706)">
    <rect id="Rectangle_404571" data-name="Rectangle 404571" width="400" height="325" rx="8" transform="translate(180.051 2706)" fill="#f2ecfd"/>
    <g id="Group_1112027" data-name="Group 1112027" transform="translate(-323 274)">
      <g id="Group_1112026" data-name="Group 1112026" transform="translate(531.051 2436)">
        <g id="Group_1112025" data-name="Group 1112025" clip-path="url(#clip-path)">
          <g id="Group_1111997" data-name="Group 1111997">
            <g id="Group_1111996" data-name="Group 1111996" clip-path="url(#clip-path)">
              <path id="Path_900679" data-name="Path 900679" d="M315.3,23.113C296.075,1.991,252.633-3.316,161.049,1.822S12.393,31.621,3.1,57.439,6.387,259.984,27.944,285.117s116.017,33.059,182.592,25.5,105.483-31.028,118.634-58.306S345.986,56.822,315.3,23.113" transform="translate(0 0)" fill="#98b1bf"/>
              <path id="Path_900680" data-name="Path 900680" d="M175.195,56.714s9.927-14.756-3.735-21.059c0,0,8.858,2.522,12.964-3.491a30.6,30.6,0,0,0,4.768-12.778s3.343,10.982,10.641,11.8c10.028,1.126,13.989-2.736,13.989-2.736s-3.117,7.939-1.014,13.939,8.438,6.826,8.438,6.826-11.518-.713-15.685,5.916a26.7,26.7,0,0,0-3.843,13.9s-2.688-10.61-13.861-12.737-12.663.417-12.663.417" transform="translate(-41.355 -4.676)" fill="#fff"/>
              <path id="Path_900681" data-name="Path 900681" d="M371.476,68.5l22.062-.128c1.359.024,1.985.8,1.96,2.26,0,16.443-14.671,27.511-31.641,24.284A26.907,26.907,0,0,1,369,41.6c4.38,0,13.442,1.421,12.521,4.8l-11.3,19.948a1.445,1.445,0,0,0,1.257,2.157" transform="translate(-82.511 -10.032)" fill="#fff"/>
              <path id="Path_900682" data-name="Path 900682" d="M393.355,65.665a23.666,23.666,0,0,1-3.728-.21.753.753,0,0,1-.565-.451c-.4-.931.6-3.915,10.6-19.318.469-.723.785-1.21.879-1.367l.241-.4.426.2a17.622,17.622,0,0,1,5.376,4.334c2.447,2.823,5.4,7.82,5.592,15.6l.011.489-.488.046c-.584.055-11.791,1.087-18.345,1.087m-3.327-1.207c4.016.593,18.251-.627,21.085-.879-.489-12.22-8.09-17.255-9.938-18.3-.157.244-.372.574-.633.977-8.825,13.6-10.443,17.278-10.514,18.2" transform="translate(-93.822 -10.592)" fill="#fff"/>
              <path id="Path_900683" data-name="Path 900683" d="M221.606,342.465c-2.481-1.089-4.985-2.118-7.5-3.13-1.159-.473-2.333-.918-3.508-1.375a9.183,9.183,0,0,1-11.875,4.01A11.572,11.572,0,0,1,194,337.505a8.44,8.44,0,0,1-1.185-5.63,8.608,8.608,0,0,1,3.033-5.032,13.1,13.1,0,0,1,7.546-3.06,7.85,7.85,0,0,1,2.54.287c.363-.763.752-1.51,1.1-2.245q1.234-2.6,2.572-5.14c1.122-2.118,2.239-4.315,3.525-6.381-7.77-3.5-16.9-4.053-24.559-.371a25.559,25.559,0,0,0-10.825,10.449c-5.856,10.2-4.266,23.046,3.28,31.986a25.635,25.635,0,0,0,16.186,8.588,31.7,31.7,0,0,0,23.956-7.077,26.933,26.933,0,0,0,6.686-8.6c-2.067-.963-4.154-1.9-6.247-2.817" transform="translate(-42.015 -74.146)" fill="#fff"/>
              <path id="Path_900684" data-name="Path 900684" d="M244.977,328.891h.23c-.477,1.049.54,1.02,1.272.96a1.557,1.557,0,0,0,.335-.96h.689a1.28,1.28,0,0,0-2.526,0" transform="translate(-59.087 -79.067)" fill="#fff"/>
              <path id="Path_900685" data-name="Path 900685" d="M245.647,320.321c-1.373,1-.245,2.43,1.221,2.125l.363-.6c-.42-.5-.861-.983-1.315-1.455-.09-.025-.175-.056-.269-.075" transform="translate(-59.099 -77.259)" fill="#fff"/>
              <path id="Path_900686" data-name="Path 900686" d="M242.973,326.077c.253-.191.484-.367.74-.564l-.42-.712.33-.53c-1.943-1.487-2.918,2.02-.65,1.807" transform="translate(-58.287 -78.123)" fill="#fff"/>
              <path id="Path_900687" data-name="Path 900687" d="M243.646,318.589a2.4,2.4,0,0,0,.017-.321c-.121-.111-.242-.221-.367-.332-.149.152-.292.3-.441.455-.177.181-.359.354-.536.534.4.258.791.3,1.327-.337" transform="translate(-58.446 -76.684)" fill="#fff"/>
              <path id="Path_900688" data-name="Path 900688" d="M240.239,321.38a1.718,1.718,0,0,0-.211-.3c-.465.465-.93.931-1.4,1.392a2.2,2.2,0,0,0,.734.223c.312-.469.6-.9.876-1.315" transform="translate(-57.556 -77.442)" fill="#fff"/>
              <path id="Path_900689" data-name="Path 900689" d="M248.874,324.54c.033.376.065.744.1,1.146a3.481,3.481,0,0,0,1.354.068c-.335-.529-.686-1.049-1.058-1.555l-.4.341" transform="translate(-60.027 -78.195)" fill="#fff"/>
              <path id="Path_900690" data-name="Path 900690" d="M236.589,325.044c-.1-.125-.171-.216-.238-.288-.437.423-.889.832-1.329,1.253.561.212,1.213-.22,1.566-.965" transform="translate(-56.686 -78.329)" fill="#fff"/>
              <path id="Path_900691" data-name="Path 900691" d="M230.968,329.7c.58.578,2.245.167,2.131-.757h-.459a.985.985,0,0,0,.1-.91c-.59.555-1.172,1.118-1.768,1.667" transform="translate(-55.708 -79.119)" fill="#fff"/>
              <path id="Path_900692" data-name="Path 900692" d="M240.009,328.825h-.23c.053-.374-.6-.488-.335-.975-.419-.829-1.649.2-1.5.975h-.228a2.426,2.426,0,0,0,.684,1.235l1.612-.886Z" transform="translate(-57.335 -79.001)" fill="#fff"/>
              <path id="Path_900693" data-name="Path 900693" d="M252.77,329.875c-.147-.321-.307-.635-.467-.949a.82.82,0,0,0-.063.232,1.035,1.035,0,0,0,.53.717" transform="translate(-60.839 -79.335)" fill="#fff"/>
              <path id="Path_900694" data-name="Path 900694" d="M255.593,339.663a1.348,1.348,0,0,0,.074.642c-.019-.216-.049-.428-.074-.642" transform="translate(-61.645 -81.924)" fill="#fff"/>
              <path id="Path_900695" data-name="Path 900695" d="M253.8,352.146c.1-.3.209-.607.3-.914.115-.4.2-.808.3-1.213a1.237,1.237,0,0,0-1.835.069c-.259,1.047.3,2.21,1.241,2.059" transform="translate(-60.9 -84.332)" fill="#fff"/>
              <path id="Path_900696" data-name="Path 900696" d="M233.013,343.186a1.353,1.353,0,0,0-1.911-.621,10.209,10.209,0,0,1-.307,1.769,1.408,1.408,0,0,0,2.218-1.149" transform="translate(-55.666 -82.583)" fill="#fff"/>
              <path id="Path_900697" data-name="Path 900697" d="M251.11,354.362c-.365-1.574-2.255-1.319-2.509.2l.323.612c.231.1.464.208.694.313.824.062,1.1-.194,1.491-1.126" transform="translate(-59.961 -85.213)" fill="#fff"/>
              <path id="Path_900698" data-name="Path 900698" d="M253.037,344.112c.052.2-.192.443.118.64a2.026,2.026,0,0,0,1.568-1.189c-.466-1-.319-.946-1.473-1.392-1.08.462-1.358,1.383-.213,1.941" transform="translate(-60.853 -82.529)" fill="#fff"/>
              <path id="Path_900699" data-name="Path 900699" d="M245.945,351.808c.866-.326,1.632-.647,1.384-1.738-.87-.583-1.464-1.166-2.115-.005.093.562-.149,1.892.731,1.744" transform="translate(-59.144 -84.272)" fill="#fff"/>
              <path id="Path_900700" data-name="Path 900700" d="M254.107,337.256a1.722,1.722,0,0,0,.4-.637c-.094-.465-.2-.926-.322-1.381a1.118,1.118,0,0,0-1.308.185l-.546,1.059c.471.995.485,1,1.772.774" transform="translate(-60.862 -80.824)" fill="#fff"/>
              <path id="Path_900701" data-name="Path 900701" d="M239.676,349.658a1.565,1.565,0,0,0-1.573.376,2.253,2.253,0,0,0-.047.628q.889.367,1.774.74c.442-.4.464-1.056-.154-1.743" transform="translate(-57.416 -84.321)" fill="#fff"/>
              <path id="Path_900702" data-name="Path 900702" d="M245.816,342.23c-.736,1.143-.71,2.461,1.015,2.363.743-1.222.746-2.606-1.015-2.363" transform="translate(-59.179 -82.537)" fill="#fff"/>
              <path id="Path_900703" data-name="Path 900703" d="M229.716,347.643l.03.012a.475.475,0,0,0,.006-.087c-.013.024-.023.051-.036.074" transform="translate(-55.406 -83.831)" fill="#fff"/>
              <path id="Path_900704" data-name="Path 900704" d="M243.646,340.118c-.106-1.175-1.631-2.046-2.232-.725a1.18,1.18,0,0,0,2.232.725" transform="translate(-58.22 -81.7)" fill="#fff"/>
              <path id="Path_900705" data-name="Path 900705" d="M242.788,333.716c1-.956.688-2.739-.895-2.157-1.082.664-.263,2.169.895,2.157" transform="translate(-58.221 -79.942)" fill="#fff"/>
              <path id="Path_900706" data-name="Path 900706" d="M231.89,336.888l.468.329c1.275-3.047-3.5-2.438-1.159.1.262-.052.433-.282.691-.434" transform="translate(-55.605 -80.84)" fill="#fff"/>
              <path id="Path_900707" data-name="Path 900707" d="M234.163,332.134c.14,1.5,2.081,1.971,2.213.2a1.181,1.181,0,0,0-2.213-.2" transform="translate(-56.479 -79.943)" fill="#fff"/>
              <path id="Path_900708" data-name="Path 900708" d="M236.625,347.521c-.414-1.044-.814-1.262-2.135-1.134-.949,1.4,1.5,2.487,2.135,1.134" transform="translate(-56.506 -83.538)" fill="#fff"/>
              <path id="Path_900709" data-name="Path 900709" d="M234.62,340.579a1.819,1.819,0,0,0,1.625-.208c.055-.448.105-.851.155-1.256-1.622-1.392-1.814-.118-1.779,1.464" transform="translate(-56.588 -81.649)" fill="#fff"/>
              <path id="Path_900710" data-name="Path 900710" d="M228.717,332.9c.1.139.175.3.264.441.367-.291.31-.606.013-1.444l-.034-.005c-.2.18-.4.362-.6.542.12.15.24.306.354.467" transform="translate(-55.08 -80.051)" fill="#fff"/>
              <path id="Path_900711" data-name="Path 900711" d="M245.833,335.51c-.126.64-.816,1.045-.788,1.837l.925.329c1.574-.8,1.764-1.757-.137-2.166" transform="translate(-59.103 -80.923)" fill="#fff"/>
              <path id="Path_900712" data-name="Path 900712" d="M243.862,353.442l-.017,0,.023.011-.005-.012" transform="translate(-58.814 -85.248)" fill="#fff"/>
              <path id="Path_900713" data-name="Path 900713" d="M250.712,331.785l-.744-.335-.976.669c-.118.464.162.838.282,1.333.7.077,1.3.165,1.763-.476a1.024,1.024,0,0,1-.326-1.191" transform="translate(-60.049 -79.944)" fill="#fff"/>
              <path id="Path_900714" data-name="Path 900714" d="M239.752,335.652c-.983-.744-1.057-.747-1.961-.117-.1.711-.074.991.656,1.153,1.2.772,1.427.158,1.3-1.037" transform="translate(-57.344 -80.818)" fill="#fff"/>
              <path id="Path_900715" data-name="Path 900715" d="M250.606,340.575c.024-.559.048-1.069.071-1.607-1.047-1.1-2.243.319-1.408,1.439.47.1.879.557,1.337.168" transform="translate(-60.054 -81.661)" fill="#fff"/>
              <path id="Path_900716" data-name="Path 900716" d="M248.563,347.165c.557.744,1.754,1.063,2.242.09-.262-.935-.262-.935-1-1.433-.261.631-.955.779-1.247,1.342" transform="translate(-59.952 -83.41)" fill="#fff"/>
              <path id="Path_900717" data-name="Path 900717" d="M243.917,347c-.37-.374-.629-.839-1.217-.976l-1,1.03c.532,1.254,1.748,1.186,2.219-.054" transform="translate(-58.296 -83.46)" fill="#fff"/>
              <path id="Path_900718" data-name="Path 900718" d="M238.443,342.76c-.68,1.873,2.141,1.879,1.324-.031a3.168,3.168,0,0,1-1.324.031" transform="translate(-57.485 -82.664)" fill="#fff"/>
              <path id="Path_900719" data-name="Path 900719" d="M238.176,312.309c-.149.152-.292.3-.441.454q-4.592,4.694-9.415,9.124-.85.78-1.71,1.554a7.362,7.362,0,0,0-3.644-2.463c.362-.763.752-1.511,1.1-2.245q1.234-2.6,2.572-5.141c1.122-2.117,2.239-4.315,3.524-6.381.225.1.444.206.664.308a32.7,32.7,0,0,1,7.351,4.79" transform="translate(-53.778 -74.097)" fill="#ffe6de"/>
              <path id="Path_900720" data-name="Path 900720" d="M237.567,311.7q-5.587,5.765-11.566,11.132h.845a8.328,8.328,0,0,0-3.907-2.617l.357.879a148.47,148.47,0,0,1,7.2-13.766l-.818.214a33.46,33.46,0,0,1,7.893,5c.581.5,1.43-.343.846-.846a34.538,34.538,0,0,0-8.135-5.191.615.615,0,0,0-.819.215,148.084,148.084,0,0,0-7.2,13.766.608.608,0,0,0,.357.879,7.182,7.182,0,0,1,3.38,2.31.607.607,0,0,0,.845,0q5.966-5.371,11.567-11.132c.536-.553-.309-1.4-.846-.846" transform="translate(-53.591 -73.911)" fill="#fff"/>
              <path id="Path_900721" data-name="Path 900721" d="M398.854,241.076a42.97,42.97,0,0,0-5.974.179l-1.02-1.293s3.048-5.141,2.3-6.127-6.1-4.119-6.995-3.732-3.576,4.167-3.576,4.167l-1.877-.25s-.732-5.2-2.846-5.1a23.419,23.419,0,0,0-7.093,2.009c-.829.536.417,5.624.417,5.624l-1.37,1.095-.589-.282s-4.067-2.541-5.229-1.67-3.922,6.536-3.7,7.263,4.46,3.776,4.46,3.776l-.321,1.453s-4.793,1.452-5.01,2.832.653,7.045,2.106,7.19a42.932,42.932,0,0,0,5.955-.508l1.09,1.235s-2.76,5.3-1.961,6.246,6.318,3.777,7.19,3.341,3.34-4.358,3.34-4.358l1.889.146s1.016,5.156,3.122,4.938a23.415,23.415,0,0,0,6.972-2.4c.8-.58-.726-5.592-.726-5.592l1.38-1.235s4.067,2.469,5.592,1.452,3.994-5.81,3.631-6.536-4.067-3.776-4.067-3.776l.02-.388c1.287-.359,4.367-1.325,4.6-2.4.294-1.366-.264-7.07-1.707-7.294M380.517,255.5a6.562,6.562,0,1,1,6.562-6.562,6.562,6.562,0,0,1-6.562,6.562" transform="translate(-86.925 -55.213)" fill="#fff"/>
              <path id="Path_900722" data-name="Path 900722" d="M150.754,143.83a26.224,26.224,0,0,0-3.635.109l-.621-.786s1.855-3.129,1.4-3.729-3.711-2.506-4.255-2.271a14.147,14.147,0,0,0-2.176,2.535l-1.142-.151s-.445-3.167-1.732-3.106a14.259,14.259,0,0,0-4.316,1.222c-.505.326.253,3.422.253,3.422l-.833.666-.358-.172s-2.475-1.546-3.182-1.017-2.386,3.978-2.254,4.419a16.712,16.712,0,0,0,2.714,2.3l-.2.884s-2.917.884-3.049,1.723.4,4.287,1.281,4.375a26.219,26.219,0,0,0,3.624-.31l.662.751s-1.679,3.226-1.193,3.8,3.845,2.3,4.375,2.033a14.167,14.167,0,0,0,2.033-2.651l1.149.089s.619,3.137,1.9,3a14.251,14.251,0,0,0,4.242-1.458c.486-.354-.442-3.4-.442-3.4l.839-.751s2.475,1.5,3.4.883,2.431-3.535,2.21-3.977a21.723,21.723,0,0,0-2.474-2.3l.012-.236c.783-.219,2.657-.806,2.8-1.462.179-.831-.161-4.3-1.038-4.439M139.6,152.61a3.993,3.993,0,1,1,3.993-3.993,3.993,3.993,0,0,1-3.993,3.993" transform="translate(-30.717 -32.906)" fill="#fff"/>
              <path id="Path_900723" data-name="Path 900723" d="M42.15,72.107,43.7,67.389l1.76,4.718s3.515.6,3.556.926-3.365,1.324-3.365,1.324S44.222,78.931,43.7,77.9a19.674,19.674,0,0,1-1.029-3.33s-4.427-.92-4.427-1.37c0-.489,3.906-1.088,3.906-1.088" transform="translate(-9.224 -16.254)" fill="#fff"/>
              <path id="Path_900724" data-name="Path 900724" d="M398.942,326.326l1.913-5.825,2.172,5.825s4.34.738,4.39,1.143-4.154,1.635-4.154,1.635-1.764,5.648-2.409,4.368a24.351,24.351,0,0,1-1.27-4.111s-5.466-1.136-5.466-1.693c0-.6,4.823-1.343,4.823-1.343" transform="translate(-95.059 -77.303)" fill="#fff"/>
              <path id="Path_900725" data-name="Path 900725" d="M276.3,30.479l1.716-5.224,1.948,5.224s3.892.662,3.937,1.025-3.725,1.466-3.725,1.466-1.582,5.064-2.16,3.917a21.786,21.786,0,0,1-1.14-3.686s-4.9-1.018-4.9-1.518c0-.541,4.324-1.2,4.324-1.2" transform="translate(-65.598 -6.091)" fill="#fff"/>
              <path id="Path_900726" data-name="Path 900726" d="M408.939,156.045l2.855-8.7,3.243,8.7s6.478,1.1,6.554,1.706-6.2,2.44-6.2,2.44-2.633,8.431-3.6,6.521a36.322,36.322,0,0,1-1.9-6.136s-8.158-1.7-8.158-2.527c0-.9,7.2-2,7.2-2" transform="translate(-96.897 -35.54)" fill="#fff"/>
              <path id="Path_900727" data-name="Path 900727" d="M239.2,391.819l1.527-4.651,1.734,4.651s3.465.59,3.506.912-3.317,1.305-3.317,1.305-1.408,4.51-1.923,3.488a19.427,19.427,0,0,1-1.014-3.282s-4.363-.907-4.363-1.351c0-.482,3.85-1.072,3.85-1.072" transform="translate(-56.765 -93.382)" fill="#fff"/>
              <path id="Path_900728" data-name="Path 900728" d="M19.014,170.05l2.243-6.832,2.548,6.832s5.089.866,5.149,1.34-4.872,1.918-4.872,1.918-2.069,6.624-2.826,5.123a28.608,28.608,0,0,1-1.49-4.821s-6.41-1.332-6.41-1.985c0-.708,5.656-1.575,5.656-1.575" transform="translate(-3.222 -39.367)" fill="#fff"/>
            </g>
          </g>
          <g id="Group_1111999" data-name="Group 1111999">
            <g id="Group_1111998" data-name="Group 1111998" clip-path="url(#clip-path)">
              <path id="Path_900729" data-name="Path 900729" d="M283.007,48.832s17.39,68.422,36.1,93.516L362.8,127.5s-26.731-52.431-33.855-89Z" transform="translate(-68.259 -9.287)" fill="#feead2"/>
              <path id="Path_900730" data-name="Path 900730" d="M296.821,72.77l31.938-7.726c.708-.171.408-1.263-.3-1.091L296.52,71.678c-.707.171-.407,1.263.3,1.091" transform="translate(-71.421 -15.42)" fill="#421b36"/>
              <path id="Path_900731" data-name="Path 900731" d="M301.819,82.947q12.161-3.8,24.639-6.419c.713-.15.411-1.241-.3-1.091q-12.467,2.62-24.639,6.42c-.694.216-.4,1.309.3,1.091" transform="translate(-72.629 -18.191)" fill="#421b36"/>
              <path id="Path_900732" data-name="Path 900732" d="M304.141,91.731q12.161-3.8,24.639-6.42c.712-.15.411-1.241-.3-1.091q-12.467,2.62-24.639,6.42c-.694.216-.4,1.309.3,1.091" transform="translate(-73.189 -20.31)" fill="#421b36"/>
              <path id="Path_900733" data-name="Path 900733" d="M340.783,74.384l4.1-1.018a.566.566,0,1,0-.3-1.091l-4.1,1.018a.566.566,0,1,0,.3,1.091" transform="translate(-82.022 -17.428)" fill="#421b36"/>
              <path id="Path_900734" data-name="Path 900734" d="M343.571,83.252l4.1-1.018a.566.566,0,0,0-.3-1.092l-4.1,1.019a.566.566,0,1,0,.3,1.09" transform="translate(-82.695 -19.567)" fill="#421b36"/>
              <path id="Path_900735" data-name="Path 900735" d="M307.526,100.184q12.161-3.8,24.639-6.42c.713-.15.411-1.241-.3-1.091q-12.467,2.62-24.639,6.419c-.694.216-.4,1.309.3,1.091" transform="translate(-74.006 -22.349)" fill="#421b36"/>
              <path id="Path_900736" data-name="Path 900736" d="M346.956,91.706l4.1-1.018a.566.566,0,1,0-.3-1.091l-4.1,1.018a.566.566,0,0,0,.3,1.091" transform="translate(-83.511 -21.606)" fill="#421b36"/>
              <path id="Path_900737" data-name="Path 900737" d="M310.911,108.638q12.161-3.8,24.639-6.42c.713-.15.411-1.241-.3-1.091q-12.467,2.62-24.64,6.42c-.693.216-.4,1.309.3,1.091" transform="translate(-74.822 -24.388)" fill="#421b36"/>
              <path id="Path_900738" data-name="Path 900738" d="M350.341,100.159l4.1-1.018a.566.566,0,1,0-.3-1.091l-4.1,1.018a.566.566,0,0,0,.3,1.091" transform="translate(-84.327 -23.645)" fill="#421b36"/>
              <path id="Path_900739" data-name="Path 900739" d="M314.3,117.091q12.161-3.8,24.639-6.42c.712-.149.411-1.241-.3-1.09Q326.168,112.2,314,116c-.694.216-.4,1.309.3,1.091" transform="translate(-75.638 -26.427)" fill="#421b36"/>
              <path id="Path_900740" data-name="Path 900740" d="M353.726,108.612l4.1-1.018a.566.566,0,0,0-.3-1.092q-2.048.51-4.1,1.018a.566.566,0,0,0,.3,1.091" transform="translate(-85.144 -25.683)" fill="#421b36"/>
              <path id="Path_900741" data-name="Path 900741" d="M317.681,125.544q12.161-3.795,24.639-6.419c.713-.15.411-1.241-.3-1.091q-12.467,2.62-24.639,6.42c-.694.216-.4,1.309.3,1.09" transform="translate(-76.455 -28.466)" fill="#421b36"/>
              <path id="Path_900742" data-name="Path 900742" d="M357.111,117.066l4.1-1.018a.566.566,0,0,0-.3-1.091l-4.1,1.018a.566.566,0,1,0,.3,1.091" transform="translate(-85.96 -27.723)" fill="#421b36"/>
              <path id="Path_900743" data-name="Path 900743" d="M321.066,134q12.161-3.8,24.639-6.42c.712-.149.411-1.241-.3-1.09q-12.467,2.62-24.639,6.42c-.694.216-.4,1.309.3,1.091" transform="translate(-77.271 -30.505)" fill="#421b36"/>
              <path id="Path_900744" data-name="Path 900744" d="M360.5,125.519l4.1-1.018a.566.566,0,1,0-.3-1.091l-4.1,1.018a.566.566,0,0,0,.3,1.091" transform="translate(-86.777 -29.761)" fill="#421b36"/>
              <path id="Path_900745" data-name="Path 900745" d="M324.451,142.451q12.161-3.8,24.639-6.42c.713-.15.411-1.241-.3-1.091q-12.467,2.62-24.639,6.419c-.694.216-.4,1.309.3,1.091" transform="translate(-78.088 -32.543)" fill="#421b36"/>
              <path id="Path_900746" data-name="Path 900746" d="M363.881,133.972l4.1-1.018a.566.566,0,0,0-.3-1.092l-4.1,1.019a.566.566,0,1,0,.3,1.09" transform="translate(-87.593 -31.8)" fill="#421b36"/>
              <path id="Path_900747" data-name="Path 900747" d="M328.1,151.506q11.991-4.3,24.35-7.442a.566.566,0,0,0-.3-1.091q-12.346,3.138-24.35,7.442c-.681.244-.387,1.338.3,1.091" transform="translate(-78.971 -34.479)" fill="#421b36"/>
              <path id="Path_900748" data-name="Path 900748" d="M367.07,141.664l4.05-1.188a.566.566,0,0,0-.3-1.091l-4.049,1.188a.566.566,0,1,0,.3,1.091" transform="translate(-88.362 -33.614)" fill="#421b36"/>
              <path id="Path_900749" data-name="Path 900749" d="M331.718,160.416q11.848-4.681,24.1-8.217a.566.566,0,0,0-.3-1.091q-12.24,3.532-24.1,8.217c-.67.265-.378,1.359.3,1.091" transform="translate(-79.844 -36.44)" fill="#421b36"/>
              <path id="Path_900750" data-name="Path 900750" d="M370.284,149.539l4.009-1.317a.579.579,0,0,0,.4-.7.572.572,0,0,0-.7-.4l-4.009,1.317a.578.578,0,0,0-.4.7.572.572,0,0,0,.7.4" transform="translate(-89.137 -35.481)" fill="#421b36"/>
              <path id="Path_900751" data-name="Path 900751" d="M292.2,55.58s1.173,6.556,2,7.185,37.008-7.555,36.616-8.076-1.009-7.2-2.056-7.371-36.76,7.225-36.564,8.262" transform="translate(-70.477 -11.412)" fill="#fd9826"/>
            </g>
          </g>
          <g id="Group_1112004" data-name="Group 1112004">
            <g id="Group_1112003" data-name="Group 1112003" clip-path="url(#clip-path-4)">
              <path id="Path_900752" data-name="Path 900752" d="M99.256,89.115a36.954,36.954,0,1,1,51.5,8.878,36.954,36.954,0,0,1-51.5-8.878" transform="translate(-22.308 -7.44)" fill="#fd9826"/>
              <path id="Path_900753" data-name="Path 900753" d="M102.833,84.66a36.954,36.954,0,1,1,51.5,8.877,36.954,36.954,0,0,1-51.5-8.877" transform="translate(-23.17 -6.365)" fill="#fed5a7"/>
              <path id="Path_900754" data-name="Path 900754" d="M132.929,100.6a37.39,37.39,0,1,1,21.521-6.835,37.39,37.39,0,0,1-21.521,6.835M103.057,84.26a36.5,36.5,0,1,0-6.152-27.251,36.544,36.544,0,0,0,6.152,27.251" transform="translate(-23.025 -6.226)" fill="#421b36"/>
              <path id="Path_900755" data-name="Path 900755" d="M134.026,98.326a34.455,34.455,0,0,1-5.855-.5,33.894,33.894,0,1,1,5.855.5m-.118-67.171a33.125,33.125,0,1,0,27.115,14.014,32.948,32.948,0,0,0-27.115-14.014" transform="translate(-24.101 -7.296)" fill="#fd9826"/>
              <path id="Path_900756" data-name="Path 900756" d="M118.35,116.959c-.146.277-.3.548-.475.81-.087.131-.175.259-.268.385l-.074.1c-.03.039-.035.046,0,0-.05.065-.1.13-.154.193a9.516,9.516,0,0,1-1.328,1.323.566.566,0,0,0,0,.8.581.581,0,0,0,.8,0,9.869,9.869,0,0,0,2.478-3.043.566.566,0,1,0-.977-.571" transform="translate(-27.951 -28.144)" fill="#421b36"/>
              <path id="Path_900757" data-name="Path 900757" d="M109.014,109.774q-.135.2-.28.4l-.088.118c-.03.041-.034.045,0,0l-.153.191q-.316.388-.669.747t-.718.665c-.062.052-.125.1-.189.156l-.1.077c-.083.065.032-.023-.021.016-.138.1-.275.2-.417.3a.566.566,0,1,0,.571.977,11.5,11.5,0,0,0,3.036-3.079.569.569,0,0,0-.2-.774.578.578,0,0,0-.774.2" transform="translate(-25.591 -26.41)" fill="#421b36"/>
              <path id="Path_900758" data-name="Path 900758" d="M100.764,99.193,97.49,100.6a.567.567,0,0,0-.2.774.583.583,0,0,0,.774.2l3.274-1.408a.568.568,0,0,0,.2-.775.583.583,0,0,0-.774-.2" transform="translate(-23.447 -23.909)" fill="#421b36"/>
              <path id="Path_900759" data-name="Path 900759" d="M96.057,85.6a13.372,13.372,0,0,0-3.807.676.566.566,0,0,0,.3,1.091,12.124,12.124,0,0,1,3.506-.636.566.566,0,1,0,0-1.131" transform="translate(-22.149 -20.647)" fill="#421b36"/>
              <path id="Path_900760" data-name="Path 900760" d="M95.218,73.648a3.026,3.026,0,0,0-3.057-.543.62.62,0,0,0-.338.26.566.566,0,0,0,.639.832,2.4,2.4,0,0,1,.288-.1c.055-.014.111-.027.167-.038l.074-.014c.076-.015-.114.011-.036.005.1-.008.2-.016.3-.015.051,0,.1,0,.152.007.026,0,.051.006.077.007.074,0-.145-.024-.018,0a2.847,2.847,0,0,1,.3.066c.049.014.1.029.146.046l.071.027c.071.027-.007,0-.03-.014a2.919,2.919,0,0,0,.286.151c.043.027.086.055.127.084.013.01.085.062.019.013s.025.023.031.029a.566.566,0,0,0,.8-.8" transform="translate(-22.128 -17.583)" fill="#421b36"/>
              <path id="Path_900761" data-name="Path 900761" d="M129.162,121.529l-2.848,2.9a.566.566,0,0,0,.8.8l2.848-2.9a.566.566,0,1,0-.8-.8" transform="translate(-30.427 -29.273)" fill="#421b36"/>
              <path id="Path_900762" data-name="Path 900762" d="M141.374,123.445l-2.281,3.28a.568.568,0,0,0,.2.774.579.579,0,0,0,.774-.2l2.282-3.28a.569.569,0,0,0-.2-.774.579.579,0,0,0-.774.2" transform="translate(-33.529 -29.708)" fill="#421b36"/>
              <path id="Path_900763" data-name="Path 900763" d="M154.47,122.33c-.023.062-.046.124-.07.186-.012.03-.024.061-.037.092,0,0-.057.136-.028.07s-.017.036-.02.046l-.041.091c-.027.06-.055.12-.084.179q-.183.38-.4.741c-.141.233-.294.459-.457.678l-.06.079c.033-.044.028-.035,0,0s-.082.1-.124.155c-.095.115-.194.227-.294.336a.566.566,0,0,0,.8.8,9.527,9.527,0,0,0,1.912-3.157.569.569,0,0,0-.4-.7.581.581,0,0,0-.7.4" transform="translate(-36.827 -29.406)" fill="#421b36"/>
              <path id="Path_900764" data-name="Path 900764" d="M168.2,117.062c0,.049-.007.1-.011.147,0,.025-.005.049-.008.074-.008.062-.005.048.006-.041-.02.024-.019.115-.025.146-.009.048-.019.1-.03.144a3.9,3.9,0,0,1-.168.545c-.053.136.041-.086-.008.018-.02.044-.04.09-.062.134-.042.089-.09.175-.14.26s-.1.168-.159.248c-.017.026-.058.107-.087.119.051-.066.058-.076.02-.027l-.047.056a.608.608,0,0,0-.165.4.565.565,0,0,0,.965.4,4.507,4.507,0,0,0,1.05-2.623.569.569,0,0,0-.565-.565.579.579,0,0,0-.566.565" transform="translate(-40.355 -28.098)" fill="#421b36"/>
              <path id="Path_900765" data-name="Path 900765" d="M98.312,58.49a2.01,2.01,0,0,0-1.827.031.566.566,0,0,0-.2.774.566.566,0,0,0,.338.26.623.623,0,0,0,.436-.057c.031-.016.063-.031.095-.045l-.135.057a1.5,1.5,0,0,1,.363-.1l-.151.02a1.549,1.549,0,0,1,.4,0l-.151-.02a1.472,1.472,0,0,1,.363.1l-.135-.057.038.017a.422.422,0,0,0,.211.067.43.43,0,0,0,.225-.01.579.579,0,0,0,.338-.26.572.572,0,0,0,.057-.436.551.551,0,0,0-.26-.338" transform="translate(-23.204 -14.058)" fill="#421b36"/>
              <path id="Path_900766" data-name="Path 900766" d="M139.776,85.456a1.948,1.948,0,0,1-1.162-.511,1.625,1.625,0,0,1-.361-.84,2.7,2.7,0,0,1,.03-.933,1.234,1.234,0,0,1,.415-.713,1.534,1.534,0,0,1,.595-.293,2.057,2.057,0,0,1,.722-.062,11.1,11.1,0,0,0,4.335-.274,9.783,9.783,0,0,0,3.458-1.9,10.407,10.407,0,0,0,2.727-3.3,6.809,6.809,0,0,0,.8-3.482,5.139,5.139,0,0,0-1.22-3.048,4.753,4.753,0,0,0-2.225-1.508,7.543,7.543,0,0,0-3.4-.132,28.025,28.025,0,0,0-5.213,1.441,22.562,22.562,0,0,1-6.271,1.581,11.24,11.24,0,0,1-4.809-.539,8.2,8.2,0,0,1-3.489-2.506,9.451,9.451,0,0,1-2.245-5.05,9.694,9.694,0,0,1,1.036-5.422,15.986,15.986,0,0,1,4.274-5.159,18.05,18.05,0,0,1,3.708-2.406,15.775,15.775,0,0,1,3.732-1.285,12.878,12.878,0,0,1,3.452-.248,2.563,2.563,0,0,1,.806.2,1.515,1.515,0,0,1,.569.4,1.491,1.491,0,0,1,.348.782,2.262,2.262,0,0,1-.061.857,1.3,1.3,0,0,1-.431.693,1.815,1.815,0,0,1-.751.389,3.445,3.445,0,0,1-1.048.032,7.478,7.478,0,0,0-2.463.265,16.021,16.021,0,0,0-2.942,1.066A12.546,12.546,0,0,0,130,55.247a11.34,11.34,0,0,0-3.978,5.517,5.415,5.415,0,0,0,1.113,5.183,5.615,5.615,0,0,0,2.512,1.774,7.621,7.621,0,0,0,3.673.139,33.726,33.726,0,0,0,5.63-1.585,27.04,27.04,0,0,1,5.927-1.43,10.114,10.114,0,0,1,4.509.42,7.585,7.585,0,0,1,3.3,2.361,8.322,8.322,0,0,1,1.961,4.747,10.493,10.493,0,0,1-1.025,5.315,13.844,13.844,0,0,1-3.821,4.815,14.511,14.511,0,0,1-3.158,2.017,11.512,11.512,0,0,1-3.41.986,12.37,12.37,0,0,1-3.462-.047m13.511-1.349a2.224,2.224,0,0,1,.514.984,1.543,1.543,0,0,1-.081.872,1.8,1.8,0,0,1-.524.7,1.612,1.612,0,0,1-1.21.4,1.976,1.976,0,0,1-1.282-.816q-1.971-2.456-4.58-5.963t-5.515-7.534q-2.907-4.03-5.869-8.081t-5.683-7.7q-2.724-3.646-4.934-6.307a1.823,1.823,0,0,1-.5-1.331,1.544,1.544,0,0,1,.578-1.082,1.675,1.675,0,0,1,1.251-.435,1.814,1.814,0,0,1,1.214.737q2.21,2.662,4.934,6.308t5.684,7.7q2.959,4.051,5.888,8.065t5.535,7.518q2.609,3.508,4.58,5.963" transform="translate(-29.524 -11.532)" fill="#fd9826"/>
              <g id="Group_1112002" data-name="Group 1112002" transform="translate(90.167 23.196)">
                <g id="Group_1112001" data-name="Group 1112001">
                  <g id="Group_1112000" data-name="Group 1112000" clip-path="url(#clip-path-5)">
                    <path id="Path_900767" data-name="Path 900767" d="M164.671,54.553q-.447-.856-.944-1.707a1.7,1.7,0,0,1,1.136.149,3.828,3.828,0,0,1,.066,1.243,1.637,1.637,0,0,1-.258.315M127.184,33.776q.945-.227,1.894-.38c.015-.036.031-.072.048-.1-.467-1.276-2.517-.9-1.942.485m38.1,22q.277.576.533,1.153c.263-.37.215-.832-.533-1.153m-7.228-10.654q.522.574,1.027,1.17c.055-.955-.4-1.242-1.027-1.17m-33.74-10.489c.678-.244,1.358-.464,2.04-.65a1.147,1.147,0,0,0-.052-.2,2.262,2.262,0,0,0-1.591-.015,2.072,2.072,0,0,0-.4.864m36.27,9.407a1.542,1.542,0,0,0-.057,1.879,4.053,4.053,0,0,0,.992,0,1.231,1.231,0,0,0-.034-1.9l-.9.023m8.1,12.145c.543-1.666-1.536-2.336-1.8-.462a1.039,1.039,0,0,0,1.8.462M166.66,45.768l.679,1.1a1.13,1.13,0,0,0,.359.035q-.411-.685-.858-1.356a1.5,1.5,0,0,0-.18.218m2.459,26.145c2.5.814,1.6-2.849-.168-1.313-.023.424-.273.872.168,1.313m-.685,2.35c-.079.507-.171,1.011-.278,1.511a1.679,1.679,0,0,0,.719-.678,5.768,5.768,0,0,0-.441-.833M147.671,36.869c.007.008.015.011.023.019.177.1.352.19.527.289.936.168,1.742-1.336.612-1.406-.068-.19-.134-.38-.229-.649-.961.332-1.411.828-.933,1.747m19.075,12.637-.782-.665a1.887,1.887,0,0,0-.914.341c.077.5-.157,1.068.169,1.446.324.063.6.119.958.19a1.1,1.1,0,0,0,.568-1.31m3.093,8.789-.665-.549a.967.967,0,0,0-.808,1.731c.764.167,1.768-.267,1.474-1.181m-2-5.089a1.783,1.783,0,0,0-.711-1.367l-.856.125c-1.03,1.2.637,2.314,1.567,1.241m.766,13.976c.067.662.118,1.323.139,1.98,1.212-.521,1.281-1.664-.139-1.98M150.471,34.638c-.64,2.58,2.642,1.691,1.367.027-.373-.562-.8.126-1.367-.027m19.413,39.52.492.647.341.044c.174-.521.337-1.046.486-1.575-.559-.326-1.378-.211-1.32.883m.219-10.428c-.457,1.213.517,1.42,1.5,1.284.643-1.043-.511-2.324-1.5-1.284m-4.085,18.146a2.327,2.327,0,0,0,.993.628q.382-.586.74-1.187a3.333,3.333,0,0,0-.63-.642c-.239.2-.519.32-.76.487q-.165.359-.342.714m-1.181-37.625c-.746-2.273-3.065-.482-1.005.808a1.43,1.43,0,0,0,1.005-.808m-45.9-6.991q.684-.426,1.374-.806a1.391,1.391,0,0,0,.062-.322c-.287.19-.576.375-.859.575-.237.167-.459.347-.69.519a.915.915,0,0,0,.112.033m32.148-4.4c-.561-.219-1.127-.425-1.7-.612-.008.67.7,1.425,1.7.612m5.862,9.2-.666.879c.036.156.075.313.123.468q.308.3.613.616a.982.982,0,1,0-.07-1.963m-.74-.958a1.855,1.855,0,0,0,.852-1.227c-1.2-1.987-2.8,1.057-.852,1.227m-16.374-8.334.629.486c.334-.181.782.036,1.115-.37-.042-.315-.088-.668-.136-1.029a.933.933,0,0,0-1.609.913m22.384,17.446a.557.557,0,0,0-.1.089q.489.72.942,1.448c.262-.154.446-.346.783-.583.034-1.164-.68-1.313-1.628-.954m7.726,4.1a.9.9,0,0,0,1.361,1.03q-.216-.793-.471-1.578a.776.776,0,0,0-.889.549m1.883,6.484a1.533,1.533,0,0,1,.511.4c-.038-.424-.079-.848-.133-1.272a1.387,1.387,0,0,0-.378.873m.062,9.537c.048-.26.1-.518.138-.779a.876.876,0,0,0-.138.779M137.626,30.589q-.829.03-1.655.1c.065,1.037,1.755.819,1.655-.1m1.93-.02a.43.43,0,0,1,.046.11,1.821,1.821,0,0,0,.3-.1c-.117,0-.233-.005-.349-.008M152.987,40a1.24,1.24,0,0,1-.1.313q.548.428,1.084.877c.028-.608-.19-.984-.985-1.191m10.025,46.636c-.177.228-.36.452-.546.677l.61-.521c-.021-.057-.043-.1-.064-.156m4.836-24.255a.952.952,0,0,0-.19-.3c.049.181.092.361.137.542a.928.928,0,0,0,.052-.24M155.064,34.72v-.01c-.522-.287-1.052-.556-1.587-.813a1.373,1.373,0,0,0-.095.326.933.933,0,0,0,1.682.5m15.23,17.51c-.18-.476-.375-.949-.579-1.418l-.731.545c-.167,1.512.8,1.4,1.31.873M130,32.408a1.78,1.78,0,0,0,.4.808c.407-.046.815-.083,1.225-.109a1.606,1.606,0,0,0,.1-.155c.065-1.374-.82-1.491-1.721-.545m6.911.878c.546.073,1.093.157,1.637.262.032-.161.063-.317.1-.485a1.748,1.748,0,0,1-.9-.469c-.433.039-1.191.191-.834.692m-3.235-1.022c.708.545,1.21-.819.679-1.264a.622.622,0,0,1-.072-.12c-.372.051-.743.1-1.114.166-.3.421-.218.993.507,1.218m24.011,59.7.389-.26c0-.019-.007-.037-.011-.056-.128.1-.248.212-.379.316M168.613,65.9c-.166-.492-.011-.971-.18-1.444-.081-.005-.152,0-.228-.006q.14.726.245,1.452c.052,0,.1,0,.163,0M162.4,48.764c.742-1.045.36-1.752-.926-1.656a2.458,2.458,0,0,0-.486,1.109c.508.043.849.465,1.411.548m8.285,18.294a2.831,2.831,0,0,0,.366.864l.869.112.373-.5q.024-.224.046-.448c-.1-.234-.208-.461-.316-.7-.684-.116-.914.417-1.338.672M168.36,49.425a.927.927,0,0,0,.778.14c-.208-.431-.428-.857-.656-1.282-.555.19-.871.588-.122,1.141M142.715,31.244c.128,1.914,2.163.816,1.5-.25-.341-.055-.683-.108-1.025-.152-.175.129-.324.274-.476.4m1.38,2.171A1.445,1.445,0,0,0,143.8,35c1.726.385,2-1.422.3-1.582m25.412,27.172c-.868.951-.364,2,.926,1.583.566-.673-.133-1.464-.926-1.583m1.912-3.761c-.669.469-.468,1.933.508,1.584.017-.01.031-.023.048-.033q-.142-.817-.326-1.629a1.217,1.217,0,0,0-.231.078M160.355,89.6c-.266.261-.54.518-.818.773a2.439,2.439,0,0,0-.041.291c.391-.3.771-.618,1.145-.936a1.125,1.125,0,0,0-.286-.128m-18.3-55.142c-.006-.023-.01-.044-.014-.067a.953.953,0,0,0-.113.025l.127.042M165.6,47.512a1.6,1.6,0,0,0-.2-1.287c-2.142-.1-1.555,2.066.2,1.287m2.5,30.133.358.178c-.391.562-.365.717.1.939a.507.507,0,0,0,.556.024c.178-.371.354-.744.52-1.122l-1.005-.634c-.2.157-.525.215-.528.614M147.229,34.262l.606-.005c.766-.975.334-2.1-.952-1.631.209.521-.082,1.128.346,1.637m17.219,50.659c.062.341-.1.7-.049,1.075.316-.368.619-.743.917-1.122-.3.014-.569-.2-.869.047M121.433,35.871q.731-.362,1.468-.675a.971.971,0,0,0-.238-.455c-.382.212-.76.436-1.137.664a.672.672,0,0,0-.093.467m39.4,6.052c-.163-.162-.31-.31-.458-.456l-.66-.092c-1.054.961,1.224,3.092,1.118.548m-5.677-5.513c-.215.212-.385.379-.543.536.062.284.12.541.178.8,1.546.669,1.855-.91.365-1.334m4.613,3.275a2.455,2.455,0,0,0-.49-1.382c-.451-.027-.694.288-.983.611.087,1.328.674.609,1.474.771m3.853,2.022c-.015-.1-.03-.211-.044-.316-.258-.28-.517-.557-.782-.826-1.137.3-.64,2.081.826,1.141m-11.08-4.151-1.075.522c.2,1.649,2.67.608,1.075-.522M157.3,36.55c.357.162.564.509,1.03.5.034-.07.072-.139.112-.208q-.478-.343-.967-.666a1.669,1.669,0,0,0-.176.376" transform="translate(-118.827 -30.569)" fill="#fd9826"/>
                  </g>
                </g>
              </g>
              <path id="Path_900768" data-name="Path 900768" d="M126.289,91.989l.83-2.529.943,2.529a7.863,7.863,0,0,1,1.906.5c.022.171-1.8.709-1.8.709s-.766,2.452-1.046,1.9a10.58,10.58,0,0,1-.552-1.785s-2.373-.493-2.373-.735c0-.262,2.094-.583,2.094-.583" transform="translate(-29.955 -21.577)" fill="#fff"/>
            </g>
          </g>
          <g id="Group_1112006" data-name="Group 1112006">
            <g id="Group_1112005" data-name="Group 1112005" clip-path="url(#clip-path)">
              <path id="Path_900769" data-name="Path 900769" d="M323.274,191.967c-1.122,2.522-2.392,50.815-.28,52.413,1.9,1.436,94.175.981,96.417,0s.709-51.284,0-53.113c-.56-1.446-96.148-1.68-96.137.7" transform="translate(-77.63 -45.869)" fill="#e4f2f3"/>
              <path id="Path_900770" data-name="Path 900770" d="M323.557,212.6h96.672a.566.566,0,0,0,0-1.131H323.557a.566.566,0,0,0,0,1.131" transform="translate(-77.908 -51.004)" fill="#006262"/>
              <path id="Path_900771" data-name="Path 900771" d="M323.557,225.533h96.672a.566.566,0,0,0,0-1.131H323.557a.566.566,0,0,0,0,1.131" transform="translate(-75.468 -54.123)" fill="#006262"/>
              <path id="Path_900772" data-name="Path 900772" d="M323.557,238.47h96.672a.566.566,0,0,0,0-1.131H323.557a.566.566,0,0,0,0,1.131" transform="translate(-77.908 -57.245)" fill="#006262"/>
              <path id="Path_900773" data-name="Path 900773" d="M323.557,251.407h96.672a.566.566,0,0,0,0-1.131H323.557a.566.566,0,0,0,0,1.131" transform="translate(-77.908 -60.365)" fill="#006262"/>
              <path id="Path_900774" data-name="Path 900774" d="M336.019,246.764v-45.68a.566.566,0,0,0-1.131,0v45.68a.566.566,0,0,0,1.131,0" transform="translate(-80.773 -48.368)" fill="#006262"/>
              <path id="Path_900775" data-name="Path 900775" d="M347.776,246.764v-45.68a.566.566,0,0,0-1.131,0v45.68a.566.566,0,0,0,1.131,0" transform="translate(-83.608 -48.368)" fill="#006262"/>
              <path id="Path_900776" data-name="Path 900776" d="M360.538,246.764v-45.68a.566.566,0,0,0-1.131,0v45.68a.566.566,0,0,0,1.131,0" transform="translate(-86.687 -48.368)" fill="#006262"/>
              <path id="Path_900777" data-name="Path 900777" d="M372.614,246.764v-45.68a.566.566,0,0,0-1.132,0v45.68a.566.566,0,0,0,1.132,0" transform="translate(-89.599 -48.368)" fill="#006262"/>
              <path id="Path_900778" data-name="Path 900778" d="M386.279,246.764v-45.68a.566.566,0,0,0-1.131,0v45.68a.566.566,0,0,0,1.131,0" transform="translate(-92.895 -48.368)" fill="#006262"/>
              <path id="Path_900779" data-name="Path 900779" d="M398.686,246.764v-45.68a.566.566,0,0,0-1.131,0v45.68a.566.566,0,0,0,1.131,0" transform="translate(-95.888 -48.368)" fill="#006262"/>
              <path id="Path_900780" data-name="Path 900780" d="M424.484,246.764v-45.68a.566.566,0,0,0-1.131,0v45.68a.566.566,0,0,0,1.131,0" transform="translate(-102.11 -48.368)" fill="#006262"/>
              <path id="Path_900781" data-name="Path 900781" d="M410.624,246.764v-45.68a.566.566,0,0,0-1.131,0v45.68a.566.566,0,0,0,1.131,0" transform="translate(-98.767 -48.368)" fill="#006262"/>
              <path id="Path_900782" data-name="Path 900782" d="M438.206,246.764v-45.68a.566.566,0,0,0-1.131,0v45.68a.566.566,0,0,0,1.131,0" transform="translate(-105.42 -48.368)" fill="#006262"/>
              <path id="Path_900783" data-name="Path 900783" d="M323.315,248.491q1.936-1.882,3.873-3.764l2.723-2.646c.232-.225,1.552-1.187,1.566-1.524,0-.044-.536.014-.129.1a5.254,5.254,0,0,0,1.048,0h7.463a15.056,15.056,0,0,0,2.281,0c.7-.112,1.046-1.05,1.4-1.608q1.456-2.314,2.911-4.628,4.2-6.685,8.4-13.368,2.781-4.424,5.562-8.847l-.489.28,10.648-.342-.488-.28L387.015,236.9l2.357,3.484a.572.572,0,0,0,.977,0l7.967-16.6a11.373,11.373,0,0,0,1.125-2.344c.112.162-.64.262.03.119.451-.095.9-.269,1.339-.4l10.406-3.125,8.225-2.471a.566.566,0,0,0-.3-1.09l-17.953,5.391a14.671,14.671,0,0,0-2.348.706c-.53.267-.716,1.012-.961,1.524l-4.68,9.751-3.825,7.971h.977l-8.2-12.117-10.57-15.626c-.246-.363-.493-.916-.936-1.042a3.21,3.21,0,0,0-.885.017l-2.221.071-5.558.18c-.7.023-2.021-.2-2.55.351a7.609,7.609,0,0,0-.752,1.2q-.928,1.477-1.857,2.954l-5.583,8.88-5.871,9.338a58.642,58.642,0,0,0-3.469,5.517,2.87,2.87,0,0,1-.177.281l.489-.28H332.18a4.079,4.079,0,0,0-1.189.02c-.337.115-.63.515-.874.752l-4.207,4.09q-1.7,1.649-3.395,3.3c-.524.508.277,1.308.8.8" transform="translate(-77.747 -50.891)" fill="#fd9826"/>
              <path id="Path_900784" data-name="Path 900784" d="M323.25,228.958l10-16.2-.489.281h9.109l-.489-.281,8.837,16.569,1.254,2.35a.572.572,0,0,0,.889.115l8.324-7.829a19.71,19.71,0,0,0,1.55-1.458c.383-.448-.038.146-.181-.037.026.033.31-.009.351-.006,1.7.112,3.457-.056,5.155-.078,2.44-.032,4.879-.058,7.319-.062,1.062,0,2.123,0,3.185.014a17.779,17.779,0,0,0,1.986.068c.28-.029-.024-.064.083,0s.228.134.34.2c.527.308,1.081.576,1.623.857,1.943,1.007,3.894,1.995,5.847,2.983q5.4,2.734,10.819,5.442a.588.588,0,0,0,.686-.089l17.769-16.6,2.552-2.384c.533-.5-.269-1.3-.8-.8l-17.769,16.6-2.552,2.384.686-.089q-4.7-2.354-9.4-4.724-3.213-1.622-6.417-3.262c-.689-.354-1.379-.708-2.062-1.074-.191-.1-.384-.2-.571-.312-.048-.027-.093-.058-.142-.084.138.075-.064-.064-.194-.1a15.519,15.519,0,0,0-3.869-.157c-2.5-.012-4.994.012-7.49.04q-3.078.035-6.154.087a5.457,5.457,0,0,0-.984.017,2.525,2.525,0,0,0-1.074.8l-9.417,8.858.889.115-8.837-16.569-1.254-2.35a.565.565,0,0,0-.489-.281h-6.095c-1.073,0-3.019-.465-3.679.566-2.484,3.882-4.844,7.848-7.264,11.77l-2.557,4.143c-.383.621.595,1.191.977.571" transform="translate(-77.709 -51.086)" fill="#ffc94a"/>
              <path id="Path_900785" data-name="Path 900785" d="M364.272,245.6c-15.8,0-40.551-.139-41.7-1.006-1.353-1.023-1.427-14.827-1.251-26.227.182-11.829.738-24.884,1.361-26.655.082-.458.7-.614,1.376-.742,5.422-1.027,31.02-1.392,51.292-1.392h.068c11.369,0,22.1.1,30.213.29,13.756.317,13.9.692,14.054,1.089.432,1.112.966,15.445,1.138,27.033.383,25.889-.9,26.449-1.379,26.659-1.394.611-29.779.9-48.518.944-1.914,0-4.176.008-6.657.008m-40.743-53.563c-.492,1.3-1.093,13.37-1.3,26.029-.268,16.808.262,25.079.9,25.821,1.2.532,20.533.861,48.032.8,25.216-.064,46.714-.454,47.922-.872,1.656-1.914.664-48.524-.209-52.381-2.167-.58-23.172-1-47.6-.946-26.973.061-46.048.682-47.751,1.549" transform="translate(-77.485 -45.725)" fill="#421b36"/>
              <path id="Path_900786" data-name="Path 900786" d="M322.481,198.659c-.266-.263,97.6,0,97.6,0s1.121-6.209-.519-7.319c-1.58-1.07-87.987-1.439-96.144.675-.315.081-.685.2-.585.256.624.355-.352,6.388-.352,6.388" transform="translate(-77.78 -45.943)" fill="#421b36"/>
              <path id="Path_900787" data-name="Path 900787" d="M332.127,195.111c0,1.629-1.321,2.29-2.95,2.29s-2.95-.661-2.95-2.29a2.95,2.95,0,1,1,5.9,0" transform="translate(-78.684 -46.348)" fill="#a0d2f4"/>
              <path id="Path_900788" data-name="Path 900788" d="M342.04,195.111c0,1.629-1.321,2.29-2.95,2.29s-2.949-.661-2.949-2.29a2.95,2.95,0,1,1,5.9,0" transform="translate(-81.075 -46.348)" fill="#a0d2f4"/>
            </g>
          </g>
          <g id="Group_1112011" data-name="Group 1112011">
            <g id="Group_1112010" data-name="Group 1112010" clip-path="url(#clip-path)">
              <path id="Path_900789" data-name="Path 900789" d="M144.851,81.32s-3.579,170.256,8.71,174.484,131.161,1.675,132.89-2.6c4.7-11.62.738-160.5-1.121-172.094-.791-4.938-140.388-4.963-140.479.211" transform="translate(-34.82 -18.674)" fill="#e4f2f3"/>
              <path id="Path_900790" data-name="Path 900790" d="M201.735,251.38c-23.818,0-35.863-.823-39.489-1.6-.785-1.553-2.786-7.524-4.309-29.331-1.015-14.53-1.675-33.839-1.964-57.389-.415-33.857.07-66.911.237-76.694,7.011-1.175,29.354-2.28,62.389-2.28,32.617,0,54.611,1.075,61.312,2.21.791,9.961,1.964,43.832,2.528,80.608.769,50.235-.052,74.4-1.106,81.129-8.21,1.6-42.811,3.349-79.59,3.349Z" transform="translate(-37.58 -20.281)" fill="#fff"/>
              <path id="Path_900791" data-name="Path 900791" d="M210.21,251.38c-23.818,0-35.863-.823-39.489-1.6-.785-1.553-6.316-12.176-7.839-33.984-1.015-14.53-3.326-29.186-3.615-52.736-.415-33.857-2.362-67.066-2.2-76.85,7.011-1.175,31.786-2.125,64.823-2.125,32.617,0,51.619,1.075,58.32,2.21.791,9.961,4.956,43.832,5.519,80.608.769,50.235,9.671,72.986,8.616,79.713-8.21,1.6-47.352,4.766-84.13,4.766Z" transform="translate(-37.882 -20.281)" fill="#fff"/>
              <path id="Path_900792" data-name="Path 900792" d="M210.029,250.621c-8.069,0-16.141-.075-24.205-.378-4.345-.163-8.718-.334-13.037-.87-.543-.068-1.1-.212-1.647-.246a2.125,2.125,0,0,0-.308-.059c-.2.023.2.351.144.127a2.378,2.378,0,0,0-.208-.414c-.548-1.109-1.04-2.245-1.491-3.4a84.192,84.192,0,0,1-4.3-15.807c-1.356-7.5-1.725-15.093-2.433-22.667-.65-6.931-1.367-13.856-1.882-20.8-.656-8.869-.917-17.739-1.052-26.63-.148-9.739-.414-19.475-.738-29.209-.463-13.905-1.286-27.822-1.416-41.737-.008-.841-.009-1.682,0-2.522q-.208.272-.415.546a133.194,133.194,0,0,1,15.647-1.211c9.421-.43,18.854-.634,28.284-.76,20.89-.28,41.835-.34,62.706.687a139.481,139.481,0,0,1,16.2,1.369l-.415-.546c.725,9.064,1.785,18.1,2.578,27.161,1.325,15.114,2.321,30.261,2.761,45.428.235,8.1.3,16.192.74,24.282q.547,10.05,1.638,20.061c1.039,9.42,2.515,18.774,4.278,28.083.552,2.92,1.14,5.834,1.636,8.765a28.947,28.947,0,0,1,.586,5.551c-.008.272-.036.657-.063.838l.4-.4c-2.7.519-5.448.8-8.177,1.084-4.592.486-9.194.877-13.8,1.229q-19.034,1.456-38.126,2.034-11.94.379-23.888.4a.566.566,0,0,0,0,1.131c14.017,0,28.034-.43,42.031-1.159,10.9-.567,21.8-1.276,32.651-2.385,3.2-.328,6.442-.633,9.608-1.242a.546.546,0,0,0,.4-.4,17.078,17.078,0,0,0-.2-4.889c-.366-2.622-.886-5.223-1.383-7.823-1.666-8.711-3.188-17.44-4.281-26.243a399.96,399.96,0,0,1-2.758-42.252c-.278-15.715-1.2-31.415-2.49-47.076-.834-10.1-1.919-20.17-2.84-30.259q-.088-.964-.166-1.929a.579.579,0,0,0-.416-.546,125.913,125.913,0,0,0-13.766-1.265c-8.524-.481-17.064-.7-25.6-.827-21.879-.338-43.807-.25-65.673.649-6.108.251-12.359.357-18.4,1.358a.568.568,0,0,0-.415.546c-.078,4.884.153,9.78.327,14.66.281,7.909.6,15.817.882,23.726.343,9.671.64,19.344.833,29.019.189,9.487.269,18.965.867,28.439.461,7.309,1.167,14.6,1.871,21.885.7,7.263,1.047,14.58,2.078,21.806a94.191,94.191,0,0,0,4.308,18.281c.547,1.538,1.15,3.059,1.833,4.542.384.836.58,1.675,1.556,1.853a82.109,82.109,0,0,0,10.408.946c7.145.374,14.3.5,21.458.552q3.641.028,7.283.027a.566.566,0,0,0,0-1.131" transform="translate(-37.701 -20.087)" fill="#421b36"/>
              <path id="Path_900793" data-name="Path 900793" d="M198.1,86.259s-4.645-11.054-1.414-13.564,65.252-2.908,65.449.424-.292,12.274-1.217,12.6c-4.76,1.653-62.818.545-62.818.545" transform="translate(-47.163 -17.056)" fill="#ab8d86"/>
              <path id="Path_900794" data-name="Path 900794" d="M217.016,71.919s-1.715-13.634-2.069-16.928c-.4-3.752,36.751-3.552,37.082-.316.445,4.35-.71,17.245-.71,17.245Z" transform="translate(-51.843 -12.593)" fill="#7a6460"/>
              <path id="Path_900795" data-name="Path 900795" d="M209.606,71.542a292.11,292.11,0,0,1,40.425-.848c.728.035.725-1.1,0-1.131a292.11,292.11,0,0,0-40.425.848c-.719.065-.726,1.2,0,1.131" transform="translate(-50.425 -16.696)" fill="#cbe7e8"/>
              <path id="Path_900796" data-name="Path 900796" d="M192.909,106.134s-.055,5.785,2,6.733,74.615,1.654,74.615,0,1.735-6.319,0-6.733-72.564-1.9-76.611,0" transform="translate(-46.528 -25.371)" fill="#98d1d1"/>
              <path id="Path_900797" data-name="Path 900797" d="M253.742,174.993c0,12.365-9.381,18.327-20.953,18.327s-20.953-5.963-20.953-18.327,9.381-22.389,20.953-22.389,20.953,10.024,20.953,22.389" transform="translate(-51.093 -36.807)" fill="#ffc94a"/>
              <path id="Path_900798" data-name="Path 900798" d="M243.713,166.994a1.069,1.069,0,0,1,.324.631.891.891,0,0,1-.147.488,1.522,1.522,0,0,1-.354.387.717.717,0,0,1-.443.158.9.9,0,0,1-.37-.087,1.161,1.161,0,0,1-.34-.229,6.334,6.334,0,0,0-2.009-1.42,5.732,5.732,0,0,0-2.216-.417,6.123,6.123,0,0,0-2.407.445,3.887,3.887,0,0,0-1.625,1.2,2.8,2.8,0,0,0-.576,1.736,2.585,2.585,0,0,0,.428,1.434,4.274,4.274,0,0,0,1.447,1.262,16.319,16.319,0,0,0,2.822,1.235,13.064,13.064,0,0,1,3.339,1.549,6.323,6.323,0,0,1,1.92,1.936,4.456,4.456,0,0,1,.62,2.31,5.136,5.136,0,0,1-.857,2.955,5.526,5.526,0,0,1-2.437,1.951,9.391,9.391,0,0,1-3.767.688,10.57,10.57,0,0,1-2.51-.287,9.2,9.2,0,0,1-2.113-.775,7.4,7.4,0,0,1-1.61-1.119,1.435,1.435,0,0,1-.28-.372.8.8,0,0,1,.03-.833,1.262,1.262,0,0,1,.34-.344.76.76,0,0,1,.443-.143,1.081,1.081,0,0,1,.472.1,1.921,1.921,0,0,1,.473.359,4.311,4.311,0,0,0,1.182.76,9.292,9.292,0,0,0,1.683.588,7.384,7.384,0,0,0,1.8.23,6.634,6.634,0,0,0,3.766-.947,2.985,2.985,0,0,0,1.4-2.611,3.048,3.048,0,0,0-.458-1.65,4.309,4.309,0,0,0-1.566-1.362,19.483,19.483,0,0,0-3.058-1.32,15.6,15.6,0,0,1-3.131-1.492,5.689,5.689,0,0,1-1.832-1.779,4.121,4.121,0,0,1-.591-2.181,4.53,4.53,0,0,1,.872-2.725,5.958,5.958,0,0,1,2.393-1.908,8.108,8.108,0,0,1,3.441-.7,8.474,8.474,0,0,1,2.128.258,6.62,6.62,0,0,1,1.861.789,6.993,6.993,0,0,1,1.508,1.247m-6.441-4.217a1.2,1.2,0,0,1,.133-.6.867.867,0,0,1,.354-.344,1.045,1.045,0,0,1,.488-.115.934.934,0,0,1,.679.259,1.074,1.074,0,0,1,.266.8q-.031,1.751-.163,4.174t-.324,5.179q-.193,2.753-.37,5.536t-.31,5.308q-.133,2.525-.133,4.447a1,1,0,0,1-.266.746.9.9,0,0,1-.65.258.976.976,0,0,1-.709-.258.992.992,0,0,1-.266-.746q0-1.922.133-4.447t.31-5.308q.178-2.782.354-5.536t.31-5.179q.132-2.423.162-4.174" transform="translate(-55.583 -39.005)" fill="#421b36"/>
              <path id="Path_900799" data-name="Path 900799" d="M228.815,144.514a22.279,22.279,0,0,1,5.683.741c.967-3.043,2.119-6.4,3.07-9.1a32.6,32.6,0,0,0-8.754-1.236c-15.921,0-29.315,11.46-33.456,27.085l10.032,2.039c2.861-11.264,12.262-19.531,23.424-19.531" transform="translate(-47.119 -32.542)" fill="#98d1d1"/>
              <path id="Path_900800" data-name="Path 900800" d="M265.987,170.081c3.356-.557,7.247-1.2,10.28-1.7-1.675-15.491-10.594-27.57-24.434-31.292-.854,2.624-1.939,6.023-2.987,9.116,9.484,3.192,16.5,12.582,17.141,23.874" transform="translate(-60.02 -33.065)" fill="#008d8e"/>
              <path id="Path_900801" data-name="Path 900801" d="M263.108,179.166l-10.4,1.8c-.079,14.661-11.589,21.615-24.977,21.615-13.433,0-23.667-7-23.667-21.764a29.525,29.525,0,0,1,.36-4.559c-4.334-.757-9.909-1.688-9.95-1.653-.889.73-.889,7.149-.889,7.149,0,20.58,14.044,28.709,33.265,28.709s36.342-8.129,36.342-28.709q0-1.306-.083-2.59" transform="translate(-46.691 -42.114)" fill="#fd9826"/>
              <path id="Path_900803" data-name="Path 900803" d="M279.1,147.5l11.013-5.927c.642-.345.071-1.323-.571-.977l-11.014,5.927c-.641.345-.071,1.323.571.977" transform="translate(-67.111 -33.893)" fill="#421b36"/>
              <path id="Path_900804" data-name="Path 900804" d="M297.831,137.728c1.185-.625,2.468-1.4,2.808-2.8a2.11,2.11,0,0,0-1.553-2.689,1.708,1.708,0,0,0-1.98,2.123,4.258,4.258,0,0,0,2.461,2.6,6.1,6.1,0,0,0,7.076-1.2,2.652,2.652,0,0,0,.25-3.412,2.071,2.071,0,0,0-3-.075,2.733,2.733,0,0,0,.22,3.874c1.269,1.236,3.122,1.295,4.784,1.273a.566.566,0,0,0,0-1.131c-1.559.019-4.563-.045-4.588-2.273-.008-.726.761-1.568,1.516-1.117s.452,1.521.015,2.062a4.753,4.753,0,0,1-4.479,1.408,5.043,5.043,0,0,1-2.117-.917c-.431-.327-1.663-1.541-.807-2.054a.809.809,0,0,1,.86.158,1.151,1.151,0,0,1,.2,1.235c-.332,1-1.378,1.506-2.242,1.962-.644.34-.073,1.317.571.977" transform="translate(-71.629 -31.757)" fill="#421b36"/>
              <path id="Path_900805" data-name="Path 900805" d="M276.73,151.712c-1.519.908-2.855-.083-3.763-1.6s-1.042-2.992.477-3.9a3.2,3.2,0,1,1,3.286,5.5" transform="translate(-65.675 -35.156)" fill="#421b36"/>
              <path id="Path_900806" data-name="Path 900806" d="M175.564,135.839h13.065a.566.566,0,0,0,0-1.131H175.564a.566.566,0,0,0,0,1.131" transform="translate(-42.213 -32.491)" fill="#421b36"/>
              <path id="Path_900807" data-name="Path 900807" d="M175.564,130.2h13.065a.566.566,0,0,0,0-1.131H175.564a.566.566,0,0,0,0,1.131" transform="translate(-42.213 -31.131)" fill="#421b36"/>
              <path id="Path_900808" data-name="Path 900808" d="M198.675,138.407l13.059,9.728c.584.435,1.149-.546.571-.977l-13.058-9.728c-.584-.435-1.15.546-.571.977" transform="translate(-47.861 -33.121)" fill="#421b36"/>
              <path id="Path_900809" data-name="Path 900809" d="M176.879,236.778s-1.8,41.577,3.9,42.958c2.937.711,105.674-1.774,106.854-2.424,3.333-1.836,1.658-41.648-.976-43.023-1.658-.866-109.682-.116-109.774,2.49" transform="translate(-42.597 -56.426)" fill="#fff"/>
              <path id="Path_900810" data-name="Path 900810" d="M181.871,231.921s-.345,6.337.244,6.432,27.985-.484,28.33-.589c.28-.085-.128-6.359-.478-6.49-.657-.246-27.909.359-28.1.647" transform="translate(-43.842 -55.768)" fill="#98d1d1"/>
              <path id="Path_900811" data-name="Path 900811" d="M182.236,255.734s-.36,16.367.372,16.376c1.228.014,9.264-.21,9.264-.21s-.286-16.2-.372-16.376c-.066-.134-9.264.21-9.264.21" transform="translate(-43.933 -61.623)" fill="#008d8e"/>
              <path id="Path_900812" data-name="Path 900812" d="M197.322,249.013s-.251,21.149.48,21.165c1.229.026,9.264-.21,9.264-.21s-.393-20.943-.48-21.165c-.068-.173-9.264.209-9.264.209" transform="translate(-47.583 -59.999)" fill="#008d8e"/>
              <path id="Path_900813" data-name="Path 900813" d="M227.178,252.6s-.335,17.421.4,17.431c1.229.017,9.264-.21,9.264-.21s-.31-17.249-.4-17.431c-.067-.142-9.264.21-9.264.21" transform="translate(-54.775 -60.868)" fill="#008d8e"/>
              <path id="Path_900814" data-name="Path 900814" d="M212.863,265.138s-.545,8.192.186,8.188c1.228-.007,9.264-.209,9.264-.209s-.1-8.1-.185-8.188c-.065-.066-9.264.21-9.264.21" transform="translate(-51.294 -63.896)" fill="#008d8e"/>
              <path id="Path_900815" data-name="Path 900815" d="M243.276,247.971s-.251,21.149.48,21.165c1.229.026,9.264-.21,9.264-.21s-.393-20.943-.48-21.165c-.068-.172-9.264.21-9.264.21" transform="translate(-58.666 -59.748)" fill="#008d8e"/>
              <path id="Path_900816" data-name="Path 900816" d="M273.132,251.562s-.335,17.421.4,17.431c1.228.017,9.264-.21,9.264-.21s-.31-17.249-.4-17.431c-.067-.142-9.264.21-9.264.21" transform="translate(-65.859 -60.616)" fill="#008d8e"/>
              <path id="Path_900817" data-name="Path 900817" d="M289.132,247.123s-.274,20.152.458,20.166c1.229.024,9.264-.21,9.264-.21s-.371-19.955-.457-20.166c-.068-.165-9.264.21-9.264.21" transform="translate(-69.725 -59.544)" fill="#008d8e"/>
              <path id="Path_900818" data-name="Path 900818" d="M258.816,264.1s-.545,8.192.186,8.188c1.228-.007,9.263-.21,9.263-.21s-.1-8.1-.185-8.188c-.065-.066-9.264.21-9.264.21" transform="translate(-62.378 -63.645)" fill="#008d8e"/>
              <path id="Path_900819" data-name="Path 900819" d="M304.889,263.051s-.545,8.192.186,8.188c1.228-.007,9.263-.21,9.263-.21s-.1-8.1-.185-8.187c-.065-.066-9.264.21-9.264.21" transform="translate(-73.49 -63.393)" fill="#008d8e"/>
              <path id="Path_900820" data-name="Path 900820" d="M182.277,284.433l14.542-.332,22.864-.521,25.862-.589q11.769-.267,23.538-.536,7.946-.181,15.891-.363l1.2-.027a.512.512,0,0,0-.023-1.024l-14.543.332-22.863.521-25.862.589-23.538.536-15.892.363-1.2.027a.512.512,0,0,0,.024,1.024" transform="translate(-43.842 -67.785)" fill="#421b36"/>
              <path id="Path_900821" data-name="Path 900821" d="M183.734,289.948,194.7,289.7a.512.512,0,0,0-.023-1.024l-10.97.252a.512.512,0,0,0,.024,1.024" transform="translate(-44.193 -69.626)" fill="#421b36"/>
              <path id="Path_900822" data-name="Path 900822" d="M276.7,287.712l28.308-.65a.512.512,0,0,0-.024-1.024l-28.308.65a.512.512,0,0,0,.023,1.024" transform="translate(-66.616 -68.991)" fill="#421b36"/>
              <path id="Path_900823" data-name="Path 900823" d="M202.663,289.216q21.583-.5,43.166-.985l9.089-.208A.512.512,0,0,0,254.9,287q-21.583.5-43.166.985l-9.09.208a.512.512,0,0,0,.024,1.024" transform="translate(-48.759 -69.222)" fill="#421b36"/>
              <path id="Path_900824" data-name="Path 900824" d="M229.225,61.413c0,1.122-.91,1.6-2.032,1.6s-2.032-.473-2.032-1.6a2.032,2.032,0,1,1,4.064,0" transform="translate(-54.307 -14.322)" fill="#008d8e"/>
              <path id="Path_900825" data-name="Path 900825" d="M252.84,60.857c0,1.122-.91,1.6-2.032,1.6s-2.032-.473-2.032-1.6a2.032,2.032,0,0,1,4.064,0" transform="translate(-60.003 -14.188)" fill="#008d8e"/>
            </g>
          </g>
          <rect id="Rectangle_404707" data-name="Rectangle 404707" width="74.832" height="11.693" transform="translate(210.033 294.699)" fill="#fd9826"/>
          <g id="Group_1112013" data-name="Group 1112013">
            <g id="Group_1112012" data-name="Group 1112012" clip-path="url(#clip-path)">
              <path id="Path_900826" data-name="Path 900826" d="M351.626,400.757c0,3.682-16.751,6.666-37.416,6.666s-37.416-2.984-37.416-6.666,16.751-6.666,37.416-6.666,37.416,2.984,37.416,6.666" transform="translate(-66.761 -95.052)" fill="#fd9826"/>
              <path id="Path_900827" data-name="Path 900827" d="M351.626,386.253c0,3.682-16.751,6.666-37.416,6.666s-37.416-2.984-37.416-6.666,16.751-6.666,37.416-6.666,37.416,2.984,37.416,6.666" transform="translate(-66.761 -91.554)" fill="#fef4e8"/>
              <path id="Path_900828" data-name="Path 900828" d="M281.14,392.07a26.609,26.609,0,0,0-.345,9.986c.11.717,1.2.413,1.091-.3a25.119,25.119,0,0,1,.345-9.385c.162-.709-.929-1.012-1.091-.3" transform="translate(-67.65 -94.467)" fill="#421b36"/>
              <path id="Path_900829" data-name="Path 900829" d="M290.22,395.293q-.035,4.817-.071,9.633a.566.566,0,0,0,1.131,0q.035-4.817.071-9.633a.566.566,0,0,0-1.131,0" transform="translate(-69.982 -95.21)" fill="#421b36"/>
              <path id="Path_900830" data-name="Path 900830" d="M303.268,397.259a83.264,83.264,0,0,0-.156,9.914c.032.725,1.163.729,1.131,0a83.29,83.29,0,0,1,.156-9.914c.055-.726-1.077-.723-1.131,0" transform="translate(-73.089 -95.685)" fill="#421b36"/>
              <path id="Path_900831" data-name="Path 900831" d="M317.365,397.618q.155,5.02.311,10.039c.022.726,1.154.729,1.131,0q-.156-5.019-.311-10.039c-.022-.726-1.154-.73-1.131,0" transform="translate(-76.546 -95.771)" fill="#421b36"/>
              <path id="Path_900832" data-name="Path 900832" d="M330.195,398.134a47.407,47.407,0,0,1,.7,9.337.566.566,0,0,0,1.131,0,48.954,48.954,0,0,0-.735-9.638c-.126-.716-1.216-.413-1.091.3" transform="translate(-79.638 -95.856)" fill="#421b36"/>
              <path id="Path_900833" data-name="Path 900833" d="M342.924,397.094q.332,4.743.663,9.487c.051.722,1.183.728,1.132,0q-.332-4.743-.664-9.487c-.05-.722-1.182-.728-1.131,0" transform="translate(-82.711 -95.645)" fill="#421b36"/>
              <path id="Path_900834" data-name="Path 900834" d="M354.869,396.343a68.245,68.245,0,0,1,.885,9.612.566.566,0,0,0,1.132,0,70.34,70.34,0,0,0-.926-9.912c-.118-.717-1.209-.413-1.091.3" transform="translate(-85.59 -95.424)" fill="#421b36"/>
              <path id="Path_900835" data-name="Path 900835" d="M366.941,394.575a80.743,80.743,0,0,1,.005,8.688c-.039.728,1.093.726,1.132,0a80.751,80.751,0,0,0-.006-8.688c-.039-.724-1.171-.729-1.131,0" transform="translate(-88.503 -95.037)" fill="#421b36"/>
              <path id="Path_900836" data-name="Path 900836" d="M276.048,399.595c.045,1.408,1.48,2.264,2.6,2.807a30.686,30.686,0,0,0,7.359,2.187,138.967,138.967,0,0,0,25.167,2.219,167.789,167.789,0,0,0,27.039-1.559,52.856,52.856,0,0,0,9.01-1.98c1.485-.5,3.432-1.14,4.375-2.5.812-1.169.41-3.2.41-4.512v-6.443a.566.566,0,0,0-1.131,0v8.291a10.006,10.006,0,0,1,0,1.486c-.189,1.2-1.975,1.839-2.944,2.219a40,40,0,0,1-7.6,1.949,147.191,147.191,0,0,1-24.545,1.924,164.5,164.5,0,0,1-25.648-1.53,51.729,51.729,0,0,1-9.2-2.045c-.983-.338-3.716-1.135-3.761-2.518-.023-.726-1.155-.73-1.131,0" transform="translate(-66.581 -93.89)" fill="#421b36"/>
              <path id="Path_900837" data-name="Path 900837" d="M350.88,388.2c-.028.862-1.257,1.438-1.9,1.76a24.137,24.137,0,0,1-5.272,1.719,103.887,103.887,0,0,1-17.256,2.245,200.813,200.813,0,0,1-22.232.145,120.515,120.515,0,0,1-18.18-2.021,32.244,32.244,0,0,1-6.36-1.81c-.769-.332-2.466-1-2.5-2.037-.023-.726-1.155-.73-1.131,0,.088,2.7,4.742,3.722,6.69,4.242a94.4,94.4,0,0,0,17.888,2.55,199.237,199.237,0,0,0,24.026.168,112.558,112.558,0,0,0,18.979-2.3,24.876,24.876,0,0,0,6.124-2.027c1.02-.539,2.214-1.356,2.255-2.631.023-.728-1.108-.728-1.131,0" transform="translate(-66.581 -93.499)" fill="#421b36"/>
              <rect id="Rectangle_404708" data-name="Rectangle 404708" width="74.832" height="11.693" transform="translate(207.746 280.745)" fill="#fd9826"/>
              <path id="Path_900838" data-name="Path 900838" d="M348.612,382.367c0,3.682-16.751,6.666-37.416,6.666s-37.416-2.984-37.416-6.666S290.531,375.7,311.2,375.7s37.416,2.984,37.416,6.666" transform="translate(-66.034 -90.617)" fill="#fd9826"/>
              <path id="Path_900839" data-name="Path 900839" d="M348.612,367.863c0,3.682-16.751,6.666-37.416,6.666s-37.416-2.984-37.416-6.666S290.531,361.2,311.2,361.2s37.416,2.984,37.416,6.666" transform="translate(-66.034 -87.118)" fill="#feead2"/>
              <path id="Path_900840" data-name="Path 900840" d="M278.126,373.681a26.609,26.609,0,0,0-.345,9.986c.11.718,1.2.413,1.091-.3a25.1,25.1,0,0,1,.345-9.385c.162-.709-.929-1.012-1.091-.3" transform="translate(-66.923 -90.032)" fill="#421b36"/>
              <path id="Path_900841" data-name="Path 900841" d="M287.206,376.9q-.035,4.817-.071,9.633a.566.566,0,0,0,1.131,0q.035-4.817.071-9.633a.566.566,0,0,0-1.131,0" transform="translate(-69.255 -90.775)" fill="#421b36"/>
              <path id="Path_900842" data-name="Path 900842" d="M300.254,378.869a83.277,83.277,0,0,0-.156,9.914c.032.725,1.163.729,1.131,0a83.264,83.264,0,0,1,.156-9.914c.055-.726-1.077-.723-1.131,0" transform="translate(-72.362 -91.25)" fill="#421b36"/>
              <path id="Path_900843" data-name="Path 900843" d="M314.351,379.228q.156,5.019.311,10.039c.022.726,1.154.729,1.131,0q-.156-5.019-.311-10.039c-.022-.726-1.154-.73-1.131,0" transform="translate(-75.819 -91.336)" fill="#421b36"/>
              <path id="Path_900844" data-name="Path 900844" d="M327.181,379.745a47.464,47.464,0,0,1,.7,9.337.566.566,0,0,0,1.131,0,48.947,48.947,0,0,0-.735-9.638c-.126-.716-1.216-.413-1.091.3" transform="translate(-78.911 -91.421)" fill="#421b36"/>
              <path id="Path_900845" data-name="Path 900845" d="M339.91,378.7q.332,4.743.664,9.487c.05.722,1.182.728,1.131,0q-.332-4.743-.664-9.487c-.05-.722-1.182-.728-1.131,0" transform="translate(-81.984 -91.21)" fill="#421b36"/>
              <path id="Path_900846" data-name="Path 900846" d="M351.855,377.953a68.354,68.354,0,0,1,.885,9.612.566.566,0,0,0,1.131,0,70.344,70.344,0,0,0-.926-9.912c-.118-.717-1.209-.413-1.091.3" transform="translate(-84.863 -90.989)" fill="#421b36"/>
              <path id="Path_900847" data-name="Path 900847" d="M363.927,376.185a80.752,80.752,0,0,1,.005,8.688c-.039.728,1.093.726,1.131,0a80.744,80.744,0,0,0-.005-8.688c-.039-.724-1.171-.729-1.131,0" transform="translate(-87.777 -90.602)" fill="#421b36"/>
              <path id="Path_900848" data-name="Path 900848" d="M273.034,381.2c.046,1.408,1.48,2.264,2.6,2.807A30.692,30.692,0,0,0,283,386.2a138.915,138.915,0,0,0,25.167,2.219,167.8,167.8,0,0,0,27.039-1.559,52.86,52.86,0,0,0,9.01-1.98c1.485-.5,3.432-1.14,4.375-2.5.811-1.169.41-3.2.41-4.511v-6.443a.566.566,0,0,0-1.131,0v8.291a10.018,10.018,0,0,1,0,1.486c-.189,1.2-1.975,1.839-2.944,2.219a40,40,0,0,1-7.6,1.949,147.2,147.2,0,0,1-24.545,1.924,164.5,164.5,0,0,1-25.648-1.53,51.722,51.722,0,0,1-9.2-2.045c-.983-.338-3.716-1.135-3.761-2.518-.023-.726-1.155-.73-1.131,0" transform="translate(-65.854 -89.454)" fill="#421b36"/>
              <path id="Path_900849" data-name="Path 900849" d="M347.866,369.808c-.028.862-1.257,1.438-1.9,1.76a24.121,24.121,0,0,1-5.272,1.719,103.88,103.88,0,0,1-17.256,2.245,200.813,200.813,0,0,1-22.232.145,120.527,120.527,0,0,1-18.179-2.021,32.247,32.247,0,0,1-6.36-1.81c-.769-.332-2.466-1-2.5-2.037-.023-.726-1.155-.73-1.131,0,.088,2.7,4.743,3.722,6.69,4.242a94.456,94.456,0,0,0,17.888,2.55,199.218,199.218,0,0,0,24.026.168,112.533,112.533,0,0,0,18.979-2.3,24.876,24.876,0,0,0,6.124-2.027c1.02-.539,2.214-1.356,2.255-2.631.024-.728-1.108-.728-1.131,0" transform="translate(-65.854 -89.064)" fill="#421b36"/>
              <rect id="Rectangle_404709" data-name="Rectangle 404709" width="74.832" height="11.693" transform="translate(215.787 266.485)" fill="#fd9826"/>
              <path id="Path_900850" data-name="Path 900850" d="M359.209,363.575c0,3.682-16.751,6.666-37.416,6.666s-37.416-2.984-37.416-6.666,16.751-6.666,37.416-6.666,37.416,2.984,37.416,6.666" transform="translate(-68.59 -86.084)" fill="#fd9826"/>
              <path id="Path_900851" data-name="Path 900851" d="M359.209,349.071c0,3.682-16.751,6.666-37.416,6.666s-37.416-2.984-37.416-6.666,16.751-6.666,37.416-6.666,37.416,2.984,37.416,6.666" transform="translate(-68.59 -82.586)" fill="#feead2"/>
              <path id="Path_900852" data-name="Path 900852" d="M288.722,354.889a26.609,26.609,0,0,0-.345,9.986c.11.717,1.2.413,1.091-.3a25.1,25.1,0,0,1,.345-9.385c.162-.709-.929-1.012-1.091-.3" transform="translate(-69.478 -85.499)" fill="#421b36"/>
              <path id="Path_900853" data-name="Path 900853" d="M297.8,358.111q-.035,4.817-.071,9.633a.566.566,0,0,0,1.131,0q.035-4.817.071-9.633a.566.566,0,0,0-1.131,0" transform="translate(-71.811 -86.242)" fill="#421b36"/>
              <path id="Path_900854" data-name="Path 900854" d="M310.85,360.077a83.27,83.27,0,0,0-.156,9.914c.032.725,1.163.729,1.131,0a83.283,83.283,0,0,1,.156-9.914c.055-.726-1.077-.723-1.131,0" transform="translate(-74.918 -86.717)" fill="#421b36"/>
              <path id="Path_900855" data-name="Path 900855" d="M324.948,360.436q.156,5.019.311,10.039c.022.726,1.154.729,1.131,0q-.156-5.02-.311-10.039c-.022-.726-1.154-.73-1.131,0" transform="translate(-78.375 -86.803)" fill="#421b36"/>
              <path id="Path_900856" data-name="Path 900856" d="M337.778,360.953a47.469,47.469,0,0,1,.7,9.337.566.566,0,0,0,1.131,0,48.952,48.952,0,0,0-.735-9.638c-.126-.716-1.216-.413-1.091.3" transform="translate(-81.467 -86.888)" fill="#421b36"/>
              <path id="Path_900857" data-name="Path 900857" d="M350.507,359.912q.331,4.743.663,9.487c.051.722,1.183.728,1.132,0q-.332-4.743-.664-9.487c-.05-.722-1.182-.728-1.131,0" transform="translate(-84.54 -86.677)" fill="#421b36"/>
              <path id="Path_900858" data-name="Path 900858" d="M362.451,359.161a68.239,68.239,0,0,1,.885,9.612.566.566,0,0,0,1.132,0,70.339,70.339,0,0,0-.926-9.912c-.118-.717-1.209-.413-1.091.3" transform="translate(-87.419 -86.456)" fill="#421b36"/>
              <path id="Path_900859" data-name="Path 900859" d="M374.523,357.393a80.743,80.743,0,0,1,.005,8.688c-.039.728,1.093.726,1.132,0a80.751,80.751,0,0,0-.006-8.688c-.039-.724-1.171-.729-1.131,0" transform="translate(-90.332 -86.069)" fill="#421b36"/>
              <path id="Path_900860" data-name="Path 900860" d="M283.631,362.413c.046,1.408,1.48,2.264,2.605,2.807a30.691,30.691,0,0,0,7.358,2.187,138.987,138.987,0,0,0,25.167,2.219,167.793,167.793,0,0,0,27.039-1.559,52.857,52.857,0,0,0,9.01-1.98c1.485-.5,3.432-1.141,4.375-2.5.811-1.169.41-3.2.41-4.512v-6.443a.566.566,0,0,0-1.131,0v8.291a10.01,10.01,0,0,1,0,1.486c-.19,1.2-1.975,1.839-2.944,2.219a40,40,0,0,1-7.6,1.949,147.187,147.187,0,0,1-24.545,1.924,164.492,164.492,0,0,1-25.648-1.53,51.721,51.721,0,0,1-9.2-2.045c-.983-.338-3.717-1.135-3.761-2.518-.024-.726-1.155-.73-1.131,0" transform="translate(-68.41 -84.922)" fill="#421b36"/>
              <path id="Path_900861" data-name="Path 900861" d="M358.463,351.016c-.028.862-1.257,1.438-1.9,1.76a24.122,24.122,0,0,1-5.272,1.719,103.885,103.885,0,0,1-17.256,2.245,200.848,200.848,0,0,1-22.232.145,120.53,120.53,0,0,1-18.179-2.021,32.244,32.244,0,0,1-6.36-1.81c-.769-.332-2.466-1-2.5-2.037-.024-.726-1.156-.73-1.132,0,.088,2.7,4.743,3.722,6.69,4.242a94.452,94.452,0,0,0,17.888,2.55,199.231,199.231,0,0,0,24.026.168,112.524,112.524,0,0,0,18.979-2.3,24.877,24.877,0,0,0,6.124-2.027c1.02-.539,2.214-1.356,2.255-2.631.024-.729-1.108-.728-1.131,0" transform="translate(-68.41 -84.531)" fill="#421b36"/>
              <path id="Path_900862" data-name="Path 900862" d="M303.7,350.637a6.647,6.647,0,0,1-1.035.01,1.9,1.9,0,0,1-.6-.13c-.136-.062-.206-.137-.213-.222-.008-.134.132-.254.421-.361a5.39,5.39,0,0,1,1.366-.225q3-.2,7.148-.428t8.87-.472q4.719-.241,9.487-.495t9.091-.495q4.325-.241,7.613-.476a4.82,4.82,0,0,1,1.285.039c.3.065.454.159.462.282.009.143-.13.268-.42.375a4.872,4.872,0,0,1-1.269.219q-3.287.233-7.612.476t-9.092.494q-4.768.254-9.486.5t-8.871.479q-4.151.231-7.148.428m7.014-3.626a4.737,4.737,0,0,1,1.07-.234,4.572,4.572,0,0,1,.839.013,3.86,3.86,0,0,1,.675.125c.185.052.279.118.284.193,0,.058-.041.121-.135.19a1.615,1.615,0,0,1-.382.19,9.035,9.035,0,0,0-2.366,1.145,1.355,1.355,0,0,0-.643,1.122,1.417,1.417,0,0,0,.837,1.111,5.961,5.961,0,0,0,2.113.639,14.264,14.264,0,0,0,2.988.068,13.577,13.577,0,0,0,2.44-.382,8.633,8.633,0,0,0,2.114-.853,10.934,10.934,0,0,0,2.023-1.515,9.616,9.616,0,0,1,2.545-1.8,15.254,15.254,0,0,1,3.254-1.163,24.076,24.076,0,0,1,3.931-.582,27.31,27.31,0,0,1,5.084.055,9.5,9.5,0,0,1,3.415.944,2.163,2.163,0,0,1,1.3,1.738,1.84,1.84,0,0,1-.412,1.248,4.628,4.628,0,0,1-1.259,1.116,10.5,10.5,0,0,1-1.864.915,4.689,4.689,0,0,1-.628.181,4.288,4.288,0,0,1-.636.1,4.347,4.347,0,0,1-.789-.008,3.153,3.153,0,0,1-.6-.123c-.168-.056-.254-.121-.26-.2A.283.283,0,0,1,335.8,351a3.017,3.017,0,0,1,.6-.272,5.49,5.49,0,0,0,1.263-.664,4.362,4.362,0,0,0,.954-.886,1.335,1.335,0,0,0,.336-.9q-.075-1.144-1.739-1.707a11.851,11.851,0,0,0-4.511-.36,16.525,16.525,0,0,0-2.809.42,8.631,8.631,0,0,0-2.282.924,12.817,12.817,0,0,0-2.162,1.639,12.139,12.139,0,0,1-2.454,1.7,13.241,13.241,0,0,1-2.986,1.1,22.191,22.191,0,0,1-3.712.552,23.431,23.431,0,0,1-4.692-.091,10.2,10.2,0,0,1-3.339-.927q-1.251-.649-1.311-1.579a1.521,1.521,0,0,1,.375-1.059,4.2,4.2,0,0,1,1.291-1,12.977,12.977,0,0,1,2.087-.879" transform="translate(-72.804 -83.257)" fill="#fd9826"/>
              <path id="Path_900863" data-name="Path 900863" d="M329.124,332.064c-20.3,7.838-40.623,4.973-45.394-6.4-.3-.711-3.155-6.265-3.321-7.005-2.474-11.11,12.407-20.432,31.438-27.78,20.3-7.838,35.772-10.674,42.747-.5,1.9,2.764,3.947,7.595,3.655,11.8-.737,10.588-11.615,23.129-29.126,29.891" transform="translate(-67.568 -68.455)" fill="#fd9826"/>
              <path id="Path_900864" data-name="Path 900864" d="M326.456,323.805c-20.3,7.839-40.623,4.973-45.394-6.4s7.818-26.947,28.118-34.785,40.623-4.973,45.394,6.4-7.818,26.947-28.118,34.785" transform="translate(-67.547 -69.741)" fill="#feead2"/>
              <path id="Path_900865" data-name="Path 900865" d="M304.026,328.519c-11.39,0-20.5-3.876-23.524-11.076-1.541-3.672-1.366-7.935.5-12.328,3.865-9.075,14.543-17.909,27.867-23.054,20.492-7.912,41.117-4.931,45.974,6.648,1.541,3.672,1.367,7.935-.5,12.328-3.865,9.075-14.542,17.909-27.868,23.055a63.24,63.24,0,0,1-22.45,4.428m27.382-50a62.608,62.608,0,0,0-22.208,4.391c-13.1,5.06-23.588,13.706-27.359,22.565-1.773,4.162-1.947,8.181-.5,11.623,4.668,11.131,24.769,13.892,44.814,6.152,13.1-5.06,23.589-13.706,27.361-22.565,1.773-4.162,1.946-8.181.5-11.623-2.878-6.862-11.626-10.544-22.606-10.544" transform="translate(-67.405 -66.963)" fill="#421b36"/>
              <path id="Path_900866" data-name="Path 900866" d="M306.574,326.389c-10.572,0-19.221-3.635-22.014-10.294-1.307-3.113-1.152-6.744.447-10.5,3.477-8.167,13.314-16.2,25.673-20.976,18.648-7.2,37.277-4.809,41.529,5.327,1.35,3.218,1.151,7.062-.575,11.116-3.675,8.63-13.439,16.881-25.482,21.532a55.057,55.057,0,0,1-19.578,3.8m25.158-45.05A58.573,58.573,0,0,0,311,285.464c-12.137,4.686-21.78,12.536-25.165,20.487a12.429,12.429,0,0,0-.445,9.794c4.23,10.083,22.747,12.831,40.431,6,11.822-4.566,21.392-12.627,24.975-21.041,1.628-3.824,1.826-7.424.573-10.412-2.454-5.848-10.025-8.956-19.642-8.956" transform="translate(-68.422 -67.646)" fill="#fd9826"/>
              <path id="Path_900867" data-name="Path 900867" d="M350.4,341.447a25.805,25.805,0,0,0-.971-2.98,15.682,15.682,0,0,0-1.373-2.882c-.4-.609-1.375-.042-.977.571a14.4,14.4,0,0,1,1.29,2.693,25.808,25.808,0,0,1,.939,2.9.566.566,0,0,0,1.091-.3" transform="translate(-83.692 -80.878)" fill="#421b36"/>
              <path id="Path_900868" data-name="Path 900868" d="M361.649,335.293l-2.818-5.451c-.334-.647-1.311-.075-.977.571l2.817,5.451c.335.647,1.311.075.977-.571" transform="translate(-86.295 -79.487)" fill="#421b36"/>
              <path id="Path_900869" data-name="Path 900869" d="M371.084,327.665a13.328,13.328,0,0,0-3.479-5.394c-.53-.5-1.332.3-.8.8a12.135,12.135,0,0,1,3.188,4.894.579.579,0,0,0,.7.4.571.571,0,0,0,.4-.7" transform="translate(-88.429 -77.692)" fill="#421b36"/>
              <path id="Path_900870" data-name="Path 900870" d="M377.541,318.97a19.883,19.883,0,0,0-3.2-4.741.566.566,0,0,0-.8.8,18.859,18.859,0,0,1,3.021,4.512.572.572,0,0,0,.775.2.579.579,0,0,0,.2-.774" transform="translate(-90.057 -75.751)" fill="#421b36"/>
              <path id="Path_900871" data-name="Path 900871" d="M337.518,346.609l-1.571-5.437a.566.566,0,0,0-1.091.3l1.571,5.437a.566.566,0,0,0,1.091-.3" transform="translate(-80.759 -82.192)" fill="#421b36"/>
              <path id="Path_900872" data-name="Path 900872" d="M310.636,350.16c-.644-2.022-1.157-4.082-1.8-6.1-.222-.691-1.314-.4-1.092.3.644,2.022,1.157,4.082,1.8,6.1.221.691,1.313.4,1.092-.3" transform="translate(-74.219 -82.889)" fill="#421b36"/>
              <path id="Path_900873" data-name="Path 900873" d="M298.443,346.754q-.741-2.266-1.483-4.532a.578.578,0,0,0-.7-.4.571.571,0,0,0-.4.7l1.483,4.532a.578.578,0,0,0,.7.4.572.572,0,0,0,.4-.7" transform="translate(-71.356 -82.442)" fill="#421b36"/>
              <path id="Path_900874" data-name="Path 900874" d="M301.778,314.479a2.678,2.678,0,0,1-1.071.231,1.426,1.426,0,0,1-.756-.23,1.2,1.2,0,0,1-.445-.555,1.167,1.167,0,0,1,.074-1.052,2.291,2.291,0,0,1,1.2-.881q2.924-1.13,7.021-2.579t8.773-3.039q4.676-1.591,9.393-3.221t8.98-3.146q4.265-1.514,7.458-2.8a2.081,2.081,0,0,1,1.377-.154,1.125,1.125,0,0,1,.768.669,1.206,1.206,0,0,1-.06,1.091,2.1,2.1,0,0,1-1.1.842q-3.195,1.284-7.458,2.8t-8.98,3.145l-9.384,3.241q-4.67,1.608-8.766,3.057t-7.02,2.58m3.653-11.159a2.151,2.151,0,0,1,.879-.842,1.937,1.937,0,0,1,.888-.136,2.574,2.574,0,0,1,.829.2.871.871,0,0,1,.492.467,1.047,1.047,0,0,1,.05.536,1.7,1.7,0,0,1-.2.593,9.238,9.238,0,0,0-1.314,3.55,6.506,6.506,0,0,0,.464,3.148,6.916,6.916,0,0,0,1.993,2.82,5.777,5.777,0,0,0,2.848,1.3,5.992,5.992,0,0,0,3.184-.414,5.612,5.612,0,0,0,2.16-1.512,6.787,6.787,0,0,0,1.344-2.72,20.553,20.553,0,0,0,.579-4.478,16.8,16.8,0,0,1,.836-5.359,10.532,10.532,0,0,1,2.216-3.781,9.761,9.761,0,0,1,3.515-2.345,11.163,11.163,0,0,1,5.356-.866,8.438,8.438,0,0,1,4.511,1.853,10.616,10.616,0,0,1,3.106,4.419,11.736,11.736,0,0,1,.832,3.443,11.216,11.216,0,0,1-.187,3.254,10.676,10.676,0,0,1-1.02,2.832,2.572,2.572,0,0,1-.474.612,1.781,1.781,0,0,1-.565.384,1.763,1.763,0,0,1-.833.134,2.132,2.132,0,0,1-.749-.209.922.922,0,0,1-.469-.477,1.216,1.216,0,0,1-.079-.68,2.893,2.893,0,0,1,.349-.851,6.094,6.094,0,0,0,.648-2.04,11.227,11.227,0,0,0,.1-2.574,8.18,8.18,0,0,0-.557-2.487,7.767,7.767,0,0,0-3.535-4.246,5.865,5.865,0,0,0-5.07-.074,6.647,6.647,0,0,0-2.5,1.7,6.819,6.819,0,0,0-1.449,2.939,24.661,24.661,0,0,0-.6,4.841,20.234,20.234,0,0,1-.847,5.053,9.354,9.354,0,0,1-2,3.56,9.027,9.027,0,0,1-3.315,2.223,9.76,9.76,0,0,1-4.982.692,9.1,9.1,0,0,1-4.416-1.825,9.244,9.244,0,0,1-2.96-3.988,9.411,9.411,0,0,1-.678-2.926,8.371,8.371,0,0,1,.341-2.939,10.812,10.812,0,0,1,1.289-2.785" transform="translate(-72.217 -70.774)" fill="#fd9826"/>
              <path id="Path_900875" data-name="Path 900875" d="M320.939,344.045c.678,1.959,1.421,3.895,2.1,5.854a.58.58,0,0,0,.7.4.571.571,0,0,0,.395-.7c-.678-1.959-1.42-3.9-2.1-5.854a.579.579,0,0,0-.7-.4.571.571,0,0,0-.4.7" transform="translate(-77.402 -82.809)" fill="#421b36"/>
              <path id="Path_900876" data-name="Path 900876" d="M378.682,305.145a17.649,17.649,0,0,1,2.179,3.878.583.583,0,0,0,.7.4.571.571,0,0,0,.4-.7,18.676,18.676,0,0,0-2.292-4.148.583.583,0,0,0-.774-.2.57.57,0,0,0-.2.774" transform="translate(-91.316 -73.394)" fill="#421b36"/>
              <path id="Path_900877" data-name="Path 900877" d="M281.139,321.405c1.606,4.341,3.689,8.732,7.28,11.792,2.937,2.5,6.483,3.49,10.136,4.429,6.589,1.694,13.116,1,19.738-.244a71.547,71.547,0,0,0,8.794-2,56.025,56.025,0,0,0,10.042-4.475c9.043-5.052,18.111-12,21.186-22.328a20.964,20.964,0,0,0,.877-9.189,9.541,9.541,0,0,0-1.247-2.849q-1.12-2.109-2.25-4.213c-.344-.642-1.322-.071-.977.571q.895,1.667,1.784,3.337a17.759,17.759,0,0,1,1.5,2.966,15.756,15.756,0,0,1-.187,6.65c-1.993,10.278-10.058,17.222-18.572,22.493a53.025,53.025,0,0,1-16.679,7.011c-7.019,1.523-14.53,3.135-21.7,1.649-3.359-.7-7.059-1.521-9.966-3.368-4.455-2.833-6.9-7.738-8.675-12.535-.251-.678-1.345-.385-1.091.3" transform="translate(-67.8 -70.441)" fill="#421b36"/>
            </g>
          </g>
          <g id="Group_1112024" data-name="Group 1112024">
            <g id="Group_1112023" data-name="Group 1112023" clip-path="url(#clip-path)">
              <path id="Path_900878" data-name="Path 900878" d="M51.283,315.134s-.947,64.683,6.779,73.552c15.822,3,39.928,2.286,66.273.563,10.282-.672,20.905-1.5,31.51-2.315,0,0-29.232-78.993-31.631-79.406s-72.393,4.979-72.932,7.606" transform="translate(-12.36 -74.168)" fill="#d2e1f1"/>
              <path id="Path_900879" data-name="Path 900879" d="M59.5,322.025A53.706,53.706,0,0,0,59,332.2c.068,5.13.362,10.257.733,15.373.794,10.944,1.928,21.889,3.578,32.739a88.535,88.535,0,0,0,2.322,11.846.566.566,0,0,0,1.091-.3,79.344,79.344,0,0,1-2.033-9.994c-.807-5.041-1.457-10.107-2.035-15.179-1.23-10.79-2.214-21.65-2.486-32.511a59.086,59.086,0,0,1,.423-11.846c.128-.712-.962-1.018-1.091-.3" transform="translate(-14.224 -77.572)" fill="#421b36"/>
              <path id="Path_900880" data-name="Path 900880" d="M43.676,151.749c-1.376-1.942-9.755-12.3-13.857-20.789-5.029-10.411-3.983-10.968-1.239-17.833S41.011,98.642,50.34,97.337s19.414,5.815,19.583,10.6.757,18.2.757,18.2" transform="translate(-6.339 -23.439)" fill="#421b36"/>
              <path id="Path_900881" data-name="Path 900881" d="M36.087,113.522c7.1-15.071,28.2-17.119,38.106-3.723,3.132,4.237,5.256,10.229,6.586,18.506,3.711,23.093-15.757,26.652-15.757,26.652l-4.488,12.331-15.055-3.818,1.066-9.558s-11.425-22.228-11.964-33.34a14.794,14.794,0,0,1,1.506-7.051" transform="translate(-8.337 -24.331)" fill="#ffbfbf"/>
              <path id="Path_900882" data-name="Path 900882" d="M81.756,124.182a1.407,1.407,0,1,1-1.678-1.244,1.482,1.482,0,0,1,1.678,1.244" transform="translate(-19.049 -29.646)" fill="#421b36"/>
              <path id="Path_900883" data-name="Path 900883" d="M62.929,127.613a1.407,1.407,0,1,1-1.679-1.244,1.481,1.481,0,0,1,1.679,1.244" transform="translate(-14.508 -30.473)" fill="#421b36"/>
              <path id="Path_900884" data-name="Path 900884" d="M48.884,123.1a12.17,12.17,0,0,1,4.771-2.383,26.726,26.726,0,0,1,4.5-.37c.879-.084.846-1.376.107-1.638-3.72-1.32-7.628,1.057-10,3.7-.391.434.162,1.1.619.694" transform="translate(-11.609 -28.54)" fill="#421b36"/>
              <g id="Group_1112016" data-name="Group 1112016" transform="translate(39.25 102.246)" opacity="0.2">
                <g id="Group_1112015" data-name="Group 1112015">
                  <g id="Group_1112014" data-name="Group 1112014" clip-path="url(#clip-path-10)">
                    <path id="Path_900885" data-name="Path 900885" d="M60.463,136.288c.252,1.246-1.494,2.65-3.9,3.136S52,139.3,51.75,138.05s1.494-2.651,3.9-3.137,4.56.129,4.812,1.375" transform="translate(-51.726 -134.746)" fill="#421b36"/>
                  </g>
                </g>
              </g>
              <g id="Group_1112019" data-name="Group 1112019" transform="translate(59.826 98.603)" opacity="0.2">
                <g id="Group_1112018" data-name="Group 1112018">
                  <g id="Group_1112017" data-name="Group 1112017" clip-path="url(#clip-path-10)">
                    <path id="Path_900886" data-name="Path 900886" d="M87.579,131.486c.252,1.246-1.494,2.65-3.9,3.136s-4.56-.129-4.812-1.374,1.495-2.651,3.9-3.137,4.56.129,4.812,1.375" transform="translate(-78.842 -129.945)" fill="#421b36"/>
                  </g>
                </g>
              </g>
              <path id="Path_900887" data-name="Path 900887" d="M34.447,139.1a5.839,5.839,0,0,0-6.319,1.269,6.451,6.451,0,0,0-1.49,4.049,7.574,7.574,0,0,0,2.855,6.418c1.971,1.436,8.371.688,10.209-.916Z" transform="translate(-6.423 -33.456)" fill="#ffbfbf"/>
              <path id="Path_900888" data-name="Path 900888" d="M31.763,147.84a4.366,4.366,0,0,1,1.708-.75,2.507,2.507,0,0,1,1.943.52.779.779,0,0,0,1.007-1.162,3.189,3.189,0,0,0-3.008-.883,2.855,2.855,0,0,0-1.392.755c-.423.448-.362.813-.49,1.366-.03.128.119.264.231.154" transform="translate(-7.604 -35.09)" fill="#421b36"/>
              <path id="Path_900889" data-name="Path 900889" d="M76.609,110.137a5.585,5.585,0,0,0-8.741,2.7c-1.722,5.147,1.968,12.18,5.572,15.694a.891.891,0,0,0,1.329-1.185c-2.182-2.971-4.4-5.976-5.228-9.654-.577-2.556-.549-5.686,2.352-6.864a7.838,7.838,0,0,1,4.4-.052.358.358,0,0,0,.312-.634" transform="translate(-16.264 -26.281)" fill="#421b36"/>
              <path id="Path_900890" data-name="Path 900890" d="M60,170.528a18.349,18.349,0,0,0,13.872,1.384.747.747,0,0,0-.3-1.463,36.345,36.345,0,0,1-13.533-.047.069.069,0,0,0-.043.126" transform="translate(-14.465 -41.1)" fill="#421b36"/>
              <path id="Path_900891" data-name="Path 900891" d="M37.087,134.7s6.258-7.171,3.684-15.949-3.546-7.064-1.864-9.96,5.467-5.011,7.064-5.034,5.206,1.272,9.3-.418a7.63,7.63,0,0,0,3.591-2.876s-6.476-6.6-16.168,2.858S32.337,114.665,31.737,120.3s5.35,14.4,5.35,14.4" transform="translate(-7.644 -23.691)" fill="#421b36"/>
              <path id="Path_900892" data-name="Path 900892" d="M60.011,285.935c1.367-.82,57.676-5.467,61.23-11.754s-.181-12.457-4.1-12.12c-1.093.093-17.357-77.984-21.389-79.4s-27.346,1.306-27.346,1.306.591-9.33-6.765-9.66l-1.546,4.249s-13.513-1.931-16.628-2.113c0,0,.372-3.238.042-3.2a7.265,7.265,0,0,0-4.818,2.655c-2.733,4.53-1.64,8.073-1.64,8.073s-12.269,1.377-13.379,7.391,22.82,92.391,35.183,94.578" transform="translate(-5.701 -41.784)" fill="#fef4e8"/>
              <path id="Path_900893" data-name="Path 900893" d="M109.713,155.408s-3.55-4.482-12.254-3.107-15.118,7.634-14.812,11.758,4.886,2.9,6.566,1.222,4.581-6.619,10.231-5.83a11.686,11.686,0,0,0-2.122,1.181,5.311,5.311,0,0,0-.387,8.313s-2.531,3.513,2.967,6.872c0,0-1.892,1.985,1.42,5.346s6.822,1.534,6.825,0l0-2.6s.4,10.231,6.382,10.842,6.745-1.679,7.356-6.566-6.964-24.152-12.178-27.433" transform="translate(-19.931 -36.671)" fill="#ffbfbf"/>
              <path id="Path_900894" data-name="Path 900894" d="M103.208,162.93a22.246,22.246,0,0,1,4.733-3.022.571.571,0,0,0,.2-.774.58.58,0,0,0-.775-.2,23.37,23.37,0,0,0-4.962,3.2.57.57,0,0,0,0,.8.579.579,0,0,0,.8,0" transform="translate(-24.66 -38.317)" fill="#421b36"/>
              <path id="Path_900895" data-name="Path 900895" d="M101.84,173.58a12.3,12.3,0,0,1,5.714-5.284.571.571,0,0,0,.2-.774.579.579,0,0,0-.774-.2,13.3,13.3,0,0,0-6.12,5.69c-.35.64.627,1.211.977.571" transform="translate(-24.309 -40.34)" fill="#421b36"/>
              <path id="Path_900896" data-name="Path 900896" d="M105.31,182.585a18.386,18.386,0,0,1,5.07-6.429.57.57,0,0,0,0-.8.579.579,0,0,0-.8,0,19.132,19.132,0,0,0-5.246,6.658.582.582,0,0,0,.2.775.571.571,0,0,0,.774-.2" transform="translate(-25.148 -42.256)" fill="#421b36"/>
              <path id="Path_900897" data-name="Path 900897" d="M112.259,186.042c.09,0,.181,0,.271.007.046,0,.09.008.135.013-.146-.014,0,0,.027.006a3.088,3.088,0,0,1,.5.136c.015.005.153.059.08.029s.061.029.076.036c.075.036.148.074.22.115s.156.093.23.144c.037.025.073.053.11.079-.109-.076.012.01.028.023a3.431,3.431,0,0,1,.373.362c.03.033.058.07.088.1.045.05-.054-.077.008.01s.1.147.152.224.091.156.132.236c.02.04.039.08.058.121.063.136-.037-.109.012.031a3.449,3.449,0,0,1,.144.521.569.569,0,0,0,.7.4.581.581,0,0,0,.4-.7,3.836,3.836,0,0,0-3.734-3.028.566.566,0,1,0,0,1.131" transform="translate(-26.939 -44.599)" fill="#421b36"/>
              <path id="Path_900898" data-name="Path 900898" d="M23.916,190.873c-.747.249-12.171,5.5-16.844,19.935-3.154,9.745,3.236,63.725,11.2,76.42s23.4,22.653,37.588,12.7S81,266.816,78.016,264.327s-14.438-18.1-17.425-17.636S46.4,259.349,46.4,259.349s-7.717-41.322-8.215-40.576-14.272-27.9-14.272-27.9" transform="translate(-1.507 -46.037)" fill="#fef4e8"/>
              <path id="Path_900899" data-name="Path 900899" d="M140.9,192.125c.641,1.181,32.323,22.782,35.615,35.743s-7.2,28.6-22.836,24.481-31.353-14.071-31.353-14.071Z" transform="translate(-29.504 -46.339)" fill="#fef4e8"/>
              <path id="Path_900900" data-name="Path 900900" d="M163.12,199.736c-.535,2.452-14.032,51.825-14.215,53.786s-.917,2.075-3.3,2.809-46.974,1.468-47.341,0,14.933-62.366,16.882-64.578,42.4-.57,43.129-.753c0,0,6.808-.242,4.849,8.736" transform="translate(-23.698 -45.968)" fill="#421b36"/>
              <path id="Path_900901" data-name="Path 900901" d="M112.452,217.593s.64-4.095-3.2-3.839-19.834,14.971-20.986,16.891-5.246,18.427-5.246,18.427-6.782,7.165-6.014,8.7,13.051,12.284,15.227,11.261,6.91-9.981,6.91-9.981,6.142-.64,7.422-4.478.9-9.341.9-9.341,13.948-5.887,14.332-8.062.127-4.734-3.456-3.966c0,0,5.526-1.962,4.233-6.36-.873-2.97-4.557-3.246-4.557-3.246s3-2.559.324-5.111c-1.164-1.111-5.886-.9-5.886-.9" transform="translate(-18.559 -51.553)" fill="#ffbfbf"/>
              <path id="Path_900902" data-name="Path 900902" d="M53.668,281.439A32.289,32.289,0,0,0,37.3,294.03c-.405.607.574,1.174.977.571a31.022,31.022,0,0,1,15.69-12.07c.685-.234.392-1.328-.3-1.091" transform="translate(-8.974 -67.873)" fill="#421b36"/>
              <path id="Path_900903" data-name="Path 900903" d="M112.624,245.672c4.969-3.03,10.678-4.557,16.065-6.652.671-.261.379-1.356-.3-1.091-5.476,2.128-11.283,3.686-16.336,6.766-.621.379-.052,1.358.571.977" transform="translate(-26.962 -57.377)" fill="#421b36"/>
              <path id="Path_900904" data-name="Path 900904" d="M106.933,237.538c6.242-4.309,13.262-7.508,20.211-10.49.667-.286.092-1.261-.571-.977-6.948,2.982-13.969,6.18-20.211,10.489-.595.411-.03,1.392.571.977" transform="translate(-25.593 -54.515)" fill="#421b36"/>
              <path id="Path_900905" data-name="Path 900905" d="M101.6,230.395A142.157,142.157,0,0,1,118.675,219.2c.636-.355.066-1.332-.571-.977a142.311,142.311,0,0,0-17.076,11.195c-.571.436-.008,1.42.571.977" transform="translate(-24.31 -52.615)" fill="#421b36"/>
              <path id="Path_900906" data-name="Path 900906" d="M58.058,270.65c-2.411-11.456-4.032-23.061-6.443-34.517-.15-.712-1.241-.411-1.091.3,2.411,11.456,4.032,23.06,6.443,34.516.149.713,1.241.411,1.091-.3" transform="translate(-12.183 -56.856)" fill="#421b36"/>
              <path id="Path_900907" data-name="Path 900907" d="M59.952,277.788c2.24-1.939,3.712-4.752,5.325-7.193,1.485-2.247,3.312-5.313,6.011-6.244a4.347,4.347,0,0,1,4.142.977c.578.442,1.142-.54.571-.977-6.154-4.714-10.877,4.486-13.658,8.667a19,19,0,0,1-3.193,3.969c-.551.478.252,1.276.8.8" transform="translate(-14.222 -63.444)" fill="#421b36"/>
              <path id="Path_900908" data-name="Path 900908" d="M47.9,177.473a41.462,41.462,0,0,0,20.4,1.789c.717-.115.414-1.2-.3-1.091a40.291,40.291,0,0,1-19.793-1.788c-.688-.244-.984.849-.3,1.091" transform="translate(-11.461 -42.534)" fill="#421b36"/>
              <path id="Path_900909" data-name="Path 900909" d="M122.441,298.735a40.254,40.254,0,0,1,18.288-7.1c.716-.082.724-1.214,0-1.131a41.409,41.409,0,0,0-18.859,7.255c-.591.416-.027,1.4.571.977" transform="translate(-29.334 -70.066)" fill="#421b36"/>
              <path id="Path_900910" data-name="Path 900910" d="M133.225,338.385l-5.268,6.4a.581.581,0,0,0,0,.8.57.57,0,0,0,.8,0l5.268-6.394a.583.583,0,0,0,0-.8.571.571,0,0,0-.8,0" transform="translate(-30.824 -81.577)" fill="#421b36"/>
              <path id="Path_900911" data-name="Path 900911" d="M128.462,348.612a37.473,37.473,0,0,1,2.185,6.426c1.11,3.764,2.13,7.553,3.137,11.345,2.207,8.308,4.3,16.646,6.469,24.963.676,2.589,1.287,5.225,2.144,7.763.232.686,1.326.392,1.091-.3-.728-2.152-1.257-4.381-1.834-6.577-1-3.825-1.983-7.656-2.966-11.487-2.147-8.354-4.257-16.726-6.659-25.012a43.642,43.642,0,0,0-2.59-7.691c-.331-.649-1.308-.077-.977.571" transform="translate(-30.968 -83.876)" fill="#421b36"/>
              <path id="Path_900912" data-name="Path 900912" d="M61.291,342.739a21.286,21.286,0,0,0,16.69-2.3,14.822,14.822,0,0,0,6.846-13.152,16.244,16.244,0,0,0-2.2-8.245.566.566,0,0,0-.977.571c3.061,5.064,2.869,12.864-1.2,17.359C75.9,342,67.92,343.406,61.591,341.647a.566.566,0,0,0-.3,1.091" transform="translate(-14.687 -76.885)" fill="#421b36"/>
              <path id="Path_900913" data-name="Path 900913" d="M121.8,316.493a43.543,43.543,0,0,1,2.277,8.062c.238,1.326.654,2.955.181,4.267a3.06,3.06,0,0,1-2.559,1.966c-2.955.285-4.181-3.111-5.142-5.3a43.131,43.131,0,0,1-2.585-7.974c-.158-.71-1.249-.41-1.091.3a43.859,43.859,0,0,0,2.317,7.349c.831,2,1.72,4.557,3.526,5.888a4.378,4.378,0,0,0,5.491-.213c1.8-1.607,1.382-4.052,1.023-6.174a43.473,43.473,0,0,0-2.349-8.476c-.26-.672-1.355-.38-1.091.3" transform="translate(-27.223 -76.172)" fill="#421b36"/>
              <path id="Path_900914" data-name="Path 900914" d="M139.016,313.86a35,35,0,0,0,5.39,9.376,27.591,27.591,0,0,0,3.759,3.944c1.326,1.1,3.034,1.9,4.757,1.257.676-.253.383-1.347-.3-1.091-1.732.647-3.251-.541-4.444-1.676a32.936,32.936,0,0,1-3.294-3.642,33.442,33.442,0,0,1-4.775-8.468c-.26-.673-1.354-.381-1.091.3" transform="translate(-33.52 -75.537)" fill="#421b36"/>
              <path id="Path_900915" data-name="Path 900915" d="M72.762,187.1c-2.3,4.547-9.027,5.733-13.6,5.842a32.121,32.121,0,0,1-15.4-3.8c-.647-.333-1.219.643-.571.977a33.073,33.073,0,0,0,16.782,3.92c4.768-.25,11.4-1.672,13.769-6.372.327-.649-.649-1.222-.977-.571" transform="translate(-10.348 -45.058)" fill="#421b36"/>
              <g id="Group_1112022" data-name="Group 1112022" transform="translate(98.011 259.931)" opacity="0.2">
                <g id="Group_1112021" data-name="Group 1112021">
                  <g id="Group_1112020" data-name="Group 1112020" clip-path="url(#clip-path-12)">
                    <path id="Path_900916" data-name="Path 900916" d="M147.945,367.193a1.512,1.512,0,0,1,.663.1l.573.855a1.152,1.152,0,0,1-1.236,1v-1.955Zm0,20.64v1.955c.386.117.653-.154.93-.252l.311-.921a2.387,2.387,0,0,0-1.241-.782m0-8.257c1.575.214,1.7-1.848,0-1.738v1.738Zm.882,4.955c.656-1.005.26-1.544-.882-1.478v1.521a1.12,1.12,0,0,0,.882-.042m-.882,8.516V395c1.656.036,1.166-1.489,0-1.955m1.1-19.668a1.874,1.874,0,0,0-1.1-.973v1.956c.545.1.734-.659,1.1-.983m6.82,22.161a14.373,14.373,0,0,1-.942,1.106l1.98-.177c-.288-.62-.428-.683-1.038-.929m2.951-7.891-1.013.371c-.151.449-.294.875-.439,1.305,1.4,2,3.423-.535,1.452-1.676m4.305,5.9v1.606l.594.292c2.349-.323.824-3.828-.594-1.9m-7.02-11.094a2.462,2.462,0,0,0,.962-1.806c-.67-1.2-1.694-.657-2.15.389a1.9,1.9,0,0,0,1.188,1.417m-5.778,13.284a3.619,3.619,0,0,0-.623,1.193,1.128,1.128,0,0,0,.077.175l2.249-.2c.014-.035.029-.068.042-.1-.18-.848-.985-.941-1.745-1.065m9.8-3.915.552.769c3.4.583.2-4.3-.552-.769m3.171-1.839a1.069,1.069,0,0,0,.5.077l-.9-1.358c-.19.335-.14.792.407,1.28m-5.466-6.977a1.1,1.1,0,0,0,.981,1.821,1.27,1.27,0,0,0,.722-1.165q-.29-.437-.588-.883a1.328,1.328,0,0,0-1.115.227m-4.343,9.962c-.326.179-.634.346-.908.5-.139,1.348.263,2.007,1.4,1.708.187-.439.624-.833.437-1.461l-.933-.742m-.162-18.613-.7-1.05c.014.495.1.932.7,1.05m-3.6,6.813c.876,1.165,1.321,1.193,2.26.146-.314-1.386-1.84-1.546-2.26-.146m2.849,3.324c1.066.291,2.286.026,1.792-1.539l-1.257-.124c-.208.576-.728,1.014-.536,1.663m8.313,11.619.684-.062a.549.549,0,0,0-.684.062m-6.175-4.546c1.047,1.583,2.074.709,2.6-.722l-1.34-.31c-.351.708-.351.708-1.255,1.032m5.117,2.783c.266-1.484-3.507-1.239-1.531.647a1.266,1.266,0,0,0,1.531-.647m-5.545-5.869c-.676-.766-1.26-.145-1.757.464.5,1.242.933.923,1.9.594.474-.269.174-.8-.145-1.058m-1.647-9.068c1.15.283,2.283-.562,1.486-1.641-1.15-.01-2.212.3-1.486,1.641m-3.161,12.019a1.473,1.473,0,0,1,.974,1.08c2.968-.267.266-3.054-.974-1.08m10.944-5.311c.076.419.15.83.225,1.249a1.133,1.133,0,0,0,1.215-.206l-.92-1.382-.52.339m-10.2-11.15c-.112.334-.212.635-.312.936a1.468,1.468,0,0,0,1.135.866c1.038-.766.627-2.327-.823-1.8m1.768,11.5c-.53-.694-2.065-.849-2.388.044a1.483,1.483,0,0,0,2.388-.044m-1.808-16.2a1.506,1.506,0,0,0,.063,1.021,1.192,1.192,0,0,0,1.125.133l-.908-1.358a1.066,1.066,0,0,0-.279.2m5.953,15.112c-.092.172-.174.325-.282.526-2.256-.042.338,1.546,1.481.492-.381-.46-.559-1.038-1.2-1.018m-8.537-2.523c-.159.466-.318.937-.465,1.367.293.7.3.7.808.777v-2.172l-.343.027m-.5-15.335c.039.642-.257,1.534.848,1.4V367.41c-.263-.073-.531-.279-.848.12m.848,11.831v-1.738c-.77-.2-.684.888-.911,1.37a.727.727,0,0,0,.911.368m-.338-6.954c-.467.6-.908,1.993.338,1.738v-1.738Zm-.635,15.99a2.162,2.162,0,0,1,.562,1.345l.411.047v-1.738a.607.607,0,0,0-.974.345m.027,5.756a.764.764,0,0,0,.947.416v-1.521a1.314,1.314,0,0,0-.947,1.1m-13.609-35.929c-.382-1.128-.461-2.1-1.789-1.806l.657,2.352a1.283,1.283,0,0,0,1.132-.546m12.089,34.617c1.562-.4,1.323-1.936.006-2.593-1.469.569-1.626,2.154-.006,2.593m-2.981.113a1.132,1.132,0,0,0-.514.643l.467,1.675c1.385.422,2.525-1.728.047-2.318m-8.426-47.041h.085l-.377-.543.292.543m1.9,20.426c.787-1.33-1.329-2.938-1.972-1.344l.244.87c.51.5,1.077,1.09,1.729.473m4.481-1.834c-.622-.479-1.241.263-1.354.856a3.419,3.419,0,0,0,.847,1.349c.758.043.978-.527,1.328-.9.566-.54-.5-.924-.82-1.3m.492,5.6c-.08-.964-1.766-.478-1.858.25-.414,1.607,1.66,1.927,2.086.48.036-.3-.286-.41-.228-.73m-1.657-14.893c.278.574.4,1.071,1.164,1.14l.53-.42-1.245-1.845-.074-.019c-.535.358-.758.609-.374,1.144m2.972,3.511a1.865,1.865,0,0,0,.591-.016l-1.031-1.531a1.221,1.221,0,0,0,.44,1.547m-1.029,22.237c.172-1.085-1.322-1.5-1.982-.742-.144,1.613,1.548,2.751,1.982.742m-4.461-22.247c.961.577,2.552-.662,1.459-1.819-1.3-.363-2.142.59-1.459,1.819m1.42,10.176.562-.818c-1.792-2.814-3.735,1.305-.562.818m-3.709-12.677c.5-.271,1.1-.092,1.5-.572-.09-.365-.175-.708-.269-1.1-1.256-.441-1.256-.441-1.958.45.048.508.48.768.725,1.219m5.979,28.939a.948.948,0,0,0-.8.1l.565,2.024c1.15-.058,1.1-1.19.238-2.12m2.276-10.591.807-.432c.088-.374.168-.715.265-1.129l-1.565-.631c-.987.423-.188,1.949.493,2.191m2.929,5.541c-1.169.3-1.572,1.319-.582,2.088,1.472.335,1.814-1.419.582-2.088m-1.831-1.782c-.249-1.309-1.957-.339-2.093.738.794.968,2.377.679,2.093-.738m2.625,18c-.68-.5-2.1-1.095-1.963.355-.121.505.024.772.279.881l.949-.085c.549-.238,1.012-.724.735-1.151M139.064,376c.355,2.467,3.049-.543,1.684-.835-.756.11-1.757-.483-1.684.835m-7.689-23.086a1.958,1.958,0,0,0,1.275.836c.779-1.055.806-1.251.288-1.993-1.162.046-1.472-.345-1.563,1.157m12.382,31.338c-.222-1.02-.259-1.773-1.6-1.44-.682,1.572.043,2.269,1.6,1.44m-13-34.522a1.029,1.029,0,0,0-1.276-.886l.5,1.774a1.627,1.627,0,0,0,.781-.888m5.251.121c-.627-.8-1.634-1.266-2.2-.124l1.007,1.349c.754-.365.754-.365,1.188-1.225m1.575,27.463c-.05.022-.088.049-.132.074l.543,1.945c.752-.248.831-1.276-.411-2.018m3.247-18.057c-1.582-.421-1.958.9-.983,1.987,1.282-.738,1.32-.813.983-1.987m4.028,26.517c-.87.355-.514.835.012,1.462,1.511.3,1.464-.791,1.055-1.92-.5-.017-.945-.091-1.068.458M135.3,361.3c.444-.738.736-1.429-.008-2.08l-1.091.391c0,.969-.255,2.154,1.1,1.689m10.823,5.05.288-.853c-.188-.426-.329-.847-.829-1-.363.52-1.2.574-1.262,1.317.322.736,1.155.544,1.8.536m-1.074,8.365a2,2,0,0,0-.748.832c.391.558.62,1.323,1.6.957.534-1.2.533-1.49-.854-1.789m-1.54-7.347a5.387,5.387,0,0,0-1.23-.2c-1.408,2.087,2.184,2.634,1.23.2m-.7-3.626.936-.372c-.095-.663-.518-.986-1.067-1.388l-1.015.539c-.161.985.529,1.041,1.146,1.22m-6.056-.211c.583-.141.906.3,1.43.189,1.281-1.9-2.174-2.385-1.43-.189m7.6,7.3c0,1.625,1.785.66,2.3-.286a1.7,1.7,0,0,0-2.3.286m-.738,18.557c.64-.964-.537-1.433-1.371-1.249-1.026,1.2.415,1.98,1.371,1.249m-11.088-42.908c-.024.275-.042.483-.071.827-1.445-1.405-1.456.8.142,1.014.629-.34.648-.973,1-1.541-.325-.212-.594-.455-1.07-.3m4.3,27.687c1.375-.186,2.593-1.3.7-1.773-.814-.222-.954,1.209-.7,1.773m.216-21.489c.535.424.832.939,1.574.521a6.175,6.175,0,0,0-1.1-2.014c-.5.443-1.317.934-.469,1.493m-5.34-10.129-.084.1a1.168,1.168,0,0,0,.346.2,1.483,1.483,0,0,0-.262-.3m3.6,27.151.3,1.07a10.171,10.171,0,0,1-.089-1.114.917.917,0,0,0-.21.044m-5.185-25.349-.961,1.091c.878.785,1.42-.428.961-1.091" transform="translate(-129.164 -342.552)" fill="#421b36"/>
                  </g>
                </g>
              </g>
              <path id="Path_900917" data-name="Path 900917" d="M68.842,323.447c6.1-2.3,10.1-7.626,13.624-12.848q3.341-4.951,6.59-9.965a118.681,118.681,0,0,0,6.368-10.453c1.465-2.886,2.065-6.74-.9-8.909-.588-.43-1.153.551-.571.977,4.03,2.944-.241,8.762-2.028,11.7-2.388,3.926-4.9,7.773-7.445,11.6-4.187,6.3-8.468,13.984-15.935,16.8-.675.255-.382,1.349.3,1.091" transform="translate(-16.439 -67.815)" fill="#421b36"/>
              <path id="Path_900918" data-name="Path 900918" d="M76.015,271.331a50.216,50.216,0,0,0,16.537,13.5c.646.329,1.221-.646.571-.977a49.457,49.457,0,0,1-16.308-13.327c-.453-.571-1.249.235-.8.8" transform="translate(-18.302 -65.203)" fill="#421b36"/>
              <path id="Path_900919" data-name="Path 900919" d="M71.46,144.369a6.228,6.228,0,0,0,1.935-.206,24.943,24.943,0,0,1,2.527-.253.573.573,0,0,0,0-1.146c-1.392-.141-3.6,0-4.587,1.13-.124.141-.1.443.125.475" transform="translate(-17.187 -34.423)" fill="#421b36"/>
              <path id="Path_900920" data-name="Path 900920" d="M108.881,154.24c-6.7-5.768-17.434-2.3-23.553,2.617a15.206,15.206,0,0,0-4.425,4.924c-.662,1.423-.632,3.475.787,4.463a6.164,6.164,0,0,0,1.7.984,5.416,5.416,0,0,0,3.78-.563,25.758,25.758,0,0,0,5.815-4.485,7.747,7.747,0,0,1,5.939-2.358c.728.034.726-1.1,0-1.131a8.089,8.089,0,0,0-4.33.864,18.5,18.5,0,0,0-3.443,2.771c-1.69,1.54-5.337,5.179-7.942,3.6a2.87,2.87,0,0,1-1.59-2.03c-.233-2,1.807-3.8,3.128-5.038a24.238,24.238,0,0,1,10.54-5.756c4.258-1.081,9.3-1.071,12.793,1.942.549.473,1.353-.324.8-.8" transform="translate(-19.412 -36.477)" fill="#421b36"/>
              <path id="Path_900921" data-name="Path 900921" d="M53.716,230.621l-3.047,3.631a.582.582,0,0,0,0,.8.571.571,0,0,0,.8,0l3.047-3.631a.582.582,0,0,0,0-.8.571.571,0,0,0-.8,0" transform="translate(-12.182 -55.585)" fill="#421b36"/>
            </g>
          </g>
        </g>
      </g>
    </g>
  </g>
</svg>
