<svg xmlns="http://www.w3.org/2000/svg" width="85" height="91.196" viewBox="0 0 85 91.196">
  <g id="Group_1112728" data-name="Group 1112728" transform="translate(-810 -575)">
    <path id="Path_113538" data-name="Path 113538" d="M73.329,11.2c-3.343,0-4.994-2.7-6.319-4.862C65.667,4.142,64.757,2.8,63.045,2.8s-2.62,1.344-3.96,3.536C57.76,8.5,56.11,11.2,52.768,11.2s-4.994-2.7-6.319-4.862C45.107,4.142,44.2,2.8,42.487,2.8s-2.618,1.344-3.96,3.536C37.2,8.5,35.552,11.2,32.21,11.2s-4.992-2.7-6.316-4.862C24.552,4.142,23.644,2.8,21.936,2.8s-2.617,1.344-3.958,3.536C16.652,8.5,15,11.2,11.661,11.2S6.671,8.5,5.345,6.334C4,4.142,3.1,2.8,1.387,2.8a1.4,1.4,0,0,1,0-2.8C4.727,0,6.378,2.7,7.7,4.863,9.043,7.054,9.953,8.4,11.661,8.4s2.617-1.344,3.958-3.534C16.945,2.7,18.6,0,21.936,0s4.991,2.7,6.315,4.862C29.592,7.054,30.5,8.4,32.21,8.4s2.618-1.344,3.96-3.536C37.5,2.7,39.146,0,42.487,0s4.992,2.7,6.319,4.862C50.147,7.054,51.056,8.4,52.768,8.4s2.618-1.344,3.96-3.536C58.052,2.7,59.7,0,63.045,0s5,2.7,6.321,4.862C70.709,7.054,71.619,8.4,73.329,8.4s2.621-1.344,3.964-3.536C78.619,2.7,80.271,0,83.614,0A1.392,1.392,0,0,1,85,1.4a1.391,1.391,0,0,1-1.386,1.4c-1.712,0-2.621,1.344-3.964,3.536C78.324,8.5,76.674,11.2,73.329,11.2Z" transform="translate(895 623.195) rotate(180)" fill="#be6a5d"/>
    <path id="Path_903568" data-name="Path 903568" d="M73.329,11.2c-3.343,0-4.994-2.7-6.319-4.862C65.667,4.142,64.757,2.8,63.045,2.8s-2.62,1.344-3.96,3.536C57.76,8.5,56.11,11.2,52.768,11.2s-4.994-2.7-6.319-4.862C45.107,4.142,44.2,2.8,42.487,2.8s-2.618,1.344-3.96,3.536C37.2,8.5,35.552,11.2,32.21,11.2s-4.992-2.7-6.316-4.862C24.552,4.142,23.644,2.8,21.936,2.8s-2.617,1.344-3.958,3.536C16.652,8.5,15,11.2,11.661,11.2S6.671,8.5,5.345,6.334C4,4.142,3.1,2.8,1.387,2.8a1.4,1.4,0,0,1,0-2.8C4.727,0,6.378,2.7,7.7,4.863,9.043,7.054,9.953,8.4,11.661,8.4s2.617-1.344,3.958-3.534C16.945,2.7,18.6,0,21.936,0s4.991,2.7,6.315,4.862C29.592,7.054,30.5,8.4,32.21,8.4s2.618-1.344,3.96-3.536C37.5,2.7,39.146,0,42.487,0s4.992,2.7,6.319,4.862C50.147,7.054,51.056,8.4,52.768,8.4s2.618-1.344,3.96-3.536C58.052,2.7,59.7,0,63.045,0s5,2.7,6.321,4.862C70.709,7.054,71.619,8.4,73.329,8.4s2.621-1.344,3.964-3.536C78.619,2.7,80.271,0,83.614,0A1.392,1.392,0,0,1,85,1.4a1.391,1.391,0,0,1-1.386,1.4c-1.712,0-2.621,1.344-3.964,3.536C78.324,8.5,76.674,11.2,73.329,11.2Z" transform="translate(895 635.195) rotate(180)" fill="#be6a5d"/>
    <path id="Path_126924" data-name="Path 126924" d="M73.329,11.2c-3.343,0-4.994-2.7-6.319-4.862C65.667,4.142,64.757,2.8,63.045,2.8s-2.62,1.344-3.96,3.536C57.76,8.5,56.11,11.2,52.768,11.2s-4.994-2.7-6.319-4.862C45.107,4.142,44.2,2.8,42.487,2.8s-2.618,1.344-3.96,3.536C37.2,8.5,35.552,11.2,32.21,11.2s-4.992-2.7-6.316-4.862C24.552,4.142,23.644,2.8,21.936,2.8s-2.617,1.344-3.958,3.536C16.652,8.5,15,11.2,11.661,11.2S6.671,8.5,5.345,6.334C4,4.142,3.1,2.8,1.387,2.8a1.4,1.4,0,0,1,0-2.8C4.727,0,6.378,2.7,7.7,4.863,9.043,7.054,9.953,8.4,11.661,8.4s2.617-1.344,3.958-3.534C16.945,2.7,18.6,0,21.936,0s4.991,2.7,6.315,4.862C29.592,7.054,30.5,8.4,32.21,8.4s2.618-1.344,3.96-3.536C37.5,2.7,39.146,0,42.487,0s4.992,2.7,6.319,4.862C50.147,7.054,51.056,8.4,52.768,8.4s2.618-1.344,3.96-3.536C58.052,2.7,59.7,0,63.045,0s5,2.7,6.321,4.862C70.709,7.054,71.619,8.4,73.329,8.4s2.621-1.344,3.964-3.536C78.619,2.7,80.271,0,83.614,0A1.392,1.392,0,0,1,85,1.4a1.391,1.391,0,0,1-1.386,1.4c-1.712,0-2.621,1.344-3.964,3.536C78.324,8.5,76.674,11.2,73.329,11.2Z" transform="translate(895 598.195) rotate(180)" fill="#be6a5d"/>
    <path id="Path_113539" data-name="Path 113539" d="M73.329,11.2c-3.343,0-4.994-2.7-6.319-4.862C65.667,4.142,64.757,2.8,63.045,2.8s-2.62,1.344-3.96,3.536C57.76,8.5,56.11,11.2,52.768,11.2s-4.994-2.7-6.319-4.862C45.107,4.142,44.2,2.8,42.487,2.8s-2.618,1.344-3.96,3.536C37.2,8.5,35.552,11.2,32.21,11.2s-4.992-2.7-6.316-4.862C24.552,4.142,23.644,2.8,21.936,2.8s-2.617,1.344-3.958,3.536C16.652,8.5,15,11.2,11.661,11.2S6.671,8.5,5.345,6.334C4,4.142,3.1,2.8,1.387,2.8a1.4,1.4,0,0,1,0-2.8C4.727,0,6.378,2.7,7.7,4.863,9.043,7.054,9.953,8.4,11.661,8.4s2.617-1.344,3.958-3.534C16.945,2.7,18.6,0,21.936,0s4.991,2.7,6.315,4.862C29.592,7.054,30.5,8.4,32.21,8.4s2.618-1.344,3.96-3.536C37.5,2.7,39.146,0,42.487,0s4.992,2.7,6.319,4.862C50.147,7.054,51.056,8.4,52.768,8.4s2.618-1.344,3.96-3.536C58.052,2.7,59.7,0,63.045,0s5,2.7,6.321,4.862C70.709,7.054,71.619,8.4,73.329,8.4s2.621-1.344,3.964-3.536C78.619,2.7,80.271,0,83.614,0A1.392,1.392,0,0,1,85,1.4a1.391,1.391,0,0,1-1.386,1.4c-1.712,0-2.621,1.344-3.964,3.536C78.324,8.5,76.674,11.2,73.329,11.2Z" transform="translate(895 611.195) rotate(180)" fill="#be6a5d"/>
    <path id="Path_126923" data-name="Path 126923" d="M73.329,11.2c-3.343,0-4.994-2.7-6.319-4.862C65.667,4.142,64.757,2.8,63.045,2.8s-2.62,1.344-3.96,3.536C57.76,8.5,56.11,11.2,52.768,11.2s-4.994-2.7-6.319-4.862C45.107,4.142,44.2,2.8,42.487,2.8s-2.618,1.344-3.96,3.536C37.2,8.5,35.552,11.2,32.21,11.2s-4.992-2.7-6.316-4.862C24.552,4.142,23.644,2.8,21.936,2.8s-2.617,1.344-3.958,3.536C16.652,8.5,15,11.2,11.661,11.2S6.671,8.5,5.345,6.334C4,4.142,3.1,2.8,1.387,2.8a1.4,1.4,0,0,1,0-2.8C4.727,0,6.378,2.7,7.7,4.863,9.043,7.054,9.953,8.4,11.661,8.4s2.617-1.344,3.958-3.534C16.945,2.7,18.6,0,21.936,0s4.991,2.7,6.315,4.862C29.592,7.054,30.5,8.4,32.21,8.4s2.618-1.344,3.96-3.536C37.5,2.7,39.146,0,42.487,0s4.992,2.7,6.319,4.862C50.147,7.054,51.056,8.4,52.768,8.4s2.618-1.344,3.96-3.536C58.052,2.7,59.7,0,63.045,0s5,2.7,6.321,4.862C70.709,7.054,71.619,8.4,73.329,8.4s2.621-1.344,3.964-3.536C78.619,2.7,80.271,0,83.614,0A1.392,1.392,0,0,1,85,1.4a1.391,1.391,0,0,1-1.386,1.4c-1.712,0-2.621,1.344-3.964,3.536C78.324,8.5,76.674,11.2,73.329,11.2Z" transform="translate(895 586.195) rotate(180)" fill="#be6a5d"/>
    <path id="Path_903569" data-name="Path 903569" d="M73.329,14.2c-3.343,0-4.994-3.417-6.319-6.164-1.343-2.779-2.253-4.483-3.964-4.483s-2.62,1.7-3.96,4.483C57.76,10.778,56.11,14.2,52.768,14.2s-4.994-3.417-6.319-6.164C45.107,5.252,44.2,3.548,42.487,3.548s-2.618,1.7-3.96,4.483C37.2,10.778,35.552,14.2,32.21,14.2s-4.992-3.417-6.316-6.164c-1.341-2.779-2.249-4.483-3.958-4.483s-2.617,1.7-3.958,4.483C16.652,10.778,15,14.2,11.661,14.2S6.671,10.778,5.345,8.031C4,5.252,3.1,3.548,1.387,3.548A1.616,1.616,0,0,1,0,1.774,1.617,1.617,0,0,1,1.387,0C4.727,0,6.378,3.419,7.7,6.166c1.34,2.777,2.249,4.481,3.958,4.481s2.617-1.7,3.958-4.481C16.945,3.419,18.6,0,21.936,0s4.991,3.419,6.315,6.164c1.341,2.779,2.249,4.483,3.96,4.483s2.618-1.7,3.96-4.483C37.5,3.419,39.146,0,42.487,0s4.992,3.419,6.319,6.164c1.34,2.779,2.249,4.483,3.961,4.483s2.618-1.7,3.96-4.483C58.052,3.419,59.7,0,63.045,0s5,3.419,6.321,6.164c1.343,2.779,2.253,4.483,3.963,4.483s2.621-1.7,3.964-4.483C78.619,3.419,80.271,0,83.614,0A1.616,1.616,0,0,1,85,1.774a1.615,1.615,0,0,1-1.386,1.774c-1.712,0-2.621,1.7-3.964,4.483C78.324,10.778,76.674,14.2,73.329,14.2Z" transform="translate(895 651.195) rotate(180)" fill="#be6a5d"/>
    <path id="Path_903570" data-name="Path 903570" d="M73.329,14.2c-3.343,0-4.994-3.417-6.319-6.164-1.343-2.779-2.253-4.483-3.964-4.483s-2.62,1.7-3.96,4.483C57.76,10.778,56.11,14.2,52.768,14.2s-4.994-3.417-6.319-6.164C45.107,5.252,44.2,3.548,42.487,3.548s-2.618,1.7-3.96,4.483C37.2,10.778,35.552,14.2,32.21,14.2s-4.992-3.417-6.316-6.164c-1.341-2.779-2.249-4.483-3.958-4.483s-2.617,1.7-3.958,4.483C16.652,10.778,15,14.2,11.661,14.2S6.671,10.778,5.345,8.031C4,5.252,3.1,3.548,1.387,3.548A1.616,1.616,0,0,1,0,1.774,1.617,1.617,0,0,1,1.387,0C4.727,0,6.378,3.419,7.7,6.166c1.34,2.777,2.249,4.481,3.958,4.481s2.617-1.7,3.958-4.481C16.945,3.419,18.6,0,21.936,0s4.991,3.419,6.315,6.164c1.341,2.779,2.249,4.483,3.96,4.483s2.618-1.7,3.96-4.483C37.5,3.419,39.146,0,42.487,0s4.992,3.419,6.319,6.164c1.34,2.779,2.249,4.483,3.961,4.483s2.618-1.7,3.96-4.483C58.052,3.419,59.7,0,63.045,0s5,3.419,6.321,6.164c1.343,2.779,2.253,4.483,3.963,4.483s2.621-1.7,3.964-4.483C78.619,3.419,80.271,0,83.614,0A1.616,1.616,0,0,1,85,1.774a1.615,1.615,0,0,1-1.386,1.774c-1.712,0-2.621,1.7-3.964,4.483C78.324,10.778,76.674,14.2,73.329,14.2Z" transform="translate(895 666.195) rotate(180)" fill="#be6a5d"/>
  </g>
</svg>
