<svg xmlns="http://www.w3.org/2000/svg" xmlns:xlink="http://www.w3.org/1999/xlink" width="400" height="139.475" viewBox="0 0 400 139.475">
  <defs>
    <clipPath id="clip-path">
      <rect id="Rectangle_404863" data-name="Rectangle 404863" width="105.305" height="125.593" fill="none"/>
    </clipPath>
    <clipPath id="clip-path-2">
      <rect id="Rectangle_404864" data-name="Rectangle 404864" width="160.376" height="108.822" fill="none"/>
    </clipPath>
    <clipPath id="clip-path-4">
      <rect id="Rectangle_404862" data-name="Rectangle 404862" width="137.811" height="139.475" fill="none"/>
    </clipPath>
  </defs>
  <g id="Group_1112146" data-name="Group 1112146" transform="translate(0 0)">
    <rect id="Rectangle_404603" data-name="Rectangle 404603" width="400" height="119.353" rx="8" transform="translate(0 20)" fill="#98d1d1"/>
    <g id="Group_1112140" data-name="Group 1112140" transform="translate(17.401 0)">
      <g id="Group_1112139" data-name="Group 1112139" clip-path="url(#clip-path)">
        <path id="Path_901790" data-name="Path 901790" d="M0,3.2V122.4a3.144,3.144,0,0,0,3.087,3.2h99.131a3.144,3.144,0,0,0,3.087-3.2V3.2A3.144,3.144,0,0,0,102.218,0H3.087A3.144,3.144,0,0,0,0,3.2" transform="translate(0 0)" fill="#e4eaee"/>
        <path id="Path_901791" data-name="Path 901791" d="M35.811,108.917H76.268a1.3,1.3,0,0,1,0,2.6H35.74a1.282,1.282,0,0,1-1.255-1.371,1.323,1.323,0,0,1,1.325-1.231" transform="translate(-3.982 -4.994)" fill="#98d1d1"/>
        <path id="Path_901792" data-name="Path 901792" d="M35.811,101.718H76.268a1.3,1.3,0,0,1,0,2.6H35.74a1.282,1.282,0,0,1-1.255-1.371,1.323,1.323,0,0,1,1.325-1.231" transform="translate(-3.982 -4.664)" fill="#98d1d1"/>
        <path id="Path_901793" data-name="Path 901793" d="M35.811,116.674H76.268a1.3,1.3,0,0,1,0,2.6H35.74a1.282,1.282,0,0,1-1.255-1.371,1.323,1.323,0,0,1,1.325-1.231" transform="translate(-3.982 -5.349)" fill="#98d1d1"/>
        <path id="Path_901794" data-name="Path 901794" d="M0,3.2V16.331H105.3V3.2A3.144,3.144,0,0,0,102.218,0H3.087A3.144,3.144,0,0,0,0,3.2" transform="translate(0 0)" fill="#fd9826"/>
        <path id="Path_901795" data-name="Path 901795" d="M65.253,57.429a21.445,21.445,0,0,0,.72,5.509c-3.857-.417-7.7-.964-11.53-1.571a33.683,33.683,0,0,1-.232-3.939c0-17.784,13.966-32.252,31.134-32.252q1.271,0,2.519.106c.028,3.843.1,7.687.2,11.529a19.385,19.385,0,0,0-2.719-.2c-11.08,0-20.092,9.337-20.092,20.814" transform="translate(-32.693 -1.154)" fill="#008d8e"/>
        <path id="Path_901796" data-name="Path 901796" d="M35.1,64.269A20.19,20.19,0,0,0,54.081,78.254c11.079,0,20.092-9.337,20.092-20.814A20.675,20.675,0,0,0,58.029,37.033c-.1-3.87-.175-7.74-.2-11.61,15.409,1.922,27.39,15.547,27.39,32.018,0,17.783-13.967,32.252-31.134,32.252-15.443,0-28.293-11.707-30.72-27,3.9.615,7.815,1.166,11.744,1.58" transform="translate(-1.428 -1.166)" fill="#fd9826"/>
      </g>
    </g>
    <g id="Group_1112145" data-name="Group 1112145" transform="translate(227.624 4.914)">
      <g id="Group_1112142" data-name="Group 1112142">
        <g id="Group_1112141" data-name="Group 1112141" clip-path="url(#clip-path-2)">
          <path id="Path_901797" data-name="Path 901797" d="M150.44,112.188H4.968A4.777,4.777,0,0,1,0,107.629V10.662A4.777,4.777,0,0,1,4.968,6.1H150.44a4.777,4.777,0,0,1,4.968,4.56v96.967a4.777,4.777,0,0,1-4.968,4.56" transform="translate(0 -3.366)" fill="#003f62"/>
          <path id="Path_901798" data-name="Path 901798" d="M160.61,106.086H15.138a4.777,4.777,0,0,1-4.968-4.56V4.56A4.777,4.777,0,0,1,15.138,0H160.61a4.777,4.777,0,0,1,4.968,4.56v96.967a4.777,4.777,0,0,1-4.968,4.56" transform="translate(-5.202)" fill="#fcfbff"/>
        </g>
      </g>
      <text id="_50_100" data-name="50 / 100" transform="translate(58.75 30.262)" fill="#7040bf" font-size="6" font-family="Poppins-SemiBold, Poppins" font-weight="600"><tspan x="0" y="0">50 / 100</tspan></text>
      <g id="Group_1112144" data-name="Group 1112144">
        <g id="Group_1112143" data-name="Group 1112143" clip-path="url(#clip-path-2)">
          <path id="Path_1242385" data-name="Path 1242385" d="M0,0H16.147V23.19H0Z" transform="translate(119.481 46.467)" fill="#98d1d1"/>
          <path id="Path_1242384" data-name="Path 1242384" d="M0,0H16.146V34.383H0Z" transform="translate(58.963 35.275)" fill="#fd9826"/>
          <rect id="Rectangle_404867" data-name="Rectangle 404867" width="16.146" height="29.86" transform="translate(90.252 39.798)" fill="#e4f2f3"/>
          <line id="Line_1123" data-name="Line 1123" x1="87.755" transform="translate(53.275 69.657)" fill="none" stroke="#1574dd" stroke-miterlimit="10" stroke-width="0.75"/>
          <path id="Path_901799" data-name="Path 901799" d="M85.668,42.271a17.3,17.3,0,0,0-15.518-9.05V48.952Z" transform="translate(-35.88 -18.326)" fill="#008d8e"/>
          <path id="Path_901800" data-name="Path 901800" d="M52.012,64.643c-9.553,0-17.323-7.132-17.323-15.9s7.771-15.9,17.323-15.9,17.323,7.132,17.323,15.9-7.771,15.9-17.323,15.9m0-31.461c-9.35,0-16.957,6.981-16.957,15.563s7.607,15.562,16.957,15.562,16.957-6.981,16.957-15.562S61.362,33.182,52.012,33.182" transform="translate(-17.743 -18.12)" fill="#98d1d1"/>
          <rect id="Rectangle_404868" data-name="Rectangle 404868" width="16.956" height="2.394" transform="translate(57.868 11.019)" fill="#fd9826"/>
          <rect id="Rectangle_404869" data-name="Rectangle 404869" width="26.892" height="2.394" transform="translate(57.868 15.807)" fill="#e4f2f3"/>
          <rect id="Rectangle_404870" data-name="Rectangle 404870" width="26.892" height="2.394" transform="translate(57.868 19.796)" fill="#e4f2f3"/>
          <rect id="Rectangle_404871" data-name="Rectangle 404871" width="16.955" height="2.394" transform="translate(58.677 74.939)" fill="#fd9826"/>
          <rect id="Rectangle_404872" data-name="Rectangle 404872" width="26.892" height="2.394" transform="translate(58.677 79.726)" fill="#cbe7e8"/>
          <rect id="Rectangle_404873" data-name="Rectangle 404873" width="16.955" height="2.394" transform="translate(58.677 83.716)" fill="#cbe7e8"/>
          <rect id="Rectangle_404874" data-name="Rectangle 404874" width="16.956" height="2.394" transform="translate(100.376 74.939)" fill="#fd9826"/>
          <rect id="Rectangle_404875" data-name="Rectangle 404875" width="26.892" height="2.394" transform="translate(100.376 79.726)" fill="#cbe7e8"/>
          <rect id="Rectangle_404876" data-name="Rectangle 404876" width="16.956" height="2.394" transform="translate(100.376 83.716)" fill="#cbe7e8"/>
          <rect id="Rectangle_404877" data-name="Rectangle 404877" width="9.71" height="2.394" transform="translate(17.13 50.545)" fill="#008d8e"/>
          <rect id="Rectangle_404878" data-name="Rectangle 404878" width="15.401" height="2.394" transform="translate(17.13 55.332)" fill="#008d8e"/>
          <rect id="Rectangle_404879" data-name="Rectangle 404879" width="9.71" height="2.394" transform="translate(17.13 62.476)" fill="#008d8e"/>
          <rect id="Rectangle_404880" data-name="Rectangle 404880" width="15.401" height="2.394" transform="translate(17.13 67.264)" fill="#008d8e"/>
          <rect id="Rectangle_404881" data-name="Rectangle 404881" width="9.71" height="2.394" transform="translate(17.13 74.407)" fill="#008d8e"/>
          <rect id="Rectangle_404882" data-name="Rectangle 404882" width="15.401" height="2.394" transform="translate(17.13 79.195)" fill="#008d8e"/>
        </g>
      </g>
    </g>
    <g id="Group_1112137" data-name="Group 1112137" transform="translate(105 0)">
      <g id="Group_1112136" data-name="Group 1112136" clip-path="url(#clip-path-4)">
        <path id="Path_901722" data-name="Path 901722" d="M76.393,164.318c-5.862-31.1,17.929-59.664,48.617-58.9,10.856.27,23.121,2.463,31.333,9.655,17.865,15.645,19.935,60.486.84,64.9-27.394,6.335-57.863,1.473-67.058.7-3.161-.266-12.1-7.716-13.733-16.355" transform="translate(-32.834 -43.919)" fill="#ffac00"/>
        <path id="Path_901723" data-name="Path 901723" d="M216.581,124.853a64.573,64.573,0,0,1,6.164,25.168,67.615,67.615,0,0,1-3.978,25.861,62.131,62.131,0,0,1-6.636,13.143c-.171.256-.58.013-.407-.246a63.578,63.578,0,0,0,9.514-23.825,67.234,67.234,0,0,0-.355-25.988,62.193,62.193,0,0,0-4.709-13.868c-.134-.28.273-.527.407-.246" transform="translate(-92.058 -51.972)" fill="#9e7035"/>
        <path id="Path_901724" data-name="Path 901724" d="M164.938,117.874s15.093,6.092,12.208,23.344c-1.721,10.292-18.471,7.584-32.612,6.683s-23.275-10.406-18.088-15.75,38.492-14.278,38.492-14.278" transform="translate(-54.35 -49.116)" fill="#9e7035"/>
        <path id="Path_901725" data-name="Path 901725" d="M153.021,12.885s-3.07-8.069,4.783-7.574c0,0,1.836-3.3,7.191-2.159s9.7,5.1,8.908,10.493-1.641,12.568,3.134,14.451,8.742,4.343,8.8,10.062-2.557,9.1,0,12.334-3,9.076-9.847,8.282-8.11-22.925-15.247-22.023-7.7-3.915-6.169-8.388-2.063-11.966-1.551-15.478" transform="translate(-66.289 -1.213)" fill="#00184c"/>
        <path id="Path_901726" data-name="Path 901726" d="M176.984,5.673S177.658-.6,183.318.047s4.854,10.579,0,9.942a7.837,7.837,0,0,1-6.334-4.316" transform="translate(-76.968 0)" fill="#00184c"/>
        <path id="Path_901727" data-name="Path 901727" d="M155.234,49.363a70.5,70.5,0,0,1-8.916,5.557c-3.693,1.755.094,6.569-.891,8.154s-3.248,5.126-2.78,7.88,4.3,5.2,3.82,6.723-3.73,14.379-5.045,18.446c-1.243,3.846,3.733,7.807,10.708,7.846s8.046.964,15.61-.708c7.055-1.559,10.463-4.3,8.793-7.45s-4.5-7.526-5.688-13.566,1.976-10.226,4.625-19.785c3.344-12.068-2.366-13.549-10.726-14.5a19.37,19.37,0,0,0-9.509,1.4" transform="translate(-61.419 -19.938)" fill="#f6cbc2"/>
        <path id="Path_901728" data-name="Path 901728" d="M143.546,61.841s-5.267,8.174-5.739,11.744,6.4,3.843,6.4,3.843,2.129-11.882-.662-15.587" transform="translate(-59.92 -25.768)" fill="#f6cbc2"/>
        <path id="Path_901729" data-name="Path 901729" d="M147.321,121.16a38.668,38.668,0,0,0,23.765,7.429c.312-.009.313-.51,0-.5a38.242,38.242,0,0,1-23.52-7.36c-.256-.187-.5.248-.245.433" transform="translate(-64.021 -50.285)" fill="#0559b5"/>
        <path id="Path_901730" data-name="Path 901730" d="M151.728,70.686c1.494,2.98,5.9,2.515,8.587,2.39A43.313,43.313,0,0,0,172.8,70.6c.3-.106.116-.577-.183-.471A42.908,42.908,0,0,1,161.5,72.5a32.157,32.157,0,0,1-5.352.05c-1.5-.138-3.209-.554-3.959-2.05-.144-.287-.6-.1-.456.189" transform="translate(-65.972 -29.214)" fill="#fef9f8"/>
        <path id="Path_901731" data-name="Path 901731" d="M152.362,97.876A51.328,51.328,0,0,1,169.341,99c.309.074.383-.428.076-.5a51.757,51.757,0,0,0-17.111-1.128.254.254,0,0,0,.055.5" transform="translate(-66.144 -40.464)" fill="#fef9f8"/>
        <path id="Path_901732" data-name="Path 901732" d="M191.949,69.134c-.1,2.854-2.007,5.377-3.23,7.831A28.9,28.9,0,0,0,185.9,84.97a15.991,15.991,0,0,0,.679,8.13,49.225,49.225,0,0,0,3.793,7.443c.765,1.354,1.658,2.645,2.321,4.057a8.415,8.415,0,0,1,.758,4.555c-.033.324.452.4.485.079a10.288,10.288,0,0,0-1.722-6.547c-1.469-2.481-2.994-4.957-4.245-7.565a16.373,16.373,0,0,1-1.747-8.878,25.729,25.729,0,0,1,2.675-8.517c1.294-2.673,3.434-5.421,3.54-8.515.011-.323-.474-.4-.485-.079" transform="translate(-80.74 -28.72)" fill="#fef9f8"/>
        <path id="Path_901733" data-name="Path 901733" d="M176.771,48.688a8.394,8.394,0,0,1-2.453,3.72,18.724,18.724,0,0,1-5.812,3.482c-1.793.673-3.98.712-5.34-.873A5.93,5.93,0,0,1,161.91,51.3c.157-.106.307-.209.45-.308a5.683,5.683,0,0,0,1.145,3.685c1.388,1.639,3.639,1.3,5.377.541,2.9-1.269,6.425-3.341,7.437-6.606.152.024.3.048.451.073" transform="translate(-70.412 -20.257)" fill="#fef9f8"/>
        <path id="Path_901734" data-name="Path 901734" d="M37.177,202.016l-5.574,8.33s1.372,3.7,4.887,4.226l8.49-9.826Z" transform="translate(-13.744 -84.176)" fill="#ffa189"/>
        <path id="Path_901735" data-name="Path 901735" d="M0,213.631,19.65,227.1c.23-.289.445-.6.653-.921.092-.142.171-.288.264-.428,1.839-2.745,5.529-8.6,3.746-8.588-2.627,1.382-5.193-1.716-5.193-1.716s-.251-4.011-2.107-4.119S15.7,213.8,13.1,214c-1.992.148-3.252-1.587-5.445-2.536a7.018,7.018,0,0,0-2.315-.572,5.545,5.545,0,0,0-4.321,1.46A5.271,5.271,0,0,0,0,213.631" transform="translate(0 -87.866)" fill="#00184c"/>
        <path id="Path_901736" data-name="Path 901736" d="M35.049,227.351a9.983,9.983,0,0,0-7.867,2.077c-.241.191-.476-.232-.238-.421a10.43,10.43,0,0,1,8.23-2.126c.3.05.172.519-.125.47" transform="translate(-11.674 -94.477)" fill="#fff"/>
        <path id="Path_901737" data-name="Path 901737" d="M23.955,215.419a.3.3,0,0,0,.092.027,3.752,3.752,0,0,1,.86,1.629c.075.3-.379.391-.453.095a3.251,3.251,0,0,0-.738-1.4c-.157-.173.023-.453.232-.354l.007,0" transform="translate(-10.287 -89.751)" fill="#fff"/>
        <path id="Path_901738" data-name="Path 901738" d="M22.278,215.276a.308.308,0,0,0,.092.027,3.752,3.752,0,0,1,.86,1.629c.075.3-.379.391-.453.095a3.245,3.245,0,0,0-.738-1.4c-.157-.173.023-.453.232-.354l.007,0" transform="translate(-9.558 -89.691)" fill="#fff"/>
        <path id="Path_901739" data-name="Path 901739" d="M20.194,214.9a.325.325,0,0,0,.092.027,3.746,3.746,0,0,1,.86,1.629c.075.3-.379.391-.453.094a3.252,3.252,0,0,0-.738-1.4c-.157-.173.023-.453.232-.354l.007,0" transform="translate(-8.652 -89.534)" fill="#fff"/>
        <path id="Path_901740" data-name="Path 901740" d="M18.025,213.923a.324.324,0,0,0,.092.027,3.746,3.746,0,0,1,.86,1.629c.075.3-.379.391-.453.094a3.254,3.254,0,0,0-.738-1.4c-.157-.173.023-.453.232-.354l.007,0" transform="translate(-7.709 -89.127)" fill="#fff"/>
        <path id="Path_901741" data-name="Path 901741" d="M1.8,212.35l4.636,3.178a4.856,4.856,0,0,0,2-4.066,7.011,7.011,0,0,0-2.315-.572A5.541,5.541,0,0,0,1.8,212.35" transform="translate(-0.782 -87.866)" fill="#fff"/>
        <path id="Path_901742" data-name="Path 901742" d="M0,214.688l19.65,13.471c.23-.289.445-.6.653-.921l.272-.423L1.017,213.406A5.271,5.271,0,0,0,0,214.688" transform="translate(0 -88.922)" fill="#00184c"/>
        <path id="Path_901743" data-name="Path 901743" d="M112.144,122.679s-13.177-8.055-35.233-11.731c-8.372-1.395-40.742,53.643-40.742,53.643l9.779,7.377c7.7-10.839,23.465-21.144,28.378-34.288.422-1.128,11.574,2.8,24.845,5.942,34.507,5.336,15.477-11.249,12.973-20.943" transform="translate(-15.729 -46.219)" fill="#b0c0d2"/>
        <path id="Path_901744" data-name="Path 901744" d="M83.113,150.226l-4.454-.637.29-.17a37.43,37.43,0,0,1-6.943,14.756,42.963,42.963,0,0,1-5.865,5.976c-2.445,2.131-4.718,4.454-7.223,6.515a59.223,59.223,0,0,0-6.7,7.005c-.2.233-.536-.113-.333-.345a69.057,69.057,0,0,1,5.717-6.165c1.12-1,2.3-1.921,3.417-2.935,1.169-1.064,2.305-2.166,3.469-3.237a70.038,70.038,0,0,0,6.135-5.872,36.47,36.47,0,0,0,4.659-6.951,36.973,36.973,0,0,0,3.211-8.877.241.241,0,0,1,.29-.17l4.454.637c.3.043.172.512-.125.47" transform="translate(-22.538 -62.134)" fill="#f3f9ff"/>
        <path id="Path_901745" data-name="Path 901745" d="M175.216,40.708s-4.454,6.471-9.5,2.823l.346-3.041.379-3.319.264-2.323,6.538-4.434Z" transform="translate(-72.068 -12.673)" fill="#ffa189"/>
        <path id="Path_901746" data-name="Path 901746" d="M172.251,37.029c-2.54,5.857-5,6.289-5.92,6.216l.378-3.319Z" transform="translate(-72.335 -15.429)" fill="#00184c"/>
        <path id="Path_901747" data-name="Path 901747" d="M171.158,20.362c-.5,2.333-1.086,3.13-2.587,5.464a8.312,8.312,0,0,1-5.062,3.443c-4.635.691-6.922-1.115-6.75-7.675.107-4.073-1.117-6.262-.216-7.892h0c.063-.077.125-.151.189-.224a8.755,8.755,0,0,1,5.954-2.965c11.314-.86,9.191,6.5,8.47,9.849" transform="translate(-67.934 -4.352)" fill="#ffa189"/>
        <path id="Path_901748" data-name="Path 901748" d="M162.347,34.444a2.93,2.93,0,0,0,2.859-1.23c.177-.253-.183-.569-.36-.314a2.47,2.47,0,0,1-2.418,1.065.244.244,0,0,0-.081.479" transform="translate(-70.52 -13.669)" fill="#00184c"/>
        <path id="Path_901749" data-name="Path 901749" d="M160.71,27.707c-.006.33-.206.593-.445.588s-.429-.276-.422-.606.206-.593.445-.588.428.276.422.606" transform="translate(-69.513 -11.292)" fill="#00184c"/>
        <path id="Path_901750" data-name="Path 901750" d="M167.1,27c-.006.33-.206.593-.445.588s-.429-.276-.422-.606.206-.593.445-.588.428.276.422.606" transform="translate(-72.293 -10.997)" fill="#00184c"/>
        <path id="Path_901751" data-name="Path 901751" d="M156.668,9.543c6.616-4,12.616.136,13.851,2.722s1.547,7.012.038,6.356-4.111,1.886-5.288.253c-.653-.906.344-4.128.344-4.128s-5.284.9-4.7-2.651c0,0-2.84-2.35-4.352.031a6.833,6.833,0,0,0-1.3,4.109c-1.793.172-3.342-3.827,1.4-6.692" transform="translate(-66.762 -3.283)" fill="#00184c"/>
        <path id="Path_901752" data-name="Path 901752" d="M163.538,37.957a1.244,1.244,0,0,0,1.326-.253.205.205,0,0,0-.3-.284.87.87,0,0,1-.938.131c-.25-.076-.342.33-.093.405" transform="translate(-71.057 -15.566)" fill="#e87e64"/>
        <path id="Path_901753" data-name="Path 901753" d="M170.654,28.747c.012.348-.5.65-1.151.674s-1.182-.239-1.195-.587.5-.65,1.151-.674,1.183.239,1.195.587" transform="translate(-73.195 -11.733)" fill="#e87e64"/>
        <path id="Path_901754" data-name="Path 901754" d="M159.113,29.786c.012.349-.5.65-1.15.675a1.827,1.827,0,0,1-.8-.136c0-.3,0-.6.008-.916,0-.013,0-.026,0-.038a1.9,1.9,0,0,1,.744-.171c.647-.024,1.182.239,1.194.586" transform="translate(-68.349 -12.166)" fill="#e87e64"/>
        <path id="Path_901755" data-name="Path 901755" d="M166.638,22.671a.93.93,0,0,1,1.282.383c.2.488.977.244.771-.25a1.713,1.713,0,0,0-2.3-.929c-.474.208-.237,1.006.242.8" transform="translate(-72.251 -9.052)" fill="#00184c"/>
        <path id="Path_901756" data-name="Path 901756" d="M158.308,23.469c.3-.407.666-.992,1.233-.87a.417.417,0,0,0,.186-.812c-.9-.193-1.511.428-2.011,1.114-.309.425.279,1,.592.568" transform="translate(-68.55 -9.063)" fill="#00184c"/>
        <path id="Path_901757" data-name="Path 901757" d="M174.8,27.37a3,3,0,0,1,.258-2.531c.578-.989,1.655-2.518,2.746-2.406,1.6.165,1.847,1.622,1.746,3.12s-.979,3.488-2.982,3.252A2.061,2.061,0,0,1,174.8,27.37" transform="translate(-75.944 -9.345)" fill="#ffa189"/>
        <path id="Path_901758" data-name="Path 901758" d="M178.155,33.578a2.037,2.037,0,1,1,2.123,2.008,2.08,2.08,0,0,1-2.123-2.008m.457-.02a1.58,1.58,0,1,0,1.508-1.7,1.6,1.6,0,0,0-1.508,1.7" transform="translate(-77.476 -13.077)" fill="#fff"/>
        <path id="Path_901759" data-name="Path 901759" d="M178.274,27.864a3.837,3.837,0,0,1-.005-1.838c.166-.535.686-1.329,1.348-1.15.222.059.351-.287.127-.347a1.446,1.446,0,0,0-1.548.79,3.61,3.61,0,0,0-.275,2.611.18.18,0,0,0,.354-.065" transform="translate(-77.325 -10.204)" fill="#00184c"/>
        <path id="Path_901760" data-name="Path 901760" d="M164.824,27.374a2.858,2.858,0,0,1,.084-3.533,1.956,1.956,0,0,1,1.526-.709,2.35,2.35,0,0,1,2.061,2.567,2.753,2.753,0,0,1-.654,1.751,1.954,1.954,0,0,1-1.526.708c-.053,0-.105,0-.157-.01a1.985,1.985,0,0,1-1.334-.773m3.3-1.684a1.98,1.98,0,0,0-1.7-2.179,1.6,1.6,0,0,0-1.246.584,2.469,2.469,0,0,0-.072,3.04,1.54,1.54,0,0,0,2.462.062A2.365,2.365,0,0,0,168.129,25.69Z" transform="translate(-71.431 -9.639)" fill="#fff"/>
        <path id="Path_901761" data-name="Path 901761" d="M159.7,27.04a.2.2,0,0,1,.18-.029,2.982,2.982,0,0,0,.024-.3,2.349,2.349,0,0,0-2.061-2.567,1.956,1.956,0,0,0-1.526.708,2.857,2.857,0,0,0-.084,3.533,1.986,1.986,0,0,0,1.334.773q.078.009.158.011a1.953,1.953,0,0,0,1.526-.708,2.5,2.5,0,0,0,.327-.481.649.649,0,0,1,.123-.939m-.721,1.165a1.54,1.54,0,0,1-2.462-.062,2.47,2.47,0,0,1,.072-3.04,1.6,1.6,0,0,1,1.246-.584,1.98,1.98,0,0,1,1.7,2.179,2.368,2.368,0,0,1-.559,1.507" transform="translate(-67.695 -10.059)" fill="#fff"/>
        <path id="Path_901762" data-name="Path 901762" d="M162.927,29.607h0a.849.849,0,0,1-.847-.755.859.859,0,0,1,.7-.86l.214-.707a.156.156,0,0,1,.2-.107.164.164,0,0,1,.1.2l-.242.8a.16.16,0,0,1-.127.112c-.023,0-.561.1-.536.541.023.411.527.447.549.449a.161.161,0,0,1,.148.171.159.159,0,0,1-.162.153" transform="translate(-70.484 -11.322)" fill="#00184c"/>
        <path id="Path_901763" data-name="Path 901763" d="M162.694,27.013a.9.9,0,0,1,1-.257.141.141,0,0,1-.1.264.62.62,0,0,0-.68.162c-.119.132-.341-.035-.22-.169" transform="translate(-70.738 -11.124)" fill="#fff"/>
        <path id="Path_901764" data-name="Path 901764" d="M171.184,24.7a4.617,4.617,0,0,1,3.058-1.626c.175-.018.22.261.044.28a4.337,4.337,0,0,0-2.881,1.514c-.116.135-.339-.031-.221-.169" transform="translate(-74.431 -9.613)" fill="#fff"/>
        <path id="Path_901765" data-name="Path 901765" d="M123.792,203.773l1.421,10.017s3.444,1.739,6.366-.345l-.275-13.163Z" transform="translate(-53.835 -83.454)" fill="#ffa189"/>
        <path id="Path_901766" data-name="Path 901766" d="M100.627,230.664h23.589c.037-.372.05-.752.05-1.14,0-.17-.012-.337-.009-.507.06-3.337,0-10.322-1.482-9.293-1.448,2.651-5.246,1.536-5.246,1.536s-2.359-3.2-3.963-2.229.229,2.812-1.832,4.459c-1.581,1.261-3.559.535-5.9,1a7.057,7.057,0,0,0-2.235.846,5.81,5.81,0,0,0-2.817,3.684,5.45,5.45,0,0,0-.16,1.648" transform="translate(-43.757 -91.189)" fill="#00184c"/>
        <path id="Path_901767" data-name="Path 901767" d="M137.342,226.019a10.432,10.432,0,0,0-5.47,6.2c-.1.3-.553.169-.455-.13A10.9,10.9,0,0,1,137.1,225.6c.274-.128.514.291.238.421" transform="translate(-57.145 -93.993)" fill="#fff"/>
        <path id="Path_901768" data-name="Path 901768" d="M120.55,225.564a.3.3,0,0,0,.091-.03,3.561,3.561,0,0,1,1.589.866c.222.205-.106.542-.327.337a3.082,3.082,0,0,0-1.364-.745.22.22,0,0,1,0-.428h.008" transform="translate(-52.348 -93.976)" fill="#fff"/>
        <path id="Path_901769" data-name="Path 901769" d="M119.075,226.373a.3.3,0,0,0,.09-.03,3.566,3.566,0,0,1,1.59.866c.221.205-.107.542-.327.337a3.087,3.087,0,0,0-1.365-.745.22.22,0,0,1,0-.428h.008" transform="translate(-51.706 -94.313)" fill="#fff"/>
        <path id="Path_901770" data-name="Path 901770" d="M117.131,227.213a.3.3,0,0,0,.091-.03,3.562,3.562,0,0,1,1.589.866c.222.205-.106.542-.327.337a3.082,3.082,0,0,0-1.364-.745.22.22,0,0,1,0-.428h.008" transform="translate(-50.861 -94.663)" fill="#fff"/>
        <path id="Path_901771" data-name="Path 901771" d="M114.783,227.6a.306.306,0,0,0,.091-.03,3.557,3.557,0,0,1,1.589.866c.222.205-.106.542-.327.337a3.082,3.082,0,0,0-1.364-.745.22.22,0,0,1,0-.428h.008" transform="translate(-49.84 -94.824)" fill="#fff"/>
        <path id="Path_901772" data-name="Path 901772" d="M100.918,233.044h5.565a4.927,4.927,0,0,0-.513-4.529,7.046,7.046,0,0,0-2.235.845,5.811,5.811,0,0,0-2.817,3.684" transform="translate(-43.888 -95.218)" fill="#fff"/>
        <path id="Path_901773" data-name="Path 901773" d="M100.627,237.927h23.589c.037-.372.05-.752.05-1.14v-.508H100.787a5.45,5.45,0,0,0-.16,1.648" transform="translate(-43.757 -98.453)" fill="#00184c"/>
        <path id="Path_901774" data-name="Path 901774" d="M162.8,123.4s-20.888-8.665-42.948-12.32-4.55,56.9-4.55,56.9l12.054-1.731s-1.573-30.617-.909-31.988c.524-1.082,6.783,10.73,24.3,11.217,23,.621,15.638-15.9,12.052-22.078" transform="translate(-47.276 -46.219)" fill="#b0c0d2"/>
        <path id="Path_901775" data-name="Path 901775" d="M135,175.776q-.986-9.039-1.521-18.123-.272-4.482-.445-8.97c-.071-1.851-.482-4.829,1.637-5.694,2.16-.881,3.97,1.1,5.384,2.463a23.394,23.394,0,0,0,6.445,4.34,43.277,43.277,0,0,0,15.273,3.515,17.777,17.777,0,0,0,9.332-1.439,9.888,9.888,0,0,0,5.225-6.111.237.237,0,0,1,.455.13c-1.241,4.652-5.721,7.206-10.092,7.8a31.186,31.186,0,0,1-8.123-.212,50.827,50.827,0,0,1-7.227-1.408,31.479,31.479,0,0,1-6.663-2.647,26.727,26.727,0,0,1-5.792-4.443c-1-.966-2.293-1.993-3.755-1.625-1.487.374-1.7,2.047-1.693,3.378.02,2.923.223,5.858.385,8.776.376,6.771.912,13.534,1.647,20.273.034.311-.438.309-.472,0" transform="translate(-57.82 -59.49)" fill="#f3f9ff"/>
        <path id="Path_901776" data-name="Path 901776" d="M184.882,125.026a25.042,25.042,0,0,0,4.641,7.089,22.537,22.537,0,0,0,3.227,2.876c1.129.815,3.128,1.687,3.974-.01.139-.279.546-.033.407.246a2.417,2.417,0,0,1-2.957,1.086,11.08,11.08,0,0,1-3.89-2.757,25.281,25.281,0,0,1-5.81-8.284c-.124-.283.283-.531.407-.246" transform="translate(-80.215 -52.043)" fill="#f3f9ff"/>
        <path id="Path_901777" data-name="Path 901777" d="M107.819,138.024q-.682-7.253-1.364-14.506c-.323-3.44-.535-8.152,3.251-9.681.283-.114.406.356.125.469-4.087,1.651-3.08,7.337-2.753,10.824q.606,6.448,1.213,12.894c.029.312-.443.31-.472,0" transform="translate(-46.226 -47.426)" fill="#f3f9ff"/>
        <path id="Path_901778" data-name="Path 901778" d="M39.185,198.712a108.545,108.545,0,0,0,9.424,6.859c.257.166.02.588-.238.421a109.781,109.781,0,0,1-9.52-6.936c-.238-.194.1-.536.333-.344" transform="translate(-16.86 -82.776)" fill="#f3f9ff"/>
        <path id="Path_901779" data-name="Path 901779" d="M119.056,200.046l11.979-1.112c.3-.028.3.459,0,.487l-11.979,1.112c-.3.028-.3-.459,0-.487" transform="translate(-51.677 -82.891)" fill="#f3f9ff"/>
        <path id="Path_901780" data-name="Path 901780" d="M171,72.326s.076,14.841-.934,17.024-19.635,3.029-19.635,3.029l-.775,2.883s19.422,7.048,26.749,1.928c5.2-3.632,5.409-26.6,5.409-26.6Z" transform="translate(-65.083 -29.411)" fill="#ffa189"/>
        <path id="Path_901781" data-name="Path 901781" d="M185.72,103.2a12.664,12.664,0,0,1,2.972,1.062c.272.137.511-.283.238-.421a13.228,13.228,0,0,0-3.086-1.111c-.3-.066-.422.4-.125.47" transform="translate(-80.693 -42.802)" fill="#e87e64"/>
        <path id="Path_901782" data-name="Path 901782" d="M187.881,102.973a9.617,9.617,0,0,1,2.757-.785c.3-.039.3-.526,0-.487a10.427,10.427,0,0,0-2.995.852c-.277.125-.038.545.238.421" transform="translate(-81.55 -42.376)" fill="#e87e64"/>
        <path id="Path_901783" data-name="Path 901783" d="M193.971,54.4a26.57,26.57,0,0,1,3.057,14.828L183.936,68.8a41.81,41.81,0,0,1-1.008-11.734c.33-3.441,1.979-5.069,3.831-5.786,2.983-1.156,5.623.273,7.212,3.123" transform="translate(-79.506 -21.198)" fill="#f6cbc2"/>
        <path id="Path_901784" data-name="Path 901784" d="M184.814,60.446a29.044,29.044,0,0,0,.723,11.793.236.236,0,0,1-.455.129,29.647,29.647,0,0,1-.723-12.052c.045-.309.5-.177.455.129" transform="translate(-80.04 -25.059)" fill="#fef9f8"/>
        <path id="Path_901785" data-name="Path 901785" d="M141.617,115.592l-46.56-3.862L94.12,106.6l46.561,3.862Z" transform="translate(-40.931 -44.417)" fill="#cbd8df"/>
        <path id="Path_901786" data-name="Path 901786" d="M123.275,94.162,97.246,92a2.092,2.092,0,0,1-1.816-1.85L91.955,67.58a2.219,2.219,0,0,1,2.169-2.687l26.352,2.186a2.729,2.729,0,0,1,2.371,2.414l3.258,21.162a2.9,2.9,0,0,1-2.831,3.506" transform="translate(-39.977 -27.037)" fill="#7040bf"/>
        <path id="Path_901787" data-name="Path 901787" d="M119.488,93.857,93.46,91.7a2.092,2.092,0,0,1-1.817-1.85L88.168,67.275a2.219,2.219,0,0,1,2.169-2.687l26.352,2.186a2.729,2.729,0,0,1,2.371,2.414l3.258,21.162a2.9,2.9,0,0,1-2.831,3.506" transform="translate(-38.33 -26.91)" fill="#e4eaee"/>
        <path id="Path_901788" data-name="Path 901788" d="M118.793,90.4c.136,1.823-1,3.2-2.541,3.069a3.729,3.729,0,0,1-3.034-3.531c-.136-1.823,1-3.2,2.541-3.07a3.729,3.729,0,0,1,3.034,3.532" transform="translate(-49.232 -36.193)" fill="#0d2f78"/>
        <path id="Path_901789" data-name="Path 901789" d="M142.809,71.975l3.4,22.647c.046.306-.408.439-.454.13q-1.7-11.324-3.4-22.647c-.046-.307.409-.439.455-.13" transform="translate(-61.907 -29.917)" fill="#0d2f78"/>
      </g>
    </g>
  </g>
</svg>
