<svg xmlns="http://www.w3.org/2000/svg" xmlns:xlink="http://www.w3.org/1999/xlink" width="113.15" height="113.15" viewBox="0 0 113.15 113.15">
  <defs>
    <filter id="Path_873828" x="0" y="0" width="113.15" height="113.15" filterUnits="userSpaceOnUse">
      <feOffset dy="3" input="SourceAlpha"/>
      <feGaussianBlur stdDeviation="3" result="blur"/>
      <feFlood flood-opacity="0.161"/>
      <feComposite operator="in" in2="blur"/>
    </filter>
    <filter id="Path_873828-2" x="0" y="0" width="113.15" height="113.15" filterUnits="userSpaceOnUse">
      <feOffset dy="3" input="SourceAlpha"/>
      <feGaussianBlur stdDeviation="3" result="blur-2"/>
      <feFlood flood-opacity="0.161" result="color"/>
      <feComposite operator="out" in="SourceGraphic" in2="blur-2"/>
      <feComposite operator="in" in="color"/>
      <feComposite operator="in" in2="SourceGraphic"/>
    </filter>
  </defs>
  <g id="Group_1113456" data-name="Group 1113456" transform="translate(-189.051 -912)">
    <g data-type="innerShadowGroup">
      <g transform="matrix(1, 0, 0, 1, 189.05, 912)" filter="url(#Path_873828)">
        <g id="Path_873828-3" data-name="Path 873828" transform="translate(9 6)" fill="#fd9826">
          <path d="M 47.57511901855469 93.150390625 C 41.42163467407227 93.150390625 35.45327758789062 91.94566345214844 29.83584785461426 89.56969451904297 C 24.40903282165527 87.27433776855469 19.53483390808105 83.98792266845703 15.34864711761475 79.80171966552734 C 11.16246223449707 75.61553192138672 7.876047611236572 70.7413330078125 5.580704689025879 65.31450653076172 C 3.204719066619873 59.69704818725586 2.000004768371582 53.72869110107422 2.000004768371582 47.57519149780273 C 2.000004768371582 41.42169189453125 3.204719066619873 35.45333480834961 5.580704689025879 29.83587646484375 C 7.876047611236572 24.4090633392334 11.16246223449707 19.53484916687012 15.34864711761475 15.34866333007812 C 19.53483390808105 11.16247749328613 24.40903282165527 7.876062870025635 29.83584785461426 5.580705642700195 C 35.45327758789062 3.204734325408936 41.42163467407227 2.000005722045898 47.57511901855469 2.000005722045898 C 53.72860336303711 2.000005722045898 59.69696044921875 3.204734325408936 65.31439208984375 5.580705642700195 C 70.74120330810547 7.876062870025635 75.61540222167969 11.16247749328613 79.80158996582031 15.34866333007812 C 83.98777770996094 19.53484916687012 87.27419281005859 24.4090633392334 89.56953430175781 29.83587646484375 C 91.94551849365234 35.45333480834961 93.15023040771484 41.42169189453125 93.15023040771484 47.57519149780273 C 93.15023040771484 53.72869110107422 91.94551849365234 59.69704818725586 89.56953430175781 65.31450653076172 C 87.27419281005859 70.7413330078125 83.98777770996094 75.61553192138672 79.80158996582031 79.80171966552734 C 75.61540222167969 83.98792266845703 70.74120330810547 87.27433776855469 65.31439208984375 89.56969451904297 C 59.69696044921875 91.94566345214844 53.72860336303711 93.150390625 47.57511901855469 93.150390625 Z" stroke="none"/>
          <path d="M 47.57511901855469 3.999992370605469 C 41.69075012207031 3.999992370605469 35.98453521728516 5.151557922363281 30.61495208740234 7.422698974609375 C 25.42653656005859 9.617225646972656 20.76601409912109 12.75971221923828 16.76285552978516 16.76287078857422 C 12.75970458984375 20.76603698730469 9.617225646972656 25.42655944824219 7.422706604003906 30.614990234375 C 5.151565551757812 35.98457717895508 3.999992370605469 41.69082260131836 3.999992370605469 47.57519149780273 C 3.999992370605469 53.45957565307617 5.151565551757812 59.16580581665039 7.422706604003906 64.53540802001953 C 9.617225646972656 69.72382354736328 12.75970458984375 74.38434600830078 16.76285552978516 78.38749694824219 C 20.76601409912109 82.39067077636719 25.42652130126953 85.53314208984375 30.61495208740234 87.72766876220703 C 35.98451995849609 89.99880981445312 41.69075012207031 91.15037536621094 47.57511901855469 91.15037536621094 C 53.45948791503906 91.15037536621094 59.16571807861328 89.99880981445312 64.53528594970703 87.72766876220703 C 69.72371673583984 85.53314208984375 74.38422393798828 82.39067077636719 78.38738250732422 78.38749694824219 C 82.39053344726562 74.38434600830078 85.53301239013672 69.72382354736328 87.72753143310547 64.53540802001953 C 89.99867248535156 59.16580581665039 91.15024566650391 53.45957565307617 91.15024566650391 47.57519149780273 C 91.15024566650391 41.69082260131836 89.99867248535156 35.98457717895508 87.72753143310547 30.614990234375 C 85.53301239013672 25.42655944824219 82.39053344726562 20.76603698730469 78.38738250732422 16.76287078857422 C 74.38422393798828 12.75971221923828 69.72370147705078 9.617225646972656 64.53528594970703 7.422698974609375 C 59.16570281982422 5.151557922363281 53.45948791503906 3.999992370605469 47.57511901855469 3.999992370605469 M 47.57511901855469 -7.62939453125e-06 C 73.85013580322266 -7.62939453125e-06 95.15024566650391 21.30014801025391 95.15024566650391 47.57519149780273 C 95.15024566650391 73.85025024414062 73.85013580322266 95.15037536621094 47.57511901855469 95.15037536621094 C 21.30010223388672 95.15037536621094 -7.62939453125e-06 73.85025024414062 -7.62939453125e-06 47.57519149780273 C -7.62939453125e-06 21.30014801025391 21.30010223388672 -7.62939453125e-06 47.57511901855469 -7.62939453125e-06 Z" stroke="none" fill="#fff"/>
        </g>
      </g>
      <g id="Path_873828-4" data-name="Path 873828" transform="translate(198.051 918)" fill="#fd9826">
        <path d="M 47.57511901855469 93.150390625 C 41.42163467407227 93.150390625 35.45327758789062 91.94566345214844 29.83584785461426 89.56969451904297 C 24.40903282165527 87.27433776855469 19.53483390808105 83.98792266845703 15.34864711761475 79.80171966552734 C 11.16246223449707 75.61553192138672 7.876047611236572 70.7413330078125 5.580704689025879 65.31450653076172 C 3.204719066619873 59.69704818725586 2.000004768371582 53.72869110107422 2.000004768371582 47.57519149780273 C 2.000004768371582 41.42169189453125 3.204719066619873 35.45333480834961 5.580704689025879 29.83587646484375 C 7.876047611236572 24.4090633392334 11.16246223449707 19.53484916687012 15.34864711761475 15.34866333007812 C 19.53483390808105 11.16247749328613 24.40903282165527 7.876062870025635 29.83584785461426 5.580705642700195 C 35.45327758789062 3.204734325408936 41.42163467407227 2.000005722045898 47.57511901855469 2.000005722045898 C 53.72860336303711 2.000005722045898 59.69696044921875 3.204734325408936 65.31439208984375 5.580705642700195 C 70.74120330810547 7.876062870025635 75.61540222167969 11.16247749328613 79.80158996582031 15.34866333007812 C 83.98777770996094 19.53484916687012 87.27419281005859 24.4090633392334 89.56953430175781 29.83587646484375 C 91.94551849365234 35.45333480834961 93.15023040771484 41.42169189453125 93.15023040771484 47.57519149780273 C 93.15023040771484 53.72869110107422 91.94551849365234 59.69704818725586 89.56953430175781 65.31450653076172 C 87.27419281005859 70.7413330078125 83.98777770996094 75.61553192138672 79.80158996582031 79.80171966552734 C 75.61540222167969 83.98792266845703 70.74120330810547 87.27433776855469 65.31439208984375 89.56969451904297 C 59.69696044921875 91.94566345214844 53.72860336303711 93.150390625 47.57511901855469 93.150390625 Z" stroke="none"/>
        <path d="M 47.57511901855469 3.999992370605469 C 41.69075012207031 3.999992370605469 35.98453521728516 5.151557922363281 30.61495208740234 7.422698974609375 C 25.42653656005859 9.617225646972656 20.76601409912109 12.75971221923828 16.76285552978516 16.76287078857422 C 12.75970458984375 20.76603698730469 9.617225646972656 25.42655944824219 7.422706604003906 30.614990234375 C 5.151565551757812 35.98457717895508 3.999992370605469 41.69082260131836 3.999992370605469 47.57519149780273 C 3.999992370605469 53.45957565307617 5.151565551757812 59.16580581665039 7.422706604003906 64.53540802001953 C 9.617225646972656 69.72382354736328 12.75970458984375 74.38434600830078 16.76285552978516 78.38749694824219 C 20.76601409912109 82.39067077636719 25.42652130126953 85.53314208984375 30.61495208740234 87.72766876220703 C 35.98451995849609 89.99880981445312 41.69075012207031 91.15037536621094 47.57511901855469 91.15037536621094 C 53.45948791503906 91.15037536621094 59.16571807861328 89.99880981445312 64.53528594970703 87.72766876220703 C 69.72371673583984 85.53314208984375 74.38422393798828 82.39067077636719 78.38738250732422 78.38749694824219 C 82.39053344726562 74.38434600830078 85.53301239013672 69.72382354736328 87.72753143310547 64.53540802001953 C 89.99867248535156 59.16580581665039 91.15024566650391 53.45957565307617 91.15024566650391 47.57519149780273 C 91.15024566650391 41.69082260131836 89.99867248535156 35.98457717895508 87.72753143310547 30.614990234375 C 85.53301239013672 25.42655944824219 82.39053344726562 20.76603698730469 78.38738250732422 16.76287078857422 C 74.38422393798828 12.75971221923828 69.72370147705078 9.617225646972656 64.53528594970703 7.422698974609375 C 59.16570281982422 5.151557922363281 53.45948791503906 3.999992370605469 47.57511901855469 3.999992370605469 M 47.57511901855469 -7.62939453125e-06 C 73.85013580322266 -7.62939453125e-06 95.15024566650391 21.30014801025391 95.15024566650391 47.57519149780273 C 95.15024566650391 73.85025024414062 73.85013580322266 95.15037536621094 47.57511901855469 95.15037536621094 C 21.30010223388672 95.15037536621094 -7.62939453125e-06 73.85025024414062 -7.62939453125e-06 47.57519149780273 C -7.62939453125e-06 21.30014801025391 21.30010223388672 -7.62939453125e-06 47.57511901855469 -7.62939453125e-06 Z" stroke="none"/>
      </g>
      <g transform="matrix(1, 0, 0, 1, 189.05, 912)" filter="url(#Path_873828-2)">
        <g id="Path_873828-5" data-name="Path 873828" transform="translate(9 6)" fill="#fff">
          <path d="M 47.57511901855469 93.150390625 C 41.42163467407227 93.150390625 35.45327758789062 91.94566345214844 29.83584785461426 89.56969451904297 C 24.40903282165527 87.27433776855469 19.53483390808105 83.98792266845703 15.34864711761475 79.80171966552734 C 11.16246223449707 75.61553192138672 7.876047611236572 70.7413330078125 5.580704689025879 65.31450653076172 C 3.204719066619873 59.69704818725586 2.000004768371582 53.72869110107422 2.000004768371582 47.57519149780273 C 2.000004768371582 41.42169189453125 3.204719066619873 35.45333480834961 5.580704689025879 29.83587646484375 C 7.876047611236572 24.4090633392334 11.16246223449707 19.53484916687012 15.34864711761475 15.34866333007812 C 19.53483390808105 11.16247749328613 24.40903282165527 7.876062870025635 29.83584785461426 5.580705642700195 C 35.45327758789062 3.204734325408936 41.42163467407227 2.000005722045898 47.57511901855469 2.000005722045898 C 53.72860336303711 2.000005722045898 59.69696044921875 3.204734325408936 65.31439208984375 5.580705642700195 C 70.74120330810547 7.876062870025635 75.61540222167969 11.16247749328613 79.80158996582031 15.34866333007812 C 83.98777770996094 19.53484916687012 87.27419281005859 24.4090633392334 89.56953430175781 29.83587646484375 C 91.94551849365234 35.45333480834961 93.15023040771484 41.42169189453125 93.15023040771484 47.57519149780273 C 93.15023040771484 53.72869110107422 91.94551849365234 59.69704818725586 89.56953430175781 65.31450653076172 C 87.27419281005859 70.7413330078125 83.98777770996094 75.61553192138672 79.80158996582031 79.80171966552734 C 75.61540222167969 83.98792266845703 70.74120330810547 87.27433776855469 65.31439208984375 89.56969451904297 C 59.69696044921875 91.94566345214844 53.72860336303711 93.150390625 47.57511901855469 93.150390625 Z" stroke="none"/>
          <path d="M 47.57511901855469 3.999992370605469 C 41.69075012207031 3.999992370605469 35.98453521728516 5.151557922363281 30.61495208740234 7.422698974609375 C 25.42653656005859 9.617225646972656 20.76601409912109 12.75971221923828 16.76285552978516 16.76287078857422 C 12.75970458984375 20.76603698730469 9.617225646972656 25.42655944824219 7.422706604003906 30.614990234375 C 5.151565551757812 35.98457717895508 3.999992370605469 41.69082260131836 3.999992370605469 47.57519149780273 C 3.999992370605469 53.45957565307617 5.151565551757812 59.16580581665039 7.422706604003906 64.53540802001953 C 9.617225646972656 69.72382354736328 12.75970458984375 74.38434600830078 16.76285552978516 78.38749694824219 C 20.76601409912109 82.39067077636719 25.42652130126953 85.53314208984375 30.61495208740234 87.72766876220703 C 35.98451995849609 89.99880981445312 41.69075012207031 91.15037536621094 47.57511901855469 91.15037536621094 C 53.45948791503906 91.15037536621094 59.16571807861328 89.99880981445312 64.53528594970703 87.72766876220703 C 69.72371673583984 85.53314208984375 74.38422393798828 82.39067077636719 78.38738250732422 78.38749694824219 C 82.39053344726562 74.38434600830078 85.53301239013672 69.72382354736328 87.72753143310547 64.53540802001953 C 89.99867248535156 59.16580581665039 91.15024566650391 53.45957565307617 91.15024566650391 47.57519149780273 C 91.15024566650391 41.69082260131836 89.99867248535156 35.98457717895508 87.72753143310547 30.614990234375 C 85.53301239013672 25.42655944824219 82.39053344726562 20.76603698730469 78.38738250732422 16.76287078857422 C 74.38422393798828 12.75971221923828 69.72370147705078 9.617225646972656 64.53528594970703 7.422698974609375 C 59.16570281982422 5.151557922363281 53.45948791503906 3.999992370605469 47.57511901855469 3.999992370605469 M 47.57511901855469 -7.62939453125e-06 C 73.85013580322266 -7.62939453125e-06 95.15024566650391 21.30014801025391 95.15024566650391 47.57519149780273 C 95.15024566650391 73.85025024414062 73.85013580322266 95.15037536621094 47.57511901855469 95.15037536621094 C 21.30010223388672 95.15037536621094 -7.62939453125e-06 73.85025024414062 -7.62939453125e-06 47.57519149780273 C -7.62939453125e-06 21.30014801025391 21.30010223388672 -7.62939453125e-06 47.57511901855469 -7.62939453125e-06 Z" stroke="none"/>
        </g>
      </g>
      <g id="Path_873828-6" data-name="Path 873828" transform="translate(198.051 918)" fill="none">
        <path d="M 47.57511901855469 93.150390625 C 41.42163467407227 93.150390625 35.45327758789062 91.94566345214844 29.83584785461426 89.56969451904297 C 24.40903282165527 87.27433776855469 19.53483390808105 83.98792266845703 15.34864711761475 79.80171966552734 C 11.16246223449707 75.61553192138672 7.876047611236572 70.7413330078125 5.580704689025879 65.31450653076172 C 3.204719066619873 59.69704818725586 2.000004768371582 53.72869110107422 2.000004768371582 47.57519149780273 C 2.000004768371582 41.42169189453125 3.204719066619873 35.45333480834961 5.580704689025879 29.83587646484375 C 7.876047611236572 24.4090633392334 11.16246223449707 19.53484916687012 15.34864711761475 15.34866333007812 C 19.53483390808105 11.16247749328613 24.40903282165527 7.876062870025635 29.83584785461426 5.580705642700195 C 35.45327758789062 3.204734325408936 41.42163467407227 2.000005722045898 47.57511901855469 2.000005722045898 C 53.72860336303711 2.000005722045898 59.69696044921875 3.204734325408936 65.31439208984375 5.580705642700195 C 70.74120330810547 7.876062870025635 75.61540222167969 11.16247749328613 79.80158996582031 15.34866333007812 C 83.98777770996094 19.53484916687012 87.27419281005859 24.4090633392334 89.56953430175781 29.83587646484375 C 91.94551849365234 35.45333480834961 93.15023040771484 41.42169189453125 93.15023040771484 47.57519149780273 C 93.15023040771484 53.72869110107422 91.94551849365234 59.69704818725586 89.56953430175781 65.31450653076172 C 87.27419281005859 70.7413330078125 83.98777770996094 75.61553192138672 79.80158996582031 79.80171966552734 C 75.61540222167969 83.98792266845703 70.74120330810547 87.27433776855469 65.31439208984375 89.56969451904297 C 59.69696044921875 91.94566345214844 53.72860336303711 93.150390625 47.57511901855469 93.150390625 Z" stroke="none"/>
        <path d="M 47.57511901855469 3.999992370605469 C 41.69075012207031 3.999992370605469 35.98453521728516 5.151557922363281 30.61495208740234 7.422698974609375 C 25.42653656005859 9.617225646972656 20.76601409912109 12.75971221923828 16.76285552978516 16.76287078857422 C 12.75970458984375 20.76603698730469 9.617225646972656 25.42655944824219 7.422706604003906 30.614990234375 C 5.151565551757812 35.98457717895508 3.999992370605469 41.69082260131836 3.999992370605469 47.57519149780273 C 3.999992370605469 53.45957565307617 5.151565551757812 59.16580581665039 7.422706604003906 64.53540802001953 C 9.617225646972656 69.72382354736328 12.75970458984375 74.38434600830078 16.76285552978516 78.38749694824219 C 20.76601409912109 82.39067077636719 25.42652130126953 85.53314208984375 30.61495208740234 87.72766876220703 C 35.98451995849609 89.99880981445312 41.69075012207031 91.15037536621094 47.57511901855469 91.15037536621094 C 53.45948791503906 91.15037536621094 59.16571807861328 89.99880981445312 64.53528594970703 87.72766876220703 C 69.72371673583984 85.53314208984375 74.38422393798828 82.39067077636719 78.38738250732422 78.38749694824219 C 82.39053344726562 74.38434600830078 85.53301239013672 69.72382354736328 87.72753143310547 64.53540802001953 C 89.99867248535156 59.16580581665039 91.15024566650391 53.45957565307617 91.15024566650391 47.57519149780273 C 91.15024566650391 41.69082260131836 89.99867248535156 35.98457717895508 87.72753143310547 30.614990234375 C 85.53301239013672 25.42655944824219 82.39053344726562 20.76603698730469 78.38738250732422 16.76287078857422 C 74.38422393798828 12.75971221923828 69.72370147705078 9.617225646972656 64.53528594970703 7.422698974609375 C 59.16570281982422 5.151557922363281 53.45948791503906 3.999992370605469 47.57511901855469 3.999992370605469 M 47.57511901855469 -7.62939453125e-06 C 73.85013580322266 -7.62939453125e-06 95.15024566650391 21.30014801025391 95.15024566650391 47.57519149780273 C 95.15024566650391 73.85025024414062 73.85013580322266 95.15037536621094 47.57511901855469 95.15037536621094 C 21.30010223388672 95.15037536621094 -7.62939453125e-06 73.85025024414062 -7.62939453125e-06 47.57519149780273 C -7.62939453125e-06 21.30014801025391 21.30010223388672 -7.62939453125e-06 47.57511901855469 -7.62939453125e-06 Z" stroke="none" fill="#fff"/>
      </g>
    </g>
    <g id="Group_1113455" data-name="Group 1113455" transform="translate(219.051 910.89)">
      <g id="Group_1113453" data-name="Group 1113453" transform="translate(0.803 30.913)">
        <path id="Path_907146" data-name="Path 907146" d="M327.182,319.472l5.676,2.641,3.191-8.882a2.285,2.285,0,0,0-4.127-1.92Z" transform="translate(-292.949 -280.986)" fill="#ffac89"/>
        <path id="Path_907147" data-name="Path 907147" d="M372.915,320.041l5.492,3,3.762-8.656a2.285,2.285,0,0,0-3.993-2.185Z" transform="translate(-333.785 -281.897)" fill="#ffbf9d"/>
        <path id="Path_907148" data-name="Path 907148" d="M60.09,327.867l-4.76,5.068a8.351,8.351,0,0,1-2.279,1.712L46.312,338.2a9.637,9.637,0,0,1-6.982.788l-6.149-1.641-5.509-1.469a12.815,12.815,0,0,0-3.312-.435H9.106A1.606,1.606,0,0,1,7.5,333.84v-6.462a1.607,1.607,0,0,1,1.606-1.606H23.173a6.433,6.433,0,0,0,2.992-.739l1.163-.611a11.235,11.235,0,0,1,5.981-1.269,11.108,11.108,0,0,1,1.8.268l8.382,1.95a2.609,2.609,0,0,1,1.56,4.016l.635.363,1.287-.406,2.613-.058a2.082,2.082,0,0,0,1.157-.383l6.329-4.493a2.306,2.306,0,0,1,3.017,3.459Z" transform="translate(-7.5 -292.553)" fill="#ffd4bd"/>
        <path id="Path_907149" data-name="Path 907149" d="M33.182,337.352l-5.509-1.469a12.813,12.813,0,0,0-3.312-.435H9.106A1.606,1.606,0,0,1,7.5,333.841v-6.462a1.607,1.607,0,0,1,1.606-1.606H23.173a6.432,6.432,0,0,0,2.992-.739l1.163-.611a11.235,11.235,0,0,1,5.981-1.269c-1.538,1.714-5.732,7.458-.126,14.2Z" transform="translate(-7.5 -292.554)" fill="#ffbf9d"/>
        <path id="Path_907150" data-name="Path 907150" d="M287.65,50.51a12.9,12.9,0,0,1-12.9,12.9c-.048,0-.1,0-.145,0a12.855,12.855,0,0,1-9.1-3.9l-.242-17.737a12.862,12.862,0,0,1,8.61-4.13q.435-.03.877-.03A12.9,12.9,0,0,1,287.65,50.51Z" transform="translate(-237.661 -37.61)" fill="#73da8c"/>
        <path id="Path_907151" data-name="Path 907151" d="M246.139,63.656a12.9,12.9,0,0,1-.732-25.768C242.866,40.353,233.447,51.039,246.139,63.656Z" transform="translate(-209.195 -37.858)" fill="#29ce69"/>
        <path id="Path_907152" data-name="Path 907152" d="M303.622,78.425a9.681,9.681,0,0,1-13.073,9.062l-3.786-3.4V72.9l3.027-3.215a9.68,9.68,0,0,1,13.832,8.739Z" transform="translate(-256.859 -65.415)" fill="#fce3a0"/>
        <path id="Path_907153" data-name="Path 907153" d="M269.78,95.289a9.68,9.68,0,0,1-.759-17.8C266.559,81.558,264.686,87.953,269.78,95.289Z" transform="translate(-236.089 -73.217)" fill="#fdcb89"/>
      </g>
      <g id="Group_1113454" data-name="Group 1113454" transform="translate(0 30.11)">
        <path id="Path_907154" data-name="Path 907154" d="M54.631,306.971a3.1,3.1,0,0,0-4.5-1.62,3.088,3.088,0,0,0-5.606-1.2l-.077.114a3.087,3.087,0,0,0-5.369-.053L37.7,306.588a3.387,3.387,0,0,0-.725-.259l-8.383-1.95a12.048,12.048,0,0,0-8.338,1.073l-1.163.611a5.65,5.65,0,0,1-2.618.647H11.706a.8.8,0,0,0,0,1.606h4.769a7.263,7.263,0,0,0,3.366-.831L21,306.873a10.442,10.442,0,0,1,7.227-.93l8.383,1.95a1.805,1.805,0,0,1-.82,3.517l-5.055-1.176a.8.8,0,0,0-.364,1.564c5.585,1.3,5.3,1.266,5.829,1.266a3.424,3.424,0,0,0,2.545-1.143l4.16-.092a2.874,2.874,0,0,0,1.6-.531l6.33-4.494a1.5,1.5,0,0,1,2.278.716,1.474,1.474,0,0,1-.314,1.539l-4.759,5.068a7.541,7.541,0,0,1-2.068,1.552l-6.739,3.555a8.809,8.809,0,0,1-6.4.722l-11.658-3.11a13.672,13.672,0,0,0-3.519-.462H2.409a.8.8,0,0,1-.8-.8v-6.462a.8.8,0,0,1,.8-.8H7.958a.8.8,0,0,0,0-1.606H2.409A2.412,2.412,0,0,0,0,309.119v6.462a2.412,2.412,0,0,0,2.409,2.409H17.663a12.056,12.056,0,0,1,3.105.408l11.658,3.11a10.411,10.411,0,0,0,7.564-.854l6.73-3.551a9.128,9.128,0,0,0,2.5-1.877l4.76-5.068A3.091,3.091,0,0,0,54.631,306.971Zm-15.678.665,1.518-2.613a1.48,1.48,0,0,1,2.45-.164,1.31,1.31,0,0,1,.163,1.445l-2.668,3.974-.855.019a3.415,3.415,0,0,0-.608-2.661Zm4.63,2.352a1.272,1.272,0,0,1-.709.235l-.494.011,3.481-5.184a1.482,1.482,0,0,1,2.589,1.417l-.041.095Z" transform="translate(0 -273.491)"/>
        <path id="Path_907155" data-name="Path 907155" d="M239.717,57.517a13.7,13.7,0,1,0-13.3-17,.8.8,0,1,0,1.559.386,12.105,12.105,0,1,1-.339,3.507.8.8,0,0,0-1.6.077,13.681,13.681,0,0,0,13.687,13.034Z" transform="translate(-201.825 -30.11)"/>
        <path id="Path_907156" data-name="Path 907156" d="M273.221,63.716a.8.8,0,0,0-.113-1.13,10.462,10.462,0,1,0,2.587,3.127.8.8,0,1,0-1.412.766,8.887,8.887,0,1,1-2.193-2.649.8.8,0,0,0,1.13-.113Z" transform="translate(-228.587 -56.996)"/>
        <path id="Path_907157" data-name="Path 907157" d="M320.26,104.849a.8.8,0,0,0,.8-.8V103.3a3.8,3.8,0,0,0,3.194-3.068,3.169,3.169,0,0,0-2.536-3.467c-.234-.07-.452-.138-.659-.2V93.3a2.819,2.819,0,0,1,1.051.483.8.8,0,0,0,1.039-1.225,4.538,4.538,0,0,0-2.09-.894v-.52a.8.8,0,0,0-1.606,0v.525c-.147.024-.3.056-.453.095a2.876,2.876,0,0,0-1.171,5.1,8.872,8.872,0,0,0,1.623.825v4.075a4.006,4.006,0,0,1-2.035-.605.8.8,0,1,0-.775,1.407,5.625,5.625,0,0,0,2.809.8v.672A.8.8,0,0,0,320.26,104.849Zm-1.541-9.321a1.285,1.285,0,0,1,.738-2.219v2.633A6.2,6.2,0,0,1,318.719,95.529Zm2.545,2.78c1,.3,1.515.918,1.4,1.7a2.133,2.133,0,0,1-1.6,1.643v-3.4Z" transform="translate(-282.368 -83.893)"/>
      </g>
    </g>
  </g>
</svg>
