<svg xmlns="http://www.w3.org/2000/svg" xmlns:xlink="http://www.w3.org/1999/xlink" width="400" height="318.927" viewBox="0 0 400 318.927">
  <defs>
    <clipPath id="clip-path">
      <rect id="Rectangle_406270" data-name="Rectangle 406270" width="311.911" height="272.971" fill="none"/>
    </clipPath>
    <clipPath id="clip-path-3">
      <rect id="Rectangle_406267" data-name="Rectangle 406267" width="89.528" height="24.901" fill="none"/>
    </clipPath>
    <clipPath id="clip-path-4">
      <rect id="Rectangle_406268" data-name="Rectangle 406268" width="118.848" height="119.99" fill="none"/>
    </clipPath>
  </defs>
  <g id="Group_1113213" data-name="Group 1113213" transform="translate(-1020 -1766.729)">
    <rect id="Rectangle_405477" data-name="Rectangle 405477" width="400" height="318.927" rx="10" transform="translate(1020 1766.729)" fill="#fd9826"/>
    <g id="Group_1113212" data-name="Group 1113212" transform="translate(1062.551 1789.244)">
      <g id="Group_1113211" data-name="Group 1113211" clip-path="url(#clip-path)">
        <g id="Group_1113210" data-name="Group 1113210">
          <g id="Group_1113209" data-name="Group 1113209" clip-path="url(#clip-path)">
            <path id="Path_905978" data-name="Path 905978" d="M186.08,234.989l2.417.754a6.323,6.323,0,0,0,7.9-4.139L251.53,54.975a6.323,6.323,0,0,0-4.139-7.9l-2.417-.754a6.323,6.323,0,0,0-7.9,4.139L181.94,227.093a6.323,6.323,0,0,0,4.139,7.9" transform="translate(-46.643 -11.821)" fill="#233863"/>
            <path id="Path_905979" data-name="Path 905979" d="M189.984,236.759a7.382,7.382,0,0,1-2.207-.338l-2.417-.754a7.436,7.436,0,0,1-4.87-9.293l55.137-176.63a7.437,7.437,0,0,1,9.293-4.87l2.417.754a7.428,7.428,0,0,1,4.871,9.292L197.07,231.551a7.454,7.454,0,0,1-7.086,5.209" transform="translate(-46.257 -11.435)" fill="#233863"/>
            <path id="Path_905980" data-name="Path 905980" d="M283.079,275.158l-81.671-25.5a16.707,16.707,0,0,1-10.97-20.926l54.732-175.33A16.7,16.7,0,0,1,266.1,42.437l81.672,25.494a16.707,16.707,0,0,1,10.969,20.927l-54.732,175.33a16.708,16.708,0,0,1-20.927,10.97" transform="translate(-48.702 -10.7)" fill="#2f4770"/>
            <path id="Path_905981" data-name="Path 905981" d="M287.66,276.65a17.743,17.743,0,0,1-5.3-.812l-81.67-25.494a17.822,17.822,0,0,1-11.7-22.324L243.719,52.69a17.841,17.841,0,0,1,22.324-11.7l81.671,25.5a17.841,17.841,0,0,1,11.7,22.323L304.684,264.137A17.856,17.856,0,0,1,287.66,276.65m-4.635-2.939a15.592,15.592,0,0,0,19.53-10.238L357.287,88.141a15.611,15.611,0,0,0-10.238-19.531L265.378,43.116a15.611,15.611,0,0,0-19.531,10.238l-54.731,175.33a15.592,15.592,0,0,0,10.238,19.531Z" transform="translate(-48.315 -10.316)" fill="#233863"/>
            <rect id="Rectangle_406265" data-name="Rectangle 406265" width="73.19" height="99.873" transform="translate(182.95 118.059) rotate(-72.663)" fill="#fff"/>
            <path id="Path_905982" data-name="Path 905982" d="M341.1,165.2a1.112,1.112,0,0,1-.333-.051l-95.336-29.76a1.117,1.117,0,0,1-.731-1.4l21.809-69.865a1.115,1.115,0,0,1,1.4-.732l95.337,29.761a1.115,1.115,0,0,1,.732,1.4l-21.81,69.865a1.114,1.114,0,0,1-1.064.782m-93.94-31.607,93.207,29.1,21.146-67.736-93.208-29.1Z" transform="translate(-62.819 -16.265)" fill="#233863"/>
            <path id="Path_905983" data-name="Path 905983" d="M365.058,79.646a.74.74,0,0,1-.221-.034L298.291,58.838a.743.743,0,0,1,.443-1.419L365.28,78.193a.744.744,0,0,1-.221,1.453" transform="translate(-76.457 -14.735)" fill="#fff"/>
            <path id="Path_905984" data-name="Path 905984" d="M293.042,86.835,278.2,82.2a.878.878,0,0,1-.577-1.1l.858-2.749a.878.878,0,0,1,1.1-.577l14.842,4.633a.878.878,0,0,1,.577,1.1l-.858,2.749a.878.878,0,0,1-1.1.577" transform="translate(-71.274 -19.96)" fill="#ffb44f"/>
            <path id="Path_905985" data-name="Path 905985" d="M293.05,87.363a1.631,1.631,0,0,1-.485-.074l-14.841-4.633a1.624,1.624,0,0,1-1.066-2.031l.859-2.75a1.621,1.621,0,0,1,2.031-1.064l14.841,4.633a1.622,1.622,0,0,1,1.064,2.033l-.857,2.748a1.625,1.625,0,0,1-1.547,1.139m-.042-1.493a.138.138,0,0,0,.169-.088l.858-2.749a.151.151,0,0,0-.088-.169L279.1,78.229a.156.156,0,0,0-.169.088l-.859,2.75a.136.136,0,0,0,.089.169Z" transform="translate(-71.017 -19.703)" fill="#233863"/>
            <path id="Path_905986" data-name="Path 905986" d="M322.72,96.1l-14.842-4.633a.878.878,0,0,1-.577-1.1l.858-2.749a.878.878,0,0,1,1.1-.577L324.1,91.674a.878.878,0,0,1,.577,1.1l-.858,2.749a.878.878,0,0,1-1.1.577" transform="translate(-78.894 -22.339)" fill="#ffb44f"/>
            <path id="Path_905987" data-name="Path 905987" d="M322.729,96.627a1.626,1.626,0,0,1-.485-.074L307.4,91.92a1.624,1.624,0,0,1-1.065-2.031l.858-2.749a1.623,1.623,0,0,1,2.032-1.066l14.841,4.633a1.622,1.622,0,0,1,1.065,2.031l-.858,2.751a1.623,1.623,0,0,1-1.545,1.138m-.042-1.493a.15.15,0,0,0,.169-.088l.859-2.75a.153.153,0,0,0-.089-.169l-14.842-4.633a.156.156,0,0,0-.169.089l-.858,2.749a.136.136,0,0,0,.088.169Z" transform="translate(-78.638 -22.082)" fill="#233863"/>
            <path id="Path_905988" data-name="Path 905988" d="M354.631,106.061l-14.842-4.633a.878.878,0,0,1-.577-1.1l.858-2.749a.878.878,0,0,1,1.1-.577l14.842,4.633a.878.878,0,0,1,.577,1.1l-.858,2.749a.878.878,0,0,1-1.1.577" transform="translate(-87.088 -24.897)" fill="#ffb44f"/>
            <path id="Path_905989" data-name="Path 905989" d="M354.635,106.587a1.6,1.6,0,0,1-.482-.074l-14.842-4.633a1.624,1.624,0,0,1-1.065-2.031L339.1,97.1a1.622,1.622,0,0,1,2.032-1.065l14.841,4.633a1.625,1.625,0,0,1,1.066,2.031l-.859,2.75a1.624,1.624,0,0,1-1.548,1.138m-.039-1.492a.137.137,0,0,0,.169-.088l.858-2.75a.136.136,0,0,0-.089-.169l-14.842-4.633a.153.153,0,0,0-.169.088l-.858,2.75a.135.135,0,0,0,.088.169Z" transform="translate(-86.831 -24.639)" fill="#233863"/>
            <path id="Path_905990" data-name="Path 905990" d="M384.673,115.439l-14.842-4.633a.878.878,0,0,1-.577-1.1l.858-2.749a.878.878,0,0,1,1.1-.577l14.842,4.633a.878.878,0,0,1,.577,1.1l-.858,2.749a.878.878,0,0,1-1.1.577" transform="translate(-94.802 -27.304)" fill="#ffb44f"/>
            <path id="Path_905991" data-name="Path 905991" d="M384.681,115.967a1.627,1.627,0,0,1-.485-.074l-14.842-4.633a1.622,1.622,0,0,1-1.064-2.033l.857-2.748a1.624,1.624,0,0,1,2.032-1.065l14.841,4.633a1.625,1.625,0,0,1,1.066,2.031l-.859,2.75a1.622,1.622,0,0,1-1.545,1.139m-.042-1.493a.135.135,0,0,0,.169-.088l.859-2.75a.136.136,0,0,0-.09-.169l-14.841-4.633a.134.134,0,0,0-.169.088l-.858,2.75a.151.151,0,0,0,.088.169Z" transform="translate(-94.545 -27.048)" fill="#233863"/>
            <rect id="Rectangle_406266" data-name="Rectangle 406266" width="17.984" height="97.154" transform="matrix(0.298, -0.955, 0.955, 0.298, 177.503, 140.071)" fill="#233863"/>
            <path id="Path_905992" data-name="Path 905992" d="M331.18,212.21a1.109,1.109,0,0,1-.332-.051l-92.74-28.95a1.114,1.114,0,0,1-.732-1.4l5.359-17.167a1.116,1.116,0,0,1,.547-.656,1.1,1.1,0,0,1,.85-.077l92.741,28.95a1.115,1.115,0,0,1,.731,1.4l-5.359,17.168a1.113,1.113,0,0,1-1.064.782m-91.343-30.8L330.448,209.7l4.694-15.039-90.611-28.285Z" transform="translate(-60.937 -42.074)" fill="#233863"/>
            <path id="Path_905993" data-name="Path 905993" d="M274.463,189.83a1.861,1.861,0,0,1-.553-.084l-16.453-5.137a1.86,1.86,0,0,1-1.22-2.327l1.434-4.6a1.858,1.858,0,0,1,2.327-1.22l16.454,5.136a1.858,1.858,0,0,1,1.22,2.327l-1.434,4.6a1.862,1.862,0,0,1-1.776,1.3m-.331-.794a1.119,1.119,0,0,0,1.4-.732l1.434-4.6a1.116,1.116,0,0,0-.733-1.4l-16.453-5.136a1.115,1.115,0,0,0-1.4.732l-1.434,4.6a1.115,1.115,0,0,0,.731,1.4Z" transform="translate(-65.771 -45.289)" fill="#fff"/>
            <path id="Path_905994" data-name="Path 905994" d="M308.686,200.512a1.884,1.884,0,0,1-.556-.085l-16.454-5.136a1.86,1.86,0,0,1-1.219-2.329l1.434-4.595a1.858,1.858,0,0,1,2.327-1.22l16.454,5.136a1.86,1.86,0,0,1,1.22,2.328l-1.435,4.595a1.862,1.862,0,0,1-1.772,1.305m-.334-.795a1.115,1.115,0,0,0,1.4-.732l1.435-4.6a1.115,1.115,0,0,0-.733-1.4L294,187.857a1.115,1.115,0,0,0-1.4.733l-1.434,4.6a1.113,1.113,0,0,0,.731,1.4Z" transform="translate(-74.558 -48.031)" fill="#fff"/>
            <path id="Path_905995" data-name="Path 905995" d="M343.285,211.313a1.883,1.883,0,0,1-.556-.085l-16.454-5.136a1.863,1.863,0,0,1-1.22-2.329l1.435-4.6a1.859,1.859,0,0,1,2.327-1.22l16.454,5.136a1.86,1.86,0,0,1,1.22,2.328l-1.435,4.595a1.862,1.862,0,0,1-1.772,1.305m-.334-.795a1.115,1.115,0,0,0,1.4-.732l1.435-4.6a1.115,1.115,0,0,0-.733-1.4L328.6,198.658a1.114,1.114,0,0,0-1.4.732l-1.435,4.6a1.117,1.117,0,0,0,.732,1.4Z" transform="translate(-83.442 -50.805)" fill="#fff"/>
            <path id="Path_905996" data-name="Path 905996" d="M247.8,228.587,236,224.9a6.322,6.322,0,0,1-4.139-7.9l2.136-6.844a6.323,6.323,0,0,1,7.9-4.139l11.8,3.683a6.322,6.322,0,0,1,4.139,7.9l-2.136,6.844a6.323,6.323,0,0,1-7.9,4.139" transform="translate(-59.46 -52.827)" fill="#5a6f8e"/>
            <path id="Path_905997" data-name="Path 905997" d="M249.284,229.6a7.374,7.374,0,0,1-2.206-.338l-11.8-3.683a7.428,7.428,0,0,1-4.871-9.293l2.136-6.844a7.428,7.428,0,0,1,9.293-4.87l11.8,3.683a7.428,7.428,0,0,1,4.87,9.293L256.37,224.4a7.454,7.454,0,0,1-7.086,5.209m-9.655-23.135a5.2,5.2,0,0,0-4.957,3.643l-2.136,6.844a5.2,5.2,0,0,0,3.408,6.5l11.8,3.683a5.209,5.209,0,0,0,6.5-3.407l2.136-6.844a5.2,5.2,0,0,0-3.408-6.5l-11.8-3.683a5.2,5.2,0,0,0-1.543-.236" transform="translate(-59.074 -52.442)" fill="#233863"/>
            <path id="Path_905998" data-name="Path 905998" d="M291.183,242.131l-11.8-3.683a6.322,6.322,0,0,1-4.139-7.9l2.136-6.844a6.323,6.323,0,0,1,7.9-4.139l11.8,3.683a6.323,6.323,0,0,1,4.139,7.9l-2.136,6.843a6.323,6.323,0,0,1-7.9,4.139" transform="translate(-70.6 -56.305)" fill="#5a6f8e"/>
            <path id="Path_905999" data-name="Path 905999" d="M292.671,243.148a7.376,7.376,0,0,1-2.205-.338l-11.8-3.683a7.427,7.427,0,0,1-4.87-9.293l2.136-6.843a7.437,7.437,0,0,1,9.293-4.871l11.8,3.684a7.426,7.426,0,0,1,4.87,9.292l-2.137,6.843a7.453,7.453,0,0,1-7.087,5.209m-1.54-2.466a5.207,5.207,0,0,0,6.5-3.408l2.137-6.844a5.207,5.207,0,0,0-3.408-6.5l-11.8-3.683a5.207,5.207,0,0,0-6.5,3.408l-2.136,6.843a5.207,5.207,0,0,0,3.407,6.5Z" transform="translate(-70.215 -55.919)" fill="#233863"/>
            <path id="Path_906000" data-name="Path 906000" d="M333.918,255.472l-11.8-3.683a6.322,6.322,0,0,1-4.139-7.9l2.136-6.844a6.323,6.323,0,0,1,7.9-4.139l11.8,3.683a6.322,6.322,0,0,1,4.139,7.9l-2.136,6.844a6.323,6.323,0,0,1-7.9,4.139" transform="translate(-81.573 -59.73)" fill="#5a6f8e"/>
            <path id="Path_906001" data-name="Path 906001" d="M335.407,256.488a7.393,7.393,0,0,1-2.206-.338l-11.8-3.683a7.428,7.428,0,0,1-4.871-9.293l2.136-6.844a7.436,7.436,0,0,1,9.293-4.87l11.8,3.683a7.428,7.428,0,0,1,4.87,9.293l-2.135,6.844a7.436,7.436,0,0,1-7.087,5.209m-9.651-23.135a5.224,5.224,0,0,0-4.961,3.643l-2.136,6.844a5.2,5.2,0,0,0,3.408,6.5l11.8,3.683a5.2,5.2,0,0,0,6.5-3.407l2.136-6.844a5.2,5.2,0,0,0-3.408-6.5l-11.8-3.683a5.159,5.159,0,0,0-1.538-.236" transform="translate(-81.188 -59.344)" fill="#233863"/>
            <path id="Path_906002" data-name="Path 906002" d="M237.19,262.56l-11.8-3.683a6.322,6.322,0,0,1-4.139-7.9l2.136-6.844a6.323,6.323,0,0,1,7.9-4.139l11.8,3.683a6.322,6.322,0,0,1,4.139,7.9l-2.136,6.844a6.323,6.323,0,0,1-7.9,4.139" transform="translate(-56.737 -61.55)" fill="#5a6f8e"/>
            <path id="Path_906003" data-name="Path 906003" d="M238.677,263.576a7.4,7.4,0,0,1-2.206-.337l-11.8-3.684a7.436,7.436,0,0,1-4.87-9.293l2.137-6.843a7.424,7.424,0,0,1,9.292-4.87l11.8,3.683a7.436,7.436,0,0,1,4.87,9.292l-2.136,6.844a7.433,7.433,0,0,1-7.087,5.208m-1.541-2.465a5.2,5.2,0,0,0,6.5-3.408l2.136-6.843a5.208,5.208,0,0,0-3.407-6.5l-11.8-3.683a5.207,5.207,0,0,0-6.5,3.408l-2.137,6.843a5.207,5.207,0,0,0,3.408,6.5Z" transform="translate(-56.351 -61.165)" fill="#233863"/>
            <path id="Path_906004" data-name="Path 906004" d="M280.578,276.1l-11.8-3.683a6.322,6.322,0,0,1-4.139-7.9l2.136-6.844a6.323,6.323,0,0,1,7.9-4.139l11.8,3.683a6.322,6.322,0,0,1,4.139,7.9l-2.136,6.844a6.323,6.323,0,0,1-7.9,4.139" transform="translate(-67.877 -65.028)" fill="#5a6f8e"/>
            <path id="Path_906005" data-name="Path 906005" d="M282.065,277.12a7.394,7.394,0,0,1-2.206-.337l-11.8-3.683a7.436,7.436,0,0,1-4.87-9.293l2.136-6.843a7.427,7.427,0,0,1,9.293-4.87l11.8,3.683a7.436,7.436,0,0,1,4.87,9.293l-2.136,6.843a7.433,7.433,0,0,1-7.087,5.208m-1.541-2.465a5.2,5.2,0,0,0,6.5-3.408l2.136-6.843a5.207,5.207,0,0,0-3.408-6.5l-11.8-3.683a5.2,5.2,0,0,0-6.5,3.408l-2.136,6.843a5.207,5.207,0,0,0,3.408,6.5Z" transform="translate(-67.491 -64.642)" fill="#233863"/>
            <path id="Path_906006" data-name="Path 906006" d="M323.313,289.445l-11.8-3.684a6.322,6.322,0,0,1-4.139-7.9l2.136-6.844a6.323,6.323,0,0,1,7.9-4.139l11.8,3.683a6.322,6.322,0,0,1,4.139,7.9l-2.136,6.844a6.323,6.323,0,0,1-7.9,4.139" transform="translate(-78.85 -68.453)" fill="#5a6f8e"/>
            <path id="Path_906007" data-name="Path 906007" d="M324.8,290.461a7.388,7.388,0,0,1-2.206-.337l-11.8-3.683a7.429,7.429,0,0,1-4.871-9.293l2.137-6.843a7.425,7.425,0,0,1,9.292-4.87l11.8,3.683a7.437,7.437,0,0,1,4.87,9.292l-2.137,6.844a7.433,7.433,0,0,1-7.086,5.208M323.261,288a5.2,5.2,0,0,0,6.5-3.408l2.135-6.844a5.206,5.206,0,0,0-3.407-6.5l-11.8-3.683a5.207,5.207,0,0,0-6.5,3.408l-2.137,6.843a5.2,5.2,0,0,0,3.409,6.5Z" transform="translate(-78.465 -68.068)" fill="#233863"/>
            <path id="Path_906008" data-name="Path 906008" d="M226.585,296.533l-11.8-3.683a6.322,6.322,0,0,1-4.139-7.9l2.136-6.844a6.323,6.323,0,0,1,7.9-4.139l11.8,3.683a6.322,6.322,0,0,1,4.139,7.9l-2.136,6.844a6.323,6.323,0,0,1-7.9,4.139" transform="translate(-54.014 -70.273)" fill="#3aaed5"/>
            <path id="Path_906009" data-name="Path 906009" d="M228.073,297.549a7.377,7.377,0,0,1-2.206-.338l-11.8-3.683a7.436,7.436,0,0,1-4.87-9.292l2.136-6.844a7.436,7.436,0,0,1,9.293-4.87l11.8,3.683a7.426,7.426,0,0,1,4.87,9.293l-2.136,6.843a7.454,7.454,0,0,1-7.087,5.209m-1.541-2.466a5.207,5.207,0,0,0,6.5-3.408l2.136-6.843a5.207,5.207,0,0,0-3.407-6.5l-11.8-3.683a5.207,5.207,0,0,0-6.5,3.408l-2.136,6.844a5.206,5.206,0,0,0,3.407,6.5Z" transform="translate(-53.628 -69.887)" fill="#233863"/>
            <path id="Path_906010" data-name="Path 906010" d="M269.973,310.077l-11.8-3.683a6.322,6.322,0,0,1-4.139-7.9l2.136-6.844a6.323,6.323,0,0,1,7.9-4.139l11.8,3.683a6.322,6.322,0,0,1,4.139,7.9l-2.136,6.844a6.323,6.323,0,0,1-7.9,4.139" transform="translate(-65.154 -73.751)" fill="#ffb44f"/>
            <path id="Path_906011" data-name="Path 906011" d="M271.46,311.094a7.374,7.374,0,0,1-2.205-.338l-11.8-3.683a7.435,7.435,0,0,1-4.871-9.292l2.137-6.844a7.436,7.436,0,0,1,9.292-4.87l11.8,3.683a7.427,7.427,0,0,1,4.87,9.293l-2.135,6.843a7.455,7.455,0,0,1-7.087,5.209m-9.65-23.135a5.223,5.223,0,0,0-4.96,3.643l-2.137,6.844a5.207,5.207,0,0,0,3.408,6.5l11.8,3.683a5.209,5.209,0,0,0,6.5-3.408l2.136-6.843a5.2,5.2,0,0,0-3.407-6.5l-11.8-3.683a5.159,5.159,0,0,0-1.538-.236" transform="translate(-64.768 -73.365)" fill="#233863"/>
            <path id="Path_906012" data-name="Path 906012" d="M312.708,323.418l-11.8-3.683a6.322,6.322,0,0,1-4.139-7.9L298.906,305a6.323,6.323,0,0,1,7.9-4.139l11.8,3.684a6.322,6.322,0,0,1,4.139,7.9l-2.136,6.844a6.323,6.323,0,0,1-7.9,4.139" transform="translate(-76.127 -77.176)" fill="#3d85fd"/>
            <path id="Path_906013" data-name="Path 906013" d="M314.2,324.434a7.377,7.377,0,0,1-2.206-.338l-11.8-3.683a7.437,7.437,0,0,1-4.87-9.293l2.136-6.843a7.436,7.436,0,0,1,9.293-4.87l11.8,3.683a7.437,7.437,0,0,1,4.87,9.292l-2.137,6.844a7.454,7.454,0,0,1-7.087,5.209m-1.541-2.466a5.207,5.207,0,0,0,6.5-3.408l2.136-6.843a5.206,5.206,0,0,0-3.407-6.5l-11.8-3.684a5.207,5.207,0,0,0-6.5,3.408l-2.136,6.843a5.206,5.206,0,0,0,3.407,6.5Z" transform="translate(-75.742 -76.79)" fill="#233863"/>
            <path id="Path_906014" data-name="Path 906014" d="M284.234,348.858l-81.52-25.448a5.006,5.006,0,1,1,2.983-9.557l81.52,25.448a5.006,5.006,0,1,1-2.983,9.557" transform="translate(-51.148 -80.529)" fill="#233863"/>
            <path id="Path_906015" data-name="Path 906015" d="M285.337,349.814a6.111,6.111,0,0,1-1.821-.279L202,324.088a6.121,6.121,0,0,1,3.648-11.686l81.521,25.448a6.121,6.121,0,0,1-1.828,11.964m-1.156-2.407a3.891,3.891,0,0,0,2.319-7.429L204.98,314.53a3.891,3.891,0,1,0-2.319,7.429Z" transform="translate(-50.762 -80.143)" fill="#233863"/>
            <path id="Path_906016" data-name="Path 906016" d="M310.634,307.775A1.772,1.772,0,1,1,308.863,306a1.772,1.772,0,0,1,1.772,1.772" transform="translate(-78.85 -78.571)" fill="#fff"/>
            <path id="Path_906017" data-name="Path 906017" d="M267.9,294.725a1.773,1.773,0,1,1-1.772-1.772,1.772,1.772,0,0,1,1.772,1.772" transform="translate(-67.877 -75.22)" fill="#fff"/>
            <path id="Path_906018" data-name="Path 906018" d="M223.1,280.414a1.772,1.772,0,1,1-1.772-1.772,1.772,1.772,0,0,1,1.772,1.772" transform="translate(-56.375 -71.546)" fill="#fff"/>
            <path id="Path_906019" data-name="Path 906019" d="M322.689,325.453a.92.92,0,1,1-.919-.919.92.92,0,0,1,.919.919" transform="translate(-82.383 -83.329)" fill="#fff"/>
            <path id="Path_906020" data-name="Path 906020" d="M329.879,238.048a1.184,1.184,0,1,1-1.184-1.183,1.184,1.184,0,0,1,1.184,1.183" transform="translate(-84.093 -60.819)" fill="#233863"/>
            <path id="Path_906021" data-name="Path 906021" d="M318.471,273.728a1.184,1.184,0,1,1-1.184-1.184,1.184,1.184,0,0,1,1.184,1.184" transform="translate(-81.164 -69.98)" fill="#233863"/>
            <path id="Path_906022" data-name="Path 906022" d="M367.863,180.319a3.1,3.1,0,1,1-3.1-3.1,3.1,3.1,0,0,1,3.1,3.1" transform="translate(-92.862 -45.503)" fill="#2f4770"/>
            <path id="Path_906023" data-name="Path 906023" d="M364.376,184.15a4.216,4.216,0,1,1,4.216-4.216,4.221,4.221,0,0,1-4.216,4.216m0-6.2a1.987,1.987,0,1,0,1.987,1.987,1.989,1.989,0,0,0-1.987-1.987" transform="translate(-92.477 -45.118)" fill="#233863"/>
            <path id="Path_906024" data-name="Path 906024" d="M154.41,301.87a37.346,37.346,0,1,1-37.346-37.345A37.346,37.346,0,0,1,154.41,301.87" transform="translate(-20.469 -67.921)" fill="#233863"/>
            <path id="Path_906025" data-name="Path 906025" d="M149.573,299.173a37.345,37.345,0,1,1-37.345-37.345,37.345,37.345,0,0,1,37.345,37.345" transform="translate(-19.227 -67.229)" fill="#233863"/>
            <path id="Path_906026" data-name="Path 906026" d="M149.573,299.173a37.345,37.345,0,1,1-37.345-37.345,37.345,37.345,0,0,1,37.345,37.345" transform="translate(-19.227 -67.229)" fill="#ffb44f"/>
            <path id="Path_906027" data-name="Path 906027" d="M111.841,337.247a38.46,38.46,0,1,1,38.46-38.46,38.5,38.5,0,0,1-38.46,38.46m0-74.691a36.23,36.23,0,1,0,36.23,36.23,36.271,36.271,0,0,0-36.23-36.23" transform="translate(-18.842 -66.843)" fill="#233863"/>
            <path id="Path_906028" data-name="Path 906028" d="M114.48,332.248A30.821,30.821,0,1,1,145.3,301.427a30.856,30.856,0,0,1-30.821,30.821m0-60.156a29.335,29.335,0,1,0,29.335,29.335,29.368,29.368,0,0,0-29.335-29.335" transform="translate(-21.481 -69.482)" fill="#fff"/>
            <path id="Path_906029" data-name="Path 906029" d="M115.172,330.064a27.485,27.485,0,1,1,27.485-27.486,27.516,27.516,0,0,1-27.485,27.486m0-53.484a26,26,0,1,0,26,26,26.028,26.028,0,0,0-26-26" transform="translate(-22.515 -70.635)" fill="#fff"/>
            <path id="Path_906030" data-name="Path 906030" d="M131.385,310.032a9.341,9.341,0,0,1-2.642,6.489,8.816,8.816,0,0,1-4.016,2.453v1.776a3.224,3.224,0,0,1-.887,2.241,3.04,3.04,0,0,1-2.2.93,3.211,3.211,0,0,1-3.235-3.171v-1.438h-2.939a4.645,4.645,0,0,1-3.192-1.12,3.821,3.821,0,0,1-1.141-2.853c0-2.3,1.543-3.467,4.333-3.467h6.955a1.533,1.533,0,0,0,.93-.338,1.274,1.274,0,0,0,.528-1.057,1.258,1.258,0,0,0-.7-1.248,2.269,2.269,0,0,0-.486-.169c-.149-.021-.233-.042-.233-.042h-3.319a8.932,8.932,0,0,1-5.982-2.473,8.112,8.112,0,0,1-2.452-5.856,9.1,9.1,0,0,1,2.705-6.384,9.259,9.259,0,0,1,4.989-2.579v-1.184a3.054,3.054,0,0,1,.951-2.24,3.14,3.14,0,0,1,5.37,2.24V291.6h1.121c2.769,0,4.4,1.332,4.4,3.637,0,2.537-1.628,3.889-4.4,3.889h-6.491a1.138,1.138,0,0,0-1.226,1.162c0,.7.381,1.269.994,1.269h3.192a9.5,9.5,0,0,1,6.426,2.389,8.027,8.027,0,0,1,2.642,6.088" transform="translate(-28.427 -73.787)" fill="#233863"/>
            <path id="Path_906031" data-name="Path 906031" d="M151.579,312.695A2.695,2.695,0,1,1,148.884,310a2.695,2.695,0,0,1,2.695,2.695" transform="translate(-37.536 -79.597)" fill="#233863"/>
            <path id="Path_906032" data-name="Path 906032" d="M100.638,312.695A2.695,2.695,0,1,1,97.943,310a2.695,2.695,0,0,1,2.695,2.695" transform="translate(-24.456 -79.597)" fill="#233863"/>
            <path id="Path_906033" data-name="Path 906033" d="M81.8,247.538A13.489,13.489,0,1,1,71.581,231.43,13.49,13.49,0,0,1,81.8,247.538" transform="translate(-14.159 -59.339)" fill="#233863"/>
            <path id="Path_906034" data-name="Path 906034" d="M80.307,246.206A13.489,13.489,0,1,1,70.089,230.1a13.489,13.489,0,0,1,10.218,16.109" transform="translate(-13.776 -58.997)" fill="#233863"/>
            <path id="Path_906035" data-name="Path 906035" d="M80.307,246.206A13.489,13.489,0,1,1,70.089,230.1a13.489,13.489,0,0,1,10.218,16.109" transform="translate(-13.776 -58.997)" fill="#ffb44f"/>
            <path id="Path_906036" data-name="Path 906036" d="M66.888,257.237a14.233,14.233,0,1,1,13.887-11.125,14.222,14.222,0,0,1-13.887,11.125m-.026-26.984a12.787,12.787,0,1,0,2.807.312,12.85,12.85,0,0,0-2.807-.312m13.188,15.7h0Z" transform="translate(-13.518 -58.739)" fill="#233863"/>
            <path id="Path_906037" data-name="Path 906037" d="M67.968,255.217a11.156,11.156,0,0,1-10.888-13.58,11.134,11.134,0,1,1,10.888,13.58m-2.325-.816a10.581,10.581,0,1,0-8.018-12.642A10.512,10.512,0,0,0,65.644,254.4" transform="translate(-14.587 -59.807)" fill="#fff"/>
            <path id="Path_906038" data-name="Path 906038" d="M68.21,254.391a9.939,9.939,0,1,1,9.7-7.769,9.937,9.937,0,0,1-9.7,7.769M68.2,235.069a9.4,9.4,0,1,0,2.06.23,9.326,9.326,0,0,0-2.06-.23" transform="translate(-14.961 -60.215)" fill="#fff"/>
            <path id="Path_906039" data-name="Path 906039" d="M73.443,247.985A3.378,3.378,0,0,1,72,250.063a3.19,3.19,0,0,1-1.608.547l-.14.625a1.167,1.167,0,0,1-.489.72,1.1,1.1,0,0,1-.848.154,1.138,1.138,0,0,1-.731-.507,1.151,1.151,0,0,1-.159-.865l.113-.507L67.1,250a1.677,1.677,0,0,1-1.036-.646,1.38,1.38,0,0,1-.177-1.1c.181-.812.817-1.1,1.8-.879l2.451.548a.553.553,0,0,0,.354-.046.5.5,0,0,0,.122-.825.806.806,0,0,0-.158-.1c-.051-.019-.079-.033-.079-.033l-1.169-.262a3.229,3.229,0,0,1-1.913-1.343,2.93,2.93,0,0,1-.4-2.256,3.291,3.291,0,0,1,1.457-2.036,3.357,3.357,0,0,1,1.961-.516l.093-.416a1.1,1.1,0,0,1,.513-.714,1.133,1.133,0,0,1,1.714,1.212l-.082.372.395.088c.975.219,1.444.816,1.263,1.628-.2.894-.881,1.243-1.857,1.024l-2.286-.511a.411.411,0,0,0-.524.313.4.4,0,0,0,.25.525l1.125.252a3.43,3.43,0,0,1,2.076,1.348,2.9,2.9,0,0,1,.451,2.354" transform="translate(-16.908 -61.418)" fill="#233863"/>
            <path id="Path_906040" data-name="Path 906040" d="M81,250.292a.973.973,0,1,1-.737-1.162A.973.973,0,0,1,81,250.292" transform="translate(-20.304 -63.962)" fill="#233863"/>
            <path id="Path_906041" data-name="Path 906041" d="M63.042,246.274a.973.973,0,1,1-.737-1.162.973.973,0,0,1,.737,1.162" transform="translate(-15.693 -62.93)" fill="#233863"/>
            <path id="Path_906042" data-name="Path 906042" d="M53.317,284.51a18.164,18.164,0,1,1-22.426-12.528A18.165,18.165,0,0,1,53.317,284.51" transform="translate(-4.537 -69.658)" fill="#233863"/>
            <path id="Path_906043" data-name="Path 906043" d="M50.7,283.889a18.165,18.165,0,1,1-22.427-12.528A18.165,18.165,0,0,1,50.7,283.889" transform="translate(-3.864 -69.499)" fill="#233863"/>
            <path id="Path_906044" data-name="Path 906044" d="M50.7,283.889a18.165,18.165,0,1,1-22.427-12.528A18.165,18.165,0,0,1,50.7,283.889" transform="translate(-3.864 -69.499)" fill="#ffb44f"/>
            <path id="Path_906045" data-name="Path 906045" d="M32.841,307.736A19.288,19.288,0,1,1,38.088,307a19.315,19.315,0,0,1-5.246.732m.018-36.34a17.054,17.054,0,1,0,4.621,33.463A17.056,17.056,0,0,0,32.859,271.4" transform="translate(-3.48 -69.114)" fill="#233863"/>
            <path id="Path_906046" data-name="Path 906046" d="M34.35,304.874a14.9,14.9,0,1,1,4.057-.566,14.935,14.935,0,0,1-4.057.566m0-29.266a14.393,14.393,0,1,0,6.986,1.833,14.387,14.387,0,0,0-6.986-1.833" transform="translate(-4.99 -70.623)" fill="#fff"/>
            <path id="Path_906047" data-name="Path 906047" d="M34.679,303.876a13.3,13.3,0,1,1,3.629-.508,13.23,13.23,0,0,1-3.629.508m.018-26.024a12.782,12.782,0,0,0-3.477.485,12.645,12.645,0,1,0,3.477-.485" transform="translate(-5.494 -71.2)" fill="#fff"/>
            <path id="Path_906048" data-name="Path 906048" d="M42.71,292.807a4.547,4.547,0,0,1-.377,3.388,4.29,4.29,0,0,1-1.556,1.68l.236.832a1.563,1.563,0,0,1-.119,1.167,1.475,1.475,0,0,1-.906.726,1.562,1.562,0,0,1-1.935-1.055l-.19-.673-1.376.391a2.258,2.258,0,0,1-1.643-.1,1.858,1.858,0,0,1-.913-1.185c-.306-1.078.262-1.828,1.569-2.2l3.257-.922a.75.75,0,0,0,.39-.282.623.623,0,0,0,.107-.566.612.612,0,0,0-.492-.491,1.1,1.1,0,0,0-.249-.015c-.073.009-.115.01-.115.01l-1.554.44a4.339,4.339,0,0,1-3.129-.364,3.946,3.946,0,0,1-1.924-2.415,4.43,4.43,0,0,1,.42-3.348,4.51,4.51,0,0,1,1.995-1.87l-.157-.554a1.48,1.48,0,0,1,.149-1.175,1.527,1.527,0,0,1,2.81.337l.14.495.524-.148c1.3-.367,2.235.041,2.541,1.119.337,1.188-.247,2.037-1.544,2.4l-3.038.86a.554.554,0,0,0-.42.707c.093.327.346.544.634.463l1.494-.424a4.628,4.628,0,0,1,3.325.267,3.909,3.909,0,0,1,2.045,2.5" transform="translate(-8.122 -72.777)" fill="#233863"/>
            <path id="Path_906049" data-name="Path 906049" d="M52.062,291.759a1.311,1.311,0,1,1-1.619-.9,1.312,1.312,0,0,1,1.619.9" transform="translate(-12.707 -74.669)" fill="#233863"/>
            <path id="Path_906050" data-name="Path 906050" d="M28.222,298.51a1.311,1.311,0,1,1-1.619-.9,1.311,1.311,0,0,1,1.619.9" transform="translate(-6.586 -76.402)" fill="#233863"/>
            <path id="Path_906051" data-name="Path 906051" d="M191.924,149.061,114.574,145.2a6.581,6.581,0,0,1-6.245-6.9l5.8-116.368A19.91,19.91,0,0,1,135.006,3.043L186.351,5.6a19.91,19.91,0,0,1,18.894,20.876l-5.77,115.748a7.2,7.2,0,0,1-7.55,6.833" transform="translate(-27.813 -0.775)" fill="#233863"/>
            <path id="Path_906052" data-name="Path 906052" d="M185.229,149.061,107.879,145.2a6.581,6.581,0,0,1-6.245-6.9l5.8-116.368A19.91,19.91,0,0,1,128.311,3.043L179.656,5.6A19.91,19.91,0,0,1,198.55,26.479l-5.77,115.748a7.2,7.2,0,0,1-7.55,6.833" transform="translate(-26.094 -0.775)" fill="#fff"/>
            <path id="Path_906053" data-name="Path 906053" d="M185.206,149.8c-.138,0-.277,0-.417-.01l-77.351-3.856a7.7,7.7,0,0,1-7.3-8.069l5.8-116.369A21.023,21.023,0,0,1,127.981,1.545L179.326,4.1a21.048,21.048,0,0,1,19.952,22.044L193.507,141.9a8.326,8.326,0,0,1-8.3,7.9m-.307-2.237a6.075,6.075,0,0,0,6.381-5.775l5.77-115.749A18.816,18.816,0,0,0,179.216,6.331l-51.345-2.56a18.795,18.795,0,0,0-19.708,17.835l-5.8,116.368a5.472,5.472,0,0,0,5.186,5.731Z" transform="translate(-25.709 -0.39)" fill="#233863"/>
            <path id="Path_906054" data-name="Path 906054" d="M174.44,5.191V5.167L101.258,1.519c-8.423-.42-15.606,6.364-16.044,15.15l-.3,6.044,74.01,3.689.3-6.044c.424-8.5,7.155-15.12,15.215-15.167" transform="translate(-21.803 -0.385)" fill="#fff"/>
            <path id="Path_906055" data-name="Path 906055" d="M158.538,27.132c-.019,0-.037,0-.055,0l-74.01-3.689a1.114,1.114,0,0,1-1.058-1.168l.3-6.044A17.29,17.29,0,0,1,89.091,4.446,15.962,15.962,0,0,1,100.928.021l73.183,3.648a1.116,1.116,0,0,1,1.058,1.181,1.138,1.138,0,0,1-1.107,1.072c-7.52.045-13.716,6.242-14.109,14.108l-.3,6.043a1.113,1.113,0,0,1-1.113,1.059M85.7,21.27l71.783,3.578.246-4.93a17.171,17.171,0,0,1,9-14.385L100.818,2.248a13.762,13.762,0,0,0-10.2,3.819A15.072,15.072,0,0,0,85.942,16.34Z" transform="translate(-21.418 0)" fill="#233863"/>
            <g id="Group_1113205" data-name="Group 1113205" transform="translate(63.109 1.116)" opacity="0.11">
              <g id="Group_1113204" data-name="Group 1113204">
                <g id="Group_1113203" data-name="Group 1113203" clip-path="url(#clip-path-3)">
                  <path id="Path_906056" data-name="Path 906056" d="M174.44,5.191V5.167L101.258,1.519c-8.423-.42-15.606,6.364-16.044,15.15l-.3,6.044,74.01,3.689.3-6.044c.424-8.5,7.155-15.12,15.215-15.167" transform="translate(-84.912 -1.501)" fill="#233863"/>
                </g>
              </g>
            </g>
            <line id="Line_2173" data-name="Line 2173" x2="18.654" y2="0.93" transform="translate(98.139 34.875)" fill="#fff"/>
            <path id="Path_906057" data-name="Path 906057" d="M150.313,48.582h-.056l-18.654-.93a1.115,1.115,0,1,1,.111-2.227l18.654.93a1.115,1.115,0,0,1-.054,2.228" transform="translate(-33.519 -11.663)" fill="#233863"/>
            <line id="Line_2174" data-name="Line 2174" x2="18.654" y2="0.93" transform="translate(140.44 37.523)" fill="#fff"/>
            <path id="Path_906058" data-name="Path 906058" d="M207.228,52.145h-.056l-18.655-.93a1.115,1.115,0,1,1,.111-2.227l18.654.931a1.115,1.115,0,0,1-.054,2.228" transform="translate(-48.133 -12.578)" fill="#233863"/>
            <line id="Line_2175" data-name="Line 2175" x2="37.052" y2="1.617" transform="translate(97.042 56.869)" fill="#fff"/>
            <path id="Path_906059" data-name="Path 906059" d="M167.234,78.863h-.049l-37.052-1.618a1.116,1.116,0,0,1-1.066-1.162,1.1,1.1,0,0,1,1.163-1.065l37.051,1.617a1.115,1.115,0,0,1-.048,2.229" transform="translate(-33.14 -19.261)" fill="#233863"/>
            <line id="Line_2176" data-name="Line 2176" x2="15.45" y2="0.864" transform="translate(96.008 68.987)" fill="#fff"/>
            <path id="Path_906060" data-name="Path 906060" d="M144.241,94.413h-.063l-15.45-.864a1.115,1.115,0,1,1,.125-2.226l15.45.864a1.115,1.115,0,0,1-.062,2.227" transform="translate(-32.783 -23.448)" fill="#233863"/>
            <line id="Line_2177" data-name="Line 2177" x2="26.602" y2="1.326" transform="translate(97.59 45.881)" fill="#fff"/>
            <path id="Path_906061" data-name="Path 906061" d="M157.522,63.787h-.056l-26.6-1.327a1.115,1.115,0,0,1,.11-2.227l26.6,1.327a1.115,1.115,0,0,1-.054,2.228" transform="translate(-33.33 -15.465)" fill="#233863"/>
            <line id="Line_2178" data-name="Line 2178" x2="3.453" y2="0.172" transform="translate(130.641 47.529)" fill="#fff"/>
            <path id="Path_906062" data-name="Path 906062" d="M178.842,64.851h-.056l-3.453-.172a1.115,1.115,0,0,1-1.058-1.169,1.1,1.1,0,0,1,1.17-1.058l3.452.172a1.115,1.115,0,0,1-.055,2.228" transform="translate(-44.747 -16.035)" fill="#233863"/>
            <path id="Path_906063" data-name="Path 906063" d="M208.751,82.96a7.8,7.8,0,0,1-2.432,5.316,7.369,7.369,0,0,1-3.436,1.9l-.063,1.48A2.679,2.679,0,0,1,202,93.493a2.524,2.524,0,0,1-1.866.7,2.627,2.627,0,0,1-1.869-.856,2.655,2.655,0,0,1-.713-1.9l.051-1.2-2.45-.1a3.866,3.866,0,0,1-2.62-1.046,3.188,3.188,0,0,1-.852-2.42c.082-1.92,1.411-2.835,3.736-2.735l5.8.247a1.275,1.275,0,0,0,.787-.249,1.061,1.061,0,0,0,.477-.862A1.049,1.049,0,0,0,201.944,82a1.914,1.914,0,0,0-.4-.158c-.122-.023-.192-.044-.192-.044l-2.767-.117a7.451,7.451,0,0,1-4.9-2.274,6.763,6.763,0,0,1-1.835-4.967,7.593,7.593,0,0,1,2.482-5.225,7.723,7.723,0,0,1,4.249-1.973l.042-.986a2.552,2.552,0,0,1,.873-1.834,2.618,2.618,0,0,1,4.395,2.059l-.037.881.934.04c2.308.1,3.618,1.266,3.536,3.186-.09,2.115-1.5,3.184-3.8,3.086l-5.409-.23a.95.95,0,0,0-1.063.925c-.025.582.272,1.071.783,1.093l2.661.113a7.924,7.924,0,0,1,5.271,2.219,6.7,6.7,0,0,1,1.987,5.168" transform="translate(-49.217 -16.362)" fill="#233863"/>
            <path id="Path_906064" data-name="Path 906064" d="M208.751,82.96a7.8,7.8,0,0,1-2.432,5.316,7.369,7.369,0,0,1-3.436,1.9l-.063,1.48A2.679,2.679,0,0,1,202,93.493a2.524,2.524,0,0,1-1.866.7,2.627,2.627,0,0,1-1.869-.856,2.655,2.655,0,0,1-.713-1.9l.051-1.2-2.45-.1a3.866,3.866,0,0,1-2.62-1.046,3.188,3.188,0,0,1-.852-2.42c.082-1.92,1.411-2.835,3.736-2.735l5.8.247a1.275,1.275,0,0,0,.787-.249,1.061,1.061,0,0,0,.477-.862A1.049,1.049,0,0,0,201.944,82a1.914,1.914,0,0,0-.4-.158c-.122-.023-.192-.044-.192-.044l-2.767-.117a7.451,7.451,0,0,1-4.9-2.274,6.763,6.763,0,0,1-1.835-4.967,7.593,7.593,0,0,1,2.482-5.225,7.723,7.723,0,0,1,4.249-1.973l.042-.986a2.552,2.552,0,0,1,.873-1.834,2.618,2.618,0,0,1,4.395,2.059l-.037.881.934.04c2.308.1,3.618,1.266,3.536,3.186-.09,2.115-1.5,3.184-3.8,3.086l-5.409-.23a.95.95,0,0,0-1.063.925c-.025.582.272,1.071.783,1.093l2.661.113a7.924,7.924,0,0,1,5.271,2.219A6.7,6.7,0,0,1,208.751,82.96Z" transform="translate(-49.217 -16.362)" fill="none" stroke="#fff" stroke-miterlimit="10" stroke-width="2"/>
            <line id="Line_2179" data-name="Line 2179" x2="15.84" y2="0.647" transform="translate(64.524 16.339)" fill="none" stroke="#233863" stroke-linecap="round" stroke-miterlimit="10" stroke-width="3"/>
            <path id="Path_906065" data-name="Path 906065" d="M17.253,91.386l60.392,81.121,51.778-38.548L67.89,51.3l-.532,9.189-8.5-2.018-.5,8.722-8.045-1.91-.487,8.41-7.893-1.874-.477,8.254L33.558,78.2l-.433,7.476-8.652-2.054L23.95,92.66Z" transform="translate(-4.43 -13.173)" fill="#3aaed5"/>
            <path id="Path_906066" data-name="Path 906066" d="M77.26,173.236a1.087,1.087,0,0,1-.162-.012,1.112,1.112,0,0,1-.732-.437L15.974,91.666a1.115,1.115,0,0,1,1.1-1.761l5.449,1.037.45-7.765a1.115,1.115,0,0,1,1.371-1.02L31.7,83.9l.357-6.149a1.115,1.115,0,0,1,1.37-1.02l6.6,1.567.4-6.927a1.115,1.115,0,0,1,1.371-1.02l6.6,1.567.411-7.083a1.115,1.115,0,0,1,1.37-1.02l6.75,1.6.43-7.4a1.114,1.114,0,0,1,1.37-1.02l7.206,1.711.456-7.862a1.114,1.114,0,0,1,2.007-.6l61.534,82.655a1.113,1.113,0,0,1-.229,1.559L77.926,173.015a1.109,1.109,0,0,1-.666.221M19.471,92.631l58.018,77.93,49.989-37.216L68.44,54.043l-.355,6.13a1.114,1.114,0,0,1-1.37,1.02l-7.206-1.711-.429,7.394a1.115,1.115,0,0,1-1.371,1.02l-6.75-1.6-.41,7.084a1.115,1.115,0,0,1-1.371,1.02l-6.6-1.567-.4,6.927a1.115,1.115,0,0,1-1.371,1.02l-6.6-1.567-.356,6.149a1.116,1.116,0,0,1-1.371,1.02l-7.358-1.747-.446,7.706a1.114,1.114,0,0,1-1.321,1.032Z" transform="translate(-4.045 -12.788)" fill="#233863"/>
            <line id="Line_2180" data-name="Line 2180" y1="11.852" x2="15.919" transform="translate(31.303 76.748)" fill="#fff"/>
            <path id="Path_906067" data-name="Path 906067" d="M41.732,115.843a1.115,1.115,0,0,1-.667-2.009l15.919-11.852a1.115,1.115,0,1,1,1.331,1.788L42.4,115.623a1.109,1.109,0,0,1-.664.221" transform="translate(-10.429 -26.129)" fill="#fff"/>
            <line id="Line_2181" data-name="Line 2181" y1="21.788" x2="29.266" transform="translate(36.014 73.14)" fill="#fff"/>
            <path id="Path_906068" data-name="Path 906068" d="M48.072,120.926a1.115,1.115,0,0,1-.666-2.009L76.672,97.129A1.115,1.115,0,0,1,78,98.918L48.737,120.7a1.113,1.113,0,0,1-.665.221" transform="translate(-12.057 -24.883)" fill="#233863"/>
            <line id="Line_2182" data-name="Line 2182" y1="2.918" x2="3.92" transform="translate(68.446 67.866)" fill="#fff"/>
            <path id="Path_906069" data-name="Path 906069" d="M91.708,94.959a1.115,1.115,0,0,1-.666-2.009l3.92-2.918a1.115,1.115,0,1,1,1.331,1.788l-3.92,2.918a1.111,1.111,0,0,1-.665.221" transform="translate(-23.261 -23.06)" fill="#fff"/>
            <line id="Line_2183" data-name="Line 2183" y1="8.006" x2="10.754" transform="translate(42.796 96.032)" fill="#fff"/>
            <path id="Path_906070" data-name="Path 906070" d="M57.2,137.944a1.115,1.115,0,0,1-.667-2.009l10.754-8.006a1.115,1.115,0,1,1,1.331,1.789l-10.753,8.005a1.111,1.111,0,0,1-.665.221" transform="translate(-14.4 -32.791)" fill="#233863"/>
            <line id="Line_2184" data-name="Line 2184" y1="15.6" x2="20.955" transform="translate(58.193 76.976)" fill="#fff"/>
            <path id="Path_906071" data-name="Path 906071" d="M77.913,119.9a1.114,1.114,0,0,1-.666-2.008L98.2,102.29a1.115,1.115,0,1,1,1.331,1.788l-20.954,15.6a1.106,1.106,0,0,1-.665.221" transform="translate(-19.719 -26.208)" fill="#233863"/>
            <line id="Line_2185" data-name="Line 2185" y1="17.568" x2="23.598" transform="translate(52.755 99.847)" fill="#fff"/>
            <path id="Path_906072" data-name="Path 906072" d="M70.6,152.639a1.115,1.115,0,0,1-.666-2.009l23.6-17.568a1.115,1.115,0,0,1,1.332,1.788l-23.6,17.568a1.111,1.111,0,0,1-.665.221" transform="translate(-17.84 -34.109)" fill="#fff"/>
            <line id="Line_2186" data-name="Line 2186" y1="8.103" x2="10.885" transform="translate(87.752 103.154)" fill="#fff"/>
            <path id="Path_906073" data-name="Path 906073" d="M117.685,147.623a1.115,1.115,0,0,1-.666-2.009l10.884-8.1a1.115,1.115,0,1,1,1.331,1.788l-10.884,8.1a1.111,1.111,0,0,1-.665.221" transform="translate(-29.931 -35.252)" fill="#233863"/>
            <path id="Path_906074" data-name="Path 906074" d="M124.379,84.743l-7.522,60.325,45.923,5.726,7.664-61.465-4.732,3.683-3.5-4.491-4.491,3.5-3.308-4.251-4.331,3.371-3.246-4.17-4.251,3.308-3.246-4.17-3.85,3-3.557-4.572-4.652,3.62-2.847-3.657" transform="translate(-30.005 -21.694)" fill="#ffb44f"/>
            <path id="Path_906075" data-name="Path 906075" d="M162.395,151.523a1.075,1.075,0,0,1-.137-.009l-45.922-5.726a1.114,1.114,0,0,1-.969-1.244l7.522-60.325a1.146,1.146,0,0,1,.058-.245,1.116,1.116,0,0,1,1.987-.555L127.1,86.2l3.773-2.935a1.114,1.114,0,0,1,1.564.195l2.873,3.692,2.969-2.311a1.115,1.115,0,0,1,1.565.195l2.56,3.29,3.371-2.623a1.114,1.114,0,0,1,1.565.195l2.56,3.29,3.452-2.685a1.113,1.113,0,0,1,1.564.195l2.624,3.371,3.612-2.81a1.114,1.114,0,0,1,1.565.195l2.811,3.611,3.851-3a1.114,1.114,0,0,1,1.79,1.017L163.5,150.546a1.117,1.117,0,0,1-1.107.977m-44.678-7.809,43.71,5.45,7.192-57.689-2.607,2.03a1.114,1.114,0,0,1-1.564-.195L161.637,89.7l-3.612,2.81a1.115,1.115,0,0,1-1.565-.195l-2.623-3.371-3.452,2.685a1.115,1.115,0,0,1-1.565-.195l-2.56-3.291-3.372,2.624a1.113,1.113,0,0,1-1.563-.2l-2.563-3.29-2.97,2.311a1.115,1.115,0,0,1-1.564-.2l-2.873-3.691-3.773,2.935a1.114,1.114,0,0,1-1.564-.195L124.8,86.881Z" transform="translate(-29.62 -21.309)" fill="#233863"/>
            <path id="Path_906076" data-name="Path 906076" d="M147.154,103.649a.658.658,0,0,1-.093-.006l-14.119-1.76a.743.743,0,0,1,.184-1.475l14.119,1.761a.743.743,0,0,1-.091,1.481" transform="translate(-33.968 -25.78)" fill="#fff"/>
            <line id="Line_2187" data-name="Line 2187" x2="25.957" y2="3.236" transform="translate(98.48 80.072)" fill="#fff"/>
            <path id="Path_906077" data-name="Path 906077" d="M158.2,111.457a.791.791,0,0,1-.093-.006l-25.957-3.236a.743.743,0,0,1,.184-1.475l25.957,3.237a.743.743,0,0,1-.091,1.481" transform="translate(-33.765 -27.406)" fill="#233863"/>
            <path id="Path_906078" data-name="Path 906078" d="M174.423,113.48a.79.79,0,0,1-.093-.006l-3.476-.433a.743.743,0,0,1,.184-1.475l3.476.433a.743.743,0,0,1-.091,1.481" transform="translate(-43.702 -28.645)" fill="#fff"/>
            <line id="Line_2188" data-name="Line 2188" x2="9.538" y2="1.189" transform="translate(97.635 86.846)" fill="#fff"/>
            <path id="Path_906079" data-name="Path 906079" d="M140.647,118.525a.65.65,0,0,1-.093-.006l-9.539-1.189a.743.743,0,1,1,.184-1.475l9.538,1.189a.743.743,0,0,1-.091,1.481" transform="translate(-33.473 -29.746)" fill="#233863"/>
            <line id="Line_2189" data-name="Line 2189" x2="18.585" y2="2.317" transform="translate(111.291 88.549)" fill="#fff"/>
            <path id="Path_906080" data-name="Path 906080" d="M168.067,121.944a.658.658,0,0,1-.093-.006l-18.585-2.317a.743.743,0,0,1,.184-1.475l18.585,2.317a.743.743,0,0,1-.091,1.481" transform="translate(-38.191 -30.334)" fill="#233863"/>
            <line id="Line_2190" data-name="Line 2190" x2="20.929" y2="2.609" transform="translate(96.395 96.794)" fill="#fff"/>
            <path id="Path_906081" data-name="Path 906081" d="M150.37,133.329a.655.655,0,0,1-.093-.006l-20.929-2.609a.743.743,0,1,1,.184-1.474l20.929,2.609a.743.743,0,0,1-.091,1.48" transform="translate(-33.045 -33.183)" fill="#233863"/>
            <line id="Line_2191" data-name="Line 2191" x2="9.653" y2="1.204" transform="translate(117.795 109.13)" fill="#fff"/>
            <path id="Path_906082" data-name="Path 906082" d="M167.759,148.765a1.1,1.1,0,0,1-.139-.009l-9.654-1.2a1.114,1.114,0,1,1,.276-2.212l9.654,1.2a1.115,1.115,0,0,1-.137,2.221" transform="translate(-40.31 -37.316)" fill="#233863"/>
            <path id="Path_906083" data-name="Path 906083" d="M242.921,202.869,123.016,231.817a7.036,7.036,0,0,1-8.491-5.189l-19.08-79.033a7.036,7.036,0,0,1,5.189-8.491l119.905-28.947a7.036,7.036,0,0,1,8.491,5.189l19.08,79.033a7.036,7.036,0,0,1-5.189,8.491" transform="translate(-24.456 -28.234)" fill="#3d85fd"/>
            <path id="Path_906084" data-name="Path 906084" d="M120.964,232.746a8.157,8.157,0,0,1-7.908-6.241l-19.08-79.034a8.16,8.16,0,0,1,6.011-9.835l119.906-28.947a8.16,8.16,0,0,1,9.836,6.01l19.08,79.035a8.16,8.16,0,0,1-6.009,9.835h0L122.892,232.514a8.2,8.2,0,0,1-1.927.231M221.8,110.689a5.922,5.922,0,0,0-1.39.166L100.509,139.8a5.928,5.928,0,0,0-4.366,7.145l19.08,79.034a5.92,5.92,0,0,0,7.145,4.366L242.275,201.4h0a5.928,5.928,0,0,0,4.366-7.145l-19.08-79.034a5.932,5.932,0,0,0-5.756-4.532m20.732,91.795h0Z" transform="translate(-24.071 -27.849)" fill="#233863"/>
            <g id="Group_1113208" data-name="Group 1113208" transform="translate(104.83 81.275)" opacity="0.36">
              <g id="Group_1113207" data-name="Group 1113207">
                <g id="Group_1113206" data-name="Group 1113206" clip-path="url(#clip-path-4)">
                  <path id="Path_906085" data-name="Path 906085" d="M217.966,112.17l-35.234,8.59,8.19,33.593c1.063,4.358-2.663,9.009-8.321,10.389-10.743,2.619-17.818,11.451-15.8,19.726.853,3.5-2.14,7.238-6.686,8.347-12.689,3.094-21.045,13.525-18.662,23.3l3.225,13.227L252.322,203.1a9.917,9.917,0,0,0,7.287-11.985l-17.845-73.2a11.22,11.22,0,0,0-13.559-8.244Z" transform="translate(-141.046 -109.353)" fill="#233863"/>
                </g>
              </g>
            </g>
            <path id="Path_906086" data-name="Path 906086" d="M151.268,212.514l-16.286,3.97a.758.758,0,0,1-.917-.558l-.831-3.408a.759.759,0,0,1,.557-.918l16.286-3.97a.759.759,0,0,1,.917.558l.832,3.409a.76.76,0,0,1-.558.917" transform="translate(-34.204 -53.307)" fill="#233863"/>
            <path id="Path_906087" data-name="Path 906087" d="M179.346,205.669l-16.286,3.97a.758.758,0,0,1-.917-.558l-.831-3.408a.759.759,0,0,1,.557-.918l16.286-3.97a.759.759,0,0,1,.917.558l.832,3.408a.76.76,0,0,1-.558.918" transform="translate(-41.414 -51.549)" fill="#233863"/>
            <path id="Path_906088" data-name="Path 906088" d="M206.828,198.969l-16.286,3.97a.758.758,0,0,1-.917-.558l-.831-3.408a.759.759,0,0,1,.557-.918l16.286-3.97a.759.759,0,0,1,.917.558l.832,3.409a.76.76,0,0,1-.558.917" transform="translate(-48.47 -49.829)" fill="#233863"/>
            <path id="Path_906089" data-name="Path 906089" d="M234.309,192.269l-16.286,3.97a.758.758,0,0,1-.917-.558l-.831-3.408a.759.759,0,0,1,.557-.918l16.286-3.97a.759.759,0,0,1,.917.558l.832,3.409a.76.76,0,0,1-.558.917" transform="translate(-55.527 -48.108)" fill="#233863"/>
            <path id="Path_906090" data-name="Path 906090" d="M151.688,229.376l-13.406,3.268a.759.759,0,0,1-.918-.557l-.41-1.681a.761.761,0,0,1,.557-.918l13.407-3.268a.758.758,0,0,1,.916.557l.41,1.681a.76.76,0,0,1-.557.918" transform="translate(-35.16 -58.08)" fill="#fff"/>
            <path id="Path_906091" data-name="Path 906091" d="M256.052,128.951,242.438,131.2a.759.759,0,0,1-.873-.626l-.282-1.707a.759.759,0,0,1,.625-.873l13.615-2.245a.759.759,0,0,1,.873.625l.282,1.708a.759.759,0,0,1-.626.873" transform="translate(-61.951 -32.285)" fill="#fff"/>
            <path id="Path_906092" data-name="Path 906092" d="M174.895,146.38l-53.843,13.127a1.021,1.021,0,0,1-1.235-.751l-.551-2.262a1.022,1.022,0,0,1,.751-1.235l53.843-13.126a1.022,1.022,0,0,1,1.235.751l.551,2.262a1.02,1.02,0,0,1-.751,1.234" transform="translate(-30.616 -36.487)" fill="#fff"/>
            <path id="Path_906093" data-name="Path 906093" d="M177.245,223.033,163.839,226.3a.759.759,0,0,1-.918-.557l-.41-1.681a.759.759,0,0,1,.557-.918l13.406-3.268a.759.759,0,0,1,.917.557l.41,1.682a.76.76,0,0,1-.558.917" transform="translate(-41.722 -56.451)" fill="#fff"/>
            <path id="Path_906094" data-name="Path 906094" d="M202.173,217.153l-13.406,3.268a.759.759,0,0,1-.918-.557l-.41-1.681a.759.759,0,0,1,.557-.918L201.4,214a.759.759,0,0,1,.917.557l.41,1.681a.76.76,0,0,1-.558.918" transform="translate(-48.122 -54.941)" fill="#fff"/>
            <path id="Path_906095" data-name="Path 906095" d="M154.27,242.562l-13.406,3.268a.759.759,0,0,1-.918-.557l-.41-1.681a.759.759,0,0,1,.557-.918l13.406-3.268a.759.759,0,0,1,.917.557l.41,1.682a.76.76,0,0,1-.558.917" transform="translate(-35.823 -61.466)" fill="#ffb44f"/>
            <path id="Path_906096" data-name="Path 906096" d="M150.632,189.154l-19.6,4.733a2.021,2.021,0,0,1-2.439-1.49l-1.424-5.9-1.308-5.419a2.02,2.02,0,0,1,1.49-2.438l19.6-4.733a2.021,2.021,0,0,1,2.439,1.49l2.732,11.316a2.021,2.021,0,0,1-1.49,2.438" transform="translate(-32.301 -44.639)" fill="#ffb44f"/>
            <line id="Line_2192" data-name="Line 2192" y1="6.225" x2="24.715" transform="translate(93.643 136.023)" fill="#ffb44f"/>
            <path id="Path_906097" data-name="Path 906097" d="M125.608,189.971a1.115,1.115,0,0,1-.271-2.2l24.715-6.225a1.115,1.115,0,0,1,.544,2.162l-24.715,6.225a1.115,1.115,0,0,1-.273.034" transform="translate(-31.966 -46.607)" fill="#3d85fd"/>
            <path id="Path_906098" data-name="Path 906098" d="M145.666,185.427a3.766,3.766,0,1,1-4.109-3.387,3.766,3.766,0,0,1,4.109,3.387" transform="translate(-35.473 -46.737)" fill="#ffb44f"/>
            <path id="Path_906099" data-name="Path 906099" d="M141.529,190.284a4.879,4.879,0,1,1,.471-.022c-.158.015-.315.022-.471.022m.008-7.532c-.085,0-.172,0-.259.013a2.64,2.64,0,1,0,.259-.013" transform="translate(-35.087 -46.352)" fill="#3d85fd"/>
            <path id="Path_906100" data-name="Path 906100" d="M256.807,215.289a7.274,7.274,0,0,1,.817-5.822,7.3,7.3,0,1,0,2.935,10.35,7.276,7.276,0,0,1-3.752-4.527" transform="translate(-63.432 -53.582)" fill="#fff"/>
            <path id="Path_906101" data-name="Path 906101" d="M268.47,204.425a7.3,7.3,0,1,0,9.021,5.034,7.269,7.269,0,0,0-9.021-5.034" transform="translate(-67.57 -52.418)" fill="#ffb44f"/>
            <path id="Path_906102" data-name="Path 906102" d="M276.942,28.084a1.051,1.051,0,0,1,.41-.443l12.1-7.159a1.053,1.053,0,0,1,1.072,1.813l-12.1,7.159a1.053,1.053,0,0,1-1.481-1.37" transform="translate(-71.082 -5.222)" fill="#233863"/>
            <path id="Path_906103" data-name="Path 906103" d="M265.9,21.286a1.045,1.045,0,0,1,.04-.433l5.831-18.7a1.053,1.053,0,0,1,2.01.627l-5.831,18.7a1.052,1.052,0,0,1-2.05-.193" transform="translate(-68.273 -0.362)" fill="#233863"/>
            <path id="Path_906104" data-name="Path 906104" d="M238.71,4.049a1.053,1.053,0,0,1,1.886-.934l9.97,18.862a1.053,1.053,0,0,1-1.862.984L238.736,4.1c-.009-.017-.018-.034-.025-.051" transform="translate(-61.268 -0.656)" fill="#233863"/>
            <path id="Path_906105" data-name="Path 906105" d="M194.221,339.206a.914.914,0,0,1-.392.345l-11.059,5.081a.911.911,0,0,1-.761-1.656l11.059-5.082a.911.911,0,0,1,1.153,1.312" transform="translate(-46.598 -86.738)" fill="#233863"/>
            <path id="Path_906106" data-name="Path 906106" d="M204.982,342.611a.9.9,0,0,1-.074.369l-6.69,15.58a.911.911,0,0,1-1.674-.719l6.69-15.58a.911.911,0,0,1,1.748.349" transform="translate(-50.447 -87.739)" fill="#233863"/>
            <path id="Path_906107" data-name="Path 906107" d="M226.2,359.523a.911.911,0,0,1-1.707.635l-6.9-17.126a.911.911,0,1,1,1.69-.682l6.9,17.127.017.046" transform="translate(-55.855 -87.757)" fill="#233863"/>
            <path id="Path_906108" data-name="Path 906108" d="M32.3,189.091,31.8,176.3l22.03,20.484L33.47,218.929l-.5-12.791s-19.012-3.817-31.017,18.3a31.28,31.28,0,0,1,10.039-28.88s6.265-6.338,20.31-6.464" transform="translate(-0.375 -45.267)" fill="#ffb44f"/>
            <path id="Path_906109" data-name="Path 906109" d="M1.576,225.164a1,1,0,0,1-.148-.01,1.115,1.115,0,0,1-.937-.849,32.7,32.7,0,0,1,10.378-29.963c.216-.221,6.359-6.28,19.9-6.726l-.458-11.659a1.115,1.115,0,0,1,1.874-.86l22.031,20.484a1.116,1.116,0,0,1,.062,1.571L33.916,219.3a1.115,1.115,0,0,1-1.935-.711l-.466-11.869c-3.773-.43-18.8-.85-28.959,17.863a1.116,1.116,0,0,1-.98.582M32.642,178.57l.4,10.093a1.115,1.115,0,0,1-1.1,1.159c-13.429.12-19.468,6.072-19.527,6.133a30.409,30.409,0,0,0-10.13,24.7c12.3-19.39,30.345-16.032,30.535-15.993a1.115,1.115,0,0,1,.895,1.049l.4,10.09,17.779-19.342Z" transform="translate(0 -44.883)" fill="#233863"/>
            <path id="Path_906110" data-name="Path 906110" d="M338.785,240.986l-.355,12.8-20.61-21.914,21.795-20.734-.355,12.8s18.714,5.081,32.172-16.179a31.279,31.279,0,0,1-11.95,28.143s-6.675,5.9-20.7,5.09" transform="translate(-81.605 -53.344)" fill="#ffb44f"/>
            <path id="Path_906111" data-name="Path 906111" d="M338.044,254.514a1.113,1.113,0,0,1-.812-.352L316.622,232.25a1.115,1.115,0,0,1,.044-1.572l21.795-20.734a1.115,1.115,0,0,1,1.883.839l-.329,11.872c3.734.684,18.7,2.106,30.091-15.884a1.115,1.115,0,0,1,2.042.415,32.7,32.7,0,0,1-12.361,29.2c-.23.206-6.761,5.84-20.3,5.378l-.325,11.664a1.115,1.115,0,0,1-1.114,1.084M319.006,231.53l18,19.137.281-10.1a1.113,1.113,0,0,1,1.179-1.081c13.333.766,19.832-4.758,19.9-4.815A30.342,30.342,0,0,0,370.126,210.7c-13.569,18.532-31.359,13.974-31.544,13.922a1.115,1.115,0,0,1-.823-1.107l.28-10.095Z" transform="translate(-81.22 -52.959)" fill="#233863"/>
          </g>
        </g>
      </g>
    </g>
  </g>
</svg>
