<svg xmlns="http://www.w3.org/2000/svg" xmlns:xlink="http://www.w3.org/1999/xlink" width="103" height="103" viewBox="0 0 103 103">
  <defs>
    <filter id="Path_903559" x="0" y="0" width="103" height="103" filterUnits="userSpaceOnUse">
      <feOffset dy="3" input="SourceAlpha"/>
      <feGaussianBlur stdDeviation="3" result="blur"/>
      <feFlood flood-opacity="0.161"/>
      <feComposite operator="in" in2="blur"/>
    </filter>
    <filter id="Path_903559-2" x="0" y="0" width="103" height="103" filterUnits="userSpaceOnUse">
      <feOffset dy="3" input="SourceAlpha"/>
      <feGaussianBlur stdDeviation="3" result="blur-2"/>
      <feFlood flood-opacity="0.161" result="color"/>
      <feComposite operator="out" in="SourceGraphic" in2="blur-2"/>
      <feComposite operator="in" in="color"/>
      <feComposite operator="in" in2="SourceGraphic"/>
    </filter>
  </defs>
  <g id="Group_1113393" data-name="Group 1113393" transform="translate(-696.051 -2279)">
    <g data-type="innerShadowGroup">
      <g transform="matrix(1, 0, 0, 1, 696.05, 2279)" filter="url(#Path_903559)">
        <g id="Path_903559-3" data-name="Path 903559" transform="translate(9 6)" fill="#fd9826">
          <path d="M 42.5 83 C 37.03165054321289 83 31.72793769836426 81.92946624755859 26.73618698120117 79.81812286376953 C 21.91371154785156 77.77839660644531 17.582275390625 74.85792541503906 13.86217498779297 71.13782501220703 C 10.14207458496094 67.417724609375 7.22160005569458 63.08628845214844 5.181875228881836 58.26381301879883 C 3.070537567138672 53.27206420898438 2 47.96834945678711 2 42.5 C 2 37.03165054321289 3.070537567138672 31.72793769836426 5.181875228881836 26.73618698120117 C 7.22160005569458 21.91371154785156 10.14207458496094 17.582275390625 13.86217498779297 13.86217498779297 C 17.582275390625 10.14207458496094 21.91371154785156 7.22160005569458 26.73618698120117 5.181875228881836 C 31.72793769836426 3.070537567138672 37.03165054321289 2 42.5 2 C 47.96834945678711 2 53.27206420898438 3.070537567138672 58.26381301879883 5.181875228881836 C 63.08628845214844 7.22160005569458 67.417724609375 10.14207458496094 71.13782501220703 13.86217498779297 C 74.85792541503906 17.582275390625 77.77839660644531 21.91371154785156 79.81812286376953 26.73618698120117 C 81.92946624755859 31.72793769836426 83 37.03165054321289 83 42.5 C 83 47.96834945678711 81.92946624755859 53.27206420898438 79.81812286376953 58.26381301879883 C 77.77839660644531 63.08628845214844 74.85792541503906 67.417724609375 71.13782501220703 71.13782501220703 C 67.417724609375 74.85792541503906 63.08628845214844 77.77839660644531 58.26381301879883 79.81812286376953 C 53.27206420898438 81.92946624755859 47.96834945678711 83 42.5 83 Z" stroke="none"/>
          <path d="M 42.5 4 C 37.3007698059082 4 32.25918579101562 5.017387390136719 27.51528549194336 7.023887634277344 C 22.93121337890625 8.962783813476562 18.81345367431641 11.73932647705078 15.27638244628906 15.27638244628906 C 11.73932647705078 18.81345367431641 8.962783813476562 22.93121337890625 7.023887634277344 27.51528549194336 C 5.017387390136719 32.25918579101562 4 37.3007698059082 4 42.5 C 4 47.6992301940918 5.017387390136719 52.74081420898438 7.023887634277344 57.48471450805664 C 8.962783813476562 62.06878662109375 11.73932647705078 66.18653869628906 15.27638244628906 69.72361755371094 C 18.81345367431641 73.26067352294922 22.93121337890625 76.03721618652344 27.51528549194336 77.97611236572266 C 32.25918579101562 79.98261260986328 37.3007698059082 81 42.5 81 C 47.6992301940918 81 52.74081420898438 79.98261260986328 57.48471450805664 77.97611236572266 C 62.06878662109375 76.03721618652344 66.18653869628906 73.26067352294922 69.72361755371094 69.72361755371094 C 73.26067352294922 66.18653869628906 76.03721618652344 62.06878662109375 77.97611236572266 57.48471450805664 C 79.98261260986328 52.74081420898438 81 47.6992301940918 81 42.5 C 81 37.3007698059082 79.98261260986328 32.25918579101562 77.97611236572266 27.51528549194336 C 76.03721618652344 22.93121337890625 73.26067352294922 18.81345367431641 69.72361755371094 15.27638244628906 C 66.18653869628906 11.73932647705078 62.06878662109375 8.962783813476562 57.48471450805664 7.023887634277344 C 52.74081420898438 5.017387390136719 47.6992301940918 4 42.5 4 M 42.5 0 C 65.97209930419922 0 85 19.02790069580078 85 42.5 C 85 65.97209930419922 65.97209930419922 85 42.5 85 C 19.02790069580078 85 0 65.97209930419922 0 42.5 C 0 19.02790069580078 19.02790069580078 0 42.5 0 Z" stroke="none" fill="#fff"/>
        </g>
      </g>
      <g id="Path_903559-4" data-name="Path 903559" transform="translate(705.051 2285)" fill="#fd9826">
        <path d="M 42.5 83 C 37.03165054321289 83 31.72793769836426 81.92946624755859 26.73618698120117 79.81812286376953 C 21.91371154785156 77.77839660644531 17.582275390625 74.85792541503906 13.86217498779297 71.13782501220703 C 10.14207458496094 67.417724609375 7.22160005569458 63.08628845214844 5.181875228881836 58.26381301879883 C 3.070537567138672 53.27206420898438 2 47.96834945678711 2 42.5 C 2 37.03165054321289 3.070537567138672 31.72793769836426 5.181875228881836 26.73618698120117 C 7.22160005569458 21.91371154785156 10.14207458496094 17.582275390625 13.86217498779297 13.86217498779297 C 17.582275390625 10.14207458496094 21.91371154785156 7.22160005569458 26.73618698120117 5.181875228881836 C 31.72793769836426 3.070537567138672 37.03165054321289 2 42.5 2 C 47.96834945678711 2 53.27206420898438 3.070537567138672 58.26381301879883 5.181875228881836 C 63.08628845214844 7.22160005569458 67.417724609375 10.14207458496094 71.13782501220703 13.86217498779297 C 74.85792541503906 17.582275390625 77.77839660644531 21.91371154785156 79.81812286376953 26.73618698120117 C 81.92946624755859 31.72793769836426 83 37.03165054321289 83 42.5 C 83 47.96834945678711 81.92946624755859 53.27206420898438 79.81812286376953 58.26381301879883 C 77.77839660644531 63.08628845214844 74.85792541503906 67.417724609375 71.13782501220703 71.13782501220703 C 67.417724609375 74.85792541503906 63.08628845214844 77.77839660644531 58.26381301879883 79.81812286376953 C 53.27206420898438 81.92946624755859 47.96834945678711 83 42.5 83 Z" stroke="none"/>
        <path d="M 42.5 4 C 37.3007698059082 4 32.25918579101562 5.017387390136719 27.51528549194336 7.023887634277344 C 22.93121337890625 8.962783813476562 18.81345367431641 11.73932647705078 15.27638244628906 15.27638244628906 C 11.73932647705078 18.81345367431641 8.962783813476562 22.93121337890625 7.023887634277344 27.51528549194336 C 5.017387390136719 32.25918579101562 4 37.3007698059082 4 42.5 C 4 47.6992301940918 5.017387390136719 52.74081420898438 7.023887634277344 57.48471450805664 C 8.962783813476562 62.06878662109375 11.73932647705078 66.18653869628906 15.27638244628906 69.72361755371094 C 18.81345367431641 73.26067352294922 22.93121337890625 76.03721618652344 27.51528549194336 77.97611236572266 C 32.25918579101562 79.98261260986328 37.3007698059082 81 42.5 81 C 47.6992301940918 81 52.74081420898438 79.98261260986328 57.48471450805664 77.97611236572266 C 62.06878662109375 76.03721618652344 66.18653869628906 73.26067352294922 69.72361755371094 69.72361755371094 C 73.26067352294922 66.18653869628906 76.03721618652344 62.06878662109375 77.97611236572266 57.48471450805664 C 79.98261260986328 52.74081420898438 81 47.6992301940918 81 42.5 C 81 37.3007698059082 79.98261260986328 32.25918579101562 77.97611236572266 27.51528549194336 C 76.03721618652344 22.93121337890625 73.26067352294922 18.81345367431641 69.72361755371094 15.27638244628906 C 66.18653869628906 11.73932647705078 62.06878662109375 8.962783813476562 57.48471450805664 7.023887634277344 C 52.74081420898438 5.017387390136719 47.6992301940918 4 42.5 4 M 42.5 0 C 65.97209930419922 0 85 19.02790069580078 85 42.5 C 85 65.97209930419922 65.97209930419922 85 42.5 85 C 19.02790069580078 85 0 65.97209930419922 0 42.5 C 0 19.02790069580078 19.02790069580078 0 42.5 0 Z" stroke="none"/>
      </g>
      <g transform="matrix(1, 0, 0, 1, 696.05, 2279)" filter="url(#Path_903559-2)">
        <g id="Path_903559-5" data-name="Path 903559" transform="translate(9 6)" fill="#fff">
          <path d="M 42.5 83 C 37.03165054321289 83 31.72793769836426 81.92946624755859 26.73618698120117 79.81812286376953 C 21.91371154785156 77.77839660644531 17.582275390625 74.85792541503906 13.86217498779297 71.13782501220703 C 10.14207458496094 67.417724609375 7.22160005569458 63.08628845214844 5.181875228881836 58.26381301879883 C 3.070537567138672 53.27206420898438 2 47.96834945678711 2 42.5 C 2 37.03165054321289 3.070537567138672 31.72793769836426 5.181875228881836 26.73618698120117 C 7.22160005569458 21.91371154785156 10.14207458496094 17.582275390625 13.86217498779297 13.86217498779297 C 17.582275390625 10.14207458496094 21.91371154785156 7.22160005569458 26.73618698120117 5.181875228881836 C 31.72793769836426 3.070537567138672 37.03165054321289 2 42.5 2 C 47.96834945678711 2 53.27206420898438 3.070537567138672 58.26381301879883 5.181875228881836 C 63.08628845214844 7.22160005569458 67.417724609375 10.14207458496094 71.13782501220703 13.86217498779297 C 74.85792541503906 17.582275390625 77.77839660644531 21.91371154785156 79.81812286376953 26.73618698120117 C 81.92946624755859 31.72793769836426 83 37.03165054321289 83 42.5 C 83 47.96834945678711 81.92946624755859 53.27206420898438 79.81812286376953 58.26381301879883 C 77.77839660644531 63.08628845214844 74.85792541503906 67.417724609375 71.13782501220703 71.13782501220703 C 67.417724609375 74.85792541503906 63.08628845214844 77.77839660644531 58.26381301879883 79.81812286376953 C 53.27206420898438 81.92946624755859 47.96834945678711 83 42.5 83 Z" stroke="none"/>
          <path d="M 42.5 4 C 37.3007698059082 4 32.25918579101562 5.017387390136719 27.51528549194336 7.023887634277344 C 22.93121337890625 8.962783813476562 18.81345367431641 11.73932647705078 15.27638244628906 15.27638244628906 C 11.73932647705078 18.81345367431641 8.962783813476562 22.93121337890625 7.023887634277344 27.51528549194336 C 5.017387390136719 32.25918579101562 4 37.3007698059082 4 42.5 C 4 47.6992301940918 5.017387390136719 52.74081420898438 7.023887634277344 57.48471450805664 C 8.962783813476562 62.06878662109375 11.73932647705078 66.18653869628906 15.27638244628906 69.72361755371094 C 18.81345367431641 73.26067352294922 22.93121337890625 76.03721618652344 27.51528549194336 77.97611236572266 C 32.25918579101562 79.98261260986328 37.3007698059082 81 42.5 81 C 47.6992301940918 81 52.74081420898438 79.98261260986328 57.48471450805664 77.97611236572266 C 62.06878662109375 76.03721618652344 66.18653869628906 73.26067352294922 69.72361755371094 69.72361755371094 C 73.26067352294922 66.18653869628906 76.03721618652344 62.06878662109375 77.97611236572266 57.48471450805664 C 79.98261260986328 52.74081420898438 81 47.6992301940918 81 42.5 C 81 37.3007698059082 79.98261260986328 32.25918579101562 77.97611236572266 27.51528549194336 C 76.03721618652344 22.93121337890625 73.26067352294922 18.81345367431641 69.72361755371094 15.27638244628906 C 66.18653869628906 11.73932647705078 62.06878662109375 8.962783813476562 57.48471450805664 7.023887634277344 C 52.74081420898438 5.017387390136719 47.6992301940918 4 42.5 4 M 42.5 0 C 65.97209930419922 0 85 19.02790069580078 85 42.5 C 85 65.97209930419922 65.97209930419922 85 42.5 85 C 19.02790069580078 85 0 65.97209930419922 0 42.5 C 0 19.02790069580078 19.02790069580078 0 42.5 0 Z" stroke="none"/>
        </g>
      </g>
      <g id="Path_903559-6" data-name="Path 903559" transform="translate(705.051 2285)" fill="none">
        <path d="M 42.5 83 C 37.03165054321289 83 31.72793769836426 81.92946624755859 26.73618698120117 79.81812286376953 C 21.91371154785156 77.77839660644531 17.582275390625 74.85792541503906 13.86217498779297 71.13782501220703 C 10.14207458496094 67.417724609375 7.22160005569458 63.08628845214844 5.181875228881836 58.26381301879883 C 3.070537567138672 53.27206420898438 2 47.96834945678711 2 42.5 C 2 37.03165054321289 3.070537567138672 31.72793769836426 5.181875228881836 26.73618698120117 C 7.22160005569458 21.91371154785156 10.14207458496094 17.582275390625 13.86217498779297 13.86217498779297 C 17.582275390625 10.14207458496094 21.91371154785156 7.22160005569458 26.73618698120117 5.181875228881836 C 31.72793769836426 3.070537567138672 37.03165054321289 2 42.5 2 C 47.96834945678711 2 53.27206420898438 3.070537567138672 58.26381301879883 5.181875228881836 C 63.08628845214844 7.22160005569458 67.417724609375 10.14207458496094 71.13782501220703 13.86217498779297 C 74.85792541503906 17.582275390625 77.77839660644531 21.91371154785156 79.81812286376953 26.73618698120117 C 81.92946624755859 31.72793769836426 83 37.03165054321289 83 42.5 C 83 47.96834945678711 81.92946624755859 53.27206420898438 79.81812286376953 58.26381301879883 C 77.77839660644531 63.08628845214844 74.85792541503906 67.417724609375 71.13782501220703 71.13782501220703 C 67.417724609375 74.85792541503906 63.08628845214844 77.77839660644531 58.26381301879883 79.81812286376953 C 53.27206420898438 81.92946624755859 47.96834945678711 83 42.5 83 Z" stroke="none"/>
        <path d="M 42.5 4 C 37.3007698059082 4 32.25918579101562 5.017387390136719 27.51528549194336 7.023887634277344 C 22.93121337890625 8.962783813476562 18.81345367431641 11.73932647705078 15.27638244628906 15.27638244628906 C 11.73932647705078 18.81345367431641 8.962783813476562 22.93121337890625 7.023887634277344 27.51528549194336 C 5.017387390136719 32.25918579101562 4 37.3007698059082 4 42.5 C 4 47.6992301940918 5.017387390136719 52.74081420898438 7.023887634277344 57.48471450805664 C 8.962783813476562 62.06878662109375 11.73932647705078 66.18653869628906 15.27638244628906 69.72361755371094 C 18.81345367431641 73.26067352294922 22.93121337890625 76.03721618652344 27.51528549194336 77.97611236572266 C 32.25918579101562 79.98261260986328 37.3007698059082 81 42.5 81 C 47.6992301940918 81 52.74081420898438 79.98261260986328 57.48471450805664 77.97611236572266 C 62.06878662109375 76.03721618652344 66.18653869628906 73.26067352294922 69.72361755371094 69.72361755371094 C 73.26067352294922 66.18653869628906 76.03721618652344 62.06878662109375 77.97611236572266 57.48471450805664 C 79.98261260986328 52.74081420898438 81 47.6992301940918 81 42.5 C 81 37.3007698059082 79.98261260986328 32.25918579101562 77.97611236572266 27.51528549194336 C 76.03721618652344 22.93121337890625 73.26067352294922 18.81345367431641 69.72361755371094 15.27638244628906 C 66.18653869628906 11.73932647705078 62.06878662109375 8.962783813476562 57.48471450805664 7.023887634277344 C 52.74081420898438 5.017387390136719 47.6992301940918 4 42.5 4 M 42.5 0 C 65.97209930419922 0 85 19.02790069580078 85 42.5 C 85 65.97209930419922 65.97209930419922 85 42.5 85 C 19.02790069580078 85 0 65.97209930419922 0 42.5 C 0 19.02790069580078 19.02790069580078 0 42.5 0 Z" stroke="none" fill="#fff"/>
      </g>
    </g>
    <g id="Group_1113392" data-name="Group 1113392" transform="translate(722.051 2302)">
      <g id="Group_1113390" data-name="Group 1113390" transform="translate(0.737 0.737)">
        <path id="Path_906625" data-name="Path 906625" d="M304.122,179.878V190.2a.992.992,0,0,0,.992.992h15.478a.992.992,0,0,0,.992-.992V179.878a8.731,8.731,0,0,0-17.463,0Z" transform="translate(-274.988 -155.073)" fill="#918291"/>
        <path id="Path_906626" data-name="Path 906626" d="M380.263,171.146a8.8,8.8,0,0,0-1.389.11,8.733,8.733,0,0,1,7.342,8.621V190.2a.992.992,0,0,1-.992.992H388a.992.992,0,0,0,.992-.992V179.877A8.731,8.731,0,0,0,380.263,171.146Z" transform="translate(-342.397 -155.073)" fill="#7a6d79"/>
        <path id="Path_906627" data-name="Path 906627" d="M31.313,39.25H9.484A1.984,1.984,0,0,1,7.5,37.266V9.484A1.984,1.984,0,0,1,9.484,7.5H31.313A1.984,1.984,0,0,1,33.3,9.484V37.266A1.984,1.984,0,0,1,31.313,39.25Z" transform="translate(-7.5 -7.5)" fill="#eaf6ff"/>
        <path id="Path_906628" data-name="Path 906628" d="M224.432,7.5h-2.778a1.984,1.984,0,0,1,1.984,1.984V37.266a1.984,1.984,0,0,1-1.984,1.984h2.778a1.984,1.984,0,0,0,1.984-1.984V9.484A1.984,1.984,0,0,0,224.432,7.5Z" transform="translate(-200.62 -7.5)" fill="#d8ecfe"/>
        <g id="Group_1113389" data-name="Group 1113389" transform="translate(3.175 3.175)">
          <path id="Path_906629" data-name="Path 906629" d="M0,0H3.175V6.35H0Z" transform="translate(19.447) rotate(90)" fill="#60b7ff"/>
          <path id="Path_906630" data-name="Path 906630" d="M0,0H3.175V6.35H0Z" transform="translate(19.447 15.875) rotate(90)" fill="#60b7ff"/>
          <path id="Path_906631" data-name="Path 906631" d="M0,0H3.175V13.1H0Z" transform="translate(13.097 0) rotate(90)" fill="#60b7ff"/>
          <path id="Path_906632" data-name="Path 906632" d="M302.44,387.9H282.524a.992.992,0,0,1-.992-.992v-5.755a5.953,5.953,0,0,1,5.953-5.953h9.994a5.953,5.953,0,0,1,5.953,5.953v5.755A.992.992,0,0,1,302.44,387.9Z" transform="translate(-257.791 -342.258)" fill="#60b7ff"/>
        </g>
        <path id="Path_906633" data-name="Path 906633" d="M417.472,375.2h-2.877a5.953,5.953,0,0,1,5.953,5.953v5.755a.992.992,0,0,1-.992.992h2.877a.992.992,0,0,0,.992-.992v-5.755a5.953,5.953,0,0,0-5.953-5.953Z" transform="translate(-374.61 -339.083)" fill="#26a6fe"/>
        <path id="Path_906634" data-name="Path 906634" d="M368.772,345.581v2.909l2.381,2.381,2.381-2.381v-2.909Z" transform="translate(-333.288 -312.374)" fill="#f6a96c"/>
        <path id="Path_906635" data-name="Path 906635" d="M345.647,243.013a4.763,4.763,0,0,1-2.844-.943l-1.474-1.1a.4.4,0,0,0-.474,0l-1.474,1.1a4.762,4.762,0,0,1-2.844.943h-1.1v3.969a5.655,5.655,0,1,0,11.311,0v-3.969Z" transform="translate(-303.227 -217.97)" fill="#fed2a4"/>
        <path id="Path_906636" data-name="Path 906636" d="M385.73,260.3a4.764,4.764,0,0,1-1.479-.236v4.2a5.657,5.657,0,0,1-4.366,5.506,5.654,5.654,0,0,0,6.945-5.506V260.3h-1.1Z" transform="translate(-343.309 -235.253)" fill="#ffbd86"/>
        <path id="Path_906637" data-name="Path 906637" d="M395.4,375.2h2.616l-2.188,5.19-2.809-2.809Z" transform="translate(-355.15 -339.083)" fill="#eaf6ff"/>
        <path id="Path_906638" data-name="Path 906638" d="M344.758,375.2h-2.616l2.188,5.19,2.809-2.809Z" transform="translate(-309.273 -339.083)" fill="#eaf6ff"/>
        <circle id="Ellipse_12922" data-name="Ellipse 12922" cx="8.533" cy="8.533" r="8.533" transform="translate(4.366 31.75)" fill="#ffe177"/>
        <path id="Path_906639" data-name="Path 906639" d="M79.923,346.832a8.53,8.53,0,0,1-11.9,11.9,8.531,8.531,0,1,0,11.9-11.9Z" transform="translate(-62.082 -313.503)" fill="#ffd15b"/>
      </g>
      <g id="Group_1113391" data-name="Group 1113391" transform="translate(0)">
        <path id="Path_906640" data-name="Path 906640" d="M46.159,52.848h6.35a.737.737,0,0,0,.737-.737V33.062a.737.737,0,0,0-.737-.737H33.062a.737.737,0,0,0-.737.737V48.937a.737.737,0,0,0,.737.737h12.36v2.438A.737.737,0,0,0,46.159,52.848ZM51.772,48.2H46.9V36.973h4.877Zm0,3.175H46.9v-1.7h4.877Zm0-15.875H46.9V33.8h4.877Zm-6.35-1.7v1.7H33.8V33.8ZM33.8,36.973H45.422V48.2H33.8Z" transform="translate(-29.15 -29.15)"/>
        <path id="Path_906641" data-name="Path 906641" d="M72.134,129.3H65.387a.737.737,0,1,0,0,1.473h6.747a.737.737,0,0,0,0-1.473Z" transform="translate(-58.3 -116.601)"/>
        <path id="Path_906642" data-name="Path 906642" d="M65.387,98.449h6.747a.737.737,0,0,0,0-1.473H65.387a.737.737,0,0,0,0,1.473Z" transform="translate(-58.3 -87.451)"/>
        <path id="Path_906643" data-name="Path 906643" d="M72.134,161.626H65.387a.737.737,0,1,0,0,1.473h6.747a.737.737,0,0,0,0-1.473Z" transform="translate(-58.3 -145.751)"/>
        <path id="Path_906644" data-name="Path 906644" d="M.737,21.975a.737.737,0,0,0,.737-.737V2.721A1.249,1.249,0,0,1,2.721,1.473H24.549A1.249,1.249,0,0,1,25.8,2.721V7.426a.737.737,0,0,0,1.473,0V2.721A2.724,2.724,0,0,0,24.549,0H2.721A2.724,2.724,0,0,0,0,2.721V21.238a.737.737,0,0,0,.737.737Z" transform="translate(0)"/>
        <path id="Path_906645" data-name="Path 906645" d="M27.27,103.947a.737.737,0,1,0-1.473,0v19.628a1.249,1.249,0,0,1-1.247,1.247H2.721a1.249,1.249,0,0,1-1.247-1.247v-5.817a.737.737,0,1,0-1.473,0v5.817A2.724,2.724,0,0,0,2.721,126.3H8.626a9.269,9.269,0,1,0,10.018,0h5.905a2.724,2.724,0,0,0,2.721-2.721V103.947Zm-5.839,30.146a7.8,7.8,0,1,1-7.8-7.8A7.8,7.8,0,0,1,21.431,134.092Z" transform="translate(0 -93.073)"/>
        <path id="Path_906646" data-name="Path 906646" d="M45.308,259.339a.737.737,0,0,0-.737-.737H33.062a.737.737,0,0,0,0,1.473H44.571A.737.737,0,0,0,45.308,259.339Z" transform="translate(-29.15 -233.202)"/>
        <path id="Path_906647" data-name="Path 906647" d="M33.062,290.927a.737.737,0,0,0,0,1.473h6.152a.737.737,0,0,0,0-1.473Z" transform="translate(-29.15 -262.352)"/>
        <path id="Path_906648" data-name="Path 906648" d="M294.461,184.842a1.726,1.726,0,0,0,.725-1.4v-3.546a.737.737,0,1,0-1.473,0v3.546a.256.256,0,0,1-.255.255h-4.621V182.9a6.4,6.4,0,0,0,3.274-5.577v-3.969a.737.737,0,0,0-.737-.737h-1.1a4.052,4.052,0,0,1-2.4-.8l-1.474-1.1a1.141,1.141,0,0,0-1.354,0l-1.474,1.1a4.052,4.052,0,0,1-2.4.8h-1.1a.737.737,0,0,0-.737.737v3.969A6.4,6.4,0,0,0,282.6,182.9v.791h-4.621a.256.256,0,0,1-.255-.255V173.117a7.995,7.995,0,0,1,15.989,0v3.326a.737.737,0,1,0,1.473,0v-3.326a9.468,9.468,0,0,0-18.936,0v10.319a1.726,1.726,0,0,0,.725,1.405,6.688,6.688,0,0,0-2.944,5.54v5.755a1.731,1.731,0,0,0,1.729,1.729h19.916a1.731,1.731,0,0,0,1.729-1.729v-5.755A6.688,6.688,0,0,0,294.461,184.842Zm-6.056.324h1.2l-1.332,3.158-1.514-1.514Zm-7.605-7.841v-3.232h.364A5.534,5.534,0,0,0,284.448,173l1.271-.946,1.271.946a5.535,5.535,0,0,0,3.284,1.088h.364v3.232a4.919,4.919,0,1,1-9.838,0Zm4.919,6.392a6.379,6.379,0,0,0,1.645-.216v.623l-1.644,1.644-1.645-1.645V183.5A6.378,6.378,0,0,0,285.719,183.716Zm-2.687,1.449,1.645,1.645-1.514,1.514-1.331-3.158Zm12.9,10.971a.256.256,0,0,1-.256.256h-2.438v-4.026a.737.737,0,0,0-1.473,0v4.026H279.673v-4.026a.737.737,0,0,0-1.473,0v4.026h-2.438a.256.256,0,0,1-.256-.256v-5.755a5.223,5.223,0,0,1,4.737-5.194l1.988,4.717a.742.742,0,0,0,1.2.235l2.288-2.288,2.288,2.288a.742.742,0,0,0,1.2-.235l1.988-4.717a5.223,5.223,0,0,1,4.737,5.194Z" transform="translate(-247.116 -147.576)"/>
        <path id="Path_906649" data-name="Path 906649" d="M113.328,363.592v.2c-.088.022-.177.049-.267.081a2.243,2.243,0,0,0-1.533,1.76,2.316,2.316,0,0,0,.828,2.169,7.858,7.858,0,0,0,2.256,1.084.967.967,0,0,1,.7,1.134,1.262,1.262,0,0,1-1.252,1.064,2.089,2.089,0,0,1-1.5-.394.737.737,0,1,0-.806,1.233,3.307,3.307,0,0,0,1.576.605v.347a.737.737,0,1,0,1.473,0v-.419a2.774,2.774,0,0,0,1.963-2.193A2.445,2.445,0,0,0,115.1,367.5a7.23,7.23,0,0,1-1.838-.854.859.859,0,0,1-.283-.775.784.784,0,0,1,.577-.608,1.59,1.59,0,0,1,1.491.332.737.737,0,0,0,1-1.084,3.374,3.374,0,0,0-1.247-.682v-.235a.737.737,0,1,0-1.473,0Z" transform="translate(-100.476 -327.215)"/>
      </g>
    </g>
  </g>
</svg>
