<svg xmlns="http://www.w3.org/2000/svg" xmlns:xlink="http://www.w3.org/1999/xlink" width="113.15" height="113.15" viewBox="0 0 113.15 113.15">
  <defs>
    <filter id="Trazado_903578" x="0" y="0" width="113.15" height="113.15" filterUnits="userSpaceOnUse">
      <feOffset dy="3" input="SourceAlpha"/>
      <feGaussianBlur stdDeviation="3" result="blur"/>
      <feFlood flood-opacity="0.161"/>
      <feComposite operator="in" in2="blur"/>
    </filter>
    <filter id="Trazado_903578-2" x="0" y="0" width="113.15" height="113.15" filterUnits="userSpaceOnUse">
      <feOffset dy="3" input="SourceAlpha"/>
      <feGaussianBlur stdDeviation="3" result="blur-2"/>
      <feFlood flood-opacity="0.161" result="color"/>
      <feComposite operator="out" in="SourceGraphic" in2="blur-2"/>
      <feComposite operator="in" in="color"/>
      <feComposite operator="in" in2="SourceGraphic"/>
    </filter>
  </defs>
  <g id="Grupo_1113579" data-name="Grupo 1113579" transform="translate(-743 -4067.404)">
    <g data-type="innerShadowGroup">
      <g transform="matrix(1, 0, 0, 1, 743, 4067.4)" filter="url(#Trazado_903578)">
        <g id="Trazado_903578-3" data-name="Trazado 903578" transform="translate(9 6)" fill="#fd9826">
          <path d="M 47.57511901855469 93.15023040771484 C 41.42163467407227 93.15023040771484 35.45327758789062 91.94551849365234 29.8358325958252 89.56953430175781 C 24.40901947021484 87.27419281005859 19.53483390808105 83.98777770996094 15.34864711761475 79.80160522460938 C 11.16246223449707 75.61541748046875 7.876047611236572 70.74121856689453 5.580704689025879 65.31440734863281 C 3.204719066619873 59.69696044921875 2.000004768371582 53.72860336303711 2.000004768371582 47.57511901855469 C 2.000004768371582 41.42163467407227 3.204719066619873 35.45327758789062 5.580704689025879 29.8358325958252 C 7.876047611236572 24.40901947021484 11.16246223449707 19.53483390808105 15.34864711761475 15.34864711761475 C 19.53483390808105 11.16246223449707 24.40901947021484 7.876047611236572 29.8358325958252 5.580704689025879 C 35.45327758789062 3.204719066619873 41.42163467407227 2.000004768371582 47.57511901855469 2.000004768371582 C 53.72860336303711 2.000004768371582 59.69696044921875 3.204719066619873 65.31440734863281 5.580704689025879 C 70.74121856689453 7.876047611236572 75.61540222167969 11.16246223449707 79.80158996582031 15.34864711761475 C 83.98777770996094 19.53483390808105 87.27419281005859 24.40901947021484 89.56953430175781 29.8358325958252 C 91.94551849365234 35.45327758789062 93.15023040771484 41.42163467407227 93.15023040771484 47.57511901855469 C 93.15023040771484 53.72860336303711 91.94551849365234 59.69696044921875 89.56953430175781 65.31440734863281 C 87.27419281005859 70.74121856689453 83.98777770996094 75.61541748046875 79.80158996582031 79.80160522460938 C 75.61540222167969 83.98777770996094 70.74121856689453 87.27419281005859 65.31440734863281 89.56953430175781 C 59.69696044921875 91.94551849365234 53.72860336303711 93.15023040771484 47.57511901855469 93.15023040771484 Z" stroke="none"/>
          <path d="M 47.57511901855469 3.999992370605469 C 41.69075012207031 3.999992370605469 35.98451995849609 5.151565551757812 30.61493682861328 7.422706604003906 C 25.42652130126953 9.617210388183594 20.76601409912109 12.75970458984375 16.76285552978516 16.76285552978516 C 12.75970458984375 20.76601409912109 9.617210388183594 25.42652130126953 7.422706604003906 30.61493682861328 C 5.151565551757812 35.98451995849609 3.999992370605469 41.69075012207031 3.999992370605469 47.57511901855469 C 3.999992370605469 53.45948791503906 5.151565551757812 59.16571807861328 7.422706604003906 64.53530120849609 C 9.617210388183594 69.72371673583984 12.75970458984375 74.38424682617188 16.76285552978516 78.38739776611328 C 20.76601409912109 82.39054870605469 25.42652130126953 85.53302764892578 30.61493682861328 87.72753143310547 C 35.98451995849609 89.99867248535156 41.69075012207031 91.15024566650391 47.57511901855469 91.15024566650391 C 53.45948791503906 91.15024566650391 59.16571807861328 89.99867248535156 64.53530120849609 87.72753143310547 C 69.72371673583984 85.53302764892578 74.38422393798828 82.39054870605469 78.38738250732422 78.38739776611328 C 82.39053344726562 74.38424682617188 85.53302764892578 69.72371673583984 87.72753143310547 64.53530120849609 C 89.99867248535156 59.16571807861328 91.15024566650391 53.45948791503906 91.15024566650391 47.57511901855469 C 91.15024566650391 41.69075012207031 89.99867248535156 35.98451995849609 87.72753143310547 30.61493682861328 C 85.53302764892578 25.42652130126953 82.39053344726562 20.76601409912109 78.38738250732422 16.76285552978516 C 74.38422393798828 12.75970458984375 69.72371673583984 9.617210388183594 64.53530120849609 7.422706604003906 C 59.16571807861328 5.151565551757812 53.45948791503906 3.999992370605469 47.57511901855469 3.999992370605469 M 47.57511901855469 -7.62939453125e-06 C 73.85013580322266 -7.62939453125e-06 95.15024566650391 21.30010223388672 95.15024566650391 47.57511901855469 C 95.15024566650391 73.85015106201172 73.85013580322266 95.15024566650391 47.57511901855469 95.15024566650391 C 21.30010223388672 95.15024566650391 -7.62939453125e-06 73.85015106201172 -7.62939453125e-06 47.57511901855469 C -7.62939453125e-06 21.30010223388672 21.30010223388672 -7.62939453125e-06 47.57511901855469 -7.62939453125e-06 Z" stroke="none" fill="#fff"/>
        </g>
      </g>
      <g id="Trazado_903578-4" data-name="Trazado 903578" transform="translate(752 4073.404)" fill="#fd9826">
        <path d="M 47.57511901855469 93.15023040771484 C 41.42163467407227 93.15023040771484 35.45327758789062 91.94551849365234 29.8358325958252 89.56953430175781 C 24.40901947021484 87.27419281005859 19.53483390808105 83.98777770996094 15.34864711761475 79.80160522460938 C 11.16246223449707 75.61541748046875 7.876047611236572 70.74121856689453 5.580704689025879 65.31440734863281 C 3.204719066619873 59.69696044921875 2.000004768371582 53.72860336303711 2.000004768371582 47.57511901855469 C 2.000004768371582 41.42163467407227 3.204719066619873 35.45327758789062 5.580704689025879 29.8358325958252 C 7.876047611236572 24.40901947021484 11.16246223449707 19.53483390808105 15.34864711761475 15.34864711761475 C 19.53483390808105 11.16246223449707 24.40901947021484 7.876047611236572 29.8358325958252 5.580704689025879 C 35.45327758789062 3.204719066619873 41.42163467407227 2.000004768371582 47.57511901855469 2.000004768371582 C 53.72860336303711 2.000004768371582 59.69696044921875 3.204719066619873 65.31440734863281 5.580704689025879 C 70.74121856689453 7.876047611236572 75.61540222167969 11.16246223449707 79.80158996582031 15.34864711761475 C 83.98777770996094 19.53483390808105 87.27419281005859 24.40901947021484 89.56953430175781 29.8358325958252 C 91.94551849365234 35.45327758789062 93.15023040771484 41.42163467407227 93.15023040771484 47.57511901855469 C 93.15023040771484 53.72860336303711 91.94551849365234 59.69696044921875 89.56953430175781 65.31440734863281 C 87.27419281005859 70.74121856689453 83.98777770996094 75.61541748046875 79.80158996582031 79.80160522460938 C 75.61540222167969 83.98777770996094 70.74121856689453 87.27419281005859 65.31440734863281 89.56953430175781 C 59.69696044921875 91.94551849365234 53.72860336303711 93.15023040771484 47.57511901855469 93.15023040771484 Z" stroke="none"/>
        <path d="M 47.57511901855469 3.999992370605469 C 41.69075012207031 3.999992370605469 35.98451995849609 5.151565551757812 30.61493682861328 7.422706604003906 C 25.42652130126953 9.617210388183594 20.76601409912109 12.75970458984375 16.76285552978516 16.76285552978516 C 12.75970458984375 20.76601409912109 9.617210388183594 25.42652130126953 7.422706604003906 30.61493682861328 C 5.151565551757812 35.98451995849609 3.999992370605469 41.69075012207031 3.999992370605469 47.57511901855469 C 3.999992370605469 53.45948791503906 5.151565551757812 59.16571807861328 7.422706604003906 64.53530120849609 C 9.617210388183594 69.72371673583984 12.75970458984375 74.38424682617188 16.76285552978516 78.38739776611328 C 20.76601409912109 82.39054870605469 25.42652130126953 85.53302764892578 30.61493682861328 87.72753143310547 C 35.98451995849609 89.99867248535156 41.69075012207031 91.15024566650391 47.57511901855469 91.15024566650391 C 53.45948791503906 91.15024566650391 59.16571807861328 89.99867248535156 64.53530120849609 87.72753143310547 C 69.72371673583984 85.53302764892578 74.38422393798828 82.39054870605469 78.38738250732422 78.38739776611328 C 82.39053344726562 74.38424682617188 85.53302764892578 69.72371673583984 87.72753143310547 64.53530120849609 C 89.99867248535156 59.16571807861328 91.15024566650391 53.45948791503906 91.15024566650391 47.57511901855469 C 91.15024566650391 41.69075012207031 89.99867248535156 35.98451995849609 87.72753143310547 30.61493682861328 C 85.53302764892578 25.42652130126953 82.39053344726562 20.76601409912109 78.38738250732422 16.76285552978516 C 74.38422393798828 12.75970458984375 69.72371673583984 9.617210388183594 64.53530120849609 7.422706604003906 C 59.16571807861328 5.151565551757812 53.45948791503906 3.999992370605469 47.57511901855469 3.999992370605469 M 47.57511901855469 -7.62939453125e-06 C 73.85013580322266 -7.62939453125e-06 95.15024566650391 21.30010223388672 95.15024566650391 47.57511901855469 C 95.15024566650391 73.85015106201172 73.85013580322266 95.15024566650391 47.57511901855469 95.15024566650391 C 21.30010223388672 95.15024566650391 -7.62939453125e-06 73.85015106201172 -7.62939453125e-06 47.57511901855469 C -7.62939453125e-06 21.30010223388672 21.30010223388672 -7.62939453125e-06 47.57511901855469 -7.62939453125e-06 Z" stroke="none"/>
      </g>
      <g transform="matrix(1, 0, 0, 1, 743, 4067.4)" filter="url(#Trazado_903578-2)">
        <g id="Trazado_903578-5" data-name="Trazado 903578" transform="translate(9 6)" fill="#fff">
          <path d="M 47.57511901855469 93.15023040771484 C 41.42163467407227 93.15023040771484 35.45327758789062 91.94551849365234 29.8358325958252 89.56953430175781 C 24.40901947021484 87.27419281005859 19.53483390808105 83.98777770996094 15.34864711761475 79.80160522460938 C 11.16246223449707 75.61541748046875 7.876047611236572 70.74121856689453 5.580704689025879 65.31440734863281 C 3.204719066619873 59.69696044921875 2.000004768371582 53.72860336303711 2.000004768371582 47.57511901855469 C 2.000004768371582 41.42163467407227 3.204719066619873 35.45327758789062 5.580704689025879 29.8358325958252 C 7.876047611236572 24.40901947021484 11.16246223449707 19.53483390808105 15.34864711761475 15.34864711761475 C 19.53483390808105 11.16246223449707 24.40901947021484 7.876047611236572 29.8358325958252 5.580704689025879 C 35.45327758789062 3.204719066619873 41.42163467407227 2.000004768371582 47.57511901855469 2.000004768371582 C 53.72860336303711 2.000004768371582 59.69696044921875 3.204719066619873 65.31440734863281 5.580704689025879 C 70.74121856689453 7.876047611236572 75.61540222167969 11.16246223449707 79.80158996582031 15.34864711761475 C 83.98777770996094 19.53483390808105 87.27419281005859 24.40901947021484 89.56953430175781 29.8358325958252 C 91.94551849365234 35.45327758789062 93.15023040771484 41.42163467407227 93.15023040771484 47.57511901855469 C 93.15023040771484 53.72860336303711 91.94551849365234 59.69696044921875 89.56953430175781 65.31440734863281 C 87.27419281005859 70.74121856689453 83.98777770996094 75.61541748046875 79.80158996582031 79.80160522460938 C 75.61540222167969 83.98777770996094 70.74121856689453 87.27419281005859 65.31440734863281 89.56953430175781 C 59.69696044921875 91.94551849365234 53.72860336303711 93.15023040771484 47.57511901855469 93.15023040771484 Z" stroke="none"/>
          <path d="M 47.57511901855469 3.999992370605469 C 41.69075012207031 3.999992370605469 35.98451995849609 5.151565551757812 30.61493682861328 7.422706604003906 C 25.42652130126953 9.617210388183594 20.76601409912109 12.75970458984375 16.76285552978516 16.76285552978516 C 12.75970458984375 20.76601409912109 9.617210388183594 25.42652130126953 7.422706604003906 30.61493682861328 C 5.151565551757812 35.98451995849609 3.999992370605469 41.69075012207031 3.999992370605469 47.57511901855469 C 3.999992370605469 53.45948791503906 5.151565551757812 59.16571807861328 7.422706604003906 64.53530120849609 C 9.617210388183594 69.72371673583984 12.75970458984375 74.38424682617188 16.76285552978516 78.38739776611328 C 20.76601409912109 82.39054870605469 25.42652130126953 85.53302764892578 30.61493682861328 87.72753143310547 C 35.98451995849609 89.99867248535156 41.69075012207031 91.15024566650391 47.57511901855469 91.15024566650391 C 53.45948791503906 91.15024566650391 59.16571807861328 89.99867248535156 64.53530120849609 87.72753143310547 C 69.72371673583984 85.53302764892578 74.38422393798828 82.39054870605469 78.38738250732422 78.38739776611328 C 82.39053344726562 74.38424682617188 85.53302764892578 69.72371673583984 87.72753143310547 64.53530120849609 C 89.99867248535156 59.16571807861328 91.15024566650391 53.45948791503906 91.15024566650391 47.57511901855469 C 91.15024566650391 41.69075012207031 89.99867248535156 35.98451995849609 87.72753143310547 30.61493682861328 C 85.53302764892578 25.42652130126953 82.39053344726562 20.76601409912109 78.38738250732422 16.76285552978516 C 74.38422393798828 12.75970458984375 69.72371673583984 9.617210388183594 64.53530120849609 7.422706604003906 C 59.16571807861328 5.151565551757812 53.45948791503906 3.999992370605469 47.57511901855469 3.999992370605469 M 47.57511901855469 -7.62939453125e-06 C 73.85013580322266 -7.62939453125e-06 95.15024566650391 21.30010223388672 95.15024566650391 47.57511901855469 C 95.15024566650391 73.85015106201172 73.85013580322266 95.15024566650391 47.57511901855469 95.15024566650391 C 21.30010223388672 95.15024566650391 -7.62939453125e-06 73.85015106201172 -7.62939453125e-06 47.57511901855469 C -7.62939453125e-06 21.30010223388672 21.30010223388672 -7.62939453125e-06 47.57511901855469 -7.62939453125e-06 Z" stroke="none"/>
        </g>
      </g>
      <g id="Trazado_903578-6" data-name="Trazado 903578" transform="translate(752 4073.404)" fill="none">
        <path d="M 47.57511901855469 93.15023040771484 C 41.42163467407227 93.15023040771484 35.45327758789062 91.94551849365234 29.8358325958252 89.56953430175781 C 24.40901947021484 87.27419281005859 19.53483390808105 83.98777770996094 15.34864711761475 79.80160522460938 C 11.16246223449707 75.61541748046875 7.876047611236572 70.74121856689453 5.580704689025879 65.31440734863281 C 3.204719066619873 59.69696044921875 2.000004768371582 53.72860336303711 2.000004768371582 47.57511901855469 C 2.000004768371582 41.42163467407227 3.204719066619873 35.45327758789062 5.580704689025879 29.8358325958252 C 7.876047611236572 24.40901947021484 11.16246223449707 19.53483390808105 15.34864711761475 15.34864711761475 C 19.53483390808105 11.16246223449707 24.40901947021484 7.876047611236572 29.8358325958252 5.580704689025879 C 35.45327758789062 3.204719066619873 41.42163467407227 2.000004768371582 47.57511901855469 2.000004768371582 C 53.72860336303711 2.000004768371582 59.69696044921875 3.204719066619873 65.31440734863281 5.580704689025879 C 70.74121856689453 7.876047611236572 75.61540222167969 11.16246223449707 79.80158996582031 15.34864711761475 C 83.98777770996094 19.53483390808105 87.27419281005859 24.40901947021484 89.56953430175781 29.8358325958252 C 91.94551849365234 35.45327758789062 93.15023040771484 41.42163467407227 93.15023040771484 47.57511901855469 C 93.15023040771484 53.72860336303711 91.94551849365234 59.69696044921875 89.56953430175781 65.31440734863281 C 87.27419281005859 70.74121856689453 83.98777770996094 75.61541748046875 79.80158996582031 79.80160522460938 C 75.61540222167969 83.98777770996094 70.74121856689453 87.27419281005859 65.31440734863281 89.56953430175781 C 59.69696044921875 91.94551849365234 53.72860336303711 93.15023040771484 47.57511901855469 93.15023040771484 Z" stroke="none"/>
        <path d="M 47.57511901855469 3.999992370605469 C 41.69075012207031 3.999992370605469 35.98451995849609 5.151565551757812 30.61493682861328 7.422706604003906 C 25.42652130126953 9.617210388183594 20.76601409912109 12.75970458984375 16.76285552978516 16.76285552978516 C 12.75970458984375 20.76601409912109 9.617210388183594 25.42652130126953 7.422706604003906 30.61493682861328 C 5.151565551757812 35.98451995849609 3.999992370605469 41.69075012207031 3.999992370605469 47.57511901855469 C 3.999992370605469 53.45948791503906 5.151565551757812 59.16571807861328 7.422706604003906 64.53530120849609 C 9.617210388183594 69.72371673583984 12.75970458984375 74.38424682617188 16.76285552978516 78.38739776611328 C 20.76601409912109 82.39054870605469 25.42652130126953 85.53302764892578 30.61493682861328 87.72753143310547 C 35.98451995849609 89.99867248535156 41.69075012207031 91.15024566650391 47.57511901855469 91.15024566650391 C 53.45948791503906 91.15024566650391 59.16571807861328 89.99867248535156 64.53530120849609 87.72753143310547 C 69.72371673583984 85.53302764892578 74.38422393798828 82.39054870605469 78.38738250732422 78.38739776611328 C 82.39053344726562 74.38424682617188 85.53302764892578 69.72371673583984 87.72753143310547 64.53530120849609 C 89.99867248535156 59.16571807861328 91.15024566650391 53.45948791503906 91.15024566650391 47.57511901855469 C 91.15024566650391 41.69075012207031 89.99867248535156 35.98451995849609 87.72753143310547 30.61493682861328 C 85.53302764892578 25.42652130126953 82.39053344726562 20.76601409912109 78.38738250732422 16.76285552978516 C 74.38422393798828 12.75970458984375 69.72371673583984 9.617210388183594 64.53530120849609 7.422706604003906 C 59.16571807861328 5.151565551757812 53.45948791503906 3.999992370605469 47.57511901855469 3.999992370605469 M 47.57511901855469 -7.62939453125e-06 C 73.85013580322266 -7.62939453125e-06 95.15024566650391 21.30010223388672 95.15024566650391 47.57511901855469 C 95.15024566650391 73.85015106201172 73.85013580322266 95.15024566650391 47.57511901855469 95.15024566650391 C 21.30010223388672 95.15024566650391 -7.62939453125e-06 73.85015106201172 -7.62939453125e-06 47.57511901855469 C -7.62939453125e-06 21.30010223388672 21.30010223388672 -7.62939453125e-06 47.57511901855469 -7.62939453125e-06 Z" stroke="none" fill="#fff"/>
      </g>
    </g>
    <g id="Grupo_1113578" data-name="Grupo 1113578" transform="translate(768.916 4081.974)">
      <g id="Grupo_1113576" data-name="Grupo 1113576" transform="translate(0.911 9.366)">
        <g id="Grupo_1113571" data-name="Grupo 1113571" transform="translate(0 6.299)">
          <g id="Grupo_1113557" data-name="Grupo 1113557" transform="translate(0 40.496)">
            <ellipse id="Elipse_12941" data-name="Elipse 12941" cx="30.174" cy="5.75" rx="30.174" ry="5.75" transform="translate(0 0)" fill="#444"/>
            <path id="Trazado_907588" data-name="Trazado 907588" d="M67.848,407.085c0,1.075-1.545,2.079-4.234,2.94-1.367-2.5-12.458-4.449-25.94-4.449s-24.573,1.949-25.94,4.449c-2.69-.861-4.234-1.865-4.234-2.94,0-3.175,13.51-5.749,30.174-5.749S67.848,403.91,67.848,407.085Z" transform="translate(-7.5 -401.336)" fill="#5a5a5a"/>
          </g>
          <g id="Grupo_1113570" data-name="Grupo 1113570">
            <g id="Grupo_1113569" data-name="Grupo 1113569">
              <g id="Grupo_1113567" data-name="Grupo 1113567">
                <g id="Grupo_1113561" data-name="Grupo 1113561">
                  <path id="Trazado_907589" data-name="Trazado 907589" d="M106.53,132.945l-25.9,25.9q-1.909.047-3.887.047a141.159,141.159,0,0,1-14.681-.725l-9.708-9.708a1.318,1.318,0,0,1,0-1.863l33.915-33.915a1.316,1.316,0,0,1,1.863,0l18.4,18.4A1.316,1.316,0,0,1,106.53,132.945Z" transform="translate(-46.568 -106.897)" fill="#138b80"/>
                  <path id="Trazado_907590" data-name="Trazado 907590" d="M316.2,112.681l18.4,18.4a1.317,1.317,0,0,1,0,1.863l-2.78,2.78a1.317,1.317,0,0,0,0-1.862l-18.4-18.4a1.317,1.317,0,0,0-1.862,0l2.78-2.78A1.317,1.317,0,0,1,316.2,112.681Z" transform="translate(-274.641 -106.896)" fill="#127e73"/>
                  <path id="Trazado_907591" data-name="Trazado 907591" d="M62.063,88.482l-31.2,31.2c-2.79-.123-5.434-.319-7.868-.578L7.886,104a1.316,1.316,0,0,1,0-1.863L41.8,68.22a1.317,1.317,0,0,1,1.861,0l18.4,18.4A1.318,1.318,0,0,1,62.063,88.482Z" transform="translate(-7.5 -67.834)" fill="#27d1b3"/>
                  <path id="Trazado_907592" data-name="Trazado 907592" d="M30.174,262h1.5l1.128,1.393a1.214,1.214,0,0,0,1.887,0L35.817,262h1.5a2.428,2.428,0,0,0,2.428-2.428v-7.142a2.427,2.427,0,0,0-1.832-2.352l-10.09,10.09A2.427,2.427,0,0,0,30.174,262Z" transform="translate(-25.354 -227.949)" fill="#20b69f"/>
                  <path id="Trazado_907593" data-name="Trazado 907593" d="M271.737,68.214l18.4,18.4a1.317,1.317,0,0,1,0,1.862l-2.78,2.78a1.317,1.317,0,0,0,0-1.862l-18.4-18.4a1.317,1.317,0,0,0-1.862,0l2.78-2.78A1.317,1.317,0,0,1,271.737,68.214Z" transform="translate(-235.573 -67.828)" fill="#20b69f"/>
                  <path id="Trazado_907594" data-name="Trazado 907594" d="M72.1,161.882,60.038,149.815a1.317,1.317,0,0,1,0-1.863L87.62,120.37a1.317,1.317,0,0,1,1.863,0l12.067,12.067a1.317,1.317,0,0,1,0,1.863L73.967,161.882A1.317,1.317,0,0,1,72.1,161.882Z" transform="translate(-53.319 -113.651)" fill="#138b80"/>
                  <path id="Trazado_907595" data-name="Trazado 907595" d="M62.084,294.811a1.314,1.314,0,0,0-.1.117l.832,1.027a1.214,1.214,0,0,0,1.887,0l1.128-1.393h1.5a2.428,2.428,0,0,0,2.428-2.428V287.14Z" transform="translate(-55.366 -260.51)" fill="#127e73"/>
                  <g id="Grupo_1113558" data-name="Grupo 1113558" transform="translate(14.16 14.167)">
                    <ellipse id="Elipse_12942" data-name="Elipse 12942" cx="8.973" cy="9.85" rx="8.973" ry="9.85" transform="translate(0 12.688) rotate(-45)" fill="#fee7c9"/>
                  </g>
                  <g id="Grupo_1113559" data-name="Grupo 1113559" transform="translate(14.764 42.158)">
                    <path id="Trazado_907596" data-name="Trazado 907596" d="M129.092,417.078a7,7,0,0,1,9.9,0l-4.021,4.021a1.317,1.317,0,0,1-1.863,0Z" transform="translate(-129.092 -415.026)" fill="#fee7c9"/>
                  </g>
                  <g id="Grupo_1113560" data-name="Grupo 1113560" transform="translate(30.28 6.333)">
                    <path id="Trazado_907597" data-name="Trazado 907597" d="M266.775,124.392a7,7,0,0,1-9.9,0l4.021-4.021a1.317,1.317,0,0,1,1.863,0Z" transform="translate(-256.87 -119.985)" fill="#fee7c9"/>
                  </g>
                </g>
                <g id="Grupo_1113563" data-name="Grupo 1113563" transform="translate(18.708 18.715)">
                  <g id="Grupo_1113562" data-name="Grupo 1113562">
                    <ellipse id="Elipse_12943" data-name="Elipse 12943" cx="5.697" cy="6.692" rx="5.697" ry="6.692" transform="translate(0 8.056) rotate(-45)" fill="#27d1b3"/>
                  </g>
                </g>
                <g id="Grupo_1113566" data-name="Grupo 1113566" transform="translate(12.29 17.185)">
                  <g id="Grupo_1113564" data-name="Grupo 1113564" transform="translate(26.169)">
                    <circle id="Elipse_12944" data-name="Elipse 12944" cx="2.1" cy="2.1" r="2.1" fill="#27d1b3"/>
                  </g>
                  <g id="Grupo_1113565" data-name="Grupo 1113565" transform="translate(0 16.379)">
                    <circle id="Elipse_12945" data-name="Elipse 12945" cx="2.1" cy="2.1" r="2.1" fill="#27d1b3"/>
                  </g>
                </g>
              </g>
              <path id="Trazado_907598" data-name="Trazado 907598" d="M0,0H8.17V36.291H0Z" transform="translate(23.683 11.002) rotate(-45)" fill="#f8f3f1"/>
              <path id="Trazado_907599" data-name="Trazado 907599" d="M0,0H3.469V36.291H0Z" transform="translate(27.007 7.678) rotate(-45)" fill="#e2e2e2"/>
              <g id="Grupo_1113568" data-name="Grupo 1113568" transform="translate(28.851 10.393)">
                <path id="Trazado_907600" data-name="Trazado 907600" d="M0,0H8.17V9.519H0Z" transform="translate(0 5.776) rotate(-45)" fill="#fb4a59"/>
                <path id="Trazado_907601" data-name="Trazado 907601" d="M0,0H3.469V9.519H0Z" transform="translate(3.324 2.452) rotate(-45)" fill="#f82f40"/>
              </g>
              <path id="Trazado_907602" data-name="Trazado 907602" d="M0,0H8.17V7.636H0Z" transform="translate(43.941 31.262) rotate(-45)" fill="#cecece"/>
              <path id="Trazado_907603" data-name="Trazado 907603" d="M0,0H3.469V7.636H0Z" transform="translate(47.266 27.939) rotate(-45)" fill="#bfbfbf"/>
            </g>
          </g>
        </g>
        <g id="Grupo_1113574" data-name="Grupo 1113574" transform="translate(5.86)">
          <g id="Grupo_1113572" data-name="Grupo 1113572" transform="translate(0 5.673)">
            <path id="Trazado_907604" data-name="Trazado 907604" d="M67.016,69.2l-2.083,2.12V63.344a.671.671,0,0,0-.671-.671H61.579a.671.671,0,0,0-.671.671v7.974L58.825,69.2a.671.671,0,0,0-.948-.008l-1.913,1.881a.671.671,0,0,0-.008.948l6.009,6.114a1.341,1.341,0,0,0,1.913,0l6.009-6.114a.671.671,0,0,0-.008-.948L67.965,69.19a.671.671,0,0,0-.948.008Z" transform="translate(-55.763 -62.673)" fill="#fb4a59"/>
          </g>
          <g id="Grupo_1113573" data-name="Grupo 1113573" transform="translate(31.175)">
            <path id="Trazado_907605" data-name="Trazado 907605" d="M323.758,22.479l-2.083,2.12V16.625a.671.671,0,0,0-.671-.671h-2.683a.671.671,0,0,0-.671.671V24.6l-2.083-2.119a.671.671,0,0,0-.948-.008l-1.913,1.881a.671.671,0,0,0-.008.948l6.009,6.114a1.341,1.341,0,0,0,1.913,0l6.009-6.114a.671.671,0,0,0-.008-.948l-1.913-1.881a.671.671,0,0,0-.948.008Z" transform="translate(-312.505 -15.954)" fill="#fb4a59"/>
          </g>
        </g>
        <g id="Grupo_1113575" data-name="Grupo 1113575" transform="translate(2.391 25.376)">
          <path id="Trazado_907606" data-name="Trazado 907606" d="M36.761,224.941H29.618a2.428,2.428,0,0,0-2.428,2.428v7.142a2.428,2.428,0,0,0,2.428,2.428h1.5l1.128,1.393a1.214,1.214,0,0,0,1.887,0l1.128-1.393h1.5a2.428,2.428,0,0,0,2.428-2.428v-7.142A2.428,2.428,0,0,0,36.761,224.941Z" transform="translate(-27.19 -224.941)" fill="#fb4a59"/>
          <path id="Trazado_907607" data-name="Trazado 907607" d="M70.289,227.367v7.142a2.428,2.428,0,0,1-2.428,2.428h-1.5l-1.128,1.393a1.214,1.214,0,0,1-1.887,0l-.758-.936.37-.457h1.5a2.428,2.428,0,0,0,2.428-2.428v-7.142a2.429,2.429,0,0,0-2.428-2.428h3.4A2.429,2.429,0,0,1,70.289,227.367Z" transform="translate(-58.29 -224.939)" fill="#f82f40"/>
        </g>
      </g>
      <g id="Grupo_1113577" data-name="Grupo 1113577" transform="translate(0 8.455)">
        <path id="Trazado_907608" data-name="Trazado 907608" d="M183.249,249.7a6.109,6.109,0,0,0,4.379-1.744c2.577-2.577,2.261-7.084-.7-10.049s-7.472-3.28-10.048-.7-2.261,7.084.7,10.049A8.109,8.109,0,0,0,183.249,249.7ZM178.165,238.5a4.3,4.3,0,0,1,3.094-1.217,6.3,6.3,0,0,1,4.379,1.92c2.254,2.254,2.57,5.606.7,7.473s-5.219,1.551-7.473-.7S176.3,240.363,178.165,238.5Z" transform="translate(-153.868 -207.901)"/>
        <path id="Trazado_907609" data-name="Trazado 907609" d="M204.253,267.209a2.265,2.265,0,0,0,3.2,0l.386-.386a.443.443,0,1,1,.627.627l-1.36,1.36A.911.911,0,0,0,208.4,270.1l.515-.515.231.231a.911.911,0,1,0,1.288-1.288l-.294-.294a2.264,2.264,0,0,0-3.582-2.7l-.386.385a.443.443,0,0,1-.627-.627l.183-.183h0l1-1a.911.911,0,1,0-1.288-1.288l-.361.361-.231-.231a.911.911,0,1,0-1.288,1.288l.3.3a2.267,2.267,0,0,0,.393,2.676Z" transform="translate(-178.61 -231.696)"/>
        <path id="Trazado_907610" data-name="Trazado 907610" d="M106.353,337.628a3.011,3.011,0,1,0,.882,2.129,2.991,2.991,0,0,0-.882-2.129Zm-1.288,2.97a1.19,1.19,0,1,1,0-1.682h0a1.19,1.19,0,0,1,0,1.682Z" transform="translate(-88.923 -296.883)"/>
        <path id="Trazado_907611" data-name="Trazado 907611" d="M337.954,256.552a.911.911,0,0,0,0-1.288l-3.489-3.489a.911.911,0,0,0-1.288,1.288l3.489,3.489a.911.911,0,0,0,1.288,0Z" transform="translate(-292.487 -221.995)"/>
        <path id="Trazado_907612" data-name="Trazado 907612" d="M57.271,58.094a55.817,55.817,0,0,0-9.588-1.9L61.516,42.356a2.227,2.227,0,0,0,0-3.151L52,29.688a.911.911,0,0,0-1.288,1.288L54.835,35.1a.407.407,0,0,1,0,.569L50.638,39.86l-1.878-1.878,1.025-1.025a2.228,2.228,0,0,0,0-3.151L37.718,21.739a2.23,2.23,0,0,0-3.15,0l-1.025,1.025-1.878-1.878,4.192-4.192a.406.406,0,0,1,.573,0l.8.8a1.583,1.583,0,0,0,.264,1.86L43.5,25.464a2.236,2.236,0,0,0,1.606.673,2.26,2.26,0,0,0,.669-.1L47.7,27.969a.911.911,0,0,0,1.288-1.288l-1.754-1.754,5.481-5.576a1.583,1.583,0,0,0-.019-2.236l-1.913-1.881a1.592,1.592,0,0,0-1.122-.454,1.571,1.571,0,0,0-1.114.473l-.523.532V10.036a1.583,1.583,0,0,0-1.581-1.581H43.762a1.583,1.583,0,0,0-1.581,1.581v5.748l-.523-.532a1.583,1.583,0,0,0-2.236-.019l-.947.93-.758-.757a2.23,2.23,0,0,0-3.149,0L15.2,34.777a3.327,3.327,0,0,0-2.325-.946H11.507a.911.911,0,1,0,0,1.821h1.365A1.52,1.52,0,0,1,14.39,37.17v7.142a1.519,1.519,0,0,1-1.518,1.518h-1.5a.911.911,0,0,0-.708.337L9.537,47.56a.3.3,0,0,1-.472,0L7.937,46.167a.911.911,0,0,0-.708-.337H5.73a1.519,1.519,0,0,1-1.518-1.518V37.17A1.519,1.519,0,0,1,5.73,35.652H7.254a.911.911,0,0,0,0-1.821H5.73A3.343,3.343,0,0,0,2.391,37.17v7.142a3.328,3.328,0,0,0,.946,2.325L.653,49.321a2.227,2.227,0,0,0,0,3.151L5.96,57.779C1.953,58.889,0,60.245,0,61.911c0,2.11,3.133,3.732,9.578,4.961a120.785,120.785,0,0,0,21.507,1.7,120.785,120.785,0,0,0,21.507-1.7c6.445-1.228,9.578-2.851,9.578-4.961,0-1.519-1.6-2.767-4.9-3.817ZM40.527,16.7l1.915,1.948A.911.911,0,0,0,44,18.01V10.276h2.2v7.734a.911.911,0,0,0,1.56.638L49.68,16.7l1.571,1.544-5.841,5.942a.431.431,0,0,1-.614,0l-5.841-5.943Zm-8.8,50.048L47.561,50.913l1.411,1.411L34.586,66.711Q33.169,66.742,31.726,66.748Zm-5.332-.068L44.861,48.213l1.412,1.412L29.16,66.738Q27.764,66.721,26.394,66.68Zm-4.33-29.861h0a7.609,7.609,0,0,1,5.441-2.187,9.373,9.373,0,0,1,6.579,2.806l0,0c3.483,3.485,3.762,8.877.619,12.02a7.632,7.632,0,0,1-5.84,2.181,9.633,9.633,0,0,1-8.982-8.982,7.631,7.631,0,0,1,2.18-5.84ZM16.211,40.1V37.17a3.33,3.33,0,0,0-.085-.746L24.6,27.951l1.878,1.878Zm11.554-8.978,1.928,1.928a10.417,10.417,0,0,0-3.743-.113Zm13.223,1.668L36.5,37.275l-5.443-5.443,4.489-4.489Zm-2.509,9.046,1.928,1.928-1.815,1.815a10.418,10.418,0,0,0-.113-3.743Zm-.692-3.268,4.489-4.489,7.075,7.075-4.489,4.489Zm16.963,7.984L50.26,51.037l-4.111-4.111,4.489-4.489Zm1.369-9.591a2.216,2.216,0,0,0,.259-.314l3.852,3.852a.405.405,0,0,1,0,.574L56.037,45.26l-1.412-1.412,1.866-1.866A.911.911,0,1,0,55.2,40.694L53.338,42.56l-1.412-1.412Zm-7.5-1.575a.4.4,0,0,1-.119.287l-1.025,1.025-8.042-8.042a7.922,7.922,0,0,0,1.628-1l7.44,7.44a.4.4,0,0,1,.119.287ZM35.855,23.027a.407.407,0,0,1,.575,0l3.327,3.327a6.075,6.075,0,0,1-1.732.893l-3.2-3.2Zm-1.6,3.028-4.489,4.489-3.881-3.881,4.489-4.489ZM1.821,50.9a.405.405,0,0,1,.119-.288l3.043-3.043a3.336,3.336,0,0,0,.746.085H6.795l.833,1.028-.642.642a2.23,2.23,0,0,0,0,3.15L19.052,64.539a2.23,2.23,0,0,0,3.15,0l5.908-5.908a.911.911,0,0,0-1.288-1.288l-1.281,1.281a7.91,7.91,0,0,0-9.829,0l-7.44-7.44a.407.407,0,0,1,0-.575l1.121-1.121a2.113,2.113,0,0,0,1.559-.782l.855-1.055h1.065a3.343,3.343,0,0,0,3.339-3.339V42.672l1.958-1.958a10.229,10.229,0,0,0-.1,2.029A11.453,11.453,0,0,0,28.781,53.46q.247.011.492.012a10.117,10.117,0,0,0,1.54-.119l-.982.982a.911.911,0,0,0,1.288,1.288L41.695,45.047l1.878,1.878L23.912,66.586c-2.477-.115-4.857-.29-7.091-.521L1.94,51.183a.4.4,0,0,1-.119-.286ZM20.915,63.251a.407.407,0,0,1-.575,0l-3.33-3.33a6.1,6.1,0,0,1,7.234,0ZM1.821,61.911c0-.354,1.023-1.506,5.632-2.638L13.9,65.72c-1.408-.189-2.74-.4-3.982-.638C3.276,63.816,1.821,62.363,1.821,61.911ZM52.25,65.082A105.006,105.006,0,0,1,37.243,66.63l8.8-8.8a58.2,58.2,0,0,1,10.678,2c2.871.914,3.63,1.761,3.63,2.081,0,.453-1.455,1.905-8.1,3.171Z" transform="translate(0 -8.455)"/>
        <path id="Trazado_907613" data-name="Trazado 907613" d="M54.734,72.183a2.253,2.253,0,0,0,3.213,0l6.009-6.114a1.583,1.583,0,0,0-.019-2.236l-1.913-1.881a1.57,1.57,0,0,0-1.108-.454H60.9a1.571,1.571,0,0,0-1.114.473l-.523.532V56.755a1.583,1.583,0,0,0-1.581-1.581H55a1.583,1.583,0,0,0-1.581,1.581V62.5l-.523-.532A1.571,1.571,0,0,0,51.78,61.5a1.594,1.594,0,0,0-1.122.454l-1.913,1.881a1.583,1.583,0,0,0-.019,2.236Zm-2.97-8.763,1.915,1.948a.911.911,0,0,0,1.56-.638V57h2.2V64.73a.911.911,0,0,0,1.56.638l1.915-1.949,1.571,1.544-5.84,5.942a.431.431,0,0,1-.614,0l-5.841-5.943Z" transform="translate(-42.411 -49.501)"/>
        <path id="Trazado_907614" data-name="Trazado 907614" d="M61.189,254.617a.911.911,0,0,0-1.288,0l-.874.874-.874-.874a.911.911,0,0,0-1.288,1.288l.874.874-.874.874a.911.911,0,0,0,1.288,1.288l.874-.874.874.874a.911.911,0,1,0,1.288-1.288l-.874-.874.874-.874A.911.911,0,0,0,61.189,254.617Z" transform="translate(-49.727 -224.492)"/>
      </g>
    </g>
  </g>
</svg>
