<svg xmlns="http://www.w3.org/2000/svg" xmlns:xlink="http://www.w3.org/1999/xlink" width="113.15" height="113.15" viewBox="0 0 113.15 113.15">
  <defs>
    <filter id="Trazado_873828" x="0" y="0" width="113.15" height="113.15" filterUnits="userSpaceOnUse">
      <feOffset dy="3" input="SourceAlpha"/>
      <feGaussianBlur stdDeviation="3" result="blur"/>
      <feFlood flood-opacity="0.161"/>
      <feComposite operator="in" in2="blur"/>
    </filter>
    <filter id="Trazado_873828-2" x="0" y="0" width="113.15" height="113.15" filterUnits="userSpaceOnUse">
      <feOffset dy="3" input="SourceAlpha"/>
      <feGaussianBlur stdDeviation="3" result="blur-2"/>
      <feFlood flood-opacity="0.161" result="color"/>
      <feComposite operator="out" in="SourceGraphic" in2="blur-2"/>
      <feComposite operator="in" in="color"/>
      <feComposite operator="in" in2="SourceGraphic"/>
    </filter>
  </defs>
  <g id="Grupo_1113174" data-name="Grupo 1113174" transform="translate(-323.051 -1794)">
    <g data-type="innerShadowGroup">
      <g transform="matrix(1, 0, 0, 1, 323.05, 1794)" filter="url(#Trazado_873828)">
        <g id="Trazado_873828-3" data-name="Trazado 873828" transform="translate(9 6)" fill="#fd9826">
          <path d="M 47.57511901855469 93.15023040771484 C 41.42163467407227 93.15023040771484 35.45327758789062 91.94551849365234 29.8358325958252 89.56953430175781 C 24.40901947021484 87.27419281005859 19.53483390808105 83.98777770996094 15.34864711761475 79.80158996582031 C 11.16246223449707 75.61540222167969 7.876047611236572 70.74121856689453 5.580704689025879 65.31440734863281 C 3.204719066619873 59.69696044921875 2.000004768371582 53.72860336303711 2.000004768371582 47.57511901855469 C 2.000004768371582 41.42163467407227 3.204719066619873 35.45327758789062 5.580704689025879 29.8358325958252 C 7.876047611236572 24.40901947021484 11.16246223449707 19.53483390808105 15.34864711761475 15.34864711761475 C 19.53483390808105 11.16246223449707 24.40901947021484 7.876047611236572 29.8358325958252 5.580704689025879 C 35.45327758789062 3.204719066619873 41.42163467407227 2.000004768371582 47.57511901855469 2.000004768371582 C 53.72860336303711 2.000004768371582 59.69696044921875 3.204719066619873 65.31440734863281 5.580704689025879 C 70.74121856689453 7.876047611236572 75.61540222167969 11.16246223449707 79.80158996582031 15.34864711761475 C 83.98777770996094 19.53483390808105 87.27419281005859 24.40901947021484 89.56953430175781 29.8358325958252 C 91.94551849365234 35.45327758789062 93.15023040771484 41.42163467407227 93.15023040771484 47.57511901855469 C 93.15023040771484 53.72860336303711 91.94551849365234 59.69696044921875 89.56953430175781 65.31440734863281 C 87.27419281005859 70.74121856689453 83.98777770996094 75.61540222167969 79.80158996582031 79.80158996582031 C 75.61540222167969 83.98777770996094 70.74121856689453 87.27419281005859 65.31440734863281 89.56953430175781 C 59.69696044921875 91.94551849365234 53.72860336303711 93.15023040771484 47.57511901855469 93.15023040771484 Z" stroke="none"/>
          <path d="M 47.57511901855469 3.999992370605469 C 41.69075012207031 3.999992370605469 35.98451995849609 5.151565551757812 30.61493682861328 7.422706604003906 C 25.42652130126953 9.617210388183594 20.76601409912109 12.75970458984375 16.76285552978516 16.76285552978516 C 12.75970458984375 20.76601409912109 9.617210388183594 25.42652130126953 7.422706604003906 30.61493682861328 C 5.151565551757812 35.98451995849609 3.999992370605469 41.69075012207031 3.999992370605469 47.57511901855469 C 3.999992370605469 53.45948791503906 5.151565551757812 59.16571807861328 7.422706604003906 64.53530120849609 C 9.617210388183594 69.72371673583984 12.75970458984375 74.38422393798828 16.76285552978516 78.38738250732422 C 20.76601409912109 82.39053344726562 25.42652130126953 85.53302764892578 30.61493682861328 87.72753143310547 C 35.98451995849609 89.99867248535156 41.69075012207031 91.15024566650391 47.57511901855469 91.15024566650391 C 53.45948791503906 91.15024566650391 59.16571807861328 89.99867248535156 64.53530120849609 87.72753143310547 C 69.72371673583984 85.53302764892578 74.38422393798828 82.39053344726562 78.38738250732422 78.38738250732422 C 82.39053344726562 74.38422393798828 85.53302764892578 69.72371673583984 87.72753143310547 64.53530120849609 C 89.99867248535156 59.16571807861328 91.15024566650391 53.45948791503906 91.15024566650391 47.57511901855469 C 91.15024566650391 41.69075012207031 89.99867248535156 35.98451995849609 87.72753143310547 30.61493682861328 C 85.53302764892578 25.42652130126953 82.39053344726562 20.76601409912109 78.38738250732422 16.76285552978516 C 74.38422393798828 12.75970458984375 69.72371673583984 9.617210388183594 64.53530120849609 7.422706604003906 C 59.16571807861328 5.151565551757812 53.45948791503906 3.999992370605469 47.57511901855469 3.999992370605469 M 47.57511901855469 -7.62939453125e-06 C 73.85013580322266 -7.62939453125e-06 95.15024566650391 21.30010223388672 95.15024566650391 47.57511901855469 C 95.15024566650391 73.85013580322266 73.85013580322266 95.15024566650391 47.57511901855469 95.15024566650391 C 21.30010223388672 95.15024566650391 -7.62939453125e-06 73.85013580322266 -7.62939453125e-06 47.57511901855469 C -7.62939453125e-06 21.30010223388672 21.30010223388672 -7.62939453125e-06 47.57511901855469 -7.62939453125e-06 Z" stroke="none" fill="#fff"/>
        </g>
      </g>
      <g id="Trazado_873828-4" data-name="Trazado 873828" transform="translate(332.051 1800)" fill="#fd9826">
        <path d="M 47.57511901855469 93.15023040771484 C 41.42163467407227 93.15023040771484 35.45327758789062 91.94551849365234 29.8358325958252 89.56953430175781 C 24.40901947021484 87.27419281005859 19.53483390808105 83.98777770996094 15.34864711761475 79.80158996582031 C 11.16246223449707 75.61540222167969 7.876047611236572 70.74121856689453 5.580704689025879 65.31440734863281 C 3.204719066619873 59.69696044921875 2.000004768371582 53.72860336303711 2.000004768371582 47.57511901855469 C 2.000004768371582 41.42163467407227 3.204719066619873 35.45327758789062 5.580704689025879 29.8358325958252 C 7.876047611236572 24.40901947021484 11.16246223449707 19.53483390808105 15.34864711761475 15.34864711761475 C 19.53483390808105 11.16246223449707 24.40901947021484 7.876047611236572 29.8358325958252 5.580704689025879 C 35.45327758789062 3.204719066619873 41.42163467407227 2.000004768371582 47.57511901855469 2.000004768371582 C 53.72860336303711 2.000004768371582 59.69696044921875 3.204719066619873 65.31440734863281 5.580704689025879 C 70.74121856689453 7.876047611236572 75.61540222167969 11.16246223449707 79.80158996582031 15.34864711761475 C 83.98777770996094 19.53483390808105 87.27419281005859 24.40901947021484 89.56953430175781 29.8358325958252 C 91.94551849365234 35.45327758789062 93.15023040771484 41.42163467407227 93.15023040771484 47.57511901855469 C 93.15023040771484 53.72860336303711 91.94551849365234 59.69696044921875 89.56953430175781 65.31440734863281 C 87.27419281005859 70.74121856689453 83.98777770996094 75.61540222167969 79.80158996582031 79.80158996582031 C 75.61540222167969 83.98777770996094 70.74121856689453 87.27419281005859 65.31440734863281 89.56953430175781 C 59.69696044921875 91.94551849365234 53.72860336303711 93.15023040771484 47.57511901855469 93.15023040771484 Z" stroke="none"/>
        <path d="M 47.57511901855469 3.999992370605469 C 41.69075012207031 3.999992370605469 35.98451995849609 5.151565551757812 30.61493682861328 7.422706604003906 C 25.42652130126953 9.617210388183594 20.76601409912109 12.75970458984375 16.76285552978516 16.76285552978516 C 12.75970458984375 20.76601409912109 9.617210388183594 25.42652130126953 7.422706604003906 30.61493682861328 C 5.151565551757812 35.98451995849609 3.999992370605469 41.69075012207031 3.999992370605469 47.57511901855469 C 3.999992370605469 53.45948791503906 5.151565551757812 59.16571807861328 7.422706604003906 64.53530120849609 C 9.617210388183594 69.72371673583984 12.75970458984375 74.38422393798828 16.76285552978516 78.38738250732422 C 20.76601409912109 82.39053344726562 25.42652130126953 85.53302764892578 30.61493682861328 87.72753143310547 C 35.98451995849609 89.99867248535156 41.69075012207031 91.15024566650391 47.57511901855469 91.15024566650391 C 53.45948791503906 91.15024566650391 59.16571807861328 89.99867248535156 64.53530120849609 87.72753143310547 C 69.72371673583984 85.53302764892578 74.38422393798828 82.39053344726562 78.38738250732422 78.38738250732422 C 82.39053344726562 74.38422393798828 85.53302764892578 69.72371673583984 87.72753143310547 64.53530120849609 C 89.99867248535156 59.16571807861328 91.15024566650391 53.45948791503906 91.15024566650391 47.57511901855469 C 91.15024566650391 41.69075012207031 89.99867248535156 35.98451995849609 87.72753143310547 30.61493682861328 C 85.53302764892578 25.42652130126953 82.39053344726562 20.76601409912109 78.38738250732422 16.76285552978516 C 74.38422393798828 12.75970458984375 69.72371673583984 9.617210388183594 64.53530120849609 7.422706604003906 C 59.16571807861328 5.151565551757812 53.45948791503906 3.999992370605469 47.57511901855469 3.999992370605469 M 47.57511901855469 -7.62939453125e-06 C 73.85013580322266 -7.62939453125e-06 95.15024566650391 21.30010223388672 95.15024566650391 47.57511901855469 C 95.15024566650391 73.85013580322266 73.85013580322266 95.15024566650391 47.57511901855469 95.15024566650391 C 21.30010223388672 95.15024566650391 -7.62939453125e-06 73.85013580322266 -7.62939453125e-06 47.57511901855469 C -7.62939453125e-06 21.30010223388672 21.30010223388672 -7.62939453125e-06 47.57511901855469 -7.62939453125e-06 Z" stroke="none"/>
      </g>
      <g transform="matrix(1, 0, 0, 1, 323.05, 1794)" filter="url(#Trazado_873828-2)">
        <g id="Trazado_873828-5" data-name="Trazado 873828" transform="translate(9 6)" fill="#fff">
          <path d="M 47.57511901855469 93.15023040771484 C 41.42163467407227 93.15023040771484 35.45327758789062 91.94551849365234 29.8358325958252 89.56953430175781 C 24.40901947021484 87.27419281005859 19.53483390808105 83.98777770996094 15.34864711761475 79.80158996582031 C 11.16246223449707 75.61540222167969 7.876047611236572 70.74121856689453 5.580704689025879 65.31440734863281 C 3.204719066619873 59.69696044921875 2.000004768371582 53.72860336303711 2.000004768371582 47.57511901855469 C 2.000004768371582 41.42163467407227 3.204719066619873 35.45327758789062 5.580704689025879 29.8358325958252 C 7.876047611236572 24.40901947021484 11.16246223449707 19.53483390808105 15.34864711761475 15.34864711761475 C 19.53483390808105 11.16246223449707 24.40901947021484 7.876047611236572 29.8358325958252 5.580704689025879 C 35.45327758789062 3.204719066619873 41.42163467407227 2.000004768371582 47.57511901855469 2.000004768371582 C 53.72860336303711 2.000004768371582 59.69696044921875 3.204719066619873 65.31440734863281 5.580704689025879 C 70.74121856689453 7.876047611236572 75.61540222167969 11.16246223449707 79.80158996582031 15.34864711761475 C 83.98777770996094 19.53483390808105 87.27419281005859 24.40901947021484 89.56953430175781 29.8358325958252 C 91.94551849365234 35.45327758789062 93.15023040771484 41.42163467407227 93.15023040771484 47.57511901855469 C 93.15023040771484 53.72860336303711 91.94551849365234 59.69696044921875 89.56953430175781 65.31440734863281 C 87.27419281005859 70.74121856689453 83.98777770996094 75.61540222167969 79.80158996582031 79.80158996582031 C 75.61540222167969 83.98777770996094 70.74121856689453 87.27419281005859 65.31440734863281 89.56953430175781 C 59.69696044921875 91.94551849365234 53.72860336303711 93.15023040771484 47.57511901855469 93.15023040771484 Z" stroke="none"/>
          <path d="M 47.57511901855469 3.999992370605469 C 41.69075012207031 3.999992370605469 35.98451995849609 5.151565551757812 30.61493682861328 7.422706604003906 C 25.42652130126953 9.617210388183594 20.76601409912109 12.75970458984375 16.76285552978516 16.76285552978516 C 12.75970458984375 20.76601409912109 9.617210388183594 25.42652130126953 7.422706604003906 30.61493682861328 C 5.151565551757812 35.98451995849609 3.999992370605469 41.69075012207031 3.999992370605469 47.57511901855469 C 3.999992370605469 53.45948791503906 5.151565551757812 59.16571807861328 7.422706604003906 64.53530120849609 C 9.617210388183594 69.72371673583984 12.75970458984375 74.38422393798828 16.76285552978516 78.38738250732422 C 20.76601409912109 82.39053344726562 25.42652130126953 85.53302764892578 30.61493682861328 87.72753143310547 C 35.98451995849609 89.99867248535156 41.69075012207031 91.15024566650391 47.57511901855469 91.15024566650391 C 53.45948791503906 91.15024566650391 59.16571807861328 89.99867248535156 64.53530120849609 87.72753143310547 C 69.72371673583984 85.53302764892578 74.38422393798828 82.39053344726562 78.38738250732422 78.38738250732422 C 82.39053344726562 74.38422393798828 85.53302764892578 69.72371673583984 87.72753143310547 64.53530120849609 C 89.99867248535156 59.16571807861328 91.15024566650391 53.45948791503906 91.15024566650391 47.57511901855469 C 91.15024566650391 41.69075012207031 89.99867248535156 35.98451995849609 87.72753143310547 30.61493682861328 C 85.53302764892578 25.42652130126953 82.39053344726562 20.76601409912109 78.38738250732422 16.76285552978516 C 74.38422393798828 12.75970458984375 69.72371673583984 9.617210388183594 64.53530120849609 7.422706604003906 C 59.16571807861328 5.151565551757812 53.45948791503906 3.999992370605469 47.57511901855469 3.999992370605469 M 47.57511901855469 -7.62939453125e-06 C 73.85013580322266 -7.62939453125e-06 95.15024566650391 21.30010223388672 95.15024566650391 47.57511901855469 C 95.15024566650391 73.85013580322266 73.85013580322266 95.15024566650391 47.57511901855469 95.15024566650391 C 21.30010223388672 95.15024566650391 -7.62939453125e-06 73.85013580322266 -7.62939453125e-06 47.57511901855469 C -7.62939453125e-06 21.30010223388672 21.30010223388672 -7.62939453125e-06 47.57511901855469 -7.62939453125e-06 Z" stroke="none"/>
        </g>
      </g>
      <g id="Trazado_873828-6" data-name="Trazado 873828" transform="translate(332.051 1800)" fill="none">
        <path d="M 47.57511901855469 93.15023040771484 C 41.42163467407227 93.15023040771484 35.45327758789062 91.94551849365234 29.8358325958252 89.56953430175781 C 24.40901947021484 87.27419281005859 19.53483390808105 83.98777770996094 15.34864711761475 79.80158996582031 C 11.16246223449707 75.61540222167969 7.876047611236572 70.74121856689453 5.580704689025879 65.31440734863281 C 3.204719066619873 59.69696044921875 2.000004768371582 53.72860336303711 2.000004768371582 47.57511901855469 C 2.000004768371582 41.42163467407227 3.204719066619873 35.45327758789062 5.580704689025879 29.8358325958252 C 7.876047611236572 24.40901947021484 11.16246223449707 19.53483390808105 15.34864711761475 15.34864711761475 C 19.53483390808105 11.16246223449707 24.40901947021484 7.876047611236572 29.8358325958252 5.580704689025879 C 35.45327758789062 3.204719066619873 41.42163467407227 2.000004768371582 47.57511901855469 2.000004768371582 C 53.72860336303711 2.000004768371582 59.69696044921875 3.204719066619873 65.31440734863281 5.580704689025879 C 70.74121856689453 7.876047611236572 75.61540222167969 11.16246223449707 79.80158996582031 15.34864711761475 C 83.98777770996094 19.53483390808105 87.27419281005859 24.40901947021484 89.56953430175781 29.8358325958252 C 91.94551849365234 35.45327758789062 93.15023040771484 41.42163467407227 93.15023040771484 47.57511901855469 C 93.15023040771484 53.72860336303711 91.94551849365234 59.69696044921875 89.56953430175781 65.31440734863281 C 87.27419281005859 70.74121856689453 83.98777770996094 75.61540222167969 79.80158996582031 79.80158996582031 C 75.61540222167969 83.98777770996094 70.74121856689453 87.27419281005859 65.31440734863281 89.56953430175781 C 59.69696044921875 91.94551849365234 53.72860336303711 93.15023040771484 47.57511901855469 93.15023040771484 Z" stroke="none"/>
        <path d="M 47.57511901855469 3.999992370605469 C 41.69075012207031 3.999992370605469 35.98451995849609 5.151565551757812 30.61493682861328 7.422706604003906 C 25.42652130126953 9.617210388183594 20.76601409912109 12.75970458984375 16.76285552978516 16.76285552978516 C 12.75970458984375 20.76601409912109 9.617210388183594 25.42652130126953 7.422706604003906 30.61493682861328 C 5.151565551757812 35.98451995849609 3.999992370605469 41.69075012207031 3.999992370605469 47.57511901855469 C 3.999992370605469 53.45948791503906 5.151565551757812 59.16571807861328 7.422706604003906 64.53530120849609 C 9.617210388183594 69.72371673583984 12.75970458984375 74.38422393798828 16.76285552978516 78.38738250732422 C 20.76601409912109 82.39053344726562 25.42652130126953 85.53302764892578 30.61493682861328 87.72753143310547 C 35.98451995849609 89.99867248535156 41.69075012207031 91.15024566650391 47.57511901855469 91.15024566650391 C 53.45948791503906 91.15024566650391 59.16571807861328 89.99867248535156 64.53530120849609 87.72753143310547 C 69.72371673583984 85.53302764892578 74.38422393798828 82.39053344726562 78.38738250732422 78.38738250732422 C 82.39053344726562 74.38422393798828 85.53302764892578 69.72371673583984 87.72753143310547 64.53530120849609 C 89.99867248535156 59.16571807861328 91.15024566650391 53.45948791503906 91.15024566650391 47.57511901855469 C 91.15024566650391 41.69075012207031 89.99867248535156 35.98451995849609 87.72753143310547 30.61493682861328 C 85.53302764892578 25.42652130126953 82.39053344726562 20.76601409912109 78.38738250732422 16.76285552978516 C 74.38422393798828 12.75970458984375 69.72371673583984 9.617210388183594 64.53530120849609 7.422706604003906 C 59.16571807861328 5.151565551757812 53.45948791503906 3.999992370605469 47.57511901855469 3.999992370605469 M 47.57511901855469 -7.62939453125e-06 C 73.85013580322266 -7.62939453125e-06 95.15024566650391 21.30010223388672 95.15024566650391 47.57511901855469 C 95.15024566650391 73.85013580322266 73.85013580322266 95.15024566650391 47.57511901855469 95.15024566650391 C 21.30010223388672 95.15024566650391 -7.62939453125e-06 73.85013580322266 -7.62939453125e-06 47.57511901855469 C -7.62939453125e-06 21.30010223388672 21.30010223388672 -7.62939453125e-06 47.57511901855469 -7.62939453125e-06 Z" stroke="none" fill="#fff"/>
      </g>
    </g>
    <g id="Grupo_1113173" data-name="Grupo 1113173" transform="translate(314.269 1809)">
      <g id="Grupo_1113172" data-name="Grupo 1113172" transform="translate(43.737 8.956)">
        <g id="Grupo_1113168" data-name="Grupo 1113168" transform="translate(0 0)">
          <path id="Trazado_905858" data-name="Trazado 905858" d="M51.91,16H86.532a1.091,1.091,0,0,1,.8.331l6.341,6.341a1.091,1.091,0,0,1,.331.8V70.891a1.132,1.132,0,0,1-1.129,1.129H51.91a1.131,1.131,0,0,1-1.129-1.129V17.13A1.131,1.131,0,0,1,51.91,16Z" transform="translate(-50.781 -16.001)" fill="#eceff1" fill-rule="evenodd"/>
          <path id="Trazado_905859" data-name="Trazado 905859" d="M51.909,16h2.066V72.02H51.909a1.132,1.132,0,0,1-1.129-1.129V17.13A1.132,1.132,0,0,1,51.909,16Z" transform="translate(-50.78 -16.001)" fill="#d1d1d6" fill-rule="evenodd"/>
          <path id="Trazado_905860" data-name="Trazado 905860" d="M354.045,16.821a1.134,1.134,0,0,1,.331.233l6.341,6.341a1.133,1.133,0,0,1,.233.331h-6.34a.566.566,0,0,1-.565-.565Z" transform="translate(-317.826 -16.723)" fill="#a79ba7" fill-rule="evenodd"/>
        </g>
        <g id="Grupo_1113169" data-name="Grupo 1113169" transform="translate(8.634 1.141)">
          <circle id="Elipse_12916" data-name="Elipse 12916" cx="6.207" cy="6.207" r="6.207" transform="translate(0 11.471) rotate(-67.486)" fill="#ffc338"/>
          <path id="Trazado_905861" data-name="Trazado 905861" d="M187.011,41.507a6.207,6.207,0,1,1,0,12.415c-.179,0-.356-.008-.531-.023a6.207,6.207,0,0,0,0-12.369c.175-.015.352-.023.531-.023Z" transform="translate(-178.907 -39.602)" fill="#f5b829" fill-rule="evenodd"/>
        </g>
        <g id="Grupo_1113170" data-name="Grupo 1113170" transform="translate(4.314 27.223)">
          <path id="Trazado_905862" data-name="Trazado 905862" d="M87.793,356.344H91.28a.89.89,0,0,1,.889.889v8.508a.89.89,0,0,1-.889.889H87.793a.89.89,0,0,1-.889-.889v-8.508A.89.89,0,0,1,87.793,356.344Z" transform="translate(-86.904 -342.919)" fill="#fe646f" fill-rule="evenodd"/>
          <path id="Trazado_905863" data-name="Trazado 905863" d="M112.449,356.344h1.325a.89.89,0,0,1,.889.889v8.508a.89.89,0,0,1-.889.889h-1.325a.89.89,0,0,0,.889-.889v-8.508A.89.89,0,0,0,112.449,356.344Z" transform="translate(-109.398 -342.919)" fill="#fd4755" fill-rule="evenodd"/>
          <path id="Trazado_905864" data-name="Trazado 905864" d="M169.648,301.765h3.487a.89.89,0,0,1,.889.889v15.027a.89.89,0,0,1-.889.889h-3.487a.89.89,0,0,1-.889-.889V302.654A.89.89,0,0,1,169.648,301.765Z" transform="translate(-158.983 -294.859)" fill="#ffe177" fill-rule="evenodd"/>
          <path id="Trazado_905865" data-name="Trazado 905865" d="M194.3,301.765h1.325a.89.89,0,0,1,.889.889v15.027a.89.89,0,0,1-.889.889H194.3a.89.89,0,0,0,.889-.889V302.654A.89.89,0,0,0,194.3,301.765Z" transform="translate(-181.477 -294.859)" fill="#ffd064" fill-rule="evenodd"/>
          <path id="Trazado_905866" data-name="Trazado 905866" d="M251.5,320.138h3.487a.89.89,0,0,1,.889.889v12.832a.891.891,0,0,1-.889.889H251.5a.89.89,0,0,1-.889-.889V321.027A.89.89,0,0,1,251.5,320.138Z" transform="translate(-231.062 -311.038)" fill="#6cf5c2" fill-rule="evenodd"/>
          <path id="Trazado_905867" data-name="Trazado 905867" d="M276.159,320.138h1.325a.89.89,0,0,1,.889.889v12.832a.89.89,0,0,1-.889.889h-1.325a.89.89,0,0,0,.889-.889V321.027A.89.89,0,0,0,276.159,320.138Z" transform="translate(-253.556 -311.038)" fill="#00e499" fill-rule="evenodd"/>
          <path id="Trazado_905868" data-name="Trazado 905868" d="M333.356,243.939h3.487a.89.89,0,0,1,.889.889V266.76a.89.89,0,0,1-.889.889h-3.487a.89.89,0,0,1-.889-.889V244.828A.89.89,0,0,1,333.356,243.939Z" transform="translate(-303.139 -243.939)" fill="#8ac9fe" fill-rule="evenodd"/>
          <path id="Trazado_905869" data-name="Trazado 905869" d="M358.012,243.94h1.325a.89.89,0,0,1,.889.889v21.933a.89.89,0,0,1-.889.889h-1.325a.89.89,0,0,0,.889-.889V244.829A.89.89,0,0,0,358.012,243.94Z" transform="translate(-325.634 -243.94)" fill="#60b7ff" fill-rule="evenodd"/>
        </g>
        <g id="Grupo_1113171" data-name="Grupo 1113171" transform="translate(24.598 32.915)">
          <circle id="Elipse_12917" data-name="Elipse 12917" cx="10.112" cy="10.112" r="10.112" transform="translate(0 14.299) rotate(-45)" fill="#837683"/>
          <path id="Trazado_905870" data-name="Trazado 905870" d="M378.235,336.772a10.113,10.113,0,0,1-9.213,10.073q.444.039.9.039a10.2,10.2,0,0,0,1.447-.1l.182-.028a10.113,10.113,0,0,0-1.63-20.094q-.454,0-.9.039A10.113,10.113,0,0,1,378.235,336.772Z" transform="translate(-355.612 -322.473)" fill="#685e68" fill-rule="evenodd"/>
          <path id="Trazado_905871" data-name="Trazado 905871" d="M324.78,419.494a7.065,7.065,0,0,0-7.021,6.3,10.079,10.079,0,0,0,7.021,2.835,10.2,10.2,0,0,0,1.447-.1A10.081,10.081,0,0,0,331.8,425.8a7.063,7.063,0,0,0-7.021-6.3Z" transform="translate(-310.472 -404.22)" fill="#8ac9fe" fill-rule="evenodd"/>
          <path id="Trazado_905872" data-name="Trazado 905872" d="M369.024,419.552c4.2.534,5.9,3.715,6.287,7.526a10.157,10.157,0,0,0,1.633-1.281,7.069,7.069,0,0,0-7.92-6.245Z" transform="translate(-355.614 -404.221)" fill="#60b7ff" fill-rule="evenodd"/>
          <path id="Trazado_905873" data-name="Trazado 905873" d="M350.226,366.919a3.57,3.57,0,1,0-3.57-3.57A3.577,3.577,0,0,0,350.226,366.919Z" transform="translate(-335.918 -351.636)" fill="#f6dccd" fill-rule="evenodd"/>
          <path id="Trazado_905874" data-name="Trazado 905874" d="M375.907,363.347a3.571,3.571,0,0,1-3.121,3.542,3.57,3.57,0,1,0,0-7.085A3.571,3.571,0,0,1,375.907,363.347Z" transform="translate(-358.927 -351.635)" fill="#f1cbbc" fill-rule="evenodd"/>
        </g>
      </g>
      <path id="Trazado_905875" data-name="Trazado 905875" d="M76.644,63.078a6.106,6.106,0,0,1,12,0,9.131,9.131,0,0,1-12,0Zm-31.776.943H74.851a11.117,11.117,0,0,1-2.237-3.176H67.6a.955.955,0,0,1-.955-.955V45.279a.955.955,0,0,1,.955-.956h5.265a.954.954,0,0,1,.954.956v4.214a11.207,11.207,0,0,1,2.6-2.472V36.179a.956.956,0,0,1,.956-.956h5.266a.956.956,0,0,1,.956.956v8.965a11,11,0,0,1,2.4.48V16.913H80.522A1.522,1.522,0,0,1,79,15.393V9.911H44.867a.177.177,0,0,0-.174.174V63.846a.177.177,0,0,0,.174.174ZM84.654,15H80.912V11.262ZM81.69,45.144a11,11,0,0,0-3.355.832V37.134H81.69Zm-9.776,8.314a11.095,11.095,0,0,0,0,5.423v.052H68.56v-12.7h3.354v7.224ZM82.645,56.19a2.615,2.615,0,1,1,2.614-2.615A2.618,2.618,0,0,1,82.645,56.19Zm9.155-.02A9.156,9.156,0,1,0,75.133,61.4a7.994,7.994,0,0,1,4.37-4.569,4.525,4.525,0,1,1,6.285,0A8,8,0,0,1,90.156,61.4,9.1,9.1,0,0,0,91.8,56.17Zm-3.885-9.73V16.426a2.046,2.046,0,0,0-.61-1.474L80.963,8.611A2.042,2.042,0,0,0,79.49,8H44.867a2.087,2.087,0,0,0-2.085,2.085V63.846a2.088,2.088,0,0,0,2.085,2.085H77.433A11.066,11.066,0,0,0,87.915,46.44ZM52.758,27.863a.955.955,0,0,1,.955-.956h14.3a.956.956,0,0,1,0,1.911h-14.3A.955.955,0,0,1,52.758,27.863Zm-5.661,0a.956.956,0,0,1,.956-.956h1.838a.956.956,0,0,1,0,1.911H48.053A.956.956,0,0,1,47.1,27.863Zm5.661,5.1a.955.955,0,0,1,.955-.955h14.3a.955.955,0,0,1,0,1.91h-14.3A.955.955,0,0,1,52.758,32.965Zm-5.661,0a.955.955,0,0,1,.956-.955h1.838a.955.955,0,1,1,0,1.91H48.053A.955.955,0,0,1,47.1,32.965Zm22.875,5.649L77.5,31.025l-.584.051a.955.955,0,1,1-.167-1.9l3.183-.279a.956.956,0,0,1,1.033,1.058l-.356,3.174a.956.956,0,0,1-.949.85.983.983,0,0,1-.106-.006.956.956,0,0,1-.844-1.056l.051-.447-7.842,7.91a.957.957,0,0,1-.973.236L60.648,37.6l-9.376,7.3A.955.955,0,1,1,50.1,43.394l9.776-7.612a.956.956,0,0,1,.881-.156ZM52.362,58.933H49.008V50.558h3.354Zm.955-10.285a.955.955,0,0,1,.956.955V59.889a.955.955,0,0,1-.956.955H48.053a.956.956,0,0,1-.956-.955V49.6a.955.955,0,0,1,.956-.955Zm8.82,10.285H58.784V44.04h3.354Zm.955-16.8a.956.956,0,0,1,.956.956v16.8a.956.956,0,0,1-.956.955H57.829a.955.955,0,0,1-.955-.955v-16.8a.955.955,0,0,1,.955-.956ZM61.458,19.992a.235.235,0,0,0,.051-.214c-.017-.139-.056-.463-1.181-.648-2.172-.357-2.555-1.616-2.59-2.335a2.43,2.43,0,0,1,1.784-2.439v-.075a.955.955,0,1,1,1.911,0v.062a2.825,2.825,0,0,1,1.753,1.611.955.955,0,0,1-1.762.74,1.024,1.024,0,0,0-1.206-.549c-.139.031-.59.165-.571.558.012.253.346.435.991.541,1.685.276,2.616,1.052,2.768,2.3a2.128,2.128,0,0,1-.5,1.694,2.878,2.878,0,0,1-1.471.857v.039a.955.955,0,1,1-1.911,0v-.056a2.753,2.753,0,0,1-1.963-1.971.956.956,0,1,1,1.854-.462,1.052,1.052,0,0,0,1.123.656,1.377,1.377,0,0,0,.923-.312Zm-.981-7.035a5.252,5.252,0,1,1-5.252,5.252A5.258,5.258,0,0,1,60.476,12.957Zm0,12.415a7.163,7.163,0,1,1,7.163-7.163A7.171,7.171,0,0,1,60.476,25.372Z" fill-rule="evenodd"/>
    </g>
  </g>
</svg>
