<svg xmlns="http://www.w3.org/2000/svg" width="295" height="313.273" viewBox="0 0 295 313.273">
  <g id="Group_1113434" data-name="Group 1113434" transform="translate(-312.051 -1180.513)">
    <rect id="Rectangle_405518" data-name="Rectangle 405518" width="295" height="313.272" rx="8" transform="translate(312.051 1180.513)" fill="#f6f6f6"/>
    <g id="Group_1113433" data-name="Group 1113433" transform="translate(-4206.488 12141.252)">
      <path id="Path_901609" data-name="Path 901609" d="M311.5,131.627a107.429,107.429,0,0,1,1.683,46.42,92.3,92.3,0,0,1-18.767,41.4,88.015,88.015,0,0,1-34.194,25.525,78.727,78.727,0,0,1-42.674,5.114c-15.4-2.423-29.892-8.519-44.442-13.849-14.393-5.265-29.44-10.091-44.966-9.377-8.048.373-15.853,2.521-23.816,3.6-7.236.989-14.956,1.041-21.439-2.8-11.97-7.092-13.672-22.912-13.64-35.471.007-4.643.249-9.272.694-13.889a117.524,117.524,0,0,1,7.38-39.629c5.756-15.853,14.281-30.58,23.946-44.357,8.683-12.363,18.518-24.071,30.089-33.847,11.381-9.619,24.549-17.281,39.06-20.987,15.251-3.89,31.359-3.287,46.564.491a128.806,128.806,0,0,1,42.91,19.952A139.821,139.821,0,0,1,291.85,91.042,119.028,119.028,0,0,1,311.5,131.627" transform="translate(4468.477 -10972.416)" fill="#003f62"/>
      <path id="Path_901610" data-name="Path 901610" d="M416.806,48.394c0,11.019-10.867,19.958-24.276,19.958q-1.061,0-2.1-.075a6.452,6.452,0,0,0-3.982,1.086,27.232,27.232,0,0,1-11.49,3.729c.05-.033.093-.067.143-.1a6.58,6.58,0,0,0,.244-10.505,18.278,18.278,0,0,1-7.1-14.092c0-11.027,10.867-19.958,24.277-19.958s24.276,8.931,24.276,19.958" transform="translate(4365.263 -10969.516)" fill="#fd9826"/>
      <path id="Path_901611" data-name="Path 901611" d="M403.431,46.083a14.712,14.712,0,1,1-18.341-9.823,14.715,14.715,0,0,1,18.341,9.823" transform="translate(4363.061 -10971.997)" fill="#008d8e"/>
      <path id="Path_901612" data-name="Path 901612" d="M402.377,48.088A12.258,12.258,0,1,1,387.1,39.9a12.269,12.269,0,0,1,15.281,8.185" transform="translate(4361.766 -10973.292)" fill="#ffc94a"/>
      <path id="Path_901613" data-name="Path 901613" d="M397.211,59.736l.751,2.483-3.155.954L394.09,60.8a13.752,13.752,0,0,1-6.224.173l.537-4.362a11.219,11.219,0,0,0,5.6-.131c1.5-.453,1.941-.929,1.778-1.466-.6-1.97-8.773,2.237-10.539-3.6-.765-2.529.426-5.21,3.941-6.833l-.738-2.439,3.154-.954.724,2.394a12.209,12.209,0,0,1,4.935-.075l-.432,4.306a10.086,10.086,0,0,0-4.714.155c-1.544.467-1.9,1.064-1.738,1.6.568,1.879,8.753-2.3,10.5,3.467.731,2.416-.378,5.048-3.663,6.7" transform="translate(4359.475 -10973.917)" fill="#e8a03f"/>
      <path id="Path_901614" data-name="Path 901614" d="M411.125,70.649l-8.414-8.414,3.907-3.907,4.508,4.508,11.818-11.817,3.906,3.906Z" transform="translate(4353.369 -10977.311)" fill="#e4f2f3"/>
      <path id="Path_901615" data-name="Path 901615" d="M64.384,54.343c0,9.706,9.573,17.581,21.386,17.581q.934,0,1.846-.067a5.68,5.68,0,0,1,3.508.957A23.982,23.982,0,0,0,101.245,76.1c-.045-.03-.082-.06-.126-.089a5.8,5.8,0,0,1-.215-9.254,16.1,16.1,0,0,0,6.251-12.413c0-9.714-9.573-17.581-21.385-17.581S64.384,44.629,64.384,54.343" transform="translate(4470.155 -10972.39)" fill="#008d8e"/>
      <path id="Path_901616" data-name="Path 901616" d="M113.2,32.5l-3.235,12.074-2.886-2.886L94.914,53.839l-5.243-5.253L81.1,57.155,76.848,52.9,71,58.743l-2.827-2.826,8.679-8.669L81.1,51.5l8.569-8.558,5.243,5.243,9.338-9.328-3.126-3.126Z" transform="translate(4468.849 -10970.918)" fill="#ffc94a"/>
      <path id="Path_901617" data-name="Path 901617" d="M345.264,134.311c-.236,2.776-.642,6.162-1.087,9.534-.046.373-.092.753-.151,1.126-.956,7.2-2.043,13.947-2.043,13.947s-.6.138-1.637.295a39.675,39.675,0,0,1-7.825.471l.236.766,7.589,23.933a74.827,74.827,0,0,1-11.02,6.764h-.013c-.616.308-1.218.6-1.853.871-3.935,1.755-8.126,2.953-11.525,2.416a44.248,44.248,0,0,1-5.651-1.369c-.616-.2-1.238-.4-1.86-.609a123.588,123.588,0,0,1-12.559-5.16c-.491-.229-.943-.445-1.342-.655-1.283-.616-2.043-1-2.043-1l.1-1.323.576-7.629.111-1.486V175.2l.8-10.68s-3.647-11.138-3.706-13.1a9.721,9.721,0,0,1,.72-2.973c.131-.38.268-.753.419-1.12.674-1.7,1.4-3.2,1.4-3.2l-5.972-6.077s2.325-4.446,4.774-8.532c.2-.321.393-.635.6-.956,1.565-2.554,3.123-4.813,4.079-5.52a8.7,8.7,0,0,1,1.316-.753c4.06-2.043,13.659-5.134,13.659-5.134l-.236,1.951s-2.076,3.981,0,6.43c.386.458,1.139.367,2.128-.092a10.288,10.288,0,0,0,1.369-.74c4.577-2.862,11.682-10.163,11.682-10.163l-.151-2.436s5.4,1.683,7.026,5.389c0,0,.164.092.458.268a.441.441,0,0,1,.079.039l.059.039q.206.128.491.295c.131.079.275.17.432.262.124.079.255.164.393.249.308.2.648.413,1.008.648.21.138.419.282.642.426.989.668,2.1,1.447,3.169,2.292,2.691,2.108,5.232,4.643,5.52,6.784a31.28,31.28,0,0,1-.157,5.514" transform="translate(4393.336 -10998.397)" fill="#fed5a7"/>
      <path id="Path_901618" data-name="Path 901618" d="M368.2,432.294l4.562,12.249-32.39,12.043s-3.353-3.1-3.8-4.448,8.5-5.3,17.13-15.145a32.066,32.066,0,0,0,13.788-4.288Z" transform="translate(4376.206 -11108.922)" fill="#727997"/>
      <path id="Path_901619" data-name="Path 901619" d="M293.892,369.954c-.057-.012-.126-.034-.183-.046l-1.129-.319s-1.061-74.918-1.061-82.1,2.543-63.741,2.543-63.741,14.153,7.31,23.46,8.793,24.406-10.047,24.406-10.047c10.675,9.089-1.585,72.842-1.585,72.842,13.927,11.733,12.477,64.449,12.477,64.449l-.171.091-.707.411a32.041,32.041,0,0,1-13.788,4.288c-.388.034-.787.057-1.186.069l-19.115-76.868-4.768,15.99c4.91,12.5-3.284,66.4-3.284,66.4l-.89.193a32.3,32.3,0,0,1-15.02-.4" transform="translate(4391.75 -11036.501)" fill="#d2e1f1"/>
      <path id="Path_901620" data-name="Path 901620" d="M320.274,96.249a3.774,3.774,0,0,1-2.076-.73c-1.335-1.129-6.318-7.493-6.809-11.119a25.161,25.161,0,0,1-.08-3.65c.1-3.285.479-7.55.73-10.081a.071.071,0,0,1,.011-.046c.354-3.649,4.791-7.208,4.791-7.208s6.147-.49,9.033,4.334,11.176,5.908,11.176,5.908a3.588,3.588,0,0,1,1.517.091,4.18,4.18,0,0,1,2.509,2.213,4.774,4.774,0,0,1,.468,1.677,5.89,5.89,0,0,1-.068,1.676,6.858,6.858,0,0,1-2.532,4.2,6.556,6.556,0,0,1-3.809,1.38,13.462,13.462,0,0,1-1.038,3.091,15.563,15.563,0,0,1-9.728,7.847,14.066,14.066,0,0,1-4.095.422" transform="translate(4384.928 -10981.585)" fill="#e48c59"/>
      <path id="Path_901621" data-name="Path 901621" d="M338.409,108.248l.148,2.44s-13.1,13.458-15.179,10.994,0-6.432,0-6.432l.239-1.95c10.834,1.562,14.336-12.363,14.336-12.363Z" transform="translate(4381.072 -10994.543)" fill="#e48c59"/>
      <path id="Path_901622" data-name="Path 901622" d="M328.837,108.785a15.562,15.562,0,0,0,9.729-7.847s-3.5,13.925-14.336,12.363l.513-4.095a14.041,14.041,0,0,0,4.095-.422" transform="translate(4380.459 -10994.543)" fill="#222a40"/>
      <path id="Path_901623" data-name="Path 901623" d="M300.165,447.9v13.172H265.608s-2.053-4.071-2.008-5.5c.058-1.391,9.444-1.984,20.654-7.881a32.309,32.309,0,0,0,15.02.4Z" transform="translate(4401.388 -11114.237)" fill="#727997"/>
      <path id="Path_901624" data-name="Path 901624" d="M317.133,131.348c-.125.479-.24.969-.365,1.448-.776,2.931-1.642,6.261-3.764,8.531a8.346,8.346,0,0,1-8.337,2.007c-4.243-1.106-7.173-4.425-10.446-7.173.194-.32.388-.638.593-.958.776.627,1.518,1.289,2.258,1.95,2.3,2.053,4.744,4.22,7.79,5.053,2.954.787,6.079.171,7.926-2.4a14.893,14.893,0,0,0,1.894-4.014c.411-1.221.775-2.464,1.083-3.707a10.4,10.4,0,0,0,1.369-.741" transform="translate(4390.818 -11005.039)" fill="#fd9826"/>
      <path id="Path_901625" data-name="Path 901625" d="M365.139,146.847c-.046.377-.091.753-.148,1.129-1.7-.251-3.4-.49-5.1-.729-3.182-.456-6.512-.936-9.135-2.943a7.777,7.777,0,0,1-2.977-7.71c.559-3.4,2.452-6.592,3.924-9.66.981-2.053,1.962-4.083,2.965-6.124.251.149.581.354.981.593-1.083,2.2-2.144,4.4-3.2,6.615-1.391,2.9-3.239,5.965-3.615,9.215a6.887,6.887,0,0,0,4.06,7.071c2.851,1.494,6.273,1.7,9.409,2.144.947.137,1.893.274,2.84.4" transform="translate(4372.373 -11001.402)" fill="#fd9826"/>
      <path id="Path_901626" data-name="Path 901626" d="M338.816,180.615c-3.975-4.884-8.771-10.478-15.588-10.745a10.127,10.127,0,0,0-7.663,2.856c-2.228,2.316-3.017,5.674-3.99,8.637L307.6,193.5c-.23.7.872,1,1.1.3l3.273-9.976c.544-1.658,1.079-3.319,1.633-4.973a18.61,18.61,0,0,1,1.683-3.894,8.527,8.527,0,0,1,6.969-3.941,13.417,13.417,0,0,1,8.209,2.687c2.973,2.067,5.282,4.935,7.548,7.72.464.569,1.266-.242.807-.807" transform="translate(4386.212 -11018.334)" fill="#fd9826"/>
      <path id="Path_901627" data-name="Path 901627" d="M341.862,225.322c-.616.308-1.221.593-1.859.867a11.657,11.657,0,0,1-5.737-2.92c-3.626-3.433-5.3-9.637-10.583-11.04a.573.573,0,0,1,.3-1.106,11.752,11.752,0,0,1,6.124,4.7c1.574,2.087,2.794,4.436,4.631,6.306a10.949,10.949,0,0,0,6.808,3.171,3.09,3.09,0,0,0,.32.023" transform="translate(4380.79 -11032.57)" fill="#fd9826"/>
      <path id="Path_901628" data-name="Path 901628" d="M297.858,190.2c-.513,1.642-1.072,3.228-1.619,4.756a.615.615,0,0,1-.9.3.47.47,0,0,1-.206-.6c.1-.3.217-.582.32-.879v-.011c.775-2.156,1.528-4.322,2.133-6.535,1.164-4.345,1.688-9.033.342-13.4a13.638,13.638,0,0,0-4.664-6.82c.137-.377.274-.752.422-1.118a13.688,13.688,0,0,1,2.874,2.806c4.836,6.341,3.547,14.324,1.3,21.509" transform="translate(4391.149 -11016.961)" fill="#ecb45e"/>
      <path id="Path_901629" data-name="Path 901629" d="M314.283,231.859c-.616-.194-1.232-.4-1.859-.6a15.811,15.811,0,0,0-5.178-4.482,9.4,9.4,0,0,0-7.379-.684c-.49-.228-.946-.445-1.346-.65a10.187,10.187,0,0,1,8.679.046,17.828,17.828,0,0,1,7.082,6.375" transform="translate(4389.333 -11037.19)" fill="#fd9826"/>
      <path id="Path_901630" data-name="Path 901630" d="M321.229,82.971a10.1,10.1,0,0,1,.9,4.088c-.01,2.258-1.517,3.711-2.375,3.607s-2.443-1.069-2.315-2.241a4.88,4.88,0,0,1,.989-1.438,45.653,45.653,0,0,0,2.8-4.016" transform="translate(4382.807 -10988.341)" fill="#e07045"/>
      <path id="Path_901631" data-name="Path 901631" d="M320.6,90.8a.316.316,0,0,1-.085-.011,7.318,7.318,0,0,1-3.178-1.773,1.407,1.407,0,0,1-.024-1.985,30.973,30.973,0,0,0,3.863-5.5.327.327,0,1,1,.574.315,31.638,31.638,0,0,1-3.945,5.612.761.761,0,0,0-.013,1.083,6.656,6.656,0,0,0,2.894,1.611.328.328,0,0,1-.085.644" transform="translate(4382.984 -10987.786)" fill="#222a40"/>
      <path id="Path_901632" data-name="Path 901632" d="M330.982,80.972a1.7,1.7,0,1,0,1.78-1.854,1.826,1.826,0,0,0-1.78,1.854" transform="translate(4378.13 -10987.01)" fill="#222a40"/>
      <path id="Path_901633" data-name="Path 901633" d="M314.791,80.175a1.7,1.7,0,1,0,1.78-1.854,1.826,1.826,0,0,0-1.78,1.854" transform="translate(4383.719 -10986.734)" fill="#222a40"/>
      <path id="Path_901634" data-name="Path 901634" d="M332.893,73.332a9.674,9.674,0,0,1,3.285,1.054.9.9,0,0,1,.382.551.91.91,0,0,1-.124.68.9.9,0,0,1-.551.382,1,1,0,0,1-.68-.123c-.056-.029-.113-.057-.169-.085a8.532,8.532,0,0,0-1.981-.644c-.083-.013-.166-.027-.25-.039a.953.953,0,0,1-.615-.291.889.889,0,0,1,.7-1.485" transform="translate(4377.792 -10985.011)" fill="#222a40"/>
      <path id="Path_901635" data-name="Path 901635" d="M317.963,72.675a9.689,9.689,0,0,0-3.372.726.9.9,0,0,0-.434.511.89.89,0,0,0,.566,1.124,1.006,1.006,0,0,0,.689-.056c.058-.024.117-.045.176-.068a8.495,8.495,0,0,1,2.035-.445c.084-.005.168-.012.252-.014a.956.956,0,0,0,.641-.229.889.889,0,0,0-.553-1.547" transform="translate(4383.952 -10984.786)" fill="#222a40"/>
      <path id="Path_901636" data-name="Path 901636" d="M318.432,99.7a4.794,4.794,0,0,0,5.076,2.91c2.809-.318,3.624-2.86,3.846-4.184a.6.6,0,0,0-.678-.7l-7.78,1.141a.591.591,0,0,0-.464.834" transform="translate(4382.481 -10993.431)" fill="#fff"/>
      <path id="Path_901637" data-name="Path 901637" d="M348.553,90.5a.268.268,0,0,1-.046,0,.327.327,0,0,1-.279-.37,9.08,9.08,0,0,1,3.72-6.067.327.327,0,0,1,.376.536,8.413,8.413,0,0,0-3.448,5.622.327.327,0,0,1-.323.282" transform="translate(4372.177 -10988.695)" fill="#222a40"/>
      <path id="Path_901638" data-name="Path 901638" d="M335.666,87.333c-3.67,0-3.675,5.7,0,5.7s3.675-5.7,0-5.7" transform="translate(4377.462 -10989.846)" fill="#e07045"/>
      <path id="Path_901639" data-name="Path 901639" d="M320.914,296.9a.327.327,0,0,1-.317-.245l-10.662-41.006-9.419-7.075a.327.327,0,0,1,.392-.523l9.512,7.143a.325.325,0,0,1,.12.179l10.69,41.117a.327.327,0,0,1-.317.41" transform="translate(4388.69 -11045.301)" fill="#222a40"/>
      <path id="Path_901640" data-name="Path 901640" d="M372.954,362.979a.327.327,0,0,1-.327-.308c-.027-.468-2.742-46.934-5.749-54.092a42.678,42.678,0,0,0-7.333-11.738.326.326,0,0,1-.088-.262c.05-.445,4.973-44.593,5.6-53.883a33.055,33.055,0,0,0-3.414-16.544.327.327,0,0,1,.572-.319,33.734,33.734,0,0,1,3.5,16.906c-.606,9.034-5.265,50.92-5.582,53.763a43.9,43.9,0,0,1,7.357,11.822c3.051,7.26,5.688,52.39,5.8,54.308a.327.327,0,0,1-.308.346h-.019" transform="translate(4368.3 -11037.597)" fill="#222a40"/>
      <path id="Path_901641" data-name="Path 901641" d="M291.976,164.1a.326.326,0,0,1-.32-.261c-.591-2.845,5.99-15.228,6.27-15.754a.328.328,0,1,1,.578.308c-1.879,3.524-6.658,13.143-6.208,15.312a.327.327,0,0,1-.254.388.33.33,0,0,1-.067.007" transform="translate(4391.716 -11010.759)" fill="#222a40"/>
      <path id="Path_901642" data-name="Path 901642" d="M357.952,104.148a17.57,17.57,0,0,1-4.21,7.367,12.628,12.628,0,0,1-1.729,1.454,31.279,31.279,0,0,0,.157-5.514c-.288-2.141-2.829-4.675-5.52-6.784-1.074-.845-2.181-1.624-3.169-2.292-.216-.144-.432-.288-.642-.426-.36-.236-.7-.452-1.008-.648-.138-.085-.268-.17-.393-.249-.157-.092-.3-.183-.432-.262q-.285-.167-.491-.295l-.059-.039a.441.441,0,0,0-.079-.039c-.295-.177-.458-.268-.458-.268-1.63-3.706-7.026-5.389-7.026-5.389l-.452-7.314a13.927,13.927,0,0,0,1.035-3.091,6.56,6.56,0,0,0,3.811-1.382,6.825,6.825,0,0,0,2.528-4.2,5.737,5.737,0,0,0,.072-1.676,4.76,4.76,0,0,0-.471-1.676,4.138,4.138,0,0,0-2.508-2.207,3.48,3.48,0,0,0-1.513-.092s-8.3-1.087-11.178-5.913-9.036-4.328-9.036-4.328-4.433,3.556-4.787,7.2a.071.071,0,0,0-.013.046c-.2,2.036-.485,5.193-.635,8.061-.753-2.272-1.506-4.191-1.506-4.191-.288-2.338-2.194-5.271-1.67-9.979s10.863-9.043,10.863-9.043a35.485,35.485,0,0,1,5.3-.661c4.086-.21,9.56.216,12.664,3.359,4.25,4.3,5.383,12.605,6.162,18.309a30.148,30.148,0,0,0,7.282,11.721c2.881,2.783,6.483,4.97,8.427,8.473,2,3.588,1.892,8.041.688,11.963" transform="translate(4386.587 -10977.055)" fill="#222a40"/>
      <path id="Path_901643" data-name="Path 901643" d="M307.712,68.923a.328.328,0,0,1-.24-.1,17.809,17.809,0,0,1-3.426-4.59,6.219,6.219,0,0,1,.024-5.734,9.141,9.141,0,0,1,3.983-3.089q4.147-2.1,8.311-4.159a.327.327,0,1,1,.29.586q-4.16,2.063-8.3,4.158a8.646,8.646,0,0,0-3.717,2.841,5.572,5.572,0,0,0,.012,5.126,17.253,17.253,0,0,0,3.309,4.415.327.327,0,0,1-.24.551" transform="translate(4387.663 -10977.378)" fill="#222a40"/>
      <path id="Path_901644" data-name="Path 901644" d="M371.429,110.763a.328.328,0,0,1-.223-.568c2.737-2.53,5.233-5.07,5.732-8.311.415-2.7-.692-5.794-3.038-8.5a37.771,37.771,0,0,0-4.962-4.5c-.726-.585-1.477-1.19-2.2-1.807a45.918,45.918,0,0,1-14.811-24.633.327.327,0,0,1,.639-.143,45.268,45.268,0,0,0,14.6,24.28c.712.611,1.459,1.213,2.181,1.794a38.374,38.374,0,0,1,5.045,4.585c2.473,2.853,3.635,6.143,3.19,9.03-.53,3.45-3.11,6.079-5.934,8.691a.329.329,0,0,1-.223.087" transform="translate(4370.9 -10981.115)" fill="#222a40"/>
      <path id="Path_901645" data-name="Path 901645" d="M323.943,127.279a1.231,1.231,0,0,1-.988-.42c-2.192-2.587-.129-6.622-.04-6.793a.327.327,0,1,1,.58.3c-.02.038-1.947,3.817-.04,6.067.315.375,1.12.11,1.741-.177a9.964,9.964,0,0,0,1.332-.72c4.492-2.808,11.55-10.041,11.621-10.114a.327.327,0,1,1,.469.456c-.071.073-7.185,7.363-11.743,10.212a10.538,10.538,0,0,1-1.412.763,3.869,3.869,0,0,1-1.52.422" transform="translate(4381.247 -10999.509)" fill="#222a40"/>
      <path id="Path_901646" data-name="Path 901646" d="M182.593,115.977l-2,2.463-.946,1.164-8.623,10.641.194,3.512.89,16.081v.011l.091,1.494,1.528,27.634.149,2.634h-.012c-.5.137-16.56,4.471-31.853,4.767a30.316,30.316,0,0,1-22.787-9.9,17.14,17.14,0,0,1-1.152-1.369l1.186-9.364,7.744-19.878v-.035c-9.626.365-15.26-2.383-18.271-4.733a12.062,12.062,0,0,1-2.965-3.136s2.121-9.5,4.22-18.271c.092-.377.183-.764.263-1.141,1.312-5.5,2.566-10.515,3.228-12.511,1.745-5.28,18.5-10.059,18.5-10.059l.068-.068a8.672,8.672,0,0,1,.936-.912,7.859,7.859,0,0,1,3.946-1.974h.011l-.148,2.008s6.215,10.549,11.587,12.054a4.341,4.341,0,0,0,.5.114,4.164,4.164,0,0,0,1.2,0c4.277-.65,6.57-8.3,6.57-8.3l-.821-2.92a13.362,13.362,0,0,1,7.208.81,10.72,10.72,0,0,1,1.027.513,10.072,10.072,0,0,1,1.733,1.232c4.231,3.752,16.8,17.438,16.8,17.438" transform="translate(4455.869 -10991.813)" fill="#008d8e"/>
      <path id="Path_901647" data-name="Path 901647" d="M174.388,202.156c-5.619,3.747-11.191,7.577-16.867,11.237-2.473,1.594-5.3,3.139-8.347,2.7a10.917,10.917,0,0,1-6.676-4.165c-2.153-2.667-3.3-6-4.426-9.188-.242-.688-1.345-.392-1.1.3,1.934,5.487,4.394,11.775,10.428,13.792a10.7,10.7,0,0,0,8.479-1.135,104.068,104.068,0,0,0,8.746-5.663l10.339-6.894c.608-.405.037-1.393-.576-.985" transform="translate(4445.11 -11029.448)" fill="#cbe7e8"/>
      <path id="Path_901648" data-name="Path 901648" d="M280.883,72.724A13.674,13.674,0,1,1,267.208,59.05a13.677,13.677,0,0,1,13.674,13.674" transform="translate(4404.863 -10980.083)" fill="#fd9826"/>
      <path id="Path_901649" data-name="Path 901649" d="M279.8,73.927a11.393,11.393,0,1,1-11.394-11.394A11.4,11.4,0,0,1,279.8,73.927" transform="translate(4403.66 -10981.286)" fill="#ffc94a"/>
      <path id="Path_901650" data-name="Path 901650" d="M272.6,82.35v2.411h-3.063v-2.3a12.757,12.757,0,0,1-5.584-1.522L265.6,77.2a10.432,10.432,0,0,0,5.018,1.39c1.456,0,1.978-.3,1.978-.826,0-1.911-8.408-.369-8.408-6.039,0-2.455,1.781-4.52,5.345-5.018V64.339H272.6v2.324a11.344,11.344,0,0,1,4.41,1.262l-1.542,3.715a9.375,9.375,0,0,0-4.237-1.13c-1.5,0-1.976.435-1.976.957,0,1.824,8.406.3,8.406,5.908,0,2.346-1.694,4.389-5.061,4.976" transform="translate(4401.268 -10981.909)" fill="#e8a03f"/>
      <path id="Path_901651" data-name="Path 901651" d="M249.03,93.338v.011l-.011.057-6.181,4.117s-16.719,42.563-23.46,41.7-13.754-10.127-13.754-10.127l-.194-3.513,11.565-14.267,1.985,1.585L233.565,92.95s1.266-8.862,1.665-10.607c.1-.479.855-.924,1.9-1.3a29.329,29.329,0,0,1,8.314-1.505c.935.194.32,1.8-.593,2.771a24.2,24.2,0,0,1-4.083,2.657,7.065,7.065,0,0,1,.856,5.121,13.175,13.175,0,0,0,7.4,3.25" transform="translate(4421.468 -10987.148)" fill="#e48c59"/>
      <path id="Path_901652" data-name="Path 901652" d="M211.252,455.378c.046,1.426-2.019,5.5-2.019,5.5H174.688V448.342a21.716,21.716,0,0,0,15.215-1.209c11.519,6.238,21.293,6.82,21.349,8.245" transform="translate(4432.08 -11114.045)" fill="#7a6460"/>
      <path id="Path_901653" data-name="Path 901653" d="M130.238,372.176a23.809,23.809,0,0,1-13.173-.3c-.57-.183-1.14-.377-1.7-.6,0,0,2.452-123.959,3.011-131.725.411-5.736,2.9-14.757,4.163-19.08a30.316,30.316,0,0,0,22.786,9.9c15.533-.3,31.865-4.768,31.865-4.768l-7.767,143.29a21.71,21.71,0,0,1-15.214,1.209c-.342-.1-.673-.2-1-.32l-.752-.251-4.6-81.635-14.894,83.381-.422.16a23.687,23.687,0,0,1-2.3.741" transform="translate(4452.557 -11035.804)" fill="#d2e1f1"/>
      <path id="Path_901654" data-name="Path 901654" d="M144.215,56.235a4.171,4.171,0,0,1,2.418-2.053,3.775,3.775,0,0,1,1.517-.08,4.045,4.045,0,0,0,2.714-3.889,18.2,18.2,0,0,1,.775-5.782,3.33,3.33,0,0,1,1.232-1.563s8.189,3.216,12.044-.7c0,0,5.771.171,7.755,4.722a13.142,13.142,0,0,1,.251,2.03h.012s.16,1.46.354,3.524c.365,3.912.843,10.013.525,12.385-.49,3.638-2.589,9.9-3.935,11.028a3.6,3.6,0,0,1-1.539.582c-2.372.49-6.41.331-7.493-.172-1.266-.581-7.881-2.577-10.242-9.1a13.941,13.941,0,0,1-.525-1.836,6.743,6.743,0,0,1-6.352-5.577,5.673,5.673,0,0,1,.4-3.364.746.746,0,0,1,.091-.16" transform="translate(4442.8 -10974.258)" fill="#e48c59"/>
      <path id="Path_901655" data-name="Path 901655" d="M172.568,91.607l.821,2.92c-18.921,1.175-19.115-13.549-19.115-14.154v-.022c2.361,6.523,8.976,8.519,10.242,9.1,1.083.5,5.121.661,7.493.171Z" transform="translate(4439.125 -10987.437)" fill="#222a40"/>
      <path id="Path_901656" data-name="Path 901656" d="M153.885,80.386c0,.6.194,15.328,19.115,14.153,0,0-2.909,9.694-8.269,8.189s-11.587-12.055-11.587-12.055l.148-2.007Z" transform="translate(4439.516 -10987.448)" fill="#e48c59"/>
      <path id="Path_901657" data-name="Path 901657" d="M175.422,38.353a8.14,8.14,0,0,1-.583,2.855,27.985,27.985,0,0,0-1.231,7.275l-.5-.013c-.2-2.063-.354-3.523-.354-3.523h-.013a12.932,12.932,0,0,0-.249-2.03,6.616,6.616,0,0,0-1.107-1.735q-.236.275-.491.53c-2.482,2.41-6.175,2.829-9.436,2.187a24.52,24.52,0,0,1-5.258-1.781,13.923,13.923,0,0,0-4.793-1.506,19.1,19.1,0,0,0-.72,5.625,4.035,4.035,0,0,1-2.717,3.883,3.806,3.806,0,0,0-1.513.085,4.153,4.153,0,0,0-2.416,2.05,4.643,4.643,0,0,1,.832-5.952,11.763,11.763,0,0,1-1.761-6.057,5.089,5.089,0,0,1,.871-3.2c1-1.27,2.724-1.585,4.263-2.03a50.728,50.728,0,0,0,6.195-2.521c.923-.4,1.847-.786,2.8-1.094,3.084-1.015,6.718-1.211,9.311.727a17.255,17.255,0,0,0,1.86,1.447c1.231.7,2.744.661,4.079,1.152a4.388,4.388,0,0,1,2.934,3.628" transform="translate(4442.981 -10970.278)" fill="#222a40"/>
      <path id="Path_901658" data-name="Path 901658" d="M132.153,463.295c.559,2.27-1.164,4.859-1.164,4.859H113.073s-1.289-4.962-.627-6.387c.468-1,2.429-6.763,3.546-10.07a23.81,23.81,0,0,0,13.173.3c.958,3.581,2.6,9.717,2.988,11.3" transform="translate(4453.63 -11115.62)" fill="#7a6460"/>
      <path id="Path_901659" data-name="Path 901659" d="M129.036,121.853a14.023,14.023,0,0,1-10.664,1.357,24.9,24.9,0,0,1-6.159-2.475c.091-.377.183-.764.263-1.141a23.511,23.511,0,0,0,7.2,2.726,12.373,12.373,0,0,0,9.762-2.121,15.772,15.772,0,0,0,5.155-7.516c1.745-5.155,1.061-10.538-.32-15.727a8.729,8.729,0,0,1,.935-.912,42.821,42.821,0,0,1,1.483,8.131c.479,6.6-1.722,14.028-7.653,17.677" transform="translate(4453.645 -10992.853)" fill="#98d1d1"/>
      <path id="Path_901660" data-name="Path 901660" d="M188.384,158.816a23.509,23.509,0,0,0-5.486-2.908c-5.759-2.145-11.975-2.669-17.745-4.79-5.053-1.859-9.865-5.2-11.8-10.436-2.053-5.577.73-11.028,4.083-15.408,2.588-3.376,5.873-6.66,7.629-10.595a4.216,4.216,0,0,0,1.2,0c-1.893,4.539-5.679,8.166-8.565,12.146a19.663,19.663,0,0,0-3.763,7.869,11.15,11.15,0,0,0,1.574,7.813c3.137,5.155,8.93,7.481,14.518,8.9,5.873,1.494,12.066,2.27,17.381,5.36q.445.256.89.547v.011Z" transform="translate(4439.688 -10999.286)" fill="#cbe7e8"/>
      <path id="Path_901661" data-name="Path 901661" d="M209.794,120.424l-.946,1.164c-.822,0-1.643-.023-2.464-.092-5.748-.456-11.245-2.942-14.153-8.131a15.1,15.1,0,0,1,0-14.587,10.569,10.569,0,0,1,1.027.513,13.775,13.775,0,0,0,6.569,19.479,22.235,22.235,0,0,0,9.968,1.654" transform="translate(4426.672 -10993.797)" fill="#cbe7e8"/>
      <path id="Path_901662" data-name="Path 901662" d="M177.821,61.242a14.679,14.679,0,0,0-.528,5.269c.259,2.846,2.059,4.485,2.981,4.245s2.541-1.66,2.272-3.12a6.123,6.123,0,0,0-1.234-1.688,56.437,56.437,0,0,1-3.491-4.706" transform="translate(4431.198 -10980.84)" fill="#e07045"/>
      <path id="Path_901663" data-name="Path 901663" d="M179.052,71.041a.327.327,0,0,1-.132-.627A7.414,7.414,0,0,0,181.9,68a1.205,1.205,0,0,0-.139-1.52,39,39,0,0,1-4.9-6.561.328.328,0,0,1,.563-.335,38.357,38.357,0,0,0,4.817,6.451,1.861,1.861,0,0,1,.187,2.35,8.061,8.061,0,0,1-3.25,2.626.324.324,0,0,1-.132.028" transform="translate(4431.344 -10980.213)" fill="#222a40"/>
      <path id="Path_901664" data-name="Path 901664" d="M169.991,61.864a1.7,1.7,0,1,1-1.687-1.939,1.827,1.827,0,0,1,1.687,1.939" transform="translate(4434.866 -10980.386)" fill="#222a40"/>
      <path id="Path_901665" data-name="Path 901665" d="M186.2,61.864a1.7,1.7,0,1,1-1.687-1.939,1.826,1.826,0,0,1,1.687,1.939" transform="translate(4429.27 -10980.386)" fill="#222a40"/>
      <path id="Path_901666" data-name="Path 901666" d="M167.859,53.676a12.091,12.091,0,0,0-4.165,1.114,1.12,1.12,0,0,0-.511.664,1.139,1.139,0,0,0,.112.857,1.125,1.125,0,0,0,.665.511,1.26,1.26,0,0,0,.856-.112c.071-.033.144-.064.215-.1a10.665,10.665,0,0,1,2.514-.682c.1-.012.21-.024.314-.033a1.19,1.19,0,0,0,.786-.325,1.112,1.112,0,0,0-.786-1.9" transform="translate(4436.064 -10978.227)" fill="#222a40"/>
      <path id="Path_901667" data-name="Path 901667" d="M186.633,56.312a1.125,1.125,0,0,1-.665.511,1.257,1.257,0,0,1-.857-.112c-.071-.033-.143-.064-.215-.1a10.646,10.646,0,0,0-2.514-.681c-.1-.012-.209-.025-.314-.033a1.192,1.192,0,0,1-.786-.326,1.112,1.112,0,0,1,.786-1.9,12.112,12.112,0,0,1,4.166,1.114" transform="translate(4429.916 -10978.227)" fill="#222a40"/>
      <path id="Path_901668" data-name="Path 901668" d="M150.365,70.989a.327.327,0,0,1-.325-.3,8.419,8.419,0,0,0-3.167-5.785.327.327,0,1,1,.4-.517,9.085,9.085,0,0,1,3.417,6.243.328.328,0,0,1-.3.356h-.03" transform="translate(4441.725 -10981.902)" fill="#222a40"/>
      <path id="Path_901669" data-name="Path 901669" d="M175.174,79.1a5.337,5.337,0,0,1-5.094-3.732.327.327,0,1,1,.625-.2,4.682,4.682,0,0,0,4.888,3.255.327.327,0,1,1,.059.652q-.239.022-.477.022" transform="translate(4433.675 -10985.57)" fill="#222a40"/>
      <path id="Path_901670" data-name="Path 901670" d="M164.815,295.455a.3.3,0,0,1-.083-.011.326.326,0,0,1-.234-.4l11.893-45.333a.326.326,0,0,1,.126-.184l11.256-8.046a.328.328,0,0,1,.381.534l-11.159,7.976-11.863,45.219a.327.327,0,0,1-.316.244" transform="translate(4435.601 -11043.036)" fill="#10141c"/>
      <path id="Path_901671" data-name="Path 901671" d="M185.156,256.032a.327.327,0,0,1-.046-.652l9.828-1.427a.328.328,0,0,1,.094.648l-9.829,1.427a.383.383,0,0,1-.047,0" transform="translate(4428.579 -11047.36)" fill="#10141c"/>
      <path id="Path_901672" data-name="Path 901672" d="M117.789,375.365h-.018a.325.325,0,0,1-.308-.344c.064-1.183,6.464-118.286,6.542-124.547.079-6.3,2.617-20.443,2.642-20.585a.328.328,0,0,1,.645.117c-.026.141-2.554,14.235-2.632,20.475-.079,6.276-6.479,123.393-6.544,124.575a.327.327,0,0,1-.327.31" transform="translate(4451.833 -11038.962)" fill="#10141c"/>
      <path id="Path_901673" data-name="Path 901673" d="M148.036,156.881a.327.327,0,0,1-.278-.5l4.65-7.5a.327.327,0,1,1,.556.344l-4.65,7.5a.326.326,0,0,1-.278.155" transform="translate(4441.393 -11011.037)" fill="#222a40"/>
      <path id="Path_901674" data-name="Path 901674" d="M204.455,150.127h0a.328.328,0,0,1-.323-.332c.141-9.839-2.8-23.457-2.83-23.594a.327.327,0,1,1,.64-.139c.03.137,2.987,13.827,2.845,23.742a.327.327,0,0,1-.327.323" transform="translate(4422.897 -11003.126)" fill="#222a40"/>
      <path id="Path_901675" data-name="Path 901675" d="M216.789,139.214a.327.327,0,0,1-.268-.515l6-8.565a.327.327,0,1,1,.536.376l-6,8.565a.326.326,0,0,1-.268.139" transform="translate(4417.66 -11004.572)" fill="#222a40"/>
      <path id="Path_901676" data-name="Path 901676" d="M259.71,92.734a.324.324,0,0,1-.122-.024.328.328,0,0,1-.181-.426,9.24,9.24,0,0,0-.466-7.056.328.328,0,0,1,.16-.449c1.393-.612,5-2.63,4.938-4.6a.327.327,0,0,1,.318-.337.338.338,0,0,1,.337.318c.073,2.452-3.862,4.521-5.02,5.075a9.743,9.743,0,0,1,.341,7.294.329.329,0,0,1-.3.2" transform="translate(4403.009 -10987.261)" fill="#222a40"/>
      <path id="Path_901677" data-name="Path 901677" d="M144.812,45.743a.328.328,0,0,1-.271-.143,16.2,16.2,0,0,1-2.77-8.171,5.518,5.518,0,0,1,1.022-4.07c1.046-1.211,2.73-1.519,4.214-1.792a65.779,65.779,0,0,0,14.858-4.592c1.176-.523,2.787-1.24,4.207-.566a3.845,3.845,0,0,1,1.814,2.279,7.322,7.322,0,0,1-.412,5.707.327.327,0,0,1-.58-.3,6.657,6.657,0,0,0,.374-5.188,3.222,3.222,0,0,0-1.476-1.9c-1.061-.5-2.338-.015-3.662.574a66.431,66.431,0,0,1-14.978,4.631c-1.475.27-2.97.544-3.865,1.581a4.92,4.92,0,0,0-.864,3.6,15.56,15.56,0,0,0,2.658,7.841.327.327,0,0,1-.27.511" transform="translate(4443.449 -10968.722)" fill="#222a40"/>
      <path id="Path_901678" data-name="Path 901678" d="M270.835,186.149a25.218,25.218,0,0,1-9.842,13.23l-2.19-4.505a21.3,21.3,0,0,0-13.857,3.535l.274,5.383a38.429,38.429,0,0,1-8.827-1.084c-.855-.194-1.733-.433-2.6-.7-.49-.16-.992-.308-1.494-.479l-6.113-2.076-2.669-.912q.514-.222.958-.445a2.384,2.384,0,0,0,.525-.308,4.5,4.5,0,0,0,1.539-5.714l-1.505-3.114-2.007-4.14a21.338,21.338,0,0,0-13.857,3.558l.25,4.87a35.816,35.816,0,0,1-7.869-5.395,26.4,26.4,0,0,1-8.1-12.864,24.849,24.849,0,0,1-.012-12.317c.217-.855.468-1.711.765-2.589a31.652,31.652,0,0,1,11.678-15.568,31.555,31.555,0,0,1,4.266-2.531,30.859,30.859,0,0,1,4.322-1.745,31.31,31.31,0,0,1,19.752.148l16.9,5.749a31.334,31.334,0,0,1,16.023,12.317,30.937,30.937,0,0,1,2.463,4.425,31.385,31.385,0,0,1,1.221,23.265" transform="translate(4425.872 -11007.584)" fill="#f6cbc2"/>
      <path id="Path_901679" data-name="Path 901679" d="M289.868,231.67a4.511,4.511,0,0,1-2.07,6.018,27.283,27.283,0,0,1-10.187,2.753,4.5,4.5,0,0,1-4.7-4.295l-.142-2.807-.267-5.379a21.32,21.32,0,0,1,13.853-3.543l2.188,4.514Z" transform="translate(4398.314 -11037.134)" fill="#fbeae6"/>
      <path id="Path_901680" data-name="Path 901680" d="M311.346,166.3a8.126,8.126,0,0,1-2.467,3.751,31.024,31.024,0,0,0-2.463-4.415,6.375,6.375,0,0,0,5.389-6.143,16.835,16.835,0,0,1-.459,6.807" transform="translate(4386.608 -11014.755)" fill="#fdf4f2"/>
      <path id="Path_901681" data-name="Path 901681" d="M274.976,150.688l-.434,1.278-4.641-1.574-1.574-.547s0,.012-.011,0l-10.482-3.558-1.585-.547-6.843-2.327.433-1.266,6.25,2.121,1.426.49,12,4.072,1.414.479Z" transform="translate(4406.288 -11008.767)" fill="#222a40"/>
      <path id="Path_901682" data-name="Path 901682" d="M251.465,234.033c.864.257,1.735.494,2.6.689-1.726,1.57-4.957,2-6.69.509a24.807,24.807,0,0,1-3.516-3.761l6.111,2.078c.5.169,1,.327,1.5.485" transform="translate(4408.204 -11039.601)" fill="#fbeae6"/>
      <path id="Path_901683" data-name="Path 901683" d="M262.066,150.658s-.987,6.446-2.782,8.184c-1.788,1.754-6.986-.038-6.986-.038l-2.939-5.456s1.878-5.914,3.54-5.807,9.167,3.116,9.167,3.116" transform="translate(4406.304 -11010.629)" fill="#fbeae6"/>
      <path id="Path_901684" data-name="Path 901684" d="M235.237,216.336a4.508,4.508,0,0,1-1.534,5.718,3.769,3.769,0,0,1-.525.3c-.3.149-.618.3-.958.445a26.669,26.669,0,0,1-9.239,2.3,4.485,4.485,0,0,1-4.688-4.28l-.164-3.309-.01,0-.246-4.878a21.309,21.309,0,0,1,13.856-3.553l2,4.138Z" transform="translate(4417.173 -11031.84)" fill="#fbeae6"/>
      <path id="Path_901685" data-name="Path 901685" d="M240.564,160.861c1.393.473,2.017,2.324,1.4,4.127s-2.232,2.879-3.625,2.405-2.02-2.313-1.407-4.116,2.236-2.89,3.628-2.416" transform="translate(4410.673 -11015.189)" fill="#222a40"/>
      <path id="Path_901686" data-name="Path 901686" d="M219.772,177.561c-.056.234-.122.464-.192.705-1.876,5.518-7.7,5.115-14.289,2.876-6.392-2.173-11.145-5.27-9.736-10.477.044-.166.1-.339.162-.511,1.435-4.222,5.013-8.366,9.582-9.053a4.727,4.727,0,0,1,.592-.076,9.275,9.275,0,0,1,1.057-.026,9.4,9.4,0,0,1,2.752.514c6.284,2.137,11.277,10.447,10.083,15.979a.149.149,0,0,1-.011.069M211.08,176.2c1.037.352,2.378-.83,2.991-2.633s.267-3.547-.77-3.9-2.378.83-2.987,2.623-.27,3.558.766,3.911m-7.45-6.147c.613-1.8.281-3.554-.756-3.907s-2.378.83-2.991,2.633-.267,3.547.77,3.9,2.364-.822,2.977-2.626" transform="translate(4424.962 -11015.273)" fill="#fbeae6"/>
      <path id="Path_901687" data-name="Path 901687" d="M221.823,178.1c-.613,1.8-1.955,2.985-2.991,2.633s-1.38-2.107-.766-3.911,1.951-2.974,2.987-2.622,1.38,2.107.77,3.9" transform="translate(4417.211 -11019.811)" fill="#222a40"/>
      <path id="Path_901688" data-name="Path 901688" d="M197.457,206.984l-3.447,4.044a4.508,4.508,0,0,1-6.34.543,27.293,27.293,0,0,1-6.395-8.4,4.488,4.488,0,0,1,2.023-6.022l6.055-3.036a26.47,26.47,0,0,0,8.1,12.873" transform="translate(4429.97 -11026.705)" fill="#fbeae6"/>
      <path id="Path_901689" data-name="Path 901689" d="M219.554,132.579c1.221.8.31,3.731.06,4.465a31.933,31.933,0,0,0-8.588,4.284l-.172-.24c-.054-.018-2.9-1-3.25-3.442-.35-2.48,2.782-8.184,2.782-8.184s7.78,2.2,9.167,3.116" transform="translate(4420.727 -11004.389)" fill="#fbeae6"/>
      <path id="Path_901690" data-name="Path 901690" d="M213.33,155.239a4.274,4.274,0,0,1-.6,1.158c-1.393.731-2.438,1.183-2.438,1.183a4.614,4.614,0,0,0-.592.075c-1.393-.473-2.016-2.323-1.4-4.127a4.1,4.1,0,0,1,1.277-1.879,2.477,2.477,0,0,1,2.347-.527c1.393.473,2.02,2.313,1.407,4.116" transform="translate(4420.559 -11011.827)" fill="#222a40"/>
      <path id="Path_901691" data-name="Path 901691" d="M205.126,168.825c1.037.352,1.369,2.1.756,3.907s-1.94,2.979-2.977,2.626-1.383-2.1-.77-3.9,1.955-2.985,2.991-2.633" transform="translate(4422.71 -11017.955)" fill="#222a40"/>
      <path id="Path_901692" data-name="Path 901692" d="M225.19,175.625a.316.316,0,0,1-.069-.007.327.327,0,0,1-.251-.389c1.2-5.544-3.876-13.563-9.868-15.6a9.108,9.108,0,0,0-2.657-.5,8.837,8.837,0,0,0-1.022.026.327.327,0,0,1-.145-.631c.057-.022,5.734-2.269,6.9-3.765a.328.328,0,0,1,.517.4c-.877,1.13-3.845,2.547-5.679,3.347a9.957,9.957,0,0,1,2.3.5c6.261,2.128,11.554,10.537,10.3,16.358a.328.328,0,0,1-.32.259" transform="translate(4419.555 -11013.078)" fill="#222a40"/>
      <path id="Path_901693" data-name="Path 901693" d="M303.571,205.558a.327.327,0,0,1-.249-.54,22.872,22.872,0,0,0,2.743-25.714.327.327,0,1,1,.576-.31,23.527,23.527,0,0,1-2.822,26.45.328.328,0,0,1-.249.115" transform="translate(4387.704 -11021.427)" fill="#222a40"/>
      <path id="Path_901694" data-name="Path 901694" d="M252.574,156.118a.28.28,0,0,1-.046,0,.327.327,0,0,1-.278-.37,4.083,4.083,0,0,1,3.5-3.192,7.624,7.624,0,0,1,4.674,1.037.327.327,0,1,1-.3.58,7,7,0,0,0-4.273-.97,3.419,3.419,0,0,0-2.953,2.636.327.327,0,0,1-.323.282" transform="translate(4405.308 -11012.339)" fill="#222a40"/>
      <path id="Path_901695" data-name="Path 901695" d="M219.632,138.416a.328.328,0,0,1-.327-.326,4.257,4.257,0,0,0-4.251-4.242.327.327,0,0,1-.327-.328.337.337,0,0,1,.328-.327,4.912,4.912,0,0,1,4.9,4.894.327.327,0,0,1-.326.329Z" transform="translate(4418.258 -11005.677)" fill="#222a40"/>
      <path id="Path_901696" data-name="Path 901696" d="M180.56,203.143c-.126.593-.958.673-.958.673-.525.536-3.273.7-5.1.5a6.137,6.137,0,0,1-1.118-.183c-1.505-.433-7.619-2.691-9.831-4.2a23.594,23.594,0,0,1-4.391-4.3s-20.289-1.745-31.489-3.057a49.559,49.559,0,0,1-7.641-1.494c-7.162-1.961-11.929-5.155-12.021-7.71-.1-3.376,1.494-16.935,1.494-16.935,3.011,2.349,8.645,5.1,18.271,4.733v.034l-.422,2.133,32.31,9.945c2.327-1.939,8.725-2.1,11.1-2.213.593-.034,1.46-.159,2.429-.319,2.919-.513,6.763-1.38,6.923-1.107a4.021,4.021,0,0,1-.707,3.2,63.734,63.734,0,0,1-5.9,3.5c-.832.468-1.4.776-1.4.776l1.665,4.094,3.33,8.154s3.569,3.171,3.455,3.764" transform="translate(4455.096 -11017.154)" fill="#e48c59"/>
      <path id="Path_901697" data-name="Path 901697" d="M130.555,162.627a43.854,43.854,0,0,1-11.986-1.509.327.327,0,1,1,.187-.627c6.3,1.879,13.7,1.475,15.081,1.378l5.646-20.491a.327.327,0,0,1,.631.174l-5.707,20.714a.327.327,0,0,1-.287.239c-.034,0-1.438.122-3.565.122" transform="translate(4451.532 -11008.419)" fill="#222a40"/>
      <path id="Path_901698" data-name="Path 901698" d="M122.859,181.364a.328.328,0,0,1-.232-.559,16.97,16.97,0,0,1,9.711-4.323.336.336,0,0,1,.128.012l10.207,3.142a.328.328,0,0,1,.217.409.325.325,0,0,1-.409.217l-10.144-3.122a16.617,16.617,0,0,0-9.246,4.128.325.325,0,0,1-.231.1" transform="translate(4450.083 -11020.618)" fill="#222a40"/>
      <path id="Path_901699" data-name="Path 901699" d="M212.551,219.977a.329.329,0,0,1-.066-.007,14.791,14.791,0,0,1-5.086-2.059c-1.719-1.35-3.806-4.956-3.894-5.109a.327.327,0,1,1,.567-.327c.021.037,2.112,3.649,3.731,4.921a14.429,14.429,0,0,0,4.813,1.932.327.327,0,0,1-.065.648" transform="translate(4422.147 -11032.987)" fill="#222a40"/>
      <path id="Path_901700" data-name="Path 901700" d="M205.366,221.648a.333.333,0,0,1-.136-.029,35.69,35.69,0,0,1-7.707-5.35.327.327,0,1,1,.443-.483,35.724,35.724,0,0,0,7.536,5.237.327.327,0,0,1-.136.625" transform="translate(4424.234 -11034.157)" fill="#222a40"/>
      <path id="Path_901701" data-name="Path 901701" d="M335.067,183.294v.011S334,193.09,331.6,198.667c-.843,1.962-1.847,3.4-3.034,3.718-4.539,1.221-35.286,1.939-35.286,1.939s-2.829,1.961-5.976,4.072c-3.638,2.429-7.721,5.064-8.325,5.064a14.72,14.72,0,0,1-3.011-.525,18.816,18.816,0,0,1-2.863-.479c-2.007-.445-1.369-1.9-1.369-1.9l6.706-2.908,5.737-4.311a20.164,20.164,0,0,1-4.095.878,2.435,2.435,0,0,1-2.531-1.323l7.39-4.06a4.579,4.579,0,0,1,3.364-3.821,8.553,8.553,0,0,1,3.524-.251l25.489-4.015.479-8.884c6.535,2.691,14.016,1.961,17.267,1.437" transform="translate(4398.613 -11022.475)" fill="#e48c59"/>
      <path id="Path_901702" data-name="Path 901702" d="M351.887,174.3c-1.71,0-2.963-.092-3.078-.1a37.382,37.382,0,0,1-12-2.733.326.326,0,0,1-.187-.323l1.426-17.438a.331.331,0,0,1,.353-.3.327.327,0,0,1,.3.353l-1.407,17.205a37.762,37.762,0,0,0,11.567,2.582c.064,0,6.288.462,10.186-.684a.327.327,0,1,1,.184.628,28.137,28.137,0,0,1-7.341.81" transform="translate(4376.183 -11012.653)" fill="#222a40"/>
      <path id="Path_901703" data-name="Path 901703" d="M278.077,226.477a.327.327,0,0,1-.126-.629c.043-.018,4.36-1.83,6.168-2.914a20.843,20.843,0,0,0,3.423-2.7.327.327,0,0,1,.463.463,21.06,21.06,0,0,1-3.55,2.8,68.737,68.737,0,0,1-6.252,2.956.33.33,0,0,1-.126.026" transform="translate(4396.504 -11035.689)" fill="#222a40"/>
      <path id="Path_901704" data-name="Path 901704" d="M274.45,145.965a8.354,8.354,0,0,1-1.027,1.084l-1.574-.547s0,.011-.012,0l-10.481-3.559-1.585-.547c-.012-.034-.012-.079-.023-.114a9.227,9.227,0,0,1-.137-1.357,8.326,8.326,0,1,1,14.837,5.041" transform="translate(4402.765 -11005.423)" fill="#fd9826"/>
      <path id="Path_901705" data-name="Path 901705" d="M273.772,146.216a6.8,6.8,0,0,1-1.186,1.015s0,.012-.012,0l-10.481-3.558a6.5,6.5,0,0,1-.319-1.528,6.934,6.934,0,1,1,12,4.072" transform="translate(4402.028 -11006.154)" fill="#ffc94a"/>
      <path id="Path_901706" data-name="Path 901706" d="M265.527,110.22a7.764,7.764,0,1,1-9.564-5.392,7.765,7.765,0,0,1,9.564,5.392" transform="translate(4405.985 -10995.786)" fill="#fd9826"/>
      <path id="Path_901707" data-name="Path 901707" d="M264.963,111.252a6.468,6.468,0,1,1-7.969-4.493,6.475,6.475,0,0,1,7.969,4.493" transform="translate(4405.302 -10996.47)" fill="#ffc94a"/>
      <path id="Path_901708" data-name="Path 901708" d="M295.366,113.8a5.8,5.8,0,1,1-7.14-4.025,5.8,5.8,0,0,1,7.14,4.025" transform="translate(4394.351 -10997.521)" fill="#fd9826"/>
      <path id="Path_901709" data-name="Path 901709" d="M294.945,114.574A4.829,4.829,0,1,1,289,111.22a4.834,4.834,0,0,1,5.95,3.354" transform="translate(4393.841 -10998.03)" fill="#ffc94a"/>
      <path id="Path_901710" data-name="Path 901710" d="M381.055,235.161a2.162,2.162,0,1,1-2.162,2.162,2.162,2.162,0,0,1,2.162-2.162" transform="translate(4361.59 -11040.875)" fill="#008d8e"/>
      <path id="Path_901711" data-name="Path 901711" d="M407.489,235.161a2.162,2.162,0,1,1-2.162,2.162,2.162,2.162,0,0,1,2.162-2.162" transform="translate(4352.466 -11040.875)" fill="#008d8e"/>
      <path id="Path_901712" data-name="Path 901712" d="M381.055,208.727a2.162,2.162,0,1,1-2.162,2.162,2.162,2.162,0,0,1,2.162-2.162" transform="translate(4361.59 -11031.75)" fill="#98d1d1"/>
      <path id="Path_901713" data-name="Path 901713" d="M407.489,208.727a2.162,2.162,0,1,1-2.162,2.162,2.162,2.162,0,0,1,2.162-2.162" transform="translate(4352.466 -11031.75)" fill="#98d1d1"/>
      <path id="Path_901714" data-name="Path 901714" d="M381.055,182.293a2.162,2.162,0,1,1-2.162,2.162,2.162,2.162,0,0,1,2.162-2.162" transform="translate(4361.59 -11022.625)" fill="#cbe7e8"/>
      <path id="Path_901715" data-name="Path 901715" d="M407.489,182.293a2.162,2.162,0,1,1-2.162,2.162,2.162,2.162,0,0,1,2.162-2.162" transform="translate(4352.466 -11022.625)" fill="#cbe7e8"/>
      <path id="Path_901716" data-name="Path 901716" d="M434.673,235.161a2.162,2.162,0,1,1-2.162,2.162,2.161,2.161,0,0,1,2.162-2.162" transform="translate(4343.083 -11040.875)" fill="#008d8e"/>
      <path id="Path_901717" data-name="Path 901717" d="M461.107,235.161a2.162,2.162,0,1,1-2.162,2.162,2.162,2.162,0,0,1,2.162-2.162" transform="translate(4333.958 -11040.875)" fill="#008d8e"/>
      <path id="Path_901718" data-name="Path 901718" d="M434.673,208.727a2.162,2.162,0,1,1-2.162,2.162,2.161,2.161,0,0,1,2.162-2.162" transform="translate(4343.083 -11031.75)" fill="#98d1d1"/>
      <path id="Path_901719" data-name="Path 901719" d="M461.107,208.727a2.162,2.162,0,1,1-2.162,2.162,2.162,2.162,0,0,1,2.162-2.162" transform="translate(4333.958 -11031.75)" fill="#98d1d1"/>
      <path id="Path_901720" data-name="Path 901720" d="M434.673,182.293a2.162,2.162,0,1,1-2.162,2.162,2.161,2.161,0,0,1,2.162-2.162" transform="translate(4343.083 -11022.625)" fill="#cbe7e8"/>
      <path id="Path_901721" data-name="Path 901721" d="M461.107,182.293a2.162,2.162,0,1,1-2.162,2.162,2.162,2.162,0,0,1,2.162-2.162" transform="translate(4333.958 -11022.625)" fill="#cbe7e8"/>
    </g>
  </g>
</svg>
