<svg xmlns="http://www.w3.org/2000/svg" xmlns:xlink="http://www.w3.org/1999/xlink" width="113.15" height="113.15" viewBox="0 0 113.15 113.15">
  <defs>
    <filter id="Trazado_873828" x="0" y="0" width="113.15" height="113.15" filterUnits="userSpaceOnUse">
      <feOffset dy="3" input="SourceAlpha"/>
      <feGaussianBlur stdDeviation="3" result="blur"/>
      <feFlood flood-opacity="0.161"/>
      <feComposite operator="in" in2="blur"/>
    </filter>
    <filter id="Trazado_873828-2" x="0" y="0" width="113.15" height="113.15" filterUnits="userSpaceOnUse">
      <feOffset dy="3" input="SourceAlpha"/>
      <feGaussianBlur stdDeviation="3" result="blur-2"/>
      <feFlood flood-opacity="0.161" result="color"/>
      <feComposite operator="out" in="SourceGraphic" in2="blur-2"/>
      <feComposite operator="in" in="color"/>
      <feComposite operator="in" in2="SourceGraphic"/>
    </filter>
  </defs>
  <g id="Grupo_1113192" data-name="Grupo 1113192" transform="translate(-743.051 -1794)">
    <g data-type="innerShadowGroup">
      <g transform="matrix(1, 0, 0, 1, 743.05, 1794)" filter="url(#Trazado_873828)">
        <g id="Trazado_873828-3" data-name="Trazado 873828" transform="translate(9 6)" fill="#fd9826">
          <path d="M 47.57511901855469 93.15023040771484 C 41.42163467407227 93.15023040771484 35.45327758789062 91.94551849365234 29.8358325958252 89.56953430175781 C 24.40901947021484 87.27419281005859 19.53483390808105 83.98777770996094 15.34864711761475 79.80158996582031 C 11.16246223449707 75.61540222167969 7.876047611236572 70.74121856689453 5.580704689025879 65.31440734863281 C 3.204719066619873 59.69696044921875 2.000004768371582 53.72860336303711 2.000004768371582 47.57511901855469 C 2.000004768371582 41.42163467407227 3.204719066619873 35.45327758789062 5.580704689025879 29.8358325958252 C 7.876047611236572 24.40901947021484 11.16246223449707 19.53483390808105 15.34864711761475 15.34864711761475 C 19.53483390808105 11.16246223449707 24.40901947021484 7.876047611236572 29.8358325958252 5.580704689025879 C 35.45327758789062 3.204719066619873 41.42163467407227 2.000004768371582 47.57511901855469 2.000004768371582 C 53.72860336303711 2.000004768371582 59.69696044921875 3.204719066619873 65.31440734863281 5.580704689025879 C 70.74121856689453 7.876047611236572 75.61540222167969 11.16246223449707 79.80158996582031 15.34864711761475 C 83.98777770996094 19.53483390808105 87.27419281005859 24.40901947021484 89.56953430175781 29.8358325958252 C 91.94551849365234 35.45327758789062 93.15023040771484 41.42163467407227 93.15023040771484 47.57511901855469 C 93.15023040771484 53.72860336303711 91.94551849365234 59.69696044921875 89.56953430175781 65.31440734863281 C 87.27419281005859 70.74121856689453 83.98777770996094 75.61540222167969 79.80158996582031 79.80158996582031 C 75.61540222167969 83.98777770996094 70.74121856689453 87.27419281005859 65.31440734863281 89.56953430175781 C 59.69696044921875 91.94551849365234 53.72860336303711 93.15023040771484 47.57511901855469 93.15023040771484 Z" stroke="none"/>
          <path d="M 47.57511901855469 3.999992370605469 C 41.69075012207031 3.999992370605469 35.98451995849609 5.151565551757812 30.61493682861328 7.422706604003906 C 25.42652130126953 9.617210388183594 20.76601409912109 12.75970458984375 16.76285552978516 16.76285552978516 C 12.75970458984375 20.76601409912109 9.617210388183594 25.42652130126953 7.422706604003906 30.61493682861328 C 5.151565551757812 35.98451995849609 3.999992370605469 41.69075012207031 3.999992370605469 47.57511901855469 C 3.999992370605469 53.45948791503906 5.151565551757812 59.16571807861328 7.422706604003906 64.53530120849609 C 9.617210388183594 69.72371673583984 12.75970458984375 74.38422393798828 16.76285552978516 78.38738250732422 C 20.76601409912109 82.39053344726562 25.42652130126953 85.53302764892578 30.61493682861328 87.72753143310547 C 35.98451995849609 89.99867248535156 41.69075012207031 91.15024566650391 47.57511901855469 91.15024566650391 C 53.45948791503906 91.15024566650391 59.16571807861328 89.99867248535156 64.53530120849609 87.72753143310547 C 69.72371673583984 85.53302764892578 74.38422393798828 82.39053344726562 78.38738250732422 78.38738250732422 C 82.39053344726562 74.38422393798828 85.53302764892578 69.72371673583984 87.72753143310547 64.53530120849609 C 89.99867248535156 59.16571807861328 91.15024566650391 53.45948791503906 91.15024566650391 47.57511901855469 C 91.15024566650391 41.69075012207031 89.99867248535156 35.98451995849609 87.72753143310547 30.61493682861328 C 85.53302764892578 25.42652130126953 82.39053344726562 20.76601409912109 78.38738250732422 16.76285552978516 C 74.38422393798828 12.75970458984375 69.72371673583984 9.617210388183594 64.53530120849609 7.422706604003906 C 59.16571807861328 5.151565551757812 53.45948791503906 3.999992370605469 47.57511901855469 3.999992370605469 M 47.57511901855469 -7.62939453125e-06 C 73.85013580322266 -7.62939453125e-06 95.15024566650391 21.30010223388672 95.15024566650391 47.57511901855469 C 95.15024566650391 73.85013580322266 73.85013580322266 95.15024566650391 47.57511901855469 95.15024566650391 C 21.30010223388672 95.15024566650391 -7.62939453125e-06 73.85013580322266 -7.62939453125e-06 47.57511901855469 C -7.62939453125e-06 21.30010223388672 21.30010223388672 -7.62939453125e-06 47.57511901855469 -7.62939453125e-06 Z" stroke="none" fill="#fff"/>
        </g>
      </g>
      <g id="Trazado_873828-4" data-name="Trazado 873828" transform="translate(752.051 1800)" fill="#fd9826">
        <path d="M 47.57511901855469 93.15023040771484 C 41.42163467407227 93.15023040771484 35.45327758789062 91.94551849365234 29.8358325958252 89.56953430175781 C 24.40901947021484 87.27419281005859 19.53483390808105 83.98777770996094 15.34864711761475 79.80158996582031 C 11.16246223449707 75.61540222167969 7.876047611236572 70.74121856689453 5.580704689025879 65.31440734863281 C 3.204719066619873 59.69696044921875 2.000004768371582 53.72860336303711 2.000004768371582 47.57511901855469 C 2.000004768371582 41.42163467407227 3.204719066619873 35.45327758789062 5.580704689025879 29.8358325958252 C 7.876047611236572 24.40901947021484 11.16246223449707 19.53483390808105 15.34864711761475 15.34864711761475 C 19.53483390808105 11.16246223449707 24.40901947021484 7.876047611236572 29.8358325958252 5.580704689025879 C 35.45327758789062 3.204719066619873 41.42163467407227 2.000004768371582 47.57511901855469 2.000004768371582 C 53.72860336303711 2.000004768371582 59.69696044921875 3.204719066619873 65.31440734863281 5.580704689025879 C 70.74121856689453 7.876047611236572 75.61540222167969 11.16246223449707 79.80158996582031 15.34864711761475 C 83.98777770996094 19.53483390808105 87.27419281005859 24.40901947021484 89.56953430175781 29.8358325958252 C 91.94551849365234 35.45327758789062 93.15023040771484 41.42163467407227 93.15023040771484 47.57511901855469 C 93.15023040771484 53.72860336303711 91.94551849365234 59.69696044921875 89.56953430175781 65.31440734863281 C 87.27419281005859 70.74121856689453 83.98777770996094 75.61540222167969 79.80158996582031 79.80158996582031 C 75.61540222167969 83.98777770996094 70.74121856689453 87.27419281005859 65.31440734863281 89.56953430175781 C 59.69696044921875 91.94551849365234 53.72860336303711 93.15023040771484 47.57511901855469 93.15023040771484 Z" stroke="none"/>
        <path d="M 47.57511901855469 3.999992370605469 C 41.69075012207031 3.999992370605469 35.98451995849609 5.151565551757812 30.61493682861328 7.422706604003906 C 25.42652130126953 9.617210388183594 20.76601409912109 12.75970458984375 16.76285552978516 16.76285552978516 C 12.75970458984375 20.76601409912109 9.617210388183594 25.42652130126953 7.422706604003906 30.61493682861328 C 5.151565551757812 35.98451995849609 3.999992370605469 41.69075012207031 3.999992370605469 47.57511901855469 C 3.999992370605469 53.45948791503906 5.151565551757812 59.16571807861328 7.422706604003906 64.53530120849609 C 9.617210388183594 69.72371673583984 12.75970458984375 74.38422393798828 16.76285552978516 78.38738250732422 C 20.76601409912109 82.39053344726562 25.42652130126953 85.53302764892578 30.61493682861328 87.72753143310547 C 35.98451995849609 89.99867248535156 41.69075012207031 91.15024566650391 47.57511901855469 91.15024566650391 C 53.45948791503906 91.15024566650391 59.16571807861328 89.99867248535156 64.53530120849609 87.72753143310547 C 69.72371673583984 85.53302764892578 74.38422393798828 82.39053344726562 78.38738250732422 78.38738250732422 C 82.39053344726562 74.38422393798828 85.53302764892578 69.72371673583984 87.72753143310547 64.53530120849609 C 89.99867248535156 59.16571807861328 91.15024566650391 53.45948791503906 91.15024566650391 47.57511901855469 C 91.15024566650391 41.69075012207031 89.99867248535156 35.98451995849609 87.72753143310547 30.61493682861328 C 85.53302764892578 25.42652130126953 82.39053344726562 20.76601409912109 78.38738250732422 16.76285552978516 C 74.38422393798828 12.75970458984375 69.72371673583984 9.617210388183594 64.53530120849609 7.422706604003906 C 59.16571807861328 5.151565551757812 53.45948791503906 3.999992370605469 47.57511901855469 3.999992370605469 M 47.57511901855469 -7.62939453125e-06 C 73.85013580322266 -7.62939453125e-06 95.15024566650391 21.30010223388672 95.15024566650391 47.57511901855469 C 95.15024566650391 73.85013580322266 73.85013580322266 95.15024566650391 47.57511901855469 95.15024566650391 C 21.30010223388672 95.15024566650391 -7.62939453125e-06 73.85013580322266 -7.62939453125e-06 47.57511901855469 C -7.62939453125e-06 21.30010223388672 21.30010223388672 -7.62939453125e-06 47.57511901855469 -7.62939453125e-06 Z" stroke="none"/>
      </g>
      <g transform="matrix(1, 0, 0, 1, 743.05, 1794)" filter="url(#Trazado_873828-2)">
        <g id="Trazado_873828-5" data-name="Trazado 873828" transform="translate(9 6)" fill="#fff">
          <path d="M 47.57511901855469 93.15023040771484 C 41.42163467407227 93.15023040771484 35.45327758789062 91.94551849365234 29.8358325958252 89.56953430175781 C 24.40901947021484 87.27419281005859 19.53483390808105 83.98777770996094 15.34864711761475 79.80158996582031 C 11.16246223449707 75.61540222167969 7.876047611236572 70.74121856689453 5.580704689025879 65.31440734863281 C 3.204719066619873 59.69696044921875 2.000004768371582 53.72860336303711 2.000004768371582 47.57511901855469 C 2.000004768371582 41.42163467407227 3.204719066619873 35.45327758789062 5.580704689025879 29.8358325958252 C 7.876047611236572 24.40901947021484 11.16246223449707 19.53483390808105 15.34864711761475 15.34864711761475 C 19.53483390808105 11.16246223449707 24.40901947021484 7.876047611236572 29.8358325958252 5.580704689025879 C 35.45327758789062 3.204719066619873 41.42163467407227 2.000004768371582 47.57511901855469 2.000004768371582 C 53.72860336303711 2.000004768371582 59.69696044921875 3.204719066619873 65.31440734863281 5.580704689025879 C 70.74121856689453 7.876047611236572 75.61540222167969 11.16246223449707 79.80158996582031 15.34864711761475 C 83.98777770996094 19.53483390808105 87.27419281005859 24.40901947021484 89.56953430175781 29.8358325958252 C 91.94551849365234 35.45327758789062 93.15023040771484 41.42163467407227 93.15023040771484 47.57511901855469 C 93.15023040771484 53.72860336303711 91.94551849365234 59.69696044921875 89.56953430175781 65.31440734863281 C 87.27419281005859 70.74121856689453 83.98777770996094 75.61540222167969 79.80158996582031 79.80158996582031 C 75.61540222167969 83.98777770996094 70.74121856689453 87.27419281005859 65.31440734863281 89.56953430175781 C 59.69696044921875 91.94551849365234 53.72860336303711 93.15023040771484 47.57511901855469 93.15023040771484 Z" stroke="none"/>
          <path d="M 47.57511901855469 3.999992370605469 C 41.69075012207031 3.999992370605469 35.98451995849609 5.151565551757812 30.61493682861328 7.422706604003906 C 25.42652130126953 9.617210388183594 20.76601409912109 12.75970458984375 16.76285552978516 16.76285552978516 C 12.75970458984375 20.76601409912109 9.617210388183594 25.42652130126953 7.422706604003906 30.61493682861328 C 5.151565551757812 35.98451995849609 3.999992370605469 41.69075012207031 3.999992370605469 47.57511901855469 C 3.999992370605469 53.45948791503906 5.151565551757812 59.16571807861328 7.422706604003906 64.53530120849609 C 9.617210388183594 69.72371673583984 12.75970458984375 74.38422393798828 16.76285552978516 78.38738250732422 C 20.76601409912109 82.39053344726562 25.42652130126953 85.53302764892578 30.61493682861328 87.72753143310547 C 35.98451995849609 89.99867248535156 41.69075012207031 91.15024566650391 47.57511901855469 91.15024566650391 C 53.45948791503906 91.15024566650391 59.16571807861328 89.99867248535156 64.53530120849609 87.72753143310547 C 69.72371673583984 85.53302764892578 74.38422393798828 82.39053344726562 78.38738250732422 78.38738250732422 C 82.39053344726562 74.38422393798828 85.53302764892578 69.72371673583984 87.72753143310547 64.53530120849609 C 89.99867248535156 59.16571807861328 91.15024566650391 53.45948791503906 91.15024566650391 47.57511901855469 C 91.15024566650391 41.69075012207031 89.99867248535156 35.98451995849609 87.72753143310547 30.61493682861328 C 85.53302764892578 25.42652130126953 82.39053344726562 20.76601409912109 78.38738250732422 16.76285552978516 C 74.38422393798828 12.75970458984375 69.72371673583984 9.617210388183594 64.53530120849609 7.422706604003906 C 59.16571807861328 5.151565551757812 53.45948791503906 3.999992370605469 47.57511901855469 3.999992370605469 M 47.57511901855469 -7.62939453125e-06 C 73.85013580322266 -7.62939453125e-06 95.15024566650391 21.30010223388672 95.15024566650391 47.57511901855469 C 95.15024566650391 73.85013580322266 73.85013580322266 95.15024566650391 47.57511901855469 95.15024566650391 C 21.30010223388672 95.15024566650391 -7.62939453125e-06 73.85013580322266 -7.62939453125e-06 47.57511901855469 C -7.62939453125e-06 21.30010223388672 21.30010223388672 -7.62939453125e-06 47.57511901855469 -7.62939453125e-06 Z" stroke="none"/>
        </g>
      </g>
      <g id="Trazado_873828-6" data-name="Trazado 873828" transform="translate(752.051 1800)" fill="none">
        <path d="M 47.57511901855469 93.15023040771484 C 41.42163467407227 93.15023040771484 35.45327758789062 91.94551849365234 29.8358325958252 89.56953430175781 C 24.40901947021484 87.27419281005859 19.53483390808105 83.98777770996094 15.34864711761475 79.80158996582031 C 11.16246223449707 75.61540222167969 7.876047611236572 70.74121856689453 5.580704689025879 65.31440734863281 C 3.204719066619873 59.69696044921875 2.000004768371582 53.72860336303711 2.000004768371582 47.57511901855469 C 2.000004768371582 41.42163467407227 3.204719066619873 35.45327758789062 5.580704689025879 29.8358325958252 C 7.876047611236572 24.40901947021484 11.16246223449707 19.53483390808105 15.34864711761475 15.34864711761475 C 19.53483390808105 11.16246223449707 24.40901947021484 7.876047611236572 29.8358325958252 5.580704689025879 C 35.45327758789062 3.204719066619873 41.42163467407227 2.000004768371582 47.57511901855469 2.000004768371582 C 53.72860336303711 2.000004768371582 59.69696044921875 3.204719066619873 65.31440734863281 5.580704689025879 C 70.74121856689453 7.876047611236572 75.61540222167969 11.16246223449707 79.80158996582031 15.34864711761475 C 83.98777770996094 19.53483390808105 87.27419281005859 24.40901947021484 89.56953430175781 29.8358325958252 C 91.94551849365234 35.45327758789062 93.15023040771484 41.42163467407227 93.15023040771484 47.57511901855469 C 93.15023040771484 53.72860336303711 91.94551849365234 59.69696044921875 89.56953430175781 65.31440734863281 C 87.27419281005859 70.74121856689453 83.98777770996094 75.61540222167969 79.80158996582031 79.80158996582031 C 75.61540222167969 83.98777770996094 70.74121856689453 87.27419281005859 65.31440734863281 89.56953430175781 C 59.69696044921875 91.94551849365234 53.72860336303711 93.15023040771484 47.57511901855469 93.15023040771484 Z" stroke="none"/>
        <path d="M 47.57511901855469 3.999992370605469 C 41.69075012207031 3.999992370605469 35.98451995849609 5.151565551757812 30.61493682861328 7.422706604003906 C 25.42652130126953 9.617210388183594 20.76601409912109 12.75970458984375 16.76285552978516 16.76285552978516 C 12.75970458984375 20.76601409912109 9.617210388183594 25.42652130126953 7.422706604003906 30.61493682861328 C 5.151565551757812 35.98451995849609 3.999992370605469 41.69075012207031 3.999992370605469 47.57511901855469 C 3.999992370605469 53.45948791503906 5.151565551757812 59.16571807861328 7.422706604003906 64.53530120849609 C 9.617210388183594 69.72371673583984 12.75970458984375 74.38422393798828 16.76285552978516 78.38738250732422 C 20.76601409912109 82.39053344726562 25.42652130126953 85.53302764892578 30.61493682861328 87.72753143310547 C 35.98451995849609 89.99867248535156 41.69075012207031 91.15024566650391 47.57511901855469 91.15024566650391 C 53.45948791503906 91.15024566650391 59.16571807861328 89.99867248535156 64.53530120849609 87.72753143310547 C 69.72371673583984 85.53302764892578 74.38422393798828 82.39053344726562 78.38738250732422 78.38738250732422 C 82.39053344726562 74.38422393798828 85.53302764892578 69.72371673583984 87.72753143310547 64.53530120849609 C 89.99867248535156 59.16571807861328 91.15024566650391 53.45948791503906 91.15024566650391 47.57511901855469 C 91.15024566650391 41.69075012207031 89.99867248535156 35.98451995849609 87.72753143310547 30.61493682861328 C 85.53302764892578 25.42652130126953 82.39053344726562 20.76601409912109 78.38738250732422 16.76285552978516 C 74.38422393798828 12.75970458984375 69.72371673583984 9.617210388183594 64.53530120849609 7.422706604003906 C 59.16571807861328 5.151565551757812 53.45948791503906 3.999992370605469 47.57511901855469 3.999992370605469 M 47.57511901855469 -7.62939453125e-06 C 73.85013580322266 -7.62939453125e-06 95.15024566650391 21.30010223388672 95.15024566650391 47.57511901855469 C 95.15024566650391 73.85013580322266 73.85013580322266 95.15024566650391 47.57511901855469 95.15024566650391 C 21.30010223388672 95.15024566650391 -7.62939453125e-06 73.85013580322266 -7.62939453125e-06 47.57511901855469 C -7.62939453125e-06 21.30010223388672 21.30010223388672 -7.62939453125e-06 47.57511901855469 -7.62939453125e-06 Z" stroke="none" fill="#fff"/>
      </g>
    </g>
    <g id="Grupo_1113191" data-name="Grupo 1113191" transform="translate(770.051 1818)">
      <g id="Grupo_1113189" data-name="Grupo 1113189" transform="translate(1.926 1.926)">
        <g id="Grupo_1113175" data-name="Grupo 1113175" transform="translate(9.257)">
          <path id="Trazado_905876" data-name="Trazado 905876" d="M52.729,3.851V17.736l-.037.037-6.443,6.443H41.621a4.637,4.637,0,0,0-3.7,1.851H24.959V48.283H45.324v3.7H21.257V24.216A9.26,9.26,0,0,0,12,14.959V12.025a1.822,1.822,0,0,1,.167-.768h7.239a1.857,1.857,0,0,0,1.851-1.851V2.167A1.822,1.822,0,0,1,22.025,2H50.878a1.857,1.857,0,0,1,1.851,1.851Z" transform="translate(-12 -2)" fill="#e6e9ed"/>
        </g>
        <g id="Grupo_1113176" data-name="Grupo 1113176" transform="translate(22.216 24.067)">
          <path id="Trazado_905877" data-name="Trazado 905877" d="M43.819,43.551A5.044,5.044,0,0,1,42.7,42.32a5.217,5.217,0,0,1-.741-1.574h-.009l-3.916,3.916-.926.37L33.683,46.4a1.557,1.557,0,0,1-2.1-1.74,1.583,1.583,0,0,1,.083-.278l1.74-4.351.926-.926,5.554-5.554A1.857,1.857,0,0,1,38.034,31.7v-.926A4.574,4.574,0,0,1,38.959,28H26V50.216H46.364V45.587Z" transform="translate(-26 -28)" fill="#ffeaa7"/>
        </g>
        <g id="Grupo_1113177" data-name="Grupo 1113177" transform="translate(22.216 3.703)">
          <path id="Trazado_905878" data-name="Trazado 905878" d="M26,6H50.067V9.7H26Z" transform="translate(-26 -6)" fill="#ff826e"/>
        </g>
        <g id="Grupo_1113178" data-name="Grupo 1113178" transform="translate(9.423 0.167)">
          <path id="Trazado_905879" data-name="Trazado 905879" d="M21.27,2.18V9.419a1.857,1.857,0,0,1-1.851,1.851H12.18a1.867,1.867,0,0,1,.38-.546L20.724,2.56A1.867,1.867,0,0,1,21.27,2.18Z" transform="translate(-12.18 -2.18)" fill="#b4dd7f"/>
        </g>
        <g id="Grupo_1113179" data-name="Grupo 1113179" transform="translate(29.621 27.77)">
          <path id="Trazado_905880" data-name="Trazado 905880" d="M42.331,32v7.516a5.256,5.256,0,0,0,.222,1.527h-.009l-3.916,3.916L34,40.331l.926-.926,5.554-5.554A1.865,1.865,0,0,0,42.331,32Z" transform="translate(-34 -32)" fill="#ff826e"/>
        </g>
        <g id="Grupo_1113180" data-name="Grupo 1113180" transform="translate(39.683 14.81)">
          <path id="Trazado_905881" data-name="Trazado 905881" d="M55.173,18.926a3.273,3.273,0,0,1,4.591,4.665L54.358,29l-7.516,7.516V31.885a2.77,2.77,0,0,0-.815-1.962,2.831,2.831,0,0,0-1.157-.694l3.823-3.823,6.443-6.443Z" transform="translate(-44.87 -18)" fill="#ff826e"/>
        </g>
        <g id="Grupo_1113181" data-name="Grupo 1113181" transform="translate(27.77 36.101)">
          <path id="Trazado_905882" data-name="Trazado 905882" d="M38.48,45.628l-.926.37-3.425,1.37a1.557,1.557,0,0,1-2.1-1.74,1.583,1.583,0,0,1,.083-.278L33.851,41Z" transform="translate(-32 -41)" fill="#aab2bd"/>
        </g>
        <g id="Grupo_1113182" data-name="Grupo 1113182" transform="translate(42.58 38.878)">
          <path id="Trazado_905883" data-name="Trazado 905883" d="M58.182,44l1.851,11.108H48V46.777Z" transform="translate(-48 -44)" fill="#b4dd7f"/>
        </g>
        <g id="Grupo_1113183" data-name="Grupo 1113183" transform="translate(34.249 22.216)">
          <path id="Trazado_905884" data-name="Trazado 905884" d="M42.156,32.859a1.81,1.81,0,0,1-1.305.546A1.857,1.857,0,0,1,39,31.554v-.926a4.574,4.574,0,0,1,.926-2.777A4.637,4.637,0,0,1,43.628,26h4.628l-3.823,3.823a2.871,2.871,0,0,0-.805-.12.928.928,0,0,0-.926.926v.926A1.81,1.81,0,0,1,42.156,32.859Z" transform="translate(-39 -26)" fill="#f0d0b4"/>
        </g>
        <g id="Grupo_1113184" data-name="Grupo 1113184" transform="translate(37.952 25.807)">
          <path id="Trazado_905885" data-name="Trazado 905885" d="M54.71,30.778a25.449,25.449,0,0,1,3.1,12.172L47.628,45.727l-2.546-2.036a5.044,5.044,0,0,1-1.12-1.231,5.577,5.577,0,0,1-.963-3.1V30.917a.928.928,0,0,1,.926-.926,2.871,2.871,0,0,1,.805.12,2.831,2.831,0,0,1,1.157.694,2.77,2.77,0,0,1,.815,1.962V37.4l7.516-7.516Z" transform="translate(-43 -29.88)" fill="#f0d0b4"/>
        </g>
        <g id="Grupo_1113185" data-name="Grupo 1113185" transform="translate(0 22.216)">
          <path id="Trazado_905886" data-name="Trazado 905886" d="M20.513,26V55.621a3.7,3.7,0,0,1-3.7,3.7H5.7a3.7,3.7,0,0,1-3.7-3.7V26a9.248,9.248,0,0,0,3.7,7.405v6.48a.928.928,0,0,0,.926.926h9.257a.928.928,0,0,0,.926-.926v-6.48A9.248,9.248,0,0,0,20.513,26Z" transform="translate(-2 -26)" fill="#969faa"/>
        </g>
        <g id="Grupo_1113186" data-name="Grupo 1113186" transform="translate(3.726 40.734)">
          <path id="Trazado_905887" data-name="Trazado 905887" d="M16.256,57.077H6.951a.926.926,0,0,1-.926-.926v-9.22a.926.926,0,0,1,.926-.926h9.3a.926.926,0,0,1,.926.926v9.22A.924.924,0,0,1,16.256,57.077Z" transform="translate(-6.025 -46.006)" fill="#ff826e"/>
        </g>
        <g id="Grupo_1113187" data-name="Grupo 1113187" transform="translate(3.703 29.621)">
          <path id="Trazado_905888" data-name="Trazado 905888" d="M17.108,34v6.48a.928.928,0,0,1-.926.926H6.926A.928.928,0,0,1,6,40.48V34a9.257,9.257,0,0,0,11.108,0Z" transform="translate(-6 -34)" fill="#69d6f4"/>
        </g>
        <g id="Grupo_1113188" data-name="Grupo 1113188" transform="translate(0 12.959)">
          <path id="Trazado_905889" data-name="Trazado 905889" d="M20.513,25.257A9.257,9.257,0,1,1,11.257,16,9.248,9.248,0,0,1,20.513,25.257Z" transform="translate(-2 -16)" fill="#fcd770"/>
        </g>
      </g>
      <g id="Grupo_1113190" data-name="Grupo 1113190" transform="translate(1 1)">
        <path id="Trazado_905890" data-name="Trazado 905890" d="M52.4,28.192l-.159-.293,4.923-4.923a4.181,4.181,0,0,0-4.325-6.926V3.777A2.78,2.78,0,0,0,50.06,1H21.206a2.76,2.76,0,0,0-1.964.814L11.07,9.985a2.757,2.757,0,0,0-.814,1.964v2.057A10.192,10.192,0,0,0,1,24.141V53.762a4.634,4.634,0,0,0,4.628,4.628H16.736a4.634,4.634,0,0,0,4.628-4.628v-.926H57.633l-2.022-12.13A26.418,26.418,0,0,0,52.4,28.192ZM53.74,40.1l-9.024,2.461L42.54,40.823A4.61,4.61,0,0,1,40.8,37.208V28.77a1.853,1.853,0,0,1,1.851,1.851V37.1h1.851V35.632l6.363-6.363A24.543,24.543,0,0,1,53.74,40.1ZM40.8,26.918a1.853,1.853,0,0,0-1.851,1.851V29.7a.926.926,0,0,1-1.851,0V28.77a3.706,3.706,0,0,1,3.7-3.7H43.2l-1.9,1.9a3.608,3.608,0,0,0-.492-.05Zm-10.137,15.8,1.218-3.047,2.643,2.643-3.048,1.219a.641.641,0,0,1-.858-.582A.6.6,0,0,1,30.666,42.721Zm5.509-1.376-3.319-3.319,5.6-5.6a2.7,2.7,0,0,0,.5-.128v4.906a6.512,6.512,0,0,0,.126,1.235ZM35.42,30.621H25.067v-3.7H35.573a5.531,5.531,0,0,0-.324,1.851V29.7A2.746,2.746,0,0,0,35.42,30.621ZM25.067,32.472H35.792l-3.7,3.7H25.067Zm0,5.554H30.55l-1.481,3.7h-4Zm0,5.554H28.86a2.469,2.469,0,0,0,3.308,1.675l2.155-.863v2.891H25.067Zm11.108.071.52-.208,3.082-3.082c.033.06.064.121.1.181v6.742h-3.7Zm5.554-1.108,1.851,1.481v3.258H41.729Zm14.81-22.534a2.332,2.332,0,0,1-.688,1.66L44.506,33.015V30.621a3.681,3.681,0,0,0-1.383-2.862l9.409-9.409a2.347,2.347,0,0,1,4.007,1.66ZM19.513,4.16V9.331a.927.927,0,0,1-.926.926H13.417ZM11.182,15.81a8.331,8.331,0,1,1-8.331,8.331,8.341,8.341,0,0,1,8.331-8.331ZM6.554,33.2a10.093,10.093,0,0,0,9.257,0v4.826H6.554ZM16.736,56.539H5.628a2.78,2.78,0,0,1-2.777-2.777V29.978A10.277,10.277,0,0,0,4.7,31.99v6.036a1.853,1.853,0,0,0,1.851,1.851H15.81a1.853,1.853,0,0,0,1.851-1.851V31.99a10.277,10.277,0,0,0,1.851-2.012V53.762A2.78,2.78,0,0,1,16.736,56.539Zm4.628-5.554V24.141a10.192,10.192,0,0,0-9.257-10.135v-1.9h6.48a2.78,2.78,0,0,0,2.777-2.777V2.851h28.7a.927.927,0,0,1,.926.926v13.5l-5.937,5.937H40.8a5.538,5.538,0,0,0-4.128,1.851H23.216V49.134H43.58v1.851Zm24.067,0v-6.7l8.511-2.322,1.5,9.02Z" transform="translate(-1 -1)"/>
        <path id="Trazado_905891" data-name="Trazado 905891" d="M10.851,29.974v1.986H12.7V29.974a2.632,2.632,0,0,0,.391-4.871l-1.805-.9a.791.791,0,0,1,.354-1.5h.27a.791.791,0,0,1,.791.791v1.061h1.851V23.493A2.637,2.637,0,0,0,12.7,20.986V19H10.851v1.986a2.632,2.632,0,0,0-.391,4.871l1.805.9a.791.791,0,0,1-.354,1.5h-.27a.791.791,0,0,1-.791-.791V26.405H9v1.061A2.637,2.637,0,0,0,10.851,29.974Z" transform="translate(-1.595 -2.338)"/>
        <path id="Trazado_905892" data-name="Trazado 905892" d="M16.108,45H6.851A1.853,1.853,0,0,0,5,46.851v9.257a1.853,1.853,0,0,0,1.851,1.851h9.257a1.853,1.853,0,0,0,1.851-1.851V46.851A1.853,1.853,0,0,0,16.108,45Zm0,3.7H14.257V46.851h1.851Zm-3.7,7.405H10.554V54.257h1.851Zm0-3.7H10.554V50.554h1.851Zm-3.7,0H6.851V50.554H8.7Zm1.851-3.7V46.851h1.851V48.7ZM8.7,46.851V48.7H6.851V46.851ZM6.851,54.257H8.7v1.851H6.851Zm7.405,1.851V50.554h1.852v5.554Z" transform="translate(-1.297 -4.271)"/>
        <path id="Trazado_905893" data-name="Trazado 905893" d="M50.918,5H25v5.554H50.918ZM49.067,8.7H26.851V6.851H49.067Z" transform="translate(-2.784 -1.297)"/>
        <path id="Trazado_905894" data-name="Trazado 905894" d="M25,13H50.918v1.851H25Z" transform="translate(-2.784 -1.892)"/>
        <path id="Trazado_905895" data-name="Trazado 905895" d="M25,17H50.918v1.851H25Z" transform="translate(-2.784 -2.19)"/>
        <path id="Trazado_905896" data-name="Trazado 905896" d="M25,21H39.81v1.851H25Z" transform="translate(-2.784 -2.487)"/>
      </g>
    </g>
  </g>
</svg>
