<svg xmlns="http://www.w3.org/2000/svg" xmlns:xlink="http://www.w3.org/1999/xlink" width="113.15" height="113.15" viewBox="0 0 113.15 113.15">
  <defs>
    <filter id="Trazado_903579" x="0" y="0" width="113.15" height="113.15" filterUnits="userSpaceOnUse">
      <feOffset dy="3" input="SourceAlpha"/>
      <feGaussianBlur stdDeviation="3" result="blur"/>
      <feFlood flood-opacity="0.161"/>
      <feComposite operator="in" in2="blur"/>
    </filter>
    <filter id="Trazado_903579-2" x="0" y="0" width="113.15" height="113.15" filterUnits="userSpaceOnUse">
      <feOffset dy="3" input="SourceAlpha"/>
      <feGaussianBlur stdDeviation="3" result="blur-2"/>
      <feFlood flood-opacity="0.161" result="color"/>
      <feComposite operator="out" in="SourceGraphic" in2="blur-2"/>
      <feComposite operator="in" in="color"/>
      <feComposite operator="in" in2="SourceGraphic"/>
    </filter>
  </defs>
  <g id="Grupo_1113582" data-name="Grupo 1113582" transform="translate(-1163.051 -4067)">
    <g data-type="innerShadowGroup">
      <g transform="matrix(1, 0, 0, 1, 1163.05, 4067)" filter="url(#Trazado_903579)">
        <g id="Trazado_903579-3" data-name="Trazado 903579" transform="translate(9 6)" fill="#fd9826">
          <path d="M 47.57511901855469 93.15023040771484 C 41.42163467407227 93.15023040771484 35.45327758789062 91.94551849365234 29.8358325958252 89.56953430175781 C 24.40901947021484 87.27419281005859 19.53483390808105 83.98777770996094 15.34864711761475 79.80160522460938 C 11.16246223449707 75.61541748046875 7.876047611236572 70.74121856689453 5.580704689025879 65.31440734863281 C 3.204719066619873 59.69696044921875 2.000004768371582 53.72860336303711 2.000004768371582 47.57511901855469 C 2.000004768371582 41.42163467407227 3.204719066619873 35.45327758789062 5.580704689025879 29.8358325958252 C 7.876047611236572 24.40901947021484 11.16246223449707 19.53483390808105 15.34864711761475 15.34864711761475 C 19.53483390808105 11.16246223449707 24.40901947021484 7.876047611236572 29.8358325958252 5.580704689025879 C 35.45327758789062 3.204719066619873 41.42163467407227 2.000004768371582 47.57511901855469 2.000004768371582 C 53.72860336303711 2.000004768371582 59.69696044921875 3.204719066619873 65.31440734863281 5.580704689025879 C 70.74121856689453 7.876047611236572 75.61540222167969 11.16246223449707 79.80158996582031 15.34864711761475 C 83.98777770996094 19.53483390808105 87.27419281005859 24.40901947021484 89.56953430175781 29.8358325958252 C 91.94551849365234 35.45327758789062 93.15023040771484 41.42163467407227 93.15023040771484 47.57511901855469 C 93.15023040771484 53.72860336303711 91.94551849365234 59.69696044921875 89.56953430175781 65.31440734863281 C 87.27419281005859 70.74121856689453 83.98777770996094 75.61541748046875 79.80158996582031 79.80160522460938 C 75.61540222167969 83.98777770996094 70.74121856689453 87.27419281005859 65.31440734863281 89.56953430175781 C 59.69696044921875 91.94551849365234 53.72860336303711 93.15023040771484 47.57511901855469 93.15023040771484 Z" stroke="none"/>
          <path d="M 47.57511901855469 3.999992370605469 C 41.69075012207031 3.999992370605469 35.98451995849609 5.151565551757812 30.61493682861328 7.422706604003906 C 25.42652130126953 9.617210388183594 20.76601409912109 12.75970458984375 16.76285552978516 16.76285552978516 C 12.75970458984375 20.76601409912109 9.617210388183594 25.42652130126953 7.422706604003906 30.61493682861328 C 5.151565551757812 35.98451995849609 3.999992370605469 41.69075012207031 3.999992370605469 47.57511901855469 C 3.999992370605469 53.45948791503906 5.151565551757812 59.16571807861328 7.422706604003906 64.53530120849609 C 9.617210388183594 69.72371673583984 12.75970458984375 74.38424682617188 16.76285552978516 78.38739776611328 C 20.76601409912109 82.39054870605469 25.42652130126953 85.53302764892578 30.61493682861328 87.72753143310547 C 35.98451995849609 89.99867248535156 41.69075012207031 91.15024566650391 47.57511901855469 91.15024566650391 C 53.45948791503906 91.15024566650391 59.16571807861328 89.99867248535156 64.53530120849609 87.72753143310547 C 69.72371673583984 85.53302764892578 74.38422393798828 82.39054870605469 78.38738250732422 78.38739776611328 C 82.39053344726562 74.38424682617188 85.53302764892578 69.72371673583984 87.72753143310547 64.53530120849609 C 89.99867248535156 59.16571807861328 91.15024566650391 53.45948791503906 91.15024566650391 47.57511901855469 C 91.15024566650391 41.69075012207031 89.99867248535156 35.98451995849609 87.72753143310547 30.61493682861328 C 85.53302764892578 25.42652130126953 82.39053344726562 20.76601409912109 78.38738250732422 16.76285552978516 C 74.38422393798828 12.75970458984375 69.72371673583984 9.617210388183594 64.53530120849609 7.422706604003906 C 59.16571807861328 5.151565551757812 53.45948791503906 3.999992370605469 47.57511901855469 3.999992370605469 M 47.57511901855469 -7.62939453125e-06 C 73.85013580322266 -7.62939453125e-06 95.15024566650391 21.30010223388672 95.15024566650391 47.57511901855469 C 95.15024566650391 73.85015106201172 73.85013580322266 95.15024566650391 47.57511901855469 95.15024566650391 C 21.30010223388672 95.15024566650391 -7.62939453125e-06 73.85015106201172 -7.62939453125e-06 47.57511901855469 C -7.62939453125e-06 21.30010223388672 21.30010223388672 -7.62939453125e-06 47.57511901855469 -7.62939453125e-06 Z" stroke="none" fill="#fff"/>
        </g>
      </g>
      <g id="Trazado_903579-4" data-name="Trazado 903579" transform="translate(1172.051 4073)" fill="#fd9826">
        <path d="M 47.57511901855469 93.15023040771484 C 41.42163467407227 93.15023040771484 35.45327758789062 91.94551849365234 29.8358325958252 89.56953430175781 C 24.40901947021484 87.27419281005859 19.53483390808105 83.98777770996094 15.34864711761475 79.80160522460938 C 11.16246223449707 75.61541748046875 7.876047611236572 70.74121856689453 5.580704689025879 65.31440734863281 C 3.204719066619873 59.69696044921875 2.000004768371582 53.72860336303711 2.000004768371582 47.57511901855469 C 2.000004768371582 41.42163467407227 3.204719066619873 35.45327758789062 5.580704689025879 29.8358325958252 C 7.876047611236572 24.40901947021484 11.16246223449707 19.53483390808105 15.34864711761475 15.34864711761475 C 19.53483390808105 11.16246223449707 24.40901947021484 7.876047611236572 29.8358325958252 5.580704689025879 C 35.45327758789062 3.204719066619873 41.42163467407227 2.000004768371582 47.57511901855469 2.000004768371582 C 53.72860336303711 2.000004768371582 59.69696044921875 3.204719066619873 65.31440734863281 5.580704689025879 C 70.74121856689453 7.876047611236572 75.61540222167969 11.16246223449707 79.80158996582031 15.34864711761475 C 83.98777770996094 19.53483390808105 87.27419281005859 24.40901947021484 89.56953430175781 29.8358325958252 C 91.94551849365234 35.45327758789062 93.15023040771484 41.42163467407227 93.15023040771484 47.57511901855469 C 93.15023040771484 53.72860336303711 91.94551849365234 59.69696044921875 89.56953430175781 65.31440734863281 C 87.27419281005859 70.74121856689453 83.98777770996094 75.61541748046875 79.80158996582031 79.80160522460938 C 75.61540222167969 83.98777770996094 70.74121856689453 87.27419281005859 65.31440734863281 89.56953430175781 C 59.69696044921875 91.94551849365234 53.72860336303711 93.15023040771484 47.57511901855469 93.15023040771484 Z" stroke="none"/>
        <path d="M 47.57511901855469 3.999992370605469 C 41.69075012207031 3.999992370605469 35.98451995849609 5.151565551757812 30.61493682861328 7.422706604003906 C 25.42652130126953 9.617210388183594 20.76601409912109 12.75970458984375 16.76285552978516 16.76285552978516 C 12.75970458984375 20.76601409912109 9.617210388183594 25.42652130126953 7.422706604003906 30.61493682861328 C 5.151565551757812 35.98451995849609 3.999992370605469 41.69075012207031 3.999992370605469 47.57511901855469 C 3.999992370605469 53.45948791503906 5.151565551757812 59.16571807861328 7.422706604003906 64.53530120849609 C 9.617210388183594 69.72371673583984 12.75970458984375 74.38424682617188 16.76285552978516 78.38739776611328 C 20.76601409912109 82.39054870605469 25.42652130126953 85.53302764892578 30.61493682861328 87.72753143310547 C 35.98451995849609 89.99867248535156 41.69075012207031 91.15024566650391 47.57511901855469 91.15024566650391 C 53.45948791503906 91.15024566650391 59.16571807861328 89.99867248535156 64.53530120849609 87.72753143310547 C 69.72371673583984 85.53302764892578 74.38422393798828 82.39054870605469 78.38738250732422 78.38739776611328 C 82.39053344726562 74.38424682617188 85.53302764892578 69.72371673583984 87.72753143310547 64.53530120849609 C 89.99867248535156 59.16571807861328 91.15024566650391 53.45948791503906 91.15024566650391 47.57511901855469 C 91.15024566650391 41.69075012207031 89.99867248535156 35.98451995849609 87.72753143310547 30.61493682861328 C 85.53302764892578 25.42652130126953 82.39053344726562 20.76601409912109 78.38738250732422 16.76285552978516 C 74.38422393798828 12.75970458984375 69.72371673583984 9.617210388183594 64.53530120849609 7.422706604003906 C 59.16571807861328 5.151565551757812 53.45948791503906 3.999992370605469 47.57511901855469 3.999992370605469 M 47.57511901855469 -7.62939453125e-06 C 73.85013580322266 -7.62939453125e-06 95.15024566650391 21.30010223388672 95.15024566650391 47.57511901855469 C 95.15024566650391 73.85015106201172 73.85013580322266 95.15024566650391 47.57511901855469 95.15024566650391 C 21.30010223388672 95.15024566650391 -7.62939453125e-06 73.85015106201172 -7.62939453125e-06 47.57511901855469 C -7.62939453125e-06 21.30010223388672 21.30010223388672 -7.62939453125e-06 47.57511901855469 -7.62939453125e-06 Z" stroke="none"/>
      </g>
      <g transform="matrix(1, 0, 0, 1, 1163.05, 4067)" filter="url(#Trazado_903579-2)">
        <g id="Trazado_903579-5" data-name="Trazado 903579" transform="translate(9 6)" fill="#fff">
          <path d="M 47.57511901855469 93.15023040771484 C 41.42163467407227 93.15023040771484 35.45327758789062 91.94551849365234 29.8358325958252 89.56953430175781 C 24.40901947021484 87.27419281005859 19.53483390808105 83.98777770996094 15.34864711761475 79.80160522460938 C 11.16246223449707 75.61541748046875 7.876047611236572 70.74121856689453 5.580704689025879 65.31440734863281 C 3.204719066619873 59.69696044921875 2.000004768371582 53.72860336303711 2.000004768371582 47.57511901855469 C 2.000004768371582 41.42163467407227 3.204719066619873 35.45327758789062 5.580704689025879 29.8358325958252 C 7.876047611236572 24.40901947021484 11.16246223449707 19.53483390808105 15.34864711761475 15.34864711761475 C 19.53483390808105 11.16246223449707 24.40901947021484 7.876047611236572 29.8358325958252 5.580704689025879 C 35.45327758789062 3.204719066619873 41.42163467407227 2.000004768371582 47.57511901855469 2.000004768371582 C 53.72860336303711 2.000004768371582 59.69696044921875 3.204719066619873 65.31440734863281 5.580704689025879 C 70.74121856689453 7.876047611236572 75.61540222167969 11.16246223449707 79.80158996582031 15.34864711761475 C 83.98777770996094 19.53483390808105 87.27419281005859 24.40901947021484 89.56953430175781 29.8358325958252 C 91.94551849365234 35.45327758789062 93.15023040771484 41.42163467407227 93.15023040771484 47.57511901855469 C 93.15023040771484 53.72860336303711 91.94551849365234 59.69696044921875 89.56953430175781 65.31440734863281 C 87.27419281005859 70.74121856689453 83.98777770996094 75.61541748046875 79.80158996582031 79.80160522460938 C 75.61540222167969 83.98777770996094 70.74121856689453 87.27419281005859 65.31440734863281 89.56953430175781 C 59.69696044921875 91.94551849365234 53.72860336303711 93.15023040771484 47.57511901855469 93.15023040771484 Z" stroke="none"/>
          <path d="M 47.57511901855469 3.999992370605469 C 41.69075012207031 3.999992370605469 35.98451995849609 5.151565551757812 30.61493682861328 7.422706604003906 C 25.42652130126953 9.617210388183594 20.76601409912109 12.75970458984375 16.76285552978516 16.76285552978516 C 12.75970458984375 20.76601409912109 9.617210388183594 25.42652130126953 7.422706604003906 30.61493682861328 C 5.151565551757812 35.98451995849609 3.999992370605469 41.69075012207031 3.999992370605469 47.57511901855469 C 3.999992370605469 53.45948791503906 5.151565551757812 59.16571807861328 7.422706604003906 64.53530120849609 C 9.617210388183594 69.72371673583984 12.75970458984375 74.38424682617188 16.76285552978516 78.38739776611328 C 20.76601409912109 82.39054870605469 25.42652130126953 85.53302764892578 30.61493682861328 87.72753143310547 C 35.98451995849609 89.99867248535156 41.69075012207031 91.15024566650391 47.57511901855469 91.15024566650391 C 53.45948791503906 91.15024566650391 59.16571807861328 89.99867248535156 64.53530120849609 87.72753143310547 C 69.72371673583984 85.53302764892578 74.38422393798828 82.39054870605469 78.38738250732422 78.38739776611328 C 82.39053344726562 74.38424682617188 85.53302764892578 69.72371673583984 87.72753143310547 64.53530120849609 C 89.99867248535156 59.16571807861328 91.15024566650391 53.45948791503906 91.15024566650391 47.57511901855469 C 91.15024566650391 41.69075012207031 89.99867248535156 35.98451995849609 87.72753143310547 30.61493682861328 C 85.53302764892578 25.42652130126953 82.39053344726562 20.76601409912109 78.38738250732422 16.76285552978516 C 74.38422393798828 12.75970458984375 69.72371673583984 9.617210388183594 64.53530120849609 7.422706604003906 C 59.16571807861328 5.151565551757812 53.45948791503906 3.999992370605469 47.57511901855469 3.999992370605469 M 47.57511901855469 -7.62939453125e-06 C 73.85013580322266 -7.62939453125e-06 95.15024566650391 21.30010223388672 95.15024566650391 47.57511901855469 C 95.15024566650391 73.85015106201172 73.85013580322266 95.15024566650391 47.57511901855469 95.15024566650391 C 21.30010223388672 95.15024566650391 -7.62939453125e-06 73.85015106201172 -7.62939453125e-06 47.57511901855469 C -7.62939453125e-06 21.30010223388672 21.30010223388672 -7.62939453125e-06 47.57511901855469 -7.62939453125e-06 Z" stroke="none"/>
        </g>
      </g>
      <g id="Trazado_903579-6" data-name="Trazado 903579" transform="translate(1172.051 4073)" fill="none">
        <path d="M 47.57511901855469 93.15023040771484 C 41.42163467407227 93.15023040771484 35.45327758789062 91.94551849365234 29.8358325958252 89.56953430175781 C 24.40901947021484 87.27419281005859 19.53483390808105 83.98777770996094 15.34864711761475 79.80160522460938 C 11.16246223449707 75.61541748046875 7.876047611236572 70.74121856689453 5.580704689025879 65.31440734863281 C 3.204719066619873 59.69696044921875 2.000004768371582 53.72860336303711 2.000004768371582 47.57511901855469 C 2.000004768371582 41.42163467407227 3.204719066619873 35.45327758789062 5.580704689025879 29.8358325958252 C 7.876047611236572 24.40901947021484 11.16246223449707 19.53483390808105 15.34864711761475 15.34864711761475 C 19.53483390808105 11.16246223449707 24.40901947021484 7.876047611236572 29.8358325958252 5.580704689025879 C 35.45327758789062 3.204719066619873 41.42163467407227 2.000004768371582 47.57511901855469 2.000004768371582 C 53.72860336303711 2.000004768371582 59.69696044921875 3.204719066619873 65.31440734863281 5.580704689025879 C 70.74121856689453 7.876047611236572 75.61540222167969 11.16246223449707 79.80158996582031 15.34864711761475 C 83.98777770996094 19.53483390808105 87.27419281005859 24.40901947021484 89.56953430175781 29.8358325958252 C 91.94551849365234 35.45327758789062 93.15023040771484 41.42163467407227 93.15023040771484 47.57511901855469 C 93.15023040771484 53.72860336303711 91.94551849365234 59.69696044921875 89.56953430175781 65.31440734863281 C 87.27419281005859 70.74121856689453 83.98777770996094 75.61541748046875 79.80158996582031 79.80160522460938 C 75.61540222167969 83.98777770996094 70.74121856689453 87.27419281005859 65.31440734863281 89.56953430175781 C 59.69696044921875 91.94551849365234 53.72860336303711 93.15023040771484 47.57511901855469 93.15023040771484 Z" stroke="none"/>
        <path d="M 47.57511901855469 3.999992370605469 C 41.69075012207031 3.999992370605469 35.98451995849609 5.151565551757812 30.61493682861328 7.422706604003906 C 25.42652130126953 9.617210388183594 20.76601409912109 12.75970458984375 16.76285552978516 16.76285552978516 C 12.75970458984375 20.76601409912109 9.617210388183594 25.42652130126953 7.422706604003906 30.61493682861328 C 5.151565551757812 35.98451995849609 3.999992370605469 41.69075012207031 3.999992370605469 47.57511901855469 C 3.999992370605469 53.45948791503906 5.151565551757812 59.16571807861328 7.422706604003906 64.53530120849609 C 9.617210388183594 69.72371673583984 12.75970458984375 74.38424682617188 16.76285552978516 78.38739776611328 C 20.76601409912109 82.39054870605469 25.42652130126953 85.53302764892578 30.61493682861328 87.72753143310547 C 35.98451995849609 89.99867248535156 41.69075012207031 91.15024566650391 47.57511901855469 91.15024566650391 C 53.45948791503906 91.15024566650391 59.16571807861328 89.99867248535156 64.53530120849609 87.72753143310547 C 69.72371673583984 85.53302764892578 74.38422393798828 82.39054870605469 78.38738250732422 78.38739776611328 C 82.39053344726562 74.38424682617188 85.53302764892578 69.72371673583984 87.72753143310547 64.53530120849609 C 89.99867248535156 59.16571807861328 91.15024566650391 53.45948791503906 91.15024566650391 47.57511901855469 C 91.15024566650391 41.69075012207031 89.99867248535156 35.98451995849609 87.72753143310547 30.61493682861328 C 85.53302764892578 25.42652130126953 82.39053344726562 20.76601409912109 78.38738250732422 16.76285552978516 C 74.38422393798828 12.75970458984375 69.72371673583984 9.617210388183594 64.53530120849609 7.422706604003906 C 59.16571807861328 5.151565551757812 53.45948791503906 3.999992370605469 47.57511901855469 3.999992370605469 M 47.57511901855469 -7.62939453125e-06 C 73.85013580322266 -7.62939453125e-06 95.15024566650391 21.30010223388672 95.15024566650391 47.57511901855469 C 95.15024566650391 73.85015106201172 73.85013580322266 95.15024566650391 47.57511901855469 95.15024566650391 C 21.30010223388672 95.15024566650391 -7.62939453125e-06 73.85015106201172 -7.62939453125e-06 47.57511901855469 C -7.62939453125e-06 21.30010223388672 21.30010223388672 -7.62939453125e-06 47.57511901855469 -7.62939453125e-06 Z" stroke="none" fill="#fff"/>
      </g>
    </g>
    <g id="Grupo_1113581" data-name="Grupo 1113581" transform="translate(1190.051 4093)">
      <path id="Trazado_907615" data-name="Trazado 907615" d="M7.5,38.566H50.983V63.93H7.5Z" transform="translate(-6.627 -34.067)" fill="#b3ffb3"/>
      <path id="Trazado_907616" data-name="Trazado 907616" d="M318.126,38.566a7.247,7.247,0,0,0,7.247,7.247V38.566Z" transform="translate(-281.017 -34.067)" fill="#78d978"/>
      <path id="Trazado_907617" data-name="Trazado 907617" d="M333.27,74.19v-3.5h-6.2A7.243,7.243,0,0,0,333.27,74.19Z" transform="translate(-288.914 -62.445)" fill="#56bf67"/>
      <path id="Trazado_907618" data-name="Trazado 907618" d="M50.983,74.19a7.243,7.243,0,0,1-6.2-3.5H13.706a7.243,7.243,0,0,1-6.2,3.5V92.308H50.983V74.19Z" transform="translate(-6.627 -62.445)" fill="#9ef29e"/>
      <path id="Trazado_907619" data-name="Trazado 907619" d="M14.749,201.124A7.247,7.247,0,0,0,7.5,193.877v7.247Z" transform="translate(-6.627 -171.261)" fill="#56bf67"/>
      <path id="Trazado_907620" data-name="Trazado 907620" d="M14.749,38.566A7.247,7.247,0,0,1,7.5,45.813V38.566Z" transform="translate(-6.627 -34.067)" fill="#78d978"/>
      <path id="Trazado_907621" data-name="Trazado 907621" d="M13.706,42.313H11.818A.817.817,0,0,1,11,41.5V38.566H7.5v7.247a7.243,7.243,0,0,0,6.2-3.5Z" transform="translate(-6.627 -34.067)" fill="#56bf67"/>
      <ellipse id="Elipse_12946" data-name="Elipse 12946" cx="7.247" cy="9.059" rx="7.247" ry="9.059" transform="translate(15.369 8.122)" fill="#ffcb66"/>
      <path id="Trazado_907622" data-name="Trazado 907622" d="M0,0H43.481V25.364H0Z" transform="translate(51.603 37.109) rotate(180)" fill="#b3ffb3"/>
      <path id="Trazado_907623" data-name="Trazado 907623" d="M113.108,136.315a7.243,7.243,0,0,1-6.2-3.5H75.831a7.243,7.243,0,0,1-6.2,3.5v18.117h43.481V136.315Z" transform="translate(-61.505 -117.323)" fill="#9ef29e"/>
      <path id="Trazado_907624" data-name="Trazado 907624" d="M380.25,263.25A7.247,7.247,0,0,1,387.5,256v7.247Z" transform="translate(-335.894 -226.14)" fill="#56bf67"/>
      <g id="Grupo_1113580" data-name="Grupo 1113580">
        <path id="Trazado_907625" data-name="Trazado 907625" d="M76.873,100.691a7.247,7.247,0,0,1-7.247,7.247v-7.247Z" transform="translate(-61.504 -88.945)" fill="#78d978"/>
        <path id="Trazado_907626" data-name="Trazado 907626" d="M380.25,100.691a7.247,7.247,0,0,0,7.247,7.247v-7.247Z" transform="translate(-335.894 -88.945)" fill="#78d978"/>
        <path id="Trazado_907627" data-name="Trazado 907627" fill="#78d978"/>
      </g>
      <path id="Trazado_907628" data-name="Trazado 907628" d="M75.831,104.439H73.943a.817.817,0,0,1-.817-.817v-2.931h-3.5v7.247A7.243,7.243,0,0,0,75.831,104.439Z" transform="translate(-61.505 -88.946)" fill="#56bf67"/>
      <path id="Trazado_907629" data-name="Trazado 907629" d="M395.394,136.315v-3.5h-6.2A7.243,7.243,0,0,0,395.394,136.315Z" transform="translate(-343.791 -117.323)" fill="#56bf67"/>
      <ellipse id="Elipse_12947" data-name="Elipse 12947" cx="7.247" cy="9.059" rx="7.247" ry="9.059" transform="translate(22.616 15.369)" fill="#ffcb66"/>
      <path id="Trazado_907630" data-name="Trazado 907630" d="M45.811,162.816a7.247,7.247,0,0,1-7.247,7.247v-7.247Z" transform="translate(-34.066 -143.824)" fill="#78d978"/>
      <path id="Trazado_907631" data-name="Trazado 907631" d="M0,0H43.481V25.364H0Z" transform="translate(47.979 44.356) rotate(180)" fill="#b3ffb3"/>
      <path id="Trazado_907632" data-name="Trazado 907632" d="M45.811,325.374a7.247,7.247,0,0,0-7.247-7.247v7.247Z" transform="translate(-34.066 -281.018)" fill="#78d978"/>
      <path id="Trazado_907633" data-name="Trazado 907633" d="M42.188,229.438V216.629a7.214,7.214,0,0,1-3.623.97v10.87A7.212,7.212,0,0,1,42.188,229.438Z" transform="translate(-34.066 -191.359)" fill="#9ef29e"/>
      <path id="Trazado_907634" data-name="Trazado 907634" d="M42.188,325.374V319.1a7.213,7.213,0,0,0-3.623-.969v7.247Z" transform="translate(-34.066 -281.018)" fill="#56bf67"/>
      <path id="Trazado_907635" data-name="Trazado 907635" d="M42.187,169.093v-6.277H38.564v7.247A7.212,7.212,0,0,0,42.187,169.093Z" transform="translate(-34.066 -143.824)" fill="#56bf67"/>
      <path id="Trazado_907636" data-name="Trazado 907636" d="M349.188,162.816a7.247,7.247,0,0,0,7.247,7.247v-7.247Z" transform="translate(-308.455 -143.824)" fill="#78d978"/>
      <ellipse id="Elipse_12948" data-name="Elipse 12948" cx="7.247" cy="9.059" rx="7.247" ry="9.059" transform="translate(18.992 22.616)" fill="#ffea80"/>
      <circle id="Elipse_12949" data-name="Elipse 12949" cx="1.812" cy="1.812" r="1.812" transform="translate(9.934 29.863)" fill="#ffea80"/>
      <circle id="Elipse_12950" data-name="Elipse 12950" cx="9.059" cy="9.059" r="9.059" transform="translate(40.733 37.109)" fill="#f36a3d"/>
      <path id="Trazado_907637" data-name="Trazado 907637" d="M396.285,362.662l1.281-1.281A1.812,1.812,0,0,0,395,358.819l-1.281,1.281-1.281-1.281a1.812,1.812,0,0,0-2.562,2.562l1.281,1.281-1.281,1.281a1.812,1.812,0,0,0,2.562,2.562l1.281-1.281L395,366.505a1.812,1.812,0,0,0,2.562-2.562Z" transform="translate(-343.932 -316.494)" fill="#ecf2ff"/>
      <path id="Trazado_907638" data-name="Trazado 907638" d="M171.558,196.311c0-5.477-3.643-9.933-8.122-9.933s-8.122,4.456-8.122,9.933,3.643,9.933,8.122,9.933S171.558,201.789,171.558,196.311Zm-8.122,8.184c-3.513,0-6.372-3.671-6.372-8.184s2.858-8.184,6.372-8.184,6.372,3.671,6.372,8.184S166.95,204.5,163.436,204.5Z" transform="translate(-137.198 -164.637)"/>
      <path id="Trazado_907639" data-name="Trazado 907639" d="M77.658,251.19a2.687,2.687,0,1,0,2.687-2.687A2.69,2.69,0,0,0,77.658,251.19Zm3.623,0a.937.937,0,1,1-.937-.937A.938.938,0,0,1,81.281,251.19Z" transform="translate(-68.599 -219.515)"/>
      <circle id="Elipse_12951" data-name="Elipse 12951" cx="1.812" cy="1.812" r="1.812" transform="translate(39.076 29.863)" fill="#ffea80"/>
      <path id="Trazado_907640" data-name="Trazado 907640" d="M327.483,251.19a2.687,2.687,0,1,0,2.687-2.687A2.69,2.69,0,0,0,327.483,251.19Zm3.624,0a.937.937,0,1,1-.937-.937A.938.938,0,0,1,331.107,251.19Z" transform="translate(-289.282 -219.515)"/>
      <path id="Trazado_907641" data-name="Trazado 907641" d="M201.323,222.127h-1a.937.937,0,1,1,0-1.874h1.122a.757.757,0,0,1,.73.543.875.875,0,1,0,1.676-.5,2.494,2.494,0,0,0-2.156-1.778v-1.048a.875.875,0,0,0-1.75,0v1.062a2.687,2.687,0,0,0,.377,5.347h1a.937.937,0,1,1,0,1.874h-.889a.757.757,0,0,1-.73-.543.875.875,0,1,0-1.676.5,2.494,2.494,0,0,0,1.923,1.744v1.081a.875.875,0,0,0,1.75,0v-1.062a2.687,2.687,0,0,0-.377-5.347Z" transform="translate(-174.586 -191.328)"/>
      <path id="Trazado_907642" data-name="Trazado 907642" d="M390.9,356.036l.663-.662a2.687,2.687,0,0,0-3.8-3.8l-.662.663-.662-.663a2.687,2.687,0,0,0-3.8,3.8l.662.662-.662.662a2.687,2.687,0,1,0,3.8,3.8l.662-.662.662.662a2.687,2.687,0,0,0,3.8-3.8Zm-.575,3.224a.938.938,0,0,1-1.325,0l-1.281-1.281a.875.875,0,0,0-1.237,0l-1.281,1.281a.937.937,0,1,1-1.325-1.325l1.281-1.281a.875.875,0,0,0,0-1.237l-1.281-1.281a.937.937,0,0,1,1.325-1.325l1.281,1.281a.875.875,0,0,0,1.237,0L389,352.812a.937.937,0,0,1,1.325,1.325l-1.281,1.281a.875.875,0,0,0,0,1.237l1.281,1.281A.936.936,0,0,1,390.322,359.261Z" transform="translate(-337.306 -309.868)"/>
      <path id="Trazado_907643" data-name="Trazado 907643" d="M52.477,64.041V53.771a.875.875,0,0,0-1.75,0v2.7a8.136,8.136,0,0,0-1.874.43V46.826a8.055,8.055,0,0,0,1.874.432v2.7a.875.875,0,1,0,1.75,0V39.183a.875.875,0,0,0-.875-.875H45.231V31.936a.875.875,0,0,0-.875-.875H24.522a.875.875,0,0,0,0,1.75H36.281a8.12,8.12,0,0,0,3.045,5.5H28.894a7.677,7.677,0,0,0-6.277-3.623,7.681,7.681,0,0,0-6.278,3.623H8.122a.875.875,0,0,0-.875.875v6.371H4.5a.875.875,0,0,0-.875.875v3.227a8.134,8.134,0,0,0-1.873-.431V40.011a8.137,8.137,0,0,0,7.2-7.2H20.709a.875.875,0,1,0,0-1.75H.875A.875.875,0,0,0,0,31.936V57.3a.875.875,0,0,0,.875.875H3.623V71.794a.875.875,0,0,0,.875.875H24.332a.875.875,0,0,0,0-1.75H12.573a8.137,8.137,0,0,0-7.2-7.2V54.505a8.137,8.137,0,0,0,7.2-7.2H39.9a8.137,8.137,0,0,0,7.2,7.2v9.536a9.974,9.974,0,0,0-6.878,6.878H28.145a.875.875,0,1,0,0,1.75H39.9a10.078,10.078,0,0,0,9.89,10.87,9.934,9.934,0,0,0,2.686-19.5ZM36.139,45.555a7.675,7.675,0,0,0-6.276-3.623,7.675,7.675,0,0,0-6.276,3.623H13.153a8.12,8.12,0,0,0,3.044-5.5H43.528a8.12,8.12,0,0,0,3.044,5.5Zm-2.224,0h-8.1a5.319,5.319,0,0,1,8.1,0ZM50.728,45.5a6.386,6.386,0,0,1-5.437-5.437h5.437ZM38.044,32.811h5.437v5.438A6.386,6.386,0,0,1,38.044,32.811ZM22.616,36.435a5.544,5.544,0,0,1,4.053,1.874H18.562A5.546,5.546,0,0,1,22.616,36.435Zm-8.182,3.623A6.386,6.386,0,0,1,9,45.5V40.058ZM7.187,32.811A6.386,6.386,0,0,1,1.75,38.249V32.811ZM1.75,56.425V50.989a6.358,6.358,0,0,1,1.873.561v4.875Zm9.061,14.494H5.373V65.482A6.386,6.386,0,0,1,10.811,70.919ZM5.373,52.742V47.3h5.438A6.386,6.386,0,0,1,5.373,52.742ZM41.667,47.3H47.1v5.438A6.386,6.386,0,0,1,41.667,47.3ZM48.854,58.8a6.353,6.353,0,0,1,1.874-.561v5.481a10.031,10.031,0,0,0-1.874,0Zm.937,22.993a8.193,8.193,0,0,1-8.184-8.184,8.3,8.3,0,0,1,8.184-8.184,8.184,8.184,0,0,1,0,16.367Z" transform="translate(0 -27.438)"/>
    </g>
  </g>
</svg>
