<svg xmlns="http://www.w3.org/2000/svg" xmlns:xlink="http://www.w3.org/1999/xlink" width="372" height="254" viewBox="0 0 372 254">
  <defs>
    <clipPath id="clip-path">
      <rect id="Rectangle_406323" data-name="Rectangle 406323" width="339.01" height="180.739" fill="#ddeffd"/>
    </clipPath>
    <clipPath id="clip-path-2">
      <rect id="Rectangle_406322" data-name="Rectangle 406322" width="357.04" height="238.932" fill="none"/>
    </clipPath>
    <clipPath id="clip-path-4">
      <rect id="Rectangle_406293" data-name="Rectangle 406293" width="0.994" height="0.03" fill="none"/>
    </clipPath>
    <clipPath id="clip-path-5">
      <rect id="Rectangle_406294" data-name="Rectangle 406294" width="0.459" height="0.014" fill="none"/>
    </clipPath>
    <clipPath id="clip-path-6">
      <rect id="Rectangle_406295" data-name="Rectangle 406295" width="20.151" height="28.98" fill="none"/>
    </clipPath>
    <clipPath id="clip-path-7">
      <rect id="Rectangle_406296" data-name="Rectangle 406296" width="0.01" height="0.001" fill="none"/>
    </clipPath>
    <clipPath id="clip-path-8">
      <rect id="Rectangle_406297" data-name="Rectangle 406297" width="43.257" height="29.002" fill="none"/>
    </clipPath>
    <clipPath id="clip-path-9">
      <rect id="Rectangle_406298" data-name="Rectangle 406298" width="6.736" height="20.134" fill="none"/>
    </clipPath>
    <clipPath id="clip-path-10">
      <rect id="Rectangle_406299" data-name="Rectangle 406299" width="33.078" height="15.161" fill="none"/>
    </clipPath>
    <clipPath id="clip-path-11">
      <rect id="Rectangle_406300" data-name="Rectangle 406300" width="19.09" height="20.732" fill="none"/>
    </clipPath>
    <clipPath id="clip-path-12">
      <rect id="Rectangle_406301" data-name="Rectangle 406301" width="0.056" height="0.283" fill="none"/>
    </clipPath>
    <clipPath id="clip-path-13">
      <rect id="Rectangle_406302" data-name="Rectangle 406302" width="0.003" height="0.014" fill="none"/>
    </clipPath>
    <clipPath id="clip-path-14">
      <rect id="Rectangle_406303" data-name="Rectangle 406303" width="0.151" height="0.759" fill="none"/>
    </clipPath>
    <clipPath id="clip-path-15">
      <rect id="Rectangle_406304" data-name="Rectangle 406304" width="0.075" height="0.38" fill="none"/>
    </clipPath>
    <clipPath id="clip-path-16">
      <rect id="Rectangle_406305" data-name="Rectangle 406305" width="39.859" height="21.218" fill="none"/>
    </clipPath>
    <clipPath id="clip-path-17">
      <rect id="Rectangle_406306" data-name="Rectangle 406306" width="5.33" height="2.592" fill="none"/>
    </clipPath>
    <clipPath id="clip-path-18">
      <rect id="Rectangle_406307" data-name="Rectangle 406307" width="5.33" height="2.593" fill="none"/>
    </clipPath>
    <clipPath id="clip-path-19">
      <rect id="Rectangle_406308" data-name="Rectangle 406308" width="21.574" height="28.981" fill="none"/>
    </clipPath>
    <clipPath id="clip-path-20">
      <rect id="Rectangle_406309" data-name="Rectangle 406309" width="11.003" height="13.533" fill="none"/>
    </clipPath>
    <clipPath id="clip-path-21">
      <rect id="Rectangle_406310" data-name="Rectangle 406310" width="39.689" height="28.838" fill="none"/>
    </clipPath>
    <clipPath id="clip-path-22">
      <rect id="Rectangle_406311" data-name="Rectangle 406311" width="0.056" height="0.285" fill="none"/>
    </clipPath>
    <clipPath id="clip-path-23">
      <rect id="Rectangle_406312" data-name="Rectangle 406312" width="33.086" height="15.194" fill="none"/>
    </clipPath>
    <clipPath id="clip-path-24">
      <rect id="Rectangle_406313" data-name="Rectangle 406313" width="0.08" height="0.406" fill="none"/>
    </clipPath>
    <clipPath id="clip-path-25">
      <rect id="Rectangle_406314" data-name="Rectangle 406314" width="0.006" height="0.032" fill="none"/>
    </clipPath>
    <clipPath id="clip-path-26">
      <rect id="Rectangle_406315" data-name="Rectangle 406315" width="0.14" height="0.708" fill="none"/>
    </clipPath>
    <clipPath id="clip-path-27">
      <rect id="Rectangle_406316" data-name="Rectangle 406316" width="10.353" height="22.155" fill="none"/>
    </clipPath>
    <clipPath id="clip-path-28">
      <rect id="Rectangle_406317" data-name="Rectangle 406317" width="20.591" height="5.018" fill="none"/>
    </clipPath>
    <clipPath id="clip-path-29">
      <rect id="Rectangle_406318" data-name="Rectangle 406318" width="37.071" height="20.117" fill="none"/>
    </clipPath>
    <clipPath id="clip-path-30">
      <rect id="Rectangle_406319" data-name="Rectangle 406319" width="5.179" height="2.516" fill="none"/>
    </clipPath>
    <clipPath id="clip-path-31">
      <rect id="Rectangle_406320" data-name="Rectangle 406320" width="5.179" height="2.515" fill="none"/>
    </clipPath>
  </defs>
  <g id="Group_1113323" data-name="Group 1113323" transform="translate(-285.051 -2170)">
    <rect id="Rectangle_405479" data-name="Rectangle 405479" width="372" height="254" transform="translate(285.051 2170)" fill="#fed5a7"/>
    <g id="Group_1113322" data-name="Group 1113322" transform="translate(301.051 2228.271)">
      <g id="Group_1113321" data-name="Group 1113321" clip-path="url(#clip-path)">
        <path id="Path_906453" data-name="Path 906453" d="M173.911,43.135a90.076,90.076,0,0,1-40.172-16.346c-17.744-12.858-54.877-34.74-90.3-23.84C-5.418,17.982-5.636,61.471,7.09,85.1s102.973,92.8,219.971,81.8c104.7-9.851,125.1-122.6,69.261-143-48.43-17.7-64.953,27.392-122.411,19.248" transform="translate(0 0)" fill="#ddeffd"/>
        <path id="Path_906454" data-name="Path 906454" d="M323.543,52.155a6.584,6.584,0,1,1-8.3-4.227,6.584,6.584,0,0,1,8.3,4.227" transform="translate(-137.654 -21.091)" fill="#ddeffd"/>
        <path id="Path_906455" data-name="Path 906455" d="M391.349,314.235a3.968,3.968,0,1,1-3.968-3.968,3.968,3.968,0,0,1,3.968,3.968" transform="translate(-169.872 -137.465)" fill="#ddeffd"/>
        <path id="Path_906456" data-name="Path 906456" d="M347.226,61.908a3.968,3.968,0,1,1-5-2.548,3.968,3.968,0,0,1,5,2.548" transform="translate(-150.409 -26.213)" fill="#ddeffd"/>
        <path id="Path_906457" data-name="Path 906457" d="M17.483,183.418a3.968,3.968,0,1,1-3.968-3.968,3.968,3.968,0,0,1,3.968,3.968" transform="translate(-4.23 -79.506)" fill="#ddeffd"/>
        <path id="Path_906458" data-name="Path 906458" d="M602.38,125.778a3.968,3.968,0,1,1-3.968-3.968,3.968,3.968,0,0,1,3.968,3.968" transform="translate(-263.37 -53.968)" fill="#ddeffd"/>
      </g>
    </g>
    <g id="Group_1113319" data-name="Group 1113319" transform="translate(292.051 2185)">
      <g id="Group_1113318" data-name="Group 1113318" clip-path="url(#clip-path-2)">
        <g id="Group_1113317" data-name="Group 1113317">
          <g id="Group_1113316" data-name="Group 1113316" clip-path="url(#clip-path-2)">
            <path id="Path_906370" data-name="Path 906370" d="M265.528,46.907A40.845,40.845,0,1,1,224.683,6.062a40.845,40.845,0,0,1,40.845,40.845" transform="translate(-53.178 -1.754)" fill="#1b1b25"/>
            <path id="Path_906371" data-name="Path 906371" d="M259.467,40.846A40.845,40.845,0,1,1,218.622,0a40.845,40.845,0,0,1,40.845,40.845" transform="translate(-51.425 0)" fill="#ffb54a"/>
            <path id="Path_906372" data-name="Path 906372" d="M221.856,77.089a32.9,32.9,0,1,1,32.9-32.9,32.934,32.934,0,0,1-32.9,32.9m0-63.661a30.764,30.764,0,1,0,30.765,30.765,30.8,30.8,0,0,0-30.765-30.765" transform="translate(-54.66 -3.268)" fill="#fcf0e3"/>
            <path id="Path_906373" data-name="Path 906373" d="M227.315,63.784a23.328,23.328,0,0,1-5.942-1.539,22.585,22.585,0,0,1-5.232-2.959l3.693-5.4a28.391,28.391,0,0,0,3.764,2.438,14.3,14.3,0,0,0,3.953,1.4V50.2a32.5,32.5,0,0,1-4.474-1.563,11.183,11.183,0,0,1-3.172-2.036,7.732,7.732,0,0,1-1.893-2.77,9.758,9.758,0,0,1-.64-3.67v-.095a8.828,8.828,0,0,1,.71-3.6,8.223,8.223,0,0,1,2.012-2.793,10.279,10.279,0,0,1,3.149-1.918,15.393,15.393,0,0,1,4.072-.97V28.038h4.924v2.841a19.781,19.781,0,0,1,8.806,3.5l-3.172,5.539a27,27,0,0,0-2.888-1.681A14.6,14.6,0,0,0,232,37.128v7.149q5.4,1.468,7.836,3.835a8.435,8.435,0,0,1,2.438,6.344v.095a8.376,8.376,0,0,1-2.77,6.392,10.607,10.607,0,0,1-3.149,1.941,14.85,14.85,0,0,1-4.119.994v4.687h-4.924Zm.237-27.082a4.283,4.283,0,0,0-2.486,1.018,2.608,2.608,0,0,0-.78,1.918v.095a2.793,2.793,0,0,0,.662,1.87,6.335,6.335,0,0,0,2.6,1.491ZM232,57.96q3.36-.52,3.362-3.03v-.095a2.875,2.875,0,0,0-.711-2.012A6.838,6.838,0,0,0,232,51.332Z" transform="translate(-62.523 -8.11)" fill="#1b1b25"/>
            <path id="Path_906374" data-name="Path 906374" d="M265.528,46.907A40.845,40.845,0,1,1,224.683,6.062a40.845,40.845,0,0,1,40.845,40.845" transform="translate(-53.178 -1.754)" fill="#1b1b25"/>
            <path id="Path_906375" data-name="Path 906375" d="M259.467,40.846A40.845,40.845,0,1,1,218.622,0a40.845,40.845,0,0,1,40.845,40.845" transform="translate(-51.425 0)" fill="#ffb54a"/>
            <path id="Path_906376" data-name="Path 906376" d="M221.856,77.089a32.9,32.9,0,1,1,32.9-32.9,32.934,32.934,0,0,1-32.9,32.9m0-63.661a30.764,30.764,0,1,0,30.765,30.765,30.8,30.8,0,0,0-30.765-30.765" transform="translate(-54.66 -3.268)" fill="#fcf0e3"/>
            <path id="Path_906377" data-name="Path 906377" d="M227.315,63.784a23.328,23.328,0,0,1-5.942-1.539,22.585,22.585,0,0,1-5.232-2.959l3.693-5.4a28.391,28.391,0,0,0,3.764,2.438,14.3,14.3,0,0,0,3.953,1.4V50.2a32.5,32.5,0,0,1-4.474-1.563,11.183,11.183,0,0,1-3.172-2.036,7.732,7.732,0,0,1-1.893-2.77,9.758,9.758,0,0,1-.64-3.67v-.095a8.828,8.828,0,0,1,.71-3.6,8.223,8.223,0,0,1,2.012-2.793,10.279,10.279,0,0,1,3.149-1.918,15.393,15.393,0,0,1,4.072-.97V28.038h4.924v2.841a19.781,19.781,0,0,1,8.806,3.5l-3.172,5.539a27,27,0,0,0-2.888-1.681A14.6,14.6,0,0,0,232,37.128v7.149q5.4,1.468,7.836,3.835a8.435,8.435,0,0,1,2.438,6.344v.095a8.376,8.376,0,0,1-2.77,6.392,10.607,10.607,0,0,1-3.149,1.941,14.85,14.85,0,0,1-4.119.994v4.687h-4.924Zm.237-27.082a4.283,4.283,0,0,0-2.486,1.018,2.608,2.608,0,0,0-.78,1.918v.095a2.793,2.793,0,0,0,.662,1.87,6.335,6.335,0,0,0,2.6,1.491ZM232,57.96q3.36-.52,3.362-3.03v-.095a2.875,2.875,0,0,0-.711-2.012A6.838,6.838,0,0,0,232,51.332Z" transform="translate(-62.523 -8.11)" fill="#1b1b25"/>
            <path id="Path_906378" data-name="Path 906378" d="M188.943,23.35A18.482,18.482,0,1,1,170.462,4.869,18.482,18.482,0,0,1,188.943,23.35" transform="translate(-43.963 -1.408)" fill="#1b1b25"/>
            <path id="Path_906379" data-name="Path 906379" d="M186.2,20.607A18.482,18.482,0,1,1,167.72,2.125,18.481,18.481,0,0,1,186.2,20.607" transform="translate(-43.17 -0.615)" fill="#ffb54a"/>
            <path id="Path_906380" data-name="Path 906380" d="M169.183,37.007a14.885,14.885,0,1,1,14.885-14.885,14.9,14.9,0,0,1-14.885,14.885m0-28.805a13.92,13.92,0,1,0,13.92,13.92A13.936,13.936,0,0,0,169.183,8.2" transform="translate(-44.633 -2.093)" fill="#fcf0e3"/>
            <path id="Path_906381" data-name="Path 906381" d="M171.653,30.986a10.594,10.594,0,0,1-2.689-.7,10.225,10.225,0,0,1-2.367-1.339l1.671-2.442a12.877,12.877,0,0,0,1.7,1.1,6.468,6.468,0,0,0,1.789.632V24.838a14.746,14.746,0,0,1-2.025-.707,5.05,5.05,0,0,1-1.435-.921,3.516,3.516,0,0,1-.857-1.253,4.423,4.423,0,0,1-.289-1.66v-.043a3.987,3.987,0,0,1,.321-1.628,3.715,3.715,0,0,1,.91-1.264,4.665,4.665,0,0,1,1.425-.868,6.961,6.961,0,0,1,1.842-.439V14.812h2.228V16.1a9.313,9.313,0,0,1,2.131.568,9.212,9.212,0,0,1,1.853,1.018l-1.435,2.506a12.411,12.411,0,0,0-1.307-.76,6.615,6.615,0,0,0-1.35-.5V22.16a8.158,8.158,0,0,1,3.546,1.735,3.822,3.822,0,0,1,1.1,2.871v.043a3.788,3.788,0,0,1-1.254,2.892,4.793,4.793,0,0,1-1.424.878,6.7,6.7,0,0,1-1.864.45v2.12h-2.228Zm.107-12.254a1.926,1.926,0,0,0-1.124.461,1.178,1.178,0,0,0-.354.868V20.1a1.268,1.268,0,0,0,.3.846,2.884,2.884,0,0,0,1.178.674Zm2.014,9.618q1.521-.236,1.521-1.371v-.043a1.3,1.3,0,0,0-.321-.911,3.1,3.1,0,0,0-1.2-.674Z" transform="translate(-48.191 -4.285)" fill="#1b1b25"/>
            <path id="Path_906382" data-name="Path 906382" d="M142.607,68.29h0a8.026,8.026,0,0,0-8.026-8.026,8.026,8.026,0,0,0,8.026-8.026,8.026,8.026,0,0,0,8.026,8.026,8.026,8.026,0,0,0-8.026,8.026" transform="translate(-38.93 -15.111)" fill="#fff"/>
            <path id="Path_906383" data-name="Path 906383" d="M276.132,126.8h0a5.894,5.894,0,0,0-5.894-5.894,5.894,5.894,0,0,0,5.894-5.895,5.894,5.894,0,0,0,5.894,5.895,5.894,5.894,0,0,0-5.894,5.894" transform="translate(-78.171 -33.269)" fill="#fff"/>
            <path id="Path_906384" data-name="Path 906384" d="M219.914,162.714h0a10.839,10.839,0,0,0-10.839-10.839,10.838,10.838,0,0,0,10.839-10.838,10.838,10.838,0,0,0,10.839,10.838,10.839,10.839,0,0,0-10.839,10.839" transform="translate(-60.478 -40.797)" fill="#fff"/>
            <path id="Path_906385" data-name="Path 906385" d="M272.838,45.609h0a10.157,10.157,0,0,0-10.156-10.156A10.157,10.157,0,0,0,272.838,25.3a10.157,10.157,0,0,0,10.156,10.157,10.156,10.156,0,0,0-10.156,10.156" transform="translate(-75.985 -7.317)" fill="#fcf0e3"/>
            <path id="Path_906386" data-name="Path 906386" d="M322.463,58.971h0a5.6,5.6,0,0,0-5.6-5.6,5.6,5.6,0,0,0,5.6-5.6,5.6,5.6,0,0,0,5.6,5.6,5.6,5.6,0,0,0-5.6,5.6" transform="translate(-91.657 -13.817)" fill="#fff"/>
            <path id="Path_906387" data-name="Path 906387" d="M297.6,157.786l.023-.082,10.29-35.8-.045-.033a12.857,12.857,0,0,1,4.117-4.561,11.915,11.915,0,0,0,4.748-7.861c2.265-2.193,4.818-4.063,7.131-6.2a1.65,1.65,0,0,0,.564-.79,1.378,1.378,0,0,0-.293-1.028,4.084,4.084,0,0,0-5.212-1.208A12.7,12.7,0,0,0,316,102.13a14.463,14.463,0,0,0-2.316,1.98l8.186-17.478a2.911,2.911,0,0,0-1.057-3.935h0a2.433,2.433,0,0,0-2.068.043,3.29,3.29,0,0,0-1.139.906l.04-.2c-9.587-8.062-21.415,19.376-21.415,19.376l-3.358,7.922L264.4,163.531a15.338,15.338,0,0,0,6.856,20.923c.112.055.225.1.338.154a15.462,15.462,0,0,0,7.755,2.075h56.034l12.075-28.7Zm15.964-53.413Z" transform="translate(-75.972 -23.708)" fill="#fec29e"/>
            <g id="Group_1113234" data-name="Group 1113234" transform="translate(211.036 162.932)" opacity="0.17">
              <g id="Group_1113233" data-name="Group 1113233">
                <g id="Group_1113232" data-name="Group 1113232" clip-path="url(#clip-path-4)">
                  <path id="Path_906388" data-name="Path 906388" d="M297.921,229.275h0" transform="translate(-296.927 -229.245)" fill="#ff887c"/>
                </g>
              </g>
            </g>
            <g id="Group_1113237" data-name="Group 1113237" transform="translate(212.039 162.963)" opacity="0.17">
              <g id="Group_1113236" data-name="Group 1113236">
                <g id="Group_1113235" data-name="Group 1113235" clip-path="url(#clip-path-5)">
                  <path id="Path_906389" data-name="Path 906389" d="M298.339,229.288l.459.014-.459-.014" transform="translate(-298.339 -229.288)" fill="#ff887c"/>
                </g>
              </g>
            </g>
            <g id="Group_1113240" data-name="Group 1113240" transform="translate(212.499 133.996)" opacity="0.17">
              <g id="Group_1113239" data-name="Group 1113239">
                <g id="Group_1113238" data-name="Group 1113238" clip-path="url(#clip-path-6)">
                  <path id="Path_906390" data-name="Path 906390" d="M308.136,188.532l-1.63,5.672c-.424,1.574-.913,3.264-1.434,4.989l-1.97,6.854a15.445,15.445,0,0,1-1.021,2.5c-1.7,5.074-3.095,8.964-3.095,8.964l20.151-28.854c-5.013,0-6.163-.12-11-.126" transform="translate(-298.985 -188.532)" fill="#ff887c"/>
                </g>
              </g>
            </g>
            <g id="Group_1113243" data-name="Group 1113243" transform="translate(212.03 162.962)" opacity="0.17">
              <g id="Group_1113242" data-name="Group 1113242">
                <g id="Group_1113241" data-name="Group 1113241" clip-path="url(#clip-path-7)">
                  <path id="Path_906391" data-name="Path 906391" d="M298.325,229.287h0" transform="translate(-298.325 -229.287)" fill="#ff887c"/>
                </g>
              </g>
            </g>
            <path id="Path_906392" data-name="Path 906392" d="M323.13,114.213a.355.355,0,0,1-.286-.566,6.512,6.512,0,0,1,8.431-2.2.356.356,0,0,1-.348.62,5.73,5.73,0,0,0-7.512,2,.353.353,0,0,1-.286.144" transform="translate(-93.368 -32.026)" fill="#fb8e77"/>
            <path id="Path_906393" data-name="Path 906393" d="M337.353,84.095a54.313,54.313,0,0,0-4.07,5.855,26.463,26.463,0,0,0-1.617,3.15,7.743,7.743,0,0,0-.761,3.308v.022a.355.355,0,0,1-.709.038v-.009a8.33,8.33,0,0,1,.883-3.611,27.141,27.141,0,0,1,1.719-3.192,54.729,54.729,0,0,1,4.229-5.832.212.212,0,0,1,.329.266Z" transform="translate(-95.514 -24.225)" fill="#fb8e77"/>
            <path id="Path_906394" data-name="Path 906394" d="M333.573,82.642a13.4,13.4,0,0,0-2.533,2.388,21.251,21.251,0,0,0-2.012,2.881,25.547,25.547,0,0,0-1.537,3.166c-.232.539-.406,1.1-.611,1.652l-.51,1.687-.006.021a.355.355,0,0,1-.68-.205l0-.006.554-1.716c.221-.559.409-1.131.657-1.679a26.05,26.05,0,0,1,1.635-3.213,21.834,21.834,0,0,1,2.122-2.918,13.8,13.8,0,0,1,2.689-2.434.22.22,0,0,1,.247.365Z" transform="translate(-94.205 -23.786)" fill="#fb8e77"/>
            <path id="Path_906395" data-name="Path 906395" d="M328.572,83.049a34.428,34.428,0,0,0-3.721,4.6,19.618,19.618,0,0,0-1.467,2.545,10.4,10.4,0,0,0-.9,2.729v.009a.355.355,0,0,1-.7-.111v-.009a11.056,11.056,0,0,1,1.027-2.9,20.356,20.356,0,0,1,1.575-2.584,35.037,35.037,0,0,1,3.895-4.576.207.207,0,0,1,.3.29Z" transform="translate(-93.08 -23.92)" fill="#fb8e77"/>
            <path id="Path_906396" data-name="Path 906396" d="M447.283,240.729l-13.746-37.468c-1.635-8.222-9.457-14.455-18.866-14.455l-38.4-.3-43.257.165V217.5h13.425l-6.929,75.215,95.253.538-.534-50.931Z" transform="translate(-96.331 -54.527)" fill="#008d8e"/>
            <g id="Group_1113246" data-name="Group 1113246" transform="translate(236.688 133.974)" opacity="0.05">
              <g id="Group_1113245" data-name="Group 1113245">
                <g id="Group_1113244" data-name="Group 1113244" clip-path="url(#clip-path-8)">
                  <path id="Path_906397" data-name="Path 906397" d="M376.2,188.821l.075-.321-43.257.165V217.5h13.425l.07-.761c0-15.22,13.231-27.587,29.687-27.92" transform="translate(-333.019 -188.501)" fill="#1b1b25"/>
                </g>
              </g>
            </g>
            <g id="Group_1113249" data-name="Group 1113249" transform="translate(225.203 92.564)" opacity="0.18">
              <g id="Group_1113248" data-name="Group 1113248">
                <g id="Group_1113247" data-name="Group 1113247" clip-path="url(#clip-path-9)">
                  <path id="Path_906398" data-name="Path 906398" d="M316.86,130.238s2.428,20.622,2.571,20.125l4.166-14.49Z" transform="translate(-316.86 -130.238)" fill="#ff887c"/>
                </g>
              </g>
            </g>
            <path id="Path_906399" data-name="Path 906399" d="M385.816,262.91l-3.635-18.321-2.8-14.136a3.091,3.091,0,0,0-3.623-2.424l-14.041,2.786a3.091,3.091,0,0,0-2.424,3.623l2.823,14.227,2.239,11.284,1.378,6.945a3.091,3.091,0,0,0,3.623,2.423l8.293-1.645,5.748-1.14a3.091,3.091,0,0,0,2.424-3.623" transform="translate(-103.913 -65.944)" fill="#1b1b25"/>
            <path id="Path_906400" data-name="Path 906400" d="M460.8,286.559l-6.332-27.571L425.68,262.51l1.581,7.013-.146-.036-31.294-7.747-.027.038a10.491,10.491,0,0,1-3.913-3.6,9.369,9.369,0,0,0-7.032-4.029c-.849-.889-1.64-1.84-2.423-2.8l.733,3.7-.183.1a11.866,11.866,0,0,1-6.479,1.346l-13.76-1.074a2.092,2.092,0,0,0-2.058,1.171c-4.028,8.466,13.265,16.212,17.212,17.849h0l.139.057.161.066.151.061.126.05.118.047.045.018.058.023,6.768,2.537,53.579,26.372a15.536,15.536,0,0,0,1.508.627,13.367,13.367,0,0,0,8.589.887A15.54,15.54,0,0,0,460.8,286.559" transform="translate(-104.157 -72.708)" fill="#fec29e"/>
            <g id="Group_1113252" data-name="Group 1113252" transform="translate(321.522 189.802)" opacity="0.17">
              <g id="Group_1113251" data-name="Group 1113251">
                <g id="Group_1113250" data-name="Group 1113250" clip-path="url(#clip-path-10)">
                  <path id="Path_906401" data-name="Path 906401" d="M485.459,282.212l-33.078-15.161c1.1,4.811.461,2.688,1.435,6.977l2.25.557c9.526.643,29.393,7.627,29.393,7.627" transform="translate(-452.381 -267.051)" fill="#ff887c"/>
                </g>
              </g>
            </g>
            <g id="Group_1113255" data-name="Group 1113255" transform="translate(314.362 169.426)" opacity="0.35">
              <g id="Group_1113254" data-name="Group 1113254">
                <g id="Group_1113253" data-name="Group 1113253" clip-path="url(#clip-path-11)">
                  <path id="Path_906402" data-name="Path 906402" d="M446.793,259.113a.355.355,0,0,1-.347-.283l-4.134-20.02a.355.355,0,0,1,.7-.145l4.067,19.7L461,256.592a.355.355,0,1,1,.09.705l-14.247,1.813a.325.325,0,0,1-.046,0" transform="translate(-442.306 -238.382)" fill="#1b1b25"/>
                </g>
              </g>
            </g>
            <g id="Group_1113258" data-name="Group 1113258" transform="translate(354.826 206.102)" opacity="0.17">
              <g id="Group_1113257" data-name="Group 1113257">
                <g id="Group_1113256" data-name="Group 1113256" clip-path="url(#clip-path-12)">
                  <path id="Path_906403" data-name="Path 906403" d="M499.24,289.985c.026.136.048.244.055.284l-.055-.284" transform="translate(-499.239 -289.985)" fill="#ff887c"/>
                </g>
              </g>
            </g>
            <g id="Group_1113261" data-name="Group 1113261" transform="translate(354.882 206.385)" opacity="0.17">
              <g id="Group_1113260" data-name="Group 1113260">
                <g id="Group_1113259" data-name="Group 1113259" clip-path="url(#clip-path-13)">
                  <path id="Path_906404" data-name="Path 906404" d="M499.318,290.384h0" transform="translate(-499.318 -290.384)" fill="#ff887c"/>
                </g>
              </g>
            </g>
            <g id="Group_1113264" data-name="Group 1113264" transform="translate(354.601 204.963)" opacity="0.17">
              <g id="Group_1113263" data-name="Group 1113263">
                <g id="Group_1113262" data-name="Group 1113262" clip-path="url(#clip-path-14)">
                  <path id="Path_906405" data-name="Path 906405" d="M498.922,288.382s.077.387.15.759c-.04-.2-.087-.441-.15-.759" transform="translate(-498.922 -288.382)" fill="#ff887c"/>
                </g>
              </g>
            </g>
            <g id="Group_1113267" data-name="Group 1113267" transform="translate(354.751 205.722)" opacity="0.17">
              <g id="Group_1113266" data-name="Group 1113266">
                <g id="Group_1113265" data-name="Group 1113265" clip-path="url(#clip-path-15)">
                  <path id="Path_906406" data-name="Path 906406" d="M499.134,289.45l.075.38c-.023-.113-.048-.244-.075-.38" transform="translate(-499.134 -289.45)" fill="#ff887c"/>
                </g>
              </g>
            </g>
            <path id="Path_906407" data-name="Path 906407" d="M423.094,79.218a11.323,11.323,0,0,0-16.926-8.163,9.972,9.972,0,0,0-15.467-1.98,13.162,13.162,0,0,0-14.59,21.65l-2.677,14.3a7.561,7.561,0,0,0,6.041,8.824l31.715,5.937a7.562,7.562,0,0,0,8.824-6.041l5.2-27.756a7.552,7.552,0,0,0-2.116-6.768" transform="translate(-107.504 -19.167)" fill="#1b1b25"/>
            <path id="Path_906408" data-name="Path 906408" d="M378.033,89.386a.357.357,0,0,1-.3-.166c-5.665-8.965,2.138-14.714,2.217-14.771a.355.355,0,1,1,.414.577c-.3.217-7.333,5.423-2.031,13.815a.356.356,0,0,1-.11.49.36.36,0,0,1-.19.055" transform="translate(-108.669 -21.516)" fill="#fcf0e3"/>
            <path id="Path_906409" data-name="Path 906409" d="M418.3,117.007l-.694-.13-7-15.048A11.335,11.335,0,0,1,405.871,100a8.526,8.526,0,0,1-12.036.505,13.149,13.149,0,0,1-15.9,1.12l-4.876,26.052a14.347,14.347,0,0,0,1.807,10.041,14.575,14.575,0,0,0,10.256,8.758v17.2a10.9,10.9,0,0,0,10.866,10.865h3.427a10.9,10.9,0,0,0,10.866-10.865V144.143a14.507,14.507,0,0,0,3.554-7.122l.891-4.757.694.129a7.637,7.637,0,0,0,8.886-6.083l.078-.418a7.637,7.637,0,0,0-6.084-8.886" transform="translate(-107.843 -28.926)" fill="#fec29e"/>
            <g id="Group_1113270" data-name="Group 1113270" transform="translate(267.026 102.735)" opacity="0.32">
              <g id="Group_1113269" data-name="Group 1113269">
                <g id="Group_1113268" data-name="Group 1113268" clip-path="url(#clip-path-16)">
                  <path id="Path_906410" data-name="Path 906410" d="M413.952,144.548l-.635,3.394a14.421,14.421,0,0,1-16.829,11.522l-11.068-2.072a14.371,14.371,0,0,1-9.714-6.788,14.583,14.583,0,0,0,10.848,8.9l.441.082a10.89,10.89,0,0,0,9.783,6.18h3.47a10.9,10.9,0,0,0,10.571-8.4,14.53,14.53,0,0,0,3.854-7.457l.891-4.757Z" transform="translate(-375.705 -144.548)" fill="#ff887c"/>
                </g>
              </g>
            </g>
            <path id="Path_906411" data-name="Path 906411" d="M436.4,135.814a.354.354,0,0,1-.218-.075l-2.765-2.146a.355.355,0,0,1-.026-.539l3.409-3.219a.355.355,0,1,1,.488.517l-3.108,2.934,2.438,1.892a.355.355,0,0,1-.218.636" transform="translate(-125.334 -37.529)" fill="#fb8e77"/>
            <path id="Path_906412" data-name="Path 906412" d="M410.247,117.788a4.213,4.213,0,0,1-1.633-.621c-.547-.3-1.1-.579-1.6-.808s-1.069-.475-1.647-.7a4.17,4.17,0,0,1-1.522-.849c-.34-.377-.273-.969.522-1.366a4.818,4.818,0,0,1,3.932.269A4.675,4.675,0,0,1,411,116.529c.187.855-.24,1.28-.751,1.259" transform="translate(-116.764 -32.728)" fill="#1b1b25"/>
            <path id="Path_906413" data-name="Path 906413" d="M380.956,116.079a4.731,4.731,0,0,0,1.71.354c.619.053,1.24.12,1.778.2s1.155.181,1.765.3a4.7,4.7,0,0,0,1.736.13c.486-.109.742-.581.277-1.267a5.156,5.156,0,0,0-3.473-1.756,4.959,4.959,0,0,0-3.767.742c-.608.537-.471,1.063-.027,1.3" transform="translate(-110.087 -32.967)" fill="#1b1b25"/>
            <path id="Path_906414" data-name="Path 906414" d="M405.283,127.061l.048.009a.883.883,0,0,0,1.026-.7l.21-1.126a.881.881,0,0,0-.7-1.026l-.048-.009a.882.882,0,0,0-1.026.7l-.21,1.126a.881.881,0,0,0,.7,1.026" transform="translate(-117.027 -35.924)" fill="#1b1b25"/>
            <path id="Path_906415" data-name="Path 906415" d="M383.728,123.558l.048.009a.883.883,0,0,0,1.026-.7l.21-1.126a.882.882,0,0,0-.7-1.026l-.048-.009a.882.882,0,0,0-1.026.7l-.211,1.126a.882.882,0,0,0,.7,1.026" transform="translate(-110.792 -34.911)" fill="#1b1b25"/>
            <g id="Group_1113273" data-name="Group 1113273" transform="translate(287.92 92.978)" opacity="0.17">
              <g id="Group_1113272" data-name="Group 1113272">
                <g id="Group_1113271" data-name="Group 1113271" clip-path="url(#clip-path-17)">
                  <path id="Path_906416" data-name="Path 906416" d="M406.07,133.052l3.145.354a1.092,1.092,0,0,0,1.2-.961l.007-.06a1.093,1.093,0,0,0-.961-1.2l-3.145-.353a1.092,1.092,0,0,0-1.2.96l-.007.06a1.092,1.092,0,0,0,.961,1.2" transform="translate(-405.103 -130.82)" fill="#ff887c"/>
                </g>
              </g>
            </g>
            <g id="Group_1113276" data-name="Group 1113276" transform="translate(267.178 89.71)" opacity="0.17">
              <g id="Group_1113275" data-name="Group 1113275">
                <g id="Group_1113274" data-name="Group 1113274" clip-path="url(#clip-path-18)">
                  <path id="Path_906417" data-name="Path 906417" d="M376.886,128.454l3.145.354a1.092,1.092,0,0,0,1.2-.961l.007-.06a1.093,1.093,0,0,0-.961-1.2l-3.145-.353a1.092,1.092,0,0,0-1.2.96l-.006.06a1.092,1.092,0,0,0,.96,1.2" transform="translate(-375.919 -126.222)" fill="#ff887c"/>
                </g>
              </g>
            </g>
            <path id="Path_906418" data-name="Path 906418" d="M390.031,151.492a.356.356,0,0,1-.21-.643,3.362,3.362,0,0,1,3.832,0,.355.355,0,0,1-.408.582,2.666,2.666,0,0,0-3,0,.353.353,0,0,1-.21.068" transform="translate(-112.72 -43.46)" fill="#fb8e77"/>
            <path id="Path_906419" data-name="Path 906419" d="M393.558,137.3l8.311-1.188L400.96,139a4.441,4.441,0,0,1-4.235,3.105,2.95,2.95,0,0,1-2.933-2.635Z" transform="translate(-113.843 -39.374)" fill="#fff"/>
            <path id="Path_906420" data-name="Path 906420" d="M394.391,128.269a.356.356,0,0,1-.09-.011l-2.577-.671a3.625,3.625,0,0,1-2.257-5.268l3.925-7.065a.356.356,0,0,1,.622.345l-3.925,7.065A2.915,2.915,0,0,0,391.9,126.9l2.577.671a.356.356,0,0,1-.09.7" transform="translate(-112.527 -33.286)" fill="#fb8e77"/>
            <path id="Path_906421" data-name="Path 906421" d="M202.322,172.338,173.85,119.546l-3.357-7.921s-11.829-27.439-21.415-19.377l.04.2a3.29,3.29,0,0,0-1.139-.906,2.433,2.433,0,0,0-2.068-.043,2.911,2.911,0,0,0-1.057,3.935l8.185,17.478a14.534,14.534,0,0,0-2.315-1.98,12.671,12.671,0,0,0-2.92-1.907,4.083,4.083,0,0,0-5.213,1.207,1.376,1.376,0,0,0-.293,1.028,1.64,1.64,0,0,0,.563.79c2.313,2.141,4.866,4.012,7.132,6.205a11.911,11.911,0,0,0,4.748,7.86,12.859,12.859,0,0,1,4.117,4.561l-.044.034,10.313,35.878-15.062.2v28.7h33.309a15.465,15.465,0,0,0,7.763-2.08c.109-.05.22-.1.328-.149h0a15.338,15.338,0,0,0,6.855-20.923" transform="translate(-41.157 -26.255)" fill="#fec29e"/>
            <g id="Group_1113279" data-name="Group 1113279" transform="translate(116.992 140.255)" opacity="0.17">
              <g id="Group_1113278" data-name="Group 1113278">
                <g id="Group_1113277" data-name="Group 1113277" clip-path="url(#clip-path-19)">
                  <path id="Path_906422" data-name="Path 906422" d="M184.714,226.319h0s-7.74-20.824-9.07-28.981c-5.129,0-5.908.229-11.036.229Z" transform="translate(-164.608 -197.338)" fill="#ff887c"/>
                </g>
              </g>
            </g>
            <path id="Path_906423" data-name="Path 906423" d="M165.218,123.02a.355.355,0,0,1-.286-.144,5.728,5.728,0,0,0-7.512-2,.356.356,0,0,1-.348-.62,6.514,6.514,0,0,1,8.431,2.2.356.356,0,0,1-.286.566" transform="translate(-45.383 -34.573)" fill="#fb8e77"/>
            <path id="Path_906424" data-name="Path 906424" d="M151.907,92.615a30.984,30.984,0,0,1,4.453,5.721,21.94,21.94,0,0,1,1.593,3.286,14,14,0,0,1,.8,3.6.355.355,0,0,1-.709.055v-.021a13.34,13.34,0,0,0-.692-3.421,21.3,21.3,0,0,0-1.481-3.216,29.136,29.136,0,0,0-1.962-2.976,29.552,29.552,0,0,0-2.3-2.728l0,0a.212.212,0,0,1,.3-.3" transform="translate(-43.837 -26.772)" fill="#fb8e77"/>
            <path id="Path_906425" data-name="Path 906425" d="M155.3,90.706a9.349,9.349,0,0,1,2.8,2.43,19.229,19.229,0,0,1,2.043,3.045,31.39,31.39,0,0,1,1.575,3.3l.646,1.709.574,1.733a.355.355,0,1,1-.674.222v0l0-.016-.534-1.716-.6-1.692a30.83,30.83,0,0,0-1.482-3.262,18.684,18.684,0,0,0-1.932-3,9.046,9.046,0,0,0-2.581-2.345l-.033-.018a.22.22,0,0,1,.205-.388" transform="translate(-44.832 -26.231)" fill="#fb8e77"/>
            <path id="Path_906426" data-name="Path 906426" d="M160.792,91.544a17.661,17.661,0,0,1,2.171,2.116,20.442,20.442,0,0,1,1.825,2.412,19.241,19.241,0,0,1,1.463,2.655,20.006,20.006,0,0,1,1.049,2.855.355.355,0,0,1-.681.2l0-.006,0-.018a19.218,19.218,0,0,0-.943-2.778,18.6,18.6,0,0,0-1.355-2.612,19.84,19.84,0,0,0-1.722-2.4,17.246,17.246,0,0,0-2.054-2.107l-.009-.007a.207.207,0,0,1,.264-.319" transform="translate(-46.414 -26.467)" fill="#fb8e77"/>
            <g id="Group_1113282" data-name="Group 1113282" transform="translate(116.375 101.071)" opacity="0.18">
              <g id="Group_1113281" data-name="Group 1113281">
                <g id="Group_1113280" data-name="Group 1113280" clip-path="url(#clip-path-20)">
                  <path id="Path_906427" data-name="Path 906427" d="M163.74,143.565l11-1.358-6.8,13.533s-2.025-10.063-4.2-12.175" transform="translate(-163.74 -142.207)" fill="#ff887c"/>
                </g>
              </g>
            </g>
            <path id="Path_906428" data-name="Path 906428" d="M74.4,197.679l0,.014c-.17,0-.338-.014-.51-.014H39.129a17.655,17.655,0,0,0-16.51,11.4l0,0-.053.145-.026.069L7.751,249.6l13.727,1.679v44.761H96.185l5.586-69.666h13V197.538Z" transform="translate(-2.242 -57.141)" fill="#fff"/>
            <g id="Group_1113285" data-name="Group 1113285" transform="translate(73.22 140.398)" opacity="0.05">
              <g id="Group_1113284" data-name="Group 1113284">
                <g id="Group_1113283" data-name="Group 1113283" clip-path="url(#clip-path-21)">
                  <path id="Path_906429" data-name="Path 906429" d="M142.71,197.539l-39.689.166v0a27.933,27.933,0,0,1,26.754,27.906l-.061.762h13Z" transform="translate(-103.02 -197.539)" fill="#1b1b25"/>
                </g>
              </g>
            </g>
            <path id="Path_906430" data-name="Path 906430" d="M129.526,239.621l-14.041-2.786a3.091,3.091,0,0,0-3.623,2.424l-2.8,14.136-3.635,18.321a3.091,3.091,0,0,0,2.424,3.623l5.748,1.141,8.293,1.645a3.092,3.092,0,0,0,3.623-2.424l1.378-6.945,2.239-11.284,2.823-14.227a3.091,3.091,0,0,0-2.424-3.623" transform="translate(-30.478 -68.491)" fill="#1b1b25"/>
            <path id="Path_906431" data-name="Path 906431" d="M100.519,265.25a2.038,2.038,0,0,0-.786-.864c-.06-.088-.108-.176-.173-.264l-.335.042a2.115,2.115,0,0,0-.764-.085L84.7,265.153a11.857,11.857,0,0,1-6.478-1.346l-.332-.176.689-3.473c-.743.91-1.5,1.81-2.3,2.66a9.616,9.616,0,0,0-4.889,1.844,8.838,8.838,0,0,0-2.269,2.325,11.237,11.237,0,0,1-2.544,2.732,8.765,8.765,0,0,1-1.176.721l-.027-.038-31.3,7.748-.144.036,1.588-7.046-28.8-3.488L.4,295.221a15.54,15.54,0,0,0,11.667,18.624,13.365,13.365,0,0,0,8.589-.887,15.564,15.564,0,0,0,1.509-.627l52.973-26.075,7.181-2.692s.291-.112.8-.323l-.105-.021c3.276-1.334,21.647-9.274,17.509-17.972" transform="translate(0 -75.255)" fill="#fec29e"/>
            <g id="Group_1113288" data-name="Group 1113288" transform="translate(1.969 212.336)" opacity="0.17">
              <g id="Group_1113287" data-name="Group 1113287">
                <g id="Group_1113286" data-name="Group 1113286" clip-path="url(#clip-path-22)">
                  <path id="Path_906432" data-name="Path 906432" d="M2.827,298.756c-.03.151-.048.242-.056.285.01-.052.031-.154.056-.285" transform="translate(-2.771 -298.756)" fill="#ff887c"/>
                </g>
              </g>
            </g>
            <g id="Group_1113291" data-name="Group 1113291" transform="translate(2.246 196.027)" opacity="0.17">
              <g id="Group_1113290" data-name="Group 1113290">
                <g id="Group_1113289" data-name="Group 1113289" clip-path="url(#clip-path-23)">
                  <path id="Path_906433" data-name="Path 906433" d="M34.8,282.821c.648-2.984.461-2.726,1.445-7.011L3.16,291s3.279-.987,7.8-2.188c.42-.153.848-.295,1.289-.414Z" transform="translate(-3.16 -275.81)" fill="#ff887c"/>
                </g>
              </g>
            </g>
            <g id="Group_1113294" data-name="Group 1113294" transform="translate(2.025 211.93)" opacity="0.17">
              <g id="Group_1113293" data-name="Group 1113293">
                <g id="Group_1113292" data-name="Group 1113292" clip-path="url(#clip-path-24)">
                  <path id="Path_906434" data-name="Path 906434" d="M2.93,298.184l-.08.407.08-.407" transform="translate(-2.85 -298.184)" fill="#ff887c"/>
                </g>
              </g>
            </g>
            <g id="Group_1113297" data-name="Group 1113297" transform="translate(1.963 212.621)" opacity="0.17">
              <g id="Group_1113296" data-name="Group 1113296">
                <g id="Group_1113295" data-name="Group 1113295" clip-path="url(#clip-path-25)">
                  <path id="Path_906435" data-name="Path 906435" d="M2.767,299.157c-.009.042-.009.044,0,0" transform="translate(-2.761 -299.157)" fill="#ff887c"/>
                </g>
              </g>
            </g>
            <g id="Group_1113300" data-name="Group 1113300" transform="translate(2.106 211.222)" opacity="0.17">
              <g id="Group_1113299" data-name="Group 1113299">
                <g id="Group_1113298" data-name="Group 1113298" clip-path="url(#clip-path-26)">
                  <path id="Path_906436" data-name="Path 906436" d="M3.1,297.188l-.14.708.14-.708" transform="translate(-2.963 -297.188)" fill="#ff887c"/>
                </g>
              </g>
            </g>
            <g id="Group_1113303" data-name="Group 1113303" transform="translate(31.36 174.228)" opacity="0.35">
              <g id="Group_1113302" data-name="Group 1113302">
                <g id="Group_1113301" data-name="Group 1113301" clip-path="url(#clip-path-27)">
                  <path id="Path_906437" data-name="Path 906437" d="M50.761,267.293a.3.3,0,0,1-.043,0l-6.282-.775a.355.355,0,0,1,.087-.705l5.941.733,3.307-21.1a.355.355,0,1,1,.7.109l-3.36,21.445a.356.356,0,0,1-.351.3" transform="translate(-44.123 -245.138)" fill="#1b1b25"/>
                </g>
              </g>
            </g>
            <g id="Group_1113306" data-name="Group 1113306" transform="translate(45.336 195.067)" opacity="0.08">
              <g id="Group_1113305" data-name="Group 1113305">
                <g id="Group_1113304" data-name="Group 1113304" clip-path="url(#clip-path-28)">
                  <path id="Path_906438" data-name="Path 906438" d="M63.788,279.478l14.183-.355c2.647.348,6.859-2.039,6.369-4.663Z" transform="translate(-63.788 -274.459)" fill="#ff887c"/>
                </g>
              </g>
            </g>
            <path id="Path_906439" data-name="Path 906439" d="M98.778,158.657l-4.823-32.828a36.282,36.282,0,0,0-3.039-10.119l2.619-.421S91.7,88.644,61.812,95.006a36.363,36.363,0,0,0-9.034.2,26.569,26.569,0,0,0-22.425,30.149l2.812,19.136a26.57,26.57,0,0,0,30.149,22.425l32.921-4.837a3.013,3.013,0,0,0,2.543-3.419" transform="translate(-8.697 -27.198)" fill="#1b1b25"/>
            <path id="Path_906440" data-name="Path 906440" d="M98.705,116.079a.355.355,0,0,1-.048-.707l9.61-1.312a.287.287,0,0,0,.193-.116.27.27,0,0,0,.049-.2c-1.554-8.662-9.534-12.659-9.614-12.7a.355.355,0,1,1,.312-.638c.083.041,8.382,4.186,10,13.21a.97.97,0,0,1-.173.747,1,1,0,0,1-.672.4l-9.61,1.313a.276.276,0,0,1-.048,0" transform="translate(-28.449 -29.033)" fill="#fcf0e3"/>
            <path id="Path_906441" data-name="Path 906441" d="M93.212,123.024l-26.306,4.227-6.385-9.442c1.254,10.535-6.515,17.34-6.515,17.34s-.08-.109-.217-.308l-.218.04a7.615,7.615,0,1,0,2.8,14.969l.5-.094a19.6,19.6,0,0,0,5.693,9.964V176.58a10.866,10.866,0,0,0,21.731,0V163.265a19.717,19.717,0,0,0,9.652-9.678l.012-.019a19.426,19.426,0,0,0,2.424-13.578Z" transform="translate(-13.699 -34.078)" fill="#fec29e"/>
            <g id="Group_1113309" data-name="Group 1113309" transform="translate(43.194 115.439)" opacity="0.32">
              <g id="Group_1113308" data-name="Group 1113308">
                <g id="Group_1113307" data-name="Group 1113307" clip-path="url(#clip-path-29)">
                  <path id="Path_906442" data-name="Path 906442" d="M84.684,175.659h0a19.511,19.511,0,0,1-22.138-13.127c-.1-.3-1.814.092-1.771.278a19.586,19.586,0,0,0,5.726,9.864,10.852,10.852,0,0,0,20.439,4.011,19.7,19.7,0,0,0,10.9-10.211,19.459,19.459,0,0,1-13.161,9.185" transform="translate(-60.774 -162.422)" fill="#ff887c"/>
                </g>
              </g>
            </g>
            <path id="Path_906443" data-name="Path 906443" d="M54.581,153.45a.355.355,0,0,1-.218-.636l2.363-1.834-3.016-2.846a.355.355,0,0,1,.488-.517l3.318,3.132a.356.356,0,0,1-.026.539L54.8,153.376a.352.352,0,0,1-.217.075" transform="translate(-15.504 -42.673)" fill="#fb8e77"/>
            <path id="Path_906444" data-name="Path 906444" d="M81.42,136.511a2.5,2.5,0,0,0,.969-.369c.324-.176.655-.344.947-.48s.634-.281.977-.418a2.475,2.475,0,0,0,.9-.5c.2-.224.162-.576-.31-.811a2.855,2.855,0,0,0-2.334.16,2.773,2.773,0,0,0-1.6,1.674c-.111.507.141.76.446.748" transform="translate(-23.415 -38.69)" fill="#1b1b25"/>
            <path id="Path_906445" data-name="Path 906445" d="M106.371,132.184a2.5,2.5,0,0,1-1.033-.086c-.36-.079-.724-.149-1.043-.2s-.688-.1-1.055-.131a2.482,2.482,0,0,1-1.008-.235c-.255-.159-.315-.508.074-.865a2.86,2.86,0,0,1,2.287-.493,2.773,2.773,0,0,1,2,1.167c.247.457.074.769-.222.842" transform="translate(-29.513 -37.642)" fill="#1b1b25"/>
            <path id="Path_906446" data-name="Path 906446" d="M91.131,157.144a7,7,0,0,1-4.886-2.318.356.356,0,0,1,.547-.455c.113.135,2.81,3.285,6.577,1.546a.355.355,0,1,1,.3.645,5.993,5.993,0,0,1-2.536.581" transform="translate(-24.924 -44.618)" fill="#fb8e77"/>
            <path id="Path_906447" data-name="Path 906447" d="M95.994,146.954a.356.356,0,0,1-.068-.7l2.5-.492a2.874,2.874,0,0,0,2.263-3.371,1.04,1.04,0,0,0-1.217-.817,2.431,2.431,0,0,1-2.851-1.913l-.6-3.065a.355.355,0,0,1,.7-.137l.6,3.065a1.718,1.718,0,0,0,2.015,1.353,1.747,1.747,0,0,1,2.053,1.377,3.586,3.586,0,0,1-2.822,4.206l-2.5.492a.382.382,0,0,1-.069.006" transform="translate(-27.665 -39.389)" fill="#fb8e77"/>
            <path id="Path_906448" data-name="Path 906448" d="M85.672,144.935h0a.882.882,0,0,1-1.026-.7l-.2-1.048a.879.879,0,1,1,1.729-.323l.2,1.048a.881.881,0,0,1-.7,1.026" transform="translate(-24.424 -41.117)" fill="#1b1b25"/>
            <path id="Path_906449" data-name="Path 906449" d="M106.642,141.527h0a.883.883,0,0,1-1.027-.7l-.2-1.049a.879.879,0,1,1,1.729-.323l.2,1.048a.881.881,0,0,1-.7,1.026" transform="translate(-30.49 -40.131)" fill="#1b1b25"/>
            <g id="Group_1113312" data-name="Group 1113312" transform="translate(56.415 105.608)" opacity="0.17">
              <g id="Group_1113311" data-name="Group 1113311">
                <g id="Group_1113310" data-name="Group 1113310" clip-path="url(#clip-path-30)">
                  <path id="Path_906450" data-name="Path 906450" d="M83.588,150.761l-3,.338a1.089,1.089,0,1,1-.243-2.164l3-.338a1.089,1.089,0,1,1,.244,2.164" transform="translate(-79.376 -148.59)" fill="#ff887c"/>
                </g>
              </g>
            </g>
            <g id="Group_1113315" data-name="Group 1113315" transform="translate(76.595 102.429)" opacity="0.17">
              <g id="Group_1113314" data-name="Group 1113314">
                <g id="Group_1113313" data-name="Group 1113313" clip-path="url(#clip-path-31)">
                  <path id="Path_906451" data-name="Path 906451" d="M111.981,146.289l-3,.338a1.089,1.089,0,0,1-.244-2.165l3-.337a1.089,1.089,0,1,1,.243,2.164" transform="translate(-107.769 -144.118)" fill="#ff887c"/>
                </g>
              </g>
            </g>
            <path id="Path_906452" data-name="Path 906452" d="M99.691,168.7a.351.351,0,0,1-.209-.068,2.582,2.582,0,0,0-2.912,0,.358.358,0,0,1-.495-.088.354.354,0,0,1,.087-.494,3.277,3.277,0,0,1,3.738,0,.355.355,0,0,1-.21.642" transform="translate(-27.773 -48.443)" fill="#fb8e77"/>
          </g>
        </g>
      </g>
    </g>
  </g>
</svg>
