<svg xmlns="http://www.w3.org/2000/svg" xmlns:xlink="http://www.w3.org/1999/xlink" width="99.075" height="99.075" viewBox="0 0 99.075 99.075">
  <defs>
    <filter id="Path_903571" x="0" y="0" width="99.075" height="99.075" filterUnits="userSpaceOnUse">
      <feOffset dy="3" input="SourceAlpha"/>
      <feGaussianBlur stdDeviation="3" result="blur"/>
      <feFlood flood-opacity="0.161"/>
      <feComposite operator="in" in2="blur"/>
    </filter>
    <filter id="Path_903571-2" x="0" y="0" width="99.075" height="99.075" filterUnits="userSpaceOnUse">
      <feOffset dy="3" input="SourceAlpha"/>
      <feGaussianBlur stdDeviation="3" result="blur-2"/>
      <feFlood flood-opacity="0.161" result="color"/>
      <feComposite operator="out" in="SourceGraphic" in2="blur-2"/>
      <feComposite operator="in" in="color"/>
      <feComposite operator="in" in2="SourceGraphic"/>
    </filter>
  </defs>
  <g id="Group_1113458" data-name="Group 1113458" transform="translate(-175.051 -2178)">
    <g data-type="innerShadowGroup">
      <g transform="matrix(1, 0, 0, 1, 175.05, 2178)" filter="url(#Path_903571)">
        <g id="Path_903571-3" data-name="Path 903571" transform="translate(9 6)" fill="#fd9826">
          <path d="M 40.53753280639648 79.0751953125 C 35.33412170410156 79.0751953125 30.28741455078125 78.05654907226562 25.5376033782959 76.04753875732422 C 20.94881439208984 74.10664367675781 16.82724952697754 71.32766723632812 13.28739166259766 67.78779602050781 C 9.74752140045166 64.2479248046875 6.968544483184814 60.12634658813477 5.027650356292725 55.53754806518555 C 3.018650531768799 50.78773498535156 2.000003337860107 45.74101638793945 2.000003337860107 40.53759384155273 C 2.000003337860107 35.33417129516602 3.018650531768799 30.28745269775391 5.027650356292725 25.53764152526855 C 6.968544483184814 20.9488525390625 9.74752140045166 16.8272762298584 13.28738021850586 13.2874059677124 C 16.82724952697754 9.74753475189209 20.94881439208984 6.968558311462402 25.5376033782959 5.027652740478516 C 30.28741455078125 3.018652677536011 35.33412170410156 2.000005722045898 40.53753280639648 2.000005722045898 C 45.74094390869141 2.000005722045898 50.78765106201172 3.018652677536011 55.53746032714844 5.027652740478516 C 60.12625122070312 6.968558311462402 64.24781799316406 9.74753475189209 67.78768920898438 13.2874059677124 C 71.32754516601562 16.8272762298584 74.10652160644531 20.9488525390625 76.04741668701172 25.53764152526855 C 78.05641174316406 30.28745269775391 79.07506561279297 35.33417129516602 79.07506561279297 40.53759384155273 C 79.07506561279297 45.74101638793945 78.05641174316406 50.78773498535156 76.04741668701172 55.53754806518555 C 74.10652160644531 60.12634658813477 71.32754516601562 64.2479248046875 67.78767395019531 67.78779602050781 C 64.24781799316406 71.32766723632812 60.12625122070312 74.10664367675781 55.53746032714844 76.04753875732422 C 50.78765106201172 78.05654907226562 45.74094390869141 79.0751953125 40.53753280639648 79.0751953125 Z" stroke="none"/>
          <path d="M 40.53753280639648 3.999992370605469 C 35.60323333740234 3.999992370605469 30.81866073608398 4.965492248535156 26.31670379638672 6.869651794433594 C 21.9663200378418 8.709724426269531 18.05843353271484 11.34476470947266 14.70160675048828 14.70160675048828 C 11.34476470947266 18.05845260620117 8.709716796875 21.96633529663086 6.869659423828125 26.31673812866211 C 4.965492248535156 30.81869506835938 4.000007629394531 35.60327911376953 4.000007629394531 40.53759384155273 C 4.000007629394531 45.47190856933594 4.965492248535156 50.25649261474609 6.869659423828125 54.75845336914062 C 8.709716796875 59.10883712768555 11.34476470947266 63.01673889160156 14.70160675048828 66.37358093261719 C 18.05843353271484 69.73040771484375 21.9663200378418 72.36546325683594 26.31670379638672 74.20552062988281 C 30.81866073608398 76.10968017578125 35.60323333740234 77.07518005371094 40.53753280639648 77.07518005371094 C 45.47183227539062 77.07518005371094 50.25640487670898 76.10968017578125 54.75836181640625 74.20552062988281 C 59.10874938964844 72.36546325683594 63.01663208007812 69.73040771484375 66.37345886230469 66.37358093261719 C 69.73030090332031 63.01673889160156 72.36534881591797 59.10883712768555 74.20540618896484 54.75845336914062 C 76.10957336425781 50.25649261474609 77.07505798339844 45.47190856933594 77.07505798339844 40.53759384155273 C 77.07505798339844 35.60327911376953 76.10957336425781 30.81869506835938 74.20540618896484 26.31673812866211 C 72.36534881591797 21.96633529663086 69.73030090332031 18.05845260620117 66.37345886230469 14.70160675048828 C 63.01663208007812 11.34476470947266 59.10874938964844 8.709724426269531 54.75836181640625 6.869651794433594 C 50.25640487670898 4.965492248535156 45.47183227539062 3.999992370605469 40.53753280639648 3.999992370605469 M 40.53753280639648 -7.62939453125e-06 C 62.92578887939453 -7.62939453125e-06 81.07505798339844 18.1492919921875 81.07505798339844 40.53759384155273 C 81.07505798339844 62.92589569091797 62.92578887939453 81.07518005371094 40.53753280639648 81.07518005371094 C 18.14927673339844 81.07518005371094 7.62939453125e-06 62.92589569091797 7.62939453125e-06 40.53759384155273 C 7.62939453125e-06 18.1492919921875 18.14927673339844 -7.62939453125e-06 40.53753280639648 -7.62939453125e-06 Z" stroke="none" fill="#fff"/>
        </g>
      </g>
      <g id="Path_903571-4" data-name="Path 903571" transform="translate(184.051 2184)" fill="#fd9826">
        <path d="M 40.53753280639648 79.0751953125 C 35.33412170410156 79.0751953125 30.28741455078125 78.05654907226562 25.5376033782959 76.04753875732422 C 20.94881439208984 74.10664367675781 16.82724952697754 71.32766723632812 13.28739166259766 67.78779602050781 C 9.74752140045166 64.2479248046875 6.968544483184814 60.12634658813477 5.027650356292725 55.53754806518555 C 3.018650531768799 50.78773498535156 2.000003337860107 45.74101638793945 2.000003337860107 40.53759384155273 C 2.000003337860107 35.33417129516602 3.018650531768799 30.28745269775391 5.027650356292725 25.53764152526855 C 6.968544483184814 20.9488525390625 9.74752140045166 16.8272762298584 13.28738021850586 13.2874059677124 C 16.82724952697754 9.74753475189209 20.94881439208984 6.968558311462402 25.5376033782959 5.027652740478516 C 30.28741455078125 3.018652677536011 35.33412170410156 2.000005722045898 40.53753280639648 2.000005722045898 C 45.74094390869141 2.000005722045898 50.78765106201172 3.018652677536011 55.53746032714844 5.027652740478516 C 60.12625122070312 6.968558311462402 64.24781799316406 9.74753475189209 67.78768920898438 13.2874059677124 C 71.32754516601562 16.8272762298584 74.10652160644531 20.9488525390625 76.04741668701172 25.53764152526855 C 78.05641174316406 30.28745269775391 79.07506561279297 35.33417129516602 79.07506561279297 40.53759384155273 C 79.07506561279297 45.74101638793945 78.05641174316406 50.78773498535156 76.04741668701172 55.53754806518555 C 74.10652160644531 60.12634658813477 71.32754516601562 64.2479248046875 67.78767395019531 67.78779602050781 C 64.24781799316406 71.32766723632812 60.12625122070312 74.10664367675781 55.53746032714844 76.04753875732422 C 50.78765106201172 78.05654907226562 45.74094390869141 79.0751953125 40.53753280639648 79.0751953125 Z" stroke="none"/>
        <path d="M 40.53753280639648 3.999992370605469 C 35.60323333740234 3.999992370605469 30.81866073608398 4.965492248535156 26.31670379638672 6.869651794433594 C 21.9663200378418 8.709724426269531 18.05843353271484 11.34476470947266 14.70160675048828 14.70160675048828 C 11.34476470947266 18.05845260620117 8.709716796875 21.96633529663086 6.869659423828125 26.31673812866211 C 4.965492248535156 30.81869506835938 4.000007629394531 35.60327911376953 4.000007629394531 40.53759384155273 C 4.000007629394531 45.47190856933594 4.965492248535156 50.25649261474609 6.869659423828125 54.75845336914062 C 8.709716796875 59.10883712768555 11.34476470947266 63.01673889160156 14.70160675048828 66.37358093261719 C 18.05843353271484 69.73040771484375 21.9663200378418 72.36546325683594 26.31670379638672 74.20552062988281 C 30.81866073608398 76.10968017578125 35.60323333740234 77.07518005371094 40.53753280639648 77.07518005371094 C 45.47183227539062 77.07518005371094 50.25640487670898 76.10968017578125 54.75836181640625 74.20552062988281 C 59.10874938964844 72.36546325683594 63.01663208007812 69.73040771484375 66.37345886230469 66.37358093261719 C 69.73030090332031 63.01673889160156 72.36534881591797 59.10883712768555 74.20540618896484 54.75845336914062 C 76.10957336425781 50.25649261474609 77.07505798339844 45.47190856933594 77.07505798339844 40.53759384155273 C 77.07505798339844 35.60327911376953 76.10957336425781 30.81869506835938 74.20540618896484 26.31673812866211 C 72.36534881591797 21.96633529663086 69.73030090332031 18.05845260620117 66.37345886230469 14.70160675048828 C 63.01663208007812 11.34476470947266 59.10874938964844 8.709724426269531 54.75836181640625 6.869651794433594 C 50.25640487670898 4.965492248535156 45.47183227539062 3.999992370605469 40.53753280639648 3.999992370605469 M 40.53753280639648 -7.62939453125e-06 C 62.92578887939453 -7.62939453125e-06 81.07505798339844 18.1492919921875 81.07505798339844 40.53759384155273 C 81.07505798339844 62.92589569091797 62.92578887939453 81.07518005371094 40.53753280639648 81.07518005371094 C 18.14927673339844 81.07518005371094 7.62939453125e-06 62.92589569091797 7.62939453125e-06 40.53759384155273 C 7.62939453125e-06 18.1492919921875 18.14927673339844 -7.62939453125e-06 40.53753280639648 -7.62939453125e-06 Z" stroke="none"/>
      </g>
      <g transform="matrix(1, 0, 0, 1, 175.05, 2178)" filter="url(#Path_903571-2)">
        <g id="Path_903571-5" data-name="Path 903571" transform="translate(9 6)" fill="#fff">
          <path d="M 40.53753280639648 79.0751953125 C 35.33412170410156 79.0751953125 30.28741455078125 78.05654907226562 25.5376033782959 76.04753875732422 C 20.94881439208984 74.10664367675781 16.82724952697754 71.32766723632812 13.28739166259766 67.78779602050781 C 9.74752140045166 64.2479248046875 6.968544483184814 60.12634658813477 5.027650356292725 55.53754806518555 C 3.018650531768799 50.78773498535156 2.000003337860107 45.74101638793945 2.000003337860107 40.53759384155273 C 2.000003337860107 35.33417129516602 3.018650531768799 30.28745269775391 5.027650356292725 25.53764152526855 C 6.968544483184814 20.9488525390625 9.74752140045166 16.8272762298584 13.28738021850586 13.2874059677124 C 16.82724952697754 9.74753475189209 20.94881439208984 6.968558311462402 25.5376033782959 5.027652740478516 C 30.28741455078125 3.018652677536011 35.33412170410156 2.000005722045898 40.53753280639648 2.000005722045898 C 45.74094390869141 2.000005722045898 50.78765106201172 3.018652677536011 55.53746032714844 5.027652740478516 C 60.12625122070312 6.968558311462402 64.24781799316406 9.74753475189209 67.78768920898438 13.2874059677124 C 71.32754516601562 16.8272762298584 74.10652160644531 20.9488525390625 76.04741668701172 25.53764152526855 C 78.05641174316406 30.28745269775391 79.07506561279297 35.33417129516602 79.07506561279297 40.53759384155273 C 79.07506561279297 45.74101638793945 78.05641174316406 50.78773498535156 76.04741668701172 55.53754806518555 C 74.10652160644531 60.12634658813477 71.32754516601562 64.2479248046875 67.78767395019531 67.78779602050781 C 64.24781799316406 71.32766723632812 60.12625122070312 74.10664367675781 55.53746032714844 76.04753875732422 C 50.78765106201172 78.05654907226562 45.74094390869141 79.0751953125 40.53753280639648 79.0751953125 Z" stroke="none"/>
          <path d="M 40.53753280639648 3.999992370605469 C 35.60323333740234 3.999992370605469 30.81866073608398 4.965492248535156 26.31670379638672 6.869651794433594 C 21.9663200378418 8.709724426269531 18.05843353271484 11.34476470947266 14.70160675048828 14.70160675048828 C 11.34476470947266 18.05845260620117 8.709716796875 21.96633529663086 6.869659423828125 26.31673812866211 C 4.965492248535156 30.81869506835938 4.000007629394531 35.60327911376953 4.000007629394531 40.53759384155273 C 4.000007629394531 45.47190856933594 4.965492248535156 50.25649261474609 6.869659423828125 54.75845336914062 C 8.709716796875 59.10883712768555 11.34476470947266 63.01673889160156 14.70160675048828 66.37358093261719 C 18.05843353271484 69.73040771484375 21.9663200378418 72.36546325683594 26.31670379638672 74.20552062988281 C 30.81866073608398 76.10968017578125 35.60323333740234 77.07518005371094 40.53753280639648 77.07518005371094 C 45.47183227539062 77.07518005371094 50.25640487670898 76.10968017578125 54.75836181640625 74.20552062988281 C 59.10874938964844 72.36546325683594 63.01663208007812 69.73040771484375 66.37345886230469 66.37358093261719 C 69.73030090332031 63.01673889160156 72.36534881591797 59.10883712768555 74.20540618896484 54.75845336914062 C 76.10957336425781 50.25649261474609 77.07505798339844 45.47190856933594 77.07505798339844 40.53759384155273 C 77.07505798339844 35.60327911376953 76.10957336425781 30.81869506835938 74.20540618896484 26.31673812866211 C 72.36534881591797 21.96633529663086 69.73030090332031 18.05845260620117 66.37345886230469 14.70160675048828 C 63.01663208007812 11.34476470947266 59.10874938964844 8.709724426269531 54.75836181640625 6.869651794433594 C 50.25640487670898 4.965492248535156 45.47183227539062 3.999992370605469 40.53753280639648 3.999992370605469 M 40.53753280639648 -7.62939453125e-06 C 62.92578887939453 -7.62939453125e-06 81.07505798339844 18.1492919921875 81.07505798339844 40.53759384155273 C 81.07505798339844 62.92589569091797 62.92578887939453 81.07518005371094 40.53753280639648 81.07518005371094 C 18.14927673339844 81.07518005371094 7.62939453125e-06 62.92589569091797 7.62939453125e-06 40.53759384155273 C 7.62939453125e-06 18.1492919921875 18.14927673339844 -7.62939453125e-06 40.53753280639648 -7.62939453125e-06 Z" stroke="none"/>
        </g>
      </g>
      <g id="Path_903571-6" data-name="Path 903571" transform="translate(184.051 2184)" fill="none">
        <path d="M 40.53753280639648 79.0751953125 C 35.33412170410156 79.0751953125 30.28741455078125 78.05654907226562 25.5376033782959 76.04753875732422 C 20.94881439208984 74.10664367675781 16.82724952697754 71.32766723632812 13.28739166259766 67.78779602050781 C 9.74752140045166 64.2479248046875 6.968544483184814 60.12634658813477 5.027650356292725 55.53754806518555 C 3.018650531768799 50.78773498535156 2.000003337860107 45.74101638793945 2.000003337860107 40.53759384155273 C 2.000003337860107 35.33417129516602 3.018650531768799 30.28745269775391 5.027650356292725 25.53764152526855 C 6.968544483184814 20.9488525390625 9.74752140045166 16.8272762298584 13.28738021850586 13.2874059677124 C 16.82724952697754 9.74753475189209 20.94881439208984 6.968558311462402 25.5376033782959 5.027652740478516 C 30.28741455078125 3.018652677536011 35.33412170410156 2.000005722045898 40.53753280639648 2.000005722045898 C 45.74094390869141 2.000005722045898 50.78765106201172 3.018652677536011 55.53746032714844 5.027652740478516 C 60.12625122070312 6.968558311462402 64.24781799316406 9.74753475189209 67.78768920898438 13.2874059677124 C 71.32754516601562 16.8272762298584 74.10652160644531 20.9488525390625 76.04741668701172 25.53764152526855 C 78.05641174316406 30.28745269775391 79.07506561279297 35.33417129516602 79.07506561279297 40.53759384155273 C 79.07506561279297 45.74101638793945 78.05641174316406 50.78773498535156 76.04741668701172 55.53754806518555 C 74.10652160644531 60.12634658813477 71.32754516601562 64.2479248046875 67.78767395019531 67.78779602050781 C 64.24781799316406 71.32766723632812 60.12625122070312 74.10664367675781 55.53746032714844 76.04753875732422 C 50.78765106201172 78.05654907226562 45.74094390869141 79.0751953125 40.53753280639648 79.0751953125 Z" stroke="none"/>
        <path d="M 40.53753280639648 3.999992370605469 C 35.60323333740234 3.999992370605469 30.81866073608398 4.965492248535156 26.31670379638672 6.869651794433594 C 21.9663200378418 8.709724426269531 18.05843353271484 11.34476470947266 14.70160675048828 14.70160675048828 C 11.34476470947266 18.05845260620117 8.709716796875 21.96633529663086 6.869659423828125 26.31673812866211 C 4.965492248535156 30.81869506835938 4.000007629394531 35.60327911376953 4.000007629394531 40.53759384155273 C 4.000007629394531 45.47190856933594 4.965492248535156 50.25649261474609 6.869659423828125 54.75845336914062 C 8.709716796875 59.10883712768555 11.34476470947266 63.01673889160156 14.70160675048828 66.37358093261719 C 18.05843353271484 69.73040771484375 21.9663200378418 72.36546325683594 26.31670379638672 74.20552062988281 C 30.81866073608398 76.10968017578125 35.60323333740234 77.07518005371094 40.53753280639648 77.07518005371094 C 45.47183227539062 77.07518005371094 50.25640487670898 76.10968017578125 54.75836181640625 74.20552062988281 C 59.10874938964844 72.36546325683594 63.01663208007812 69.73040771484375 66.37345886230469 66.37358093261719 C 69.73030090332031 63.01673889160156 72.36534881591797 59.10883712768555 74.20540618896484 54.75845336914062 C 76.10957336425781 50.25649261474609 77.07505798339844 45.47190856933594 77.07505798339844 40.53759384155273 C 77.07505798339844 35.60327911376953 76.10957336425781 30.81869506835938 74.20540618896484 26.31673812866211 C 72.36534881591797 21.96633529663086 69.73030090332031 18.05845260620117 66.37345886230469 14.70160675048828 C 63.01663208007812 11.34476470947266 59.10874938964844 8.709724426269531 54.75836181640625 6.869651794433594 C 50.25640487670898 4.965492248535156 45.47183227539062 3.999992370605469 40.53753280639648 3.999992370605469 M 40.53753280639648 -7.62939453125e-06 C 62.92578887939453 -7.62939453125e-06 81.07505798339844 18.1492919921875 81.07505798339844 40.53759384155273 C 81.07505798339844 62.92589569091797 62.92578887939453 81.07518005371094 40.53753280639648 81.07518005371094 C 18.14927673339844 81.07518005371094 7.62939453125e-06 62.92589569091797 7.62939453125e-06 40.53759384155273 C 7.62939453125e-06 18.1492919921875 18.14927673339844 -7.62939453125e-06 40.53753280639648 -7.62939453125e-06 Z" stroke="none" fill="#fff"/>
      </g>
    </g>
    <g id="Group_1113457" data-name="Group 1113457" transform="translate(203.051 2199)">
      <path id="Path_907158" data-name="Path 907158" d="M27.723,20.985V47.236a.4.4,0,0,0,.4.4H46.04a.4.4,0,0,0,.4-.4V20.985a.4.4,0,0,0-.4-.4H28.122A.4.4,0,0,0,27.723,20.985Zm0,0" transform="translate(-24.961 -18.536)" fill="#8cbafa"/>
      <path id="Path_907159" data-name="Path 907159" d="M64.445,20.59h3.583V47.639H64.445Zm0,0" transform="translate(-58.026 -18.539)" fill="#575b7a"/>
      <path id="Path_907160" data-name="Path 907160" d="M147.5,7.673l-12.814,18.3a.4.4,0,0,0,.1.556L149.86,37.087a.4.4,0,0,0,.556-.1l12.814-18.3a.4.4,0,0,0-.1-.556L148.056,7.575A.4.4,0,0,0,147.5,7.673Zm0,0" transform="translate(-121.206 -6.756)" fill="#aed559"/>
      <path id="Path_907161" data-name="Path 907161" d="M284.2,102.485l-1.853-1.3a.377.377,0,0,1,.058.528l-12.814,18.3a.377.377,0,0,1-.517.125l1.853,1.3a.4.4,0,0,0,.556-.1l12.814-18.3A.4.4,0,0,0,284.2,102.485Zm0,0" transform="translate(-242.276 -91.109)" fill="#7fab38"/>
      <path id="Path_907162" data-name="Path 907162" d="M223.232,119.436c-2-1.4-5.194-.284-7.138,2.492s-1.9,6.16.1,7.56,5.194.284,7.137-2.492S225.23,120.835,223.232,119.436Zm0,0" transform="translate(-193.283 -106.996)" fill="#ffeb96"/>
      <path id="Path_907163" data-name="Path 907163" d="M7.5,176.7v22.491a2.937,2.937,0,0,0,2.937,2.937H42.894a2.937,2.937,0,0,0,2.937-2.937V176.7a2.937,2.937,0,0,0-2.937-2.937H10.437A2.937,2.937,0,0,0,7.5,176.7Zm0,0" transform="translate(-6.753 -156.458)" fill="#f28f88"/>
      <path id="Path_907164" data-name="Path 907164" d="M340.429,173.766h-2.48a2.937,2.937,0,0,1,2.937,2.937v22.491a2.937,2.937,0,0,1-2.937,2.937h2.48a2.937,2.937,0,0,0,2.938-2.937V176.7A2.938,2.938,0,0,0,340.429,173.766Zm0,0" transform="translate(-304.288 -156.458)" fill="#ce675d"/>
      <path id="Path_907165" data-name="Path 907165" d="M295.352,279.022H289.4a4.618,4.618,0,1,1,0-9.237h5.956a3.09,3.09,0,0,1,3.09,3.091v3.056A3.09,3.09,0,0,1,295.352,279.022Zm0,0" transform="translate(-256.412 -242.913)" fill="#ffd2c0"/>
      <path id="Path_907166" data-name="Path 907166" d="M295.352,308.5H289.4A4.62,4.62,0,0,1,284.913,305a4.619,4.619,0,0,0,4.483,5.73h5.956a3.09,3.09,0,0,0,3.09-3.09v-2.222A3.09,3.09,0,0,1,295.352,308.5Zm0,0" transform="translate(-256.412 -274.617)" fill="#edaa9d"/>
      <path id="Path_907167" data-name="Path 907167" d="M316.8,297.867a2.023,2.023,0,1,1-2.023-2.023A2.023,2.023,0,0,1,316.8,297.867Zm0,0" transform="translate(-281.598 -266.376)" fill="#ce675d"/>
      <path id="Path_907168" data-name="Path 907168" d="M133.361,346.559a8.278,8.278,0,1,1-8.278-8.278A8.278,8.278,0,0,1,133.361,346.559Zm0,0" transform="translate(-105.17 -304.587)" fill="#ffcd34"/>
      <path id="Path_907169" data-name="Path 907169" d="M151.917,346.781a8.277,8.277,0,0,1-9.363,13.418,8.277,8.277,0,1,0,9.363-13.418Zm0,0" transform="translate(-128.355 -312.24)" fill="#e69012"/>
      <path id="Path_907170" data-name="Path 907170" d="M250.029,39.146a.746.746,0,0,0-1.077.24c-.005.009-.011.017-.017.025a.759.759,0,0,1-1.056.186.747.747,0,0,0-1.04.183l-1.089,1.555a.747.747,0,1,0,1.224.857l.733-1.048a2.263,2.263,0,0,0,2-.4l1.1.772a.747.747,0,1,0,.857-1.224Zm0,0" transform="translate(-221.151 -35.125)"/>
      <path id="Path_907171" data-name="Path 907171" d="M357.237,97.35,356.5,98.4a.747.747,0,1,0,1.224.857l1.089-1.555a.747.747,0,0,0-.183-1.04.759.759,0,0,1-.186-1.056.281.281,0,0,1,.018-.024.748.748,0,0,0-.142-1.094l-1.639-1.147a.747.747,0,0,0-.857,1.224l1.1.771A2.262,2.262,0,0,0,357.237,97.35Zm0,0" transform="translate(-320.098 -83.919)"/>
      <path id="Path_907172" data-name="Path 907172" d="M308.024,289.834a1.263,1.263,0,0,1,.928.4.747.747,0,0,0,1.086-1.026,2.77,2.77,0,1,0-2.014,4.672,2.75,2.75,0,0,0,1.959-.811.747.747,0,1,0-1.056-1.056,1.276,1.276,0,1,1-.9-2.178Zm0,0" transform="translate(-274.849 -259.62)"/>
      <path id="Path_907173" data-name="Path 907173" d="M39.826,26.228V20.245a3.689,3.689,0,0,0-3.684-3.684H32.178a4.894,4.894,0,0,0-1.8-4.731,4.614,4.614,0,0,0-4.264-.413A8.208,8.208,0,0,0,22.2,14.5a8.963,8.963,0,0,0-1.081,2.057H16.253L26.707,1.631,41.213,11.788,39,14.944a.747.747,0,1,0,1.224.857l2.409-3.441a1.147,1.147,0,0,0-.281-1.6L27.28.208a1.146,1.146,0,0,0-1.6.281L22.225,5.427V2.449A1.148,1.148,0,0,0,21.079,1.3H3.161A1.148,1.148,0,0,0,2.014,2.449v4.09a.747.747,0,1,0,1.494,0V2.8H5.672V16.56H3.684c-.059,0-.118,0-.176,0V9.527a.747.747,0,0,0-1.494,0v7.434A3.689,3.689,0,0,0,0,20.245V42.736A3.689,3.689,0,0,0,3.684,46.42H9.262a.747.747,0,1,0,0-1.494H3.684a2.193,2.193,0,0,1-2.19-2.19V20.245a2.194,2.194,0,0,1,1.474-2.07l.056-.019a2.18,2.18,0,0,1,.66-.1H36.142a2.193,2.193,0,0,1,2.191,2.191v5.88H32.984a5.366,5.366,0,1,0,0,10.731h5.348v5.88a2.193,2.193,0,0,1-2.191,2.19H30.434a.747.747,0,1,0,0,1.494h5.708a3.689,3.689,0,0,0,3.685-3.684V36.752a3.844,3.844,0,0,0,2.951-3.734V29.962A3.845,3.845,0,0,0,39.826,26.228Zm-16.4-10.867c1.7-2.433,4.439-3.468,6.1-2.308a3.51,3.51,0,0,1,1.152,3.506h-7.94A7.633,7.633,0,0,1,23.422,15.361Zm-2.691-7.8-6.3,9H10.748V2.8h9.983ZM7.167,2.8H9.254V16.56H7.167ZM41.283,33.018a2.346,2.346,0,0,1-2.344,2.344H32.984a3.872,3.872,0,1,1,0-7.743H38.94a2.346,2.346,0,0,1,2.344,2.344Zm0,0"/>
      <path id="Path_907174" data-name="Path 907174" d="M118.334,330.777a9.025,9.025,0,1,0,9.026,9.026A9.036,9.036,0,0,0,118.334,330.777Zm0,16.557a7.531,7.531,0,1,1,7.532-7.531A7.54,7.54,0,0,1,118.334,347.334Zm0,0" transform="translate(-98.421 -297.83)"/>
      <path id="Path_907175" data-name="Path 907175" d="M175.137,375.613h-1.274a.681.681,0,0,1,0-1.362H176.3a.747.747,0,1,0,0-1.494h-.917v-.632a.747.747,0,1,0-1.494,0v.632h-.027a2.175,2.175,0,1,0,0,4.35h1.274a.681.681,0,0,1,0,1.361H172.7a.747.747,0,0,0,0,1.494h1.191v.631a.747.747,0,1,0,1.494,0v-.645a2.175,2.175,0,0,0-.247-4.336Zm0,0" transform="translate(-154.586 -334.388)"/>
    </g>
  </g>
</svg>
