<svg xmlns="http://www.w3.org/2000/svg" width="85" height="91" viewBox="0 0 85 91">
  <g id="Grupo_1112850" data-name="Grupo 1112850" transform="translate(-284.564 -3797)">
    <rect id="Rect치ngulo_405638" data-name="Rect치ngulo 405638" width="85" height="91" transform="translate(284.564 3797)" fill="none"/>
    <g id="Filledoutline" transform="translate(269.564 3791)">
      <rect id="Rect치ngulo_405637" data-name="Rect치ngulo 405637" width="40.828" height="55.345" rx="20.414" transform="translate(41.238 22.296)" fill="#0093b9"/>
      <path id="Trazado_905108" data-name="Trazado 905108" d="M176,88h30.643v45.964H176Z" transform="translate(-129.607 -61.393)" fill="#e3e4e2"/>
      <path id="Trazado_905109" data-name="Trazado 905109" d="M240.5,33.429H224V28.714h4.714L227.536,24h9.429l-1.179,4.714H240.5Z" transform="translate(-170.536 -6.821)" fill="#57c3c1"/>
      <path id="Trazado_905110" data-name="Trazado 905110" d="M74.428,269.714H32V232H53.214v18.857H74.428Z" transform="translate(-6.821 -184.179)" fill="#f8bc1e"/>
      <path id="Trazado_905111" data-name="Trazado 905111" d="M224,360h7.071v7.071H224Z" transform="translate(-170.536 -293.322)" fill="#f9da62"/>
      <path id="Trazado_905112" data-name="Trazado 905112" d="M204.036,368h-1.768a1.768,1.768,0,0,0-1.768,1.768v2.991a9.384,9.384,0,0,1-9.383,9.384h-5.349A1.768,1.768,0,0,0,184,383.911v1.768h20.036Z" transform="translate(-136.429 -300.143)" fill="#f5a922"/>
      <path id="Trazado_905113" data-name="Trazado 905113" d="M80,360h7.071v7.071H80Z" transform="translate(-47.75 -293.322)" fill="#f9da62"/>
      <path id="Trazado_905114" data-name="Trazado 905114" d="M60.036,368H58.268a1.768,1.768,0,0,0-1.768,1.768v2.991a9.384,9.384,0,0,1-9.383,9.384H41.768A1.768,1.768,0,0,0,40,383.911v1.768H60.036Z" transform="translate(-13.643 -300.143)" fill="#f5a922"/>
      <path id="Trazado_905115" data-name="Trazado 905115" d="M80,232h7.071v7.071H80Z" transform="translate(-47.75 -184.179)" fill="#f9da62"/>
      <path id="Trazado_905116" data-name="Trazado 905116" d="M60.036,240H58.268a1.768,1.768,0,0,0-1.768,1.768v2.991a9.384,9.384,0,0,1-9.383,9.384H41.768A1.768,1.768,0,0,0,40,255.911v1.768H60.036Z" transform="translate(-13.643 -191)" fill="#f5a922"/>
      <path id="Trazado_905117" data-name="Trazado 905117" d="M252.807,235.232l-31.615,9.459L216,243.784l3.841-3.609,31.615-9.459a2.357,2.357,0,1,1,1.351,4.516Z" transform="translate(-163.714 -182.999)" fill="#f8bc1e"/>
      <path id="Trazado_905118" data-name="Trazado 905118" d="M248.7,225.137a3.536,3.536,0,0,0-4.4-2.374l-31.615,9.459a1.181,1.181,0,0,0-.469.27l-3.841,3.609a1.179,1.179,0,0,0,.6,2.02l5.192.907a1.181,1.181,0,0,0,.541-.032l25.653-7.675.111,2.427-8.151,2.439.676,2.258,9.033-2.7a1.179,1.179,0,0,0,.84-1.183l-.18-3.934,3.635-1.088a3.536,3.536,0,0,0,2.374-4.4Zm-34.4,11.522-2.6-.453,1.92-1.8L219,232.792l.676,2.258Zm7.637-2.285-.676-2.258,18.878-5.648.111,2.427Zm24.411-7.664a1.172,1.172,0,0,1-.7.57l-3.07.919-.111-2.427,2.506-.75a1.179,1.179,0,0,1,1.375,1.689Z" transform="translate(-156.893 -176.175)"/>
      <path id="Trazado_905119" data-name="Trazado 905119" d="M67.607,242.857H47.571V225.179A1.179,1.179,0,0,0,46.393,224H25.179A1.179,1.179,0,0,0,24,225.179v37.714a1.179,1.179,0,0,0,1.179,1.179H67.607a1.179,1.179,0,0,0,1.179-1.179V244.036A1.179,1.179,0,0,0,67.607,242.857Zm-12.964,2.357h4.714v4.714H54.643ZM33.429,226.357h4.714v4.714H33.429Zm-7.071,0h4.714v5.893a1.179,1.179,0,0,0,1.179,1.179h7.071A1.179,1.179,0,0,0,40.5,232.25v-5.893h4.714v16.5H26.357Zm7.071,18.857h4.714v4.714H33.429Zm-7.071,0h4.714v5.893a1.179,1.179,0,0,0,1.179,1.179h7.071a1.179,1.179,0,0,0,1.179-1.179v-5.893h4.714v16.5H26.357Zm40.071,16.5H47.571v-16.5h4.714v5.893a1.179,1.179,0,0,0,1.179,1.179h7.071a1.179,1.179,0,0,0,1.179-1.179v-5.893h4.714Z" transform="translate(0 -177.357)"/>
      <path id="Trazado_905120" data-name="Trazado 905120" d="M280,448h2.357v2.357H280Z" transform="translate(-218.286 -368.357)"/>
      <path id="Trazado_905121" data-name="Trazado 905121" d="M136,448h2.357v2.357H136Z" transform="translate(-95.5 -368.357)"/>
      <path id="Trazado_905122" data-name="Trazado 905122" d="M136,320h2.357v2.357H136Z" transform="translate(-95.5 -259.215)"/>
      <path id="Trazado_905123" data-name="Trazado 905123" d="M138.357,25.429a2.36,2.36,0,0,1,2.357-2.357h7.071v2.357h-5.893a1.179,1.179,0,0,0-1.179,1.179V44.286h2.357v-16.5h28.286V46.643h2.357V26.607a1.179,1.179,0,0,0-1.179-1.179h-5.893V23.071h7.071a2.36,2.36,0,0,1,2.357,2.357V45.464h2.357V25.429a4.72,4.72,0,0,0-4.714-4.714H162.259l.812-3.25A1.179,1.179,0,0,0,161.928,16H152.5a1.179,1.179,0,0,0-1.143,1.464l.812,3.25H140.714A4.72,4.72,0,0,0,136,25.429V44.286h2.357Zm11.786-2.357h3.536a1.179,1.179,0,0,0,1.143-1.464l-.812-3.25h6.41l-.812,3.25a1.179,1.179,0,0,0,1.143,1.464h3.536v2.357H150.143Z" transform="translate(-95.5)"/>
      <path id="Trazado_905124" data-name="Trazado 905124" d="M353.429,346.607a2.36,2.36,0,0,1-2.357,2.357H344v2.357h7.071a4.72,4.72,0,0,0,4.714-4.714V336h-2.357Z" transform="translate(-272.857 -272.857)"/>
      <path id="Trazado_905125" data-name="Trazado 905125" d="M351.071,352.25V344h-2.357v7.071H344v2.357h5.893A1.179,1.179,0,0,0,351.071,352.25Z" transform="translate(-272.857 -279.679)"/>
      <path id="Trazado_905126" data-name="Trazado 905126" d="M207.071,113.179A1.179,1.179,0,0,0,205.893,112h-4.714A1.179,1.179,0,0,0,200,113.179v4.714a1.179,1.179,0,0,0,1.179,1.179h4.714a1.179,1.179,0,0,0,1.179-1.179Zm-2.357,3.536h-2.357v-2.357h2.357Z" transform="translate(-150.072 -81.857)"/>
      <path id="Trazado_905127" data-name="Trazado 905127" d="M205.893,184h-4.714A1.179,1.179,0,0,0,200,185.179v4.714a1.179,1.179,0,0,0,1.179,1.179h4.714a1.179,1.179,0,0,0,1.179-1.179v-4.714A1.179,1.179,0,0,0,205.893,184Zm-1.179,4.714h-2.357v-2.357h2.357Z" transform="translate(-150.072 -143.25)"/>
      <path id="Trazado_905128" data-name="Trazado 905128" d="M264,112h2.357v2.357H264Z" transform="translate(-204.643 -81.857)"/>
      <path id="Trazado_905129" data-name="Trazado 905129" d="M264,144h14.143v2.357H264Z" transform="translate(-204.643 -109.143)"/>
      <path id="Trazado_905130" data-name="Trazado 905130" d="M296,112h9.429v2.357H296Z" transform="translate(-231.929 -81.857)"/>
      <path id="Trazado_905131" data-name="Trazado 905131" d="M264,184h2.357v2.357H264Z" transform="translate(-204.643 -143.25)"/>
      <path id="Trazado_905132" data-name="Trazado 905132" d="M264,216h14.143v2.357H264Z" transform="translate(-204.643 -170.536)"/>
      <path id="Trazado_905133" data-name="Trazado 905133" d="M296,184h9.429v2.357H296Z" transform="translate(-231.929 -143.25)"/>
    </g>
  </g>
</svg>
