<svg xmlns="http://www.w3.org/2000/svg" xmlns:xlink="http://www.w3.org/1999/xlink" width="103" height="103" viewBox="0 0 103 103">
  <defs>
    <filter id="Path_873828" x="0" y="0" width="103" height="103" filterUnits="userSpaceOnUse">
      <feOffset dy="3" input="SourceAlpha"/>
      <feGaussianBlur stdDeviation="3" result="blur"/>
      <feFlood flood-opacity="0.161"/>
      <feComposite operator="in" in2="blur"/>
    </filter>
    <filter id="Path_873828-2" x="0" y="0" width="103" height="103" filterUnits="userSpaceOnUse">
      <feOffset dy="3" input="SourceAlpha"/>
      <feGaussianBlur stdDeviation="3" result="blur-2"/>
      <feFlood flood-opacity="0.161" result="color"/>
      <feComposite operator="out" in="SourceGraphic" in2="blur-2"/>
      <feComposite operator="in" in="color"/>
      <feComposite operator="in" in2="SourceGraphic"/>
    </filter>
  </defs>
  <g id="Group_1113334" data-name="Group 1113334" transform="translate(-194.051 -2588)">
    <g data-type="innerShadowGroup">
      <g transform="matrix(1, 0, 0, 1, 194.05, 2588)" filter="url(#Path_873828)">
        <g id="Path_873828-3" data-name="Path 873828" transform="translate(9 6)" fill="#fd9826">
          <path d="M 42.5 83 C 37.03165054321289 83 31.72793769836426 81.92946624755859 26.73618698120117 79.81812286376953 C 21.91371154785156 77.77839660644531 17.582275390625 74.85792541503906 13.86217498779297 71.13782501220703 C 10.14207458496094 67.417724609375 7.22160005569458 63.08628845214844 5.181875228881836 58.26381301879883 C 3.070537567138672 53.27206420898438 2 47.96834945678711 2 42.5 C 2 37.03165054321289 3.070537567138672 31.72793769836426 5.181875228881836 26.73618698120117 C 7.22160005569458 21.91371154785156 10.14207458496094 17.582275390625 13.86217498779297 13.86217498779297 C 17.582275390625 10.14207458496094 21.91371154785156 7.22160005569458 26.73618698120117 5.181875228881836 C 31.72793769836426 3.070537567138672 37.03165054321289 2 42.5 2 C 47.96834945678711 2 53.27206420898438 3.070537567138672 58.26381301879883 5.181875228881836 C 63.08628845214844 7.22160005569458 67.417724609375 10.14207458496094 71.13782501220703 13.86217498779297 C 74.85792541503906 17.582275390625 77.77839660644531 21.91371154785156 79.81812286376953 26.73618698120117 C 81.92946624755859 31.72793769836426 83 37.03165054321289 83 42.5 C 83 47.96834945678711 81.92946624755859 53.27206420898438 79.81812286376953 58.26381301879883 C 77.77839660644531 63.08628845214844 74.85792541503906 67.417724609375 71.13782501220703 71.13782501220703 C 67.417724609375 74.85792541503906 63.08628845214844 77.77839660644531 58.26381301879883 79.81812286376953 C 53.27206420898438 81.92946624755859 47.96834945678711 83 42.5 83 Z" stroke="none"/>
          <path d="M 42.5 4 C 37.3007698059082 4 32.25918579101562 5.017387390136719 27.51528549194336 7.023887634277344 C 22.93121337890625 8.962783813476562 18.81345367431641 11.73932647705078 15.27638244628906 15.27638244628906 C 11.73932647705078 18.81345367431641 8.962783813476562 22.93121337890625 7.023887634277344 27.51528549194336 C 5.017387390136719 32.25918579101562 4 37.3007698059082 4 42.5 C 4 47.6992301940918 5.017387390136719 52.74081420898438 7.023887634277344 57.48471450805664 C 8.962783813476562 62.06878662109375 11.73932647705078 66.18653869628906 15.27638244628906 69.72361755371094 C 18.81345367431641 73.26067352294922 22.93121337890625 76.03721618652344 27.51528549194336 77.97611236572266 C 32.25918579101562 79.98261260986328 37.3007698059082 81 42.5 81 C 47.6992301940918 81 52.74081420898438 79.98261260986328 57.48471450805664 77.97611236572266 C 62.06878662109375 76.03721618652344 66.18653869628906 73.26067352294922 69.72361755371094 69.72361755371094 C 73.26067352294922 66.18653869628906 76.03721618652344 62.06878662109375 77.97611236572266 57.48471450805664 C 79.98261260986328 52.74081420898438 81 47.6992301940918 81 42.5 C 81 37.3007698059082 79.98261260986328 32.25918579101562 77.97611236572266 27.51528549194336 C 76.03721618652344 22.93121337890625 73.26067352294922 18.81345367431641 69.72361755371094 15.27638244628906 C 66.18653869628906 11.73932647705078 62.06878662109375 8.962783813476562 57.48471450805664 7.023887634277344 C 52.74081420898438 5.017387390136719 47.6992301940918 4 42.5 4 M 42.5 0 C 65.97209930419922 0 85 19.02790069580078 85 42.5 C 85 65.97209930419922 65.97209930419922 85 42.5 85 C 19.02790069580078 85 0 65.97209930419922 0 42.5 C 0 19.02790069580078 19.02790069580078 0 42.5 0 Z" stroke="none" fill="#fff"/>
        </g>
      </g>
      <g id="Path_873828-4" data-name="Path 873828" transform="translate(203.051 2594)" fill="#fd9826">
        <path d="M 42.5 83 C 37.03165054321289 83 31.72793769836426 81.92946624755859 26.73618698120117 79.81812286376953 C 21.91371154785156 77.77839660644531 17.582275390625 74.85792541503906 13.86217498779297 71.13782501220703 C 10.14207458496094 67.417724609375 7.22160005569458 63.08628845214844 5.181875228881836 58.26381301879883 C 3.070537567138672 53.27206420898438 2 47.96834945678711 2 42.5 C 2 37.03165054321289 3.070537567138672 31.72793769836426 5.181875228881836 26.73618698120117 C 7.22160005569458 21.91371154785156 10.14207458496094 17.582275390625 13.86217498779297 13.86217498779297 C 17.582275390625 10.14207458496094 21.91371154785156 7.22160005569458 26.73618698120117 5.181875228881836 C 31.72793769836426 3.070537567138672 37.03165054321289 2 42.5 2 C 47.96834945678711 2 53.27206420898438 3.070537567138672 58.26381301879883 5.181875228881836 C 63.08628845214844 7.22160005569458 67.417724609375 10.14207458496094 71.13782501220703 13.86217498779297 C 74.85792541503906 17.582275390625 77.77839660644531 21.91371154785156 79.81812286376953 26.73618698120117 C 81.92946624755859 31.72793769836426 83 37.03165054321289 83 42.5 C 83 47.96834945678711 81.92946624755859 53.27206420898438 79.81812286376953 58.26381301879883 C 77.77839660644531 63.08628845214844 74.85792541503906 67.417724609375 71.13782501220703 71.13782501220703 C 67.417724609375 74.85792541503906 63.08628845214844 77.77839660644531 58.26381301879883 79.81812286376953 C 53.27206420898438 81.92946624755859 47.96834945678711 83 42.5 83 Z" stroke="none"/>
        <path d="M 42.5 4 C 37.3007698059082 4 32.25918579101562 5.017387390136719 27.51528549194336 7.023887634277344 C 22.93121337890625 8.962783813476562 18.81345367431641 11.73932647705078 15.27638244628906 15.27638244628906 C 11.73932647705078 18.81345367431641 8.962783813476562 22.93121337890625 7.023887634277344 27.51528549194336 C 5.017387390136719 32.25918579101562 4 37.3007698059082 4 42.5 C 4 47.6992301940918 5.017387390136719 52.74081420898438 7.023887634277344 57.48471450805664 C 8.962783813476562 62.06878662109375 11.73932647705078 66.18653869628906 15.27638244628906 69.72361755371094 C 18.81345367431641 73.26067352294922 22.93121337890625 76.03721618652344 27.51528549194336 77.97611236572266 C 32.25918579101562 79.98261260986328 37.3007698059082 81 42.5 81 C 47.6992301940918 81 52.74081420898438 79.98261260986328 57.48471450805664 77.97611236572266 C 62.06878662109375 76.03721618652344 66.18653869628906 73.26067352294922 69.72361755371094 69.72361755371094 C 73.26067352294922 66.18653869628906 76.03721618652344 62.06878662109375 77.97611236572266 57.48471450805664 C 79.98261260986328 52.74081420898438 81 47.6992301940918 81 42.5 C 81 37.3007698059082 79.98261260986328 32.25918579101562 77.97611236572266 27.51528549194336 C 76.03721618652344 22.93121337890625 73.26067352294922 18.81345367431641 69.72361755371094 15.27638244628906 C 66.18653869628906 11.73932647705078 62.06878662109375 8.962783813476562 57.48471450805664 7.023887634277344 C 52.74081420898438 5.017387390136719 47.6992301940918 4 42.5 4 M 42.5 0 C 65.97209930419922 0 85 19.02790069580078 85 42.5 C 85 65.97209930419922 65.97209930419922 85 42.5 85 C 19.02790069580078 85 0 65.97209930419922 0 42.5 C 0 19.02790069580078 19.02790069580078 0 42.5 0 Z" stroke="none"/>
      </g>
      <g transform="matrix(1, 0, 0, 1, 194.05, 2588)" filter="url(#Path_873828-2)">
        <g id="Path_873828-5" data-name="Path 873828" transform="translate(9 6)" fill="#fff">
          <path d="M 42.5 83 C 37.03165054321289 83 31.72793769836426 81.92946624755859 26.73618698120117 79.81812286376953 C 21.91371154785156 77.77839660644531 17.582275390625 74.85792541503906 13.86217498779297 71.13782501220703 C 10.14207458496094 67.417724609375 7.22160005569458 63.08628845214844 5.181875228881836 58.26381301879883 C 3.070537567138672 53.27206420898438 2 47.96834945678711 2 42.5 C 2 37.03165054321289 3.070537567138672 31.72793769836426 5.181875228881836 26.73618698120117 C 7.22160005569458 21.91371154785156 10.14207458496094 17.582275390625 13.86217498779297 13.86217498779297 C 17.582275390625 10.14207458496094 21.91371154785156 7.22160005569458 26.73618698120117 5.181875228881836 C 31.72793769836426 3.070537567138672 37.03165054321289 2 42.5 2 C 47.96834945678711 2 53.27206420898438 3.070537567138672 58.26381301879883 5.181875228881836 C 63.08628845214844 7.22160005569458 67.417724609375 10.14207458496094 71.13782501220703 13.86217498779297 C 74.85792541503906 17.582275390625 77.77839660644531 21.91371154785156 79.81812286376953 26.73618698120117 C 81.92946624755859 31.72793769836426 83 37.03165054321289 83 42.5 C 83 47.96834945678711 81.92946624755859 53.27206420898438 79.81812286376953 58.26381301879883 C 77.77839660644531 63.08628845214844 74.85792541503906 67.417724609375 71.13782501220703 71.13782501220703 C 67.417724609375 74.85792541503906 63.08628845214844 77.77839660644531 58.26381301879883 79.81812286376953 C 53.27206420898438 81.92946624755859 47.96834945678711 83 42.5 83 Z" stroke="none"/>
          <path d="M 42.5 4 C 37.3007698059082 4 32.25918579101562 5.017387390136719 27.51528549194336 7.023887634277344 C 22.93121337890625 8.962783813476562 18.81345367431641 11.73932647705078 15.27638244628906 15.27638244628906 C 11.73932647705078 18.81345367431641 8.962783813476562 22.93121337890625 7.023887634277344 27.51528549194336 C 5.017387390136719 32.25918579101562 4 37.3007698059082 4 42.5 C 4 47.6992301940918 5.017387390136719 52.74081420898438 7.023887634277344 57.48471450805664 C 8.962783813476562 62.06878662109375 11.73932647705078 66.18653869628906 15.27638244628906 69.72361755371094 C 18.81345367431641 73.26067352294922 22.93121337890625 76.03721618652344 27.51528549194336 77.97611236572266 C 32.25918579101562 79.98261260986328 37.3007698059082 81 42.5 81 C 47.6992301940918 81 52.74081420898438 79.98261260986328 57.48471450805664 77.97611236572266 C 62.06878662109375 76.03721618652344 66.18653869628906 73.26067352294922 69.72361755371094 69.72361755371094 C 73.26067352294922 66.18653869628906 76.03721618652344 62.06878662109375 77.97611236572266 57.48471450805664 C 79.98261260986328 52.74081420898438 81 47.6992301940918 81 42.5 C 81 37.3007698059082 79.98261260986328 32.25918579101562 77.97611236572266 27.51528549194336 C 76.03721618652344 22.93121337890625 73.26067352294922 18.81345367431641 69.72361755371094 15.27638244628906 C 66.18653869628906 11.73932647705078 62.06878662109375 8.962783813476562 57.48471450805664 7.023887634277344 C 52.74081420898438 5.017387390136719 47.6992301940918 4 42.5 4 M 42.5 0 C 65.97209930419922 0 85 19.02790069580078 85 42.5 C 85 65.97209930419922 65.97209930419922 85 42.5 85 C 19.02790069580078 85 0 65.97209930419922 0 42.5 C 0 19.02790069580078 19.02790069580078 0 42.5 0 Z" stroke="none"/>
        </g>
      </g>
      <g id="Path_873828-6" data-name="Path 873828" transform="translate(203.051 2594)" fill="none">
        <path d="M 42.5 83 C 37.03165054321289 83 31.72793769836426 81.92946624755859 26.73618698120117 79.81812286376953 C 21.91371154785156 77.77839660644531 17.582275390625 74.85792541503906 13.86217498779297 71.13782501220703 C 10.14207458496094 67.417724609375 7.22160005569458 63.08628845214844 5.181875228881836 58.26381301879883 C 3.070537567138672 53.27206420898438 2 47.96834945678711 2 42.5 C 2 37.03165054321289 3.070537567138672 31.72793769836426 5.181875228881836 26.73618698120117 C 7.22160005569458 21.91371154785156 10.14207458496094 17.582275390625 13.86217498779297 13.86217498779297 C 17.582275390625 10.14207458496094 21.91371154785156 7.22160005569458 26.73618698120117 5.181875228881836 C 31.72793769836426 3.070537567138672 37.03165054321289 2 42.5 2 C 47.96834945678711 2 53.27206420898438 3.070537567138672 58.26381301879883 5.181875228881836 C 63.08628845214844 7.22160005569458 67.417724609375 10.14207458496094 71.13782501220703 13.86217498779297 C 74.85792541503906 17.582275390625 77.77839660644531 21.91371154785156 79.81812286376953 26.73618698120117 C 81.92946624755859 31.72793769836426 83 37.03165054321289 83 42.5 C 83 47.96834945678711 81.92946624755859 53.27206420898438 79.81812286376953 58.26381301879883 C 77.77839660644531 63.08628845214844 74.85792541503906 67.417724609375 71.13782501220703 71.13782501220703 C 67.417724609375 74.85792541503906 63.08628845214844 77.77839660644531 58.26381301879883 79.81812286376953 C 53.27206420898438 81.92946624755859 47.96834945678711 83 42.5 83 Z" stroke="none"/>
        <path d="M 42.5 4 C 37.3007698059082 4 32.25918579101562 5.017387390136719 27.51528549194336 7.023887634277344 C 22.93121337890625 8.962783813476562 18.81345367431641 11.73932647705078 15.27638244628906 15.27638244628906 C 11.73932647705078 18.81345367431641 8.962783813476562 22.93121337890625 7.023887634277344 27.51528549194336 C 5.017387390136719 32.25918579101562 4 37.3007698059082 4 42.5 C 4 47.6992301940918 5.017387390136719 52.74081420898438 7.023887634277344 57.48471450805664 C 8.962783813476562 62.06878662109375 11.73932647705078 66.18653869628906 15.27638244628906 69.72361755371094 C 18.81345367431641 73.26067352294922 22.93121337890625 76.03721618652344 27.51528549194336 77.97611236572266 C 32.25918579101562 79.98261260986328 37.3007698059082 81 42.5 81 C 47.6992301940918 81 52.74081420898438 79.98261260986328 57.48471450805664 77.97611236572266 C 62.06878662109375 76.03721618652344 66.18653869628906 73.26067352294922 69.72361755371094 69.72361755371094 C 73.26067352294922 66.18653869628906 76.03721618652344 62.06878662109375 77.97611236572266 57.48471450805664 C 79.98261260986328 52.74081420898438 81 47.6992301940918 81 42.5 C 81 37.3007698059082 79.98261260986328 32.25918579101562 77.97611236572266 27.51528549194336 C 76.03721618652344 22.93121337890625 73.26067352294922 18.81345367431641 69.72361755371094 15.27638244628906 C 66.18653869628906 11.73932647705078 62.06878662109375 8.962783813476562 57.48471450805664 7.023887634277344 C 52.74081420898438 5.017387390136719 47.6992301940918 4 42.5 4 M 42.5 0 C 65.97209930419922 0 85 19.02790069580078 85 42.5 C 85 65.97209930419922 65.97209930419922 85 42.5 85 C 19.02790069580078 85 0 65.97209930419922 0 42.5 C 0 19.02790069580078 19.02790069580078 0 42.5 0 Z" stroke="none" fill="#fff"/>
      </g>
    </g>
    <g id="Group_1113333" data-name="Group 1113333" transform="translate(213.861 2607.883)">
      <g id="Group_1113331" data-name="Group 1113331" transform="translate(8.006 3.936)">
        <g id="Group_1113324" data-name="Group 1113324" transform="translate(30.637 26.379)">
          <path id="Path_906459" data-name="Path 906459" d="M176.512,159.5H163.635a2.037,2.037,0,0,1-2.037-2.037V138.671a2.037,2.037,0,0,1,2.037-2.037h12.877a2.037,2.037,0,0,1,2.037,2.037v18.791A2.037,2.037,0,0,1,176.512,159.5Z" transform="translate(-161.598 -136.634)" fill="#87828e"/>
          <path id="Path_906460" data-name="Path 906460" d="M186.2,156.18h-8.955a1.019,1.019,0,0,1-1.018-1.019v-1.884a1.019,1.019,0,0,1,1.018-1.019H186.2a1.019,1.019,0,0,1,1.019,1.019v1.884A1.018,1.018,0,0,1,186.2,156.18Z" transform="translate(-173.245 -149.076)" fill="#5fcdff"/>
          <path id="Path_906461" data-name="Path 906461" d="M185.6,195.655h-7.756a1.618,1.618,0,0,1-1.618-1.618v-6.66a1.618,1.618,0,0,1,1.618-1.618H185.6a1.618,1.618,0,0,1,1.618,1.618v6.66A1.618,1.618,0,0,1,185.6,195.655Z" transform="translate(-173.245 -175.752)" fill="#f9d335"/>
        </g>
        <g id="Group_1113328" data-name="Group 1113328" transform="translate(0 0)">
          <g id="Group_1113327" data-name="Group 1113327">
            <g id="Group_1113326" data-name="Group 1113326">
              <g id="Group_1113325" data-name="Group 1113325">
                <path id="Path_906462" data-name="Path 906462" d="M23.2,87.359h-.022c-6.648,2.482-10.194-1.258-11.65-3.516a2.142,2.142,0,0,1,.271-2.637l6.153-6.428V78.5A10.16,10.16,0,0,0,23.2,87.359Z" transform="translate(-11.198 -60.999)" fill="#965959"/>
                <path id="Path_906463" data-name="Path 906463" d="M127.508,83.843c-1.456,2.253-4.994,5.989-11.628,3.524a9.91,9.91,0,0,0,5.2-8.694V74.778h0l6.152,6.428A2.142,2.142,0,0,1,127.508,83.843Z" transform="translate(-94.556 -60.999)" fill="#965959"/>
                <path id="Path_906464" data-name="Path 906464" d="M52.245,170.531v9.306a2.037,2.037,0,0,1-2.037,2.037h-23.9a2.037,2.037,0,0,1-2.037-2.037v-9.306a5.8,5.8,0,0,1,5.8-5.8H46.449A5.8,5.8,0,0,1,52.245,170.531Z" transform="translate(-21.608 -132.632)" fill="#44c7b6"/>
                <path id="Path_906465" data-name="Path 906465" d="M34.159,164.735a5.792,5.792,0,0,0-5.792,5.792v11.347H26.308a2.037,2.037,0,0,1-2.037-2.037v-9.306a5.8,5.8,0,0,1,5.8-5.8h4.092Z" transform="translate(-21.608 -132.632)" fill="#4bdbc3"/>
                <path id="Path_906466" data-name="Path 906466" d="M123.366,170.53v9.306a2.037,2.037,0,0,1-2.037,2.037h-1.948V170.526a5.8,5.8,0,0,0-5.8-5.792h3.985A5.8,5.8,0,0,1,123.366,170.53Z" transform="translate(-92.729 -132.631)" fill="#3bb2a0"/>
                <path id="Path_906467" data-name="Path 906467" d="M64.14,17.02v7.791a9.918,9.918,0,0,1-7.958,9.69h0c-.1.019-.2.038-.3.053a9.549,9.549,0,0,1-1.487.137,9.121,9.121,0,0,1-2.025-.191h0a10.1,10.1,0,0,1-7.989-9.869V17.02a9.882,9.882,0,1,1,19.764,0Z" transform="translate(-37.618 -7.136)" fill="#ffbb98"/>
                <path id="Path_906468" data-name="Path 906468" d="M95.385,59.441v7.02a9.918,9.918,0,0,1-7.958,9.69h0c-.1.019-.2.038-.3.053a9.549,9.549,0,0,1-1.487.137,9.121,9.121,0,0,1-2.025-.191,9.54,9.54,0,0,0,1.914-.6,9.91,9.91,0,0,0,6.029-9.095V60.863a17.268,17.268,0,0,0,3.829-1.422Z" transform="translate(-68.862 -48.786)" fill="#ffaa80"/>
                <path id="Path_906469" data-name="Path 906469" d="M55.9,81.592c0,.011-.011.027-.019.053a9.548,9.548,0,0,1-1.487.137,9.12,9.12,0,0,1-2.025-.191h0a10.1,10.1,0,0,1-7.989-9.869V67.079a24.326,24.326,0,0,0,3.55-.8v5.449A10.142,10.142,0,0,0,54,80.993,9.37,9.37,0,0,0,55.9,81.592Z" transform="translate(-37.618 -54.227)" fill="#ffcaa6"/>
                <path id="Path_906470" data-name="Path 906470" d="M64.144,17.021v.767l0,0a17.309,17.309,0,0,1-3.832,1.422,20.89,20.89,0,0,1-6.57.564l1.525-4.08a36.023,36.023,0,0,1-7.054,3.393,15.56,15.56,0,0,1-3.832.827v-2.9a9.884,9.884,0,0,1,19.768,0Z" transform="translate(-37.618 -7.137)" fill="#b76c6c"/>
                <path id="Path_906471" data-name="Path 906471" d="M95.314,17.021v.767l0,0a17.309,17.309,0,0,1-3.832,1.422V17.021a9.878,9.878,0,0,0-6.052-9.114,10.314,10.314,0,0,0-1.907-.583,9.892,9.892,0,0,1,11.795,9.7Z" transform="translate(-68.787 -7.137)" fill="#965959"/>
                <path id="Path_906472" data-name="Path 906472" d="M56.163,7.324a9.843,9.843,0,0,0-5.06,2.707,9.844,9.844,0,0,0-2.894,6.99v2.071a15.56,15.56,0,0,1-3.832.827v-2.9a9.875,9.875,0,0,1,11.787-9.7Z" transform="translate(-37.618 -7.137)" fill="#c98585"/>
                <path id="Path_906473" data-name="Path 906473" d="M76.045,146.227c-.885,2.57-2.689,6.54-5.725,8.145-3.082-1.627-4.893-5.694-5.763-8.26a.165.165,0,0,1,.1-.219,22.528,22.528,0,0,1,2.857-.528v-5.01a9.589,9.589,0,0,0,2.939.419,9.855,9.855,0,0,0,2.665-.406v5a22.583,22.583,0,0,1,2.751.5.231.231,0,0,1,.077.037.276.276,0,0,1,.082.1A.3.3,0,0,1,76.045,146.227Z" transform="translate(-53.679 -113.219)" fill="#ffbb98"/>
              </g>
            </g>
          </g>
        </g>
        <g id="Group_1113330" data-name="Group 1113330" transform="translate(30.867 6.879)">
          <g id="Group_1113329" data-name="Group 1113329">
            <path id="Path_906474" data-name="Path 906474" d="M179.22,49.166a8.245,8.245,0,0,1-7.233,8.181,8.1,8.1,0,0,1-1.012.062,8.244,8.244,0,1,1,0-16.488,8.067,8.067,0,0,1,1.012.062,8.245,8.245,0,0,1,7.233,8.183Z" transform="translate(-162.73 -40.918)" fill="#f9d335"/>
            <path id="Path_906475" data-name="Path 906475" d="M207.493,49.154a8.248,8.248,0,0,1-9.257,8.181,8.244,8.244,0,0,0,0-16.364,8.247,8.247,0,0,1,9.257,8.183Z" transform="translate(-191.003 -40.907)" fill="#f2c300"/>
            <path id="Path_906476" data-name="Path 906476" d="M171.988,57.336a8.244,8.244,0,1,1,0-16.364,8.244,8.244,0,0,0,0,16.364Z" transform="translate(-162.731 -40.907)" fill="#f9e27d"/>
          </g>
        </g>
      </g>
      <g id="Group_1113332" data-name="Group 1113332" transform="translate(7.189 3.117)">
        <circle id="Ellipse_12918" data-name="Ellipse 12918" cx="1.324" cy="1.324" r="1.324" transform="translate(11.268 15.945)"/>
        <circle id="Ellipse_12919" data-name="Ellipse 12919" cx="1.324" cy="1.324" r="1.324" transform="matrix(0.987, -0.16, 0.16, 0.987, 20.802, 16.177)"/>
        <path id="Path_906477" data-name="Path 906477" d="M63.219,228.018h-.582a.815.815,0,1,0,0,1.63h.582a.815.815,0,1,0,0-1.63Z" transform="translate(-50.694 -182.205)"/>
        <path id="Path_906478" data-name="Path 906478" d="M40.47,228.018H38.637a.815.815,0,1,0,0,1.63H40.47a.815.815,0,1,0,0-1.63Z" transform="translate(-31.582 -182.205)"/>
        <path id="Path_906479" data-name="Path 906479" d="M84.579,101.262a.815.815,0,0,0-.815.815.951.951,0,1,1-1.9,0,.815.815,0,0,0-1.63,0,2.58,2.58,0,1,0,5.161,0A.815.815,0,0,0,84.579,101.262Z" transform="translate(-65.354 -81.27)"/>
        <path id="Path_906480" data-name="Path 906480" d="M191.369,61.841h-2.346a.157.157,0,0,1-.157-.157.815.815,0,0,0-1.63,0,1.789,1.789,0,0,0,1.787,1.787h.651v.844a.815.815,0,1,0,1.63,0v-.844a2.374,2.374,0,1,0,.065-4.746h-1.76a.744.744,0,1,1,0-1.487h2.346a.157.157,0,0,1,.157.157.815.815,0,0,0,1.63,0,1.789,1.789,0,0,0-1.787-1.787H191.3v-.844a.815.815,0,1,0-1.63,0v.844a2.374,2.374,0,1,0-.065,4.746h1.76a.744.744,0,1,1,0,1.487Z" transform="translate(-150.56 -43.594)"/>
        <path id="Path_906481" data-name="Path 906481" d="M53.557,29.5c-14.054,0-13.414-.151-14.346.412a9.415,9.415,0,0,0,2.763-3.4,9.056,9.056,0,1,0-3.827-6.2l-2.8-2.929c0-.344,0-3.218,0-3.562,0-11.191-15.494-15.066-20.408-4.489-1.214,2.614-.991,4.549-.991,8.056L8.023,23.579a2.947,2.947,0,0,0-.368,3.642c2.6,4.037,6.943,5.814,12.279,3.957a10.461,10.461,0,0,0,1.1.48v3.565H16.464a6.622,6.622,0,0,0-6.611,6.626v9.292A2.855,2.855,0,0,0,12.7,53.993h23.9a2.842,2.842,0,0,0,2.036-.859,2.842,2.842,0,0,0,2.038.861H53.557a2.855,2.855,0,0,0,2.852-2.852V32.352A2.855,2.855,0,0,0,53.557,29.5ZM37.828,32.352V37.5a6.6,6.6,0,0,0-4.981-2.272H28.263V31.67a10.629,10.629,0,0,0,1.127-.482c3.312,1.145,6.558,1.038,9.376-.944A2.842,2.842,0,0,0,37.828,32.352ZM15.642,22.48a48.211,48.211,0,0,1-.063-5.026,26.688,26.688,0,0,0,8.512-3.108l-.727,1.946a.815.815,0,0,0,.676,1.1,21.563,21.563,0,0,0,6.852-.583,18.637,18.637,0,0,0,2.824-.934c0,5.789.3,7.474-1.1,10.044C28.322,33.8,16.671,31.321,15.642,22.48Zm2.6-15.073a9.073,9.073,0,0,1,15.473,6.679A16.752,16.752,0,0,1,30.5,15.222a20.9,20.9,0,0,1-5.219.595l1.134-3.035a.816.816,0,0,0-1.207-.969,28.855,28.855,0,0,1-9.629,4C15.579,13.849,15.209,10.439,18.241,7.407ZM39.689,19.062a7.43,7.43,0,1,1,7.43,7.43,7.438,7.438,0,0,1-7.43-7.43Zm-4.344.678c6.877,7.185,3.395,3.526,5.008,5.339a1.307,1.307,0,0,1-.08,1.26,8.044,8.044,0,0,1-9.042,3.689c4.556-3.565,4.114-8.394,4.114-10.288ZM18.118,30.016a8.038,8.038,0,0,1-9.093-3.677A1.322,1.322,0,0,1,9.2,24.706l4.749-4.962C13.948,21.245,13.419,26.317,18.118,30.016Zm8.515,2.1v3.962a.815.815,0,0,0,.718.809c.7.084,1.389.2,2.051.342-.8,2.164-2.343,5.406-4.757,6.916-2.4-1.5-3.936-4.707-4.754-6.914.669-.145,1.355-.26,2.049-.343a.815.815,0,0,0,.718-.809V32.116A10.567,10.567,0,0,0,26.634,32.121ZM11.482,51.141V41.834a4.987,4.987,0,0,1,4.981-4.981h1.6c.025.3,1.876,6.32,5.769,8.708v6.8H12.7A1.224,1.224,0,0,1,11.482,51.141Zm25.123,1.222H25.464V45.558c3.7-2.275,5.731-8.069,5.734-8.705h1.65a4.987,4.987,0,0,1,4.981,4.981v9.307A1.223,1.223,0,0,1,36.606,52.363Zm18.173-1.221a1.223,1.223,0,0,1-1.222,1.222H40.68a1.223,1.223,0,0,1-1.222-1.222V32.352A1.223,1.223,0,0,1,40.68,31.13H53.557a1.223,1.223,0,0,1,1.222,1.222Z" transform="translate(-7.189 -3.117)"/>
        <path id="Path_906482" data-name="Path 906482" d="M183.013,148.259h-8.955a1.836,1.836,0,0,0-1.833,1.833v1.884a1.836,1.836,0,0,0,1.833,1.833h8.955a1.836,1.836,0,0,0,1.833-1.833v-1.884A1.835,1.835,0,0,0,183.013,148.259Zm.2,3.718a.2.2,0,0,1-.2.2h-8.955a.2.2,0,0,1-.2-.2v-1.884a.2.2,0,0,1,.2-.2h8.955a.2.2,0,0,1,.2.2Z" transform="translate(-138.607 -118.693)"/>
        <path id="Path_906483" data-name="Path 906483" d="M182.414,181.759h-7.756a2.436,2.436,0,0,0-2.433,2.433v6.66a2.436,2.436,0,0,0,2.433,2.433h7.756a2.436,2.436,0,0,0,2.433-2.433v-6.66A2.436,2.436,0,0,0,182.414,181.759Zm.8,2.433v2.515H179.35v-3.319h3.063A.8.8,0,0,1,183.217,184.192Zm-8.559-.8h3.063v3.319h-3.866v-2.515A.8.8,0,0,1,174.658,183.389Zm-.8,7.464v-2.516h3.866v3.319h-3.063A.8.8,0,0,1,173.855,190.852Zm8.559.8H179.35v-3.319h3.866v2.516a.8.8,0,0,1-.8.8Z" transform="translate(-138.607 -145.369)"/>
      </g>
    </g>
  </g>
</svg>
