<svg xmlns="http://www.w3.org/2000/svg" width="85" height="91" viewBox="0 0 85 91">
  <g id="Grupo_1112851" data-name="Grupo 1112851" transform="translate(-284.564 -3797)">
    <rect id="Rectángulo_405638" data-name="Rectángulo 405638" width="85" height="91" transform="translate(284.564 3797)" fill="none"/>
    <g id="Grupo_1112852" data-name="Grupo 1112852" transform="translate(295.564 3811)">
      <g id="Grupo_1112871" data-name="Grupo 1112871">
        <g id="Grupo_1112852-2" data-name="Grupo 1112852">
          <path id="Trazado_905134" data-name="Trazado 905134" d="M61,42H42V61a1,1,0,0,0,1,1H61a1,1,0,0,0,1-1V43A1,1,0,0,0,61,42Z" fill="#d3a06c"/>
        </g>
        <g id="Grupo_1112853" data-name="Grupo 1112853">
          <path id="Trazado_905135" data-name="Trazado 905135" d="M59,2H41a1,1,0,0,0-1,1V22H59a1,1,0,0,0,1-1V3A1,1,0,0,0,59,2Z" fill="#d3a06c"/>
        </g>
        <g id="Grupo_1112854" data-name="Grupo 1112854">
          <path id="Trazado_905136" data-name="Trazado 905136" d="M37,22a1,1,0,0,0-1,1V33.15l-.01.01A8.9,8.9,0,0,1,38,38.81V42H56V22Z" fill="#d3a06c"/>
        </g>
        <g id="Grupo_1112855" data-name="Grupo 1112855">
          <path id="Trazado_905137" data-name="Trazado 905137" d="M46,2h8V8H46Z" fill="#b27946"/>
        </g>
        <g id="Grupo_1112856" data-name="Grupo 1112856">
          <path id="Trazado_905138" data-name="Trazado 905138" d="M42,22h8v6H42Z" fill="#b27946"/>
        </g>
        <g id="Grupo_1112857" data-name="Grupo 1112857">
          <path id="Trazado_905139" data-name="Trazado 905139" d="M48,42h8v6H48Z" fill="#b27946"/>
        </g>
        <g id="Grupo_1112858" data-name="Grupo 1112858">
          <path id="Trazado_905140" data-name="Trazado 905140" d="M24,10H16a4,4,0,0,0-4,4H11a3.008,3.008,0,0,0-2.06.82l-.5-1.5A8.6,8.6,0,0,1,16.6,2h6.8a8.6,8.6,0,0,1,8.16,11.32l-.5,1.5A3.008,3.008,0,0,0,29,14H28V13H25a3.415,3.415,0,0,1-1-2.41Z" fill="#656d78"/>
        </g>
        <g id="Grupo_1112859" data-name="Grupo 1112859">
          <path id="Trazado_905141" data-name="Trazado 905141" d="M28,56v6H12V56h2a2.006,2.006,0,0,0,2-2h3a3,3,0,0,0,0-6H12V41a1,1,0,0,1,1-1h3v3a1,1,0,0,0,1,1h6a1,1,0,0,0,1-1V40h3a1,1,0,0,1,1,1V56Z" fill="#e6e9ed"/>
        </g>
        <g id="Grupo_1112860" data-name="Grupo 1112860">
          <path id="Trazado_905142" data-name="Trazado 905142" d="M28,56h4v6H28Z" fill="#fcd770"/>
        </g>
        <g id="Grupo_1112861" data-name="Grupo 1112861">
          <path id="Trazado_905143" data-name="Trazado 905143" d="M8,56h4v6H8Z" fill="#fcd770"/>
        </g>
        <g id="Grupo_1112862" data-name="Grupo 1112862">
          <path id="Trazado_905144" data-name="Trazado 905144" d="M2,50V38.81A8.994,8.994,0,0,1,9.73,29.9l3.41-.49L15,35l5-2,5,2,1.86-5.59,3.41.49A9.038,9.038,0,0,1,38,38.81V50a6,6,0,0,1-6,6H28V41a1,1,0,0,0-1-1H13a1,1,0,0,0-1,1v7h4v6a2.006,2.006,0,0,1-2,2H8A6,6,0,0,1,2,50Z" fill="#fcd770"/>
        </g>
        <g id="Grupo_1112863" data-name="Grupo 1112863">
          <path id="Trazado_905145" data-name="Trazado 905145" d="M26.86,29.41,25,35l-5-2,4-4Z" fill="#ffc729"/>
        </g>
        <g id="Grupo_1112864" data-name="Grupo 1112864">
          <path id="Trazado_905146" data-name="Trazado 905146" d="M20,33l-5,2-1.86-5.59L16,29Z" fill="#ffc729"/>
        </g>
        <g id="Grupo_1112865" data-name="Grupo 1112865">
          <path id="Trazado_905147" data-name="Trazado 905147" d="M24,40v3a1,1,0,0,1-1,1H17a1,1,0,0,1-1-1V40Z" fill="#b4dd7f"/>
        </g>
        <g id="Grupo_1112866" data-name="Grupo 1112866">
          <path id="Trazado_905148" data-name="Trazado 905148" d="M19,48a3,3,0,0,1,0,6H16V48Z" fill="#f0d0b4"/>
        </g>
        <g id="Grupo_1112867" data-name="Grupo 1112867">
          <path id="Trazado_905149" data-name="Trazado 905149" d="M23.09,25.38,24,29l-4,4-4-4,.91-3.62a8.01,8.01,0,0,0,6.18,0Z" fill="#f0d0b4"/>
        </g>
        <g id="Grupo_1112868" data-name="Grupo 1112868">
          <path id="Trazado_905150" data-name="Trazado 905150" d="M31.06,14.82A3,3,0,0,1,29,20H27.75A8.239,8.239,0,0,0,28,18V14h1a3.008,3.008,0,0,1,2.06.82Z" fill="#f0d0b4"/>
        </g>
        <g id="Grupo_1112869" data-name="Grupo 1112869">
          <path id="Trazado_905151" data-name="Trazado 905151" d="M12.25,20H11a3,3,0,0,1,0-6h1v4A8.239,8.239,0,0,0,12.25,20Z" fill="#f0d0b4"/>
        </g>
        <g id="Grupo_1112870" data-name="Grupo 1112870">
          <path id="Trazado_905152" data-name="Trazado 905152" d="M25,13h3v5a8.239,8.239,0,0,1-.25,2,8.006,8.006,0,0,1-10.84,5.38,7.9,7.9,0,0,1-2.57-1.72A8.122,8.122,0,0,1,12.25,20,8.239,8.239,0,0,1,12,18V14a4,4,0,0,1,4-4h8v.59A3.415,3.415,0,0,0,25,13Z" fill="#f0d0b4"/>
        </g>
      </g>
      <g id="Grupo_1112872" data-name="Grupo 1112872">
        <circle id="Elipse_12912" data-name="Elipse 12912" cx="1" cy="1" r="1" transform="translate(15 15)"/>
        <circle id="Elipse_12913" data-name="Elipse 12913" cx="1" cy="1" r="1" transform="translate(23 15)"/>
        <path id="Trazado_905153" data-name="Trazado 905153" d="M23.789,20.658l.1-.211-1.789-.9-.1.212a2.236,2.236,0,0,1-4,0l-.1-.211-1.789.9.1.211a4.236,4.236,0,0,0,7.578,0Z"/>
        <path id="Trazado_905154" data-name="Trazado 905154" d="M21.707,12.293A2.4,2.4,0,0,1,21,10.586V9H19v1.586a4.384,4.384,0,0,0,1.293,3.121Z"/>
        <path id="Trazado_905155" data-name="Trazado 905155" d="M25.707,12.293A2.4,2.4,0,0,1,25,10.586V9H23v1.586a4.384,4.384,0,0,0,1.293,3.121Z"/>
        <path id="Trazado_905156" data-name="Trazado 905156" d="M61,41H57V23h2a2,2,0,0,0,2-2V3a2,2,0,0,0-2-2H41a2,2,0,0,0-2,2V21H37a2,2,0,0,0-2,2v7.832a9.9,9.9,0,0,0-4.586-1.926l-5.607-.8-.545-2.181A9.042,9.042,0,0,0,28.476,21H29a4,4,0,0,0,4-4,3.962,3.962,0,0,0-.814-2.393l.322-.967A9.605,9.605,0,0,0,23.4,1H16.6A9.606,9.606,0,0,0,7.492,13.641l.322.967A3.956,3.956,0,0,0,7,17a4,4,0,0,0,4,4h.525a9.038,9.038,0,0,0,4.214,4.924L15.194,28.1l-5.607.8A10.048,10.048,0,0,0,1,38.806V50a7.006,7.006,0,0,0,6,6.92V63H33V56.92A7.006,7.006,0,0,0,39,50V43h2V61a2,2,0,0,0,2,2H61a2,2,0,0,0,2-2V43A2,2,0,0,0,61,41ZM47,3h2V7H47Zm4,0h2V7H51ZM41,3h4V9H55V3h4V21H41Zm2,20h2v4H43Zm4,0h2v4H47ZM25.536,30.23l-1.149,3.448L21.78,32.635l2.574-2.574ZM29,19h-.059A8.935,8.935,0,0,0,29,18V15a2,2,0,0,1,0,4ZM11,19a2,2,0,0,1,0-4v3a8.935,8.935,0,0,0,.059,1Zm2-1V14a3,3,0,0,1,3-3h1V9H16a5.009,5.009,0,0,0-4.9,4H11a3.986,3.986,0,0,0-1.512.3l-.1-.292A7.6,7.6,0,0,1,16.6,3H23.4a7.6,7.6,0,0,1,7.212,10.008l-.1.293A3.977,3.977,0,0,0,29,13V12H27v6a7,7,0,0,1-14,0Zm7,9a8.963,8.963,0,0,0,2.387-.331l.506,2.024L20,31.586l-2.893-2.893.506-2.024A8.963,8.963,0,0,0,20,27Zm-4.354,3.06,2.574,2.574-2.607,1.043-1.149-3.448ZM9,57h2v4H9Zm10-8a2,2,0,0,1,0,4H17V49Zm-2.184,6H19a4,4,0,0,0,0-8H13V41h2v2a2,2,0,0,0,2,2h6a2,2,0,0,0,2-2V41h2V61H13V57h1A3,3,0,0,0,16.816,55ZM17,41h6v2H17ZM29,61V57h2v4Zm8-11a5.006,5.006,0,0,1-5,5H29V49h6V47H33V39H31v8H29V41a2,2,0,0,0-2-2H13a2,2,0,0,0-2,2v6H9V39H7v8H5v2H15v5a1,1,0,0,1-1,1H8a5.006,5.006,0,0,1-5-5V38.806a8.038,8.038,0,0,1,6.869-7.919l2.583-.369,1.934,5.8L20,34.077l5.613,2.245,1.934-5.805,2.583.369A8.039,8.039,0,0,1,37,38.806Zm2-9V38.806a9.954,9.954,0,0,0-2-5.966V23h4v6H51V23h4V41Zm10,2h2v4H49Zm4,0h2v4H53Zm8,18H43V43h4v6H57V43h4Z"/>
      </g>
    </g>
  </g>
</svg>
