<svg xmlns="http://www.w3.org/2000/svg" xmlns:xlink="http://www.w3.org/1999/xlink" width="103" height="103" viewBox="0 0 103 103">
  <defs>
    <filter id="Path_903562" x="0" y="0" width="103" height="103" filterUnits="userSpaceOnUse">
      <feOffset dy="3" input="SourceAlpha"/>
      <feGaussianBlur stdDeviation="3" result="blur"/>
      <feFlood flood-opacity="0.161"/>
      <feComposite operator="in" in2="blur"/>
    </filter>
    <filter id="Path_903562-2" x="0" y="0" width="103" height="103" filterUnits="userSpaceOnUse">
      <feOffset dy="3" input="SourceAlpha"/>
      <feGaussianBlur stdDeviation="3" result="blur-2"/>
      <feFlood flood-opacity="0.161" result="color"/>
      <feComposite operator="out" in="SourceGraphic" in2="blur-2"/>
      <feComposite operator="in" in="color"/>
      <feComposite operator="in" in2="SourceGraphic"/>
    </filter>
  </defs>
  <g id="Group_1113432" data-name="Group 1113432" transform="translate(-206.051 -4876)">
    <g data-type="innerShadowGroup">
      <g transform="matrix(1, 0, 0, 1, 206.05, 4876)" filter="url(#Path_903562)">
        <g id="Path_903562-3" data-name="Path 903562" transform="translate(9 6)" fill="#fd9826">
          <path d="M 42.5 83 C 37.03165054321289 83 31.72793769836426 81.92946624755859 26.73618698120117 79.81812286376953 C 21.91371154785156 77.77839660644531 17.582275390625 74.85792541503906 13.86217498779297 71.13782501220703 C 10.14207458496094 67.417724609375 7.22160005569458 63.08628845214844 5.181875228881836 58.26381301879883 C 3.070537567138672 53.27206420898438 2 47.96834945678711 2 42.5 C 2 37.03165054321289 3.070537567138672 31.72793769836426 5.181875228881836 26.73618698120117 C 7.22160005569458 21.91371154785156 10.14207458496094 17.582275390625 13.86217498779297 13.86217498779297 C 17.582275390625 10.14207458496094 21.91371154785156 7.22160005569458 26.73618698120117 5.181875228881836 C 31.72793769836426 3.070537567138672 37.03165054321289 2 42.5 2 C 47.96834945678711 2 53.27206420898438 3.070537567138672 58.26381301879883 5.181875228881836 C 63.08628845214844 7.22160005569458 67.417724609375 10.14207458496094 71.13782501220703 13.86217498779297 C 74.85792541503906 17.582275390625 77.77839660644531 21.91371154785156 79.81812286376953 26.73618698120117 C 81.92946624755859 31.72793769836426 83 37.03165054321289 83 42.5 C 83 47.96834945678711 81.92946624755859 53.27206420898438 79.81812286376953 58.26381301879883 C 77.77839660644531 63.08628845214844 74.85792541503906 67.417724609375 71.13782501220703 71.13782501220703 C 67.417724609375 74.85792541503906 63.08628845214844 77.77839660644531 58.26381301879883 79.81812286376953 C 53.27206420898438 81.92946624755859 47.96834945678711 83 42.5 83 Z" stroke="none"/>
          <path d="M 42.5 4 C 37.3007698059082 4 32.25918579101562 5.017387390136719 27.51528549194336 7.023887634277344 C 22.93121337890625 8.962783813476562 18.81345367431641 11.73932647705078 15.27638244628906 15.27638244628906 C 11.73932647705078 18.81345367431641 8.962783813476562 22.93121337890625 7.023887634277344 27.51528549194336 C 5.017387390136719 32.25918579101562 4 37.3007698059082 4 42.5 C 4 47.6992301940918 5.017387390136719 52.74081420898438 7.023887634277344 57.48471450805664 C 8.962783813476562 62.06878662109375 11.73932647705078 66.18653869628906 15.27638244628906 69.72361755371094 C 18.81345367431641 73.26067352294922 22.93121337890625 76.03721618652344 27.51528549194336 77.97611236572266 C 32.25918579101562 79.98261260986328 37.3007698059082 81 42.5 81 C 47.6992301940918 81 52.74081420898438 79.98261260986328 57.48471450805664 77.97611236572266 C 62.06878662109375 76.03721618652344 66.18653869628906 73.26067352294922 69.72361755371094 69.72361755371094 C 73.26067352294922 66.18653869628906 76.03721618652344 62.06878662109375 77.97611236572266 57.48471450805664 C 79.98261260986328 52.74081420898438 81 47.6992301940918 81 42.5 C 81 37.3007698059082 79.98261260986328 32.25918579101562 77.97611236572266 27.51528549194336 C 76.03721618652344 22.93121337890625 73.26067352294922 18.81345367431641 69.72361755371094 15.27638244628906 C 66.18653869628906 11.73932647705078 62.06878662109375 8.962783813476562 57.48471450805664 7.023887634277344 C 52.74081420898438 5.017387390136719 47.6992301940918 4 42.5 4 M 42.5 0 C 65.97209930419922 0 85 19.02790069580078 85 42.5 C 85 65.97209930419922 65.97209930419922 85 42.5 85 C 19.02790069580078 85 0 65.97209930419922 0 42.5 C 0 19.02790069580078 19.02790069580078 0 42.5 0 Z" stroke="none" fill="#fff"/>
        </g>
      </g>
      <g id="Path_903562-4" data-name="Path 903562" transform="translate(215.051 4882)" fill="#fd9826">
        <path d="M 42.5 83 C 37.03165054321289 83 31.72793769836426 81.92946624755859 26.73618698120117 79.81812286376953 C 21.91371154785156 77.77839660644531 17.582275390625 74.85792541503906 13.86217498779297 71.13782501220703 C 10.14207458496094 67.417724609375 7.22160005569458 63.08628845214844 5.181875228881836 58.26381301879883 C 3.070537567138672 53.27206420898438 2 47.96834945678711 2 42.5 C 2 37.03165054321289 3.070537567138672 31.72793769836426 5.181875228881836 26.73618698120117 C 7.22160005569458 21.91371154785156 10.14207458496094 17.582275390625 13.86217498779297 13.86217498779297 C 17.582275390625 10.14207458496094 21.91371154785156 7.22160005569458 26.73618698120117 5.181875228881836 C 31.72793769836426 3.070537567138672 37.03165054321289 2 42.5 2 C 47.96834945678711 2 53.27206420898438 3.070537567138672 58.26381301879883 5.181875228881836 C 63.08628845214844 7.22160005569458 67.417724609375 10.14207458496094 71.13782501220703 13.86217498779297 C 74.85792541503906 17.582275390625 77.77839660644531 21.91371154785156 79.81812286376953 26.73618698120117 C 81.92946624755859 31.72793769836426 83 37.03165054321289 83 42.5 C 83 47.96834945678711 81.92946624755859 53.27206420898438 79.81812286376953 58.26381301879883 C 77.77839660644531 63.08628845214844 74.85792541503906 67.417724609375 71.13782501220703 71.13782501220703 C 67.417724609375 74.85792541503906 63.08628845214844 77.77839660644531 58.26381301879883 79.81812286376953 C 53.27206420898438 81.92946624755859 47.96834945678711 83 42.5 83 Z" stroke="none"/>
        <path d="M 42.5 4 C 37.3007698059082 4 32.25918579101562 5.017387390136719 27.51528549194336 7.023887634277344 C 22.93121337890625 8.962783813476562 18.81345367431641 11.73932647705078 15.27638244628906 15.27638244628906 C 11.73932647705078 18.81345367431641 8.962783813476562 22.93121337890625 7.023887634277344 27.51528549194336 C 5.017387390136719 32.25918579101562 4 37.3007698059082 4 42.5 C 4 47.6992301940918 5.017387390136719 52.74081420898438 7.023887634277344 57.48471450805664 C 8.962783813476562 62.06878662109375 11.73932647705078 66.18653869628906 15.27638244628906 69.72361755371094 C 18.81345367431641 73.26067352294922 22.93121337890625 76.03721618652344 27.51528549194336 77.97611236572266 C 32.25918579101562 79.98261260986328 37.3007698059082 81 42.5 81 C 47.6992301940918 81 52.74081420898438 79.98261260986328 57.48471450805664 77.97611236572266 C 62.06878662109375 76.03721618652344 66.18653869628906 73.26067352294922 69.72361755371094 69.72361755371094 C 73.26067352294922 66.18653869628906 76.03721618652344 62.06878662109375 77.97611236572266 57.48471450805664 C 79.98261260986328 52.74081420898438 81 47.6992301940918 81 42.5 C 81 37.3007698059082 79.98261260986328 32.25918579101562 77.97611236572266 27.51528549194336 C 76.03721618652344 22.93121337890625 73.26067352294922 18.81345367431641 69.72361755371094 15.27638244628906 C 66.18653869628906 11.73932647705078 62.06878662109375 8.962783813476562 57.48471450805664 7.023887634277344 C 52.74081420898438 5.017387390136719 47.6992301940918 4 42.5 4 M 42.5 0 C 65.97209930419922 0 85 19.02790069580078 85 42.5 C 85 65.97209930419922 65.97209930419922 85 42.5 85 C 19.02790069580078 85 0 65.97209930419922 0 42.5 C 0 19.02790069580078 19.02790069580078 0 42.5 0 Z" stroke="none"/>
      </g>
      <g transform="matrix(1, 0, 0, 1, 206.05, 4876)" filter="url(#Path_903562-2)">
        <g id="Path_903562-5" data-name="Path 903562" transform="translate(9 6)" fill="#fff">
          <path d="M 42.5 83 C 37.03165054321289 83 31.72793769836426 81.92946624755859 26.73618698120117 79.81812286376953 C 21.91371154785156 77.77839660644531 17.582275390625 74.85792541503906 13.86217498779297 71.13782501220703 C 10.14207458496094 67.417724609375 7.22160005569458 63.08628845214844 5.181875228881836 58.26381301879883 C 3.070537567138672 53.27206420898438 2 47.96834945678711 2 42.5 C 2 37.03165054321289 3.070537567138672 31.72793769836426 5.181875228881836 26.73618698120117 C 7.22160005569458 21.91371154785156 10.14207458496094 17.582275390625 13.86217498779297 13.86217498779297 C 17.582275390625 10.14207458496094 21.91371154785156 7.22160005569458 26.73618698120117 5.181875228881836 C 31.72793769836426 3.070537567138672 37.03165054321289 2 42.5 2 C 47.96834945678711 2 53.27206420898438 3.070537567138672 58.26381301879883 5.181875228881836 C 63.08628845214844 7.22160005569458 67.417724609375 10.14207458496094 71.13782501220703 13.86217498779297 C 74.85792541503906 17.582275390625 77.77839660644531 21.91371154785156 79.81812286376953 26.73618698120117 C 81.92946624755859 31.72793769836426 83 37.03165054321289 83 42.5 C 83 47.96834945678711 81.92946624755859 53.27206420898438 79.81812286376953 58.26381301879883 C 77.77839660644531 63.08628845214844 74.85792541503906 67.417724609375 71.13782501220703 71.13782501220703 C 67.417724609375 74.85792541503906 63.08628845214844 77.77839660644531 58.26381301879883 79.81812286376953 C 53.27206420898438 81.92946624755859 47.96834945678711 83 42.5 83 Z" stroke="none"/>
          <path d="M 42.5 4 C 37.3007698059082 4 32.25918579101562 5.017387390136719 27.51528549194336 7.023887634277344 C 22.93121337890625 8.962783813476562 18.81345367431641 11.73932647705078 15.27638244628906 15.27638244628906 C 11.73932647705078 18.81345367431641 8.962783813476562 22.93121337890625 7.023887634277344 27.51528549194336 C 5.017387390136719 32.25918579101562 4 37.3007698059082 4 42.5 C 4 47.6992301940918 5.017387390136719 52.74081420898438 7.023887634277344 57.48471450805664 C 8.962783813476562 62.06878662109375 11.73932647705078 66.18653869628906 15.27638244628906 69.72361755371094 C 18.81345367431641 73.26067352294922 22.93121337890625 76.03721618652344 27.51528549194336 77.97611236572266 C 32.25918579101562 79.98261260986328 37.3007698059082 81 42.5 81 C 47.6992301940918 81 52.74081420898438 79.98261260986328 57.48471450805664 77.97611236572266 C 62.06878662109375 76.03721618652344 66.18653869628906 73.26067352294922 69.72361755371094 69.72361755371094 C 73.26067352294922 66.18653869628906 76.03721618652344 62.06878662109375 77.97611236572266 57.48471450805664 C 79.98261260986328 52.74081420898438 81 47.6992301940918 81 42.5 C 81 37.3007698059082 79.98261260986328 32.25918579101562 77.97611236572266 27.51528549194336 C 76.03721618652344 22.93121337890625 73.26067352294922 18.81345367431641 69.72361755371094 15.27638244628906 C 66.18653869628906 11.73932647705078 62.06878662109375 8.962783813476562 57.48471450805664 7.023887634277344 C 52.74081420898438 5.017387390136719 47.6992301940918 4 42.5 4 M 42.5 0 C 65.97209930419922 0 85 19.02790069580078 85 42.5 C 85 65.97209930419922 65.97209930419922 85 42.5 85 C 19.02790069580078 85 0 65.97209930419922 0 42.5 C 0 19.02790069580078 19.02790069580078 0 42.5 0 Z" stroke="none"/>
        </g>
      </g>
      <g id="Path_903562-6" data-name="Path 903562" transform="translate(215.051 4882)" fill="none">
        <path d="M 42.5 83 C 37.03165054321289 83 31.72793769836426 81.92946624755859 26.73618698120117 79.81812286376953 C 21.91371154785156 77.77839660644531 17.582275390625 74.85792541503906 13.86217498779297 71.13782501220703 C 10.14207458496094 67.417724609375 7.22160005569458 63.08628845214844 5.181875228881836 58.26381301879883 C 3.070537567138672 53.27206420898438 2 47.96834945678711 2 42.5 C 2 37.03165054321289 3.070537567138672 31.72793769836426 5.181875228881836 26.73618698120117 C 7.22160005569458 21.91371154785156 10.14207458496094 17.582275390625 13.86217498779297 13.86217498779297 C 17.582275390625 10.14207458496094 21.91371154785156 7.22160005569458 26.73618698120117 5.181875228881836 C 31.72793769836426 3.070537567138672 37.03165054321289 2 42.5 2 C 47.96834945678711 2 53.27206420898438 3.070537567138672 58.26381301879883 5.181875228881836 C 63.08628845214844 7.22160005569458 67.417724609375 10.14207458496094 71.13782501220703 13.86217498779297 C 74.85792541503906 17.582275390625 77.77839660644531 21.91371154785156 79.81812286376953 26.73618698120117 C 81.92946624755859 31.72793769836426 83 37.03165054321289 83 42.5 C 83 47.96834945678711 81.92946624755859 53.27206420898438 79.81812286376953 58.26381301879883 C 77.77839660644531 63.08628845214844 74.85792541503906 67.417724609375 71.13782501220703 71.13782501220703 C 67.417724609375 74.85792541503906 63.08628845214844 77.77839660644531 58.26381301879883 79.81812286376953 C 53.27206420898438 81.92946624755859 47.96834945678711 83 42.5 83 Z" stroke="none"/>
        <path d="M 42.5 4 C 37.3007698059082 4 32.25918579101562 5.017387390136719 27.51528549194336 7.023887634277344 C 22.93121337890625 8.962783813476562 18.81345367431641 11.73932647705078 15.27638244628906 15.27638244628906 C 11.73932647705078 18.81345367431641 8.962783813476562 22.93121337890625 7.023887634277344 27.51528549194336 C 5.017387390136719 32.25918579101562 4 37.3007698059082 4 42.5 C 4 47.6992301940918 5.017387390136719 52.74081420898438 7.023887634277344 57.48471450805664 C 8.962783813476562 62.06878662109375 11.73932647705078 66.18653869628906 15.27638244628906 69.72361755371094 C 18.81345367431641 73.26067352294922 22.93121337890625 76.03721618652344 27.51528549194336 77.97611236572266 C 32.25918579101562 79.98261260986328 37.3007698059082 81 42.5 81 C 47.6992301940918 81 52.74081420898438 79.98261260986328 57.48471450805664 77.97611236572266 C 62.06878662109375 76.03721618652344 66.18653869628906 73.26067352294922 69.72361755371094 69.72361755371094 C 73.26067352294922 66.18653869628906 76.03721618652344 62.06878662109375 77.97611236572266 57.48471450805664 C 79.98261260986328 52.74081420898438 81 47.6992301940918 81 42.5 C 81 37.3007698059082 79.98261260986328 32.25918579101562 77.97611236572266 27.51528549194336 C 76.03721618652344 22.93121337890625 73.26067352294922 18.81345367431641 69.72361755371094 15.27638244628906 C 66.18653869628906 11.73932647705078 62.06878662109375 8.962783813476562 57.48471450805664 7.023887634277344 C 52.74081420898438 5.017387390136719 47.6992301940918 4 42.5 4 M 42.5 0 C 65.97209930419922 0 85 19.02790069580078 85 42.5 C 85 65.97209930419922 65.97209930419922 85 42.5 85 C 19.02790069580078 85 0 65.97209930419922 0 42.5 C 0 19.02790069580078 19.02790069580078 0 42.5 0 Z" stroke="none" fill="#fff"/>
      </g>
    </g>
    <g id="Accounting_Book_2_" transform="translate(233.051 4900)">
      <g id="Color_15_" transform="translate(0.718 0.718)">
        <path id="Path_907016" data-name="Path 907016" d="M231.742,456.414a2.871,2.871,0,0,1-5.742,0l2.871-1.914Z" transform="translate(-205.089 -411.721)" fill="#2e67d0"/>
        <g id="Group_1113423" data-name="Group 1113423" transform="translate(0 11.197)">
          <g id="Group_1113421" data-name="Group 1113421" transform="translate(18.04)">
            <path id="Path_907017" data-name="Path 907017" d="M249.143,156.534l.656,1.914h21.39a2.393,2.393,0,0,0,2.393-2.393V127.345A2.393,2.393,0,0,0,271.667,125Z" transform="translate(-244.057 -124.952)" fill="#5c85da"/>
            <path id="Path_907018" data-name="Path 907018" d="M223.61,154.168v-29.62a2.4,2.4,0,0,0-.479-.048h-21.39L196,141.248l5.086,14.834H221.7A1.914,1.914,0,0,0,223.61,154.168Z" transform="translate(-196 -124.5)" fill="#4677d5"/>
          </g>
          <g id="Group_1113422" data-name="Group 1113422">
            <path id="Path_907019" data-name="Path 907019" d="M164.141,438.328H171v-1.914l-4.1-1.914-4.9,1.914Z" transform="translate(-147.214 -404.832)" fill="#4677d5"/>
            <path id="Path_907020" data-name="Path 907020" d="M31.282,124.5H9.893A2.393,2.393,0,0,0,7.5,126.893V155.6A2.393,2.393,0,0,0,9.893,158H24.427q-.241-.558-.47-1.125a.575.575,0,0,1,.533-.789h6.792Z" transform="translate(-7.5 -124.5)" fill="#2e67d0"/>
          </g>
        </g>
        <g id="Group_1113426" data-name="Group 1113426" transform="translate(3.828 7.369)">
          <g id="Group_1113424" data-name="Group 1113424" transform="translate(14.212)">
            <path id="Path_907021" data-name="Path 907021" d="M198.067,96.6,196,101.248,201.742,118h18.279a1.675,1.675,0,0,0,1.675-1.675V86.175a1.675,1.675,0,0,0-1.675-1.675h-7.408Z" transform="translate(-196 -84.5)" fill="#e8edf5"/>
            <path id="Path_907022" data-name="Path 907022" d="M232.278,86.223a11.042,11.042,0,0,0-.135-1.723H225.1a3.828,3.828,0,0,0-3.828,3.828L217.6,96.6a11.008,11.008,0,0,0,14.681-10.375Z" transform="translate(-215.53 -84.5)" fill="#dbe2ec"/>
          </g>
          <g id="Group_1113425" data-name="Group 1113425">
            <path id="Path_907023" data-name="Path 907023" d="M110.789,102H107.5v30.146l5.873,1.675h8.339V113.054Z" transform="translate(-101.758 -100.325)" fill="#dbe2ec"/>
            <path id="Path_907024" data-name="Path 907024" d="M63.626,84.5H49.175A1.675,1.675,0,0,0,47.5,86.175v30.146A1.675,1.675,0,0,0,49.175,118h9.94a60,60,0,0,1-3.241-19.619,61.7,61.7,0,0,1,.643-8.912.211.211,0,0,1,.411-.029,11.026,11.026,0,0,0,10.527,7.792v-8.9A3.828,3.828,0,0,0,63.626,84.5Z" transform="translate(-47.5 -84.5)" fill="#ccd3e2"/>
          </g>
        </g>
        <g id="Group_1113430" data-name="Group 1113430" transform="translate(8.613 12.154)">
          <g id="Group_1113428" data-name="Group 1113428">
            <path id="Path_907025" data-name="Path 907025" d="M121.78,134.5h-.339l-2.174,2.393,1.654,2.393h3.723l-.426-2.393Z" transform="translate(-117.184 -134.5)" fill="#60daa8"/>
            <g id="Group_1113427" data-name="Group 1113427">
              <path id="Path_907026" data-name="Path 907026" d="M151.508,134.5h-5.979a11.018,11.018,0,0,0,2.863,4.785h3.115Z" transform="translate(-140.932 -134.5)" fill="#36d49b"/>
              <path id="Path_907027" data-name="Path 907027" d="M98.457,134.5a.957.957,0,0,0-.957.957v2.871a.957.957,0,0,0,.957.957h2.78q.168-2.427.521-4.785Z" transform="translate(-97.5 -134.5)" fill="#36d49b"/>
            </g>
          </g>
          <g id="Group_1113429" data-name="Group 1113429" transform="translate(19.763)">
            <path id="Path_907028" data-name="Path 907028" d="M336.551,139.285h6.5a.957.957,0,0,0,.957-.957v-2.871a.957.957,0,0,0-.957-.957h-3.639l-2.863,2.393v2.393Z" transform="translate(-333.436 -134.5)" fill="#fd7a6e"/>
            <path id="Path_907029" data-name="Path 907029" d="M309.979,134.5H304v4.785h3.115A11.019,11.019,0,0,0,309.979,134.5Z" transform="translate(-304 -134.5)" fill="#fb695b"/>
          </g>
        </g>
        <g id="Group_1113431" data-name="Group 1113431" transform="translate(14.69)">
          <path id="Path_907030" data-name="Path 907030" d="M198.95,25.445a9.094,9.094,0,1,0-4.666-17.571l-3.671,3.947,5.071,13.624Z" transform="translate(-187.779 -7.5)" fill="#ffe54e"/>
          <path id="Path_907031" data-name="Path 907031" d="M165.965,17.846a13.9,13.9,0,0,1,1.54-6.446,9.094,9.094,0,0,0,4.666,17.571C168.539,27.24,165.965,22.911,165.965,17.846Z" transform="translate(-161 -11.027)" fill="#ffdb2f"/>
        </g>
      </g>
      <g id="Lineal_Expanded_15_">
        <path id="Path_907032" data-name="Path 907032" d="M45.89,11.2h-.718V9.762a2.4,2.4,0,0,0-2.393-2.393H34a9.811,9.811,0,0,0-19,0H6.221A2.4,2.4,0,0,0,3.828,9.762V11.2H3.11A3.114,3.114,0,0,0,0,14.308V43.019a3.114,3.114,0,0,0,3.11,3.11H20.983a3.589,3.589,0,0,0,7.033,0h8.3a.718.718,0,0,0,0-1.436h-11.1V42.3H42.779a2.4,2.4,0,0,0,2.393-2.393V12.633h.718a1.677,1.677,0,0,1,1.675,1.675V43.019a1.677,1.677,0,0,1-1.675,1.675H39.669a.718.718,0,0,0,0,1.436H45.89A3.114,3.114,0,0,0,49,43.019V14.308A3.114,3.114,0,0,0,45.89,11.2ZM33.552,13.59h5.16a.24.24,0,0,1,.239.239V16.7a.24.24,0,0,1-.239.239H31.231A9.849,9.849,0,0,0,33.552,13.59Zm-15.783,3.35H10.288a.24.24,0,0,1-.239-.239V13.829a.24.24,0,0,1,.239-.239h5.16A9.848,9.848,0,0,0,17.769,16.939ZM3.11,44.693a1.677,1.677,0,0,1-1.675-1.675V14.308A1.677,1.677,0,0,1,3.11,12.633h.718v3.35a.718.718,0,0,0,1.436,0V9.762A.958.958,0,0,1,6.221,8.8h8.521a9.865,9.865,0,0,0,.232,3.35H10.288a1.677,1.677,0,0,0-1.675,1.675V16.7a1.677,1.677,0,0,0,1.675,1.675h1.2v3.35H9.331a.718.718,0,0,0,0,1.436h2.153v3.35H9.331a.718.718,0,0,0,0,1.436h2.153v3.35H9.331a.718.718,0,1,0,0,1.436h2.153v3.35H9.331a.718.718,0,0,0,0,1.436H19.715a.718.718,0,0,0,0-1.436H12.92V32.73h6.795a.718.718,0,1,0,0-1.436H12.92v-3.35h6.795a.718.718,0,0,0,0-1.436H12.92V23.16h6.795a.718.718,0,0,0,0-1.436H12.92v-3.35h6.8a9.74,9.74,0,0,0,4.06,1.218V40.865H6.221a.958.958,0,0,1-.957-.957V19.332a.718.718,0,1,0-1.436,0V39.908A2.4,2.4,0,0,0,6.221,42.3H23.782v2.393Zm23.42,1.436a2.154,2.154,0,0,1-4.061,0ZM24.5,18.184A8.374,8.374,0,1,1,32.874,9.81,8.383,8.383,0,0,1,24.5,18.184ZM43.736,39.908a.958.958,0,0,1-.957.957H25.218V19.593a9.738,9.738,0,0,0,4.06-1.218h2.161v3.35H29.285a.718.718,0,0,0,0,1.436h2.153v3.35H29.285a.718.718,0,0,0,0,1.436h2.153v3.35H29.285a.718.718,0,1,0,0,1.436h2.153v3.35H29.285a.718.718,0,0,0,0,1.436H39.669a.718.718,0,0,0,0-1.436H32.874V32.73h6.795a.718.718,0,1,0,0-1.436H32.874v-3.35h6.795a.718.718,0,0,0,0-1.436H32.874V23.16h6.795a.718.718,0,0,0,0-1.436H32.874v-3.35h5.838A1.677,1.677,0,0,0,40.387,16.7V13.829a1.677,1.677,0,0,0-1.675-1.675H34.026a9.865,9.865,0,0,0,.232-3.35h8.521a.958.958,0,0,1,.957.957Z"/>
        <path id="Path_907033" data-name="Path 907033" d="M226.61,36.221a1.675,1.675,0,1,1,1.675-1.675.718.718,0,0,0,1.436,0,3.116,3.116,0,0,0-2.393-3.027v-.8a.718.718,0,1,0-1.436,0v.8a3.111,3.111,0,0,0,.718,6.137,1.675,1.675,0,1,1-1.675,1.675.718.718,0,1,0-1.436,0,3.116,3.116,0,0,0,2.393,3.027v.8a.718.718,0,0,0,1.436,0v-.8a3.111,3.111,0,0,0-.718-6.137Z" transform="translate(-202.11 -27.129)"/>
      </g>
    </g>
  </g>
</svg>
