<svg xmlns="http://www.w3.org/2000/svg" xmlns:xlink="http://www.w3.org/1999/xlink" width="108.914" height="108.914" viewBox="0 0 108.914 108.914">
  <defs>
    <filter id="Path_874925" x="0" y="0" width="108.914" height="108.914" filterUnits="userSpaceOnUse">
      <feOffset dy="3" input="SourceAlpha"/>
      <feGaussianBlur stdDeviation="3" result="blur"/>
      <feFlood flood-opacity="0.161"/>
      <feComposite operator="in" in2="blur"/>
      <feComposite in="SourceGraphic"/>
    </filter>
  </defs>
  <g id="Group_1113398" data-name="Group 1113398" transform="translate(-749.051 -2684)">
    <g id="Group_1111315" data-name="Group 1111315" transform="translate(-50.449 737.789)">
      <g id="Group_1109835" data-name="Group 1109835">
        <g id="Group_1107913" data-name="Group 1107913" transform="translate(808.5 1952.211)">
          <g transform="matrix(1, 0, 0, 1, -9, -6)" filter="url(#Path_874925)">
            <g id="Path_874925-2" data-name="Path 874925" transform="translate(9 6)" fill="#fd9826" opacity="0.859">
              <path d="M 45.45676803588867 89.41407012939453 C 39.52198028564453 89.41407012939453 33.76551818847656 88.25206756591797 28.34726715087891 85.96034240722656 C 23.11311721801758 83.74648284912109 18.41204261779785 80.57682800292969 14.37464332580566 76.5394287109375 C 10.33724308013916 72.50202941894531 7.167593002319336 67.80095672607422 4.953730583190918 62.56679534912109 C 2.662005424499512 57.14855575561523 1.500005483627319 51.39208221435547 1.500005483627319 45.45729446411133 C 1.500005483627319 39.52198028564453 2.662005424499512 33.76551818847656 4.953730583190918 28.34726905822754 C 7.167593002319336 23.11310577392578 10.33724308013916 18.41203117370605 14.37464332580566 14.37464332580566 C 18.41204261779785 10.33724403381348 23.11311721801758 7.167593955993652 28.34726715087891 4.953731060028076 C 33.76551818847656 2.662006139755249 39.52198028564453 1.500006198883057 45.45676803588867 1.500006198883057 C 51.39155578613281 1.500006198883057 57.14802932739258 2.662006139755249 62.56626892089844 4.953731060028076 C 67.80043029785156 7.167593955993652 72.50150299072266 10.33724403381348 76.53890228271484 14.37464332580566 C 80.57630920410156 18.41203117370605 83.74595642089844 23.11310577392578 85.95981597900391 28.34726905822754 C 88.25154113769531 33.76551818847656 89.41354370117188 39.52198028564453 89.41354370117188 45.45676803588867 C 89.41354370117188 51.39208221435547 88.25154113769531 57.14855575561523 85.95981597900391 62.56679534912109 C 83.74595642089844 67.80095672607422 80.57630920410156 72.50202941894531 76.53890228271484 76.5394287109375 C 72.50150299072266 80.57682800292969 67.80043029785156 83.74648284912109 62.56626892089844 85.96034240722656 C 57.14802932739258 88.25206756591797 51.39155578613281 89.41407012939453 45.45676803588867 89.41407012939453 Z" stroke="none"/>
              <path d="M 45.45676803588867 3 C 39.72381210327148 3 34.1639404296875 4.12213134765625 28.93159484863281 6.335227966308594 C 23.87622833251953 8.473472595214844 19.33542633056641 11.53517150878906 15.43529510498047 15.435302734375 C 11.53517150878906 19.33543395996094 8.473464965820312 23.87622833251953 6.335227966308594 28.93160247802734 C 4.122123718261719 34.16394424438477 3 39.72381591796875 3 45.4572868347168 C 3 51.19024658203125 4.122123718261719 56.75011825561523 6.335227966308594 61.98246002197266 C 8.473464965820312 67.03782653808594 11.53517150878906 71.57862854003906 15.43529510498047 75.478759765625 C 19.33542633056641 79.37889099121094 23.87622833251953 82.44058990478516 28.93159484863281 84.57883453369141 C 34.1639404296875 86.79193115234375 39.72381210327148 87.9140625 45.45676803588867 87.9140625 C 51.18972396850586 87.9140625 56.74959564208984 86.79193115234375 61.98194122314453 84.57883453369141 C 67.03730773925781 82.44058990478516 71.57810974121094 79.37889099121094 75.47824096679688 75.478759765625 C 79.37837219238281 71.57862854003906 82.44007110595703 67.03782653808594 84.57830810546875 61.98246002197266 C 86.79141235351562 56.75011825561523 87.91353607177734 51.19024658203125 87.91353607177734 45.4567756652832 C 87.91353607177734 39.72381591796875 86.79141235351562 34.16394424438477 84.57830810546875 28.93160247802734 C 82.44007110595703 23.87622833251953 79.37837219238281 19.33543395996094 75.47824096679688 15.435302734375 C 71.57810974121094 11.53517150878906 67.03730773925781 8.473472595214844 61.98194122314453 6.335227966308594 C 56.74959564208984 4.12213134765625 51.18972396850586 3 45.45676803588867 3 M 45.45676803588867 0 C 70.56185150146484 0 90.91353607177734 20.35169219970703 90.91353607177734 45.4567756652832 L 90.91353607177734 45.4572868347168 C 90.91353607177734 70.5623779296875 70.56185150146484 90.9140625 45.45676803588867 90.9140625 C 20.3516845703125 90.9140625 0 70.5623779296875 0 45.4572868347168 L 0 45.4567756652832 C 0 20.35169219970703 20.3516845703125 0 45.45676803588867 0 Z" stroke="none" fill="#fff"/>
            </g>
          </g>
          <g id="Path_874923" data-name="Path 874923" transform="translate(0 0)" fill="none">
            <path d="M45.457,0A45.457,45.457,0,0,1,90.914,45.457h0A45.457,45.457,0,0,1,0,45.457H0A45.457,45.457,0,0,1,45.457,0Z" stroke="none"/>
            <path d="M 45.45676803588867 3 C 39.72381210327148 3 34.1639404296875 4.12213134765625 28.93159484863281 6.335227966308594 C 23.87622833251953 8.473472595214844 19.33542633056641 11.53517150878906 15.43529510498047 15.435302734375 C 11.53517150878906 19.33543395996094 8.473464965820312 23.87622833251953 6.335227966308594 28.93160247802734 C 4.122123718261719 34.16394424438477 3 39.72381591796875 3 45.4572868347168 C 3 51.19024658203125 4.122123718261719 56.75011825561523 6.335227966308594 61.98246002197266 C 8.473464965820312 67.03782653808594 11.53517150878906 71.57862854003906 15.43529510498047 75.478759765625 C 19.33542633056641 79.37889099121094 23.87622833251953 82.44058990478516 28.93159484863281 84.57883453369141 C 34.1639404296875 86.79193115234375 39.72381210327148 87.9140625 45.45676803588867 87.9140625 C 51.18972396850586 87.9140625 56.74959564208984 86.79193115234375 61.98194122314453 84.57883453369141 C 67.03730773925781 82.44058990478516 71.57810974121094 79.37889099121094 75.47824096679688 75.478759765625 C 79.37837219238281 71.57862854003906 82.44007110595703 67.03782653808594 84.57830810546875 61.98246002197266 C 86.79141235351562 56.75011825561523 87.91353607177734 51.19024658203125 87.91353607177734 45.4567756652832 C 87.91353607177734 39.72381591796875 86.79141235351562 34.16394424438477 84.57830810546875 28.93160247802734 C 82.44007110595703 23.87622833251953 79.37837219238281 19.33543395996094 75.47824096679688 15.435302734375 C 71.57810974121094 11.53517150878906 67.03730773925781 8.473472595214844 61.98194122314453 6.335227966308594 C 56.74959564208984 4.12213134765625 51.18972396850586 3 45.45676803588867 3 M 45.45676803588867 0 C 70.56185150146484 0 90.91353607177734 20.35169219970703 90.91353607177734 45.4567756652832 L 90.91353607177734 45.4572868347168 C 90.91353607177734 70.5623779296875 70.56185150146484 90.9140625 45.45676803588867 90.9140625 C 20.3516845703125 90.9140625 0 70.5623779296875 0 45.4572868347168 L 0 45.4567756652832 C 0 20.35169219970703 20.3516845703125 0 45.45676803588867 0 Z" stroke="none" fill="#fff"/>
          </g>
        </g>
      </g>
    </g>
    <g id="exchange-transfer-money-bank-financial" transform="translate(771.758 2703)">
      <circle id="Ellipse_12923" data-name="Ellipse 12923" cx="16" cy="16" r="16" transform="translate(3 3)" fill="#ffe477"/>
      <path id="Path_906676" data-name="Path 906676" d="M35,19A16,16,0,0,1,19,35a16.524,16.524,0,0,1-2-.12A16,16,0,0,0,17,3.13,14.713,14.713,0,0,1,19,3,16,16,0,0,1,35,19Z" fill="#ffd422"/>
      <path id="Path_906677" data-name="Path 906677" d="M25,15H21a2,2,0,1,0-2,2,6,6,0,0,1,2,11.65V31H17V28.65A5.991,5.991,0,0,1,13,23h4a2,2,0,1,0,2-2A6,6,0,0,1,17,9.34V7h4V9.35A5.991,5.991,0,0,1,25,15Z" fill="#ffcd00"/>
      <g id="Group_1113397" data-name="Group 1113397">
        <path id="Path_906678" data-name="Path 906678" d="M18,24.73A2,2,0,0,1,15,23h2A2,2,0,0,0,18,24.73Z" fill="#ddb200"/>
        <path id="Path_906679" data-name="Path 906679" d="M25,23a5.991,5.991,0,0,1-4,5.65V31H19V28.65A6,6,0,0,0,17,17a2,2,0,1,1,1-3.73A2,2,0,0,0,19,17a6,6,0,0,1,6,6Z" fill="#ddb200"/>
        <path id="Path_906680" data-name="Path 906680" d="M19,9.35V7h2V9.35A5.991,5.991,0,0,1,25,15H23a5.991,5.991,0,0,0-4-5.65Z" fill="#ddb200"/>
      </g>
      <circle id="Ellipse_12924" data-name="Ellipse 12924" cx="16" cy="16" r="16" transform="translate(29 29)" fill="#bdfdff"/>
      <path id="Path_906681" data-name="Path 906681" d="M55,43H35L45,33Z" fill="#806749"/>
      <path id="Path_906682" data-name="Path 906682" d="M55,43H51l-8-8,2-2Z" fill="#5f4d37"/>
      <path id="Path_906683" data-name="Path 906683" d="M47,43h4v9H47Z" fill="#c6c5ca"/>
      <path id="Path_906684" data-name="Path 906684" d="M43,43h4v9H43Z" fill="#bdfdff"/>
      <path id="Path_906685" data-name="Path 906685" d="M39,43h4v9H39Z" fill="#c6c5ca"/>
      <path id="Path_906686" data-name="Path 906686" d="M61,45A16,16,0,0,1,45,61a16.523,16.523,0,0,1-2-.12,16,16,0,0,0,0-31.75A14.713,14.713,0,0,1,45,29,16,16,0,0,1,61,45Z" fill="#46f8ff"/>
      <path id="Path_906687" data-name="Path 906687" d="M49,43h2v9H49Z" fill="#898890"/>
      <path id="Path_906688" data-name="Path 906688" d="M41,43h2v9H41Z" fill="#898890"/>
      <path id="Path_906689" data-name="Path 906689" d="M37,52H53v4H37Z" fill="#806749"/>
      <path id="Path_906690" data-name="Path 906690" d="M50,52h3v4H50Z" fill="#5f4d37"/>
      <path id="Path_906691" data-name="Path 906691" d="M19,24a1,1,0,0,1-1-1,1,1,0,0,0-1-1H13a1,1,0,0,0-1,1,7.009,7.009,0,0,0,4,6.319V31a1,1,0,0,0,1,1h4a1,1,0,0,0,1-1V29.319A7,7,0,0,0,19,16a1,1,0,1,1,1-1,1,1,0,0,0,1,1h4a1,1,0,0,0,1-1,7.011,7.011,0,0,0-4-6.32V7a1,1,0,0,0-1-1H17a1,1,0,0,0-1,1V8.669A7,7,0,0,0,19,22a1,1,0,1,1,0,2Zm0-4a4.983,4.983,0,0,1-3.882-1.849,5.045,5.045,0,0,1-1-4.238,4.94,4.94,0,0,1,3.215-3.629A1,1,0,0,0,18,9.34V8h2V9.348a1,1,0,0,0,.667.942A5.012,5.012,0,0,1,23.9,14H21.829A3,3,0,1,0,19,18a5,5,0,0,1,1.667,9.709,1,1,0,0,0-.667.942V30H18V28.651a1,1,0,0,0-.667-.942A5.011,5.011,0,0,1,14.1,24h2.069A3,3,0,1,0,19,20Z"/>
      <path id="Path_906692" data-name="Path 906692" d="M19,36A17,17,0,1,0,2,19,17,17,0,0,0,19,36ZM19,4A15,15,0,1,1,4,19,15,15,0,0,1,19,4Z"/>
      <path id="Path_906693" data-name="Path 906693" d="M45,28A17,17,0,1,0,62,45,17,17,0,0,0,45,28Zm0,32A15,15,0,1,1,60,45,15,15,0,0,1,45,60Z"/>
      <path id="Path_906694" data-name="Path 906694" d="M55.71,42.29l-10-10a1.008,1.008,0,0,0-1.42,0l-10,10a1,1,0,0,0-.21,1.09A.987.987,0,0,0,35,44h3v7H37a1,1,0,0,0-1,1v4a1,1,0,0,0,1,1H53a1,1,0,0,0,1-1V52a1,1,0,0,0-1-1H52V44h3a.987.987,0,0,0,.92-.62A1,1,0,0,0,55.71,42.29ZM52,55H38V53H52ZM40,51V44h2v7Zm4,0V44h2v7Zm4,0V44h2v7ZM37.41,42,45,34.41,52.59,42Z"/>
      <circle id="Ellipse_12925" data-name="Ellipse 12925" cx="2" cy="2" r="2" transform="translate(43 37)"/>
      <path id="Path_906695" data-name="Path 906695" d="M7.146,37.56l2.147,2.147,1.414-1.414-4-4a1,1,0,0,0-1.414,0l-4,4,1.414,1.414,2.4-2.4A25.031,25.031,0,0,0,30,60V58A23.03,23.03,0,0,1,7.146,37.56Z"/>
      <path id="Path_906696" data-name="Path 906696" d="M56.854,26.44l-2.147-2.147-1.414,1.414,4,4a1,1,0,0,0,1.414,0l4-4-1.414-1.414-2.4,2.4A25.031,25.031,0,0,0,34,4V6A23.03,23.03,0,0,1,56.854,26.44Z"/>
    </g>
  </g>
</svg>
