<svg xmlns="http://www.w3.org/2000/svg" xmlns:xlink="http://www.w3.org/1999/xlink" width="108.914" height="108.914" viewBox="0 0 108.914 108.914">
  <defs>
    <filter id="Trazado_874925" x="0" y="0" width="108.914" height="108.914" filterUnits="userSpaceOnUse">
      <feOffset dy="3" input="SourceAlpha"/>
      <feGaussianBlur stdDeviation="3" result="blur"/>
      <feFlood flood-opacity="0.161"/>
      <feComposite operator="in" in2="blur"/>
      <feComposite in="SourceGraphic"/>
    </filter>
  </defs>
  <g id="Grupo_1112791" data-name="Grupo 1112791" transform="translate(5472 9702)">
    <g id="Grupo_1111317" data-name="Grupo 1111317" transform="translate(-6271.5 -11648.211)">
      <g id="Grupo_1109835" data-name="Grupo 1109835">
        <g id="Grupo_1107913" data-name="Grupo 1107913" transform="translate(808.5 1952.211)">
          <g transform="matrix(1, 0, 0, 1, -9, -6)" filter="url(#Trazado_874925)">
            <g id="Trazado_874925-2" data-name="Trazado 874925" transform="translate(9 6)" fill="#fd9826" opacity="0.859">
              <path d="M 45.45676803588867 89.41407012939453 C 39.52198028564453 89.41407012939453 33.76551818847656 88.25206756591797 28.34726715087891 85.96034240722656 C 23.11311721801758 83.74648284912109 18.41204261779785 80.57682800292969 14.37464332580566 76.5394287109375 C 10.33724308013916 72.50202941894531 7.167593002319336 67.80095672607422 4.953730583190918 62.56679534912109 C 2.662005424499512 57.14855575561523 1.500005483627319 51.39208221435547 1.500005483627319 45.45729446411133 C 1.500005483627319 39.52198028564453 2.662005424499512 33.76551818847656 4.953730583190918 28.34726905822754 C 7.167593002319336 23.11310577392578 10.33724308013916 18.41203117370605 14.37464332580566 14.37464332580566 C 18.41204261779785 10.33724403381348 23.11311721801758 7.167593955993652 28.34726715087891 4.953731060028076 C 33.76551818847656 2.662006139755249 39.52198028564453 1.500006198883057 45.45676803588867 1.500006198883057 C 51.39155578613281 1.500006198883057 57.14802932739258 2.662006139755249 62.56626892089844 4.953731060028076 C 67.80043029785156 7.167593955993652 72.50150299072266 10.33724403381348 76.53890228271484 14.37464332580566 C 80.57630920410156 18.41203117370605 83.74595642089844 23.11310577392578 85.95981597900391 28.34726905822754 C 88.25154113769531 33.76551818847656 89.41354370117188 39.52198028564453 89.41354370117188 45.45676803588867 C 89.41354370117188 51.39208221435547 88.25154113769531 57.14855575561523 85.95981597900391 62.56679534912109 C 83.74595642089844 67.80095672607422 80.57630920410156 72.50202941894531 76.53890228271484 76.5394287109375 C 72.50150299072266 80.57682800292969 67.80043029785156 83.74648284912109 62.56626892089844 85.96034240722656 C 57.14802932739258 88.25206756591797 51.39155578613281 89.41407012939453 45.45676803588867 89.41407012939453 Z" stroke="none"/>
              <path d="M 45.45676803588867 3 C 39.72381210327148 3 34.1639404296875 4.12213134765625 28.93159484863281 6.335227966308594 C 23.87622833251953 8.473472595214844 19.33542633056641 11.53517150878906 15.43529510498047 15.435302734375 C 11.53517150878906 19.33543395996094 8.473464965820312 23.87622833251953 6.335227966308594 28.93160247802734 C 4.122123718261719 34.16394424438477 3 39.72381591796875 3 45.4572868347168 C 3 51.19024658203125 4.122123718261719 56.75011825561523 6.335227966308594 61.98246002197266 C 8.473464965820312 67.03782653808594 11.53517150878906 71.57862854003906 15.43529510498047 75.478759765625 C 19.33542633056641 79.37889099121094 23.87622833251953 82.44058990478516 28.93159484863281 84.57883453369141 C 34.1639404296875 86.79193115234375 39.72381210327148 87.9140625 45.45676803588867 87.9140625 C 51.18972396850586 87.9140625 56.74959564208984 86.79193115234375 61.98194122314453 84.57883453369141 C 67.03730773925781 82.44058990478516 71.57810974121094 79.37889099121094 75.47824096679688 75.478759765625 C 79.37837219238281 71.57862854003906 82.44007110595703 67.03782653808594 84.57830810546875 61.98246002197266 C 86.79141235351562 56.75011825561523 87.91353607177734 51.19024658203125 87.91353607177734 45.4567756652832 C 87.91353607177734 39.72381591796875 86.79141235351562 34.16394424438477 84.57830810546875 28.93160247802734 C 82.44007110595703 23.87622833251953 79.37837219238281 19.33543395996094 75.47824096679688 15.435302734375 C 71.57810974121094 11.53517150878906 67.03730773925781 8.473472595214844 61.98194122314453 6.335227966308594 C 56.74959564208984 4.12213134765625 51.18972396850586 3 45.45676803588867 3 M 45.45676803588867 0 C 70.56185150146484 0 90.91353607177734 20.35169219970703 90.91353607177734 45.4567756652832 L 90.91353607177734 45.4572868347168 C 90.91353607177734 70.5623779296875 70.56185150146484 90.9140625 45.45676803588867 90.9140625 C 20.3516845703125 90.9140625 0 70.5623779296875 0 45.4572868347168 L 0 45.4567756652832 C 0 20.35169219970703 20.3516845703125 0 45.45676803588867 0 Z" stroke="none" fill="#fff"/>
            </g>
          </g>
          <g id="Trazado_874923" data-name="Trazado 874923" transform="translate(0 0)" fill="none">
            <path d="M45.457,0A45.457,45.457,0,0,1,90.914,45.457h0A45.457,45.457,0,0,1,0,45.457H0A45.457,45.457,0,0,1,45.457,0Z" stroke="none"/>
            <path d="M 45.45676803588867 3 C 39.72381210327148 3 34.1639404296875 4.12213134765625 28.93159484863281 6.335227966308594 C 23.87622833251953 8.473472595214844 19.33542633056641 11.53517150878906 15.43529510498047 15.435302734375 C 11.53517150878906 19.33543395996094 8.473464965820312 23.87622833251953 6.335227966308594 28.93160247802734 C 4.122123718261719 34.16394424438477 3 39.72381591796875 3 45.4572868347168 C 3 51.19024658203125 4.122123718261719 56.75011825561523 6.335227966308594 61.98246002197266 C 8.473464965820312 67.03782653808594 11.53517150878906 71.57862854003906 15.43529510498047 75.478759765625 C 19.33542633056641 79.37889099121094 23.87622833251953 82.44058990478516 28.93159484863281 84.57883453369141 C 34.1639404296875 86.79193115234375 39.72381210327148 87.9140625 45.45676803588867 87.9140625 C 51.18972396850586 87.9140625 56.74959564208984 86.79193115234375 61.98194122314453 84.57883453369141 C 67.03730773925781 82.44058990478516 71.57810974121094 79.37889099121094 75.47824096679688 75.478759765625 C 79.37837219238281 71.57862854003906 82.44007110595703 67.03782653808594 84.57830810546875 61.98246002197266 C 86.79141235351562 56.75011825561523 87.91353607177734 51.19024658203125 87.91353607177734 45.4567756652832 C 87.91353607177734 39.72381591796875 86.79141235351562 34.16394424438477 84.57830810546875 28.93160247802734 C 82.44007110595703 23.87622833251953 79.37837219238281 19.33543395996094 75.47824096679688 15.435302734375 C 71.57810974121094 11.53517150878906 67.03730773925781 8.473472595214844 61.98194122314453 6.335227966308594 C 56.74959564208984 4.12213134765625 51.18972396850586 3 45.45676803588867 3 M 45.45676803588867 0 C 70.56185150146484 0 90.91353607177734 20.35169219970703 90.91353607177734 45.4567756652832 L 90.91353607177734 45.4572868347168 C 90.91353607177734 70.5623779296875 70.56185150146484 90.9140625 45.45676803588867 90.9140625 C 20.3516845703125 90.9140625 0 70.5623779296875 0 45.4572868347168 L 0 45.4567756652832 C 0 20.35169219970703 20.3516845703125 0 45.45676803588867 0 Z" stroke="none" fill="#fff"/>
          </g>
        </g>
      </g>
    </g>
    <g id="Fill_out_line" data-name="Fill out line" transform="translate(-5461 -9701)">
      <path id="Trazado_903675" data-name="Trazado 903675" d="M64.089,42.933,44.044,32,24,42.933v41H64.089Z" transform="translate(-7.089 -7.089)" fill="#e6e6e6"/>
      <path id="Trazado_903676" data-name="Trazado 903676" d="M376,128h12.756v41H376Z" transform="translate(-319 -92.156)" fill="#b3b3b3"/>
      <path id="Trazado_903677" data-name="Trazado 903677" d="M56,152H88.8v38.267H56Z" transform="translate(-35.444 -113.422)" fill="#b3b3b3"/>
      <path id="Trazado_903678" data-name="Trazado 903678" d="M232.8,42.933,212.756,32H200l20.044,10.933Z" transform="translate(-163.045 -7.089)" fill="#ccc"/>
      <path id="Trazado_903679" data-name="Trazado 903679" d="M88,424h7.289v7.289H88Z" transform="translate(-63.8 -354.445)" fill="#fc7"/>
      <path id="Trazado_903680" data-name="Trazado 903680" d="M152,424h5.467v7.289H152Z" transform="translate(-120.511 -354.445)" fill="#fcb73f"/>
      <path id="Trazado_903681" data-name="Trazado 903681" d="M88,360h7.289v7.289H88Z" transform="translate(-63.8 -297.733)" fill="#ff6f35"/>
      <path id="Trazado_903682" data-name="Trazado 903682" d="M152,360h5.467v7.289H152Z" transform="translate(-120.511 -297.733)" fill="#e05e1d"/>
      <path id="Trazado_903683" data-name="Trazado 903683" d="M88,296h7.289v7.289H88Z" transform="translate(-63.8 -241.022)" fill="#fc7"/>
      <path id="Trazado_903684" data-name="Trazado 903684" d="M152,296h5.467v7.289H152Z" transform="translate(-120.511 -241.022)" fill="#fcb73f"/>
      <g id="Grupo_1112790" data-name="Grupo 1112790" transform="translate(41.068 73.188)">
        <ellipse id="Elipse_12909" data-name="Elipse 12909" cx="2.279" cy="1.709" rx="2.279" ry="1.709" transform="translate(0 0)" fill="gray"/>
        <circle id="Elipse_12910" data-name="Elipse 12910" cx="1.709" cy="1.709" r="1.709" transform="translate(7.976 0)" fill="gray"/>
        <circle id="Elipse_12911" data-name="Elipse 12911" cx="1.709" cy="1.709" r="1.709" transform="translate(17.092 0)" fill="gray"/>
      </g>
      <path id="Trazado_903685" data-name="Trazado 903685" d="M352,392h5.467v7.289H352Z" transform="translate(-297.733 -326.089)" fill="#e05e1d"/>
      <path id="Trazado_903686" data-name="Trazado 903686" d="M240,392h7.289v7.289H240Z" transform="translate(-198.489 -326.089)" fill="#fc7"/>
      <path id="Trazado_903687" data-name="Trazado 903687" d="M304,392h5.467v7.289H304Z" transform="translate(-255.2 -326.089)" fill="#fcb73f"/>
      <path id="Trazado_903688" data-name="Trazado 903688" d="M385.822,424a1.822,1.822,0,0,1,1.822,1.822v1.822H384v-1.822A1.822,1.822,0,0,1,385.822,424Z" transform="translate(-326.089 -354.445)" fill="#2b7cd4"/>
      <path id="Trazado_903689" data-name="Trazado 903689" d="M288,328h7.289v7.289H288Z" transform="translate(-241.022 -269.378)" fill="#fc7"/>
      <path id="Trazado_903690" data-name="Trazado 903690" d="M352,328h5.467v7.289H352Z" transform="translate(-297.733 -269.378)" fill="#fcb73f"/>
      <path id="Trazado_903691" data-name="Trazado 903691" d="M56,152H88.8v3.644H56Z" transform="translate(-35.444 -113.422)" fill="#3ea7ff"/>
      <path id="Trazado_903692" data-name="Trazado 903692" d="M56,184H88.8v3.644H56Z" transform="translate(-35.444 -141.778)" fill="#2b7cd4"/>
      <path id="Trazado_903693" data-name="Trazado 903693" d="M56,216H88.8v3.644H56Z" transform="translate(-35.444 -170.133)" fill="#104f91"/>
      <path id="Trazado_903694" data-name="Trazado 903694" d="M70.188,35.042,50.147,24.111A.912.912,0,0,0,49.711,24H36.955a.909.909,0,0,0-.436.111h0L16.475,35.045a.911.911,0,0,0-.475.8v41a.911.911,0,0,0,.911.911H38.778V75.933h-.911V54.978a.911.911,0,0,0-.911-.911H24.2a.911.911,0,0,0-.911.911V75.933H21.467V50.422H52.444v5.467h1.822V38.578a.911.911,0,0,0-.911-.911h-32.8a.911.911,0,0,0-.911.911V75.933H17.822V36.385L36.955,25.949,56.089,36.385V52.244h1.822V36.756H68.844V75.933H64.289v1.822h5.467a.911.911,0,0,0,.911-.911v-41a.911.911,0,0,0-.479-.8ZM21.467,48.6V46.778H52.444V48.6Zm0-3.644V43.133H52.444v1.822Zm30.978-5.467v1.822H21.467V39.489ZM32.4,63.178h3.644v5.467H32.4Zm-1.822,5.467H25.111V63.178h5.467ZM32.4,75.933V70.466h3.644v5.467Zm3.644-14.578H32.4V55.889h3.644Zm-5.467-5.467v5.467H25.111V55.889ZM25.111,70.466h5.467v5.467H25.111ZM57.232,34.933l-16.7-9.111h8.95l16.7,9.111Z" transform="translate(0 0)"/>
      <path id="Trazado_903695" data-name="Trazado 903695" d="M246.778,305.311a2.738,2.738,0,0,0-1.822-2.577v-6.192l4.83-5.52A1.822,1.822,0,0,0,248.414,288h-4.868a1.822,1.822,0,0,0-1.371.622l-2.644,3.022h-8.242a.911.911,0,0,0-.911.911v6.378h-4.556a.911.911,0,0,0-.911.911v6.378H224v1.822h1.068a2.733,2.733,0,1,0,5.153,0h2.136a2.733,2.733,0,1,0,5.153,0h3.958a2.733,2.733,0,1,0,5.153,0h1.068v-1.822h-.911Zm-3.644.911v-.911a.911.911,0,1,1,1.822,0v.911Zm-9.111,0v-5.467h3.644v5.467Zm9.111-12.756v5.467h-3.644v-5.467Zm-3.644,7.289h3.644v1.979a2.738,2.738,0,0,0-1.822,2.577v.911h-1.822Zm4.058-10.933h4.867l-3.458,3.952v-1.22a.911.911,0,0,0-.911-.911h-2.092ZM232.2,293.467h5.467v5.467H232.2Zm-3.644,15.489a.911.911,0,1,1-.911-.911.911.911,0,0,1,.911.911Zm-1.822-2.733v-5.467H232.2v5.467Zm9.111,2.733a.911.911,0,1,1-.911-.911.911.911,0,0,1,.911.911Zm8.2.911a.911.911,0,1,1,.911-.911A.911.911,0,0,1,244.044,309.867Z" transform="translate(-184.311 -233.933)"/>
    </g>
  </g>
</svg>
