<svg xmlns="http://www.w3.org/2000/svg" xmlns:xlink="http://www.w3.org/1999/xlink" width="108.914" height="108.914" viewBox="0 0 108.914 108.914">
  <defs>
    <filter id="Path_874925" x="0" y="0" width="108.914" height="108.914" filterUnits="userSpaceOnUse">
      <feOffset dy="3" input="SourceAlpha"/>
      <feGaussianBlur stdDeviation="3" result="blur"/>
      <feFlood flood-opacity="0.161"/>
      <feComposite operator="in" in2="blur"/>
      <feComposite in="SourceGraphic"/>
    </filter>
  </defs>
  <g id="Group_1113396" data-name="Group 1113396" transform="translate(-434.051 -2684)">
    <g id="Group_1111314" data-name="Group 1111314" transform="translate(-365.449 737.789)">
      <g id="Group_1109835" data-name="Group 1109835">
        <g id="Group_1107913" data-name="Group 1107913" transform="translate(808.5 1952.211)">
          <g transform="matrix(1, 0, 0, 1, -9, -6)" filter="url(#Path_874925)">
            <g id="Path_874925-2" data-name="Path 874925" transform="translate(9 6)" fill="#fd9826" opacity="0.859">
              <path d="M 45.45676803588867 89.41407012939453 C 39.52198028564453 89.41407012939453 33.76551818847656 88.25206756591797 28.34726715087891 85.96034240722656 C 23.11311721801758 83.74648284912109 18.41204261779785 80.57682800292969 14.37464332580566 76.5394287109375 C 10.33724308013916 72.50202941894531 7.167593002319336 67.80095672607422 4.953730583190918 62.56679534912109 C 2.662005424499512 57.14855575561523 1.500005483627319 51.39208221435547 1.500005483627319 45.45729446411133 C 1.500005483627319 39.52198028564453 2.662005424499512 33.76551818847656 4.953730583190918 28.34726905822754 C 7.167593002319336 23.11310577392578 10.33724308013916 18.41203117370605 14.37464332580566 14.37464332580566 C 18.41204261779785 10.33724403381348 23.11311721801758 7.167593955993652 28.34726715087891 4.953731060028076 C 33.76551818847656 2.662006139755249 39.52198028564453 1.500006198883057 45.45676803588867 1.500006198883057 C 51.39155578613281 1.500006198883057 57.14802932739258 2.662006139755249 62.56626892089844 4.953731060028076 C 67.80043029785156 7.167593955993652 72.50150299072266 10.33724403381348 76.53890228271484 14.37464332580566 C 80.57630920410156 18.41203117370605 83.74595642089844 23.11310577392578 85.95981597900391 28.34726905822754 C 88.25154113769531 33.76551818847656 89.41354370117188 39.52198028564453 89.41354370117188 45.45676803588867 C 89.41354370117188 51.39208221435547 88.25154113769531 57.14855575561523 85.95981597900391 62.56679534912109 C 83.74595642089844 67.80095672607422 80.57630920410156 72.50202941894531 76.53890228271484 76.5394287109375 C 72.50150299072266 80.57682800292969 67.80043029785156 83.74648284912109 62.56626892089844 85.96034240722656 C 57.14802932739258 88.25206756591797 51.39155578613281 89.41407012939453 45.45676803588867 89.41407012939453 Z" stroke="none"/>
              <path d="M 45.45676803588867 3 C 39.72381210327148 3 34.1639404296875 4.12213134765625 28.93159484863281 6.335227966308594 C 23.87622833251953 8.473472595214844 19.33542633056641 11.53517150878906 15.43529510498047 15.435302734375 C 11.53517150878906 19.33543395996094 8.473464965820312 23.87622833251953 6.335227966308594 28.93160247802734 C 4.122123718261719 34.16394424438477 3 39.72381591796875 3 45.4572868347168 C 3 51.19024658203125 4.122123718261719 56.75011825561523 6.335227966308594 61.98246002197266 C 8.473464965820312 67.03782653808594 11.53517150878906 71.57862854003906 15.43529510498047 75.478759765625 C 19.33542633056641 79.37889099121094 23.87622833251953 82.44058990478516 28.93159484863281 84.57883453369141 C 34.1639404296875 86.79193115234375 39.72381210327148 87.9140625 45.45676803588867 87.9140625 C 51.18972396850586 87.9140625 56.74959564208984 86.79193115234375 61.98194122314453 84.57883453369141 C 67.03730773925781 82.44058990478516 71.57810974121094 79.37889099121094 75.47824096679688 75.478759765625 C 79.37837219238281 71.57862854003906 82.44007110595703 67.03782653808594 84.57830810546875 61.98246002197266 C 86.79141235351562 56.75011825561523 87.91353607177734 51.19024658203125 87.91353607177734 45.4567756652832 C 87.91353607177734 39.72381591796875 86.79141235351562 34.16394424438477 84.57830810546875 28.93160247802734 C 82.44007110595703 23.87622833251953 79.37837219238281 19.33543395996094 75.47824096679688 15.435302734375 C 71.57810974121094 11.53517150878906 67.03730773925781 8.473472595214844 61.98194122314453 6.335227966308594 C 56.74959564208984 4.12213134765625 51.18972396850586 3 45.45676803588867 3 M 45.45676803588867 0 C 70.56185150146484 0 90.91353607177734 20.35169219970703 90.91353607177734 45.4567756652832 L 90.91353607177734 45.4572868347168 C 90.91353607177734 70.5623779296875 70.56185150146484 90.9140625 45.45676803588867 90.9140625 C 20.3516845703125 90.9140625 0 70.5623779296875 0 45.4572868347168 L 0 45.4567756652832 C 0 20.35169219970703 20.3516845703125 0 45.45676803588867 0 Z" stroke="none" fill="#fff"/>
            </g>
          </g>
          <g id="Path_874923" data-name="Path 874923" transform="translate(0 0)" fill="none">
            <path d="M45.457,0A45.457,45.457,0,0,1,90.914,45.457h0A45.457,45.457,0,0,1,0,45.457H0A45.457,45.457,0,0,1,45.457,0Z" stroke="none"/>
            <path d="M 45.45676803588867 3 C 39.72381210327148 3 34.1639404296875 4.12213134765625 28.93159484863281 6.335227966308594 C 23.87622833251953 8.473472595214844 19.33542633056641 11.53517150878906 15.43529510498047 15.435302734375 C 11.53517150878906 19.33543395996094 8.473464965820312 23.87622833251953 6.335227966308594 28.93160247802734 C 4.122123718261719 34.16394424438477 3 39.72381591796875 3 45.4572868347168 C 3 51.19024658203125 4.122123718261719 56.75011825561523 6.335227966308594 61.98246002197266 C 8.473464965820312 67.03782653808594 11.53517150878906 71.57862854003906 15.43529510498047 75.478759765625 C 19.33542633056641 79.37889099121094 23.87622833251953 82.44058990478516 28.93159484863281 84.57883453369141 C 34.1639404296875 86.79193115234375 39.72381210327148 87.9140625 45.45676803588867 87.9140625 C 51.18972396850586 87.9140625 56.74959564208984 86.79193115234375 61.98194122314453 84.57883453369141 C 67.03730773925781 82.44058990478516 71.57810974121094 79.37889099121094 75.47824096679688 75.478759765625 C 79.37837219238281 71.57862854003906 82.44007110595703 67.03782653808594 84.57830810546875 61.98246002197266 C 86.79141235351562 56.75011825561523 87.91353607177734 51.19024658203125 87.91353607177734 45.4567756652832 C 87.91353607177734 39.72381591796875 86.79141235351562 34.16394424438477 84.57830810546875 28.93160247802734 C 82.44007110595703 23.87622833251953 79.37837219238281 19.33543395996094 75.47824096679688 15.435302734375 C 71.57810974121094 11.53517150878906 67.03730773925781 8.473472595214844 61.98194122314453 6.335227966308594 C 56.74959564208984 4.12213134765625 51.18972396850586 3 45.45676803588867 3 M 45.45676803588867 0 C 70.56185150146484 0 90.91353607177734 20.35169219970703 90.91353607177734 45.4567756652832 L 90.91353607177734 45.4572868347168 C 90.91353607177734 70.5623779296875 70.56185150146484 90.9140625 45.45676803588867 90.9140625 C 20.3516845703125 90.9140625 0 70.5623779296875 0 45.4572868347168 L 0 45.4567756652832 C 0 20.35169219970703 20.3516845703125 0 45.45676803588867 0 Z" stroke="none" fill="#fff"/>
          </g>
        </g>
      </g>
    </g>
    <g id="Group_1113395" data-name="Group 1113395" transform="translate(460.051 2712)">
      <path id="Path_906650" data-name="Path 906650" d="M267.835,8h17.256a3.835,3.835,0,0,1,3.835,3.835V48.264a3.835,3.835,0,0,1-3.835,3.835H267.835A3.835,3.835,0,0,1,264,48.264V11.835A3.835,3.835,0,0,1,267.835,8Zm0,0" transform="translate(-232.364 -7.041)" fill="#ebebeb"/>
      <path id="Path_906651" data-name="Path 906651" d="M264,56h24.925V86.677H264Zm0,0" transform="translate(-232.364 -49.289)" fill="#aae5c8"/>
      <path id="Path_906652" data-name="Path 906652" d="M32.925,304v4.793a3.835,3.835,0,0,1-3.835,3.835H11.835A3.835,3.835,0,0,1,8,308.793V304Zm0,0" transform="translate(-7.041 -267.571)" fill="#ebebeb"/>
      <path id="Path_906653" data-name="Path 906653" d="M8,46.346V11.835A3.835,3.835,0,0,1,11.835,8H29.09a3.835,3.835,0,0,1,3.835,3.835V46.346Zm0,0" transform="translate(-7.041 -7.041)" fill="#aae5c8"/>
      <path id="Path_906654" data-name="Path 906654" d="M80.628,11.835H73.917L72,8H82.545Zm0,0" transform="translate(-63.372 -7.041)" fill="#ebebeb"/>
      <g id="Group_1113394" data-name="Group 1113394" transform="translate(37.388 40.264)">
        <path id="Path_906655" data-name="Path 906655" d="M344,336h5.752v1.917H344Zm0,0" transform="translate(-340.165 -336)" fill="#d9d9d9"/>
        <path id="Path_906656" data-name="Path 906656" d="M408,336h1.917v1.917H408Zm0,0" transform="translate(-396.496 -336)" fill="#d9d9d9"/>
        <path id="Path_906657" data-name="Path 906657" d="M312,336h1.917v1.917H312Zm0,0" transform="translate(-312 -336)" fill="#d9d9d9"/>
      </g>
      <path id="Path_906658" data-name="Path 906658" d="M48,200H63.339v3.835H48Zm0,0" transform="translate(-42.248 -176.034)" fill="#85bc94"/>
      <path id="Path_906659" data-name="Path 906659" d="M63.339,109.752H48v-3.835L56.073,104l7.266,1.917Zm0,0" transform="translate(-42.248 -91.537)" fill="#85bc94"/>
      <path id="Path_906660" data-name="Path 906660" d="M64,152h3.835v5.752H64Zm0,0" transform="translate(-56.331 -133.785)" fill="#6b9777"/>
      <path id="Path_906661" data-name="Path 906661" d="M128,152h4.793v5.752H128Zm0,0" transform="translate(-112.661 -133.785)" fill="#6b9777"/>
      <path id="Path_906662" data-name="Path 906662" d="M96,256h3.835v1.917H96Zm0,0" transform="translate(-84.496 -225.323)" fill="#85bc94"/>
      <path id="Path_906663" data-name="Path 906663" d="M144,256h1.917v1.917H144Zm0,0" transform="translate(-126.744 -225.323)" fill="#85bc94"/>
      <path id="Path_906664" data-name="Path 906664" d="M64,256h1.917v1.917H64Zm0,0" transform="translate(-56.331 -225.323)" fill="#85bc94"/>
      <path id="Path_906665" data-name="Path 906665" d="M145.587,106.876V104L136,112.628l9.587,8.628V118.38h13.421v-11.5Zm0,0" transform="translate(-119.703 -91.537)" fill="#5abcf3"/>
      <path id="Path_906666" data-name="Path 906666" d="M319.339,119.669A7.669,7.669,0,1,1,311.669,112,7.669,7.669,0,0,1,319.339,119.669Zm0,0" transform="translate(-267.571 -98.579)" fill="#f7ba61"/>
      <path id="Path_906667" data-name="Path 906667" d="M348.353,133.424l-2.12-1.059a.593.593,0,0,1,0-1.061,1.423,1.423,0,0,1,1.263,0l.858.43a.959.959,0,0,0,.857-1.716l-.863-.428a3.262,3.262,0,0,0-.529-.192V128h-1.914v1.4a3.291,3.291,0,0,0-.53.192,2.511,2.511,0,0,0,0,4.49l2.12,1.06a.593.593,0,0,1,0,1.06,1.423,1.423,0,0,1-1.263,0l-.858-.43a.959.959,0,0,0-.857,1.716l.863.428a3.259,3.259,0,0,0,.529.192v1.4h1.917v-1.4a3.277,3.277,0,0,0,.53-.192,2.51,2.51,0,0,0,0-4.49Zm0,0" transform="translate(-302.765 -112.661)" fill="#da922a"/>
      <path id="Path_906668" data-name="Path 906668" d="M52.726,0H35.47a4.8,4.8,0,0,0-4.793,4.793V14.38H26.842V4.793A4.8,4.8,0,0,0,22.049,0H4.793A4.8,4.8,0,0,0,0,4.793V41.222a4.8,4.8,0,0,0,4.793,4.793H22.049a4.8,4.8,0,0,0,4.793-4.793V27.8h3.835V41.222a4.8,4.8,0,0,0,4.793,4.793H52.726a4.8,4.8,0,0,0,4.793-4.793V4.793A4.8,4.8,0,0,0,52.726,0Zm-35.1,1.917-.959,1.917H11.138l-.959-1.917ZM1.917,4.793A2.876,2.876,0,0,1,4.793,1.917H8.035l1.652,3.3a.959.959,0,0,0,.858.53h6.711a.959.959,0,0,0,.858-.53l1.652-3.3h2.283a2.876,2.876,0,0,1,2.876,2.876V7.669H1.917ZM24.925,41.222A2.876,2.876,0,0,1,22.049,44.1H4.793a2.876,2.876,0,0,1-2.876-2.876v-.959H24.925Zm0-2.876H1.917V9.587H24.925v2.45l-2.876,2.588V14.38a.959.959,0,0,0-.714-.927l-7.266-1.917a.924.924,0,0,0-.466-.006L5.531,13.447a.959.959,0,0,0-.737.933v3.835a.959.959,0,0,0,.959.959h.959v3.835H5.752a.959.959,0,0,0-.959.959V27.8a.959.959,0,0,0,.959.959H21.09a.959.959,0,0,0,.959-.959v-.244l2.876,2.588ZM11.5,24.925h7.622l1.006.906v1.012H6.711V24.925ZM8.628,23.008V19.173h1.917v3.835Zm3.835,0V19.173H14.38v3.835Zm3.835,0V22.38l.7.628Zm0-3.207v-.628H17Zm-.959-2.545H6.711V15.137l7.1-1.687,6.319,1.668V16.3h.059l-1.065.959Zm10.545,8.628a.959.959,0,0,0-.959.959v.724l-7.19-6.476,7.19-6.476v.724a.959.959,0,0,0,.959.959H36.929a8.6,8.6,0,0,0,0,9.587ZM55.6,41.222A2.876,2.876,0,0,1,52.726,44.1H35.47a2.876,2.876,0,0,1-2.876-2.876V38.346H55.6Zm0-4.793H32.594V27.8h6.093a8.628,8.628,0,1,0,0-13.421H32.594V7.669H55.6ZM37.388,21.09A6.711,6.711,0,1,1,44.1,27.8,6.71,6.71,0,0,1,37.388,21.09ZM55.6,5.752H32.594V4.793A2.876,2.876,0,0,1,35.47,1.917H52.726A2.876,2.876,0,0,1,55.6,4.793Zm0,0"/>
      <path id="Path_906669" data-name="Path 906669" d="M345.375,134.08l2.12,1.059a.593.593,0,0,1,0,1.061,1.423,1.423,0,0,1-1.263,0l-.858-.43a.959.959,0,0,0-.857,1.716l.863.428a3.261,3.261,0,0,0,.529.192v1.4h1.917v-1.4a3.277,3.277,0,0,0,.53-.192,2.51,2.51,0,0,0,0-4.49l-2.12-1.06a.592.592,0,0,1,0-1.06,1.422,1.422,0,0,1,1.262,0l.858.43a.959.959,0,0,0,.857-1.716l-.863-.428a3.261,3.261,0,0,0-.529-.192V128h-1.917v1.4a3.291,3.291,0,0,0-.53.192,2.511,2.511,0,0,0,0,4.49Zm0,0" transform="translate(-302.765 -112.661)"/>
      <path id="Path_906670" data-name="Path 906670" d="M344,336h5.752v1.917H344Zm0,0" transform="translate(-302.778 -295.736)"/>
      <path id="Path_906671" data-name="Path 906671" d="M408,336h1.917v1.917H408Zm0,0" transform="translate(-359.108 -295.736)"/>
      <path id="Path_906672" data-name="Path 906672" d="M312,336h1.917v1.917H312Zm0,0" transform="translate(-274.612 -295.736)"/>
      <path id="Path_906673" data-name="Path 906673" d="M96,256h3.835v1.917H96Zm0,0" transform="translate(-84.496 -225.323)"/>
      <path id="Path_906674" data-name="Path 906674" d="M144,256h1.917v1.917H144Zm0,0" transform="translate(-126.744 -225.323)"/>
      <path id="Path_906675" data-name="Path 906675" d="M64,256h1.917v1.917H64Zm0,0" transform="translate(-56.331 -225.323)"/>
    </g>
  </g>
</svg>
