<svg xmlns="http://www.w3.org/2000/svg" xmlns:xlink="http://www.w3.org/1999/xlink" width="108.914" height="108.914" viewBox="0 0 108.914 108.914">
  <defs>
    <filter id="Path_874925" x="0" y="0" width="108.914" height="108.914" filterUnits="userSpaceOnUse">
      <feOffset dy="3" input="SourceAlpha"/>
      <feGaussianBlur stdDeviation="3" result="blur"/>
      <feFlood flood-opacity="0.161"/>
      <feComposite operator="in" in2="blur"/>
      <feComposite in="SourceGraphic"/>
    </filter>
  </defs>
  <g id="Group_1201377" data-name="Group 1201377" transform="translate(-2016 8924)">
    <g id="Group_1112717" data-name="Group 1112717" transform="translate(1216.5 -10870.211)">
      <g id="Group_1109835" data-name="Group 1109835">
        <g id="Group_1107913" data-name="Group 1107913" transform="translate(808.5 1952.211)">
          <g transform="matrix(1, 0, 0, 1, -9, -6)" filter="url(#Path_874925)">
            <g id="Path_874925-2" data-name="Path 874925" transform="translate(9 6)" fill="#fd9826" opacity="0.859">
              <path d="M 45.45676803588867 89.41407012939453 C 39.52198028564453 89.41407012939453 33.76551818847656 88.25206756591797 28.34726715087891 85.96034240722656 C 23.11311721801758 83.74648284912109 18.41204261779785 80.57682800292969 14.37464332580566 76.5394287109375 C 10.33724308013916 72.50202941894531 7.167593002319336 67.80095672607422 4.953730583190918 62.56679534912109 C 2.662005424499512 57.14855575561523 1.500005483627319 51.39208221435547 1.500005483627319 45.45729446411133 C 1.500005483627319 39.52198028564453 2.662005424499512 33.76551818847656 4.953730583190918 28.34726905822754 C 7.167593002319336 23.11310577392578 10.33724308013916 18.41203117370605 14.37464332580566 14.37464332580566 C 18.41204261779785 10.33724403381348 23.11311721801758 7.167593955993652 28.34726715087891 4.953731060028076 C 33.76551818847656 2.662006139755249 39.52198028564453 1.500006198883057 45.45676803588867 1.500006198883057 C 51.39155578613281 1.500006198883057 57.14802932739258 2.662006139755249 62.56626892089844 4.953731060028076 C 67.80043029785156 7.167593955993652 72.50150299072266 10.33724403381348 76.53890228271484 14.37464332580566 C 80.57630920410156 18.41203117370605 83.74595642089844 23.11310577392578 85.95981597900391 28.34726905822754 C 88.25154113769531 33.76551818847656 89.41354370117188 39.52198028564453 89.41354370117188 45.45676803588867 C 89.41354370117188 51.39208221435547 88.25154113769531 57.14855575561523 85.95981597900391 62.56679534912109 C 83.74595642089844 67.80095672607422 80.57630920410156 72.50202941894531 76.53890228271484 76.5394287109375 C 72.50150299072266 80.57682800292969 67.80043029785156 83.74648284912109 62.56626892089844 85.96034240722656 C 57.14802932739258 88.25206756591797 51.39155578613281 89.41407012939453 45.45676803588867 89.41407012939453 Z" stroke="none"/>
              <path d="M 45.45676803588867 3 C 39.72381210327148 3 34.1639404296875 4.12213134765625 28.93159484863281 6.335227966308594 C 23.87622833251953 8.473472595214844 19.33542633056641 11.53517150878906 15.43529510498047 15.435302734375 C 11.53517150878906 19.33543395996094 8.473464965820312 23.87622833251953 6.335227966308594 28.93160247802734 C 4.122123718261719 34.16394424438477 3 39.72381591796875 3 45.4572868347168 C 3 51.19024658203125 4.122123718261719 56.75011825561523 6.335227966308594 61.98246002197266 C 8.473464965820312 67.03782653808594 11.53517150878906 71.57862854003906 15.43529510498047 75.478759765625 C 19.33542633056641 79.37889099121094 23.87622833251953 82.44058990478516 28.93159484863281 84.57883453369141 C 34.1639404296875 86.79193115234375 39.72381210327148 87.9140625 45.45676803588867 87.9140625 C 51.18972396850586 87.9140625 56.74959564208984 86.79193115234375 61.98194122314453 84.57883453369141 C 67.03730773925781 82.44058990478516 71.57810974121094 79.37889099121094 75.47824096679688 75.478759765625 C 79.37837219238281 71.57862854003906 82.44007110595703 67.03782653808594 84.57830810546875 61.98246002197266 C 86.79141235351562 56.75011825561523 87.91353607177734 51.19024658203125 87.91353607177734 45.4567756652832 C 87.91353607177734 39.72381591796875 86.79141235351562 34.16394424438477 84.57830810546875 28.93160247802734 C 82.44007110595703 23.87622833251953 79.37837219238281 19.33543395996094 75.47824096679688 15.435302734375 C 71.57810974121094 11.53517150878906 67.03730773925781 8.473472595214844 61.98194122314453 6.335227966308594 C 56.74959564208984 4.12213134765625 51.18972396850586 3 45.45676803588867 3 M 45.45676803588867 0 C 70.56185150146484 0 90.91353607177734 20.35169219970703 90.91353607177734 45.4567756652832 L 90.91353607177734 45.4572868347168 C 90.91353607177734 70.5623779296875 70.56185150146484 90.9140625 45.45676803588867 90.9140625 C 20.3516845703125 90.9140625 0 70.5623779296875 0 45.4572868347168 L 0 45.4567756652832 C 0 20.35169219970703 20.3516845703125 0 45.45676803588867 0 Z" stroke="none" fill="#fff"/>
            </g>
          </g>
          <g id="Path_874923" data-name="Path 874923" transform="translate(0 0)" fill="none">
            <path d="M45.457,0A45.457,45.457,0,0,1,90.914,45.457h0A45.457,45.457,0,0,1,0,45.457H0A45.457,45.457,0,0,1,45.457,0Z" stroke="none"/>
            <path d="M 45.45676803588867 3 C 39.72381210327148 3 34.1639404296875 4.12213134765625 28.93159484863281 6.335227966308594 C 23.87622833251953 8.473472595214844 19.33542633056641 11.53517150878906 15.43529510498047 15.435302734375 C 11.53517150878906 19.33543395996094 8.473464965820312 23.87622833251953 6.335227966308594 28.93160247802734 C 4.122123718261719 34.16394424438477 3 39.72381591796875 3 45.4572868347168 C 3 51.19024658203125 4.122123718261719 56.75011825561523 6.335227966308594 61.98246002197266 C 8.473464965820312 67.03782653808594 11.53517150878906 71.57862854003906 15.43529510498047 75.478759765625 C 19.33542633056641 79.37889099121094 23.87622833251953 82.44058990478516 28.93159484863281 84.57883453369141 C 34.1639404296875 86.79193115234375 39.72381210327148 87.9140625 45.45676803588867 87.9140625 C 51.18972396850586 87.9140625 56.74959564208984 86.79193115234375 61.98194122314453 84.57883453369141 C 67.03730773925781 82.44058990478516 71.57810974121094 79.37889099121094 75.47824096679688 75.478759765625 C 79.37837219238281 71.57862854003906 82.44007110595703 67.03782653808594 84.57830810546875 61.98246002197266 C 86.79141235351562 56.75011825561523 87.91353607177734 51.19024658203125 87.91353607177734 45.4567756652832 C 87.91353607177734 39.72381591796875 86.79141235351562 34.16394424438477 84.57830810546875 28.93160247802734 C 82.44007110595703 23.87622833251953 79.37837219238281 19.33543395996094 75.47824096679688 15.435302734375 C 71.57810974121094 11.53517150878906 67.03730773925781 8.473472595214844 61.98194122314453 6.335227966308594 C 56.74959564208984 4.12213134765625 51.18972396850586 3 45.45676803588867 3 M 45.45676803588867 0 C 70.56185150146484 0 90.91353607177734 20.35169219970703 90.91353607177734 45.4567756652832 L 90.91353607177734 45.4572868347168 C 90.91353607177734 70.5623779296875 70.56185150146484 90.9140625 45.45676803588867 90.9140625 C 20.3516845703125 90.9140625 0 70.5623779296875 0 45.4572868347168 L 0 45.4567756652832 C 0 20.35169219970703 20.3516845703125 0 45.45676803588867 0 Z" stroke="none" fill="#fff"/>
          </g>
        </g>
      </g>
    </g>
    <g id="Group_1113406" data-name="Group 1113406" transform="translate(2046 -8897)">
      <path id="Path_906782" data-name="Path 906782" d="M90.5,40H64V84.724h36.442V49.939H90.5Zm0,0" transform="translate(-57.374 -35.859)" fill="#dcf4ca"/>
      <path id="Path_906783" data-name="Path 906783" d="M136,271.19h28.988V248C164.988,259.9,150.191,271.19,136,271.19Zm0,0" transform="translate(-121.92 -222.325)" fill="#c9eeae"/>
      <path id="Path_906784" data-name="Path 906784" d="M9.656,8H27.877a1.657,1.657,0,0,1,1.656,1.656v23.19A1.657,1.657,0,0,1,27.877,34.5H9.656A1.657,1.657,0,0,1,8,32.846V9.656A1.657,1.657,0,0,1,9.656,8Zm0,0" transform="translate(-7.172 -7.172)" fill="#d1e7f8"/>
      <path id="Path_906785" data-name="Path 906785" d="M320,49.939h9.939L320,40Zm0,0" transform="translate(-286.871 -35.859)" fill="#006df0"/>
      <path id="Path_906786" data-name="Path 906786" d="M32,32H48.564v4.141H32Zm0,0" transform="translate(-28.687 -28.687)" fill="#88f236"/>
      <g id="Group_1113405" data-name="Group 1113405" transform="translate(4.141 9.939)">
        <path id="Path_906787" data-name="Path 906787" d="M40.828,96h1.656a.828.828,0,0,1,.828.828v1.656a.828.828,0,0,1-.828.828H40.828A.828.828,0,0,1,40,98.485V96.828A.828.828,0,0,1,40.828,96Zm0,0" transform="translate(-40 -96)" fill="#006df0"/>
        <path id="Path_906788" data-name="Path 906788" d="M96.828,96h1.656a.828.828,0,0,1,.828.828v1.656a.828.828,0,0,1-.828.828H96.828A.828.828,0,0,1,96,98.485V96.828A.828.828,0,0,1,96.828,96Zm0,0" transform="translate(-90.202 -96)" fill="#006df0"/>
        <path id="Path_906789" data-name="Path 906789" d="M152.828,96h1.656a.828.828,0,0,1,.828.828v1.656a.828.828,0,0,1-.828.828h-1.656a.828.828,0,0,1-.828-.828V96.828A.828.828,0,0,1,152.828,96Zm0,0" transform="translate(-140.405 -96)" fill="#006df0"/>
        <path id="Path_906790" data-name="Path 906790" d="M40.828,152h1.656a.828.828,0,0,1,.828.828v1.656a.828.828,0,0,1-.828.828H40.828a.828.828,0,0,1-.828-.828v-1.656A.828.828,0,0,1,40.828,152Zm0,0" transform="translate(-40 -146.202)" fill="#006df0"/>
        <path id="Path_906791" data-name="Path 906791" d="M96.828,152h1.656a.828.828,0,0,1,.828.828v1.656a.828.828,0,0,1-.828.828H96.828a.828.828,0,0,1-.828-.828v-1.656A.828.828,0,0,1,96.828,152Zm0,0" transform="translate(-90.202 -146.202)" fill="#006df0"/>
        <path id="Path_906792" data-name="Path 906792" d="M152.828,152h1.656a.828.828,0,0,1,.828.828v1.656a.828.828,0,0,1-.828.828h-1.656a.828.828,0,0,1-.828-.828v-1.656A.828.828,0,0,1,152.828,152Zm0,0" transform="translate(-140.405 -146.202)" fill="#006df0"/>
        <path id="Path_906793" data-name="Path 906793" d="M40.828,208h1.656a.828.828,0,0,1,.828.828v1.656a.828.828,0,0,1-.828.828H40.828a.828.828,0,0,1-.828-.828v-1.656A.828.828,0,0,1,40.828,208Zm0,0" transform="translate(-40 -196.405)" fill="#006df0"/>
        <path id="Path_906794" data-name="Path 906794" d="M96.828,208h1.656a.828.828,0,0,1,.828.828v1.656a.828.828,0,0,1-.828.828H96.828a.828.828,0,0,1-.828-.828v-1.656A.828.828,0,0,1,96.828,208Zm0,0" transform="translate(-90.202 -196.405)" fill="#006df0"/>
      </g>
      <path id="Path_906795" data-name="Path 906795" d="M436.651,259.062a1.657,1.657,0,0,0-2.343-2.343l-1.171,1.171,2.343,2.343Zm0,0" transform="translate(-388.295 -229.707)" fill="#d1d3d4"/>
      <path id="Path_906796" data-name="Path 906796" d="M290,300.413l-2,4.342,4.342-2,11.276-11.277-2.342-2.342Zm0,0" transform="translate(-258.184 -259.203)" fill="#ed1c24"/>
      <path id="Path_906797" data-name="Path 906797" d="M416.234,273.991l1.749-1.749,2.343,2.342-1.749,1.749Zm0,0" transform="translate(-373.143 -244.058)" fill="#f7941d"/>
      <path id="Path_906798" data-name="Path 906798" d="M126.908,303.454A7.454,7.454,0,1,1,119.454,296,7.454,7.454,0,0,1,126.908,303.454Zm0,0" transform="translate(-100.405 -265.356)" fill="#ff9811"/>
      <path id="Path_906799" data-name="Path 906799" d="M40,134.908H56.564a1.662,1.662,0,0,0,1.656-1.656V120C58.221,128.24,50.071,134.908,40,134.908Zm0,0" transform="translate(-35.859 -107.577)" fill="#c2dff6"/>
      <path id="Path_906800" data-name="Path 906800" d="M152.828,208h1.656a.828.828,0,0,1,.828.828v1.656a.828.828,0,0,1-.828.828h-1.656a.828.828,0,0,1-.828-.828v-1.656A.828.828,0,0,1,152.828,208Zm0,0" transform="translate(-136.264 -186.466)" fill="#006df0"/>
      <path id="Path_906801" data-name="Path 906801" d="M112.282,288a8.282,8.282,0,1,0,8.282,8.282A8.282,8.282,0,0,0,112.282,288Zm0,14.908a6.626,6.626,0,1,1,6.626-6.626A6.626,6.626,0,0,1,112.282,302.908Zm0,0" transform="translate(-93.233 -258.184)"/>
      <path id="Path_906802" data-name="Path 906802" d="M155.313,322.485c1.011,0,1.656.49,1.656.828h1.656a2.7,2.7,0,0,0-2.485-2.4V320h-1.656v.911a2.7,2.7,0,0,0-2.485,2.4c0,1.394,1.455,2.485,3.313,2.485,1.011,0,1.656.49,1.656.828s-.645.828-1.656.828-1.656-.49-1.656-.828H152a2.7,2.7,0,0,0,2.485,2.4v.911h1.656v-.911a2.7,2.7,0,0,0,2.485-2.4c0-1.394-1.455-2.485-3.313-2.485-1.011,0-1.656-.49-1.656-.828S154.3,322.485,155.313,322.485Zm0,0" transform="translate(-136.264 -286.871)"/>
      <path id="Path_906803" data-name="Path 906803" d="M42.239,48.037H7.454V28.159H20.705a2.485,2.485,0,0,0,2.485-2.485V4.969H32.3v9.939h9.939V26.5H43.9V13.737L33.472,3.313H23.19V2.485A2.485,2.485,0,0,0,20.705,0H2.485A2.485,2.485,0,0,0,0,2.485v23.19a2.485,2.485,0,0,0,2.485,2.485H5.8V49.693H43.9V38.1H42.239ZM33.957,6.14l7.111,7.111H33.957ZM1.656,25.675V2.485a.828.828,0,0,1,.828-.828H20.705a.828.828,0,0,1,.828.828v23.19a.828.828,0,0,1-.828.828H2.485A.828.828,0,0,1,1.656,25.675Zm0,0" transform="translate(0 0)"/>
      <path id="Path_906804" data-name="Path 906804" d="M256,200h1.656v1.656H256Zm0,0" transform="translate(-229.497 -179.295)"/>
      <path id="Path_906805" data-name="Path 906805" d="M288,200h9.939v1.656H288Zm0,0" transform="translate(-258.184 -179.295)"/>
      <path id="Path_906806" data-name="Path 906806" d="M256,168h1.656v1.656H256Zm0,0" transform="translate(-229.497 -150.607)"/>
      <path id="Path_906807" data-name="Path 906807" d="M288,168h9.939v1.656H288Zm0,0" transform="translate(-258.184 -150.607)"/>
      <path id="Path_906808" data-name="Path 906808" d="M256,232h1.656v1.656H256Zm0,0" transform="translate(-229.497 -207.982)"/>
      <path id="Path_906809" data-name="Path 906809" d="M288,232h9.939v1.656H288Zm0,0" transform="translate(-258.184 -207.982)"/>
      <path id="Path_906810" data-name="Path 906810" d="M256,264h1.656v1.656H256Zm0,0" transform="translate(-229.497 -236.669)"/>
      <path id="Path_906811" data-name="Path 906811" d="M288,264h9.939v1.656H288Zm0,0" transform="translate(-258.184 -236.669)"/>
      <path id="Path_906812" data-name="Path 906812" d="M42.221,24H24v5.8H42.221Zm-1.656,4.141H25.656V25.656H40.564Zm0,0" transform="translate(-21.515 -21.515)"/>
      <path id="Path_906813" data-name="Path 906813" d="M35.313,88H33.656A1.657,1.657,0,0,0,32,89.656v1.656a1.657,1.657,0,0,0,1.656,1.656h1.656a1.657,1.657,0,0,0,1.656-1.656V89.656A1.657,1.657,0,0,0,35.313,88Zm-1.656,3.313V89.656h1.656v1.656Zm0,0" transform="translate(-28.687 -78.89)"/>
      <path id="Path_906814" data-name="Path 906814" d="M91.313,88H89.656A1.657,1.657,0,0,0,88,89.656v1.656a1.657,1.657,0,0,0,1.656,1.656h1.656a1.657,1.657,0,0,0,1.656-1.656V89.656A1.657,1.657,0,0,0,91.313,88Zm-1.656,3.313V89.656h1.656v1.656Zm0,0" transform="translate(-78.89 -78.89)"/>
      <path id="Path_906815" data-name="Path 906815" d="M147.313,88h-1.656A1.657,1.657,0,0,0,144,89.656v1.656a1.657,1.657,0,0,0,1.656,1.656h1.656a1.657,1.657,0,0,0,1.656-1.656V89.656A1.657,1.657,0,0,0,147.313,88Zm-1.656,3.313V89.656h1.656v1.656Zm0,0" transform="translate(-129.092 -78.89)"/>
      <path id="Path_906816" data-name="Path 906816" d="M35.313,144H33.656A1.657,1.657,0,0,0,32,145.656v1.656a1.657,1.657,0,0,0,1.656,1.656h1.656a1.657,1.657,0,0,0,1.656-1.656v-1.656A1.657,1.657,0,0,0,35.313,144Zm-1.656,3.313v-1.656h1.656v1.656Zm0,0" transform="translate(-28.687 -129.092)"/>
      <path id="Path_906817" data-name="Path 906817" d="M91.313,144H89.656A1.657,1.657,0,0,0,88,145.656v1.656a1.657,1.657,0,0,0,1.656,1.656h1.656a1.657,1.657,0,0,0,1.656-1.656v-1.656A1.657,1.657,0,0,0,91.313,144Zm-1.656,3.313v-1.656h1.656v1.656Zm0,0" transform="translate(-78.89 -129.092)"/>
      <path id="Path_906818" data-name="Path 906818" d="M147.313,144h-1.656A1.657,1.657,0,0,0,144,145.656v1.656a1.657,1.657,0,0,0,1.656,1.656h1.656a1.657,1.657,0,0,0,1.656-1.656v-1.656A1.657,1.657,0,0,0,147.313,144Zm-1.656,3.313v-1.656h1.656v1.656Zm0,0" transform="translate(-129.092 -129.092)"/>
      <path id="Path_906819" data-name="Path 906819" d="M35.313,200H33.656A1.657,1.657,0,0,0,32,201.656v1.656a1.657,1.657,0,0,0,1.656,1.656h1.656a1.657,1.657,0,0,0,1.656-1.656v-1.656A1.657,1.657,0,0,0,35.313,200Zm-1.656,3.313v-1.656h1.656v1.656Zm0,0" transform="translate(-28.687 -179.295)"/>
      <path id="Path_906820" data-name="Path 906820" d="M91.313,200H89.656A1.657,1.657,0,0,0,88,201.656v1.656a1.657,1.657,0,0,0,1.656,1.656h1.656a1.657,1.657,0,0,0,1.656-1.656v-1.656A1.657,1.657,0,0,0,91.313,200Zm-1.656,3.313v-1.656h1.656v1.656Zm0,0" transform="translate(-78.89 -179.295)"/>
      <path id="Path_906821" data-name="Path 906821" d="M147.313,200h-1.656A1.657,1.657,0,0,0,144,201.656v1.656a1.657,1.657,0,0,0,1.656,1.656h1.656a1.657,1.657,0,0,0,1.656-1.656v-1.656A1.657,1.657,0,0,0,147.313,200Zm-1.656,3.313v-1.656h1.656v1.656Zm0,0" transform="translate(-129.092 -179.295)"/>
      <path id="Path_906822" data-name="Path 906822" d="M299.966,249.17a2.543,2.543,0,0,0-3.513,0l-14.2,14.2a.838.838,0,0,0-.166.239l-2,4.342a.829.829,0,0,0,1.1,1.1l4.342-2a.83.83,0,0,0,.239-.166l14.2-14.2A2.484,2.484,0,0,0,299.966,249.17ZM284.7,265.6l-2.17,1,1-2.17,10.586-10.587,1.171,1.171Zm11.76-11.761-1.171-1.171.58-.58,1.171,1.171Zm2.336-2.335-.586.586-1.171-1.171.586-.586a.847.847,0,0,1,1.17,0A.829.829,0,0,1,298.8,251.508Zm0,0" transform="translate(-251.025 -222.743)"/>
    </g>
  </g>
</svg>
