<svg xmlns="http://www.w3.org/2000/svg" xmlns:xlink="http://www.w3.org/1999/xlink" width="108.914" height="108.914" viewBox="0 0 108.914 108.914">
  <defs>
    <filter id="Trazado_874925" x="0" y="0" width="108.914" height="108.914" filterUnits="userSpaceOnUse">
      <feOffset dy="3" input="SourceAlpha"/>
      <feGaussianBlur stdDeviation="3" result="blur"/>
      <feFlood flood-opacity="0.161"/>
      <feComposite operator="in" in2="blur"/>
      <feComposite in="SourceGraphic"/>
    </filter>
  </defs>
  <g id="Grupo_1112786" data-name="Grupo 1112786" transform="translate(6101 9653)">
    <g id="Grupo_1111317" data-name="Grupo 1111317" transform="translate(-6900.5 -11599.211)">
      <g id="Grupo_1109835" data-name="Grupo 1109835">
        <g id="Grupo_1107913" data-name="Grupo 1107913" transform="translate(808.5 1952.211)">
          <g transform="matrix(1, 0, 0, 1, -9, -6)" filter="url(#Trazado_874925)">
            <g id="Trazado_874925-2" data-name="Trazado 874925" transform="translate(9 6)" fill="#fd9826" opacity="0.859">
              <path d="M 45.45676803588867 89.41407012939453 C 39.52198028564453 89.41407012939453 33.76551818847656 88.25206756591797 28.34726715087891 85.96034240722656 C 23.11311721801758 83.74648284912109 18.41204261779785 80.57682800292969 14.37464332580566 76.5394287109375 C 10.33724308013916 72.50202941894531 7.167593002319336 67.80095672607422 4.953730583190918 62.56679534912109 C 2.662005424499512 57.14855575561523 1.500005483627319 51.39208221435547 1.500005483627319 45.45729446411133 C 1.500005483627319 39.52198028564453 2.662005424499512 33.76551818847656 4.953730583190918 28.34726905822754 C 7.167593002319336 23.11310577392578 10.33724308013916 18.41203117370605 14.37464332580566 14.37464332580566 C 18.41204261779785 10.33724403381348 23.11311721801758 7.167593955993652 28.34726715087891 4.953731060028076 C 33.76551818847656 2.662006139755249 39.52198028564453 1.500006198883057 45.45676803588867 1.500006198883057 C 51.39155578613281 1.500006198883057 57.14802932739258 2.662006139755249 62.56626892089844 4.953731060028076 C 67.80043029785156 7.167593955993652 72.50150299072266 10.33724403381348 76.53890228271484 14.37464332580566 C 80.57630920410156 18.41203117370605 83.74595642089844 23.11310577392578 85.95981597900391 28.34726905822754 C 88.25154113769531 33.76551818847656 89.41354370117188 39.52198028564453 89.41354370117188 45.45676803588867 C 89.41354370117188 51.39208221435547 88.25154113769531 57.14855575561523 85.95981597900391 62.56679534912109 C 83.74595642089844 67.80095672607422 80.57630920410156 72.50202941894531 76.53890228271484 76.5394287109375 C 72.50150299072266 80.57682800292969 67.80043029785156 83.74648284912109 62.56626892089844 85.96034240722656 C 57.14802932739258 88.25206756591797 51.39155578613281 89.41407012939453 45.45676803588867 89.41407012939453 Z" stroke="none"/>
              <path d="M 45.45676803588867 3 C 39.72381210327148 3 34.1639404296875 4.12213134765625 28.93159484863281 6.335227966308594 C 23.87622833251953 8.473472595214844 19.33542633056641 11.53517150878906 15.43529510498047 15.435302734375 C 11.53517150878906 19.33543395996094 8.473464965820312 23.87622833251953 6.335227966308594 28.93160247802734 C 4.122123718261719 34.16394424438477 3 39.72381591796875 3 45.4572868347168 C 3 51.19024658203125 4.122123718261719 56.75011825561523 6.335227966308594 61.98246002197266 C 8.473464965820312 67.03782653808594 11.53517150878906 71.57862854003906 15.43529510498047 75.478759765625 C 19.33542633056641 79.37889099121094 23.87622833251953 82.44058990478516 28.93159484863281 84.57883453369141 C 34.1639404296875 86.79193115234375 39.72381210327148 87.9140625 45.45676803588867 87.9140625 C 51.18972396850586 87.9140625 56.74959564208984 86.79193115234375 61.98194122314453 84.57883453369141 C 67.03730773925781 82.44058990478516 71.57810974121094 79.37889099121094 75.47824096679688 75.478759765625 C 79.37837219238281 71.57862854003906 82.44007110595703 67.03782653808594 84.57830810546875 61.98246002197266 C 86.79141235351562 56.75011825561523 87.91353607177734 51.19024658203125 87.91353607177734 45.4567756652832 C 87.91353607177734 39.72381591796875 86.79141235351562 34.16394424438477 84.57830810546875 28.93160247802734 C 82.44007110595703 23.87622833251953 79.37837219238281 19.33543395996094 75.47824096679688 15.435302734375 C 71.57810974121094 11.53517150878906 67.03730773925781 8.473472595214844 61.98194122314453 6.335227966308594 C 56.74959564208984 4.12213134765625 51.18972396850586 3 45.45676803588867 3 M 45.45676803588867 0 C 70.56185150146484 0 90.91353607177734 20.35169219970703 90.91353607177734 45.4567756652832 L 90.91353607177734 45.4572868347168 C 90.91353607177734 70.5623779296875 70.56185150146484 90.9140625 45.45676803588867 90.9140625 C 20.3516845703125 90.9140625 0 70.5623779296875 0 45.4572868347168 L 0 45.4567756652832 C 0 20.35169219970703 20.3516845703125 0 45.45676803588867 0 Z" stroke="none" fill="#fff"/>
            </g>
          </g>
          <g id="Trazado_874923" data-name="Trazado 874923" transform="translate(0 0)" fill="none">
            <path d="M45.457,0A45.457,45.457,0,0,1,90.914,45.457h0A45.457,45.457,0,0,1,0,45.457H0A45.457,45.457,0,0,1,45.457,0Z" stroke="none"/>
            <path d="M 45.45676803588867 3 C 39.72381210327148 3 34.1639404296875 4.12213134765625 28.93159484863281 6.335227966308594 C 23.87622833251953 8.473472595214844 19.33542633056641 11.53517150878906 15.43529510498047 15.435302734375 C 11.53517150878906 19.33543395996094 8.473464965820312 23.87622833251953 6.335227966308594 28.93160247802734 C 4.122123718261719 34.16394424438477 3 39.72381591796875 3 45.4572868347168 C 3 51.19024658203125 4.122123718261719 56.75011825561523 6.335227966308594 61.98246002197266 C 8.473464965820312 67.03782653808594 11.53517150878906 71.57862854003906 15.43529510498047 75.478759765625 C 19.33542633056641 79.37889099121094 23.87622833251953 82.44058990478516 28.93159484863281 84.57883453369141 C 34.1639404296875 86.79193115234375 39.72381210327148 87.9140625 45.45676803588867 87.9140625 C 51.18972396850586 87.9140625 56.74959564208984 86.79193115234375 61.98194122314453 84.57883453369141 C 67.03730773925781 82.44058990478516 71.57810974121094 79.37889099121094 75.47824096679688 75.478759765625 C 79.37837219238281 71.57862854003906 82.44007110595703 67.03782653808594 84.57830810546875 61.98246002197266 C 86.79141235351562 56.75011825561523 87.91353607177734 51.19024658203125 87.91353607177734 45.4567756652832 C 87.91353607177734 39.72381591796875 86.79141235351562 34.16394424438477 84.57830810546875 28.93160247802734 C 82.44007110595703 23.87622833251953 79.37837219238281 19.33543395996094 75.47824096679688 15.435302734375 C 71.57810974121094 11.53517150878906 67.03730773925781 8.473472595214844 61.98194122314453 6.335227966308594 C 56.74959564208984 4.12213134765625 51.18972396850586 3 45.45676803588867 3 M 45.45676803588867 0 C 70.56185150146484 0 90.91353607177734 20.35169219970703 90.91353607177734 45.4567756652832 L 90.91353607177734 45.4572868347168 C 90.91353607177734 70.5623779296875 70.56185150146484 90.9140625 45.45676803588867 90.9140625 C 20.3516845703125 90.9140625 0 70.5623779296875 0 45.4572868347168 L 0 45.4567756652832 C 0 20.35169219970703 20.3516845703125 0 45.45676803588867 0 Z" stroke="none" fill="#fff"/>
          </g>
        </g>
      </g>
    </g>
    <g id="mobile_transaction" transform="translate(-6073 -9627.622)">
      <g id="Grupo_1112785" data-name="Grupo 1112785" transform="translate(1 1.622)">
        <g id="Grupo_1112768" data-name="Grupo 1112768" transform="translate(0.793 7.868)">
          <path id="Trazado_903647" data-name="Trazado 903647" d="M29.348,11.539H2V44.147H29.348V11.539Z" transform="translate(-2 -11.539)" fill="#f5f5f5" fill-rule="evenodd"/>
        </g>
        <g id="Grupo_1112769" data-name="Grupo 1112769" transform="translate(0.793 1.127)">
          <path id="Trazado_903648" data-name="Trazado 903648" d="M2,9.784H29.348V7.6a4.57,4.57,0,0,0-4.557-4.557H6.557A4.57,4.57,0,0,0,2,7.6Z" transform="translate(-2 -3.042)" fill="#757575" fill-rule="evenodd"/>
        </g>
        <g id="Grupo_1112770" data-name="Grupo 1112770" transform="translate(0.793 40.476)">
          <path id="Trazado_903649" data-name="Trazado 903649" d="M29.348,52.639H2v2.376a4.57,4.57,0,0,0,4.557,4.557H24.791a4.57,4.57,0,0,0,4.557-4.557Z" transform="translate(-2 -52.639)" fill="#757575" fill-rule="evenodd"/>
        </g>
        <g id="Grupo_1112771" data-name="Grupo 1112771" transform="translate(20.48 1.127)">
          <path id="Trazado_903650" data-name="Trazado 903650" d="M31.373,9.784h3.1V7.6a4.57,4.57,0,0,0-4.557-4.557h-3.1A4.571,4.571,0,0,1,31.373,7.6Z" transform="translate(-26.814 -3.042)" fill="#616161" fill-rule="evenodd"/>
        </g>
        <g id="Grupo_1112772" data-name="Grupo 1112772" transform="translate(20.48 40.476)">
          <path id="Trazado_903651" data-name="Trazado 903651" d="M34.475,52.639h-3.1v2.376a4.571,4.571,0,0,1-4.56,4.557h3.1a4.57,4.57,0,0,0,4.557-4.557Z" transform="translate(-26.814 -52.639)" fill="#616161" fill-rule="evenodd"/>
        </g>
        <g id="Grupo_1112773" data-name="Grupo 1112773" transform="translate(28.142 20.472)">
          <path id="Trazado_903652" data-name="Trazado 903652" d="M55.111,27.426H36.471V31H49.678a3.156,3.156,0,0,0,3.156,3.156v6.419a3.156,3.156,0,0,0-3.156,3.156H36.471v3.574H55.111a1.619,1.619,0,0,0,1.614-1.614V29.04a1.619,1.619,0,0,0-1.614-1.614Z" transform="translate(-36.471 -27.426)" fill="#00c835" fill-rule="evenodd"/>
        </g>
        <g id="Grupo_1112774" data-name="Grupo 1112774" transform="translate(28.142 24.047)">
          <path id="Trazado_903653" data-name="Trazado 903653" d="M49.678,31.931H36.471v3.662a3.718,3.718,0,1,1,0,5.409v3.662H49.678a3.156,3.156,0,0,1,3.156-3.156V35.088A3.156,3.156,0,0,1,49.678,31.931Z" transform="translate(-36.471 -31.931)" fill="#ccff90" fill-rule="evenodd"/>
        </g>
        <g id="Grupo_1112775" data-name="Grupo 1112775" transform="translate(28.142 26.695)">
          <path id="Trazado_903654" data-name="Trazado 903654" d="M42.734,38.989a3.714,3.714,0,0,0-6.264-2.706v5.409a3.714,3.714,0,0,0,6.264-2.7Z" transform="translate(-36.471 -35.27)" fill="#00c835" fill-rule="evenodd"/>
        </g>
        <g id="Grupo_1112776" data-name="Grupo 1112776" transform="translate(5.681 15.484)">
          <path id="Trazado_903655" data-name="Trazado 903655" d="M16.947,38.709A8.786,8.786,0,1,0,8.16,29.922a8.785,8.785,0,0,0,8.787,8.787Z" transform="translate(-8.16 -21.138)" fill="#00c835" fill-rule="evenodd"/>
        </g>
        <g id="Grupo_1112777" data-name="Grupo 1112777" transform="translate(31.73 0.793)">
          <path id="Trazado_903656" data-name="Trazado 903656" d="M40.993,10.871a8.251,8.251,0,1,0,8.251-8.249A8.252,8.252,0,0,0,40.993,10.871Z" transform="translate(-40.993 -2.622)" fill="#ffca28" fill-rule="evenodd"/>
        </g>
        <g id="Grupo_1112778" data-name="Grupo 1112778" transform="translate(25.04 7.868)">
          <path id="Trazado_903657" data-name="Trazado 903657" d="M32.561,11.539V44.147h3.1V11.539Z" transform="translate(-32.561 -11.539)" fill="#e0e0e0" fill-rule="evenodd"/>
        </g>
        <g id="Grupo_1112779" data-name="Grupo 1112779" transform="translate(34.87 20.472)">
          <path id="Trazado_903658" data-name="Trazado 903658" d="M56.864,27.426H47.842A13.341,13.341,0,0,1,50.182,31H51.43a3.156,3.156,0,0,0,3.156,3.156v6.419a3.156,3.156,0,0,0-3.156,3.156H48.779a14.076,14.076,0,0,1-3.828,3.574H56.864a1.619,1.619,0,0,0,1.614-1.614V29.04A1.619,1.619,0,0,0,56.864,27.426Z" transform="translate(-44.951 -27.426)" fill="#00a82c" fill-rule="evenodd"/>
        </g>
        <g id="Grupo_1112780" data-name="Grupo 1112780" transform="translate(38.698 24.047)">
          <path id="Trazado_903659" data-name="Trazado 903659" d="M55.583,35.088a3.156,3.156,0,0,1-3.156-3.156H51.179a12.669,12.669,0,0,1,1.092,5.153,12.806,12.806,0,0,1-2.5,7.58h2.651a3.156,3.156,0,0,1,3.156-3.156v-6.42Z" transform="translate(-49.776 -31.931)" fill="#b2ff59" fill-rule="evenodd"/>
        </g>
        <g id="Grupo_1112781" data-name="Grupo 1112781" transform="translate(37.152 0.794)">
          <path id="Trazado_903660" data-name="Trazado 903660" d="M50.3,2.628a8.254,8.254,0,0,1-2.474,16,8.252,8.252,0,1,0,2.829-16c-.12,0-.238,0-.355.005Z" transform="translate(-47.828 -2.622)" fill="#ffb300" fill-rule="evenodd"/>
        </g>
        <g id="Grupo_1112782" data-name="Grupo 1112782" transform="translate(9.04 20.225)">
          <path id="Trazado_903661" data-name="Trazado 903661" d="M22.174,29.388a1.366,1.366,0,1,0-2.042-1.816L16,32.219l-1.2-1.065a1.445,1.445,0,0,0-1.92,2.16l1.2,1.068,1.2,1.065c1.013.9,1.283.257,2.184-.756l.582-.653Z" transform="translate(-12.395 -27.114)" fill="#f5f5f5" fill-rule="evenodd"/>
        </g>
        <g id="Grupo_1112783" data-name="Grupo 1112783" transform="translate(11.636 15.484)">
          <path id="Trazado_903662" data-name="Trazado 903662" d="M21.766,29.873a8.792,8.792,0,0,1-6.1,8.369,8.785,8.785,0,1,0,.145-16.686,8.806,8.806,0,0,1,5.147,4.634,1.367,1.367,0,0,1,1.892,1.963l-1.1,1.234C21.761,29.548,21.766,29.712,21.766,29.873Z" transform="translate(-15.666 -21.138)" fill="#00a82c" fill-rule="evenodd"/>
        </g>
        <g id="Grupo_1112784" data-name="Grupo 1112784">
          <path id="Trazado_903663" data-name="Trazado 903663" d="M49.892,16.04v.651a.793.793,0,1,0,1.587,0v-.65a2.553,2.553,0,0,0,2.209-2.51c0-.936-.373-2.559-2.884-2.91-1.245-.223-1.448-.721-1.376-1.412a1.305,1.305,0,0,1,1.479-.926c.286.02.953.14.962.815a.819.819,0,0,0,.8.783.794.794,0,0,0,.783-.8,2.351,2.351,0,0,0-1.977-2.307V6.194a.793.793,0,0,0-1.587,0V6.82A2.693,2.693,0,0,0,47.854,9c-.1.99.1,2.719,2.7,3.184,1.362.191,1.549.757,1.547,1.342,0,.974-1.211.991-1.444,1.017a1.3,1.3,0,0,1-1.433-1.286.793.793,0,0,0-1.582.117,2.828,2.828,0,0,0,2.25,2.663Z" transform="translate(-10.637 -2.403)"/>
          <path id="Trazado_903664" data-name="Trazado 903664" d="M14.754,7.535h6.782a.793.793,0,0,0,0-1.587H14.754a.793.793,0,1,0,0,1.587Z" transform="translate(-3.678 -2.516)"/>
          <path id="Trazado_903665" data-name="Trazado 903665" d="M20.813,55.918h-4.83a.793.793,0,0,0,0,1.587h4.83a.793.793,0,1,0,0-1.587Z" transform="translate(-3.932 -12.84)"/>
          <path id="Trazado_903666" data-name="Trazado 903666" d="M49.876,39a.807.807,0,0,0-1.037.456.794.794,0,1,0,1.474.59l.011-.027A.782.782,0,0,0,49.876,39Z" transform="translate(-10.873 -9.333)"/>
          <path id="Trazado_903667" data-name="Trazado 903667" d="M16.74,20.138a9.579,9.579,0,1,0,9.577,9.578,9.59,9.59,0,0,0-9.577-9.578Zm0,17.571a7.992,7.992,0,1,1,7.99-7.993,8,8,0,0,1-7.99,7.993Z" transform="translate(-2.273 -5.448)"/>
          <path id="Trazado_903668" data-name="Trazado 903668" d="M47.782,21.388H29.935v-14a5.357,5.357,0,0,0-5.351-5.351H6.351A5.357,5.357,0,0,0,1,7.393V44.561a5.357,5.357,0,0,0,5.351,5.351H24.584a5.357,5.357,0,0,0,5.351-5.351v-1.7H47.782a2.41,2.41,0,0,0,2.407-2.407V23.795a2.41,2.41,0,0,0-2.407-2.407ZM2.587,10.371H28.348V41.392H2.587ZM29.935,29.784a2.924,2.924,0,1,1,0,4.675Zm0,6.484a4.511,4.511,0,1,0,0-8.294V26.549h11.7a3.961,3.961,0,0,0,3.076,3.076v4.993a3.961,3.961,0,0,0-3.076,3.076h-11.7ZM6.351,3.629H24.584a3.768,3.768,0,0,1,3.764,3.764V8.784H2.587V7.393A3.768,3.768,0,0,1,6.351,3.629Zm18.234,44.7H6.351a3.768,3.768,0,0,1-3.764-3.764V42.979H28.348v1.582A3.768,3.768,0,0,1,24.585,48.325ZM48.6,40.449a.821.821,0,0,1-.821.821H29.935V39.281H42.349a.793.793,0,0,0,.793-.793,2.366,2.366,0,0,1,2.363-2.363.793.793,0,0,0,.793-.793V28.912a.793.793,0,0,0-.793-.793,2.366,2.366,0,0,1-2.363-2.363.793.793,0,0,0-.793-.793H29.935V22.975H47.782a.821.821,0,0,1,.821.82Z" transform="translate(-1 -1.709)"/>
          <path id="Trazado_903669" data-name="Trazado 903669" d="M49.038,19.709a9.044,9.044,0,1,0-9.045-9.042A9.054,9.054,0,0,0,49.038,19.709Zm0-16.5a7.457,7.457,0,1,1-7.458,7.458,7.467,7.467,0,0,1,7.458-7.458Z" transform="translate(-9.057 -1.622)"/>
          <path id="Trazado_903670" data-name="Trazado 903670" d="M20.815,26.118a2.137,2.137,0,0,0-1.483.72l-3.608,4.056-.606-.537a2.24,2.24,0,0,0-3.162.184,2.242,2.242,0,0,0,.186,3.16l2.4,2.133a2.112,2.112,0,0,0,1.345.628c.032,0,.064,0,.1,0a2.361,2.361,0,0,0,1.544-1.079c.1-.115.2-.239.318-.369l4.716-5.3a2.159,2.159,0,0,0-1.745-3.59Zm.559,2.536-4.715,5.3h0c-.125.14-.238.273-.343.4a5.365,5.365,0,0,1-.453.5,1.7,1.7,0,0,1-.268-.2l-2.4-2.133a.66.66,0,0,1-.055-.919.648.648,0,0,1,.452-.218h.038a.642.642,0,0,1,.431.165l1.2,1.065a.794.794,0,0,0,1.119-.067l4.136-4.65a.563.563,0,0,1,.391-.189.574.574,0,0,1,.463.953Z" transform="translate(-3.147 -6.683)"/>
        </g>
      </g>
    </g>
  </g>
</svg>
