<svg xmlns="http://www.w3.org/2000/svg" xmlns:xlink="http://www.w3.org/1999/xlink" width="108.914" height="108.914" viewBox="0 0 108.914 108.914">
  <defs>
    <filter id="Path_874925" x="0" y="0" width="108.914" height="108.914" filterUnits="userSpaceOnUse">
      <feOffset dy="3" input="SourceAlpha"/>
      <feGaussianBlur stdDeviation="3" result="blur"/>
      <feFlood flood-opacity="0.161"/>
      <feComposite operator="in" in2="blur"/>
      <feComposite in="SourceGraphic"/>
    </filter>
  </defs>
  <g id="Group_1113401" data-name="Group 1113401" transform="translate(-1061.051 -2684)">
    <g id="Group_1111315" data-name="Group 1111315" transform="translate(261.551 737.789)">
      <g id="Group_1109835" data-name="Group 1109835">
        <g id="Group_1107913" data-name="Group 1107913" transform="translate(808.5 1952.211)">
          <g transform="matrix(1, 0, 0, 1, -9, -6)" filter="url(#Path_874925)">
            <g id="Path_874925-2" data-name="Path 874925" transform="translate(9 6)" fill="#fd9826" opacity="0.859">
              <path d="M 45.45676803588867 89.41407012939453 C 39.52198028564453 89.41407012939453 33.76551818847656 88.25206756591797 28.34726715087891 85.96034240722656 C 23.11311721801758 83.74648284912109 18.41204261779785 80.57682800292969 14.37464332580566 76.5394287109375 C 10.33724308013916 72.50202941894531 7.167593002319336 67.80095672607422 4.953730583190918 62.56679534912109 C 2.662005424499512 57.14855575561523 1.500005483627319 51.39208221435547 1.500005483627319 45.45729446411133 C 1.500005483627319 39.52198028564453 2.662005424499512 33.76551818847656 4.953730583190918 28.34726905822754 C 7.167593002319336 23.11310577392578 10.33724308013916 18.41203117370605 14.37464332580566 14.37464332580566 C 18.41204261779785 10.33724403381348 23.11311721801758 7.167593955993652 28.34726715087891 4.953731060028076 C 33.76551818847656 2.662006139755249 39.52198028564453 1.500006198883057 45.45676803588867 1.500006198883057 C 51.39155578613281 1.500006198883057 57.14802932739258 2.662006139755249 62.56626892089844 4.953731060028076 C 67.80043029785156 7.167593955993652 72.50150299072266 10.33724403381348 76.53890228271484 14.37464332580566 C 80.57630920410156 18.41203117370605 83.74595642089844 23.11310577392578 85.95981597900391 28.34726905822754 C 88.25154113769531 33.76551818847656 89.41354370117188 39.52198028564453 89.41354370117188 45.45676803588867 C 89.41354370117188 51.39208221435547 88.25154113769531 57.14855575561523 85.95981597900391 62.56679534912109 C 83.74595642089844 67.80095672607422 80.57630920410156 72.50202941894531 76.53890228271484 76.5394287109375 C 72.50150299072266 80.57682800292969 67.80043029785156 83.74648284912109 62.56626892089844 85.96034240722656 C 57.14802932739258 88.25206756591797 51.39155578613281 89.41407012939453 45.45676803588867 89.41407012939453 Z" stroke="none"/>
              <path d="M 45.45676803588867 3 C 39.72381210327148 3 34.1639404296875 4.12213134765625 28.93159484863281 6.335227966308594 C 23.87622833251953 8.473472595214844 19.33542633056641 11.53517150878906 15.43529510498047 15.435302734375 C 11.53517150878906 19.33543395996094 8.473464965820312 23.87622833251953 6.335227966308594 28.93160247802734 C 4.122123718261719 34.16394424438477 3 39.72381591796875 3 45.4572868347168 C 3 51.19024658203125 4.122123718261719 56.75011825561523 6.335227966308594 61.98246002197266 C 8.473464965820312 67.03782653808594 11.53517150878906 71.57862854003906 15.43529510498047 75.478759765625 C 19.33542633056641 79.37889099121094 23.87622833251953 82.44058990478516 28.93159484863281 84.57883453369141 C 34.1639404296875 86.79193115234375 39.72381210327148 87.9140625 45.45676803588867 87.9140625 C 51.18972396850586 87.9140625 56.74959564208984 86.79193115234375 61.98194122314453 84.57883453369141 C 67.03730773925781 82.44058990478516 71.57810974121094 79.37889099121094 75.47824096679688 75.478759765625 C 79.37837219238281 71.57862854003906 82.44007110595703 67.03782653808594 84.57830810546875 61.98246002197266 C 86.79141235351562 56.75011825561523 87.91353607177734 51.19024658203125 87.91353607177734 45.4567756652832 C 87.91353607177734 39.72381591796875 86.79141235351562 34.16394424438477 84.57830810546875 28.93160247802734 C 82.44007110595703 23.87622833251953 79.37837219238281 19.33543395996094 75.47824096679688 15.435302734375 C 71.57810974121094 11.53517150878906 67.03730773925781 8.473472595214844 61.98194122314453 6.335227966308594 C 56.74959564208984 4.12213134765625 51.18972396850586 3 45.45676803588867 3 M 45.45676803588867 0 C 70.56185150146484 0 90.91353607177734 20.35169219970703 90.91353607177734 45.4567756652832 L 90.91353607177734 45.4572868347168 C 90.91353607177734 70.5623779296875 70.56185150146484 90.9140625 45.45676803588867 90.9140625 C 20.3516845703125 90.9140625 0 70.5623779296875 0 45.4572868347168 L 0 45.4567756652832 C 0 20.35169219970703 20.3516845703125 0 45.45676803588867 0 Z" stroke="none" fill="#fff"/>
            </g>
          </g>
          <g id="Path_874923" data-name="Path 874923" transform="translate(0 0)" fill="none">
            <path d="M45.457,0A45.457,45.457,0,0,1,90.914,45.457h0A45.457,45.457,0,0,1,0,45.457H0A45.457,45.457,0,0,1,45.457,0Z" stroke="none"/>
            <path d="M 45.45676803588867 3 C 39.72381210327148 3 34.1639404296875 4.12213134765625 28.93159484863281 6.335227966308594 C 23.87622833251953 8.473472595214844 19.33542633056641 11.53517150878906 15.43529510498047 15.435302734375 C 11.53517150878906 19.33543395996094 8.473464965820312 23.87622833251953 6.335227966308594 28.93160247802734 C 4.122123718261719 34.16394424438477 3 39.72381591796875 3 45.4572868347168 C 3 51.19024658203125 4.122123718261719 56.75011825561523 6.335227966308594 61.98246002197266 C 8.473464965820312 67.03782653808594 11.53517150878906 71.57862854003906 15.43529510498047 75.478759765625 C 19.33542633056641 79.37889099121094 23.87622833251953 82.44058990478516 28.93159484863281 84.57883453369141 C 34.1639404296875 86.79193115234375 39.72381210327148 87.9140625 45.45676803588867 87.9140625 C 51.18972396850586 87.9140625 56.74959564208984 86.79193115234375 61.98194122314453 84.57883453369141 C 67.03730773925781 82.44058990478516 71.57810974121094 79.37889099121094 75.47824096679688 75.478759765625 C 79.37837219238281 71.57862854003906 82.44007110595703 67.03782653808594 84.57830810546875 61.98246002197266 C 86.79141235351562 56.75011825561523 87.91353607177734 51.19024658203125 87.91353607177734 45.4567756652832 C 87.91353607177734 39.72381591796875 86.79141235351562 34.16394424438477 84.57830810546875 28.93160247802734 C 82.44007110595703 23.87622833251953 79.37837219238281 19.33543395996094 75.47824096679688 15.435302734375 C 71.57810974121094 11.53517150878906 67.03730773925781 8.473472595214844 61.98194122314453 6.335227966308594 C 56.74959564208984 4.12213134765625 51.18972396850586 3 45.45676803588867 3 M 45.45676803588867 0 C 70.56185150146484 0 90.91353607177734 20.35169219970703 90.91353607177734 45.4567756652832 L 90.91353607177734 45.4572868347168 C 90.91353607177734 70.5623779296875 70.56185150146484 90.9140625 45.45676803588867 90.9140625 C 20.3516845703125 90.9140625 0 70.5623779296875 0 45.4572868347168 L 0 45.4567756652832 C 0 20.35169219970703 20.3516845703125 0 45.45676803588867 0 Z" stroke="none" fill="#fff"/>
          </g>
        </g>
      </g>
    </g>
    <g id="Group_1113400" data-name="Group 1113400" transform="translate(1087.051 2707)">
      <path id="Path_906697" data-name="Path 906697" d="M105.521,114.493l25.058-14.467a.913.913,0,0,0,.334-1.247L122.65,84.467a.913.913,0,0,0-1.247-.334L96.345,98.6a.913.913,0,0,0-.334,1.247l8.263,14.312A.913.913,0,0,0,105.521,114.493Z" transform="translate(-74.505 -65.276)" fill="#b2e26d"/>
      <path id="Path_906698" data-name="Path 906698" d="M114.351,186.057l-2.447-4.238v5.36a.913.913,0,0,0,.913.913h2.709l-1.175-2.035Z" transform="translate(-86.95 -141.274)" fill="#87d147"/>
      <path id="Path_906699" data-name="Path 906699" d="M174.519,158.92l-16.8,9.7h19.632a.913.913,0,0,0,.913-.913V156.76Z" transform="translate(-122.546 -121.803)" fill="#87d147"/>
      <path id="Path_906700" data-name="Path 906700" d="M229.256,190.275h-4.734a5.647,5.647,0,0,1,5.647-5.647v4.734A.913.913,0,0,1,229.256,190.275Z" transform="translate(-174.454 -143.457)" fill="#5bbf21"/>
      <g id="Group_1113399" data-name="Group 1113399" transform="translate(21.383 18.734)">
        <path id="Path_906701" data-name="Path 906701" d="M126.49,202.618l4.1-2.367a5.647,5.647,0,0,0-7.714-2.067l2.367,4.1A.913.913,0,0,0,126.49,202.618Z" transform="translate(-116.858 -172.136)" fill="#87d147"/>
        <path id="Path_906702" data-name="Path 906702" d="M234.528,137.2l-4.1,2.367a5.647,5.647,0,0,1,2.067-7.714l2.367,4.1A.913.913,0,0,1,234.528,137.2Z" transform="translate(-199.838 -121.185)" fill="#87d147"/>
        <path id="Path_906703" data-name="Path 906703" d="M196.019,84.133l-4.1,2.367a5.647,5.647,0,0,0,7.714,2.067l-2.367-4.1A.913.913,0,0,0,196.019,84.133Z" transform="translate(-170.504 -84.011)" fill="#87d147"/>
        <path id="Path_906704" data-name="Path 906704" d="M100.444,138.821l-4.1,2.367a.913.913,0,0,0-.334,1.247l2.367,4.1A5.647,5.647,0,0,0,100.444,138.821Z" transform="translate(-95.888 -126.598)" fill="#87d147"/>
        <circle id="Ellipse_12926" data-name="Ellipse 12926" cx="6.212" cy="6.212" r="6.212" transform="translate(11.362 9.091)" fill="#87d147"/>
      </g>
      <path id="Path_906705" data-name="Path 906705" d="M69.312,80.623V70.1H23.238a1.17,1.17,0,0,0-1.171,1.17v31.093a2.22,2.22,0,0,0,2.213,2.213H67.1a2.22,2.22,0,0,0,2.213-2.213v-1.076h-17l-.055.032-4.1,2.367a.913.913,0,0,1-1.247-.334l-1.192-2.065H43.014a.913.913,0,0,1-.913-.913v-5.36l-3.449-5.974a.913.913,0,0,1,.334-1.247L64.043,73.323a.915.915,0,0,1,1.247.334l2.367,4.1Z" transform="translate(-17.146 -54.466)" fill="#dae6f1"/>
      <path id="Path_906706" data-name="Path 906706" d="M104.43,90.918a4.93,4.93,0,0,1,1.926-3.908,4.936,4.936,0,1,0,0,7.816A4.93,4.93,0,0,1,104.43,90.918Z" transform="translate(-76.464 -66.808)" fill="#fcdd86"/>
      <path id="Path_906707" data-name="Path 906707" d="M131.43,90.918a4.93,4.93,0,0,1,1.926-3.908,4.934,4.934,0,1,0-5.5,8.17l3.979-2.3A4.9,4.9,0,0,1,131.43,90.918Z" transform="translate(-97.443 -66.808)" fill="#fcdd86"/>
      <path id="Path_906708" data-name="Path 906708" d="M157.345,85.982a4.934,4.934,0,0,0-4.528,6.9l8.491-4.9A4.932,4.932,0,0,0,157.345,85.982Z" transform="translate(-118.422 -66.808)" fill="#fcdd86"/>
      <path id="Path_906709" data-name="Path 906709" d="M111.268,97.757a4.9,4.9,0,0,1,.637-2.42,2.974,2.974,0,1,0,0,4.841A4.9,4.9,0,0,1,111.268,97.757Z" transform="translate(-83.303 -73.647)" fill="#f5c84c"/>
      <path id="Path_906710" data-name="Path 906710" d="M138.268,97.757a4.9,4.9,0,0,1,.637-2.42,2.971,2.971,0,1,0-1.955,5.382l1.73-1A4.9,4.9,0,0,1,138.268,97.757Z" transform="translate(-104.282 -73.647)" fill="#f5c84c"/>
      <path id="Path_906711" data-name="Path 906711" d="M164.184,94.783a2.966,2.966,0,0,0-2.808,3.945l5.052-2.917A2.965,2.965,0,0,0,164.184,94.783Z" transform="translate(-125.261 -73.647)" fill="#f5c84c"/>
      <path id="Path_906712" data-name="Path 906712" d="M23.07,39.952a4.4,4.4,0,0,0,3.1-4.315,4.315,4.315,0,0,0-4.315-4.315L69.192,31.3h.124v.006a4.31,4.31,0,0,1,0,8.617v.028H23.07Z" transform="translate(-16.978 -24.32)" fill="#3caadc"/>
      <path id="Path_906713" data-name="Path 906713" d="M6.815,31.4a4.315,4.315,0,0,1,4.315,4.315,4.4,4.4,0,0,1-3.1,4.315A1.17,1.17,0,0,0,6.863,41.2V70.087H4.445A1.945,1.945,0,0,1,2.5,68.142V35.712A4.315,4.315,0,0,1,6.815,31.4Z" transform="translate(-1.943 -24.396)" fill="#087ebf"/>
      <path id="Path_906714" data-name="Path 906714" d="M101.4,94.469a5.494,5.494,0,0,1,0-10.988,5.438,5.438,0,0,1,3.351,1.144.558.558,0,0,1,0,.883,4.371,4.371,0,0,0,0,6.933.558.558,0,0,1,0,.883,5.438,5.438,0,0,1-3.351,1.144Zm0-9.873a4.379,4.379,0,0,0,0,8.758,4.327,4.327,0,0,0,2.1-.536,5.486,5.486,0,0,1,0-7.684A4.322,4.322,0,0,0,101.4,84.6Z" transform="translate(-74.522 -64.866)"/>
      <path id="Path_906715" data-name="Path 906715" d="M94.321,5.757h-.462V5.3a.626.626,0,0,0-1.251,0v.462h-.461a.626.626,0,1,0,0,1.251h.461V7.47a.626.626,0,0,0,1.251,0V7.008h.462a.626.626,0,0,0,0-1.251Z" transform="translate(-71.112 -3.629)" fill="#f5c84c"/>
      <path id="Path_906716" data-name="Path 906716" d="M123.754,1.239a.625.625,0,1,0-.5-.613A.624.624,0,0,0,123.754,1.239Z" transform="translate(-95.766)" fill="#87d147"/>
      <path id="Path_906717" data-name="Path 906717" d="M178,237.239a.625.625,0,1,0-.748-.613A.625.625,0,0,0,178,237.239Z" transform="translate(-137.725 -183.373)" fill="#ef4460"/>
      <path id="Path_906718" data-name="Path 906718" d="M195.826,241.712a2.2,2.2,0,0,1,1.763,1.727.04.04,0,0,0,.078,0,2.2,2.2,0,0,1,1.763-1.727.039.039,0,0,0,0-.077,2.2,2.2,0,0,1-1.763-1.727.04.04,0,0,0-.078,0,2.2,2.2,0,0,1-1.763,1.727A.039.039,0,0,0,195.826,241.712Z" transform="translate(-152.131 -186.384)" fill="#3caadc"/>
      <path id="Path_906719" data-name="Path 906719" d="M65.157,103.189H22.338a2.774,2.774,0,0,1-2.771-2.771V69.326A1.728,1.728,0,0,1,21.295,67.6H67.37a.557.557,0,0,1,.557.557V78.681a.557.557,0,0,1-1.04.279l-4.022-6.966a.356.356,0,0,0-.486-.13L37.322,86.33a.356.356,0,0,0-.13.486l3.526,6.107.009.015.09.156-.007,0a.543.543,0,0,1-.094.687V98.43a.356.356,0,0,0,.355.355h2.64a.565.565,0,0,1,.528.242c.008.012.016.024.023.037l1.192,2.065a.356.356,0,0,0,.485.13l4.155-2.4a.558.558,0,0,1,.279-.074h17a.557.557,0,0,1,.557.557v1.076a2.774,2.774,0,0,1-2.771,2.77Zm-18.4-1.115h18.4a1.657,1.657,0,0,0,1.656-1.656V99.9H50.523ZM21.3,68.713a.613.613,0,0,0-.613.613v31.093a1.657,1.657,0,0,0,1.656,1.656H44.813a1.475,1.475,0,0,1-.324-.389L43.458,99.9H41.071a1.472,1.472,0,0,1-1.47-1.47V93.219l-3.375-5.845a1.47,1.47,0,0,1,.538-2.009L61.822,70.9a1.473,1.473,0,0,1,2.009.538L66.812,76.6V68.714H21.295Z" transform="translate(-15.204 -52.524)"/>
      <path id="Path_906720" data-name="Path 906720" d="M67.374,38.565H21.127a.557.557,0,0,1-.143-1.1,3.861,3.861,0,0,0,2.682-3.776,3.762,3.762,0,0,0-3.757-3.757.557.557,0,0,1,0-1.115L67.24,28.8h.134a.559.559,0,0,1,.1.01,4.868,4.868,0,0,1,.1,9.72A.554.554,0,0,1,67.374,38.565Zm0-.586h0ZM23.215,37.45H67.2a.558.558,0,0,1,.16-.028,3.753,3.753,0,0,0,0-7.5.563.563,0,0,1-.068-.006h-.041l-44.244.021a4.864,4.864,0,0,1,1.776,3.759,5.177,5.177,0,0,1-1.566,3.758Z" transform="translate(-15.036 -22.376)"/>
      <path id="Path_906721" data-name="Path 906721" d="M4.921,68.7H2.5A2.506,2.506,0,0,1,0,66.2V33.77a4.872,4.872,0,0,1,9.745,0,4.925,4.925,0,0,1-3.511,4.854.553.553,0,0,1-.143.019.613.613,0,0,0-.613.613V68.145a.557.557,0,0,1-.557.557Zm-.048-38.69A3.762,3.762,0,0,0,1.115,33.77V66.2A1.389,1.389,0,0,0,2.5,67.588H4.364V39.256a1.717,1.717,0,0,1,.33-1.016,1.734,1.734,0,0,1,1.315-.71A3.871,3.871,0,0,0,8.63,33.77a3.762,3.762,0,0,0-3.757-3.757Z" transform="translate(0 -22.454)"/>
      <path id="Path_906722" data-name="Path 906722" d="M51.117,186.842a1.809,1.809,0,0,1-1.513-1.049c-.273-.417-.389-.546-.581-.546s-.308.13-.581.546a1.616,1.616,0,0,1-3.026,0c-.273-.416-.389-.546-.58-.546s-.308.13-.581.546a1.808,1.808,0,0,1-1.513,1.049.557.557,0,0,1,0-1.115c.192,0,.308-.13.581-.546a1.615,1.615,0,0,1,3.026,0c.273.416.389.546.58.546s.308-.13.581-.546a1.616,1.616,0,0,1,3.027,0c.273.417.389.546.581.546a.557.557,0,0,1,0,1.115Z" transform="translate(-32.776 -143.07)"/>
      <path id="Path_906723" data-name="Path 906723" d="M46.57,169.415H42.756a.557.557,0,0,1,0-1.115H46.57a.557.557,0,0,1,0,1.115Z" transform="translate(-32.789 -130.77)"/>
      <path id="Path_906724" data-name="Path 906724" d="M73.052,169.415H71.93a.557.557,0,0,1,0-1.115h1.122a.557.557,0,0,1,0,1.115Z" transform="translate(-55.457 -130.77)"/>
      <path id="Path_906725" data-name="Path 906725" d="M89.148,169.415H88.026a.557.557,0,0,1,0-1.115h1.122a.557.557,0,0,1,0,1.115Z" transform="translate(-67.964 -130.77)"/>
      <path id="Path_906726" data-name="Path 906726" d="M51.425,96.489H41.987a.557.557,0,0,1,0-1.115h9.437a.557.557,0,0,1,0,1.115Z" transform="translate(-32.191 -74.106)"/>
      <path id="Path_906727" data-name="Path 906727" d="M51.425,110.967H41.987a.557.557,0,0,1,0-1.115h9.437a.557.557,0,0,1,0,1.115Z" transform="translate(-32.191 -85.355)"/>
      <path id="Path_906728" data-name="Path 906728" d="M51.425,125.446H41.987a.557.557,0,1,1,0-1.115h9.437a.557.557,0,1,1,0,1.115Z" transform="translate(-32.191 -96.606)"/>
      <path id="Path_906729" data-name="Path 906729" d="M51.425,139.924H41.987a.557.557,0,0,1,0-1.115h9.437a.557.557,0,0,1,0,1.115Z" transform="translate(-32.191 -107.855)"/>
      <path id="Path_906730" data-name="Path 906730" d="M51.425,154.4H41.987a.557.557,0,0,1,0-1.115h9.437a.557.557,0,0,1,0,1.115Z" transform="translate(-32.191 -119.105)"/>
      <path id="Path_906731" data-name="Path 906731" d="M227.312,188.89h-4.734a.557.557,0,0,1-.557-.557,6.212,6.212,0,0,1,6.2-6.2.557.557,0,0,1,.557.557v4.734A1.472,1.472,0,0,1,227.312,188.89Zm-4.146-1.115h4.146a.356.356,0,0,0,.355-.355v-4.146A5.1,5.1,0,0,0,223.167,187.775Z" transform="translate(-172.511 -141.514)"/>
      <path id="Path_906732" data-name="Path 906732" d="M113.584,186.707h-2.709a1.472,1.472,0,0,1-1.47-1.47v-5.36a.557.557,0,0,1,1.04-.279l2.447,4.238,1.175,2.035a.557.557,0,0,1-.483.836Zm-3.064-4.75v3.28a.356.356,0,0,0,.355.355h1.743Z" transform="translate(-85.008 -139.332)"/>
      <path id="Path_906733" data-name="Path 906733" d="M175.4,167.237H155.772a.557.557,0,0,1-.279-1.04l20.544-11.861a.557.557,0,0,1,.836.483v10.948A1.472,1.472,0,0,1,175.4,167.237Zm-17.551-1.115H175.4a.356.356,0,0,0,.355-.355v-9.983l-2.9,1.677Zm14.723-9.144h0Z" transform="translate(-120.602 -119.861)"/>
      <path id="Path_906734" data-name="Path 906734" d="M163.092,142.814a.557.557,0,0,1-.279-1.04l1.938-1.119a.868.868,0,0,0-.868-1.5l-1.367.789a1.983,1.983,0,0,1-1.983-3.435l2.187-1.263a.557.557,0,1,1,.557.966l-2.187,1.263a.868.868,0,1,0,.868,1.5l1.367-.789a1.983,1.983,0,1,1,1.983,3.434l-1.938,1.119A.551.551,0,0,1,163.092,142.814Z" transform="translate(-123.964 -105.027)"/>
      <path id="Path_906735" data-name="Path 906735" d="M168,143.016a.557.557,0,0,1-.483-.279l-3.826-6.627a.557.557,0,0,1,.966-.557l3.826,6.627a.558.558,0,0,1-.482.836Z" transform="translate(-127.129 -105.108)"/>
      <path id="Path_906736" data-name="Path 906736" d="M131.994,172.332a.557.557,0,0,1-.279-1.04l1.217-.7a.557.557,0,1,1,.557.966l-1.217.7a.556.556,0,0,1-.278.075Z" transform="translate(-102.126 -132.49)"/>
      <path id="Path_906737" data-name="Path 906737" d="M208.051,128.419a.557.557,0,0,1-.279-1.04l1.217-.7a.557.557,0,0,1,.557.966l-1.217.7A.556.556,0,0,1,208.051,128.419Z" transform="translate(-161.223 -98.369)"/>
      <path id="Path_906738" data-name="Path 906738" d="M103.125,113.233a1.476,1.476,0,0,1-1.276-.736L93.586,98.185a1.472,1.472,0,0,1,.538-2.009L119.182,81.71a1.472,1.472,0,0,1,2.009.538l8.263,14.312a1.47,1.47,0,0,1-.538,2.009l-25.058,14.467A1.463,1.463,0,0,1,103.125,113.233Zm.454-.68h0Zm16.338-29.925a.354.354,0,0,0-.177.048L94.681,97.142a.356.356,0,0,0-.13.486l8.263,14.312a.355.355,0,0,0,.485.13L128.358,97.6a.356.356,0,0,0,.13-.486l-8.263-14.312A.356.356,0,0,0,119.916,82.628Z" transform="translate(-72.563 -63.336)"/>
      <path id="Path_906739" data-name="Path 906739" d="M124.094,201.364a1.476,1.476,0,0,1-1.276-.736l-2.367-4.1a.557.557,0,0,1,.2-.762,6.211,6.211,0,0,1,8.475,2.271.557.557,0,0,1-.2.762l-4.1,2.367A1.461,1.461,0,0,1,124.094,201.364Zm.454-.68h0Zm-2.837-4.2,2.073,3.591a.356.356,0,0,0,.486.13l3.591-2.073A5.1,5.1,0,0,0,121.711,196.48Z" transform="translate(-93.533 -151.466)"/>
      <path id="Path_906740" data-name="Path 906740" d="M228.48,138.183A.557.557,0,0,1,228,137.9a6.2,6.2,0,0,1,2.271-8.475.557.557,0,0,1,.762.2l2.367,4.1a1.47,1.47,0,0,1-.538,2.009l-4.1,2.367A.555.555,0,0,1,228.48,138.183Zm1.877-7.484a5.093,5.093,0,0,0-1.648,6.15l3.591-2.073a.355.355,0,0,0,.13-.485Z" transform="translate(-176.507 -100.508)"/>
      <path id="Path_906741" data-name="Path 906741" d="M194.877,87.94a6.234,6.234,0,0,1-1.616-.214,6.164,6.164,0,0,1-3.767-2.891.557.557,0,0,1,.2-.762l4.1-2.367a1.47,1.47,0,0,1,2.009.538l2.367,4.1a.557.557,0,0,1-.2.762A6.167,6.167,0,0,1,194.877,87.94Zm-4.113-3.195a5.1,5.1,0,0,0,6.149,1.648L194.841,82.8a.356.356,0,0,0-.486-.13Zm3.312-2.556h0Z" transform="translate(-147.179 -63.333)"/>
      <path id="Path_906742" data-name="Path 906742" d="M96.437,145.152a.557.557,0,0,1-.483-.279l-2.367-4.1a1.472,1.472,0,0,1,.538-2.009l4.1-2.367a.557.557,0,0,1,.762.2,6.212,6.212,0,0,1-2.271,8.475A.558.558,0,0,1,96.437,145.152Zm1.836-7.495-3.591,2.073a.356.356,0,0,0-.13.486l2.073,3.59A5.1,5.1,0,0,0,98.273,137.657Z" transform="translate(-72.564 -105.924)"/>
      <path id="Path_906743" data-name="Path 906743" d="M151.12,135.815a6.83,6.83,0,0,1-1.767-.234,6.732,6.732,0,1,1,1.767.234Zm-.03-12.425a5.682,5.682,0,1,0,1.476.2A5.7,5.7,0,0,0,151.09,123.39Z" transform="translate(-112.148 -95.008)"/>
      <path id="Path_906744" data-name="Path 906744" d="M125.917,93.8a.555.555,0,0,1-.282-.076A5.492,5.492,0,0,1,128.4,83.482a5.438,5.438,0,0,1,3.351,1.144.558.558,0,0,1,0,.883,4.371,4.371,0,0,0-1.347,5.209.558.558,0,0,1-.232.706l-3.979,2.3A.556.556,0,0,1,125.917,93.8Zm2.486-9.2a4.376,4.376,0,0,0-2.472,7.989l3.275-1.891a5.49,5.49,0,0,1,1.295-5.562A4.324,4.324,0,0,0,128.4,84.6Z" transform="translate(-95.501 -64.866)"/>
      <path id="Path_906745" data-name="Path 906745" d="M150.875,91.5a.564.564,0,0,1-.174-.028.557.557,0,0,1-.337-.307,5.492,5.492,0,0,1,5.038-7.681,5.522,5.522,0,0,1,4.411,2.223.557.557,0,0,1-.169.815l-8.491,4.9A.559.559,0,0,1,150.875,91.5Zm4.527-6.9a4.38,4.38,0,0,0-4.226,5.525l7.329-4.231A4.4,4.4,0,0,0,155.4,84.6Z" transform="translate(-116.48 -64.867)"/>
      <path id="Path_906746" data-name="Path 906746" d="M108.24,99.345a3.531,3.531,0,1,1,2.045-6.405.557.557,0,0,1,.161.728,4.362,4.362,0,0,0,0,4.292.558.558,0,0,1-.162.728A3.5,3.5,0,0,1,108.24,99.345Zm0-5.947a2.416,2.416,0,0,0,0,4.832,2.387,2.387,0,0,0,.99-.214,5.476,5.476,0,0,1,0-4.4A2.38,2.38,0,0,0,108.24,93.4Z" transform="translate(-81.359 -71.704)"/>
      <path id="Path_906747" data-name="Path 906747" d="M135.006,99.333l-.044,0a3.53,3.53,0,0,1,.278-7.049,3.5,3.5,0,0,1,2.045.657.557.557,0,0,1,.161.728,4.352,4.352,0,0,0-.2,3.886.558.558,0,0,1-.232.706l-1.73,1A.558.558,0,0,1,135.006,99.333Zm.234-5.936a2.415,2.415,0,0,0-.354,4.8l1.16-.669a5.419,5.419,0,0,1-.278-1.718,5.491,5.491,0,0,1,.462-2.2,2.383,2.383,0,0,0-.99-.214Z" transform="translate(-102.338 -71.704)"/>
      <path id="Path_906748" data-name="Path 906748" d="M159.433,97.343a.557.557,0,0,1-.527-.375,3.527,3.527,0,0,1,6-3.465.558.558,0,0,1-.142.848l-5.051,2.917A.557.557,0,0,1,159.433,97.343ZM162.24,93.4a2.419,2.419,0,0,0-2.416,2.416c0,.033,0,.067,0,.1l3.705-2.139A2.4,2.4,0,0,0,162.24,93.4Z" transform="translate(-123.317 -71.704)"/>
    </g>
  </g>
</svg>
