<svg xmlns="http://www.w3.org/2000/svg" xmlns:xlink="http://www.w3.org/1999/xlink" width="108.914" height="108.914" viewBox="0 0 108.914 108.914">
  <defs>
    <filter id="Trazado_874925" x="0" y="0" width="108.914" height="108.914" filterUnits="userSpaceOnUse">
      <feOffset dy="3" input="SourceAlpha"/>
      <feGaussianBlur stdDeviation="3" result="blur"/>
      <feFlood flood-opacity="0.161"/>
      <feComposite operator="in" in2="blur"/>
      <feComposite in="SourceGraphic"/>
    </filter>
  </defs>
  <g id="Grupo_1112767" data-name="Grupo 1112767" transform="translate(6416 9653)">
    <g id="Grupo_1111316" data-name="Grupo 1111316" transform="translate(-7215.5 -11599.211)">
      <g id="Grupo_1109835" data-name="Grupo 1109835">
        <g id="Grupo_1107913" data-name="Grupo 1107913" transform="translate(808.5 1952.211)">
          <g transform="matrix(1, 0, 0, 1, -9, -6)" filter="url(#Trazado_874925)">
            <g id="Trazado_874925-2" data-name="Trazado 874925" transform="translate(9 6)" fill="#fd9826" opacity="0.859">
              <path d="M 45.45676803588867 89.41407012939453 C 39.52198028564453 89.41407012939453 33.76551818847656 88.25206756591797 28.34726715087891 85.96034240722656 C 23.11311721801758 83.74648284912109 18.41204261779785 80.57682800292969 14.37464332580566 76.5394287109375 C 10.33724308013916 72.50202941894531 7.167593002319336 67.80095672607422 4.953730583190918 62.56679534912109 C 2.662005424499512 57.14855575561523 1.500005483627319 51.39208221435547 1.500005483627319 45.45729446411133 C 1.500005483627319 39.52198028564453 2.662005424499512 33.76551818847656 4.953730583190918 28.34726905822754 C 7.167593002319336 23.11310577392578 10.33724308013916 18.41203117370605 14.37464332580566 14.37464332580566 C 18.41204261779785 10.33724403381348 23.11311721801758 7.167593955993652 28.34726715087891 4.953731060028076 C 33.76551818847656 2.662006139755249 39.52198028564453 1.500006198883057 45.45676803588867 1.500006198883057 C 51.39155578613281 1.500006198883057 57.14802932739258 2.662006139755249 62.56626892089844 4.953731060028076 C 67.80043029785156 7.167593955993652 72.50150299072266 10.33724403381348 76.53890228271484 14.37464332580566 C 80.57630920410156 18.41203117370605 83.74595642089844 23.11310577392578 85.95981597900391 28.34726905822754 C 88.25154113769531 33.76551818847656 89.41354370117188 39.52198028564453 89.41354370117188 45.45676803588867 C 89.41354370117188 51.39208221435547 88.25154113769531 57.14855575561523 85.95981597900391 62.56679534912109 C 83.74595642089844 67.80095672607422 80.57630920410156 72.50202941894531 76.53890228271484 76.5394287109375 C 72.50150299072266 80.57682800292969 67.80043029785156 83.74648284912109 62.56626892089844 85.96034240722656 C 57.14802932739258 88.25206756591797 51.39155578613281 89.41407012939453 45.45676803588867 89.41407012939453 Z" stroke="none"/>
              <path d="M 45.45676803588867 3 C 39.72381210327148 3 34.1639404296875 4.12213134765625 28.93159484863281 6.335227966308594 C 23.87622833251953 8.473472595214844 19.33542633056641 11.53517150878906 15.43529510498047 15.435302734375 C 11.53517150878906 19.33543395996094 8.473464965820312 23.87622833251953 6.335227966308594 28.93160247802734 C 4.122123718261719 34.16394424438477 3 39.72381591796875 3 45.4572868347168 C 3 51.19024658203125 4.122123718261719 56.75011825561523 6.335227966308594 61.98246002197266 C 8.473464965820312 67.03782653808594 11.53517150878906 71.57862854003906 15.43529510498047 75.478759765625 C 19.33542633056641 79.37889099121094 23.87622833251953 82.44058990478516 28.93159484863281 84.57883453369141 C 34.1639404296875 86.79193115234375 39.72381210327148 87.9140625 45.45676803588867 87.9140625 C 51.18972396850586 87.9140625 56.74959564208984 86.79193115234375 61.98194122314453 84.57883453369141 C 67.03730773925781 82.44058990478516 71.57810974121094 79.37889099121094 75.47824096679688 75.478759765625 C 79.37837219238281 71.57862854003906 82.44007110595703 67.03782653808594 84.57830810546875 61.98246002197266 C 86.79141235351562 56.75011825561523 87.91353607177734 51.19024658203125 87.91353607177734 45.4567756652832 C 87.91353607177734 39.72381591796875 86.79141235351562 34.16394424438477 84.57830810546875 28.93160247802734 C 82.44007110595703 23.87622833251953 79.37837219238281 19.33543395996094 75.47824096679688 15.435302734375 C 71.57810974121094 11.53517150878906 67.03730773925781 8.473472595214844 61.98194122314453 6.335227966308594 C 56.74959564208984 4.12213134765625 51.18972396850586 3 45.45676803588867 3 M 45.45676803588867 0 C 70.56185150146484 0 90.91353607177734 20.35169219970703 90.91353607177734 45.4567756652832 L 90.91353607177734 45.4572868347168 C 90.91353607177734 70.5623779296875 70.56185150146484 90.9140625 45.45676803588867 90.9140625 C 20.3516845703125 90.9140625 0 70.5623779296875 0 45.4572868347168 L 0 45.4567756652832 C 0 20.35169219970703 20.3516845703125 0 45.45676803588867 0 Z" stroke="none" fill="#fff"/>
            </g>
          </g>
          <g id="Trazado_874923" data-name="Trazado 874923" transform="translate(0 0)" fill="none">
            <path d="M45.457,0A45.457,45.457,0,0,1,90.914,45.457h0A45.457,45.457,0,0,1,0,45.457H0A45.457,45.457,0,0,1,45.457,0Z" stroke="none"/>
            <path d="M 45.45676803588867 3 C 39.72381210327148 3 34.1639404296875 4.12213134765625 28.93159484863281 6.335227966308594 C 23.87622833251953 8.473472595214844 19.33542633056641 11.53517150878906 15.43529510498047 15.435302734375 C 11.53517150878906 19.33543395996094 8.473464965820312 23.87622833251953 6.335227966308594 28.93160247802734 C 4.122123718261719 34.16394424438477 3 39.72381591796875 3 45.4572868347168 C 3 51.19024658203125 4.122123718261719 56.75011825561523 6.335227966308594 61.98246002197266 C 8.473464965820312 67.03782653808594 11.53517150878906 71.57862854003906 15.43529510498047 75.478759765625 C 19.33542633056641 79.37889099121094 23.87622833251953 82.44058990478516 28.93159484863281 84.57883453369141 C 34.1639404296875 86.79193115234375 39.72381210327148 87.9140625 45.45676803588867 87.9140625 C 51.18972396850586 87.9140625 56.74959564208984 86.79193115234375 61.98194122314453 84.57883453369141 C 67.03730773925781 82.44058990478516 71.57810974121094 79.37889099121094 75.47824096679688 75.478759765625 C 79.37837219238281 71.57862854003906 82.44007110595703 67.03782653808594 84.57830810546875 61.98246002197266 C 86.79141235351562 56.75011825561523 87.91353607177734 51.19024658203125 87.91353607177734 45.4567756652832 C 87.91353607177734 39.72381591796875 86.79141235351562 34.16394424438477 84.57830810546875 28.93160247802734 C 82.44007110595703 23.87622833251953 79.37837219238281 19.33543395996094 75.47824096679688 15.435302734375 C 71.57810974121094 11.53517150878906 67.03730773925781 8.473472595214844 61.98194122314453 6.335227966308594 C 56.74959564208984 4.12213134765625 51.18972396850586 3 45.45676803588867 3 M 45.45676803588867 0 C 70.56185150146484 0 90.91353607177734 20.35169219970703 90.91353607177734 45.4567756652832 L 90.91353607177734 45.4572868347168 C 90.91353607177734 70.5623779296875 70.56185150146484 90.9140625 45.45676803588867 90.9140625 C 20.3516845703125 90.9140625 0 70.5623779296875 0 45.4572868347168 L 0 45.4567756652832 C 0 20.35169219970703 20.3516845703125 0 45.45676803588867 0 Z" stroke="none" fill="#fff"/>
          </g>
        </g>
      </g>
    </g>
    <g id="Grupo_1112766" data-name="Grupo 1112766" transform="translate(-6392.006 -9632)">
      <g id="Grupo_1112754" data-name="Grupo 1112754" transform="translate(0.901 0.895)">
        <path id="Trazado_903633" data-name="Trazado 903633" d="M18.971,13.4l-5.563,5.563a2.358,2.358,0,0,0,0,3.328l1.921,1.921a25.238,25.238,0,0,0-2.756,6.646H9.86a2.36,2.36,0,0,0-2.354,2.354V41.08A2.36,2.36,0,0,0,9.86,43.434h2.712a25.143,25.143,0,0,0,2.756,6.649L13.407,52a2.358,2.358,0,0,0,0,3.328l5.563,5.56a2.357,2.357,0,0,0,3.328,0l1.921-1.921a25.241,25.241,0,0,0,6.645,2.76v2.712A2.362,2.362,0,0,0,33.219,66.8h7.866a2.36,2.36,0,0,0,2.354-2.354V61.727a25.148,25.148,0,0,0,6.649-2.756l1.921,1.921a2.357,2.357,0,0,0,3.328,0l5.56-5.56A2.358,2.358,0,0,0,60.9,52l-1.921-1.921a25.148,25.148,0,0,0,2.756-6.649h2.716A2.36,2.36,0,0,0,66.8,41.08V33.213a2.36,2.36,0,0,0-2.354-2.354H61.735a25.246,25.246,0,0,0-2.76-6.646L60.9,22.293a2.358,2.358,0,0,0,0-3.328L55.336,13.4a2.357,2.357,0,0,0-3.328,0l-1.921,1.921a25.139,25.139,0,0,0-6.649-2.756V9.854A2.36,2.36,0,0,0,41.085,7.5H33.219a2.362,2.362,0,0,0-2.354,2.354v2.712a25.235,25.235,0,0,0-6.645,2.756L22.3,13.4a2.358,2.358,0,0,0-3.328,0Z" transform="translate(-7.506 -7.5)" fill="#375e7d" fill-rule="evenodd"/>
      </g>
      <g id="Grupo_1112755" data-name="Grupo 1112755" transform="translate(39.16 6.109)">
        <path id="Trazado_903634" data-name="Trazado 903634" d="M344.152,69.349a25.246,25.246,0,0,0-2.76-6.646l1.921-1.921a2.358,2.358,0,0,0,0-3.328l-5.56-5.563a2.357,2.357,0,0,0-3.328,0l-1.921,1.921a25.57,25.57,0,0,0-4.045-1.941A39.729,39.729,0,0,1,335.843,75.5a39.589,39.589,0,0,1-7.66,24,25.269,25.269,0,0,0,4.322-2.043l1.921,1.921a2.357,2.357,0,0,0,3.328,0l5.56-5.56a2.358,2.358,0,0,0,0-3.328l-1.921-1.921a25.148,25.148,0,0,0,2.756-6.649h2.716a2.36,2.36,0,0,0,2.354-2.354V71.7a2.36,2.36,0,0,0-2.354-2.354h-2.712Z" transform="translate(-328.183 -51.203)" fill="#2b4d66" fill-rule="evenodd"/>
      </g>
      <g id="Grupo_1112756" data-name="Grupo 1112756" transform="translate(27.98 20.571)">
        <path id="Trazado_903635" data-name="Trazado 903635" d="M235.283,180.422l-.812,10.714,2.567,10.126a2,2,0,0,0,.856-.314l15.577-8.036c.825-.423.893-.612.893-1.573V172.674a.47.47,0,0,0-.054-.254l-11.241,2.861Z" transform="translate(-234.471 -172.42)" fill="#f5a96c" fill-rule="evenodd"/>
      </g>
      <g id="Grupo_1112757" data-name="Grupo 1112757" transform="translate(41.426 20.571)">
        <path id="Trazado_903636" data-name="Trazado 903636" d="M348.822,174.869a39.392,39.392,0,0,1,.741,7.731,34.28,34.28,0,0,1-2.388,13.176l5.553-2.865c.825-.423.893-.612.893-1.573V172.674a.47.47,0,0,0-.054-.254l-4.535,2.34Z" transform="translate(-347.175 -172.42)" fill="#ea9a58" fill-rule="evenodd"/>
      </g>
      <g id="Grupo_1112758" data-name="Grupo 1112758" transform="translate(13.221 20.635)">
        <path id="Trazado_903637" data-name="Trazado 903637" d="M111.558,193.332l15.682,8.09a2.015,2.015,0,0,0,.856.314V181.8l-4.454-6.247-12.692-2.6a2.142,2.142,0,0,0-.179,1.174v18.134c0,.707.183.754.788,1.065Z" transform="translate(-110.77 -172.959)" fill="#fed1a3" fill-rule="evenodd"/>
      </g>
      <g id="Grupo_1112759" data-name="Grupo 1112759" transform="translate(13.4 11.672)">
        <path id="Trazado_903638" data-name="Trazado 903638" d="M113.013,106.229a1.811,1.811,0,0,0-.741.565l6.246,3.223,4.474,2.306,6.426,3.314,17.271-8.908a.385.385,0,0,0-.166-.139l-16.74-8.634c-.359-.186-.426-.159-.791.03Z" transform="translate(-112.272 -97.83)" fill="#ffe5c1" fill-rule="evenodd"/>
      </g>
      <g id="Grupo_1112760" data-name="Grupo 1112760" transform="translate(19.647 14.923)">
        <path id="Trazado_903639" data-name="Trazado 903639" d="M181.952,125.081l-17.326,8.935,4.474,2.306,17.325-8.935Z" transform="translate(-164.627 -125.081)" fill="#eff6ff" fill-rule="evenodd"/>
      </g>
      <g id="Grupo_1112761" data-name="Grupo 1112761" transform="translate(24.388 11.672)">
        <path id="Trazado_903640" data-name="Trazado 903640" d="M210.1,97.987l-5.732,2.956a20.482,20.482,0,0,1,10.565,1.18l2.019-1.042-6.06-3.125c-.358-.186-.426-.159-.791.03Z" transform="translate(-204.368 -97.83)" fill="#fed1a3" fill-rule="evenodd"/>
      </g>
      <g id="Grupo_1112762" data-name="Grupo 1112762" transform="translate(34.953 14.923)">
        <path id="Trazado_903641" data-name="Trazado 903641" d="M294.94,125.081l-2.019,1.042a18.286,18.286,0,0,1,4.3,2.4l2.195-1.133Z" transform="translate(-292.921 -125.081)" fill="#d9eeff" fill-rule="evenodd"/>
      </g>
      <g id="Grupo_1112763" data-name="Grupo 1112763" transform="translate(39.252 17.23)">
        <path id="Trazado_903642" data-name="Trazado 903642" d="M328.948,145.547a14.836,14.836,0,0,1,4.031,4.549l4.535-2.34a.385.385,0,0,0-.166-.139l-6.206-3.2Z" transform="translate(-328.948 -144.414)" fill="#fed1a3" fill-rule="evenodd"/>
      </g>
      <g id="Grupo_1112764" data-name="Grupo 1112764" transform="translate(19.647 23.858)">
        <path id="Trazado_903643" data-name="Trazado 903643" d="M164.627,199.973v6.73l4.474,2.31v-6.734Z" transform="translate(-164.627 -199.973)" fill="#d9eeff" fill-rule="evenodd"/>
      </g>
      <g id="Grupo_1112765" data-name="Grupo 1112765" transform="translate(0.006 0)">
        <path id="Trazado_903644" data-name="Trazado 903644" d="M57.842,23.359H55.815a26.119,26.119,0,0,0-2.327-5.6l1.436-1.436a3.253,3.253,0,0,0,0-4.593l-5.56-5.563a3.227,3.227,0,0,0-2.3-.949h0a3.218,3.218,0,0,0-2.292.949L43.335,7.6a26.034,26.034,0,0,0-5.606-2.324V3.249A3.252,3.252,0,0,0,34.48,0H26.613a3.252,3.252,0,0,0-3.249,3.249V5.276a26.107,26.107,0,0,0-5.6,2.323L16.326,6.164a3.226,3.226,0,0,0-2.3-.949h0a3.218,3.218,0,0,0-2.292.949L6.171,11.726a3.253,3.253,0,0,0,0,4.595l1.436,1.436a26.117,26.117,0,0,0-2.323,5.6H3.255A3.252,3.252,0,0,0,.006,26.608v7.866a3.252,3.252,0,0,0,3.249,3.249H5.281A26.036,26.036,0,0,0,7.605,43.33L6.171,44.764a3.253,3.253,0,0,0,0,4.595l5.562,5.559a3.219,3.219,0,0,0,2.294.951h0a3.227,3.227,0,0,0,2.3-.949l1.436-1.436a26.111,26.111,0,0,0,5.6,2.327v2.027a3.252,3.252,0,0,0,3.249,3.249H34.48a3.252,3.252,0,0,0,3.249-3.249v-2.03a26.034,26.034,0,0,0,5.606-2.324l1.435,1.435a3.219,3.219,0,0,0,2.294.951h0a3.227,3.227,0,0,0,2.3-.949l5.56-5.56a3.253,3.253,0,0,0,0-4.593l-1.436-1.436a26.046,26.046,0,0,0,2.324-5.606h2.03a3.252,3.252,0,0,0,3.249-3.249V26.608a3.252,3.252,0,0,0-3.249-3.249ZM59.3,34.475a1.461,1.461,0,0,1-1.459,1.459H55.126a.9.9,0,0,0-.867.674A24.259,24.259,0,0,1,51.6,43.02a.9.9,0,0,0,.137,1.09l1.922,1.922a1.463,1.463,0,0,1,0,2.061l-5.56,5.56a1.449,1.449,0,0,1-1.032.425h0a1.442,1.442,0,0,1-1.028-.425l-1.921-1.921a.9.9,0,0,0-1.09-.137,24.256,24.256,0,0,1-6.412,2.658.9.9,0,0,0-.674.867v2.716A1.461,1.461,0,0,1,34.48,59.3H26.613a1.461,1.461,0,0,1-1.459-1.459V55.125a.9.9,0,0,0-.673-.867,24.333,24.333,0,0,1-6.41-2.662.895.895,0,0,0-1.09.136L15.06,53.654a1.449,1.449,0,0,1-1.032.425h0A1.442,1.442,0,0,1,13,53.653l-5.563-5.56a1.463,1.463,0,0,1,0-2.062L9.356,44.11a.9.9,0,0,0,.137-1.09,24.254,24.254,0,0,1-2.658-6.412.9.9,0,0,0-.867-.674H3.255A1.461,1.461,0,0,1,1.8,34.475V26.608a1.461,1.461,0,0,1,1.459-1.459H5.967a.9.9,0,0,0,.867-.673,24.331,24.331,0,0,1,2.658-6.41.9.9,0,0,0-.136-1.09L7.435,15.055a1.463,1.463,0,0,1,0-2.062L13,7.428A1.44,1.44,0,0,1,14.027,7h0a1.449,1.449,0,0,1,1.032.425L16.981,9.35a.9.9,0,0,0,1.09.136,24.328,24.328,0,0,1,6.41-2.658.9.9,0,0,0,.673-.867V3.249A1.461,1.461,0,0,1,26.613,1.79H34.48a1.461,1.461,0,0,1,1.459,1.459V5.961a.9.9,0,0,0,.674.867,24.256,24.256,0,0,1,6.412,2.658.9.9,0,0,0,1.09-.137l1.922-1.922A1.44,1.44,0,0,1,47.064,7h0a1.449,1.449,0,0,1,1.032.425l5.561,5.565a1.463,1.463,0,0,1,0,2.061l-1.921,1.921a.9.9,0,0,0-.136,1.09,24.338,24.338,0,0,1,2.662,6.41.9.9,0,0,0,.867.673h2.712A1.461,1.461,0,0,1,59.3,26.608v7.866Z" transform="translate(-0.006 0)"/>
        <path id="Trazado_903645" data-name="Trazado 903645" d="M141.3,311.662l-5.174-2.672a.895.895,0,0,0-.821,1.59l5.174,2.672a.895.895,0,0,0,.821-1.59Z" transform="translate(-118.733 -272.037)"/>
        <path id="Trazado_903646" data-name="Trazado 903646" d="M139.558,99.723a1.243,1.243,0,0,0-.551-.524l-16.738-8.633a1.478,1.478,0,0,0-1.614.03l-7.721,3.984a.895.895,0,1,0,.821,1.59l7.722-3.985.013-.007,4.474,2.307-15.372,7.928-4.473-2.308,3.962-2.052a.895.895,0,1,0-.823-1.589l-4.582,2.374a2.259,2.259,0,0,0-1.4,2.533v18.134a1.727,1.727,0,0,0,1.171,1.809l15.785,8.143a3.142,3.142,0,0,0,1.146.4.811.811,0,0,0,.232,0,3.076,3.076,0,0,0,1.151-.406l15.575-8.034a2.136,2.136,0,0,0,1.38-2.369v-5.523a.895.895,0,1,0-1.79,0v5.523a3.715,3.715,0,0,1-.028.553,2.159,2.159,0,0,1-.381.225l-15.127,7.8V109.587l15.536-8.013V109.4a.895.895,0,1,0,1.79,0v-9.013A1.441,1.441,0,0,0,139.558,99.723Zm-18.067,8.312-4.474-2.307L132.389,97.8l4.473,2.307Zm-10.005-3.146,2.685,1.384v4.719l-2.685-1.386Zm18.951-8.1-15.371,7.927-2.522-1.3,15.372-7.928Zm-25.074,22.982-.109-.055c-.063-.032-.135-.069-.191-.1,0-.029,0-.067,0-.115V101.574l4.636,2.392v6.185a.9.9,0,0,0,.484.8l4.474,2.31a.895.895,0,0,0,1.305-.8V107.2l4.636,2.391v18.046Z" transform="translate(-90.951 -79.562)"/>
      </g>
    </g>
  </g>
</svg>
