<svg xmlns="http://www.w3.org/2000/svg" xmlns:xlink="http://www.w3.org/1999/xlink" width="108.914" height="108.914" viewBox="0 0 108.914 108.914">
  <defs>
    <filter id="Trazado_874925" x="0" y="0" width="108.914" height="108.914" filterUnits="userSpaceOnUse">
      <feOffset dy="3" input="SourceAlpha"/>
      <feGaussianBlur stdDeviation="3" result="blur"/>
      <feFlood flood-opacity="0.161"/>
      <feComposite operator="in" in2="blur"/>
      <feComposite in="SourceGraphic"/>
    </filter>
  </defs>
  <g id="Grupo_1113602" data-name="Grupo 1113602" transform="translate(-799.565 -1957)">
    <g id="Grupo_1111316" data-name="Grupo 1111316" transform="translate(0.064 10.789)">
      <g id="Grupo_1109835" data-name="Grupo 1109835">
        <g id="Grupo_1107913" data-name="Grupo 1107913" transform="translate(808.5 1952.211)">
          <g transform="matrix(1, 0, 0, 1, -9, -6)" filter="url(#Trazado_874925)">
            <g id="Trazado_874925-2" data-name="Trazado 874925" transform="translate(9 6)" fill="#fd9826" opacity="0.859">
              <path d="M 45.45676803588867 89.41407012939453 C 39.52198028564453 89.41407012939453 33.76551818847656 88.25206756591797 28.34726715087891 85.96034240722656 C 23.11311721801758 83.74648284912109 18.41204261779785 80.57682800292969 14.37464332580566 76.5394287109375 C 10.33724308013916 72.50202941894531 7.167593002319336 67.80095672607422 4.953730583190918 62.56679534912109 C 2.662005424499512 57.14855575561523 1.500005483627319 51.39208221435547 1.500005483627319 45.45729446411133 C 1.500005483627319 39.52198028564453 2.662005424499512 33.76551818847656 4.953730583190918 28.34726905822754 C 7.167593002319336 23.11310577392578 10.33724308013916 18.41203117370605 14.37464332580566 14.37464332580566 C 18.41204261779785 10.33724403381348 23.11311721801758 7.167593955993652 28.34726715087891 4.953731060028076 C 33.76551818847656 2.662006139755249 39.52198028564453 1.500006198883057 45.45676803588867 1.500006198883057 C 51.39155578613281 1.500006198883057 57.14802932739258 2.662006139755249 62.56626892089844 4.953731060028076 C 67.80043029785156 7.167593955993652 72.50150299072266 10.33724403381348 76.53890228271484 14.37464332580566 C 80.57630920410156 18.41203117370605 83.74595642089844 23.11310577392578 85.95981597900391 28.34726905822754 C 88.25154113769531 33.76551818847656 89.41354370117188 39.52198028564453 89.41354370117188 45.45676803588867 C 89.41354370117188 51.39208221435547 88.25154113769531 57.14855575561523 85.95981597900391 62.56679534912109 C 83.74595642089844 67.80095672607422 80.57630920410156 72.50202941894531 76.53890228271484 76.5394287109375 C 72.50150299072266 80.57682800292969 67.80043029785156 83.74648284912109 62.56626892089844 85.96034240722656 C 57.14802932739258 88.25206756591797 51.39155578613281 89.41407012939453 45.45676803588867 89.41407012939453 Z" stroke="none"/>
              <path d="M 45.45676803588867 3 C 39.72381210327148 3 34.1639404296875 4.12213134765625 28.93159484863281 6.335227966308594 C 23.87622833251953 8.473472595214844 19.33542633056641 11.53517150878906 15.43529510498047 15.435302734375 C 11.53517150878906 19.33543395996094 8.473464965820312 23.87622833251953 6.335227966308594 28.93160247802734 C 4.122123718261719 34.16394424438477 3 39.72381591796875 3 45.4572868347168 C 3 51.19024658203125 4.122123718261719 56.75011825561523 6.335227966308594 61.98246002197266 C 8.473464965820312 67.03782653808594 11.53517150878906 71.57862854003906 15.43529510498047 75.478759765625 C 19.33542633056641 79.37889099121094 23.87622833251953 82.44058990478516 28.93159484863281 84.57883453369141 C 34.1639404296875 86.79193115234375 39.72381210327148 87.9140625 45.45676803588867 87.9140625 C 51.18972396850586 87.9140625 56.74959564208984 86.79193115234375 61.98194122314453 84.57883453369141 C 67.03730773925781 82.44058990478516 71.57810974121094 79.37889099121094 75.47824096679688 75.478759765625 C 79.37837219238281 71.57862854003906 82.44007110595703 67.03782653808594 84.57830810546875 61.98246002197266 C 86.79141235351562 56.75011825561523 87.91353607177734 51.19024658203125 87.91353607177734 45.4567756652832 C 87.91353607177734 39.72381591796875 86.79141235351562 34.16394424438477 84.57830810546875 28.93160247802734 C 82.44007110595703 23.87622833251953 79.37837219238281 19.33543395996094 75.47824096679688 15.435302734375 C 71.57810974121094 11.53517150878906 67.03730773925781 8.473472595214844 61.98194122314453 6.335227966308594 C 56.74959564208984 4.12213134765625 51.18972396850586 3 45.45676803588867 3 M 45.45676803588867 0 C 70.56185150146484 0 90.91353607177734 20.35169219970703 90.91353607177734 45.4567756652832 L 90.91353607177734 45.4572868347168 C 90.91353607177734 70.5623779296875 70.56185150146484 90.9140625 45.45676803588867 90.9140625 C 20.3516845703125 90.9140625 0 70.5623779296875 0 45.4572868347168 L 0 45.4567756652832 C 0 20.35169219970703 20.3516845703125 0 45.45676803588867 0 Z" stroke="none" fill="#fff"/>
            </g>
          </g>
          <g id="Trazado_874923" data-name="Trazado 874923" transform="translate(0 0)" fill="none">
            <path d="M45.457,0A45.457,45.457,0,0,1,90.914,45.457h0A45.457,45.457,0,0,1,0,45.457H0A45.457,45.457,0,0,1,45.457,0Z" stroke="none"/>
            <path d="M 45.45676803588867 3 C 39.72381210327148 3 34.1639404296875 4.12213134765625 28.93159484863281 6.335227966308594 C 23.87622833251953 8.473472595214844 19.33542633056641 11.53517150878906 15.43529510498047 15.435302734375 C 11.53517150878906 19.33543395996094 8.473464965820312 23.87622833251953 6.335227966308594 28.93160247802734 C 4.122123718261719 34.16394424438477 3 39.72381591796875 3 45.4572868347168 C 3 51.19024658203125 4.122123718261719 56.75011825561523 6.335227966308594 61.98246002197266 C 8.473464965820312 67.03782653808594 11.53517150878906 71.57862854003906 15.43529510498047 75.478759765625 C 19.33542633056641 79.37889099121094 23.87622833251953 82.44058990478516 28.93159484863281 84.57883453369141 C 34.1639404296875 86.79193115234375 39.72381210327148 87.9140625 45.45676803588867 87.9140625 C 51.18972396850586 87.9140625 56.74959564208984 86.79193115234375 61.98194122314453 84.57883453369141 C 67.03730773925781 82.44058990478516 71.57810974121094 79.37889099121094 75.47824096679688 75.478759765625 C 79.37837219238281 71.57862854003906 82.44007110595703 67.03782653808594 84.57830810546875 61.98246002197266 C 86.79141235351562 56.75011825561523 87.91353607177734 51.19024658203125 87.91353607177734 45.4567756652832 C 87.91353607177734 39.72381591796875 86.79141235351562 34.16394424438477 84.57830810546875 28.93160247802734 C 82.44007110595703 23.87622833251953 79.37837219238281 19.33543395996094 75.47824096679688 15.435302734375 C 71.57810974121094 11.53517150878906 67.03730773925781 8.473472595214844 61.98194122314453 6.335227966308594 C 56.74959564208984 4.12213134765625 51.18972396850586 3 45.45676803588867 3 M 45.45676803588867 0 C 70.56185150146484 0 90.91353607177734 20.35169219970703 90.91353607177734 45.4567756652832 L 90.91353607177734 45.4572868347168 C 90.91353607177734 70.5623779296875 70.56185150146484 90.9140625 45.45676803588867 90.9140625 C 20.3516845703125 90.9140625 0 70.5623779296875 0 45.4572868347168 L 0 45.4567756652832 C 0 20.35169219970703 20.3516845703125 0 45.45676803588867 0 Z" stroke="none" fill="#fff"/>
          </g>
        </g>
      </g>
    </g>
    <g id="Filled_outline" data-name="Filled outline" transform="translate(810.565 1962.001)">
      <path id="Trazado_903608" data-name="Trazado 903608" d="M153.761,189.789a2.979,2.979,0,0,1-2.979,2.979h-27.8A2.979,2.979,0,0,1,120.6,188l2.383-3.177V172.112c0-.1,0-.192,0-.289A12.353,12.353,0,0,1,132.908,160h7.944a12.326,12.326,0,0,1,7.129,4.281c.19.232.372.472.545.717a12.314,12.314,0,0,1,2.255,7.113v12.712L153.165,188A2.975,2.975,0,0,1,153.761,189.789Z" transform="translate(-91.092 -126.127)" fill="#7eb457"/>
      <path id="Trazado_903609" data-name="Trazado 903609" d="M155.753,161.885l1.3,4.072-4.174.914-.914,4.174-4.072-1.3-2.878,3.159-.99-1.086A12.353,12.353,0,0,1,153.947,160h3.875Z" transform="translate(-112.131 -126.127)" fill="#79ad54"/>
      <path id="Trazado_903610" data-name="Trazado 903610" d="M153.761,225.061a2.979,2.979,0,0,1-2.979,2.979h-27.8a2.979,2.979,0,0,1-2.383-4.766l2.383-3.177v-.173a58.545,58.545,0,0,0,25.548-19.653,12.314,12.314,0,0,1,2.255,7.113V220.1l2.383,3.177A2.975,2.975,0,0,1,153.761,225.061Z" transform="translate(-91.092 -161.399)" fill="#79ad54"/>
      <path id="Trazado_903611" data-name="Trazado 903611" d="M209.986,110.951,208,104h11.916l-1.986,6.951Z" transform="translate(-168.169 -77.078)" fill="#74a650"/>
      <path id="Trazado_903612" data-name="Trazado 903612" d="M368,376h10.923v13.9H368Z" transform="translate(-308.31 -315.317)" fill="#348fd9"/>
      <path id="Trazado_903613" data-name="Trazado 903613" d="M37.9,24l2.878,3.159,4.072-1.3.913,4.175,4.175.913-1.3,4.072L51.8,37.9,48.644,40.78l1.3,4.072-4.175.913-.913,4.175-4.072-1.3L37.9,51.8l-2.878-3.159-4.072,1.3-.913-4.175-4.175-.913,1.3-4.072L24,37.9l3.159-2.878-1.3-4.072,4.175-.913.913-4.175,4.072,1.3Z" transform="translate(-7.008 -7.008)" fill="#ffb531"/>
      <path id="Trazado_903614" data-name="Trazado 903614" d="M87.719,361.986v13.9H66.7a11.907,11.907,0,0,1-5.329-1.259l-11.577-5.787a3.248,3.248,0,0,1-1.794-2.9v-.216a3.245,3.245,0,0,1,4.6-2.95l11.291,5.172h1.986a2.979,2.979,0,0,1,0-5.958h7.612l.093-.056a13.551,13.551,0,0,1,13.029-.5l.248.124Z" transform="translate(-28.029 -301.303)" fill="#fec9a3"/>
      <path id="Trazado_903615" data-name="Trazado 903615" d="M195.729,372.952v13.9H174.71a11.914,11.914,0,0,1-3.394-.494c11.5-3.478,17.462-7.45,23.55-13.84Z" transform="translate(-136.039 -312.269)" fill="#fec093"/>
      <rect id="Rectángulo_405620" data-name="Rectángulo 405620" width="9.59" height="1.918" rx="0.959" transform="translate(37.099 65.986)" fill="#feb784"/>
      <path id="Trazado_903616" data-name="Trazado 903616" d="M368,448h10.923v4.965H368Z" transform="translate(-308.31 -378.38)" fill="#3086cd"/>
      <path id="Trazado_903617" data-name="Trazado 903617" d="M216.468,208v1.986h-.993a3.475,3.475,0,0,0,0,6.951h3.972a1.489,1.489,0,0,1,0,2.979h-6.454V221.9h3.475v1.986h1.986V221.9h.993a3.475,3.475,0,0,0,0-6.951h-3.972a1.489,1.489,0,1,1,0-2.979h6.454v-1.986h-3.475V208Z" transform="translate(-171.673 -168.169)"/>
      <path id="Trazado_903618" data-name="Trazado 903618" d="M91.623,129.761H82.686l-.993-1.324V116.055a13.341,13.341,0,0,0-9.685-12.831l1.7-5.958A.993.993,0,0,0,72.757,96H66.8v1.986h4.642l-1.419,4.965H66.8v1.986H70.67a11.36,11.36,0,0,1,9.037,11.119v12.712a.991.991,0,0,0,.1.434,14.54,14.54,0,0,0-13.615.559H58.855a3.977,3.977,0,0,0-3.835,5.012l-3.953-1.811a1.986,1.986,0,0,1,.242-.421l2.383-3.177a.993.993,0,0,0,.2-.6V117.845H51.9v10.592L49.72,131.35a3.972,3.972,0,0,0-.457.785l-3.271-1.5a4.236,4.236,0,0,0-5.494,1.841,4.6,4.6,0,0,0-.509,2.228,4.217,4.217,0,0,0,2.342,3.791l11.578,5.789a12.979,12.979,0,0,0,5.772,1.362H91.623a.993.993,0,0,0,.993-.993v-13.9a.993.993,0,0,0-.993-.993Zm-11.916,13.9H59.682A10.985,10.985,0,0,1,54.8,142.51L43.22,136.721a2.242,2.242,0,0,1-1.245-2.015,2.739,2.739,0,0,1,.271-1.286,2.245,2.245,0,0,1,2.918-.978l11.291,5.172a.993.993,0,0,0,.413.091H67.792v-1.986H58.855a1.986,1.986,0,0,1,0-3.972h7.612a.993.993,0,0,0,.511-.142l.093-.056a12.558,12.558,0,0,1,12.073-.464l.562.282Zm10.923,0H81.693V131.747H90.63Z" transform="translate(-21.01 -70.071)"/>
      <circle id="Elipse_12906" data-name="Elipse 12906" cx="1.918" cy="1.918" r="1.918" transform="translate(62.993 67.904)"/>
      <path id="Trazado_903619" data-name="Trazado 903619" d="M22.973,43.145a.993.993,0,0,0,1.271.734l3.466-1.1,2.45,2.689a.993.993,0,0,0,1.468,0l2.45-2.689,3.466,1.1a.993.993,0,0,0,1.271-.734l.777-3.553,3.553-.777a.993.993,0,0,0,.734-1.271l-1.1-3.466,2.689-2.45a.993.993,0,0,0,0-1.468L42.776,27.71l1.1-3.466a.993.993,0,0,0-.735-1.271L39.591,22.2l-.777-3.553a.993.993,0,0,0-1.271-.734l-3.466,1.1-2.45-2.689a.993.993,0,0,0-1.468,0l-2.45,2.689-3.466-1.1a.993.993,0,0,0-1.271.735L22.2,22.2l-3.553.777a.993.993,0,0,0-.734,1.271l1.1,3.466-2.689,2.45a.993.993,0,0,0,0,1.468l2.689,2.45-1.1,3.466a.993.993,0,0,0,.735,1.271l3.553.777ZM20.82,33.038l-2.354-2.144L20.82,28.75a.993.993,0,0,0,.277-1.035l-.966-3.034L23.242,24A.993.993,0,0,0,24,23.242l.68-3.11,3.034.966a.994.994,0,0,0,1.035-.277l2.144-2.354,2.144,2.354a.993.993,0,0,0,1.035.277l3.034-.966.68,3.11a.993.993,0,0,0,.758.758l3.111.68-.966,3.034a.993.993,0,0,0,.277,1.035l2.354,2.144-2.354,2.144a.993.993,0,0,0-.277,1.035l.966,3.034-3.111.68a.993.993,0,0,0-.758.758l-.68,3.11-3.034-.966a.993.993,0,0,0-1.035.277l-2.144,2.354L28.75,40.967a.993.993,0,0,0-1.035-.277l-3.034.966L24,38.546a.993.993,0,0,0-.758-.758l-3.111-.68.966-3.034a.993.993,0,0,0-.277-1.035Z"/>
      <path id="Trazado_903620" data-name="Trazado 903620" d="M0,0H14.043V1.986H0Z" transform="translate(25.224 35.156) rotate(-45)"/>
      <path id="Trazado_903621" data-name="Trazado 903621" d="M82.979,85.958A2.979,2.979,0,1,0,80,82.979,2.979,2.979,0,0,0,82.979,85.958Zm0-3.972a.993.993,0,1,1-.993.993A.993.993,0,0,1,82.979,81.986Z" transform="translate(-56.057 -56.057)"/>
      <path id="Trazado_903622" data-name="Trazado 903622" d="M152,138.979A2.979,2.979,0,1,0,154.979,136,2.979,2.979,0,0,0,152,138.979Zm3.972,0a.993.993,0,1,1-.993-.993A.993.993,0,0,1,155.972,138.979Z" transform="translate(-119.12 -105.106)"/>
    </g>
  </g>
</svg>
