<svg xmlns="http://www.w3.org/2000/svg" xmlns:xlink="http://www.w3.org/1999/xlink" width="108.914" height="108.914" viewBox="0 0 108.914 108.914">
  <defs>
    <filter id="Trazado_874925" x="0" y="0" width="108.914" height="108.914" filterUnits="userSpaceOnUse">
      <feOffset dy="3" input="SourceAlpha"/>
      <feGaussianBlur stdDeviation="3" result="blur"/>
      <feFlood flood-opacity="0.161"/>
      <feComposite operator="in" in2="blur"/>
      <feComposite in="SourceGraphic"/>
    </filter>
  </defs>
  <g id="Grupo_1113603" data-name="Grupo 1113603" transform="translate(-1114.565 -1957)">
    <g id="Grupo_1111317" data-name="Grupo 1111317" transform="translate(315.064 10.789)">
      <g id="Grupo_1109835" data-name="Grupo 1109835">
        <g id="Grupo_1107913" data-name="Grupo 1107913" transform="translate(808.5 1952.211)">
          <g transform="matrix(1, 0, 0, 1, -9, -6)" filter="url(#Trazado_874925)">
            <g id="Trazado_874925-2" data-name="Trazado 874925" transform="translate(9 6)" fill="#fd9826" opacity="0.859">
              <path d="M 45.45676803588867 89.41407012939453 C 39.52198028564453 89.41407012939453 33.76551818847656 88.25206756591797 28.34726715087891 85.96034240722656 C 23.11311721801758 83.74648284912109 18.41204261779785 80.57682800292969 14.37464332580566 76.5394287109375 C 10.33724308013916 72.50202941894531 7.167593002319336 67.80095672607422 4.953730583190918 62.56679534912109 C 2.662005424499512 57.14855575561523 1.500005483627319 51.39208221435547 1.500005483627319 45.45729446411133 C 1.500005483627319 39.52198028564453 2.662005424499512 33.76551818847656 4.953730583190918 28.34726905822754 C 7.167593002319336 23.11310577392578 10.33724308013916 18.41203117370605 14.37464332580566 14.37464332580566 C 18.41204261779785 10.33724403381348 23.11311721801758 7.167593955993652 28.34726715087891 4.953731060028076 C 33.76551818847656 2.662006139755249 39.52198028564453 1.500006198883057 45.45676803588867 1.500006198883057 C 51.39155578613281 1.500006198883057 57.14802932739258 2.662006139755249 62.56626892089844 4.953731060028076 C 67.80043029785156 7.167593955993652 72.50150299072266 10.33724403381348 76.53890228271484 14.37464332580566 C 80.57630920410156 18.41203117370605 83.74595642089844 23.11310577392578 85.95981597900391 28.34726905822754 C 88.25154113769531 33.76551818847656 89.41354370117188 39.52198028564453 89.41354370117188 45.45676803588867 C 89.41354370117188 51.39208221435547 88.25154113769531 57.14855575561523 85.95981597900391 62.56679534912109 C 83.74595642089844 67.80095672607422 80.57630920410156 72.50202941894531 76.53890228271484 76.5394287109375 C 72.50150299072266 80.57682800292969 67.80043029785156 83.74648284912109 62.56626892089844 85.96034240722656 C 57.14802932739258 88.25206756591797 51.39155578613281 89.41407012939453 45.45676803588867 89.41407012939453 Z" stroke="none"/>
              <path d="M 45.45676803588867 3 C 39.72381210327148 3 34.1639404296875 4.12213134765625 28.93159484863281 6.335227966308594 C 23.87622833251953 8.473472595214844 19.33542633056641 11.53517150878906 15.43529510498047 15.435302734375 C 11.53517150878906 19.33543395996094 8.473464965820312 23.87622833251953 6.335227966308594 28.93160247802734 C 4.122123718261719 34.16394424438477 3 39.72381591796875 3 45.4572868347168 C 3 51.19024658203125 4.122123718261719 56.75011825561523 6.335227966308594 61.98246002197266 C 8.473464965820312 67.03782653808594 11.53517150878906 71.57862854003906 15.43529510498047 75.478759765625 C 19.33542633056641 79.37889099121094 23.87622833251953 82.44058990478516 28.93159484863281 84.57883453369141 C 34.1639404296875 86.79193115234375 39.72381210327148 87.9140625 45.45676803588867 87.9140625 C 51.18972396850586 87.9140625 56.74959564208984 86.79193115234375 61.98194122314453 84.57883453369141 C 67.03730773925781 82.44058990478516 71.57810974121094 79.37889099121094 75.47824096679688 75.478759765625 C 79.37837219238281 71.57862854003906 82.44007110595703 67.03782653808594 84.57830810546875 61.98246002197266 C 86.79141235351562 56.75011825561523 87.91353607177734 51.19024658203125 87.91353607177734 45.4567756652832 C 87.91353607177734 39.72381591796875 86.79141235351562 34.16394424438477 84.57830810546875 28.93160247802734 C 82.44007110595703 23.87622833251953 79.37837219238281 19.33543395996094 75.47824096679688 15.435302734375 C 71.57810974121094 11.53517150878906 67.03730773925781 8.473472595214844 61.98194122314453 6.335227966308594 C 56.74959564208984 4.12213134765625 51.18972396850586 3 45.45676803588867 3 M 45.45676803588867 0 C 70.56185150146484 0 90.91353607177734 20.35169219970703 90.91353607177734 45.4567756652832 L 90.91353607177734 45.4572868347168 C 90.91353607177734 70.5623779296875 70.56185150146484 90.9140625 45.45676803588867 90.9140625 C 20.3516845703125 90.9140625 0 70.5623779296875 0 45.4572868347168 L 0 45.4567756652832 C 0 20.35169219970703 20.3516845703125 0 45.45676803588867 0 Z" stroke="none" fill="#fff"/>
            </g>
          </g>
          <g id="Trazado_874923" data-name="Trazado 874923" transform="translate(0 0)" fill="none">
            <path d="M45.457,0A45.457,45.457,0,0,1,90.914,45.457h0A45.457,45.457,0,0,1,0,45.457H0A45.457,45.457,0,0,1,45.457,0Z" stroke="none"/>
            <path d="M 45.45676803588867 3 C 39.72381210327148 3 34.1639404296875 4.12213134765625 28.93159484863281 6.335227966308594 C 23.87622833251953 8.473472595214844 19.33542633056641 11.53517150878906 15.43529510498047 15.435302734375 C 11.53517150878906 19.33543395996094 8.473464965820312 23.87622833251953 6.335227966308594 28.93160247802734 C 4.122123718261719 34.16394424438477 3 39.72381591796875 3 45.4572868347168 C 3 51.19024658203125 4.122123718261719 56.75011825561523 6.335227966308594 61.98246002197266 C 8.473464965820312 67.03782653808594 11.53517150878906 71.57862854003906 15.43529510498047 75.478759765625 C 19.33542633056641 79.37889099121094 23.87622833251953 82.44058990478516 28.93159484863281 84.57883453369141 C 34.1639404296875 86.79193115234375 39.72381210327148 87.9140625 45.45676803588867 87.9140625 C 51.18972396850586 87.9140625 56.74959564208984 86.79193115234375 61.98194122314453 84.57883453369141 C 67.03730773925781 82.44058990478516 71.57810974121094 79.37889099121094 75.47824096679688 75.478759765625 C 79.37837219238281 71.57862854003906 82.44007110595703 67.03782653808594 84.57830810546875 61.98246002197266 C 86.79141235351562 56.75011825561523 87.91353607177734 51.19024658203125 87.91353607177734 45.4567756652832 C 87.91353607177734 39.72381591796875 86.79141235351562 34.16394424438477 84.57830810546875 28.93160247802734 C 82.44007110595703 23.87622833251953 79.37837219238281 19.33543395996094 75.47824096679688 15.435302734375 C 71.57810974121094 11.53517150878906 67.03730773925781 8.473472595214844 61.98194122314453 6.335227966308594 C 56.74959564208984 4.12213134765625 51.18972396850586 3 45.45676803588867 3 M 45.45676803588867 0 C 70.56185150146484 0 90.91353607177734 20.35169219970703 90.91353607177734 45.4567756652832 L 90.91353607177734 45.4572868347168 C 90.91353607177734 70.5623779296875 70.56185150146484 90.9140625 45.45676803588867 90.9140625 C 20.3516845703125 90.9140625 0 70.5623779296875 0 45.4572868347168 L 0 45.4567756652832 C 0 20.35169219970703 20.3516845703125 0 45.45676803588867 0 Z" stroke="none" fill="#fff"/>
          </g>
        </g>
      </g>
    </g>
    <g id="Grupo_1112752" data-name="Grupo 1112752" transform="translate(1142.564 1981.995)">
      <path id="Trazado_903623" data-name="Trazado 903623" d="M269.806,8.538l-5.277,7.036,5.277,7.036h19.348V8.538Zm.879,8.795a1.759,1.759,0,1,1,1.759-1.759A1.758,1.758,0,0,1,270.685,17.333Z" transform="translate(-237.265 -7.654)" fill="#4398d1"/>
      <path id="Trazado_903624" data-name="Trazado 903624" d="M366.909,39.274l-15.691,10.9h15.691Z" transform="translate(-315.02 -35.222)" fill="#3f8fc4"/>
      <rect id="Rectángulo_405621" data-name="Rectángulo 405621" width="24.625" height="21.987" transform="translate(14.072 21.992)" fill="#f9b44d"/>
      <rect id="Rectángulo_405622" data-name="Rectángulo 405622" width="5.277" height="5.277" transform="translate(23.746 21.992)" fill="#f77219"/>
      <path id="Trazado_903625" data-name="Trazado 903625" d="M411.547,36.776h3.31V35.017H413.1v-.879H411.34v.9a1.959,1.959,0,0,0-.672,3.7l2.315,1.157a.208.208,0,0,1-.088.394h-3.314v1.759h1.759v.879H413.1v-.9a1.959,1.959,0,0,0,.672-3.7l-2.315-1.157a.208.208,0,0,1,.088-.394h0Z" transform="translate(-367.366 -30.615)" fill="#87ced9"/>
      <path id="Trazado_903626" data-name="Trazado 903626" d="M195.729,88.5h-3.958V86.74h3.958a3.078,3.078,0,1,0,0-6.156H176.82a6.156,6.156,0,0,1,0-12.313h7.915V70.03H176.82a4.4,4.4,0,1,0,0,8.795h18.909a4.837,4.837,0,1,1,0,9.674Z" transform="translate(-153.074 -61.23)" fill="#4398d1"/>
      <path id="Trazado_903627" data-name="Trazado 903627" d="M136.531,261.67v.44h24.625V243.2Z" transform="translate(-122.459 -218.131)" fill="#f7aa36"/>
      <path id="Trazado_903628" data-name="Trazado 903628" d="M133.8,350.325h-1.759a3.078,3.078,0,0,0,3.078-3.078h0a3.078,3.078,0,0,0-3.078-3.078h-8.795a12.407,12.407,0,0,0-12.313,0h0V359.12H133.8l15.954-9.572a3.368,3.368,0,0,0,1.636-2.889h0a3.37,3.37,0,0,0-3.369-3.369h-.186a3.371,3.371,0,0,0-1.583.4Z" transform="translate(-99.498 -307.226)" fill="#fec9a3"/>
      <rect id="Rectángulo_405623" data-name="Rectángulo 405623" width="11.433" height="14.951" transform="translate(0 36.943)" fill="#4398d1"/>
      <path id="Trazado_903629" data-name="Trazado 903629" d="M240.95,411.357h-9.674a.879.879,0,0,1,0-1.759h9.674a.879.879,0,0,1,0,1.759Z" transform="translate(-206.65 -367.378)" fill="#f5b789"/>
      <rect id="Rectángulo_405624" data-name="Rectángulo 405624" width="11.433" height="8.795" transform="translate(0 43.099)" fill="#3f8fc4"/>
      <circle id="Elipse_12907" data-name="Elipse 12907" cx="1.759" cy="1.759" r="1.759" transform="translate(4.397 44.858)" fill="#18588c"/>
      <path id="Trazado_903630" data-name="Trazado 903630" d="M39.409,429.3a2.638,2.638,0,1,0-2.638,2.638,2.638,2.638,0,0,0,2.638-2.638Zm-3.518,0a.879.879,0,1,1,.879.879A.88.88,0,0,1,35.891,429.3Z" transform="translate(-30.614 -382.685)"/>
      <path id="Trazado_903631" data-name="Trazado 903631" d="M51.889,0H32.541a.879.879,0,0,0-.7.352L26.824,7.041H23.746a6.156,6.156,0,1,0,0,12.313H42.655a3.078,3.078,0,1,1,0,6.156H39.576V21.992a.88.88,0,0,0-.879-.879H14.072a.88.88,0,0,0-.879.879V35.184a13.108,13.108,0,0,0-1.976.879H0v1.759H10.554V51.015H0v1.759H33.325a4.4,4.4,0,0,0,2.263-.627l15.117-9.07a4.249,4.249,0,0,0-2.185-7.892h-.186a4.26,4.26,0,0,0-2,.5l-6.759,3.605V27.269h3.078a4.837,4.837,0,0,0,0-9.674H23.746a4.4,4.4,0,1,1,0-8.795h3.078l5.013,6.684a.879.879,0,0,0,.7.352H51.889a.88.88,0,0,0,.879-.879V.884A.88.88,0,0,0,51.889,0ZM24.625,22.871h3.518v3.518H24.625Zm-9.674,0h7.915v4.4a.88.88,0,0,0,.879.879h5.277a.88.88,0,0,0,.879-.879v-4.4h7.915V40.226l-1.441.768a3.958,3.958,0,0,0-3.836-4.93H23.975A13.346,13.346,0,0,0,14.951,34.7V22.871ZM47.163,37.236a2.5,2.5,0,0,1,1.171-.293h.186a2.49,2.49,0,0,1,1.28,4.625l-15.117,9.07a2.637,2.637,0,0,1-1.358.376H12.313V37.471a11.582,11.582,0,0,1,10.993.24.875.875,0,0,0,.44.112h8.795a2.2,2.2,0,1,1,0,4.4H24.625a.879.879,0,1,0,0,1.759H34.3a.884.884,0,0,0,.414-.1ZM51.01,14.077H32.98L29.023,8.8h1.921a2.638,2.638,0,1,0,0-1.759H29.023L32.98,1.764H51.01ZM32.541,7.92a.879.879,0,1,1,.879.879A.88.88,0,0,1,32.541,7.92Z"/>
      <path id="Trazado_903632" data-name="Trazado 903632" d="M411.34,42.933H413.1v-.9a1.959,1.959,0,0,0,.672-3.7l-2.315-1.157a.208.208,0,0,1,.088-.394h3.314V35.017H413.1v-.879H411.34v.9a1.959,1.959,0,0,0-.672,3.7l2.315,1.157a.208.208,0,0,1-.088.394h-3.314v1.759h1.759Z" transform="translate(-367.366 -30.615)"/>
    </g>
  </g>
</svg>
