<svg xmlns="http://www.w3.org/2000/svg" xmlns:xlink="http://www.w3.org/1999/xlink" width="108.914" height="108.914" viewBox="0 0 108.914 108.914">
  <defs>
    <filter id="Trazado_874925" x="0" y="0" width="108.914" height="108.914" filterUnits="userSpaceOnUse">
      <feOffset dy="3" input="SourceAlpha"/>
      <feGaussianBlur stdDeviation="3" result="blur"/>
      <feFlood flood-opacity="0.161"/>
      <feComposite operator="in" in2="blur"/>
      <feComposite in="SourceGraphic"/>
    </filter>
  </defs>
  <g id="Grupo_1112819" data-name="Grupo 1112819" transform="translate(5165 9653)">
    <g id="Grupo_1111317" data-name="Grupo 1111317" transform="translate(-5964.5 -11599.211)">
      <g id="Grupo_1109835" data-name="Grupo 1109835">
        <g id="Grupo_1107913" data-name="Grupo 1107913" transform="translate(808.5 1952.211)">
          <g transform="matrix(1, 0, 0, 1, -9, -6)" filter="url(#Trazado_874925)">
            <g id="Trazado_874925-2" data-name="Trazado 874925" transform="translate(9 6)" fill="#fd9826" opacity="0.859">
              <path d="M 45.45676803588867 89.41407012939453 C 39.52198028564453 89.41407012939453 33.76551818847656 88.25206756591797 28.34726715087891 85.96034240722656 C 23.11311721801758 83.74648284912109 18.41204261779785 80.57682800292969 14.37464332580566 76.5394287109375 C 10.33724308013916 72.50202941894531 7.167593002319336 67.80095672607422 4.953730583190918 62.56679534912109 C 2.662005424499512 57.14855575561523 1.500005483627319 51.39208221435547 1.500005483627319 45.45729446411133 C 1.500005483627319 39.52198028564453 2.662005424499512 33.76551818847656 4.953730583190918 28.34726905822754 C 7.167593002319336 23.11310577392578 10.33724308013916 18.41203117370605 14.37464332580566 14.37464332580566 C 18.41204261779785 10.33724403381348 23.11311721801758 7.167593955993652 28.34726715087891 4.953731060028076 C 33.76551818847656 2.662006139755249 39.52198028564453 1.500006198883057 45.45676803588867 1.500006198883057 C 51.39155578613281 1.500006198883057 57.14802932739258 2.662006139755249 62.56626892089844 4.953731060028076 C 67.80043029785156 7.167593955993652 72.50150299072266 10.33724403381348 76.53890228271484 14.37464332580566 C 80.57630920410156 18.41203117370605 83.74595642089844 23.11310577392578 85.95981597900391 28.34726905822754 C 88.25154113769531 33.76551818847656 89.41354370117188 39.52198028564453 89.41354370117188 45.45676803588867 C 89.41354370117188 51.39208221435547 88.25154113769531 57.14855575561523 85.95981597900391 62.56679534912109 C 83.74595642089844 67.80095672607422 80.57630920410156 72.50202941894531 76.53890228271484 76.5394287109375 C 72.50150299072266 80.57682800292969 67.80043029785156 83.74648284912109 62.56626892089844 85.96034240722656 C 57.14802932739258 88.25206756591797 51.39155578613281 89.41407012939453 45.45676803588867 89.41407012939453 Z" stroke="none"/>
              <path d="M 45.45676803588867 3 C 39.72381210327148 3 34.1639404296875 4.12213134765625 28.93159484863281 6.335227966308594 C 23.87622833251953 8.473472595214844 19.33542633056641 11.53517150878906 15.43529510498047 15.435302734375 C 11.53517150878906 19.33543395996094 8.473464965820312 23.87622833251953 6.335227966308594 28.93160247802734 C 4.122123718261719 34.16394424438477 3 39.72381591796875 3 45.4572868347168 C 3 51.19024658203125 4.122123718261719 56.75011825561523 6.335227966308594 61.98246002197266 C 8.473464965820312 67.03782653808594 11.53517150878906 71.57862854003906 15.43529510498047 75.478759765625 C 19.33542633056641 79.37889099121094 23.87622833251953 82.44058990478516 28.93159484863281 84.57883453369141 C 34.1639404296875 86.79193115234375 39.72381210327148 87.9140625 45.45676803588867 87.9140625 C 51.18972396850586 87.9140625 56.74959564208984 86.79193115234375 61.98194122314453 84.57883453369141 C 67.03730773925781 82.44058990478516 71.57810974121094 79.37889099121094 75.47824096679688 75.478759765625 C 79.37837219238281 71.57862854003906 82.44007110595703 67.03782653808594 84.57830810546875 61.98246002197266 C 86.79141235351562 56.75011825561523 87.91353607177734 51.19024658203125 87.91353607177734 45.4567756652832 C 87.91353607177734 39.72381591796875 86.79141235351562 34.16394424438477 84.57830810546875 28.93160247802734 C 82.44007110595703 23.87622833251953 79.37837219238281 19.33543395996094 75.47824096679688 15.435302734375 C 71.57810974121094 11.53517150878906 67.03730773925781 8.473472595214844 61.98194122314453 6.335227966308594 C 56.74959564208984 4.12213134765625 51.18972396850586 3 45.45676803588867 3 M 45.45676803588867 0 C 70.56185150146484 0 90.91353607177734 20.35169219970703 90.91353607177734 45.4567756652832 L 90.91353607177734 45.4572868347168 C 90.91353607177734 70.5623779296875 70.56185150146484 90.9140625 45.45676803588867 90.9140625 C 20.3516845703125 90.9140625 0 70.5623779296875 0 45.4572868347168 L 0 45.4567756652832 C 0 20.35169219970703 20.3516845703125 0 45.45676803588867 0 Z" stroke="none" fill="#fff"/>
            </g>
          </g>
          <g id="Trazado_874923" data-name="Trazado 874923" transform="translate(0 0)" fill="none">
            <path d="M45.457,0A45.457,45.457,0,0,1,90.914,45.457h0A45.457,45.457,0,0,1,0,45.457H0A45.457,45.457,0,0,1,45.457,0Z" stroke="none"/>
            <path d="M 45.45676803588867 3 C 39.72381210327148 3 34.1639404296875 4.12213134765625 28.93159484863281 6.335227966308594 C 23.87622833251953 8.473472595214844 19.33542633056641 11.53517150878906 15.43529510498047 15.435302734375 C 11.53517150878906 19.33543395996094 8.473464965820312 23.87622833251953 6.335227966308594 28.93160247802734 C 4.122123718261719 34.16394424438477 3 39.72381591796875 3 45.4572868347168 C 3 51.19024658203125 4.122123718261719 56.75011825561523 6.335227966308594 61.98246002197266 C 8.473464965820312 67.03782653808594 11.53517150878906 71.57862854003906 15.43529510498047 75.478759765625 C 19.33542633056641 79.37889099121094 23.87622833251953 82.44058990478516 28.93159484863281 84.57883453369141 C 34.1639404296875 86.79193115234375 39.72381210327148 87.9140625 45.45676803588867 87.9140625 C 51.18972396850586 87.9140625 56.74959564208984 86.79193115234375 61.98194122314453 84.57883453369141 C 67.03730773925781 82.44058990478516 71.57810974121094 79.37889099121094 75.47824096679688 75.478759765625 C 79.37837219238281 71.57862854003906 82.44007110595703 67.03782653808594 84.57830810546875 61.98246002197266 C 86.79141235351562 56.75011825561523 87.91353607177734 51.19024658203125 87.91353607177734 45.4567756652832 C 87.91353607177734 39.72381591796875 86.79141235351562 34.16394424438477 84.57830810546875 28.93160247802734 C 82.44007110595703 23.87622833251953 79.37837219238281 19.33543395996094 75.47824096679688 15.435302734375 C 71.57810974121094 11.53517150878906 67.03730773925781 8.473472595214844 61.98194122314453 6.335227966308594 C 56.74959564208984 4.12213134765625 51.18972396850586 3 45.45676803588867 3 M 45.45676803588867 0 C 70.56185150146484 0 90.91353607177734 20.35169219970703 90.91353607177734 45.4567756652832 L 90.91353607177734 45.4572868347168 C 90.91353607177734 70.5623779296875 70.56185150146484 90.9140625 45.45676803588867 90.9140625 C 20.3516845703125 90.9140625 0 70.5623779296875 0 45.4572868347168 L 0 45.4567756652832 C 0 20.35169219970703 20.3516845703125 0 45.45676803588867 0 Z" stroke="none" fill="#fff"/>
          </g>
        </g>
      </g>
    </g>
    <g id="Grupo_1112818" data-name="Grupo 1112818" transform="translate(-5137 -9628)">
      <g id="Grupo_1112817" data-name="Grupo 1112817" transform="translate(1.831 1.831)">
        <g id="Grupo_1112792" data-name="Grupo 1112792" transform="translate(1.662 46.534)">
          <path id="Trazado_903696" data-name="Trazado 903696" d="M8.986,58v3.324H5.662A1.667,1.667,0,0,1,4,59.662,1.674,1.674,0,0,1,5.662,58Z" transform="translate(-4 -58)" fill="#cf9e76"/>
        </g>
        <g id="Grupo_1112793" data-name="Grupo 1112793" transform="translate(6.648 46.534)">
          <path id="Trazado_903697" data-name="Trazado 903697" d="M14.5,58.49a1.625,1.625,0,0,1,.49,1.172,1.667,1.667,0,0,1-1.662,1.662H10V58h3.324A1.625,1.625,0,0,1,14.5,58.49Z" transform="translate(-10 -58)" fill="#cf9e76"/>
        </g>
        <g id="Grupo_1112794" data-name="Grupo 1112794" transform="translate(1.662 31.576)">
          <path id="Trazado_903698" data-name="Trazado 903698" d="M8.986,54.957H5.662A1.667,1.667,0,0,1,4,53.3V43.324A3.323,3.323,0,0,0,7.324,40h6.648V53.3a1.667,1.667,0,0,1-1.662,1.662Z" transform="translate(-4 -40)" fill="#969faa"/>
        </g>
        <g id="Grupo_1112795" data-name="Grupo 1112795" transform="translate(1.662 31.576)">
          <path id="Trazado_903699" data-name="Trazado 903699" d="M4,40H7.324A3.323,3.323,0,0,1,4,43.324Z" transform="translate(-4 -40)" fill="#e6e9ed"/>
        </g>
        <g id="Grupo_1112796" data-name="Grupo 1112796" transform="translate(1.662 19.112)">
          <path id="Trazado_903700" data-name="Trazado 903700" d="M13.972,32.479v4.986H4V25a7.479,7.479,0,0,0,7.479,7.479Z" transform="translate(-4 -25)" fill="#b4dd7f"/>
        </g>
        <g id="Grupo_1112797" data-name="Grupo 1112797" transform="translate(1.662 13.295)">
          <path id="Trazado_903701" data-name="Trazado 903701" d="M13.972,27.972h1.662A1.674,1.674,0,0,1,17.3,29.633,1.667,1.667,0,0,1,15.633,31.3H11.479A7.479,7.479,0,0,1,4,23.817v-.972a5.68,5.68,0,0,1,1.662-4.014V18l2.16,2.883a1.122,1.122,0,0,0,.889.44,1.11,1.11,0,0,0,1.105-1.105V18.831a5.229,5.229,0,0,1,3.889,4.213l.266,1.6Z" transform="translate(-4 -18)" fill="#b4dd7f"/>
        </g>
        <g id="Grupo_1112798" data-name="Grupo 1112798" transform="translate(0 0)">
          <path id="Trazado_903702" data-name="Trazado 903702" d="M11.972,5.324H8.465a.827.827,0,0,0-.806.632L6.986,8.648H2V5.324A3.323,3.323,0,0,1,5.324,2H8.648A3.323,3.323,0,0,1,11.972,5.324Z" transform="translate(-2 -2)" fill="#fcd770"/>
        </g>
        <g id="Grupo_1112799" data-name="Grupo 1112799" transform="translate(4.986 3.324)">
          <path id="Trazado_903703" data-name="Trazado 903703" d="M16.31,6.831V8.493a.833.833,0,0,1-.831.831H8l.673-2.692A.827.827,0,0,1,9.479,6h6A.833.833,0,0,1,16.31,6.831Z" transform="translate(-8 -6)" fill="#ffc729"/>
        </g>
        <g id="Grupo_1112800" data-name="Grupo 1112800" transform="translate(0 6.648)">
          <path id="Trazado_903704" data-name="Trazado 903704" d="M5.324,10v6.648A6.017,6.017,0,0,1,2,11.271V10Z" transform="translate(-2 -10)" fill="#656d78"/>
        </g>
        <g id="Grupo_1112801" data-name="Grupo 1112801" transform="translate(3.324 6.648)">
          <path id="Trazado_903705" data-name="Trazado 903705" d="M7.662,10h4.986v4.155a2.49,2.49,0,0,1-2.493,2.493v2.219A1.11,1.11,0,0,1,9.05,19.972a1.122,1.122,0,0,1-.889-.44L6,16.648V10Z" transform="translate(-6 -10)" fill="#f0d0b4"/>
        </g>
        <g id="Grupo_1112802" data-name="Grupo 1112802" transform="translate(11.633 16.619)">
          <path id="Trazado_903706" data-name="Trazado 903706" d="M22.648,25.324v4.155a.833.833,0,0,1-.831.831H19.324a1.674,1.674,0,0,0-1.662-1.662H16V22.831A.833.833,0,0,1,16.831,22h4.986a.833.833,0,0,1,.831.831Z" transform="translate(-16 -22)" fill="#e6e9ed"/>
        </g>
        <g id="Grupo_1112803" data-name="Grupo 1112803" transform="translate(7.479 13.295)">
          <path id="Trazado_903707" data-name="Trazado 903707" d="M15.986,21.324a.833.833,0,0,0-.831.831v2.493l-.266-1.6A5.229,5.229,0,0,0,11,18.831V18H53.379v2.493a.833.833,0,0,1-.831.831H15.986Z" transform="translate(-11 -18)" fill="#aab2bd"/>
        </g>
        <g id="Grupo_1112804" data-name="Grupo 1112804" transform="translate(11.633 31.576)">
          <path id="Trazado_903708" data-name="Trazado 903708" d="M54.224,40v2.493a.833.833,0,0,1-.831.831H16V40H54.224Z" transform="translate(-16 -40)" fill="#aab2bd"/>
        </g>
        <g id="Grupo_1112805" data-name="Grupo 1112805" transform="translate(34.9 38.224)">
          <path id="Trazado_903709" data-name="Trazado 903709" d="M58.126,48h-13.3a.833.833,0,0,0-.831.831v10.8H58.126a.833.833,0,0,0,.831-.831V48.831A.833.833,0,0,0,58.126,48Z" transform="translate(-44 -48)" fill="#d3a06c"/>
        </g>
        <g id="Grupo_1112806" data-name="Grupo 1112806" transform="translate(34.9 19.943)">
          <path id="Trazado_903710" data-name="Trazado 903710" d="M58.126,26h-13.3a.833.833,0,0,0-.831.831v10.8H58.957v-10.8A.833.833,0,0,0,58.126,26Z" transform="translate(-44 -26)" fill="#d3a06c"/>
        </g>
        <g id="Grupo_1112807" data-name="Grupo 1112807" transform="translate(16.619 19.943)">
          <path id="Trazado_903711" data-name="Trazado 903711" d="M36.126,26H23.662v4.155a.833.833,0,0,1-.831.831H22v6.648H36.957v-10.8A.833.833,0,0,0,36.126,26Z" transform="translate(-22 -26)" fill="#d3a06c"/>
        </g>
        <g id="Grupo_1112808" data-name="Grupo 1112808" transform="translate(16.619 1.662)">
          <path id="Trazado_903712" data-name="Trazado 903712" d="M36.126,4h-13.3A.833.833,0,0,0,22,4.831v10.8H36.957V4.831A.833.833,0,0,0,36.126,4Z" transform="translate(-22 -4)" fill="#d3a06c"/>
        </g>
        <g id="Grupo_1112809" data-name="Grupo 1112809" transform="translate(39.886 38.224)">
          <path id="Trazado_903713" data-name="Trazado 903713" d="M50,48h4.986v3.324H50Z" transform="translate(-50 -48)" fill="#b27946"/>
        </g>
        <g id="Grupo_1112810" data-name="Grupo 1112810" transform="translate(16.619 38.224)">
          <path id="Trazado_903714" data-name="Trazado 903714" d="M36.126,48h-13.3a.833.833,0,0,0-.831.831v10.8H36.126a.833.833,0,0,0,.831-.831V48.831A.833.833,0,0,0,36.126,48Z" transform="translate(-22 -48)" fill="#d3a06c"/>
        </g>
        <g id="Grupo_1112811" data-name="Grupo 1112811" transform="translate(21.605 38.224)">
          <path id="Trazado_903715" data-name="Trazado 903715" d="M28,48h4.986v3.324H28Z" transform="translate(-28 -48)" fill="#b27946"/>
        </g>
        <g id="Grupo_1112812" data-name="Grupo 1112812" transform="translate(39.886 19.943)">
          <path id="Trazado_903716" data-name="Trazado 903716" d="M50,26h4.986v3.324H50Z" transform="translate(-50 -26)" fill="#b27946"/>
        </g>
        <g id="Grupo_1112813" data-name="Grupo 1112813" transform="translate(21.605 19.943)">
          <path id="Trazado_903717" data-name="Trazado 903717" d="M28,26h4.986v3.324H28Z" transform="translate(-28 -26)" fill="#b27946"/>
        </g>
        <g id="Grupo_1112814" data-name="Grupo 1112814" transform="translate(21.605 1.662)">
          <path id="Trazado_903718" data-name="Trazado 903718" d="M28,4h4.986V7.324H28Z" transform="translate(-28 -4)" fill="#b27946"/>
        </g>
        <g id="Grupo_1112815" data-name="Grupo 1112815" transform="translate(34.9 1.662)">
          <path id="Trazado_903719" data-name="Trazado 903719" d="M58.126,4h-13.3A.833.833,0,0,0,44,4.831v10.8H58.957V4.831A.833.833,0,0,0,58.126,4Z" transform="translate(-44 -4)" fill="#d3a06c"/>
        </g>
        <g id="Grupo_1112816" data-name="Grupo 1112816" transform="translate(39.886 1.662)">
          <path id="Trazado_903720" data-name="Trazado 903720" d="M50,4h4.986V7.324H50Z" transform="translate(-50 -4)" fill="#b27946"/>
        </g>
      </g>
      <path id="Trazado_903721" data-name="Trazado 903721" d="M50.858,19.281a1.664,1.664,0,0,0,1.662-1.662V4.324a1.664,1.664,0,0,0-1.662-1.662h-13.3A1.664,1.664,0,0,0,35.9,4.324V14.3H34.238V4.324a1.664,1.664,0,0,0-1.662-1.662h-13.3a1.664,1.664,0,0,0-1.662,1.662V14.3H12.18a3.294,3.294,0,0,0,.454-1.662V9.31H14.3a1.664,1.664,0,0,0,1.662-1.662V5.986A1.664,1.664,0,0,0,14.3,4.324H12.55A4.163,4.163,0,0,0,8.479,1H5.155A4.16,4.16,0,0,0,1,5.155V9.748A6.789,6.789,0,0,0,4.324,15.6v.028a6.561,6.561,0,0,0-1.662,4.343V46.7a2.477,2.477,0,0,0,.648,1.662A2.482,2.482,0,0,0,5.155,52.52h45.7a1.664,1.664,0,0,0,1.662-1.662V40.886a1.664,1.664,0,0,0-1.662-1.662h-13.3A1.664,1.664,0,0,0,35.9,40.886v9.972H34.238V40.886a1.664,1.664,0,0,0-1.662-1.662h-13.3a1.664,1.664,0,0,0-1.662,1.662v9.972H14.142a2.416,2.416,0,0,0-.5-2.493A2.473,2.473,0,0,0,14.3,46.7V37.562H50.858A1.664,1.664,0,0,0,52.52,35.9V22.6a1.664,1.664,0,0,0-1.662-1.662h-13.3A1.664,1.664,0,0,0,35.9,22.6v9.972H34.238V22.6a1.664,1.664,0,0,0-1.662-1.662H20.943V19.281Zm-8.31,21.6h3.324v1.662H42.548Zm-4.986,0h3.324V44.21h6.648V40.886h3.324v9.972h-13.3ZM14.3,17.619a1.646,1.646,0,0,0-1.021.361,6.061,6.061,0,0,0-1.921-2.023h39.5v1.662Zm28.253-13.3h3.324V5.986H42.548Zm-4.986,0h3.324V7.648h6.648V4.324h3.324V14.3h-13.3Zm-13.3,0h3.324V5.986H24.267Zm-4.986,0H22.6V7.648h6.648V4.324h3.324V14.3h-13.3Zm-8.31,8.31A1.664,1.664,0,0,1,9.31,14.3H8.479v3.047a.289.289,0,0,1-.5.166L5.986,14.85V9.31h4.986ZM14.3,7.648H7.881L8.3,5.986h6ZM5.155,2.662H8.479a2.489,2.489,0,0,1,2.34,1.662H8.3a1.658,1.658,0,0,0-1.612,1.26L6.168,7.648H2.662V5.155A2.5,2.5,0,0,1,5.155,2.662ZM2.662,9.748V9.31H4.324v4.244A5.149,5.149,0,0,1,2.662,9.748Zm2.773,7.136,1.216,1.62a1.939,1.939,0,0,0,3.49-1.163v-.167A4.385,4.385,0,0,1,12.377,20.3l.257,1.537v2.425H10.972a3.327,3.327,0,0,1-3.324-3.324H5.986a4.991,4.991,0,0,0,4.986,4.986h4.155a.831.831,0,1,1,0,1.662H10.972a6.655,6.655,0,0,1-6.648-6.648v-.974a4.884,4.884,0,0,1,1.111-3.085ZM17.466,27.591h.153v4.986H14.3V29.253h.831A2.489,2.489,0,0,0,17.466,27.591Zm-6.495,1.662h1.662v3.324H4.324V25.907A8.293,8.293,0,0,0,10.972,29.253ZM11.8,47.534H9.31V37.562H7.648v9.972H5.155a.831.831,0,0,1-.831-.831V37.478a4.168,4.168,0,0,0,3.24-3.24h5.07V46.7a.831.831,0,0,1-.831.831Zm-7.479-13.3H5.833a2.49,2.49,0,0,1-1.509,1.509Zm0,15.788a.831.831,0,0,1,.831-.831H7.648v1.662H5.155A.831.831,0,0,1,4.324,50.027Zm19.943-9.141h3.324v1.662H24.267Zm-4.986,0H22.6V44.21h6.648V40.886h3.324v9.972h-13.3ZM9.31,50.858V49.2H11.8a.831.831,0,1,1,0,1.662ZM14.3,35.9V34.238H50.858V35.9ZM42.548,22.6h3.324v1.662H42.548Zm-4.986,0h3.324v3.324h6.648V22.6h3.324v9.972h-13.3Zm-13.3,0h3.324v1.662H24.267Zm-1.662,0v3.324h6.648V22.6h3.324v9.972h-13.3V27.591a1.664,1.664,0,0,0,1.662-1.662V22.6Zm-3.324,3.324H17.466a2.489,2.489,0,0,0-2.34-1.662H14.3V19.281h4.986Z"/>
    </g>
  </g>
</svg>
