<svg xmlns="http://www.w3.org/2000/svg" xmlns:xlink="http://www.w3.org/1999/xlink" width="108.914" height="108.914" viewBox="0 0 108.914 108.914">
  <defs>
    <filter id="Path_874925" x="0" y="0" width="108.914" height="108.914" filterUnits="userSpaceOnUse">
      <feOffset dy="3" input="SourceAlpha"/>
      <feGaussianBlur stdDeviation="3" result="blur"/>
      <feFlood flood-opacity="0.161"/>
      <feComposite operator="in" in2="blur"/>
      <feComposite in="SourceGraphic"/>
    </filter>
  </defs>
  <g id="Group_1201376" data-name="Group 1201376" transform="translate(-1697.325 8924)">
    <g id="Group_1112716" data-name="Group 1112716" transform="translate(897.824 -10870.211)">
      <g id="Group_1109835" data-name="Group 1109835">
        <g id="Group_1107913" data-name="Group 1107913" transform="translate(808.5 1952.211)">
          <g transform="matrix(1, 0, 0, 1, -9, -6)" filter="url(#Path_874925)">
            <g id="Path_874925-2" data-name="Path 874925" transform="translate(9 6)" fill="#fd9826" opacity="0.859">
              <path d="M 45.45676803588867 89.41407012939453 C 39.52198028564453 89.41407012939453 33.76551818847656 88.25206756591797 28.34726715087891 85.96034240722656 C 23.11311721801758 83.74648284912109 18.41204261779785 80.57682800292969 14.37464332580566 76.5394287109375 C 10.33724308013916 72.50202941894531 7.167593002319336 67.80095672607422 4.953730583190918 62.56679534912109 C 2.662005424499512 57.14855575561523 1.500005483627319 51.39208221435547 1.500005483627319 45.45729446411133 C 1.500005483627319 39.52198028564453 2.662005424499512 33.76551818847656 4.953730583190918 28.34726905822754 C 7.167593002319336 23.11310577392578 10.33724308013916 18.41203117370605 14.37464332580566 14.37464332580566 C 18.41204261779785 10.33724403381348 23.11311721801758 7.167593955993652 28.34726715087891 4.953731060028076 C 33.76551818847656 2.662006139755249 39.52198028564453 1.500006198883057 45.45676803588867 1.500006198883057 C 51.39155578613281 1.500006198883057 57.14802932739258 2.662006139755249 62.56626892089844 4.953731060028076 C 67.80043029785156 7.167593955993652 72.50150299072266 10.33724403381348 76.53890228271484 14.37464332580566 C 80.57630920410156 18.41203117370605 83.74595642089844 23.11310577392578 85.95981597900391 28.34726905822754 C 88.25154113769531 33.76551818847656 89.41354370117188 39.52198028564453 89.41354370117188 45.45676803588867 C 89.41354370117188 51.39208221435547 88.25154113769531 57.14855575561523 85.95981597900391 62.56679534912109 C 83.74595642089844 67.80095672607422 80.57630920410156 72.50202941894531 76.53890228271484 76.5394287109375 C 72.50150299072266 80.57682800292969 67.80043029785156 83.74648284912109 62.56626892089844 85.96034240722656 C 57.14802932739258 88.25206756591797 51.39155578613281 89.41407012939453 45.45676803588867 89.41407012939453 Z" stroke="none"/>
              <path d="M 45.45676803588867 3 C 39.72381210327148 3 34.1639404296875 4.12213134765625 28.93159484863281 6.335227966308594 C 23.87622833251953 8.473472595214844 19.33542633056641 11.53517150878906 15.43529510498047 15.435302734375 C 11.53517150878906 19.33543395996094 8.473464965820312 23.87622833251953 6.335227966308594 28.93160247802734 C 4.122123718261719 34.16394424438477 3 39.72381591796875 3 45.4572868347168 C 3 51.19024658203125 4.122123718261719 56.75011825561523 6.335227966308594 61.98246002197266 C 8.473464965820312 67.03782653808594 11.53517150878906 71.57862854003906 15.43529510498047 75.478759765625 C 19.33542633056641 79.37889099121094 23.87622833251953 82.44058990478516 28.93159484863281 84.57883453369141 C 34.1639404296875 86.79193115234375 39.72381210327148 87.9140625 45.45676803588867 87.9140625 C 51.18972396850586 87.9140625 56.74959564208984 86.79193115234375 61.98194122314453 84.57883453369141 C 67.03730773925781 82.44058990478516 71.57810974121094 79.37889099121094 75.47824096679688 75.478759765625 C 79.37837219238281 71.57862854003906 82.44007110595703 67.03782653808594 84.57830810546875 61.98246002197266 C 86.79141235351562 56.75011825561523 87.91353607177734 51.19024658203125 87.91353607177734 45.4567756652832 C 87.91353607177734 39.72381591796875 86.79141235351562 34.16394424438477 84.57830810546875 28.93160247802734 C 82.44007110595703 23.87622833251953 79.37837219238281 19.33543395996094 75.47824096679688 15.435302734375 C 71.57810974121094 11.53517150878906 67.03730773925781 8.473472595214844 61.98194122314453 6.335227966308594 C 56.74959564208984 4.12213134765625 51.18972396850586 3 45.45676803588867 3 M 45.45676803588867 0 C 70.56185150146484 0 90.91353607177734 20.35169219970703 90.91353607177734 45.4567756652832 L 90.91353607177734 45.4572868347168 C 90.91353607177734 70.5623779296875 70.56185150146484 90.9140625 45.45676803588867 90.9140625 C 20.3516845703125 90.9140625 0 70.5623779296875 0 45.4572868347168 L 0 45.4567756652832 C 0 20.35169219970703 20.3516845703125 0 45.45676803588867 0 Z" stroke="none" fill="#fff"/>
            </g>
          </g>
          <g id="Path_874923" data-name="Path 874923" transform="translate(0 0)" fill="none">
            <path d="M45.457,0A45.457,45.457,0,0,1,90.914,45.457h0A45.457,45.457,0,0,1,0,45.457H0A45.457,45.457,0,0,1,45.457,0Z" stroke="none"/>
            <path d="M 45.45676803588867 3 C 39.72381210327148 3 34.1639404296875 4.12213134765625 28.93159484863281 6.335227966308594 C 23.87622833251953 8.473472595214844 19.33542633056641 11.53517150878906 15.43529510498047 15.435302734375 C 11.53517150878906 19.33543395996094 8.473464965820312 23.87622833251953 6.335227966308594 28.93160247802734 C 4.122123718261719 34.16394424438477 3 39.72381591796875 3 45.4572868347168 C 3 51.19024658203125 4.122123718261719 56.75011825561523 6.335227966308594 61.98246002197266 C 8.473464965820312 67.03782653808594 11.53517150878906 71.57862854003906 15.43529510498047 75.478759765625 C 19.33542633056641 79.37889099121094 23.87622833251953 82.44058990478516 28.93159484863281 84.57883453369141 C 34.1639404296875 86.79193115234375 39.72381210327148 87.9140625 45.45676803588867 87.9140625 C 51.18972396850586 87.9140625 56.74959564208984 86.79193115234375 61.98194122314453 84.57883453369141 C 67.03730773925781 82.44058990478516 71.57810974121094 79.37889099121094 75.47824096679688 75.478759765625 C 79.37837219238281 71.57862854003906 82.44007110595703 67.03782653808594 84.57830810546875 61.98246002197266 C 86.79141235351562 56.75011825561523 87.91353607177734 51.19024658203125 87.91353607177734 45.4567756652832 C 87.91353607177734 39.72381591796875 86.79141235351562 34.16394424438477 84.57830810546875 28.93160247802734 C 82.44007110595703 23.87622833251953 79.37837219238281 19.33543395996094 75.47824096679688 15.435302734375 C 71.57810974121094 11.53517150878906 67.03730773925781 8.473472595214844 61.98194122314453 6.335227966308594 C 56.74959564208984 4.12213134765625 51.18972396850586 3 45.45676803588867 3 M 45.45676803588867 0 C 70.56185150146484 0 90.91353607177734 20.35169219970703 90.91353607177734 45.4567756652832 L 90.91353607177734 45.4572868347168 C 90.91353607177734 70.5623779296875 70.56185150146484 90.9140625 45.45676803588867 90.9140625 C 20.3516845703125 90.9140625 0 70.5623779296875 0 45.4572868347168 L 0 45.4567756652832 C 0 20.35169219970703 20.3516845703125 0 45.45676803588867 0 Z" stroke="none" fill="#fff"/>
          </g>
        </g>
      </g>
    </g>
    <g id="Group_1113403" data-name="Group 1113403" transform="translate(1721.289 -8900)">
      <path id="Path_906749" data-name="Path 906749" d="M369.081,8H360V57.036h9.081a3.632,3.632,0,0,0,3.632-3.632V11.632A3.632,3.632,0,0,0,369.081,8Zm0,0" transform="translate(-319.137 -7.092)" fill="#348fd9"/>
      <path id="Path_906750" data-name="Path 906750" d="M147.242,8h-23.61A3.632,3.632,0,0,0,120,11.632V53.4a3.632,3.632,0,0,0,3.632,3.632h29.058a3.632,3.632,0,0,0,3.632-3.632V17.081Zm0,0" transform="translate(-106.379 -7.092)" fill="#60d1e0"/>
      <path id="Path_906751" data-name="Path 906751" d="M192,220.15h24.518a3.632,3.632,0,0,0,3.632-3.632V192Zm0,0" transform="translate(-170.206 -170.206)" fill="#5ac6d4"/>
      <path id="Path_906752" data-name="Path 906752" d="M379.632,33.081h3.632V31.265L376,24v5.448A3.632,3.632,0,0,0,379.632,33.081Zm0,0" transform="translate(-333.321 -21.276)" fill="#5ac6d4"/>
      <path id="Path_906753" data-name="Path 906753" d="M369.081,17.081h-5.448A3.632,3.632,0,0,1,360,13.448V8Zm0,0" transform="translate(-319.137 -7.092)" fill="#9fe4ed"/>
      <g id="Group_1113402" data-name="Group 1113402" transform="translate(17.253 4.54)">
        <path id="Path_906754" data-name="Path 906754" d="M156.54,45.448h-1.816a.908.908,0,1,1,0-1.816h3.632V41.816H156.54V40h-1.816v1.816a2.724,2.724,0,0,0,0,5.448h1.816a.908.908,0,0,1,0,1.816h-3.632V50.9h1.816v1.816h1.816V50.9a2.724,2.724,0,0,0,0-5.448Zm0,0" transform="translate(-152 -40)" fill="#3fb7c7"/>
        <path id="Path_906755" data-name="Path 906755" d="M240,56h10.9v1.816H240Zm0,0" transform="translate(-230.011 -54.184)" fill="#3fb7c7"/>
        <path id="Path_906756" data-name="Path 906756" d="M240,88h5.448v1.816H240Zm0,0" transform="translate(-230.011 -82.552)" fill="#3fb7c7"/>
        <path id="Path_906757" data-name="Path 906757" d="M304,88h3.632v1.816H304Zm0,0" transform="translate(-286.747 -82.552)" fill="#3fb7c7"/>
        <path id="Path_906758" data-name="Path 906758" d="M240,120h10.9v1.816H240Zm0,0" transform="translate(-230.011 -110.919)" fill="#3fb7c7"/>
        <path id="Path_906759" data-name="Path 906759" d="M181.058,169.816V168H152v1.816h19.07v2.724H152v1.816h19.07v2.724h-9.081V178.9h9.081v2.724h-3.632v1.816h3.632v2.724h-3.632v1.816h3.632V190.7h-5.448v1.816h15.437V190.7h-8.173v-2.724h8.173v-1.816h-8.173v-2.724h8.173v-1.816h-8.173V178.9h8.173v-1.816h-8.173v-2.724h8.173V172.54h-8.173v-2.724Zm0,0" transform="translate(-152 -153.471)" fill="#3fb7c7"/>
        <path id="Path_906760" data-name="Path 906760" d="M272,400h15.437v1.816H272Zm0,0" transform="translate(-258.379 -359.137)" fill="#3fb7c7"/>
      </g>
      <path id="Path_906761" data-name="Path 906761" d="M8,440H37.058v3.632H8Zm0,0" transform="translate(-7.092 -390.056)" fill="#ffc94a"/>
      <path id="Path_906762" data-name="Path 906762" d="M24,328h3.632v12.713H24Zm0,0" transform="translate(-21.276 -290.769)" fill="#ffc94a"/>
      <path id="Path_906763" data-name="Path 906763" d="M88,328h3.632v12.713H88Zm0,0" transform="translate(-78.011 -290.769)" fill="#ffb531"/>
      <path id="Path_906764" data-name="Path 906764" d="M152,328h3.632v12.713H152Zm0,0" transform="translate(-134.747 -290.769)" fill="#ffb531"/>
      <path id="Path_906765" data-name="Path 906765" d="M216,328h3.632v12.713H216Zm0,0" transform="translate(-191.482 -290.769)" fill="#ffc94a"/>
      <path id="Path_906766" data-name="Path 906766" d="M37.058,252.54,22.529,248,8,252.54v4.54H37.058Zm0,0" transform="translate(-7.092 -219.85)" fill="#ffc94a"/>
      <path id="Path_906767" data-name="Path 906767" d="M123.632,273.816A1.816,1.816,0,1,1,121.816,272,1.816,1.816,0,0,1,123.632,273.816Zm0,0" transform="translate(-106.379 -241.126)" fill="#b0564c"/>
      <path id="Path_906768" data-name="Path 906768" d="M24,328h3.632v1.816H24Zm0,0" transform="translate(-21.276 -290.769)" fill="#f7a116"/>
      <path id="Path_906769" data-name="Path 906769" d="M88,328h3.632v1.816H88Zm0,0" transform="translate(-78.011 -290.769)" fill="#f7a116"/>
      <path id="Path_906770" data-name="Path 906770" d="M152,328h3.632v1.816H152Zm0,0" transform="translate(-134.747 -290.769)" fill="#f7a116"/>
      <path id="Path_906771" data-name="Path 906771" d="M216,328h3.632v1.816H216Zm0,0" transform="translate(-191.482 -290.769)" fill="#f7a116"/>
      <path id="Path_906772" data-name="Path 906772" d="M149.231,0H116.54A4.546,4.546,0,0,0,112,4.54V25.426h1.816V4.54a2.724,2.724,0,0,1,2.724-2.724h22.7v4.54a4.546,4.546,0,0,0,4.54,4.54h4.54V46.312a2.724,2.724,0,0,1-2.724,2.724H131.978v1.816h17.253a4.546,4.546,0,0,0,4.54-4.54V4.54A4.546,4.546,0,0,0,149.231,0Zm-5.448,9.081a2.724,2.724,0,0,1-2.724-2.724V3.1l5.98,5.981Zm8.173,37.231a2.724,2.724,0,0,1-2.724,2.724h-.023a4.5,4.5,0,0,0,.932-2.724V9.989c0-.02-.01-.037-.012-.057a.853.853,0,0,0-.046-.233c-.01-.029-.017-.057-.03-.086a.893.893,0,0,0-.181-.266l-7.527-7.531h6.889a2.724,2.724,0,0,1,2.724,2.724Zm0,0" transform="translate(-99.287)"/>
      <path id="Path_906773" data-name="Path 906773" d="M152,172.54v1.816h19.07v2.724h-9.081V178.9h9.081v2.724h-3.632v1.816h3.632v2.724h-3.632v1.816h3.632V190.7h-5.448v1.816h15.437V190.7h-8.173v-2.724h8.173v-1.816h-8.173v-2.724h8.173v-1.816h-8.173V178.9h8.173v-1.816h-8.173v-2.724h8.173V172.54h-8.173v-2.724h8.173V168H152v1.816h19.07v2.724Zm0,0" transform="translate(-134.747 -148.93)"/>
      <path id="Path_906774" data-name="Path 906774" d="M272,400h15.437v1.816H272Zm0,0" transform="translate(-241.126 -354.596)"/>
      <path id="Path_906775" data-name="Path 906775" d="M240,56h10.9v1.816H240Zm0,0" transform="translate(-212.758 -49.643)"/>
      <path id="Path_906776" data-name="Path 906776" d="M240,88h5.448v1.816H240Zm0,0" transform="translate(-212.758 -78.011)"/>
      <path id="Path_906777" data-name="Path 906777" d="M304,88h3.632v1.816H304Zm0,0" transform="translate(-269.493 -78.011)"/>
      <path id="Path_906778" data-name="Path 906778" d="M240,120h10.9v1.816H240Zm0,0" transform="translate(-212.758 -106.379)"/>
      <path id="Path_906779" data-name="Path 906779" d="M29.966,261.792h-.908V250.9h.908a.908.908,0,0,0,.908-.908v-4.54a.908.908,0,0,0-.636-.866l-14.529-4.54a.905.905,0,0,0-.544,0L.636,244.58a.908.908,0,0,0-.636.866v4.54a.908.908,0,0,0,.908.908h.908v10.9H.908A.908.908,0,0,0,0,262.7v3.632a.908.908,0,0,0,.908.908H29.966a.908.908,0,0,0,.908-.908V262.7A.908.908,0,0,0,29.966,261.792Zm-2.724,0H25.426V250.9h1.816Zm-5.448,0V250.9H23.61v10.9Zm-7.265,0V250.9h1.816v10.9Zm-7.265,0V250.9H9.081v10.9ZM10.9,250.9h1.816v10.9H10.9Zm7.265,0h1.816v10.9H18.161ZM1.816,246.114l13.621-4.256,13.621,4.256v2.965H1.816ZM3.632,250.9H5.448v10.9H3.632Zm25.426,14.529H1.816v-1.816H29.058Zm0,0" transform="translate(0 -212.756)"/>
      <path id="Path_906780" data-name="Path 906780" d="M123.632,273.816A1.816,1.816,0,1,1,121.816,272,1.816,1.816,0,0,1,123.632,273.816Zm0,0" transform="translate(-106.379 -241.126)"/>
      <path id="Path_906781" data-name="Path 906781" d="M154.724,40v1.816a2.724,2.724,0,0,0,0,5.448h1.816a.908.908,0,0,1,0,1.816h-3.632V50.9h1.816v1.816h1.816V50.9a2.724,2.724,0,0,0,0-5.448h-1.816a.908.908,0,1,1,0-1.816h3.632V41.816H156.54V40Zm0,0" transform="translate(-134.747 -35.46)"/>
    </g>
  </g>
</svg>
