<svg xmlns="http://www.w3.org/2000/svg" xmlns:xlink="http://www.w3.org/1999/xlink" width="108.914" height="108.914" viewBox="0 0 108.914 108.914">
  <defs>
    <filter id="Trazado_874925" x="0" y="0" width="108.914" height="108.914" filterUnits="userSpaceOnUse">
      <feOffset dy="3" input="SourceAlpha"/>
      <feGaussianBlur stdDeviation="3" result="blur"/>
      <feFlood flood-opacity="0.161"/>
      <feComposite operator="in" in2="blur"/>
      <feComposite in="SourceGraphic"/>
    </filter>
  </defs>
  <g id="Grupo_1112789" data-name="Grupo 1112789" transform="translate(5786 9653)">
    <g id="Grupo_1111316" data-name="Grupo 1111316" transform="translate(-6585.5 -11599.211)">
      <g id="Grupo_1109835" data-name="Grupo 1109835">
        <g id="Grupo_1107913" data-name="Grupo 1107913" transform="translate(808.5 1952.211)">
          <g transform="matrix(1, 0, 0, 1, -9, -6)" filter="url(#Trazado_874925)">
            <g id="Trazado_874925-2" data-name="Trazado 874925" transform="translate(9 6)" fill="#fd9826" opacity="0.859">
              <path d="M 45.45676803588867 89.41407012939453 C 39.52198028564453 89.41407012939453 33.76551818847656 88.25206756591797 28.34726715087891 85.96034240722656 C 23.11311721801758 83.74648284912109 18.41204261779785 80.57682800292969 14.37464332580566 76.5394287109375 C 10.33724308013916 72.50202941894531 7.167593002319336 67.80095672607422 4.953730583190918 62.56679534912109 C 2.662005424499512 57.14855575561523 1.500005483627319 51.39208221435547 1.500005483627319 45.45729446411133 C 1.500005483627319 39.52198028564453 2.662005424499512 33.76551818847656 4.953730583190918 28.34726905822754 C 7.167593002319336 23.11310577392578 10.33724308013916 18.41203117370605 14.37464332580566 14.37464332580566 C 18.41204261779785 10.33724403381348 23.11311721801758 7.167593955993652 28.34726715087891 4.953731060028076 C 33.76551818847656 2.662006139755249 39.52198028564453 1.500006198883057 45.45676803588867 1.500006198883057 C 51.39155578613281 1.500006198883057 57.14802932739258 2.662006139755249 62.56626892089844 4.953731060028076 C 67.80043029785156 7.167593955993652 72.50150299072266 10.33724403381348 76.53890228271484 14.37464332580566 C 80.57630920410156 18.41203117370605 83.74595642089844 23.11310577392578 85.95981597900391 28.34726905822754 C 88.25154113769531 33.76551818847656 89.41354370117188 39.52198028564453 89.41354370117188 45.45676803588867 C 89.41354370117188 51.39208221435547 88.25154113769531 57.14855575561523 85.95981597900391 62.56679534912109 C 83.74595642089844 67.80095672607422 80.57630920410156 72.50202941894531 76.53890228271484 76.5394287109375 C 72.50150299072266 80.57682800292969 67.80043029785156 83.74648284912109 62.56626892089844 85.96034240722656 C 57.14802932739258 88.25206756591797 51.39155578613281 89.41407012939453 45.45676803588867 89.41407012939453 Z" stroke="none"/>
              <path d="M 45.45676803588867 3 C 39.72381210327148 3 34.1639404296875 4.12213134765625 28.93159484863281 6.335227966308594 C 23.87622833251953 8.473472595214844 19.33542633056641 11.53517150878906 15.43529510498047 15.435302734375 C 11.53517150878906 19.33543395996094 8.473464965820312 23.87622833251953 6.335227966308594 28.93160247802734 C 4.122123718261719 34.16394424438477 3 39.72381591796875 3 45.4572868347168 C 3 51.19024658203125 4.122123718261719 56.75011825561523 6.335227966308594 61.98246002197266 C 8.473464965820312 67.03782653808594 11.53517150878906 71.57862854003906 15.43529510498047 75.478759765625 C 19.33542633056641 79.37889099121094 23.87622833251953 82.44058990478516 28.93159484863281 84.57883453369141 C 34.1639404296875 86.79193115234375 39.72381210327148 87.9140625 45.45676803588867 87.9140625 C 51.18972396850586 87.9140625 56.74959564208984 86.79193115234375 61.98194122314453 84.57883453369141 C 67.03730773925781 82.44058990478516 71.57810974121094 79.37889099121094 75.47824096679688 75.478759765625 C 79.37837219238281 71.57862854003906 82.44007110595703 67.03782653808594 84.57830810546875 61.98246002197266 C 86.79141235351562 56.75011825561523 87.91353607177734 51.19024658203125 87.91353607177734 45.4567756652832 C 87.91353607177734 39.72381591796875 86.79141235351562 34.16394424438477 84.57830810546875 28.93160247802734 C 82.44007110595703 23.87622833251953 79.37837219238281 19.33543395996094 75.47824096679688 15.435302734375 C 71.57810974121094 11.53517150878906 67.03730773925781 8.473472595214844 61.98194122314453 6.335227966308594 C 56.74959564208984 4.12213134765625 51.18972396850586 3 45.45676803588867 3 M 45.45676803588867 0 C 70.56185150146484 0 90.91353607177734 20.35169219970703 90.91353607177734 45.4567756652832 L 90.91353607177734 45.4572868347168 C 90.91353607177734 70.5623779296875 70.56185150146484 90.9140625 45.45676803588867 90.9140625 C 20.3516845703125 90.9140625 0 70.5623779296875 0 45.4572868347168 L 0 45.4567756652832 C 0 20.35169219970703 20.3516845703125 0 45.45676803588867 0 Z" stroke="none" fill="#fff"/>
            </g>
          </g>
          <g id="Trazado_874923" data-name="Trazado 874923" transform="translate(0 0)" fill="none">
            <path d="M45.457,0A45.457,45.457,0,0,1,90.914,45.457h0A45.457,45.457,0,0,1,0,45.457H0A45.457,45.457,0,0,1,45.457,0Z" stroke="none"/>
            <path d="M 45.45676803588867 3 C 39.72381210327148 3 34.1639404296875 4.12213134765625 28.93159484863281 6.335227966308594 C 23.87622833251953 8.473472595214844 19.33542633056641 11.53517150878906 15.43529510498047 15.435302734375 C 11.53517150878906 19.33543395996094 8.473464965820312 23.87622833251953 6.335227966308594 28.93160247802734 C 4.122123718261719 34.16394424438477 3 39.72381591796875 3 45.4572868347168 C 3 51.19024658203125 4.122123718261719 56.75011825561523 6.335227966308594 61.98246002197266 C 8.473464965820312 67.03782653808594 11.53517150878906 71.57862854003906 15.43529510498047 75.478759765625 C 19.33542633056641 79.37889099121094 23.87622833251953 82.44058990478516 28.93159484863281 84.57883453369141 C 34.1639404296875 86.79193115234375 39.72381210327148 87.9140625 45.45676803588867 87.9140625 C 51.18972396850586 87.9140625 56.74959564208984 86.79193115234375 61.98194122314453 84.57883453369141 C 67.03730773925781 82.44058990478516 71.57810974121094 79.37889099121094 75.47824096679688 75.478759765625 C 79.37837219238281 71.57862854003906 82.44007110595703 67.03782653808594 84.57830810546875 61.98246002197266 C 86.79141235351562 56.75011825561523 87.91353607177734 51.19024658203125 87.91353607177734 45.4567756652832 C 87.91353607177734 39.72381591796875 86.79141235351562 34.16394424438477 84.57830810546875 28.93160247802734 C 82.44007110595703 23.87622833251953 79.37837219238281 19.33543395996094 75.47824096679688 15.435302734375 C 71.57810974121094 11.53517150878906 67.03730773925781 8.473472595214844 61.98194122314453 6.335227966308594 C 56.74959564208984 4.12213134765625 51.18972396850586 3 45.45676803588867 3 M 45.45676803588867 0 C 70.56185150146484 0 90.91353607177734 20.35169219970703 90.91353607177734 45.4567756652832 L 90.91353607177734 45.4572868347168 C 90.91353607177734 70.5623779296875 70.56185150146484 90.9140625 45.45676803588867 90.9140625 C 20.3516845703125 90.9140625 0 70.5623779296875 0 45.4572868347168 L 0 45.4567756652832 C 0 20.35169219970703 20.3516845703125 0 45.45676803588867 0 Z" stroke="none" fill="#fff"/>
          </g>
        </g>
      </g>
    </g>
    <g id="Grupo_1112788" data-name="Grupo 1112788" transform="translate(-5758.074 -9628.067)">
      <path id="Trazado_903671" data-name="Trazado 903671" d="M41.179,37.689h4.146a1.743,1.743,0,0,1,1.738,1.738V49.856a1.743,1.743,0,0,1-1.738,1.738H15.775v2.39A1.978,1.978,0,0,1,12.5,55.453L1.678,46.11a1.93,1.93,0,0,1,0-2.938L10.43,35.62Z" transform="translate(-0.131 -4.663)" fill="#91d46d"/>
      <path id="Trazado_903672" data-name="Trazado 903672" d="M42.633,21.32l8.752-7.553a1.93,1.93,0,0,0,0-2.938L40.565,1.487a1.978,1.978,0,0,0-3.277,1.469v2.39H7.738A1.743,1.743,0,0,0,6,7.084V17.513a1.743,1.743,0,0,0,1.738,1.738h4.146Z" transform="translate(-0.785 -0.132)" fill="#91d46d"/>
      <circle id="Elipse_12908" data-name="Elipse 12908" cx="17" cy="17" r="17" transform="translate(9.074 9.068)" fill="#efc84e"/>
      <g id="Grupo_1112787" data-name="Grupo 1112787" transform="translate(0.001 -0.006)">
        <path id="Trazado_903673" data-name="Trazado 903673" d="M40.348.695A2.832,2.832,0,0,0,37.285.26a2.793,2.793,0,0,0-1.651,2.564V4.345H6.953A2.607,2.607,0,0,0,4.346,6.952V17.382a2.607,2.607,0,0,0,2.607,2.607H9.8a17.024,17.024,0,0,0-.726,2.426.869.869,0,1,0,1.7.363,15.662,15.662,0,1,1-.347,3.295.869.869,0,0,0-1.738,0,17.31,17.31,0,0,0,.632,4.579L.98,37.853a2.8,2.8,0,0,0,0,4.253L11.8,51.451a2.83,2.83,0,0,0,1.859.7,2.891,2.891,0,0,0,1.2-.261,2.792,2.792,0,0,0,1.651-2.564V47.8H45.194A2.607,2.607,0,0,0,47.8,45.193V34.764a2.607,2.607,0,0,0-2.607-2.607H42.336a17,17,0,0,0,.488-10.662l8.344-7.2a2.8,2.8,0,0,0,0-4.253Zm4.846,33.2a.869.869,0,0,1,.869.869V45.193a.869.869,0,0,1-.869.869H15.644a.869.869,0,0,0-.869.869v2.39a1.058,1.058,0,0,1-.637.98,1.094,1.094,0,0,1-1.2-.169L2.116,40.791a1.062,1.062,0,0,1,0-1.624l7.8-6.73a17.354,17.354,0,0,0,31.66,1.458Zm4.838-20.917-7.8,6.731a17.367,17.367,0,0,0-31.679-1.458h-3.6a.869.869,0,0,1-.869-.869V6.952a.869.869,0,0,1,.869-.869H36.5a.869.869,0,0,0,.869-.869V2.824a1.057,1.057,0,0,1,.637-.98,1.1,1.1,0,0,1,1.2.174l10.82,9.338a1.06,1.06,0,0,1,0,1.623Z" transform="translate(-0.001 0.006)"/>
        <path id="Trazado_903674" data-name="Trazado 903674" d="M25.482,34.635a.869.869,0,1,0-1.227,1.231,7.665,7.665,0,0,0,4.091,1.925v.937a.869.869,0,0,0,1.738,0v-.947a5.209,5.209,0,0,0,0-10.273V20.555a6.013,6.013,0,0,1,2.862,1.4.869.869,0,1,0,1.229-1.229,7.665,7.665,0,0,0-4.091-1.922v-.937a.869.869,0,0,0-1.738,0v.947a5.209,5.209,0,0,0,0,10.273v6.953a6.018,6.018,0,0,1-2.864-1.407Zm7.209-1.991A3.476,3.476,0,0,1,30.084,36V29.291a3.476,3.476,0,0,1,2.607,3.353Zm-6.953-8.691A3.476,3.476,0,0,1,28.345,20.6v6.706A3.476,3.476,0,0,1,25.738,23.953Z" transform="translate(-3.142 -2.22)"/>
      </g>
    </g>
  </g>
</svg>
